M48
; DRILL file {KiCad 9.0.7} date 2026-02-03T09:28:19-0500
; FORMAT={-:-/ absolute / inch / decimal}
; #@! TF.CreationDate,2026-02-03T09:28:19-05:00
; #@! TF.GenerationSoftware,Kicad,Pcbnew,9.0.7
; #@! TF.FileFunction,Plated,1,2,PTH
FMAT,2
INCH
; #@! TA.AperFunction,Plated,PTH,ViaDrill
T1C0.0118
; #@! TA.AperFunction,Plated,PTH,ComponentDrill
T2C0.0157
; #@! TA.AperFunction,Plated,PTH,ComponentDrill
T3C0.0276
; #@! TA.AperFunction,Plated,PTH,ComponentDrill
T4C0.0300
; #@! TA.AperFunction,Plated,PTH,ComponentDrill
T5C0.0315
; #@! TA.AperFunction,Plated,PTH,ComponentDrill
T6C0.0394
; #@! TA.AperFunction,Plated,PTH,ComponentDrill
T7C0.0709
; #@! TA.AperFunction,Plated,PTH,ComponentDrill
T8C0.0866
%
G90
G05
T1
X1.1339Y-8.2047
X1.1496Y-2.6299
X1.1732Y-3.2205
X1.315Y-2.4409
X1.5118Y-4.4252
X1.5212Y-4.1464
X1.5591Y-5.252
X1.5646Y-4.974
X1.5669Y-6.0157
X1.5984Y-6.9449
X1.6079Y-5.8016
X1.6535Y-6.6292
X1.6947Y-7.4568
X2.0157Y-8.8189
X2.018Y-3.8276
X2.0551Y-3.4803
X2.0614Y-4.6552
X2.1047Y-5.4828
X2.1417Y-6.7874
X2.1481Y-6.3104
X2.1496Y-5.1339
X2.1533Y-8.2597
X2.1915Y-7.138
X2.315Y-2.3858
X2.4409Y-6.0
X2.6142Y-2.3228
X2.6444Y-7.9323
X2.889Y-3.741
X2.9134Y-3.3937
X2.9179Y-4.5692
X2.9468Y-5.3974
X2.9757Y-6.2257
X3.0047Y-7.0539
X3.2047Y-4.2756
X3.3465Y-7.5906
X3.6929Y-3.3228
X3.7323Y-4.9921
X3.7472Y-3.677
X3.7617Y-4.5056
X3.7761Y-5.3343
X3.7906Y-6.1629
X3.805Y-6.9915
X3.8195Y-7.8201
X4.0394Y-4.2205
X4.0394Y-6.6378
X4.1102Y-7.5276
X4.1417Y-5.874
X4.5118Y-3.2756
X4.5591Y-4.252
X4.5591Y-4.9291
X4.5591Y-5.9055
X4.5591Y-6.5827
X4.6064Y-3.6281
X4.6064Y-4.4568
X4.6064Y-5.2856
X4.6064Y-6.1143
X4.6064Y-6.943
X4.6064Y-7.7718
X4.6299Y-3.2756
X4.6535Y-7.4803
X4.874Y-4.2598
X4.874Y-5.9134
X4.874Y-7.5748
X5.3622Y-6.6299
X5.394Y-7.8159
X5.4085Y-6.9873
X5.4229Y-6.1587
X5.4252Y-3.3228
X5.4374Y-5.3301
X5.4519Y-4.5015
X5.4663Y-3.6729
X5.4803Y-4.9606
X5.7795Y-4.315
X5.7795Y-5.9685
X6.063Y-7.6693
X6.2097Y-7.0456
X6.2386Y-6.2174
X6.2598Y-6.6772
X6.2675Y-5.3891
X6.2835Y-3.378
X6.2964Y-4.5609
X6.315Y-5.0315
X6.3253Y-3.7327
X6.5512Y-6.0472
X6.5702Y-7.9295
X6.6535Y-8.7953
X6.685Y-4.3858
X6.8819Y-2.4803
X7.0237Y-7.1256
X7.0671Y-6.298
X7.1105Y-5.4704
X7.1466Y-4.6428
X7.1938Y-3.8152
X7.4567Y-2.5039
X7.5276Y-8.2047
T2
X1.1443Y-2.5221
X1.1609Y-2.4753
X1.1657Y-2.567
X1.1873Y-8.7949
X1.2031Y-8.7478
X1.2058Y-2.4539
X1.2095Y-8.8394
X1.2126Y-2.5836
X1.2475Y-8.7256
X1.2527Y-2.4705
X1.2566Y-8.8552
X1.2575Y-2.5622
X1.2741Y-2.5153
X1.2947Y-8.7414
X1.3011Y-8.833
X1.3169Y-8.7859
X4.2658Y-2.5444
X4.2658Y-8.3882
X4.2849Y-2.4985
X4.2849Y-2.5903
X4.2849Y-8.3422
X4.2849Y-8.4341
X4.3308Y-2.4795
X4.3308Y-2.6094
X4.3308Y-8.3232
X4.3308Y-8.4531
X4.3767Y-2.4985
X4.3767Y-2.5903
X4.3767Y-8.3422
X4.3767Y-8.4341
X4.3958Y-2.5444
X4.3958Y-8.3882
X7.3479Y-8.7446
X7.3597Y-2.8766
X7.3637Y-8.7918
X7.3701Y-8.7001
X7.3763Y-2.9234
X7.3811Y-2.8317
X7.4082Y-8.8139
X7.4172Y-8.6843
X7.4212Y-2.9448
X7.428Y-2.8151
X7.4553Y-8.7982
X7.4617Y-8.7065
X7.4681Y-2.9282
X7.4729Y-2.8365
X7.4775Y-8.7537
X7.4895Y-2.8834
T4
X6.269Y-3.1188
X6.2742Y-3.019
X6.2795Y-2.9191
X6.2847Y-2.8192
X6.2899Y-2.7194
X6.2952Y-2.6195
X6.3004Y-2.5196
X6.3689Y-3.1241
X6.4003Y-2.5249
X6.4687Y-3.1293
X6.5001Y-2.5301
X6.5686Y-3.1345
X6.6Y-2.5353
X6.6684Y-3.1398
X6.6998Y-2.5406
X6.7683Y-3.145
X6.7997Y-2.5458
X6.8682Y-3.1502
X6.8996Y-2.551
X6.968Y-3.1555
X6.9994Y-2.5563
X7.0679Y-3.1607
X7.0993Y-2.5615
X7.1678Y-3.1659
X7.1992Y-2.5667
X7.2676Y-3.1712
X7.299Y-2.572
X7.3675Y-3.1764
X7.3989Y-2.5772
X7.4673Y-3.1816
X7.4987Y-2.5824
T5
X6.667Y-3.0246
X6.6879Y-2.6251
X6.7849Y-3.0307
X6.8059Y-2.6313
X7.0673Y-2.9095
X7.0724Y-2.8112
T6
X1.2298Y-2.7237
X1.235Y-2.8235
X1.2403Y-2.9234
X1.2455Y-3.0232
X2.4171Y-2.4121
X2.4437Y-3.1843
X2.5168Y-2.4034
X2.5436Y-3.1808
X2.6164Y-2.3946
X2.6436Y-3.1773
X2.716Y-2.3859
X2.7435Y-3.1738
X4.1808Y-2.2678
X4.1808Y-3.0562
X4.2808Y-2.2678
X4.2808Y-3.0562
X4.3808Y-2.2678
X4.3808Y-3.0562
X4.4808Y-2.2678
X4.4808Y-3.0562
T8
X1.2092Y-2.5187
X1.2521Y-8.7904
X4.3308Y-2.5444
X4.3308Y-8.3882
X7.4127Y-8.7491
X7.4246Y-2.88
T3
G00X1.1903Y-7.8367
M15
G01X1.1785Y-7.8375
M16
G05
G00X1.1972Y-7.9349
M15
G01X1.1854Y-7.9357
M16
G05
G00X1.2041Y-8.033
M15
G01X1.1923Y-8.0339
M16
G05
G00X1.9112Y-8.7492
M15
G01X1.9121Y-8.761
M16
G05
G00X2.0094Y-8.7424
M15
G01X2.0103Y-8.7542
M16
G05
G00X2.1076Y-8.7355
M15
G01X2.1084Y-8.7473
M16
G05
G00X6.5571Y-8.6942
M15
G01X6.5563Y-8.706
M16
G05
G00X6.6553Y-8.7011
M15
G01X6.6545Y-8.7129
M16
G05
G00X6.7535Y-8.708
M15
G01X6.7527Y-8.7198
M16
G05
G00X7.4607Y-7.9918
M15
G01X7.4725Y-7.9926
M16
G05
G00X7.4676Y-7.8936
M15
G01X7.4794Y-7.8944
M16
G05
G00X7.4744Y-7.7954
M15
G01X7.4862Y-7.7962
M16
G05
T7
G00X1.2624Y-7.7527
M15
G01X1.2526Y-7.7534
M16
G05
G00X1.2871Y-8.1062
M15
G01X1.2773Y-8.1069
M16
G05
G00X1.8273Y-8.6772
M15
G01X1.828Y-8.687
M16
G05
G00X2.1807Y-8.6524
M15
G01X2.1814Y-8.6623
M16
G05
G00X6.484Y-8.6112
M15
G01X6.4833Y-8.621
M16
G05
G00X6.8375Y-8.6359
M15
G01X6.8368Y-8.6457
M16
G05
G00X7.3776Y-8.0649
M15
G01X7.3875Y-8.0656
M16
G05
G00X7.4024Y-7.7114
M15
G01X7.4122Y-7.7121
M16
G05
M30
