%TF.GenerationSoftware,KiCad,Pcbnew,9.0.7*%
%TF.CreationDate,2026-02-22T01:04:13-05:00*%
%TF.ProjectId,travis_erg2026-v4-round,74726176-6973-45f6-9572-67323032362d,2026.02.18*%
%TF.SameCoordinates,Original*%
%TF.FileFunction,Soldermask,Top*%
%TF.FilePolarity,Negative*%
%FSLAX46Y46*%
G04 Gerber Fmt 4.6, Leading zero omitted, Abs format (unit mm)*
G04 Created by KiCad (PCBNEW 9.0.7) date 2026-02-22 01:04:13*
%MOMM*%
%LPD*%
G01*
G04 APERTURE LIST*
G04 Aperture macros list*
%AMRoundRect*
0 Rectangle with rounded corners*
0 $1 Rounding radius*
0 $2 $3 $4 $5 $6 $7 $8 $9 X,Y pos of 4 corners*
0 Add a 4 corners polygon primitive as box body*
4,1,4,$2,$3,$4,$5,$6,$7,$8,$9,$2,$3,0*
0 Add four circle primitives for the rounded corners*
1,1,$1+$1,$2,$3*
1,1,$1+$1,$4,$5*
1,1,$1+$1,$6,$7*
1,1,$1+$1,$8,$9*
0 Add four rect primitives between the rounded corners*
20,1,$1+$1,$2,$3,$4,$5,0*
20,1,$1+$1,$4,$5,$6,$7,0*
20,1,$1+$1,$6,$7,$8,$9,0*
20,1,$1+$1,$8,$9,$2,$3,0*%
%AMHorizOval*
0 Thick line with rounded ends*
0 $1 width*
0 $2 $3 position (X,Y) of the first rounded end (center of the circle)*
0 $4 $5 position (X,Y) of the second rounded end (center of the circle)*
0 Add line between two ends*
20,1,$1,$2,$3,$4,$5,0*
0 Add two circle primitives to create the rounded ends*
1,1,$1,$2,$3*
1,1,$1,$4,$5*%
G04 Aperture macros list end*
%ADD10C,1.624000*%
%ADD11C,1.700000*%
%ADD12C,1.600000*%
%ADD13HorizOval,1.700000X-0.031879X0.298301X0.031879X-0.298301X0*%
%ADD14HorizOval,1.700000X-0.023538X-0.299075X0.023538X0.299075X0*%
%ADD15RoundRect,0.050000X-0.804350X-0.893321X0.893321X-0.804350X0.804350X0.893321X-0.893321X0.804350X0*%
%ADD16HorizOval,1.800000X0.000000X0.000000X0.000000X0.000000X0*%
%ADD17RoundRect,0.050000X0.879147X-0.819818X0.819818X0.879147X-0.879147X0.819818X-0.819818X-0.879147X0*%
%ADD18HorizOval,1.800000X0.000000X0.000000X0.000000X0.000000X0*%
%ADD19RoundRect,0.050000X0.850000X-0.850000X0.850000X0.850000X-0.850000X0.850000X-0.850000X-0.850000X0*%
%ADD20O,1.800000X1.800000*%
%ADD21HorizOval,1.700000X0.000000X0.000000X0.000000X0.000000X0*%
%ADD22RoundRect,0.650000X-0.932785X0.602007X-0.864748X-0.696212X0.932785X-0.602007X0.864748X0.696212X0*%
%ADD23HorizOval,1.500000X-0.149794X-0.007850X0.149794X0.007850X0*%
%ADD24RoundRect,0.650000X-0.585636X-0.943149X0.711197X-0.852466X0.585636X0.943149X-0.711197X0.852466X0*%
%ADD25HorizOval,1.500000X-0.010463X0.149635X0.010463X-0.149635X0*%
%ADD26RoundRect,0.650000X-0.711197X-0.852466X0.585636X-0.943149X0.711197X0.852466X-0.585636X0.943149X0*%
%ADD27HorizOval,1.500000X-0.010463X-0.149635X0.010463X0.149635X0*%
%ADD28RoundRect,0.650000X0.864748X-0.696212X0.932785X0.602007X-0.864748X0.696212X-0.932785X-0.602007X0*%
%ADD29HorizOval,1.500000X-0.149794X0.007850X0.149794X-0.007850X0*%
%ADD30C,4.200000*%
%ADD31C,2.000000*%
%ADD32C,3.100000*%
%ADD33C,3.148000*%
%ADD34C,4.087800*%
%ADD35C,0.800000*%
%ADD36C,4.500000*%
G04 APERTURE END LIST*
D10*
%TO.C,MCU1*%
X190468138Y-65594213D03*
X187931619Y-65461279D03*
X185395100Y-65328346D03*
X182858581Y-65195413D03*
X180322062Y-65062479D03*
X177785543Y-64929546D03*
X175249023Y-64796613D03*
X172712504Y-64663679D03*
X170175985Y-64530746D03*
X167639466Y-64397813D03*
X165102947Y-64264879D03*
X162566428Y-64131946D03*
X160029909Y-63999013D03*
X159896976Y-66535532D03*
X159764043Y-69072051D03*
X159631109Y-71608570D03*
X159498176Y-74145089D03*
X159365243Y-76681608D03*
X159232309Y-79218127D03*
X161768828Y-79351060D03*
X164305347Y-79483993D03*
X166841866Y-79616927D03*
X169378385Y-79749860D03*
X171914905Y-79882793D03*
X174451424Y-80015727D03*
X176987943Y-80148660D03*
X179524462Y-80281593D03*
X182060981Y-80414527D03*
X184597500Y-80547460D03*
X187134019Y-80680393D03*
X189670538Y-80813327D03*
%TD*%
D11*
%TO.C,C1*%
X179508321Y-73902006D03*
X179639161Y-71405432D03*
%TD*%
D12*
%TO.C,TRRS1*%
X68903024Y-65961864D03*
X68159176Y-59001499D03*
D13*
X70616175Y-60348032D03*
X70934968Y-63331046D03*
X71360024Y-67308398D03*
X66902960Y-68890984D03*
%TD*%
D12*
%TO.C,TRRS2*%
X151388346Y-65284921D03*
X151937559Y-58306500D03*
D14*
X154104935Y-60082023D03*
X153869557Y-63072775D03*
X153555721Y-67060445D03*
X148883596Y-67796142D03*
%TD*%
D15*
%TO.C,OLED1*%
X31236895Y-69180868D03*
D16*
X31369828Y-71717387D03*
X31502762Y-74253906D03*
X31635695Y-76790425D03*
%TD*%
D17*
%TO.C,OLED2*%
X62052219Y-80381747D03*
D18*
X64590672Y-80293102D03*
X67129124Y-80204458D03*
X69667577Y-80115813D03*
%TD*%
D19*
%TO.C,OLED3*%
X106192567Y-77128140D03*
D20*
X108732567Y-77128140D03*
X111272567Y-77128140D03*
X113812567Y-77128140D03*
%TD*%
D11*
%TO.C,R1*%
X169341466Y-76823918D03*
D21*
X169873199Y-66677842D03*
%TD*%
D11*
%TO.C,R2*%
X172337355Y-76980926D03*
D21*
X172869088Y-66834850D03*
%TD*%
D22*
%TO.C,ROT1*%
X30479669Y-165076920D03*
X30950693Y-174064586D03*
D23*
X28587082Y-167178851D03*
X28717922Y-169675425D03*
X28848762Y-172171999D03*
%TD*%
D24*
%TO.C,ROT2*%
X46421479Y-220524582D03*
X55399555Y-219896774D03*
D25*
X48556120Y-222380197D03*
X51050030Y-222205806D03*
X53543940Y-222031415D03*
%TD*%
D26*
%TO.C,ROT3*%
X164685392Y-218848809D03*
X173663468Y-219476617D03*
D27*
X166541007Y-220983450D03*
X169034917Y-221157841D03*
X171528827Y-221332232D03*
%TD*%
D28*
%TO.C,ROT4*%
X189134254Y-173016621D03*
X189605278Y-164028955D03*
D29*
X191236185Y-171124034D03*
X191367025Y-168627460D03*
X191497865Y-166130886D03*
%TD*%
D30*
%TO.C,S1*%
X60011261Y-199475332D03*
D31*
X54943636Y-199829695D03*
X65078886Y-199120969D03*
D32*
X57831811Y-204720139D03*
X63989161Y-201743373D03*
%TD*%
D30*
%TO.C,S2*%
X48542308Y-179175917D03*
D31*
X43469270Y-179441784D03*
X53615346Y-178910050D03*
D32*
X46271656Y-184381888D03*
X52480020Y-181513036D03*
%TD*%
D30*
%TO.C,S3*%
X47440636Y-158154766D03*
D31*
X42367598Y-158420633D03*
X52513674Y-157888899D03*
D32*
X45169984Y-163360737D03*
X51378348Y-160491885D03*
%TD*%
D30*
%TO.C,S4*%
X46338964Y-137133614D03*
D31*
X41265926Y-137399481D03*
X51412002Y-136867747D03*
D32*
X44068312Y-142339585D03*
X50276676Y-139470733D03*
%TD*%
D30*
%TO.C,S5*%
X45237292Y-116112462D03*
D31*
X40164254Y-116378329D03*
X50310330Y-115846595D03*
D32*
X42966640Y-121318433D03*
X49175004Y-118449581D03*
%TD*%
D30*
%TO.C,S6*%
X44135620Y-95091311D03*
D31*
X39062582Y-95357178D03*
X49208658Y-94825444D03*
D32*
X41864968Y-100297282D03*
X48073332Y-97428430D03*
%TD*%
D30*
%TO.C,S7*%
X69235552Y-176914858D03*
D31*
X64158647Y-177092147D03*
X74312457Y-176737569D03*
D32*
X66874389Y-182080408D03*
X73131876Y-179320344D03*
%TD*%
D30*
%TO.C,S8*%
X68500917Y-155877681D03*
D31*
X63424012Y-156054970D03*
X73577822Y-155700392D03*
D32*
X66139754Y-161043231D03*
X72397241Y-158283167D03*
%TD*%
D30*
%TO.C,S9*%
X67766283Y-134840504D03*
D31*
X62689378Y-135017793D03*
X72843188Y-134663215D03*
D32*
X65405120Y-140006054D03*
X71662607Y-137245990D03*
%TD*%
D30*
%TO.C,S10*%
X67031649Y-113803327D03*
D31*
X61954744Y-113980616D03*
X72108554Y-113626038D03*
D32*
X64670486Y-118968877D03*
X70927973Y-116208813D03*
%TD*%
D30*
%TO.C,S11*%
X66297014Y-92766150D03*
D31*
X61220109Y-92943439D03*
X71373919Y-92588861D03*
D32*
X63935851Y-97931700D03*
X70193338Y-95171636D03*
%TD*%
D30*
%TO.C,S12*%
X89973073Y-196252909D03*
D31*
X84893847Y-196341567D03*
X95052299Y-196164251D03*
D32*
X87522118Y-201376464D03*
X93826822Y-198726028D03*
%TD*%
D30*
%TO.C,S13*%
X89605700Y-175206115D03*
D31*
X84526474Y-175294773D03*
X94684926Y-175117457D03*
D32*
X87154745Y-180329670D03*
X93459449Y-177679234D03*
%TD*%
D30*
%TO.C,S14*%
X89238326Y-154159321D03*
D31*
X84159100Y-154247979D03*
X94317552Y-154070663D03*
D32*
X86787371Y-159282876D03*
X93092075Y-156632440D03*
%TD*%
D30*
%TO.C,S15*%
X88870953Y-133112527D03*
D31*
X83791727Y-133201185D03*
X93950179Y-133023869D03*
D32*
X86419998Y-138236082D03*
X92724702Y-135585646D03*
%TD*%
D30*
%TO.C,S16*%
X88503580Y-112065733D03*
D31*
X83424354Y-112154391D03*
X93582806Y-111977075D03*
D32*
X86052625Y-117189288D03*
X92357329Y-114538852D03*
%TD*%
D30*
%TO.C,S17*%
X88136207Y-91018939D03*
D31*
X83056981Y-91107597D03*
X93215433Y-90930281D03*
D32*
X85685252Y-96142494D03*
X91989956Y-93492058D03*
%TD*%
D30*
%TO.C,S18*%
X110002567Y-194903140D03*
D31*
X104922567Y-194903140D03*
X115082567Y-194903140D03*
D32*
X107462567Y-199983140D03*
X113812567Y-197443140D03*
%TD*%
D30*
%TO.C,S19*%
X110002567Y-173853140D03*
D31*
X104922567Y-173853140D03*
X115082567Y-173853140D03*
D32*
X107462567Y-178933140D03*
X113812567Y-176393140D03*
%TD*%
D30*
%TO.C,S20*%
X110002567Y-152803140D03*
D31*
X104922567Y-152803140D03*
X115082567Y-152803140D03*
D32*
X107462567Y-157883140D03*
X113812567Y-155343140D03*
%TD*%
D30*
%TO.C,S21*%
X110002567Y-131753140D03*
D31*
X104922567Y-131753140D03*
X115082567Y-131753140D03*
D32*
X107462567Y-136833140D03*
X113812567Y-134293140D03*
%TD*%
D30*
%TO.C,S22*%
X110002567Y-110703140D03*
D31*
X104922567Y-110703140D03*
X115082567Y-110703140D03*
D32*
X107462567Y-115783140D03*
X113812567Y-113243140D03*
%TD*%
D30*
%TO.C,S23*%
X110002567Y-89653140D03*
D31*
X104922567Y-89653140D03*
X115082567Y-89653140D03*
D32*
X107462567Y-94733140D03*
X113812567Y-92193140D03*
%TD*%
D30*
%TO.C,S24*%
X130052567Y-195903140D03*
D31*
X124973341Y-195814482D03*
X135131793Y-195991798D03*
D32*
X127424296Y-200938037D03*
X133817658Y-198509247D03*
%TD*%
D30*
%TO.C,S25*%
X130419940Y-174856346D03*
D31*
X125340714Y-174767688D03*
X135499166Y-174945004D03*
D32*
X127791669Y-179891243D03*
X134185031Y-177462453D03*
%TD*%
D30*
%TO.C,S26*%
X130787313Y-153809552D03*
D31*
X125708087Y-153720894D03*
X135866539Y-153898210D03*
D32*
X128159042Y-158844449D03*
X134552404Y-156415659D03*
%TD*%
D30*
%TO.C,S27*%
X131154686Y-132762758D03*
D31*
X126075460Y-132674100D03*
X136233912Y-132851416D03*
D32*
X128526415Y-137797655D03*
X134919777Y-135368865D03*
%TD*%
D30*
%TO.C,S28*%
X131522060Y-111715964D03*
D31*
X126442834Y-111627306D03*
X136601286Y-111804622D03*
D32*
X128893789Y-116750861D03*
X135287151Y-114322071D03*
%TD*%
D30*
%TO.C,S29*%
X131889433Y-90669170D03*
D31*
X126810207Y-90580512D03*
X136968659Y-90757828D03*
D32*
X129261162Y-95704067D03*
X135654524Y-93275277D03*
%TD*%
D30*
%TO.C,S30*%
X150816695Y-176215732D03*
D31*
X145739790Y-176038443D03*
X155893600Y-176393021D03*
D32*
X148100953Y-181203993D03*
X154535729Y-178887152D03*
%TD*%
D30*
%TO.C,S31*%
X151551329Y-155178555D03*
D31*
X146474424Y-155001266D03*
X156628234Y-155355844D03*
D32*
X148835587Y-160166816D03*
X155270363Y-157849975D03*
%TD*%
D30*
%TO.C,S32*%
X152285964Y-134141378D03*
D31*
X147209059Y-133964089D03*
X157362869Y-134318667D03*
D32*
X149570222Y-139129639D03*
X156004998Y-136812798D03*
%TD*%
D30*
%TO.C,S33*%
X153020598Y-113104201D03*
D31*
X147943693Y-112926912D03*
X158097503Y-113281490D03*
D32*
X150304856Y-118092462D03*
X156739632Y-115775621D03*
%TD*%
D30*
%TO.C,S34*%
X153755233Y-92067024D03*
D31*
X148678328Y-91889735D03*
X158832138Y-92244313D03*
D32*
X151039491Y-97055285D03*
X157474267Y-94738444D03*
%TD*%
D30*
%TO.C,S35*%
X160073686Y-198427367D03*
D31*
X155006061Y-198073004D03*
X165141311Y-198781730D03*
D32*
X157185510Y-203317811D03*
X163697224Y-201226952D03*
%TD*%
D30*
%TO.C,S36*%
X171542639Y-178127952D03*
D31*
X166469601Y-177862085D03*
X176615677Y-178393819D03*
D32*
X168740253Y-183068057D03*
X175214484Y-180863871D03*
%TD*%
D30*
%TO.C,S37*%
X172644311Y-157106800D03*
D31*
X167571273Y-156840933D03*
X177717349Y-157372667D03*
D32*
X169841925Y-162046905D03*
X176316156Y-159842719D03*
%TD*%
D30*
%TO.C,S38*%
X173745983Y-136085649D03*
D31*
X168672945Y-135819782D03*
X178819021Y-136351516D03*
D32*
X170943597Y-141025754D03*
X177417828Y-138821568D03*
%TD*%
D30*
%TO.C,S39*%
X174847655Y-115064497D03*
D31*
X169774617Y-114798630D03*
X179920693Y-115330364D03*
D32*
X172045269Y-120004602D03*
X178519500Y-117800416D03*
%TD*%
D30*
%TO.C,S40*%
X175949327Y-94043345D03*
D31*
X170876289Y-93777478D03*
X181022365Y-94309212D03*
D32*
X173146941Y-98983450D03*
X179621172Y-96779264D03*
%TD*%
D33*
%TO.C,STAB2u1*%
X47615092Y-193340100D03*
X71432932Y-191674594D03*
D34*
X48676088Y-208513049D03*
X72493928Y-206847544D03*
%TD*%
D33*
%TO.C,STAB2u2*%
X148652015Y-190626629D03*
X172469855Y-192292135D03*
D34*
X147591019Y-205799579D03*
X171408859Y-207465084D03*
%TD*%
D35*
%TO.C,HOLE1*%
X32465454Y-65553325D03*
D36*
X31239265Y-64449260D03*
D35*
X31325619Y-66096999D03*
X32343330Y-63223071D03*
X29591526Y-64535614D03*
X30013076Y-63345195D03*
X30135200Y-65675449D03*
X32887004Y-64362906D03*
X31152911Y-62801521D03*
%TD*%
%TO.C,HOLE2*%
X111169293Y-65794866D03*
D36*
X110002567Y-64628140D03*
D35*
X110002567Y-66278140D03*
X111169293Y-63461414D03*
X108352567Y-64628140D03*
X108835841Y-63461414D03*
X108835841Y-65794866D03*
X111652567Y-64628140D03*
X110002567Y-62978140D03*
%TD*%
%TO.C,HOLE3*%
X189689129Y-74377205D03*
D36*
X188585064Y-73151016D03*
D35*
X188498710Y-74798755D03*
X189811253Y-72046951D03*
X186937325Y-73064662D03*
X187480999Y-71924827D03*
X187358875Y-74255081D03*
X190232803Y-73237370D03*
X188671418Y-71503277D03*
%TD*%
%TO.C,HOLE4*%
X176241069Y-214034892D03*
D36*
X175158572Y-212789621D03*
D35*
X175043474Y-214435602D03*
X176403843Y-211707124D03*
X173512591Y-212674523D03*
X174076075Y-211544350D03*
X173913301Y-213872118D03*
X176804553Y-212904719D03*
X175273670Y-211143640D03*
%TD*%
%TO.C,HOLE5*%
X111169293Y-214226116D03*
D36*
X110002567Y-213059390D03*
D35*
X110002567Y-214709390D03*
X111169293Y-211892664D03*
X108352567Y-213059390D03*
X108835841Y-211892664D03*
X108835841Y-214226116D03*
X111652567Y-213059390D03*
X110002567Y-211409390D03*
%TD*%
%TO.C,HOLE6*%
X46171646Y-214920083D03*
D36*
X44926375Y-213837586D03*
D35*
X45041473Y-215483567D03*
X46008872Y-212592315D03*
X43280394Y-213952684D03*
X43681104Y-212755089D03*
X43843878Y-215082857D03*
X46572356Y-213722488D03*
X44811277Y-212191605D03*
%TD*%
M02*
