M48
; DRILL file {KiCad 9.0.7} date 2026-02-03T09:28:19-0500
; FORMAT={-:-/ absolute / inch / decimal}
; #@! TF.CreationDate,2026-02-03T09:28:19-05:00
; #@! TF.GenerationSoftware,Kicad,Pcbnew,9.0.7
; #@! TF.FileFunction,NonPlated,1,2,NPTH
FMAT,2
INCH
; #@! TA.AperFunction,NonPlated,NPTH,ComponentDrill
T1C0.0748
; #@! TA.AperFunction,NonPlated,NPTH,ComponentDrill
T2C0.1181
; #@! TA.AperFunction,NonPlated,NPTH,ComponentDrill
T3C0.1200
; #@! TA.AperFunction,NonPlated,NPTH,ComponentDrill
T4C0.1570
; #@! TA.AperFunction,NonPlated,NPTH,ComponentDrill
T5C0.1614
%
G90
G05
T1
X1.5379Y-3.7542
X1.5813Y-4.5818
X1.6246Y-5.4094
X1.668Y-6.237
X1.7114Y-7.0646
X1.9373Y-3.7333
X1.9807Y-4.5609
X2.0241Y-5.3885
X2.0675Y-6.2161
X2.1108Y-7.0437
X2.1631Y-7.8673
X2.4102Y-3.6592
X2.4392Y-4.4874
X2.4681Y-5.3157
X2.497Y-6.1439
X2.5259Y-6.9721
X2.5622Y-7.8394
X2.81Y-3.6452
X2.8389Y-4.4735
X2.8678Y-5.3017
X2.8968Y-6.1299
X2.9257Y-6.9582
X3.27Y-3.5869
X3.2844Y-4.4155
X3.2989Y-5.2441
X3.3134Y-6.0728
X3.3278Y-6.9014
X3.3423Y-7.73
X3.6699Y-3.5799
X3.6844Y-4.4085
X3.6988Y-5.2372
X3.7133Y-6.0658
X3.7278Y-6.8944
X3.7422Y-7.723
X4.1308Y-3.5297
X4.1308Y-4.3584
X4.1308Y-5.1871
X4.1308Y-6.0159
X4.1308Y-6.8446
X4.1308Y-7.6734
X4.5308Y-3.5297
X4.5308Y-4.3584
X4.5308Y-5.1871
X4.5308Y-6.0159
X4.5308Y-6.8446
X4.5308Y-7.6734
X4.9202Y-7.7092
X4.9347Y-6.8806
X4.9491Y-6.052
X4.9636Y-5.2234
X4.9781Y-4.3948
X4.9925Y-3.5662
X5.3201Y-7.7162
X5.3346Y-6.8876
X5.3491Y-6.059
X5.3635Y-5.2304
X5.378Y-4.4018
X5.3925Y-3.5731
X5.7378Y-6.9306
X5.7667Y-6.1024
X5.7956Y-5.2742
X5.8246Y-4.4459
X5.8535Y-3.6177
X6.1026Y-7.7981
X6.1375Y-6.9446
X6.1665Y-6.1164
X6.1954Y-5.2881
X6.2243Y-4.4599
X6.2532Y-3.6317
X6.5016Y-7.8261
X6.5539Y-7.0024
X6.5973Y-6.1748
X6.6407Y-5.3472
X6.684Y-4.5196
X6.7274Y-3.692
X6.9534Y-7.0234
X6.9967Y-6.1958
X7.0401Y-5.3682
X7.0835Y-4.5406
X7.1269Y-3.713
T2
X1.6482Y-3.9487
X1.6916Y-4.7763
X1.735Y-5.6039
X1.7783Y-6.4315
X1.8217Y-7.2591
X1.8927Y-3.8358
X1.936Y-4.6634
X1.9794Y-5.491
X2.0228Y-6.3186
X2.0661Y-7.1462
X2.2768Y-8.0598
X2.5172Y-3.8556
X2.5193Y-7.9427
X2.5461Y-4.6838
X2.575Y-5.512
X2.6039Y-6.3403
X2.6328Y-7.1685
X2.7635Y-3.7469
X2.7924Y-4.5752
X2.8214Y-5.4034
X2.8503Y-6.2316
X2.8792Y-7.0599
X3.3734Y-3.7851
X3.3879Y-4.6138
X3.4024Y-5.4424
X3.4168Y-6.271
X3.4313Y-7.0996
X3.4458Y-7.9282
X3.6217Y-3.6808
X3.6361Y-4.5094
X3.6506Y-5.338
X3.665Y-6.1666
X3.6795Y-6.9952
X3.694Y-7.8239
X4.2308Y-3.7297
X4.2308Y-4.5584
X4.2308Y-5.3871
X4.2308Y-6.2159
X4.2308Y-7.0446
X4.2308Y-7.8734
X4.4808Y-3.6297
X4.4808Y-4.4584
X4.4808Y-5.2871
X4.4808Y-6.1159
X4.4808Y-6.9446
X4.4808Y-7.7734
X5.0167Y-7.9109
X5.0312Y-7.0823
X5.0456Y-6.2537
X5.0601Y-5.4251
X5.0746Y-4.5965
X5.089Y-3.7679
X5.2684Y-7.8153
X5.2829Y-6.9867
X5.2973Y-6.1581
X5.3118Y-5.3295
X5.3263Y-4.5009
X5.3407Y-3.6723
X5.8307Y-7.134
X5.8597Y-6.3058
X5.8886Y-5.4775
X5.9175Y-4.6493
X5.9464Y-3.8211
X6.0841Y-7.0428
X6.113Y-6.2146
X6.1419Y-5.3863
X6.1709Y-4.5581
X6.1884Y-8.0046
X6.1998Y-3.7299
X6.4448Y-7.9223
X6.6433Y-7.2074
X6.6867Y-6.3798
X6.7301Y-5.5522
X6.7734Y-4.7246
X6.8168Y-3.897
X6.8982Y-7.1206
X6.9416Y-6.293
X6.985Y-5.4654
X7.0283Y-4.6378
X7.0717Y-3.8102
T3
X1.8746Y-7.6118
X2.8123Y-7.5462
X5.8524Y-7.505
X6.7902Y-7.5706
T4
X1.9164Y-8.2092
X2.8541Y-8.1436
X5.8107Y-8.1023
X6.7484Y-8.1679
T5
X1.7376Y-3.7438
X1.781Y-4.5714
X1.8244Y-5.399
X1.8677Y-6.2266
X1.9111Y-7.0542
X2.3626Y-7.8534
X2.6101Y-3.6522
X2.639Y-4.4804
X2.668Y-5.3087
X2.6969Y-6.1369
X2.7258Y-6.9652
X3.4699Y-3.5834
X3.4844Y-4.412
X3.4989Y-5.2407
X3.5133Y-6.0693
X3.5278Y-6.8979
X3.5422Y-7.7265
X4.3308Y-3.5297
X4.3308Y-4.3584
X4.3308Y-5.1871
X4.3308Y-6.0159
X4.3308Y-6.8446
X4.3308Y-7.6734
X5.1202Y-7.7127
X5.1346Y-6.8841
X5.1491Y-6.0555
X5.1636Y-5.2269
X5.178Y-4.3983
X5.1925Y-3.5697
X5.9377Y-6.9376
X5.9666Y-6.1094
X5.9955Y-5.2812
X6.0244Y-4.4529
X6.0534Y-3.6247
X6.3021Y-7.8121
X6.7536Y-7.0129
X6.797Y-6.1853
X6.8404Y-5.3577
X6.8838Y-4.5301
X6.9271Y-3.7025
M30
