M48
; DRILL file {KiCad 9.0.7} date 2026-02-22T01:04:13-0500
; FORMAT={-:-/ absolute / inch / decimal}
; #@! TF.CreationDate,2026-02-22T01:04:13-05:00
; #@! TF.GenerationSoftware,Kicad,Pcbnew,9.0.7
; #@! TF.FileFunction,Plated,1,2,PTH
FMAT,2
INCH
; #@! TA.AperFunction,Plated,PTH,ViaDrill
T1C0.0118
; #@! TA.AperFunction,Plated,PTH,ComponentDrill
T2C0.0157
; #@! TA.AperFunction,Plated,PTH,ComponentDrill
T3C0.0276
; #@! TA.AperFunction,Plated,PTH,ComponentDrill
T4C0.0300
; #@! TA.AperFunction,Plated,PTH,ComponentDrill
T5C0.0315
; #@! TA.AperFunction,Plated,PTH,ComponentDrill
T6C0.0354
; #@! TA.AperFunction,Plated,PTH,ComponentDrill
T7C0.0394
; #@! TA.AperFunction,Plated,PTH,ComponentDrill
T8C0.0709
; #@! TA.AperFunction,Plated,PTH,ComponentDrill
T9C0.0866
%
G90
G05
T1
X1.32Y-7.24
X1.46Y-3.62
X1.47Y-4.3
X1.55Y-5.25
X1.59Y-5.99
X1.65Y-6.9
X1.68Y-8.58
X1.78Y-7.58
X1.86Y-8.8
X2.018Y-3.8276
X2.05Y-7.58
X2.0614Y-4.6552
X2.1047Y-5.4828
X2.1481Y-6.3104
X2.1915Y-7.138
X2.43Y-5.02
X2.43Y-6.68
X2.64Y-3.1
X2.64Y-8.14
X2.6444Y-7.9323
X2.82Y-3.14
X2.889Y-3.741
X2.9179Y-4.5692
X2.9468Y-5.3974
X2.9757Y-6.2257
X3.0047Y-7.0539
X3.13Y-6.52
X3.19Y-3.39
X3.2Y-4.95
X3.2Y-6.61
X3.47Y-6.49
X3.7472Y-3.677
X3.7617Y-4.5056
X3.7761Y-5.3343
X3.7906Y-6.1629
X3.805Y-6.9915
X3.8195Y-7.8201
X3.83Y-5.88
X4.03Y-4.94
X4.09Y-3.33
X4.1Y-6.54
X4.1Y-7.54
X4.16Y-4.22
X4.34Y-3.1
X4.48Y-5.95
X4.49Y-4.28
X4.6064Y-3.6281
X4.6064Y-4.4568
X4.6064Y-5.2856
X4.6064Y-6.1143
X4.6064Y-6.943
X4.6064Y-7.7718
X4.65Y-4.24
X4.65Y-5.88
X4.65Y-7.52
X4.73Y-6.47
X4.81Y-6.57
X4.87Y-4.95
X4.93Y-3.34
X5.394Y-7.8159
X5.4Y-3.34
X5.4085Y-6.9873
X5.4229Y-6.1587
X5.4374Y-5.3301
X5.4519Y-4.5015
X5.4663Y-3.6729
X5.4693Y-8.0993
X5.48Y-5.94
X5.5496Y-3.2659
X5.5795Y-3.2819
X5.6093Y-3.2978
X5.6391Y-3.3138
X5.669Y-3.3297
X5.69Y-7.3201
X5.6988Y-3.3457
X5.7Y-6.63
X5.7159Y-6.4916
X5.7448Y-5.6634
X5.77Y-4.3
X5.77Y-5.0
X5.7737Y-4.8352
X5.8027Y-4.0069
X5.89Y-2.37
X6.05Y-7.66
X6.14Y-2.44
X6.2097Y-7.0456
X6.23Y-2.54
X6.2386Y-6.2174
X6.2675Y-5.3891
X6.29Y-5.97
X6.2964Y-4.5609
X6.3253Y-3.7327
X6.35Y-4.32
X6.43Y-6.71
X6.49Y-8.73
X6.54Y-5.08
X6.5702Y-7.9295
X6.64Y-3.45
X6.65Y-3.21
X6.87Y-2.48
X7.0237Y-7.1256
X7.0671Y-6.298
X7.1105Y-5.4704
X7.1538Y-4.6428
X7.1972Y-3.8152
X7.29Y-2.51
X7.43Y-3.06
T2
X1.165Y-2.5408
X1.1816Y-2.4939
X1.1864Y-2.5856
X1.2265Y-2.4725
X1.2333Y-2.6022
X1.2734Y-2.4891
X1.2782Y-2.5808
X1.2948Y-2.534
X1.704Y-8.4233
X1.7197Y-8.3762
X1.7261Y-8.4678
X1.7642Y-8.354
X1.7733Y-8.4836
X1.8114Y-8.3698
X1.8178Y-8.4614
X1.8336Y-8.4143
X4.2658Y-2.5444
X4.2658Y-8.3882
X4.2849Y-2.4985
X4.2849Y-2.5903
X4.2849Y-8.3422
X4.2849Y-8.4341
X4.3308Y-2.4795
X4.3308Y-2.6094
X4.3308Y-8.3232
X4.3308Y-8.4531
X4.3767Y-2.4985
X4.3767Y-2.5903
X4.3767Y-8.3422
X4.3767Y-8.4341
X4.3958Y-2.5444
X4.3958Y-8.3882
X6.8312Y-8.373
X6.847Y-8.4202
X6.8534Y-8.3285
X6.8915Y-8.4423
X6.9005Y-8.3127
X6.9386Y-8.4266
X6.945Y-8.3349
X6.9608Y-8.3821
X7.3597Y-2.8766
X7.3763Y-2.9234
X7.3811Y-2.8317
X7.4212Y-2.9448
X7.428Y-2.8151
X7.4681Y-2.9282
X7.4729Y-2.8365
X7.4895Y-2.8834
T4
X6.269Y-3.1188
X6.2742Y-3.019
X6.2795Y-2.9191
X6.2847Y-2.8192
X6.2899Y-2.7194
X6.2952Y-2.6195
X6.3004Y-2.5196
X6.3689Y-3.1241
X6.4003Y-2.5249
X6.4687Y-3.1293
X6.5001Y-2.5301
X6.5686Y-3.1345
X6.6Y-2.5353
X6.6684Y-3.1398
X6.6998Y-2.5406
X6.7683Y-3.145
X6.7997Y-2.5458
X6.8682Y-3.1502
X6.8996Y-2.551
X6.968Y-3.1555
X6.9994Y-2.5563
X7.0679Y-3.1607
X7.0993Y-2.5615
X7.1678Y-3.1659
X7.1992Y-2.5667
X7.2676Y-3.1712
X7.299Y-2.572
X7.3675Y-3.1764
X7.3989Y-2.5772
X7.4673Y-3.1816
X7.4987Y-2.5824
T5
X6.667Y-3.0246
X6.6879Y-2.6251
X6.7849Y-3.0307
X6.8059Y-2.6313
X7.0673Y-2.9095
X7.0724Y-2.8112
T7
X1.2298Y-2.7237
X1.235Y-2.8235
X1.2403Y-2.9234
X1.2455Y-3.0232
X2.443Y-3.1646
X2.5429Y-3.1611
X2.6429Y-3.1577
X2.7428Y-3.1542
X4.1808Y-3.0365
X4.2808Y-3.0365
X4.3808Y-3.0365
X4.4808Y-3.0365
T9
X1.2299Y-2.5374
X1.7688Y-8.4188
X4.3308Y-2.5444
X4.3308Y-8.3882
X6.896Y-8.3775
X7.4246Y-2.88
T3
G00X1.1314Y-6.5815
M15
G01X1.1196Y-6.5822
M16
G05
G00X1.1365Y-6.6798
M15
G01X1.1247Y-6.6804
M16
G05
G00X1.1417Y-6.7781
M15
G01X1.1299Y-6.7787
M16
G05
G00X1.9112Y-8.7492
M15
G01X1.9121Y-8.761
M16
G05
G00X2.0094Y-8.7424
M15
G01X2.0103Y-8.7542
M16
G05
G00X2.1076Y-8.7355
M15
G01X2.1084Y-8.7473
M16
G05
G00X6.5571Y-8.6942
M15
G01X6.5563Y-8.706
M16
G05
G00X6.6553Y-8.7011
M15
G01X6.6545Y-8.7129
M16
G05
G00X6.7535Y-8.708
M15
G01X6.7527Y-8.7198
M16
G05
G00X7.5231Y-6.7369
M15
G01X7.5349Y-6.7375
M16
G05
G00X7.5282Y-6.6386
M15
G01X7.54Y-6.6392
M16
G05
G00X7.5334Y-6.5403
M15
G01X7.5452Y-6.5409
M16
G05
T6
G00X2.6327Y-2.7005
M15
G01X2.6352Y-2.724
M16
G05
G00X2.7789Y-2.3642
M15
G01X2.7814Y-2.3877
M16
G05
G00X2.7915Y-2.4816
M15
G01X2.794Y-2.5051
M16
G05
G00X2.8082Y-2.6382
M15
G01X2.8107Y-2.6617
M16
G05
G00X5.8625Y-2.6574
M15
G01X5.8606Y-2.6809
M16
G05
G00X6.0464Y-2.6284
M15
G01X6.0446Y-2.6519
M16
G05
G00X6.0588Y-2.4714
M15
G01X6.0569Y-2.495
M16
G05
G00X6.0681Y-2.3537
M15
G01X6.0662Y-2.3772
M16
G05
T8
G00X1.2049Y-6.4988
M15
G01X1.1951Y-6.4993
M16
G05
G00X1.2234Y-6.8527
M15
G01X1.2136Y-6.8532
M16
G05
G00X1.8273Y-8.6772
M15
G01X1.828Y-8.687
M16
G05
G00X2.1807Y-8.6524
M15
G01X2.1814Y-8.6623
M16
G05
G00X6.484Y-8.6112
M15
G01X6.4833Y-8.621
M16
G05
G00X6.8375Y-8.6359
M15
G01X6.8368Y-8.6457
M16
G05
G00X7.4413Y-6.8114
M15
G01X7.4511Y-6.8119
M16
G05
G00X7.4599Y-6.4576
M15
G01X7.4697Y-6.4581
M16
G05
M30
