0
SECTION
2
HEADER
9
$INSUNITS
70
4
0
ENDSEC
0
SECTION
2
TABLES
0
TABLE
2
LTYPE
0
LTYPE
72
65
70
0
2
CONTINUOUS
3
______
73
0
40
0
0
LTYPE
72
65
70
0
2
DASHED
3
_ _ _ 
73
2
40
7.5
49
5
49
-2.5
0
LTYPE
72
65
70
0
2
DOTTED
3
. . . 
73
2
40
1.5
49
0.5
49
-1
0
ENDTAB
0
TABLE
2
LAYER
0
ENDTAB
0
ENDSEC
0
SECTION
2
ENTITIES
0
LINE
8
0
6
CONTINUOUS
10
40.7361024
20
-186.4270106
11
35.5963132
21
-88.3539901
0
LINE
8
0
6
CONTINUOUS
10
36.5426067
20
-87.3030246
11
50.5978238
21
-86.5664219
0
LINE
8
0
6
CONTINUOUS
10
50.7471571
20
-86.5472461
11
58.9584153
21
-84.8565499
0
LINE
8
0
6
CONTINUOUS
10
59.1251851
20
-84.8366128
11
72.9144793
21
-84.35508
0
LINE
8
0
6
CONTINUOUS
10
73.0494961
20
-84.3411477
11
80.9439163
21
-82.9799633
0
LINE
8
0
6
CONTINUOUS
10
81.0963802
20
-82.9655741
11
94.8994575
21
-82.7246406
0
LINE
8
0
6
CONTINUOUS
10
95.0346969
20
-82.7130668
11
102.9516712
21
-81.4898664
0
LINE
8
0
6
CONTINUOUS
10
103.104363
20
-81.4781403
11
116.9223229
21
-81.4781403
0
LINE
8
0
6
CONTINUOUS
10
117.032475
20
-81.4842256
11
125.011956
21
-82.3685633
0
LINE
8
0
6
CONTINUOUS
10
125.1046557
20
-82.3744963
11
138.9508085
21
-82.6161818
0
LINE
8
0
6
CONTINUOUS
10
139.0608376
20
-82.6241886
11
147.0236692
21
-83.647653
0
LINE
8
0
6
CONTINUOUS
10
147.1162512
20
-83.6552029
11
160.9476248
21
-84.1382052
0
LINE
8
0
6
CONTINUOUS
10
161.074152
20
-84.1507113
11
169.3575099
21
-85.5056362
0
LINE
8
0
6
CONTINUOUS
10
169.4666006
20
-85.517381
11
183.5423404
21
-86.2550593
0
LINE
8
0
6
CONTINUOUS
10
184.4886339
20
-87.3060248
11
179.3488447
21
-185.3790453
0
LINE
8
0
6
CONTINUOUS
10
179.2945476
20
-185.6557021
11
177.2651474
21
-191.4808392
0
LINE
8
0
6
CONTINUOUS
10
177.2119157
20
-191.7400755
11
176.0911731
21
-207.767442
0
LINE
8
0
6
CONTINUOUS
10
175.0238525
20
-208.6952496
11
144.1623161
21
-206.5372008
0
LINE
8
0
6
CONTINUOUS
10
143.9224588
20
-206.4904991
11
137.0262434
21
-204.2449971
0
LINE
8
0
6
CONTINUOUS
10
136.734082
20
-204.1960118
11
123.0003789
21
-203.9562892
0
LINE
8
0
6
CONTINUOUS
10
122.8722088
20
-203.9457817
11
117.0499879
21
-203.0888001
0
LINE
8
0
6
CONTINUOUS
10
116.9043654
20
-203.0781403
11
103.1297892
21
-203.0781403
0
LINE
8
0
6
CONTINUOUS
10
102.9274579
20
-203.0988232
11
97.1811647
21
-204.2860329
0
LINE
8
0
6
CONTINUOUS
10
96.9962858
20
-204.3065635
11
83.3371468
21
-204.5449846
0
LINE
8
0
6
CONTINUOUS
10
82.9621168
20
-204.6250728
11
76.2002491
21
-207.5105158
0
LINE
8
0
6
CONTINUOUS
10
75.8775232
20
-207.5883204
11
45.0610946
21
-209.7432149
0
LINE
8
0
6
CONTINUOUS
10
43.993774
20
-208.8154073
11
42.8730314
21
-192.7880408
0
LINE
8
0
6
CONTINUOUS
10
42.8197997
20
-192.5288045
11
40.7903995
21
-186.7036674
0
ARC
8
0
6
CONTINUOUS
10
36.5949427
20
-88.3016541
40
1
50
93.0000026
51
183.0000026
0
ARC
8
0
6
CONTINUOUS
10
50.5454878
20
-85.5677924
40
1
50
273.0000026
51
281.6345918
0
ARC
8
0
6
CONTINUOUS
10
59.1600846
20
-85.8360036
40
1
50
92.0000002
51
101.6345918
0
ARC
8
0
6
CONTINUOUS
10
72.8795798
20
-83.3556892
40
1
50
272.0000002
51
279.7829526
0
ARC
8
0
6
CONTINUOUS
10
81.1138326
20
-83.9654218
40
1
50
90.9999996
51
99.7829526
0
ARC
8
0
6
CONTINUOUS
10
94.8820051
20
-81.7247929
40
1
50
270.9999996
51
278.7829523
0
ARC
8
0
6
CONTINUOUS
10
103.104363
20
-82.4781403
40
1
50
90
51
98.7829523
0
ARC
8
0
6
CONTINUOUS
10
116.9223229
20
-82.4781403
40
1
50
83.6759162
51
90
0
ARC
8
0
6
CONTINUOUS
10
125.1221081
20
-81.3746486
40
1
50
263.6759162
51
269.0000004
0
ARC
8
0
6
CONTINUOUS
10
138.9333561
20
-83.6160295
40
1
50
82.6759177
51
89.0000004
0
ARC
8
0
6
CONTINUOUS
10
147.1511507
20
-82.6558121
40
1
50
262.6759177
51
267.9999998
0
ARC
8
0
6
CONTINUOUS
10
160.9127253
20
-85.137596
40
1
50
80.7102833
51
87.9999998
0
ARC
8
0
6
CONTINUOUS
10
169.5189366
20
-84.5187515
40
1
50
260.7102833
51
266.9999974
0
ARC
8
0
6
CONTINUOUS
10
183.4900044
20
-87.2536888
40
1
50
356.9999974
51
86.9999974
0
ARC
8
0
6
CONTINUOUS
10
178.3502152
20
-185.3267093
40
1
50
340.7923455
51
356.9999974
0
ARC
8
0
6
CONTINUOUS
10
178.2094798
20
-191.809832
40
1
50
160.7923455
51
175.9999987
0
ARC
8
0
6
CONTINUOUS
10
175.093609
20
-207.6976855
40
1
50
265.9999987
51
355.9999987
0
ARC
8
0
6
CONTINUOUS
10
144.2320726
20
-205.5396367
40
1
50
251.9640422
51
265.9999987
0
ARC
8
0
6
CONTINUOUS
10
136.7166296
20
-205.1958595
40
1
50
71.9640422
51
89.0000004
0
ARC
8
0
6
CONTINUOUS
10
123.0178313
20
-202.9564415
40
1
50
261.6266713
51
269.0000004
0
ARC
8
0
6
CONTINUOUS
10
116.9043654
20
-204.0781403
40
1
50
81.6266713
51
90
0
ARC
8
0
6
CONTINUOUS
10
103.1297892
20
-204.0781403
40
1
50
90
51
101.6733207
0
ARC
8
0
6
CONTINUOUS
10
96.9788334
20
-203.3067158
40
1
50
270.9999996
51
281.6733207
0
ARC
8
0
6
CONTINUOUS
10
83.3545992
20
-205.5448323
40
1
50
90.9999996
51
113.1090504
0
ARC
8
0
6
CONTINUOUS
10
75.8077667
20
-206.5907563
40
1
50
274.0000013
51
293.1090504
0
ARC
8
0
6
CONTINUOUS
10
44.9913381
20
-208.7456508
40
1
50
184.0000013
51
274.0000013
0
ARC
8
0
6
CONTINUOUS
10
41.8754673
20
-192.8577973
40
1
50
4.0000013
51
19.2076545
0
ARC
8
0
6
CONTINUOUS
10
41.7347319
20
-186.3746746
40
1
50
183.0000026
51
199.2076545
0
ENDSEC
0
EOF