0
SECTION
2
HEADER
9
$INSUNITS
70
4
0
ENDSEC
0
SECTION
2
TABLES
0
TABLE
2
LTYPE
0
LTYPE
72
65
70
0
2
CONTINUOUS
3
______
73
0
40
0
0
LTYPE
72
65
70
0
2
DASHED
3
_ _ _ 
73
2
40
7.5
49
5
49
-2.5
0
LTYPE
72
65
70
0
2
DOTTED
3
. . . 
73
2
40
1.5
49
0.5
49
-1
0
ENDTAB
0
TABLE
2
LAYER
0
ENDTAB
0
ENDSEC
0
SECTION
2
ENTITIES
0
LINE
8
0
6
CONTINUOUS
10
40.7361024
20
-186.4270106
11
35.5963132
21
-88.3539901
0
LINE
8
0
6
CONTINUOUS
10
36.5426067
20
-87.3030246
11
50.5978238
21
-86.5664219
0
LINE
8
0
6
CONTINUOUS
10
50.7471571
20
-86.5472461
11
58.9584153
21
-84.8565499
0
LINE
8
0
6
CONTINUOUS
10
59.1251851
20
-84.8366128
11
72.9144793
21
-84.35508
0
LINE
8
0
6
CONTINUOUS
10
73.0494961
20
-84.3411477
11
80.9439163
21
-82.9799633
0
LINE
8
0
6
CONTINUOUS
10
81.0963802
20
-82.9655741
11
94.8994575
21
-82.7246406
0
LINE
8
0
6
CONTINUOUS
10
95.0346969
20
-82.7130668
11
102.9516712
21
-81.4898664
0
LINE
8
0
6
CONTINUOUS
10
103.104363
20
-81.4781403
11
116.9223229
21
-81.4781403
0
LINE
8
0
6
CONTINUOUS
10
117.032475
20
-81.4842256
11
125.011956
21
-82.3685633
0
LINE
8
0
6
CONTINUOUS
10
125.1046557
20
-82.3744963
11
138.9508085
21
-82.6161818
0
LINE
8
0
6
CONTINUOUS
10
139.0608376
20
-82.6241886
11
147.0236692
21
-83.647653
0
LINE
8
0
6
CONTINUOUS
10
147.1162512
20
-83.6552029
11
160.9476248
21
-84.1382052
0
LINE
8
0
6
CONTINUOUS
10
161.074152
20
-84.1507113
11
169.3575099
21
-85.5056362
0
LINE
8
0
6
CONTINUOUS
10
169.4666006
20
-85.517381
11
183.5423404
21
-86.2550593
0
LINE
8
0
6
CONTINUOUS
10
184.4886339
20
-87.3060248
11
179.3488447
21
-185.3790453
0
LINE
8
0
6
CONTINUOUS
10
179.2945476
20
-185.6557021
11
177.2651474
21
-191.4808392
0
LINE
8
0
6
CONTINUOUS
10
177.2119157
20
-191.7400755
11
176.0911731
21
-207.767442
0
LINE
8
0
6
CONTINUOUS
10
175.0238525
20
-208.6952496
11
144.1623161
21
-206.5372008
0
LINE
8
0
6
CONTINUOUS
10
143.9224588
20
-206.4904991
11
137.0262434
21
-204.2449971
0
LINE
8
0
6
CONTINUOUS
10
136.734082
20
-204.1960118
11
123.0003789
21
-203.9562892
0
LINE
8
0
6
CONTINUOUS
10
122.8722088
20
-203.9457817
11
117.0499879
21
-203.0888001
0
LINE
8
0
6
CONTINUOUS
10
116.9043654
20
-203.0781403
11
103.1297892
21
-203.0781403
0
LINE
8
0
6
CONTINUOUS
10
102.9274579
20
-203.0988232
11
97.1811647
21
-204.2860329
0
LINE
8
0
6
CONTINUOUS
10
96.9962858
20
-204.3065635
11
83.3371468
21
-204.5449846
0
LINE
8
0
6
CONTINUOUS
10
82.9621168
20
-204.6250728
11
76.2002491
21
-207.5105158
0
LINE
8
0
6
CONTINUOUS
10
75.8775232
20
-207.5883204
11
45.0610946
21
-209.7432149
0
LINE
8
0
6
CONTINUOUS
10
43.993774
20
-208.8154073
11
42.8730314
21
-192.7880408
0
LINE
8
0
6
CONTINUOUS
10
42.8197997
20
-192.5288045
11
40.7903995
21
-186.7036674
0
ARC
8
0
6
CONTINUOUS
10
36.5949427
20
-88.3016541
40
1
50
93.0000026
51
183.0000026
0
ARC
8
0
6
CONTINUOUS
10
50.5454878
20
-85.5677924
40
1
50
273.0000026
51
281.6345918
0
ARC
8
0
6
CONTINUOUS
10
59.1600846
20
-85.8360036
40
1
50
92.0000002
51
101.6345918
0
ARC
8
0
6
CONTINUOUS
10
72.8795798
20
-83.3556892
40
1
50
272.0000002
51
279.7829526
0
ARC
8
0
6
CONTINUOUS
10
81.1138326
20
-83.9654218
40
1
50
90.9999996
51
99.7829526
0
ARC
8
0
6
CONTINUOUS
10
94.8820051
20
-81.7247929
40
1
50
270.9999996
51
278.7829523
0
ARC
8
0
6
CONTINUOUS
10
103.104363
20
-82.4781403
40
1
50
90
51
98.7829523
0
ARC
8
0
6
CONTINUOUS
10
116.9223229
20
-82.4781403
40
1
50
83.6759162
51
90
0
ARC
8
0
6
CONTINUOUS
10
125.1221081
20
-81.3746486
40
1
50
263.6759162
51
269.0000004
0
ARC
8
0
6
CONTINUOUS
10
138.9333561
20
-83.6160295
40
1
50
82.6759177
51
89.0000004
0
ARC
8
0
6
CONTINUOUS
10
147.1511507
20
-82.6558121
40
1
50
262.6759177
51
267.9999998
0
ARC
8
0
6
CONTINUOUS
10
160.9127253
20
-85.137596
40
1
50
80.7102833
51
87.9999998
0
ARC
8
0
6
CONTINUOUS
10
169.5189366
20
-84.5187515
40
1
50
260.7102833
51
266.9999974
0
ARC
8
0
6
CONTINUOUS
10
183.4900044
20
-87.2536888
40
1
50
356.9999974
51
86.9999974
0
ARC
8
0
6
CONTINUOUS
10
178.3502152
20
-185.3267093
40
1
50
340.7923455
51
356.9999974
0
ARC
8
0
6
CONTINUOUS
10
178.2094798
20
-191.809832
40
1
50
160.7923455
51
175.9999987
0
ARC
8
0
6
CONTINUOUS
10
175.093609
20
-207.6976855
40
1
50
265.9999987
51
355.9999987
0
ARC
8
0
6
CONTINUOUS
10
144.2320726
20
-205.5396367
40
1
50
251.9640422
51
265.9999987
0
ARC
8
0
6
CONTINUOUS
10
136.7166296
20
-205.1958595
40
1
50
71.9640422
51
89.0000004
0
ARC
8
0
6
CONTINUOUS
10
123.0178313
20
-202.9564415
40
1
50
261.6266713
51
269.0000004
0
ARC
8
0
6
CONTINUOUS
10
116.9043654
20
-204.0781403
40
1
50
81.6266713
51
90
0
ARC
8
0
6
CONTINUOUS
10
103.1297892
20
-204.0781403
40
1
50
90
51
101.6733207
0
ARC
8
0
6
CONTINUOUS
10
96.9788334
20
-203.3067158
40
1
50
270.9999996
51
281.6733207
0
ARC
8
0
6
CONTINUOUS
10
83.3545992
20
-205.5448323
40
1
50
90.9999996
51
113.1090504
0
ARC
8
0
6
CONTINUOUS
10
75.8077667
20
-206.5907563
40
1
50
274.0000013
51
293.1090504
0
ARC
8
0
6
CONTINUOUS
10
44.9913381
20
-208.7456508
40
1
50
184.0000013
51
274.0000013
0
ARC
8
0
6
CONTINUOUS
10
41.8754673
20
-192.8577973
40
1
50
4.0000013
51
19.2076545
0
ARC
8
0
6
CONTINUOUS
10
41.7347319
20
-186.3746746
40
1
50
183.0000026
51
199.2076545
0
LINE
8
0
6
CONTINUOUS
10
68.9787778
20
-206.8677974
11
75.9617262
21
-206.379502
0
LINE
8
0
6
CONTINUOUS
10
75.9617262
20
-206.379502
11
74.8456226
21
-190.4184772
0
LINE
8
0
6
CONTINUOUS
10
74.8456226
20
-190.4184772
11
67.8626742
21
-190.9067726
0
LINE
8
0
6
CONTINUOUS
10
67.8626742
20
-190.9067726
11
68.9787778
21
-206.8677974
0
LINE
8
0
6
CONTINUOUS
10
167.9250991
20
-206.9959261
11
174.9080475
21
-207.4842215
0
LINE
8
0
6
CONTINUOUS
10
174.9080475
20
-207.4842215
11
176.0241511
21
-191.5231967
0
LINE
8
0
6
CONTINUOUS
10
176.0241511
20
-191.5231967
11
169.0412027
21
-191.0349013
0
LINE
8
0
6
CONTINUOUS
10
169.0412027
20
-191.0349013
11
167.9250991
21
-206.9959261
0
LINE
8
0
6
CONTINUOUS
10
45.1768996
20
-208.5321868
11
52.159848
21
-208.0438914
0
LINE
8
0
6
CONTINUOUS
10
52.159848
20
-208.0438914
11
51.0437444
21
-192.0828666
0
LINE
8
0
6
CONTINUOUS
10
51.0437444
20
-192.0828666
11
44.060796
21
-192.571162
0
LINE
8
0
6
CONTINUOUS
10
44.060796
20
-192.571162
11
45.1768996
21
-208.5321868
0
LINE
8
0
6
CONTINUOUS
10
144.1232209
20
-205.3315367
11
151.1061693
21
-205.8198321
0
LINE
8
0
6
CONTINUOUS
10
151.1061693
20
-205.8198321
11
152.2222729
21
-189.8588073
0
LINE
8
0
6
CONTINUOUS
10
152.2222729
20
-189.8588073
11
145.2393245
21
-189.3705119
0
LINE
8
0
6
CONTINUOUS
10
145.2393245
20
-189.3705119
11
144.1232209
21
-205.3315367
0
LINE
8
0
6
CONTINUOUS
10
53.5398033
20
-206.9198927
11
67.4558218
21
-205.9467898
0
LINE
8
0
6
CONTINUOUS
10
67.4558218
20
-205.9467898
11
66.4827189
21
-192.0307713
0
LINE
8
0
6
CONTINUOUS
10
66.4827189
20
-192.0307713
11
52.5667004
21
-193.0038742
0
LINE
8
0
6
CONTINUOUS
10
52.5667004
20
-193.0038742
11
53.5398033
21
-206.9198927
0
LINE
8
0
6
CONTINUOUS
10
41.94191
20
-186.5064016
11
55.872792
21
-185.776315
0
LINE
8
0
6
CONTINUOUS
10
55.872792
20
-185.776315
11
55.1427054
21
-171.845433
0
LINE
8
0
6
CONTINUOUS
10
55.1427054
20
-171.845433
11
41.2118234
21
-172.5755196
0
LINE
8
0
6
CONTINUOUS
10
41.2118234
20
-172.5755196
11
41.94191
21
-186.5064016
0
LINE
8
0
6
CONTINUOUS
10
40.8402381
20
-165.4852499
11
54.7711201
21
-164.7551633
0
LINE
8
0
6
CONTINUOUS
10
54.7711201
20
-164.7551633
11
54.0410335
21
-150.8242813
0
LINE
8
0
6
CONTINUOUS
10
54.0410335
20
-150.8242813
11
40.1101515
21
-151.5543679
0
LINE
8
0
6
CONTINUOUS
10
40.1101515
20
-151.5543679
11
40.8402381
21
-165.4852499
0
LINE
8
0
6
CONTINUOUS
10
39.7385662
20
-144.4640982
11
53.6694482
21
-143.7340116
0
LINE
8
0
6
CONTINUOUS
10
53.6694482
20
-143.7340116
11
52.9393616
21
-129.8031296
0
LINE
8
0
6
CONTINUOUS
10
52.9393616
20
-129.8031296
11
39.0084796
21
-130.5332162
0
LINE
8
0
6
CONTINUOUS
10
39.0084796
20
-130.5332162
11
39.7385662
21
-144.4640982
0
LINE
8
0
6
CONTINUOUS
10
38.6368943
20
-123.4429465
11
52.5677763
21
-122.7128599
0
LINE
8
0
6
CONTINUOUS
10
52.5677763
20
-122.7128599
11
51.8376897
21
-108.7819779
0
LINE
8
0
6
CONTINUOUS
10
51.8376897
20
-108.7819779
11
37.9068077
21
-109.5120645
0
LINE
8
0
6
CONTINUOUS
10
37.9068077
20
-109.5120645
11
38.6368943
21
-123.4429465
0
LINE
8
0
6
CONTINUOUS
10
37.5352224
20
-102.4217948
11
51.4661044
21
-101.6917082
0
LINE
8
0
6
CONTINUOUS
10
51.4661044
20
-101.6917082
11
50.7360178
21
-87.7608262
0
LINE
8
0
6
CONTINUOUS
10
50.7360178
20
-87.7608262
11
36.8051358
21
-88.4909128
0
LINE
8
0
6
CONTINUOUS
10
36.8051358
20
-88.4909128
11
37.5352224
21
-102.4217948
0
LINE
8
0
6
CONTINUOUS
10
62.5082248
20
-184.1290326
11
76.4497268
21
-183.6421846
0
LINE
8
0
6
CONTINUOUS
10
76.4497268
20
-183.6421846
11
75.9628788
21
-169.7006826
0
LINE
8
0
6
CONTINUOUS
10
75.9628788
20
-169.7006826
11
62.0213768
21
-170.1875306
0
LINE
8
0
6
CONTINUOUS
10
62.0213768
20
-170.1875306
11
62.5082248
21
-184.1290326
0
LINE
8
0
6
CONTINUOUS
10
61.7735904
20
-163.0918557
11
75.7150924
21
-162.6050077
0
LINE
8
0
6
CONTINUOUS
10
75.7150924
20
-162.6050077
11
75.2282444
21
-148.6635057
0
LINE
8
0
6
CONTINUOUS
10
75.2282444
20
-148.6635057
11
61.2867424
21
-149.1503537
0
LINE
8
0
6
CONTINUOUS
10
61.2867424
20
-149.1503537
11
61.7735904
21
-163.0918557
0
LINE
8
0
6
CONTINUOUS
10
61.038956
20
-142.0546788
11
74.980458
21
-141.5678308
0
LINE
8
0
6
CONTINUOUS
10
74.980458
20
-141.5678308
11
74.49361
21
-127.6263288
0
LINE
8
0
6
CONTINUOUS
10
74.49361
20
-127.6263288
11
60.552108
21
-128.1131768
0
LINE
8
0
6
CONTINUOUS
10
60.552108
20
-128.1131768
11
61.038956
21
-142.0546788
0
LINE
8
0
6
CONTINUOUS
10
60.3043216
20
-121.0175019
11
74.2458236
21
-120.5306539
0
LINE
8
0
6
CONTINUOUS
10
74.2458236
20
-120.5306539
11
73.7589756
21
-106.5891519
0
LINE
8
0
6
CONTINUOUS
10
73.7589756
20
-106.5891519
11
59.8174736
21
-107.0759999
0
LINE
8
0
6
CONTINUOUS
10
59.8174736
20
-107.0759999
11
60.3043216
21
-121.0175019
0
LINE
8
0
6
CONTINUOUS
10
59.5696872
20
-99.980325
11
73.5111892
21
-99.493477
0
LINE
8
0
6
CONTINUOUS
10
73.5111892
20
-99.493477
11
73.0243412
21
-85.551975
0
LINE
8
0
6
CONTINUOUS
10
73.0243412
20
-85.551975
11
59.0828392
21
-86.038823
0
LINE
8
0
6
CONTINUOUS
10
59.0828392
20
-86.038823
11
59.5696872
21
-99.980325
0
LINE
8
0
6
CONTINUOUS
10
83.1208657
20
-203.348577
11
97.068741
21
-203.1051159
0
LINE
8
0
6
CONTINUOUS
10
97.068741
20
-203.1051159
11
96.8252799
21
-189.1572406
0
LINE
8
0
6
CONTINUOUS
10
96.8252799
20
-189.1572406
11
82.8774046
21
-189.4007017
0
LINE
8
0
6
CONTINUOUS
10
82.8774046
20
-189.4007017
11
83.1208657
21
-203.348577
0
LINE
8
0
6
CONTINUOUS
10
82.7534925
20
-182.301783
11
96.7013678
21
-182.0583219
0
LINE
8
0
6
CONTINUOUS
10
96.7013678
20
-182.0583219
11
96.4579067
21
-168.1104466
0
LINE
8
0
6
CONTINUOUS
10
96.4579067
20
-168.1104466
11
82.5100314
21
-168.3539077
0
LINE
8
0
6
CONTINUOUS
10
82.5100314
20
-168.3539077
11
82.7534925
21
-182.301783
0
LINE
8
0
6
CONTINUOUS
10
82.3861193
20
-161.254989
11
96.3339946
21
-161.0115279
0
LINE
8
0
6
CONTINUOUS
10
96.3339946
20
-161.0115279
11
96.0905335
21
-147.0636526
0
LINE
8
0
6
CONTINUOUS
10
96.0905335
20
-147.0636526
11
82.1426582
21
-147.3071137
0
LINE
8
0
6
CONTINUOUS
10
82.1426582
20
-147.3071137
11
82.3861193
21
-161.254989
0
LINE
8
0
6
CONTINUOUS
10
82.0187461
20
-140.208195
11
95.9666214
21
-139.9647339
0
LINE
8
0
6
CONTINUOUS
10
95.9666214
20
-139.9647339
11
95.7231603
21
-126.0168586
0
LINE
8
0
6
CONTINUOUS
10
95.7231603
20
-126.0168586
11
81.775285
21
-126.2603197
0
LINE
8
0
6
CONTINUOUS
10
81.775285
20
-126.2603197
11
82.0187461
21
-140.208195
0
LINE
8
0
6
CONTINUOUS
10
81.6513729
20
-119.161401
11
95.5992482
21
-118.9179399
0
LINE
8
0
6
CONTINUOUS
10
95.5992482
20
-118.9179399
11
95.3557871
21
-104.9700646
0
LINE
8
0
6
CONTINUOUS
10
95.3557871
20
-104.9700646
11
81.4079118
21
-105.2135257
0
LINE
8
0
6
CONTINUOUS
10
81.4079118
20
-105.2135257
11
81.6513729
21
-119.161401
0
LINE
8
0
6
CONTINUOUS
10
81.2839997
20
-98.114607
11
95.231875
21
-97.8711459
0
LINE
8
0
6
CONTINUOUS
10
95.231875
20
-97.8711459
11
94.9884139
21
-83.9232706
0
LINE
8
0
6
CONTINUOUS
10
94.9884139
20
-83.9232706
11
81.0405386
21
-84.1667317
0
LINE
8
0
6
CONTINUOUS
10
81.0405386
20
-84.1667317
11
81.2839997
21
-98.114607
0
LINE
8
0
6
CONTINUOUS
10
103.0275666
20
-201.8781403
11
116.9775666
21
-201.8781403
0
LINE
8
0
6
CONTINUOUS
10
116.9775666
20
-201.8781403
11
116.9775666
21
-187.9281403
0
LINE
8
0
6
CONTINUOUS
10
116.9775666
20
-187.9281403
11
103.0275666
21
-187.9281403
0
LINE
8
0
6
CONTINUOUS
10
103.0275666
20
-187.9281403
11
103.0275666
21
-201.8781403
0
LINE
8
0
6
CONTINUOUS
10
103.0275666
20
-180.8281403
11
116.9775666
21
-180.8281403
0
LINE
8
0
6
CONTINUOUS
10
116.9775666
20
-180.8281403
11
116.9775666
21
-166.8781403
0
LINE
8
0
6
CONTINUOUS
10
116.9775666
20
-166.8781403
11
103.0275666
21
-166.8781403
0
LINE
8
0
6
CONTINUOUS
10
103.0275666
20
-166.8781403
11
103.0275666
21
-180.8281403
0
LINE
8
0
6
CONTINUOUS
10
103.0275666
20
-159.7781403
11
116.9775666
21
-159.7781403
0
LINE
8
0
6
CONTINUOUS
10
116.9775666
20
-159.7781403
11
116.9775666
21
-145.8281403
0
LINE
8
0
6
CONTINUOUS
10
116.9775666
20
-145.8281403
11
103.0275666
21
-145.8281403
0
LINE
8
0
6
CONTINUOUS
10
103.0275666
20
-145.8281403
11
103.0275666
21
-159.7781403
0
LINE
8
0
6
CONTINUOUS
10
103.0275666
20
-138.7281403
11
116.9775666
21
-138.7281403
0
LINE
8
0
6
CONTINUOUS
10
116.9775666
20
-138.7281403
11
116.9775666
21
-124.7781403
0
LINE
8
0
6
CONTINUOUS
10
116.9775666
20
-124.7781403
11
103.0275666
21
-124.7781403
0
LINE
8
0
6
CONTINUOUS
10
103.0275666
20
-124.7781403
11
103.0275666
21
-138.7281403
0
LINE
8
0
6
CONTINUOUS
10
103.0275666
20
-117.6781403
11
116.9775666
21
-117.6781403
0
LINE
8
0
6
CONTINUOUS
10
116.9775666
20
-117.6781403
11
116.9775666
21
-103.7281403
0
LINE
8
0
6
CONTINUOUS
10
116.9775666
20
-103.7281403
11
103.0275666
21
-103.7281403
0
LINE
8
0
6
CONTINUOUS
10
103.0275666
20
-103.7281403
11
103.0275666
21
-117.6781403
0
LINE
8
0
6
CONTINUOUS
10
103.0275666
20
-96.6281403
11
116.9775666
21
-96.6281403
0
LINE
8
0
6
CONTINUOUS
10
116.9775666
20
-96.6281403
11
116.9775666
21
-82.6781403
0
LINE
8
0
6
CONTINUOUS
10
116.9775666
20
-82.6781403
11
103.0275666
21
-82.6781403
0
LINE
8
0
6
CONTINUOUS
10
103.0275666
20
-82.6781403
11
103.0275666
21
-96.6281403
0
LINE
8
0
6
CONTINUOUS
10
122.9568985
20
-202.7553474
11
136.9047738
21
-202.9988085
0
LINE
8
0
6
CONTINUOUS
10
136.9047738
20
-202.9988085
11
137.1482349
21
-189.0509332
0
LINE
8
0
6
CONTINUOUS
10
137.1482349
20
-189.0509332
11
123.2003596
21
-188.8074721
0
LINE
8
0
6
CONTINUOUS
10
123.2003596
20
-188.8074721
11
122.9568985
21
-202.7553474
0
LINE
8
0
6
CONTINUOUS
10
123.3242717
20
-181.7085534
11
137.272147
21
-181.9520145
0
LINE
8
0
6
CONTINUOUS
10
137.272147
20
-181.9520145
11
137.5156081
21
-168.0041392
0
LINE
8
0
6
CONTINUOUS
10
137.5156081
20
-168.0041392
11
123.5677328
21
-167.7606781
0
LINE
8
0
6
CONTINUOUS
10
123.5677328
20
-167.7606781
11
123.3242717
21
-181.7085534
0
LINE
8
0
6
CONTINUOUS
10
123.6916449
20
-160.6617594
11
137.6395202
21
-160.9052205
0
LINE
8
0
6
CONTINUOUS
10
137.6395202
20
-160.9052205
11
137.8829813
21
-146.9573452
0
LINE
8
0
6
CONTINUOUS
10
137.8829813
20
-146.9573452
11
123.935106
21
-146.7138841
0
LINE
8
0
6
CONTINUOUS
10
123.935106
20
-146.7138841
11
123.6916449
21
-160.6617594
0
LINE
8
0
6
CONTINUOUS
10
124.0590181
20
-139.6149654
11
138.0068934
21
-139.8584265
0
LINE
8
0
6
CONTINUOUS
10
138.0068934
20
-139.8584265
11
138.2503545
21
-125.9105512
0
LINE
8
0
6
CONTINUOUS
10
138.2503545
20
-125.9105512
11
124.3024792
21
-125.6670901
0
LINE
8
0
6
CONTINUOUS
10
124.3024792
20
-125.6670901
11
124.0590181
21
-139.6149654
0
LINE
8
0
6
CONTINUOUS
10
124.4263913
20
-118.5681714
11
138.3742666
21
-118.8116325
0
LINE
8
0
6
CONTINUOUS
10
138.3742666
20
-118.8116325
11
138.6177277
21
-104.8637572
0
LINE
8
0
6
CONTINUOUS
10
138.6177277
20
-104.8637572
11
124.6698524
21
-104.6202961
0
LINE
8
0
6
CONTINUOUS
10
124.6698524
20
-104.6202961
11
124.4263913
21
-118.5681714
0
LINE
8
0
6
CONTINUOUS
10
124.7937645
20
-97.5213774
11
138.7416398
21
-97.7648385
0
LINE
8
0
6
CONTINUOUS
10
138.7416398
20
-97.7648385
11
138.9851009
21
-83.8169632
0
LINE
8
0
6
CONTINUOUS
10
138.9851009
20
-83.8169632
11
125.0372256
21
-83.5735021
0
LINE
8
0
6
CONTINUOUS
10
125.0372256
20
-83.5735021
11
124.7937645
21
-97.5213774
0
LINE
8
0
6
CONTINUOUS
10
143.6025199
20
-182.9430589
11
157.5440219
21
-183.4299069
0
LINE
8
0
6
CONTINUOUS
10
157.5440219
20
-183.4299069
11
158.0308699
21
-169.4884049
0
LINE
8
0
6
CONTINUOUS
10
158.0308699
20
-169.4884049
11
144.0893679
21
-169.0015569
0
LINE
8
0
6
CONTINUOUS
10
144.0893679
20
-169.0015569
11
143.6025199
21
-182.9430589
0
LINE
8
0
6
CONTINUOUS
10
144.3371543
20
-161.905882
11
158.2786563
21
-162.39273
0
LINE
8
0
6
CONTINUOUS
10
158.2786563
20
-162.39273
11
158.7655043
21
-148.451228
0
LINE
8
0
6
CONTINUOUS
10
158.7655043
20
-148.451228
11
144.8240023
21
-147.96438
0
LINE
8
0
6
CONTINUOUS
10
144.8240023
20
-147.96438
11
144.3371543
21
-161.905882
0
LINE
8
0
6
CONTINUOUS
10
145.0717887
20
-140.8687051
11
159.0132907
21
-141.3555531
0
LINE
8
0
6
CONTINUOUS
10
159.0132907
20
-141.3555531
11
159.5001387
21
-127.4140511
0
LINE
8
0
6
CONTINUOUS
10
159.5001387
20
-127.4140511
11
145.5586367
21
-126.9272031
0
LINE
8
0
6
CONTINUOUS
10
145.5586367
20
-126.9272031
11
145.0717887
21
-140.8687051
0
LINE
8
0
6
CONTINUOUS
10
145.8064231
20
-119.8315282
11
159.7479251
21
-120.3183762
0
LINE
8
0
6
CONTINUOUS
10
159.7479251
20
-120.3183762
11
160.2347731
21
-106.3768742
0
LINE
8
0
6
CONTINUOUS
10
160.2347731
20
-106.3768742
11
146.2932711
21
-105.8900262
0
LINE
8
0
6
CONTINUOUS
10
146.2932711
20
-105.8900262
11
145.8064231
21
-119.8315282
0
LINE
8
0
6
CONTINUOUS
10
146.5410575
20
-98.7943513
11
160.4825595
21
-99.2811993
0
LINE
8
0
6
CONTINUOUS
10
160.4825595
20
-99.2811993
11
160.9694075
21
-85.3396973
0
LINE
8
0
6
CONTINUOUS
10
160.9694075
20
-85.3396973
11
147.0279055
21
-84.8528493
0
LINE
8
0
6
CONTINUOUS
10
147.0279055
20
-84.8528493
11
146.5410575
21
-98.7943513
0
LINE
8
0
6
CONTINUOUS
10
152.6291253
20
-204.8988245
11
166.5451438
21
-205.8719274
0
LINE
8
0
6
CONTINUOUS
10
166.5451438
20
-205.8719274
11
167.5182467
21
-191.9559089
0
LINE
8
0
6
CONTINUOUS
10
167.5182467
20
-191.9559089
11
153.6022282
21
-190.982806
0
LINE
8
0
6
CONTINUOUS
10
153.6022282
20
-190.982806
11
152.6291253
21
-204.8988245
0
LINE
8
0
6
CONTINUOUS
10
164.2121551
20
-184.7283497
11
178.1430371
21
-185.4584363
0
LINE
8
0
6
CONTINUOUS
10
178.1430371
20
-185.4584363
11
178.8731237
21
-171.5275543
0
LINE
8
0
6
CONTINUOUS
10
178.8731237
20
-171.5275543
11
164.9422417
21
-170.7974677
0
LINE
8
0
6
CONTINUOUS
10
164.9422417
20
-170.7974677
11
164.2121551
21
-184.7283497
0
LINE
8
0
6
CONTINUOUS
10
165.313827
20
-163.707198
11
179.244709
21
-164.4372846
0
LINE
8
0
6
CONTINUOUS
10
179.244709
20
-164.4372846
11
179.9747956
21
-150.5064026
0
LINE
8
0
6
CONTINUOUS
10
179.9747956
20
-150.5064026
11
166.0439136
21
-149.776316
0
LINE
8
0
6
CONTINUOUS
10
166.0439136
20
-149.776316
11
165.313827
21
-163.707198
0
LINE
8
0
6
CONTINUOUS
10
166.4154989
20
-142.6860463
11
180.3463809
21
-143.4161329
0
LINE
8
0
6
CONTINUOUS
10
180.3463809
20
-143.4161329
11
181.0764675
21
-129.4852509
0
LINE
8
0
6
CONTINUOUS
10
181.0764675
20
-129.4852509
11
167.1455855
21
-128.7551643
0
LINE
8
0
6
CONTINUOUS
10
167.1455855
20
-128.7551643
11
166.4154989
21
-142.6860463
0
LINE
8
0
6
CONTINUOUS
10
167.5171708
20
-121.6648946
11
181.4480528
21
-122.3949812
0
LINE
8
0
6
CONTINUOUS
10
181.4480528
20
-122.3949812
11
182.1781394
21
-108.4640992
0
LINE
8
0
6
CONTINUOUS
10
182.1781394
20
-108.4640992
11
168.2472574
21
-107.7340126
0
LINE
8
0
6
CONTINUOUS
10
168.2472574
20
-107.7340126
11
167.5171708
21
-121.6648946
0
LINE
8
0
6
CONTINUOUS
10
168.6188427
20
-100.6437429
11
182.5497247
21
-101.3738295
0
LINE
8
0
6
CONTINUOUS
10
182.5497247
20
-101.3738295
11
183.2798113
21
-87.4429475
0
LINE
8
0
6
CONTINUOUS
10
183.2798113
20
-87.4429475
11
169.3489293
21
-86.7128609
0
LINE
8
0
6
CONTINUOUS
10
169.3489293
20
-86.7128609
11
168.6188427
21
-100.6437429
0
ENDSEC
0
EOF