0
SECTION
2
HEADER
9
$INSUNITS
70
4
0
ENDSEC
0
SECTION
2
TABLES
0
TABLE
2
LTYPE
0
LTYPE
72
65
70
0
2
CONTINUOUS
3
______
73
0
40
0
0
LTYPE
72
65
70
0
2
DASHED
3
_ _ _ 
73
2
40
7.5
49
5
49
-2.5
0
LTYPE
72
65
70
0
2
DOTTED
3
. . . 
73
2
40
1.5
49
0.5
49
-1
0
ENDTAB
0
TABLE
2
LAYER
0
ENDTAB
0
ENDSEC
0
SECTION
2
ENTITIES
0
ARC
8
0
6
CONTINUOUS
10
113.6024502
20
-518.8557919
40
465.7415642
50
82.1010679
51
98.7786178
0
ARC
8
0
6
CONTINUOUS
10
110.494811
20
-591.9144819
40
370.4866686
50
81.7719224
51
99.9664128
0
LINE
8
0
6
CONTINUOUS
10
41.9206703
20
-58.6322661
11
31.7134731
21
-59.1672027
0
LINE
8
0
6
CONTINUOUS
10
178.1180303
20
-57.5818771
11
188.371474
21
-58.1192374
0
LINE
8
0
6
CONTINUOUS
10
194.0492351
20
-64.4250306
11
189.7665854
21
-146.1428538
0
LINE
8
0
6
CONTINUOUS
10
190.1880467
20
-148.6865741
11
195.6706956
21
-162.3834944
0
LINE
8
0
6
CONTINUOUS
10
196.0921569
20
-164.9272147
11
195.6794911
21
-172.8013465
0
LINE
8
0
6
CONTINUOUS
10
194.9944474
20
-175.2870768
11
187.9040915
21
-188.7263751
0
LINE
8
0
6
CONTINUOUS
10
187.3241896
20
-190.3652924
11
182.7912846
21
-213.3519339
0
LINE
8
0
6
CONTINUOUS
10
181.8585572
20
-215.5761892
11
176.6489393
21
-223.2002146
0
LINE
8
0
6
CONTINUOUS
10
171.2764924
20
-225.8005146
11
163.9567675
21
-225.2886696
0
LINE
8
0
6
CONTINUOUS
10
46.3743697
20
-227.0186877
11
45.3768056
21
-227.0884442
0
LINE
8
0
6
CONTINUOUS
10
45.3768056
20
-227.0884442
11
38.2263899
21
-216.6241545
0
LINE
8
0
6
CONTINUOUS
10
37.2936625
20
-214.3998992
11
32.7607575
21
-191.4132577
0
LINE
8
0
6
CONTINUOUS
10
32.1808556
20
-189.7743404
11
25.0904997
21
-176.3350421
0
LINE
8
0
6
CONTINUOUS
10
24.405456
20
-173.8493118
11
23.9927902
21
-165.97518
0
LINE
8
0
6
CONTINUOUS
10
24.4142515
20
-163.4314597
11
29.8969004
21
-149.7345394
0
LINE
8
0
6
CONTINUOUS
10
30.3183617
20
-147.1908191
11
26.035712
21
-65.4729959
0
ARC
8
0
6
CONTINUOUS
10
41.6066543
20
-52.6404889
40
6
50
273.0000026
51
278.7786178
0
ARC
8
0
6
CONTINUOUS
10
32.0274891
20
-65.1589799
40
6
50
93.0000026
51
183.0000026
0
ARC
8
0
6
CONTINUOUS
10
24.3265845
20
-147.5048351
40
6
50
338.1845995
51
3.0000026
0
ARC
8
0
6
CONTINUOUS
10
29.9845674
20
-165.661164
40
6
50
158.1845995
51
183.0000026
0
ARC
8
0
6
CONTINUOUS
10
30.3972332
20
-173.5352958
40
6
50
183.0000026
51
207.8154006
0
ARC
8
0
6
CONTINUOUS
10
26.8741222
20
-192.5740867
40
6
50
11.1554466
51
27.8154006
0
ARC
8
0
6
CONTINUOUS
10
43.1802978
20
-213.2390702
40
6
50
191.1554466
51
214.3454183
0
ARC
8
0
6
CONTINUOUS
10
164.3753064
20
-219.3032852
40
6
50
261.7719224
51
265.9999987
0
ARC
8
0
6
CONTINUOUS
10
171.6950313
20
-219.8151303
40
6
50
265.9999987
51
325.6545817
0
ARC
8
0
6
CONTINUOUS
10
176.9046493
20
-212.1911049
40
6
50
325.6545817
51
348.8445534
0
ARC
8
0
6
CONTINUOUS
10
193.2108249
20
-191.5261214
40
6
50
152.1845994
51
168.8445534
0
ARC
8
0
6
CONTINUOUS
10
189.6877139
20
-172.4873305
40
6
50
332.1845994
51
356.9999974
0
ARC
8
0
6
CONTINUOUS
10
190.1003797
20
-164.6131987
40
6
50
356.9999974
51
21.8154005
0
ARC
8
0
6
CONTINUOUS
10
195.7583626
20
-146.4568698
40
6
50
176.9999974
51
201.8154005
0
ARC
8
0
6
CONTINUOUS
10
188.057458
20
-64.1110146
40
6
50
356.9999974
51
86.9999974
0
ARC
8
0
6
CONTINUOUS
10
178.4320463
20
-51.5901
40
6
50
262.1010679
51
266.9999974
0
ENDSEC
0
EOF