<svg width="163.426mm" height="159.886mm" viewBox="0 0 163.426 159.886" xmlns="http://www.w3.org/2000/svg"><g id="svgGroup" stroke-linecap="round" fill-rule="evenodd" font-size="9pt" stroke="#000" stroke-width="0.25mm" fill="none" style="stroke:#000;stroke-width:0.25mm;fill:none"><path d="M 0.004 8.967 L 7.764 157.043 A 3 3 0 0 0 11.014 159.876 L 76.706 154.311 A 3 3 0 0 1 76.959 154.3 L 86.412 154.3 A 3 3 0 0 1 86.619 154.307 L 152.457 158.878 A 3 3 0 0 0 155.661 156.042 L 163.422 7.959 A 3 3 0 0 0 160.62 4.809 L 86.613 0.006 A 3 3 0 0 0 86.418 0 L 76.95 0 A 3 3 0 0 0 76.715 0.009 L 2.765 5.82 A 3 3 0 0 0 0.004 8.967 Z" vector-effect="non-scaling-stroke"/></g></svg>