<svg width="164.135mm" height="160.299mm" viewBox="0 0 164.135 160.299" xmlns="http://www.w3.org/2000/svg"><g id="svgGroup" stroke-linecap="round" fill-rule="evenodd" font-size="9pt" stroke="#000" stroke-width="0.25mm" fill="none" style="stroke:#000;stroke-width:0.25mm;fill:none"><path d="M 0.004 8.999 L 8.399 157.704 A 2.75 2.75 0 0 0 11.394 160.287 L 77.062 154.308 A 2.75 2.75 0 0 1 77.311 154.296 L 86.765 154.296 A 2.75 2.75 0 0 1 86.973 154.304 L 152.781 159.286 A 2.75 2.75 0 0 0 155.734 156.699 L 164.131 7.951 A 2.75 2.75 0 0 0 161.529 5.049 L 149.83 4.436 A 2.75 2.75 0 0 1 149.733 4.429 L 127.019 2.434 A 2.75 2.75 0 0 0 126.951 2.429 L 104.541 1.019 A 2.75 2.75 0 0 0 104.493 1.016 L 82.174 0.003 A 2.75 2.75 0 0 0 81.882 0.005 L 59.583 1.366 A 2.75 2.75 0 0 0 59.535 1.369 L 37.151 3.128 A 2.75 2.75 0 0 0 37.084 3.134 L 14.423 5.475 A 2.75 2.75 0 0 1 14.284 5.485 L 2.606 6.097 A 2.75 2.75 0 0 0 0.004 8.999 Z" vector-effect="non-scaling-stroke"/></g></svg>