<svg width="167.165mm" height="170.913mm" viewBox="0 0 167.165 170.913" xmlns="http://www.w3.org/2000/svg"><g id="svgGroup" stroke-linecap="round" fill-rule="evenodd" font-size="9pt" stroke="#000" stroke-width="0.25mm" fill="none" style="stroke:#000;stroke-width:0.25mm;fill:none"><path d="M 0.007 133.008 L 2.593 168.364 A 2.75 2.75 0 0 0 5.508 170.908 L 78.615 166.302 A 2.75 2.75 0 0 1 78.788 166.296 L 88.317 166.296 A 2.75 2.75 0 0 1 88.452 166.3 L 161.692 169.899 A 2.75 2.75 0 0 0 164.57 167.353 L 167.158 131.96 A 2.75 2.75 0 0 0 167.033 130.919 L 160.464 110.468 A 2.75 2.75 0 0 1 160.336 109.483 L 165.657 7.94 A 2.75 2.75 0 0 0 163.055 5.05 L 151.345 4.436 A 2.75 2.75 0 0 1 151.248 4.429 L 128.534 2.434 A 2.75 2.75 0 0 0 128.466 2.429 L 106.056 1.019 A 2.75 2.75 0 0 0 106.008 1.016 L 83.689 0.003 A 2.75 2.75 0 0 0 83.397 0.005 L 61.098 1.366 A 2.75 2.75 0 0 0 61.05 1.369 L 38.666 3.128 A 2.75 2.75 0 0 0 38.599 3.134 L 15.938 5.475 A 2.75 2.75 0 0 1 15.799 5.485 L 4.11 6.098 A 2.75 2.75 0 0 0 1.508 8.988 L 6.829 110.531 A 2.75 2.75 0 0 1 6.701 111.516 L 0.132 131.967 A 2.75 2.75 0 0 0 0.007 133.008 Z" vector-effect="non-scaling-stroke"/></g></svg>