0
SECTION
2
HEADER
9
$INSUNITS
70
4
0
ENDSEC
0
SECTION
2
TABLES
0
TABLE
2
LTYPE
0
LTYPE
72
65
70
0
2
CONTINUOUS
3
______
73
0
40
0
0
LTYPE
72
65
70
0
2
DASHED
3
_ _ _ 
73
2
40
7.5
49
5
49
-2.5
0
LTYPE
72
65
70
0
2
DOTTED
3
. . . 
73
2
40
1.5
49
0.5
49
-1
0
ENDTAB
0
TABLE
2
LAYER
0
ENDTAB
0
ENDSEC
0
SECTION
2
ENTITIES
0
ARC
8
0
6
CONTINUOUS
10
113.5988822
20
-519.6807142
40
464.5664942
50
82.0883718
51
98.793599
0
ARC
8
0
6
CONTINUOUS
10
113.2456966
20
-552.8889431
40
333.4765734
50
81.3026319
51
99.804443
0
LINE
8
0
6
CONTINUOUS
10
42.0753816
20
-60.6269028
11
32.8167747
21
-61.1121258
0
LINE
8
0
6
CONTINUOUS
10
177.9709487
20
-59.5769136
11
187.2681724
21
-60.0641605
0
LINE
8
0
6
CONTINUOUS
10
191.9996401
20
-65.3189882
11
187.7578121
21
-146.2578857
0
LINE
8
0
6
CONTINUOUS
10
188.1090299
20
-148.3776527
11
193.7551942
21
-162.483072
0
LINE
8
0
6
CONTINUOUS
10
194.106412
20
-164.602839
11
193.6707179
21
-172.9163783
0
LINE
8
0
6
CONTINUOUS
10
193.0998481
20
-174.9878203
11
185.8382927
21
-188.7516158
0
LINE
8
0
6
CONTINUOUS
10
185.3552176
20
-190.1164857
11
180.7244732
21
-213.5767417
0
LINE
8
0
6
CONTINUOUS
10
180.1192933
20
-215.1596683
11
176.4208492
21
-221.3936309
0
LINE
8
0
6
CONTINUOUS
10
171.7718937
20
-223.8302727
11
164.079789
21
-223.2923883
0
LINE
8
0
6
CONTINUOUS
10
55.956687
20
-224.343743
11
48.3130534
21
-224.878238
0
LINE
8
0
6
CONTINUOUS
10
43.6640979
20
-222.4415962
11
39.9656538
21
-216.2076336
0
LINE
8
0
6
CONTINUOUS
10
39.3604739
20
-214.624707
11
34.7297295
21
-191.164451
0
LINE
8
0
6
CONTINUOUS
10
34.2466544
20
-189.7995811
11
26.985099
21
-176.0357856
0
LINE
8
0
6
CONTINUOUS
10
26.4142292
20
-173.9643436
11
25.9785351
21
-165.6508043
0
LINE
8
0
6
CONTINUOUS
10
26.3297529
20
-163.5310373
11
31.9759172
21
-149.425618
0
LINE
8
0
6
CONTINUOUS
10
32.327135
20
-147.305851
11
28.085307
21
-66.3669535
0
ARC
8
0
6
CONTINUOUS
10
41.8137016
20
-55.633755
40
5
50
273.0000026
51
278.793599
0
ARC
8
0
6
CONTINUOUS
10
33.0784547
20
-66.1052735
40
5
50
93.0000026
51
183.0000026
0
ARC
8
0
6
CONTINUOUS
10
27.3339873
20
-147.567531
40
5
50
338.1845995
51
3.0000026
0
ARC
8
0
6
CONTINUOUS
10
30.9716828
20
-165.3891243
40
5
50
158.1845995
51
183.0000026
0
ARC
8
0
6
CONTINUOUS
10
31.4073769
20
-173.7026636
40
5
50
183.0000026
51
207.8154006
0
ARC
8
0
6
CONTINUOUS
10
29.8243765
20
-192.132703
40
5
50
11.1658945
51
27.8154006
0
ARC
8
0
6
CONTINUOUS
10
44.2658268
20
-213.656455
40
5
50
191.1658945
51
210.6795312
0
ARC
8
0
6
CONTINUOUS
10
47.9642709
20
-219.8904177
40
5
50
210.6795312
51
274.0000013
0
ARC
8
0
6
CONTINUOUS
10
55.6079046
20
-219.3559228
40
5
50
274.0000013
51
279.804443
0
ARC
8
0
6
CONTINUOUS
10
164.4285715
20
-218.3045681
40
5
50
261.3026319
51
265.9999987
0
ARC
8
0
6
CONTINUOUS
10
172.1206762
20
-218.8424524
40
5
50
265.9999987
51
329.3204688
0
ARC
8
0
6
CONTINUOUS
10
175.8191203
20
-212.6084897
40
5
50
329.3204688
51
348.8341055
0
ARC
8
0
6
CONTINUOUS
10
190.2605706
20
-191.0847377
40
5
50
152.1845994
51
168.8341055
0
ARC
8
0
6
CONTINUOUS
10
188.6775702
20
-172.6546983
40
5
50
332.1845994
51
356.9999974
0
ARC
8
0
6
CONTINUOUS
10
189.1132643
20
-164.341159
40
5
50
356.9999974
51
21.8154005
0
ARC
8
0
6
CONTINUOUS
10
192.7509598
20
-146.5195657
40
5
50
176.9999974
51
201.8154005
0
ARC
8
0
6
CONTINUOUS
10
187.0064924
20
-65.0573082
40
5
50
356.9999974
51
86.9999974
0
ARC
8
0
6
CONTINUOUS
10
178.2326288
20
-54.5837659
40
5
50
262.0883718
51
266.9999974
0
ENDSEC
0
EOF