<svg width="171.085mm" height="170.922mm" viewBox="0 0 171.085 170.922" xmlns="http://www.w3.org/2000/svg"><g id="svgGroup" stroke-linecap="round" fill-rule="evenodd" font-size="9pt" stroke="#000" stroke-width="0.25mm" fill="none" style="stroke:#000;stroke-width:0.25mm;fill:none"><path d="M 0.021 133.3 L 4.43 168.514 A 2.75 2.75 0 0 0 7.332 170.917 L 80.575 166.302 A 2.75 2.75 0 0 1 80.748 166.296 L 90.277 166.296 A 2.75 2.75 0 0 1 90.412 166.3 L 163.787 169.906 A 2.75 2.75 0 0 0 166.651 167.501 L 171.064 132.252 A 2.75 2.75 0 0 0 170.878 130.862 L 162.506 110.561 A 2.75 2.75 0 0 1 162.302 109.368 L 167.618 7.94 A 2.75 2.75 0 0 0 165.015 5.05 L 153.305 4.436 A 2.75 2.75 0 0 1 153.208 4.429 L 130.494 2.434 A 2.75 2.75 0 0 0 130.426 2.429 L 108.016 1.019 A 2.75 2.75 0 0 0 107.968 1.016 L 85.649 0.003 A 2.75 2.75 0 0 0 85.357 0.005 L 63.058 1.366 A 2.75 2.75 0 0 0 63.01 1.369 L 40.626 3.128 A 2.75 2.75 0 0 0 40.559 3.134 L 17.898 5.475 A 2.75 2.75 0 0 1 17.759 5.485 L 6.07 6.098 A 2.75 2.75 0 0 0 3.468 8.988 L 8.783 110.416 A 2.75 2.75 0 0 1 8.579 111.609 L 0.208 131.91 A 2.75 2.75 0 0 0 0.021 133.3 Z" vector-effect="non-scaling-stroke"/></g></svg>