<svg width="169.197mm" height="173.095mm" viewBox="0 0 169.197 173.095" xmlns="http://www.w3.org/2000/svg"><g id="svgGroup" stroke-linecap="round" fill-rule="evenodd" font-size="9pt" stroke="#000" stroke-width="0.25mm" fill="none" style="stroke:#000;stroke-width:0.25mm;fill:none"><path d="M 2.342 8.814 L 0 170.306 A 2.75 2.75 0 0 0 2.992 173.085 L 79.595 166.307 A 2.75 2.75 0 0 1 79.838 166.296 L 89.296 166.296 A 2.75 2.75 0 0 1 89.503 166.304 L 166.24 172.08 A 2.75 2.75 0 0 0 169.196 169.298 L 166.854 7.766 A 2.75 2.75 0 0 0 164.248 5.059 L 152.36 4.436 A 2.75 2.75 0 0 1 152.263 4.429 L 129.55 2.434 A 2.75 2.75 0 0 0 129.482 2.429 L 107.071 1.019 A 2.75 2.75 0 0 0 107.024 1.016 L 84.704 0.003 A 2.75 2.75 0 0 0 84.412 0.005 L 62.113 1.366 A 2.75 2.75 0 0 0 62.065 1.369 L 39.681 3.128 A 2.75 2.75 0 0 0 39.614 3.134 L 16.953 5.475 A 2.75 2.75 0 0 1 16.815 5.485 L 4.948 6.107 A 2.75 2.75 0 0 0 2.342 8.814 Z" vector-effect="non-scaling-stroke"/></g></svg>