<svg width="163.721mm" height="159.588mm" viewBox="0 0 163.721 159.588" xmlns="http://www.w3.org/2000/svg"><g id="svgGroup" stroke-linecap="round" fill-rule="evenodd" font-size="9pt" stroke="#000" stroke-width="0.25mm" fill="none" style="stroke:#000;stroke-width:0.25mm;fill:none"><path d="M 0.022 9.347 L 18.002 156.951 A 3 3 0 0 0 21.263 159.575 L 76.84 154.313 A 3 3 0 0 1 77.123 154.3 L 86.55 154.3 A 3 3 0 0 1 86.779 154.309 L 142.51 158.583 A 3 3 0 0 0 145.718 155.954 L 163.699 8.342 A 3 3 0 0 0 160.922 4.986 L 86.765 0.007 A 3 3 0 0 0 86.564 0 L 77.102 0 A 3 3 0 0 0 76.861 0.01 L 2.759 5.994 A 3 3 0 0 0 0.022 9.347 Z" vector-effect="non-scaling-stroke"/></g></svg>