<svg width="161.333mm" height="139.886mm" viewBox="0 0 161.333 139.886" xmlns="http://www.w3.org/2000/svg"><g id="svgGroup" stroke-linecap="round" fill-rule="evenodd" font-size="9pt" stroke="#000" stroke-width="0.25mm" fill="none" style="stroke:#000;stroke-width:0.25mm;fill:none"><path d="M 0.004 8.938 L 6.718 137.043 A 3 3 0 0 0 9.967 139.876 L 75.659 134.311 A 3 3 0 0 1 75.913 134.3 L 85.365 134.3 A 3 3 0 0 1 85.573 134.307 L 151.411 138.878 A 3 3 0 0 0 154.614 136.042 L 161.328 7.93 A 3 3 0 0 0 158.528 4.78 L 85.567 0.006 A 3 3 0 0 0 85.371 0 L 75.905 0 A 3 3 0 0 0 75.667 0.009 L 2.763 5.79 A 3 3 0 0 0 0.004 8.938 Z" vector-effect="non-scaling-stroke"/></g></svg>