<svg width="164.115mm" height="160.28mm" viewBox="0 0 164.115 160.28" xmlns="http://www.w3.org/2000/svg"><g id="svgGroup" stroke-linecap="round" fill-rule="evenodd" font-size="9pt" stroke="#000" stroke-width="0.25mm" fill="none" style="stroke:#000;stroke-width:0.25mm;fill:none"><path d="M 0.005 9.169 L 8.375 157.449 A 3 3 0 0 0 11.643 160.268 L 77.041 154.312 A 3 3 0 0 1 77.313 154.3 L 86.747 154.3 A 3 3 0 0 1 86.973 154.309 L 152.517 159.271 A 3 3 0 0 0 155.739 156.448 L 164.11 8.161 A 3 3 0 0 0 161.316 4.999 L 86.961 0.007 A 3 3 0 0 0 86.76 0 L 77.298 0 A 3 3 0 0 0 77.056 0.01 L 2.759 6.01 A 3 3 0 0 0 0.005 9.169 Z" vector-effect="non-scaling-stroke"/></g></svg>