0
SECTION
2
HEADER
9
$INSUNITS
70
4
0
ENDSEC
0
SECTION
2
TABLES
0
TABLE
2
LTYPE
0
LTYPE
72
65
70
0
2
CONTINUOUS
3
______
73
0
40
0
0
LTYPE
72
65
70
0
2
DASHED
3
_ _ _ 
73
2
40
7.5
49
5
49
-2.5
0
LTYPE
72
65
70
0
2
DOTTED
3
. . . 
73
2
40
1.5
49
0.5
49
-1
0
ENDTAB
0
TABLE
2
LAYER
0
ENDTAB
0
ENDSEC
0
SECTION
2
ENTITIES
0
LINE
8
0
6
CONTINUOUS
10
24.521107
20
-188.4316091
11
28.9301133
21
-223.6456647
0
LINE
8
0
6
CONTINUOUS
10
31.8317415
20
-226.0485731
11
105.0745192
21
-221.4335831
0
LINE
8
0
6
CONTINUOUS
10
105.2474524
20
-221.4281403
11
114.776689
21
-221.4281403
0
LINE
8
0
6
CONTINUOUS
10
114.911695
20
-221.4314562
11
188.2867159
21
-225.038012
0
LINE
8
0
6
CONTINUOUS
10
191.1504169
20
-222.6329767
11
195.5638401
21
-187.3836438
0
LINE
8
0
6
CONTINUOUS
10
195.3774547
20
-185.9935859
11
187.0056855
21
-165.6927059
0
LINE
8
0
6
CONTINUOUS
10
186.8017639
20
-164.5003727
11
192.117396
21
-63.0720716
0
LINE
8
0
6
CONTINUOUS
10
189.5150888
20
-60.1819164
11
177.8046516
21
-59.5681984
0
LINE
8
0
6
CONTINUOUS
10
177.7079187
20
-59.5614168
11
154.9940951
21
-57.5660391
0
LINE
8
0
6
CONTINUOUS
10
154.9261184
20
-57.5609156
11
132.51593
21
-56.1509357
0
LINE
8
0
6
CONTINUOUS
10
132.4680041
20
-56.1483399
11
110.1487512
21
-55.1347788
0
LINE
8
0
6
CONTINUOUS
10
109.856503
20
-55.1370531
11
87.5576188
21
-56.4977353
0
LINE
8
0
6
CONTINUOUS
10
87.5097394
20
-56.5010765
11
65.1257435
21
-58.2595394
0
LINE
8
0
6
CONTINUOUS
10
65.0585472
20
-58.2656486
11
42.3979071
21
-60.6064789
0
LINE
8
0
6
CONTINUOUS
10
42.2592614
20
-60.617266
11
30.5698583
21
-61.2298817
0
LINE
8
0
6
CONTINUOUS
10
27.9675511
20
-64.1200369
11
33.2831832
21
-165.548338
0
LINE
8
0
6
CONTINUOUS
10
33.0792616
20
-166.7406712
11
24.7074924
21
-187.0415512
0
ARC
8
0
6
CONTINUOUS
10
31.6588083
20
-223.3040159
40
2.75
50
187.1366322
51
273.6054125
0
ARC
8
0
6
CONTINUOUS
10
105.2474524
20
-224.1781403
40
2.75
50
90
51
93.6054125
0
ARC
8
0
6
CONTINUOUS
10
114.776689
20
-224.1781403
40
2.75
50
87.1860414
51
90
0
ARC
8
0
6
CONTINUOUS
10
188.4217219
20
-222.2913279
40
2.75
50
267.1860414
51
352.8633678
0
ARC
8
0
6
CONTINUOUS
10
192.8351451
20
-187.0419951
40
2.75
50
352.8633678
51
22.4104942
0
ARC
8
0
6
CONTINUOUS
10
189.5479951
20
-164.6442967
40
2.75
50
176.9999974
51
202.4104942
0
ARC
8
0
6
CONTINUOUS
10
189.3711648
20
-62.9281476
40
2.75
50
356.9999974
51
86.9999974
0
ARC
8
0
6
CONTINUOUS
10
177.9485756
20
-56.8219672
40
2.75
50
264.9795327
51
266.9999974
0
ARC
8
0
6
CONTINUOUS
10
154.7534382
20
-60.3054887
40
2.75
50
84.9795327
51
86.3998691
0
ARC
8
0
6
CONTINUOUS
10
132.3432499
20
-58.8955087
40
2.75
50
86.3998691
51
87.3998732
0
ARC
8
0
6
CONTINUOUS
10
110.0239969
20
-57.8819476
40
2.75
50
87.3998732
51
93.4918694
0
ARC
8
0
6
CONTINUOUS
10
87.7251128
20
-59.2426298
40
2.75
50
93.4918694
51
94.4918677
0
ARC
8
0
6
CONTINUOUS
10
65.3411168
20
-61.0010927
40
2.75
50
94.4918677
51
95.8976999
0
ARC
8
0
6
CONTINUOUS
10
42.1153374
20
-57.8710348
40
2.75
50
273.0000026
51
275.8976999
0
ARC
8
0
6
CONTINUOUS
10
30.7137823
20
-63.9761129
40
2.75
50
93.0000026
51
183.0000026
0
ARC
8
0
6
CONTINUOUS
10
30.536952
20
-165.692262
40
2.75
50
337.5895058
51
3.0000026
0
ARC
8
0
6
CONTINUOUS
10
27.249802
20
-188.0899604
40
2.75
50
157.5895058
51
187.1366322
0
ENDSEC
0
EOF