0
SECTION
2
HEADER
9
$INSUNITS
70
4
0
ENDSEC
0
SECTION
2
TABLES
0
TABLE
2
LTYPE
0
LTYPE
72
65
70
0
2
CONTINUOUS
3
______
73
0
40
0
0
LTYPE
72
65
70
0
2
DASHED
3
_ _ _ 
73
2
40
7.5
49
5
49
-2.5
0
LTYPE
72
65
70
0
2
DOTTED
3
. . . 
73
2
40
1.5
49
0.5
49
-1
0
ENDTAB
0
TABLE
2
LAYER
0
ENDTAB
0
ENDSEC
0
SECTION
2
ENTITIES
0
LINE
8
0
6
CONTINUOUS
10
26.467239
20
-188.140248
11
29.0527697
21
-223.4959758
0
LINE
8
0
6
CONTINUOUS
10
31.968379
20
-226.0399637
11
105.0745192
21
-221.4335831
0
LINE
8
0
6
CONTINUOUS
10
105.2474524
20
-221.4281403
11
114.776689
21
-221.4281403
0
LINE
8
0
6
CONTINUOUS
10
114.911695
20
-221.4314562
11
188.1517709
21
-225.0313792
0
LINE
8
0
6
CONTINUOUS
10
191.0294531
20
-222.4852644
11
193.6177081
21
-187.0922827
0
LINE
8
0
6
CONTINUOUS
10
193.4932533
20
-186.0506323
11
186.9237522
21
-165.6002771
0
LINE
8
0
6
CONTINUOUS
10
186.7957423
20
-164.6152719
11
192.117396
21
-63.0720716
0
LINE
8
0
6
CONTINUOUS
10
189.5150888
20
-60.1819164
11
177.8046516
21
-59.5681984
0
LINE
8
0
6
CONTINUOUS
10
177.7079187
20
-59.5614168
11
154.9940951
21
-57.5660391
0
LINE
8
0
6
CONTINUOUS
10
154.9261184
20
-57.5609156
11
132.51593
21
-56.1509357
0
LINE
8
0
6
CONTINUOUS
10
132.4680041
20
-56.1483399
11
110.1487512
21
-55.1347788
0
LINE
8
0
6
CONTINUOUS
10
109.856503
20
-55.1370531
11
87.5576188
21
-56.4977353
0
LINE
8
0
6
CONTINUOUS
10
87.5097394
20
-56.5010765
11
65.1257435
21
-58.2595394
0
LINE
8
0
6
CONTINUOUS
10
65.0585472
20
-58.2656486
11
42.3979071
21
-60.6064789
0
LINE
8
0
6
CONTINUOUS
10
42.2592614
20
-60.617266
11
30.5698583
21
-61.2298817
0
LINE
8
0
6
CONTINUOUS
10
27.9675511
20
-64.1200369
11
33.2892048
21
-165.6632372
0
LINE
8
0
6
CONTINUOUS
10
33.1611949
20
-166.6482424
11
26.5916938
21
-187.0985976
0
ARC
8
0
6
CONTINUOUS
10
31.7954458
20
-223.2954065
40
2.75
50
184.1825415
51
273.6054125
0
ARC
8
0
6
CONTINUOUS
10
105.2474524
20
-224.1781403
40
2.75
50
90
51
93.6054125
0
ARC
8
0
6
CONTINUOUS
10
114.776689
20
-224.1781403
40
2.75
50
87.1860414
51
90
0
ARC
8
0
6
CONTINUOUS
10
188.286777
20
-222.2846951
40
2.75
50
267.1860414
51
355.8174585
0
ARC
8
0
6
CONTINUOUS
10
190.875032
20
-186.8917134
40
2.75
50
355.8174585
51
17.80917
0
ARC
8
0
6
CONTINUOUS
10
189.5419735
20
-164.7591959
40
2.75
50
176.9999974
51
197.80917
0
ARC
8
0
6
CONTINUOUS
10
189.3711648
20
-62.9281476
40
2.75
50
356.9999974
51
86.9999974
0
ARC
8
0
6
CONTINUOUS
10
177.9485756
20
-56.8219672
40
2.75
50
264.9795327
51
266.9999974
0
ARC
8
0
6
CONTINUOUS
10
154.7534382
20
-60.3054887
40
2.75
50
84.9795327
51
86.3998691
0
ARC
8
0
6
CONTINUOUS
10
132.3432499
20
-58.8955087
40
2.75
50
86.3998691
51
87.3998732
0
ARC
8
0
6
CONTINUOUS
10
110.0239969
20
-57.8819476
40
2.75
50
87.3998732
51
93.4918694
0
ARC
8
0
6
CONTINUOUS
10
87.7251128
20
-59.2426298
40
2.75
50
93.4918694
51
94.4918677
0
ARC
8
0
6
CONTINUOUS
10
65.3411168
20
-61.0010927
40
2.75
50
94.4918677
51
95.8976999
0
ARC
8
0
6
CONTINUOUS
10
42.1153374
20
-57.8710348
40
2.75
50
273.0000026
51
275.8976999
0
ARC
8
0
6
CONTINUOUS
10
30.7137823
20
-63.9761129
40
2.75
50
93.0000026
51
183.0000026
0
ARC
8
0
6
CONTINUOUS
10
30.5429736
20
-165.8071612
40
2.75
50
342.19083
51
3.0000026
0
ARC
8
0
6
CONTINUOUS
10
29.2099151
20
-187.9396787
40
2.75
50
162.19083
51
184.1825415
0
ENDSEC
0
EOF