<svg width="171.085mm" height="170.922mm" viewBox="0 0 171.085 170.922" xmlns="http://www.w3.org/2000/svg"><g id="svgGroup" stroke-linecap="round" fill-rule="evenodd" font-size="9pt" stroke="#000" stroke-width="0.25mm" fill="none" style="stroke:#000;stroke-width:0.25mm;fill:none"><path d="M 0.021 133.3 L 4.43 168.514 A 2.75 2.75 0 0 0 7.332 170.917 L 80.575 166.302 A 2.75 2.75 0 0 1 80.748 166.296 L 90.277 166.296 A 2.75 2.75 0 0 1 90.412 166.3 L 163.787 169.906 A 2.75 2.75 0 0 0 166.651 167.501 L 171.064 132.252 A 2.75 2.75 0 0 0 170.878 130.862 L 162.506 110.561 A 2.75 2.75 0 0 1 162.302 109.368 L 167.618 7.94 A 2.75 2.75 0 0 0 165.015 5.05 L 153.305 4.436 A 2.75 2.75 0 0 1 153.208 4.429 L 130.494 2.434 A 2.75 2.75 0 0 0 130.426 2.429 L 108.016 1.019 A 2.75 2.75 0 0 0 107.968 1.016 L 85.649 0.003 A 2.75 2.75 0 0 0 85.357 0.005 L 63.058 1.366 A 2.75 2.75 0 0 0 63.01 1.369 L 40.626 3.128 A 2.75 2.75 0 0 0 40.559 3.134 L 17.898 5.475 A 2.75 2.75 0 0 1 17.759 5.485 L 6.07 6.098 A 2.75 2.75 0 0 0 3.468 8.988 L 8.783 110.416 A 2.75 2.75 0 0 1 8.579 111.609 L 0.208 131.91 A 2.75 2.75 0 0 0 0.021 133.3 Z M 125.408 152.133 L 144.411 153.462 L 145.74 134.458 L 126.737 133.129 L 125.408 152.133 Z M 26.674 154.51 L 45.678 153.181 L 44.349 134.177 L 25.345 135.506 L 26.674 154.51 Z M 97.332 65.941 L 116.38 66.274 L 116.712 47.227 L 97.665 46.894 L 97.332 65.941 Z M 97.7 44.895 L 116.747 45.227 L 117.079 26.18 L 98.032 25.847 L 97.7 44.895 Z M 54.646 66.624 L 73.694 66.291 L 73.361 47.244 L 54.314 47.576 L 54.646 66.624 Z M 54.279 45.577 L 73.326 45.244 L 72.994 26.197 L 53.947 26.53 L 54.279 45.577 Z M 95.863 150.129 L 114.91 150.461 L 115.243 131.414 L 96.195 131.081 L 95.863 150.129 Z M 96.23 129.082 L 115.277 129.414 L 115.61 110.367 L 96.563 110.035 L 96.23 129.082 Z M 96.598 108.035 L 115.645 108.367 L 115.977 89.32 L 96.93 88.988 L 96.598 108.035 Z M 96.965 86.988 L 116.012 87.321 L 116.345 68.273 L 97.298 67.941 L 96.965 86.988 Z M 56.116 150.811 L 75.163 150.478 L 74.831 131.431 L 55.783 131.764 L 56.116 150.811 Z M 55.749 129.764 L 74.796 129.431 L 74.463 110.384 L 55.416 110.717 L 55.749 129.764 Z M 55.381 108.717 L 74.428 108.385 L 74.096 89.338 L 55.049 89.67 L 55.381 108.717 Z M 55.014 87.67 L 74.061 87.338 L 73.728 68.291 L 54.681 68.623 L 55.014 87.67 Z M 75.978 149.296 L 95.028 149.296 L 95.028 130.246 L 75.978 130.246 L 75.978 149.296 Z M 75.978 128.246 L 95.028 128.246 L 95.028 109.196 L 75.978 109.196 L 75.978 128.246 Z M 75.978 107.196 L 95.028 107.196 L 95.028 88.146 L 75.978 88.146 L 75.978 107.196 Z M 75.978 86.146 L 95.028 86.146 L 95.028 67.096 L 75.978 67.096 L 75.978 86.146 Z M 75.978 65.096 L 95.028 65.096 L 95.028 46.046 L 75.978 46.046 L 75.978 65.096 Z M 75.978 44.046 L 95.028 44.046 L 95.028 24.996 L 75.978 24.996 L 75.978 44.046 Z M 12.826 92.012 L 31.85 91.015 L 30.853 71.991 L 11.829 72.988 L 12.826 92.012 Z M 10.622 49.97 L 29.646 48.973 L 28.649 29.949 L 9.625 30.946 L 10.622 49.97 Z M 139.236 89.967 L 158.26 90.964 L 159.257 71.94 L 140.233 70.943 L 139.236 89.967 Z M 141.439 47.925 L 160.463 48.922 L 161.46 29.898 L 142.436 28.901 L 141.439 47.925 Z M 15.029 134.054 L 34.053 133.057 L 33.056 114.034 L 14.032 115.031 L 15.029 134.054 Z M 13.927 113.033 L 32.951 112.036 L 31.954 93.012 L 12.93 94.009 L 13.927 113.033 Z M 11.724 70.991 L 30.748 69.994 L 29.751 50.97 L 10.727 51.967 L 11.724 70.991 Z M 137.032 132.009 L 156.056 133.006 L 157.053 113.983 L 138.029 112.986 L 137.032 132.009 Z M 138.134 110.988 L 157.158 111.985 L 158.155 92.961 L 139.131 91.964 L 138.134 110.988 Z M 140.337 68.946 L 159.361 69.943 L 160.358 50.919 L 141.334 49.922 L 140.337 68.946 Z M 34.814 110.597 L 53.853 109.933 L 53.188 90.894 L 34.15 91.559 L 34.814 110.597 Z M 116.465 130.271 L 135.504 130.935 L 136.169 111.897 L 117.13 111.232 L 116.465 130.271 Z M 35.549 131.635 L 54.587 130.97 L 53.923 111.931 L 34.884 112.596 L 35.549 131.635 Z M 33.345 68.523 L 52.383 67.858 L 51.719 48.82 L 32.68 49.485 L 33.345 68.523 Z M 32.61 47.486 L 51.649 46.821 L 50.984 27.783 L 31.946 28.447 L 32.61 47.486 Z M 117.935 88.196 L 136.973 88.861 L 137.638 69.823 L 118.599 69.158 L 117.935 88.196 Z M 34.08 89.56 L 53.118 88.895 L 52.453 69.857 L 33.415 70.522 L 34.08 89.56 Z M 117.2 109.233 L 136.238 109.898 L 136.903 90.86 L 117.865 90.195 L 117.2 109.233 Z M 118.669 67.159 L 137.708 67.824 L 138.372 48.785 L 119.334 48.121 L 118.669 67.159 Z M 119.404 46.122 L 138.442 46.787 L 139.107 27.748 L 120.069 27.083 L 119.404 46.122 Z" vector-effect="non-scaling-stroke"/></g></svg>