<svg width="163.721mm" height="159.588mm" viewBox="0 0 163.721 159.588" xmlns="http://www.w3.org/2000/svg"><g id="svgGroup" stroke-linecap="round" fill-rule="evenodd" font-size="9pt" stroke="#000" stroke-width="0.25mm" fill="none" style="stroke:#000;stroke-width:0.25mm;fill:none"><path d="M 0.022 9.347 L 8.432 78.384 L 8.149 72.992 L 27.173 71.995 L 28.17 91.019 L 10.086 91.967 L 10.329 93.957 L 28.275 93.016 L 29.272 112.04 L 12.638 112.912 L 12.88 114.902 L 29.376 114.037 L 30.373 133.061 L 15.189 133.857 L 18.002 156.951 A 3 3 0 0 0 21.263 159.575 L 76.84 154.313 A 3 3 0 0 1 77.123 154.3 L 86.55 154.3 A 3 3 0 0 1 86.779 154.309 L 142.51 158.583 A 3 3 0 0 0 145.718 155.954 L 148.537 132.809 L 133.353 132.013 L 134.35 112.989 L 150.846 113.854 L 151.088 111.864 L 134.454 110.992 L 135.451 91.968 L 153.397 92.909 L 153.64 90.919 L 135.556 89.971 L 136.553 70.947 L 155.577 71.944 L 155.294 77.336 L 163.699 8.342 A 3 3 0 0 0 160.922 4.986 L 86.765 0.007 A 3 3 0 0 0 86.564 0 L 77.102 0 A 3 3 0 0 0 76.861 0.01 L 2.759 5.994 A 3 3 0 0 0 0.022 9.347 Z M 121.728 152.137 L 140.732 153.465 L 142.06 134.462 L 123.057 133.133 L 121.728 152.137 Z M 22.994 154.513 L 41.998 153.185 L 40.669 134.181 L 21.666 135.51 L 22.994 154.513 Z M 93.653 65.945 L 112.7 66.278 L 113.032 47.231 L 93.985 46.898 L 93.653 65.945 Z M 94.02 44.898 L 113.067 45.231 L 113.4 26.184 L 94.353 25.851 L 94.02 44.898 Z M 50.967 66.627 L 70.014 66.295 L 69.681 47.248 L 50.634 47.58 L 50.967 66.627 Z M 50.599 45.581 L 69.647 45.248 L 69.314 26.201 L 50.267 26.533 L 50.599 45.581 Z M 92.183 150.132 L 111.23 150.465 L 111.563 131.418 L 92.516 131.085 L 92.183 150.132 Z M 92.551 129.086 L 111.598 129.418 L 111.93 110.371 L 92.883 110.038 L 92.551 129.086 Z M 92.918 108.039 L 111.965 108.371 L 112.298 89.324 L 93.251 88.992 L 92.918 108.039 Z M 93.285 86.992 L 112.333 87.324 L 112.665 68.277 L 93.618 67.945 L 93.285 86.992 Z M 52.436 150.815 L 71.483 150.482 L 71.151 131.435 L 52.104 131.767 L 52.436 150.815 Z M 52.069 129.768 L 71.116 129.435 L 70.784 110.388 L 51.736 110.721 L 52.069 129.768 Z M 51.702 108.721 L 70.749 108.388 L 70.416 89.341 L 51.369 89.674 L 51.702 108.721 Z M 51.334 87.674 L 70.381 87.342 L 70.049 68.295 L 51.002 68.627 L 51.334 87.674 Z M 72.298 149.3 L 91.348 149.3 L 91.348 130.25 L 72.298 130.25 L 72.298 149.3 Z M 72.298 128.25 L 91.348 128.25 L 91.348 109.2 L 72.298 109.2 L 72.298 128.25 Z M 72.298 107.2 L 91.348 107.2 L 91.348 88.15 L 72.298 88.15 L 72.298 107.2 Z M 72.298 86.15 L 91.348 86.15 L 91.348 67.1 L 72.298 67.1 L 72.298 86.15 Z M 72.298 65.1 L 91.348 65.1 L 91.348 46.05 L 72.298 46.05 L 72.298 65.1 Z M 72.298 44.05 L 91.348 44.05 L 91.348 25 L 72.298 25 L 72.298 44.05 Z M 6.943 49.974 L 25.967 48.977 L 24.97 29.953 L 5.946 30.95 L 6.943 49.974 Z M 137.759 47.929 L 156.783 48.926 L 157.78 29.902 L 138.756 28.905 L 137.759 47.929 Z M 8.044 70.995 L 27.068 69.998 L 26.071 50.974 L 7.047 51.971 L 8.044 70.995 Z M 136.658 68.95 L 155.682 69.947 L 156.679 50.923 L 137.655 49.926 L 136.658 68.95 Z M 31.135 110.601 L 50.173 109.936 L 49.508 90.898 L 30.47 91.563 L 31.135 110.601 Z M 112.786 130.274 L 131.824 130.939 L 132.489 111.901 L 113.45 111.236 L 112.786 130.274 Z M 31.869 131.638 L 50.908 130.973 L 50.243 111.935 L 31.205 112.6 L 31.869 131.638 Z M 29.665 68.527 L 48.704 67.862 L 48.039 48.824 L 29.001 49.488 L 29.665 68.527 Z M 28.931 47.49 L 47.969 46.825 L 47.304 27.786 L 28.266 28.451 L 28.931 47.49 Z M 114.255 88.2 L 133.293 88.865 L 133.958 69.826 L 114.92 69.162 L 114.255 88.2 Z M 30.4 89.564 L 49.438 88.899 L 48.774 69.861 L 29.735 70.526 L 30.4 89.564 Z M 113.52 109.237 L 132.559 109.902 L 133.224 90.864 L 114.185 90.199 L 113.52 109.237 Z M 114.99 67.163 L 134.028 67.828 L 134.693 48.789 L 115.654 48.124 L 114.99 67.163 Z M 115.724 46.126 L 134.763 46.79 L 135.427 27.752 L 116.389 27.087 L 115.724 46.126 Z" vector-effect="non-scaling-stroke"/></g></svg>