<svg width="164.135mm" height="160.299mm" viewBox="0 0 164.135 160.299" xmlns="http://www.w3.org/2000/svg"><g id="svgGroup" stroke-linecap="round" fill-rule="evenodd" font-size="9pt" stroke="#000" stroke-width="0.25mm" fill="none" style="stroke:#000;stroke-width:0.25mm;fill:none"><path d="M 0.004 8.999 L 8.399 157.704 A 2.75 2.75 0 0 0 11.394 160.287 L 77.062 154.308 A 2.75 2.75 0 0 1 77.311 154.296 L 86.765 154.296 A 2.75 2.75 0 0 1 86.973 154.304 L 152.781 159.286 A 2.75 2.75 0 0 0 155.734 156.699 L 164.131 7.951 A 2.75 2.75 0 0 0 161.529 5.049 L 149.83 4.436 A 2.75 2.75 0 0 1 149.733 4.429 L 127.019 2.434 A 2.75 2.75 0 0 0 126.951 2.429 L 104.541 1.019 A 2.75 2.75 0 0 0 104.493 1.016 L 82.174 0.003 A 2.75 2.75 0 0 0 81.882 0.005 L 59.583 1.366 A 2.75 2.75 0 0 0 59.535 1.369 L 37.151 3.128 A 2.75 2.75 0 0 0 37.084 3.134 L 14.423 5.475 A 2.75 2.75 0 0 1 14.284 5.485 L 2.606 6.097 A 2.75 2.75 0 0 0 0.004 8.999 Z M 121.933 152.133 L 140.936 153.462 L 142.265 134.458 L 123.261 133.129 L 121.933 152.133 Z M 23.199 154.51 L 42.203 153.181 L 40.874 134.177 L 21.87 135.506 L 23.199 154.51 Z M 93.857 65.941 L 112.904 66.274 L 113.237 47.227 L 94.19 46.894 L 93.857 65.941 Z M 94.225 44.895 L 113.272 45.227 L 113.604 26.18 L 94.557 25.847 L 94.225 44.895 Z M 51.171 66.624 L 70.218 66.291 L 69.886 47.244 L 50.839 47.576 L 51.171 66.624 Z M 50.804 45.577 L 69.851 45.244 L 69.519 26.197 L 50.472 26.53 L 50.804 45.577 Z M 92.388 150.129 L 111.435 150.461 L 111.767 131.414 L 92.72 131.081 L 92.388 150.129 Z M 92.755 129.082 L 111.802 129.414 L 112.135 110.367 L 93.088 110.035 L 92.755 129.082 Z M 93.123 108.035 L 112.17 108.367 L 112.502 89.32 L 93.455 88.988 L 93.123 108.035 Z M 93.49 86.988 L 112.537 87.321 L 112.87 68.273 L 93.822 67.941 L 93.49 86.988 Z M 52.641 150.811 L 71.688 150.478 L 71.356 131.431 L 52.308 131.764 L 52.641 150.811 Z M 52.274 129.764 L 71.321 129.431 L 70.988 110.384 L 51.941 110.717 L 52.274 129.764 Z M 51.906 108.717 L 70.953 108.385 L 70.621 89.338 L 51.574 89.67 L 51.906 108.717 Z M 51.539 87.67 L 70.586 87.338 L 70.253 68.291 L 51.206 68.623 L 51.539 87.67 Z M 72.503 149.296 L 91.553 149.296 L 91.553 130.246 L 72.503 130.246 L 72.503 149.296 Z M 72.503 128.246 L 91.553 128.246 L 91.553 109.196 L 72.503 109.196 L 72.503 128.246 Z M 72.503 107.196 L 91.553 107.196 L 91.553 88.146 L 72.503 88.146 L 72.503 107.196 Z M 72.503 86.146 L 91.553 86.146 L 91.553 67.096 L 72.503 67.096 L 72.503 86.146 Z M 72.503 65.096 L 91.553 65.096 L 91.553 46.046 L 72.503 46.046 L 72.503 65.096 Z M 72.503 44.046 L 91.553 44.046 L 91.553 24.996 L 72.503 24.996 L 72.503 44.046 Z M 9.351 92.012 L 28.375 91.015 L 27.378 71.991 L 8.354 72.988 L 9.351 92.012 Z M 7.147 49.97 L 26.171 48.973 L 25.174 29.949 L 6.15 30.946 L 7.147 49.97 Z M 135.761 89.967 L 154.785 90.964 L 155.782 71.94 L 136.758 70.943 L 135.761 89.967 Z M 137.964 47.925 L 156.988 48.922 L 157.985 29.898 L 138.961 28.901 L 137.964 47.925 Z M 11.554 134.054 L 30.578 133.057 L 29.581 114.034 L 10.557 115.031 L 11.554 134.054 Z M 10.452 113.033 L 29.476 112.036 L 28.479 93.012 L 9.455 94.009 L 10.452 113.033 Z M 8.249 70.991 L 27.273 69.994 L 26.276 50.97 L 7.252 51.967 L 8.249 70.991 Z M 133.557 132.009 L 152.581 133.006 L 153.578 113.983 L 134.554 112.986 L 133.557 132.009 Z M 134.659 110.988 L 153.683 111.985 L 154.68 92.961 L 135.656 91.964 L 134.659 110.988 Z M 136.862 68.946 L 155.886 69.943 L 156.883 50.919 L 137.859 49.922 L 136.862 68.946 Z M 31.339 110.597 L 50.378 109.933 L 49.713 90.894 L 30.674 91.559 L 31.339 110.597 Z M 112.99 130.271 L 132.029 130.935 L 132.693 111.897 L 113.655 111.232 L 112.99 130.271 Z M 32.074 131.635 L 51.112 130.97 L 50.447 111.931 L 31.409 112.596 L 32.074 131.635 Z M 29.87 68.523 L 48.908 67.858 L 48.244 48.82 L 29.205 49.485 L 29.87 68.523 Z M 29.135 47.486 L 48.174 46.821 L 47.509 27.783 L 28.471 28.447 L 29.135 47.486 Z M 114.459 88.196 L 133.498 88.861 L 134.163 69.823 L 115.124 69.158 L 114.459 88.196 Z M 30.605 89.56 L 49.643 88.895 L 48.978 69.857 L 29.94 70.522 L 30.605 89.56 Z M 113.725 109.233 L 132.763 109.898 L 133.428 90.86 L 114.39 90.195 L 113.725 109.233 Z M 115.194 67.159 L 134.233 67.824 L 134.897 48.785 L 115.859 48.121 L 115.194 67.159 Z M 115.929 46.122 L 134.967 46.787 L 135.632 27.748 L 116.594 27.083 L 115.929 46.122 Z" vector-effect="non-scaling-stroke"/></g></svg>