<svg width="161.333mm" height="139.886mm" viewBox="0 0 161.333 139.886" xmlns="http://www.w3.org/2000/svg"><g id="svgGroup" stroke-linecap="round" fill-rule="evenodd" font-size="9pt" stroke="#000" stroke-width="0.25mm" fill="none" style="stroke:#000;stroke-width:0.25mm;fill:none"><path d="M 0.004 8.938 L 6.718 137.043 A 3 3 0 0 0 9.967 139.876 L 75.659 134.311 A 3 3 0 0 1 75.913 134.3 L 85.365 134.3 A 3 3 0 0 1 85.573 134.307 L 151.411 138.878 A 3 3 0 0 0 154.614 136.042 L 161.328 7.93 A 3 3 0 0 0 158.528 4.78 L 85.567 0.006 A 3 3 0 0 0 85.371 0 L 75.905 0 A 3 3 0 0 0 75.667 0.009 L 2.763 5.79 A 3 3 0 0 0 0.004 8.938 Z M 92.457 45.945 L 111.504 46.278 L 111.837 27.231 L 92.79 26.898 L 92.457 45.945 Z M 92.825 24.898 L 111.872 25.231 L 112.204 6.184 L 93.157 5.851 L 92.825 24.898 Z M 49.771 46.627 L 68.818 46.295 L 68.486 27.248 L 49.439 27.58 L 49.771 46.627 Z M 49.404 25.581 L 68.451 25.248 L 68.118 6.201 L 49.071 6.533 L 49.404 25.581 Z M 90.988 130.132 L 110.035 130.465 L 110.367 111.418 L 91.32 111.085 L 90.988 130.132 Z M 91.355 109.086 L 110.402 109.418 L 110.735 90.371 L 91.688 90.038 L 91.355 109.086 Z M 91.722 88.039 L 110.77 88.371 L 111.102 69.324 L 92.055 68.992 L 91.722 88.039 Z M 92.09 66.992 L 111.137 67.324 L 111.469 48.277 L 92.422 47.945 L 92.09 66.992 Z M 51.241 130.815 L 70.288 130.482 L 69.955 111.435 L 50.908 111.767 L 51.241 130.815 Z M 50.873 109.768 L 69.92 109.435 L 69.588 90.388 L 50.541 90.721 L 50.873 109.768 Z M 50.506 88.721 L 69.553 88.388 L 69.221 69.341 L 50.173 69.674 L 50.506 88.721 Z M 50.139 67.674 L 69.186 67.342 L 68.853 48.295 L 49.806 48.627 L 50.139 67.674 Z M 71.102 129.3 L 90.152 129.3 L 90.152 110.25 L 71.102 110.25 L 71.102 129.3 Z M 71.102 108.25 L 90.152 108.25 L 90.152 89.2 L 71.102 89.2 L 71.102 108.25 Z M 71.102 87.2 L 90.152 87.2 L 90.152 68.15 L 71.102 68.15 L 71.102 87.2 Z M 71.102 66.15 L 90.152 66.15 L 90.152 47.1 L 71.102 47.1 L 71.102 66.15 Z M 71.102 45.1 L 90.152 45.1 L 90.152 26.05 L 71.102 26.05 L 71.102 45.1 Z M 71.102 24.05 L 90.152 24.05 L 90.152 5 L 71.102 5 L 71.102 24.05 Z M 8.306 71.819 L 27.33 70.822 L 26.333 51.798 L 7.309 52.795 L 8.306 71.819 Z M 6.103 29.777 L 25.127 28.78 L 24.13 9.756 L 5.106 10.753 L 6.103 29.777 Z M 134.004 69.774 L 153.028 70.771 L 154.025 51.747 L 135.001 50.75 L 134.004 69.774 Z M 136.208 27.732 L 155.232 28.729 L 156.229 9.705 L 137.205 8.708 L 136.208 27.732 Z M 11.611 134.882 L 30.635 133.885 L 29.638 114.861 L 10.614 115.858 L 11.611 134.882 Z M 10.51 113.861 L 29.534 112.864 L 28.537 93.84 L 9.513 94.837 L 10.51 113.861 Z M 9.408 92.84 L 28.432 91.843 L 27.435 72.819 L 8.411 73.816 L 9.408 92.84 Z M 7.205 50.798 L 26.229 49.801 L 25.232 30.777 L 6.208 31.774 L 7.205 50.798 Z M 130.699 132.837 L 149.723 133.834 L 150.72 114.81 L 131.696 113.813 L 130.699 132.837 Z M 131.801 111.816 L 150.825 112.813 L 151.822 93.789 L 132.798 92.792 L 131.801 111.816 Z M 132.903 90.795 L 151.927 91.792 L 152.924 72.768 L 133.9 71.771 L 132.903 90.795 Z M 135.106 48.753 L 154.13 49.75 L 155.127 30.726 L 136.103 29.729 L 135.106 48.753 Z M 31.408 132.676 L 50.447 132.011 L 49.782 112.972 L 30.743 113.637 L 31.408 132.676 Z M 29.939 90.601 L 48.977 89.936 L 48.313 70.898 L 29.274 71.563 L 29.939 90.601 Z M 111.59 110.274 L 130.628 110.939 L 131.293 91.901 L 112.255 91.236 L 111.59 110.274 Z M 28.47 48.527 L 47.508 47.862 L 46.843 28.824 L 27.805 29.488 L 28.47 48.527 Z M 113.059 68.2 L 132.098 68.865 L 132.762 49.826 L 113.724 49.162 L 113.059 68.2 Z M 30.674 111.638 L 49.712 110.973 L 49.047 91.935 L 30.009 92.6 L 30.674 111.638 Z M 27.735 27.49 L 46.774 26.825 L 46.109 7.786 L 27.07 8.451 L 27.735 27.49 Z M 110.855 131.312 L 129.894 131.976 L 130.559 112.938 L 111.52 112.273 L 110.855 131.312 Z M 112.325 89.237 L 131.363 89.902 L 132.028 70.864 L 112.989 70.199 L 112.325 89.237 Z M 113.794 47.163 L 132.832 47.828 L 133.497 28.789 L 114.459 28.124 L 113.794 47.163 Z M 114.529 26.126 L 133.567 26.79 L 134.232 7.752 L 115.193 7.087 L 114.529 26.126 Z M 29.204 69.564 L 48.243 68.899 L 47.578 49.861 L 28.54 50.526 L 29.204 69.564 Z" vector-effect="non-scaling-stroke"/></g></svg>