<svg width="163.426mm" height="159.886mm" viewBox="0 0 163.426 159.886" xmlns="http://www.w3.org/2000/svg"><g id="svgGroup" stroke-linecap="round" fill-rule="evenodd" font-size="9pt" stroke="#000" stroke-width="0.25mm" fill="none" style="stroke:#000;stroke-width:0.25mm;fill:none"><path d="M 0.004 8.967 L 7.764 157.043 A 3 3 0 0 0 11.014 159.876 L 76.706 154.311 A 3 3 0 0 1 76.959 154.3 L 86.412 154.3 A 3 3 0 0 1 86.619 154.307 L 152.457 158.878 A 3 3 0 0 0 155.661 156.042 L 163.422 7.959 A 3 3 0 0 0 160.62 4.809 L 86.613 0.006 A 3 3 0 0 0 86.418 0 L 76.95 0 A 3 3 0 0 0 76.715 0.009 L 2.765 5.82 A 3 3 0 0 0 0.004 8.967 Z M 93.504 65.945 L 112.551 66.278 L 112.883 47.231 L 93.836 46.898 L 93.504 65.945 Z M 93.871 44.898 L 112.918 45.231 L 113.251 26.184 L 94.204 25.851 L 93.871 44.898 Z M 50.818 66.627 L 69.865 66.295 L 69.532 47.248 L 50.485 47.58 L 50.818 66.627 Z M 50.45 45.581 L 69.497 45.248 L 69.165 26.201 L 50.118 26.533 L 50.45 45.581 Z M 92.034 150.132 L 111.081 150.465 L 111.414 131.418 L 92.367 131.085 L 92.034 150.132 Z M 92.402 129.086 L 111.449 129.418 L 111.781 110.371 L 92.734 110.038 L 92.402 129.086 Z M 92.769 108.039 L 111.816 108.371 L 112.149 89.324 L 93.101 88.992 L 92.769 108.039 Z M 93.136 86.992 L 112.183 87.324 L 112.516 68.277 L 93.469 67.945 L 93.136 86.992 Z M 52.287 150.815 L 71.334 150.482 L 71.002 131.435 L 51.955 131.767 L 52.287 150.815 Z M 51.92 129.768 L 70.967 129.435 L 70.635 110.388 L 51.587 110.721 L 51.92 129.768 Z M 51.553 108.721 L 70.6 108.388 L 70.267 89.341 L 51.22 89.674 L 51.553 108.721 Z M 51.185 87.674 L 70.232 87.342 L 69.9 68.295 L 50.853 68.627 L 51.185 87.674 Z M 72.149 149.3 L 91.199 149.3 L 91.199 130.25 L 72.149 130.25 L 72.149 149.3 Z M 72.149 128.25 L 91.199 128.25 L 91.199 109.2 L 72.149 109.2 L 72.149 128.25 Z M 72.149 107.2 L 91.199 107.2 L 91.199 88.15 L 72.149 88.15 L 72.149 107.2 Z M 72.149 86.15 L 91.199 86.15 L 91.199 67.1 L 72.149 67.1 L 72.149 86.15 Z M 72.149 65.1 L 91.199 65.1 L 91.199 46.05 L 72.149 46.05 L 72.149 65.1 Z M 72.149 44.05 L 91.199 44.05 L 91.199 25 L 72.149 25 L 72.149 44.05 Z M 9.353 91.819 L 28.377 90.822 L 27.38 71.798 L 8.356 72.795 L 9.353 91.819 Z M 7.15 49.777 L 26.174 48.78 L 25.177 29.756 L 6.153 30.753 L 7.15 49.777 Z M 135.051 89.774 L 154.075 90.771 L 155.072 71.747 L 136.048 70.75 L 135.051 89.774 Z M 137.254 47.732 L 156.278 48.729 L 157.275 29.705 L 138.251 28.708 L 137.254 47.732 Z M 12.658 154.882 L 31.682 153.885 L 30.685 134.861 L 11.661 135.858 L 12.658 154.882 Z M 11.556 133.861 L 30.58 132.864 L 29.583 113.84 L 10.559 114.837 L 11.556 133.861 Z M 10.455 112.84 L 29.479 111.843 L 28.482 92.819 L 9.458 93.816 L 10.455 112.84 Z M 8.251 70.798 L 27.275 69.801 L 26.278 50.777 L 7.254 51.774 L 8.251 70.798 Z M 131.746 152.837 L 150.77 153.834 L 151.767 134.81 L 132.743 133.813 L 131.746 152.837 Z M 132.848 131.816 L 151.872 132.813 L 152.869 113.789 L 133.845 112.792 L 132.848 131.816 Z M 133.949 110.795 L 152.973 111.792 L 153.97 92.768 L 134.946 91.771 L 133.949 110.795 Z M 136.153 68.753 L 155.177 69.75 L 156.174 50.726 L 137.15 49.729 L 136.153 68.753 Z M 32.455 152.676 L 51.493 152.011 L 50.828 132.972 L 31.79 133.637 L 32.455 152.676 Z M 30.986 110.601 L 50.024 109.936 L 49.359 90.898 L 30.321 91.563 L 30.986 110.601 Z M 112.637 130.274 L 131.675 130.939 L 132.34 111.901 L 113.301 111.236 L 112.637 130.274 Z M 31.72 131.638 L 50.759 130.973 L 50.094 111.935 L 31.055 112.6 L 31.72 131.638 Z M 29.516 68.527 L 48.555 67.862 L 47.89 48.824 L 28.852 49.488 L 29.516 68.527 Z M 28.782 47.49 L 47.82 46.825 L 47.155 27.786 L 28.117 28.451 L 28.782 47.49 Z M 114.106 88.2 L 133.144 88.865 L 133.809 69.826 L 114.771 69.162 L 114.106 88.2 Z M 30.251 89.564 L 49.289 88.899 L 48.625 69.861 L 29.586 70.526 L 30.251 89.564 Z M 111.902 151.312 L 130.94 151.976 L 131.605 132.938 L 112.567 132.273 L 111.902 151.312 Z M 113.371 109.237 L 132.41 109.902 L 133.074 90.864 L 114.036 90.199 L 113.371 109.237 Z M 114.84 67.163 L 133.879 67.828 L 134.544 48.789 L 115.505 48.124 L 114.84 67.163 Z M 115.575 46.126 L 134.614 46.79 L 135.278 27.752 L 116.24 27.087 L 115.575 46.126 Z" vector-effect="non-scaling-stroke"/></g></svg>