<svg width="169.197mm" height="173.095mm" viewBox="0 0 169.197 173.095" xmlns="http://www.w3.org/2000/svg"><g id="svgGroup" stroke-linecap="round" fill-rule="evenodd" font-size="9pt" stroke="#000" stroke-width="0.25mm" fill="none" style="stroke:#000;stroke-width:0.25mm;fill:none"><path d="M 2.342 8.814 L 0 170.306 A 2.75 2.75 0 0 0 2.992 173.085 L 79.595 166.307 A 2.75 2.75 0 0 1 79.838 166.296 L 89.296 166.296 A 2.75 2.75 0 0 1 89.503 166.304 L 166.24 172.08 A 2.75 2.75 0 0 0 169.196 169.298 L 166.854 7.766 A 2.75 2.75 0 0 0 164.248 5.059 L 152.36 4.436 A 2.75 2.75 0 0 1 152.263 4.429 L 129.55 2.434 A 2.75 2.75 0 0 0 129.482 2.429 L 107.071 1.019 A 2.75 2.75 0 0 0 107.024 1.016 L 84.704 0.003 A 2.75 2.75 0 0 0 84.412 0.005 L 62.113 1.366 A 2.75 2.75 0 0 0 62.065 1.369 L 39.681 3.128 A 2.75 2.75 0 0 0 39.614 3.134 L 16.953 5.475 A 2.75 2.75 0 0 1 16.815 5.485 L 4.948 6.107 A 2.75 2.75 0 0 0 2.342 8.814 Z M 124.463 152.133 L 143.467 153.462 L 144.795 134.458 L 125.792 133.129 L 124.463 152.133 Z M 25.729 154.51 L 44.733 153.181 L 43.404 134.177 L 24.401 135.506 L 25.729 154.51 Z M 96.388 65.941 L 115.435 66.274 L 115.767 47.227 L 96.72 46.894 L 96.388 65.941 Z M 96.755 44.895 L 115.802 45.227 L 116.135 26.18 L 97.088 25.847 L 96.755 44.895 Z M 53.702 66.624 L 72.749 66.291 L 72.416 47.244 L 53.369 47.576 L 53.702 66.624 Z M 53.334 45.577 L 72.382 45.244 L 72.049 26.197 L 53.002 26.53 L 53.334 45.577 Z M 94.918 150.129 L 113.965 150.461 L 114.298 131.414 L 95.251 131.081 L 94.918 150.129 Z M 95.286 129.082 L 114.333 129.414 L 114.665 110.367 L 95.618 110.035 L 95.286 129.082 Z M 95.653 108.035 L 114.7 108.367 L 115.033 89.32 L 95.986 88.988 L 95.653 108.035 Z M 96.02 86.988 L 115.068 87.321 L 115.4 68.273 L 96.353 67.941 L 96.02 86.988 Z M 55.171 150.811 L 74.218 150.478 L 73.886 131.431 L 54.839 131.764 L 55.171 150.811 Z M 54.804 129.764 L 73.851 129.431 L 73.519 110.384 L 54.471 110.717 L 54.804 129.764 Z M 54.437 108.717 L 73.484 108.385 L 73.151 89.338 L 54.104 89.67 L 54.437 108.717 Z M 54.069 87.67 L 73.116 87.338 L 72.784 68.291 L 53.737 68.623 L 54.069 87.67 Z M 75.033 149.296 L 94.083 149.296 L 94.083 130.246 L 75.033 130.246 L 75.033 149.296 Z M 75.033 128.246 L 94.083 128.246 L 94.083 109.196 L 75.033 109.196 L 75.033 128.246 Z M 75.033 107.196 L 94.083 107.196 L 94.083 88.146 L 75.033 88.146 L 75.033 107.196 Z M 75.033 86.146 L 94.083 86.146 L 94.083 67.096 L 75.033 67.096 L 75.033 86.146 Z M 75.033 65.096 L 94.083 65.096 L 94.083 46.046 L 75.033 46.046 L 75.033 65.096 Z M 75.033 44.046 L 94.083 44.046 L 94.083 24.996 L 75.033 24.996 L 75.033 44.046 Z M 11.881 92.012 L 30.905 91.015 L 29.908 71.991 L 10.884 72.988 L 11.881 92.012 Z M 9.678 49.97 L 28.702 48.973 L 27.705 29.949 L 8.681 30.946 L 9.678 49.97 Z M 138.291 89.967 L 157.315 90.964 L 158.312 71.94 L 139.288 70.943 L 138.291 89.967 Z M 140.494 47.925 L 159.518 48.922 L 160.515 29.898 L 141.491 28.901 L 140.494 47.925 Z M 14.084 134.054 L 33.108 133.057 L 32.111 114.034 L 13.087 115.031 L 14.084 134.054 Z M 12.983 113.033 L 32.007 112.036 L 31.01 93.012 L 11.986 94.009 L 12.983 113.033 Z M 10.779 70.991 L 29.803 69.994 L 28.806 50.97 L 9.782 51.967 L 10.779 70.991 Z M 136.088 132.009 L 155.112 133.006 L 156.109 113.983 L 137.085 112.986 L 136.088 132.009 Z M 137.189 110.988 L 156.213 111.985 L 157.21 92.961 L 138.186 91.964 L 137.189 110.988 Z M 139.393 68.946 L 158.417 69.943 L 159.414 50.919 L 140.39 49.922 L 139.393 68.946 Z M 33.87 110.597 L 52.908 109.933 L 52.243 90.894 L 33.205 91.559 L 33.87 110.597 Z M 115.521 130.271 L 134.559 130.935 L 135.224 111.897 L 116.185 111.232 L 115.521 130.271 Z M 34.604 131.635 L 53.643 130.97 L 52.978 111.931 L 33.939 112.596 L 34.604 131.635 Z M 32.4 68.523 L 51.439 67.858 L 50.774 48.82 L 31.736 49.485 L 32.4 68.523 Z M 31.666 47.486 L 50.704 46.821 L 50.039 27.783 L 31.001 28.447 L 31.666 47.486 Z M 116.99 88.196 L 136.028 88.861 L 136.693 69.823 L 117.655 69.158 L 116.99 88.196 Z M 33.135 89.56 L 52.173 88.895 L 51.509 69.857 L 32.47 70.522 L 33.135 89.56 Z M 116.255 109.233 L 135.294 109.898 L 135.958 90.86 L 116.92 90.195 L 116.255 109.233 Z M 117.724 67.159 L 136.763 67.824 L 137.428 48.785 L 118.389 48.121 L 117.724 67.159 Z M 118.459 46.122 L 137.498 46.787 L 138.162 27.748 L 119.124 27.083 L 118.459 46.122 Z" vector-effect="non-scaling-stroke"/></g></svg>