<svg width="164.115mm" height="160.28mm" viewBox="0 0 164.115 160.28" xmlns="http://www.w3.org/2000/svg"><g id="svgGroup" stroke-linecap="round" fill-rule="evenodd" font-size="9pt" stroke="#000" stroke-width="0.25mm" fill="none" style="stroke:#000;stroke-width:0.25mm;fill:none"><path d="M 0.005 9.169 L 8.375 157.449 A 3 3 0 0 0 11.643 160.268 L 77.041 154.312 A 3 3 0 0 1 77.313 154.3 L 86.747 154.3 A 3 3 0 0 1 86.973 154.309 L 152.517 159.271 A 3 3 0 0 0 155.739 156.448 L 164.11 8.161 A 3 3 0 0 0 161.316 4.999 L 86.961 0.007 A 3 3 0 0 0 86.76 0 L 77.298 0 A 3 3 0 0 0 77.056 0.01 L 2.759 6.01 A 3 3 0 0 0 0.005 9.169 Z M 121.924 152.137 L 140.927 153.465 L 142.256 134.462 L 123.252 133.133 L 121.924 152.137 Z M 23.19 154.513 L 42.194 153.185 L 40.865 134.181 L 21.861 135.51 L 23.19 154.513 Z M 93.848 65.945 L 112.895 66.278 L 113.228 47.231 L 94.181 46.898 L 93.848 65.945 Z M 94.216 44.898 L 113.263 45.231 L 113.595 26.184 L 94.548 25.851 L 94.216 44.898 Z M 51.162 66.627 L 70.209 66.295 L 69.877 47.248 L 50.83 47.58 L 51.162 66.627 Z M 50.795 45.581 L 69.842 45.248 L 69.51 26.201 L 50.463 26.533 L 50.795 45.581 Z M 92.379 150.132 L 111.426 150.465 L 111.758 131.418 L 92.711 131.085 L 92.379 150.132 Z M 92.746 129.086 L 111.793 129.418 L 112.126 110.371 L 93.079 110.038 L 92.746 129.086 Z M 93.114 108.039 L 112.161 108.371 L 112.493 89.324 L 93.446 88.992 L 93.114 108.039 Z M 93.481 86.992 L 112.528 87.324 L 112.861 68.277 L 93.813 67.945 L 93.481 86.992 Z M 52.632 150.815 L 71.679 150.482 L 71.346 131.435 L 52.299 131.767 L 52.632 150.815 Z M 52.264 129.768 L 71.312 129.435 L 70.979 110.388 L 51.932 110.721 L 52.264 129.768 Z M 51.897 108.721 L 70.944 108.388 L 70.612 89.341 L 51.565 89.674 L 51.897 108.721 Z M 51.53 87.674 L 70.577 87.342 L 70.244 68.295 L 51.197 68.627 L 51.53 87.674 Z M 72.494 149.3 L 91.544 149.3 L 91.544 130.25 L 72.494 130.25 L 72.494 149.3 Z M 72.494 128.25 L 91.544 128.25 L 91.544 109.2 L 72.494 109.2 L 72.494 128.25 Z M 72.494 107.2 L 91.544 107.2 L 91.544 88.15 L 72.494 88.15 L 72.494 107.2 Z M 72.494 86.15 L 91.544 86.15 L 91.544 67.1 L 72.494 67.1 L 72.494 86.15 Z M 72.494 65.1 L 91.544 65.1 L 91.544 46.05 L 72.494 46.05 L 72.494 65.1 Z M 72.494 44.05 L 91.544 44.05 L 91.544 25 L 72.494 25 L 72.494 44.05 Z M 9.342 92.016 L 28.366 91.019 L 27.369 71.995 L 8.345 72.992 L 9.342 92.016 Z M 7.138 49.974 L 26.162 48.977 L 25.165 29.953 L 6.141 30.95 L 7.138 49.974 Z M 135.752 89.971 L 154.776 90.968 L 155.773 71.944 L 136.749 70.947 L 135.752 89.971 Z M 137.955 47.929 L 156.979 48.926 L 157.976 29.902 L 138.952 28.905 L 137.955 47.929 Z M 11.545 134.058 L 30.569 133.061 L 29.572 114.037 L 10.548 115.034 L 11.545 134.058 Z M 10.443 113.037 L 29.467 112.04 L 28.47 93.016 L 9.446 94.013 L 10.443 113.037 Z M 8.24 70.995 L 27.264 69.998 L 26.267 50.974 L 7.243 51.971 L 8.24 70.995 Z M 133.548 132.013 L 152.572 133.01 L 153.569 113.986 L 134.545 112.989 L 133.548 132.013 Z M 134.65 110.992 L 153.674 111.989 L 154.671 92.965 L 135.647 91.968 L 134.65 110.992 Z M 136.853 68.95 L 155.877 69.947 L 156.874 50.923 L 137.85 49.926 L 136.853 68.95 Z M 31.33 110.601 L 50.369 109.936 L 49.704 90.898 L 30.665 91.563 L 31.33 110.601 Z M 112.981 130.274 L 132.02 130.939 L 132.684 111.901 L 113.646 111.236 L 112.981 130.274 Z M 32.065 131.638 L 51.103 130.973 L 50.438 111.935 L 31.4 112.6 L 32.065 131.638 Z M 29.861 68.527 L 48.899 67.862 L 48.235 48.824 L 29.196 49.488 L 29.861 68.527 Z M 29.126 47.49 L 48.165 46.825 L 47.5 27.786 L 28.461 28.451 L 29.126 47.49 Z M 114.45 88.2 L 133.489 88.865 L 134.154 69.826 L 115.115 69.162 L 114.45 88.2 Z M 30.596 89.564 L 49.634 88.899 L 48.969 69.861 L 29.931 70.526 L 30.596 89.564 Z M 113.716 109.237 L 132.754 109.902 L 133.419 90.864 L 114.381 90.199 L 113.716 109.237 Z M 115.185 67.163 L 134.223 67.828 L 134.888 48.789 L 115.85 48.124 L 115.185 67.163 Z M 115.92 46.126 L 134.958 46.79 L 135.623 27.752 L 116.585 27.087 L 115.92 46.126 Z" vector-effect="non-scaling-stroke"/></g></svg>