<svg width="167.165mm" height="170.913mm" viewBox="0 0 167.165 170.913" xmlns="http://www.w3.org/2000/svg"><g id="svgGroup" stroke-linecap="round" fill-rule="evenodd" font-size="9pt" stroke="#000" stroke-width="0.25mm" fill="none" style="stroke:#000;stroke-width:0.25mm;fill:none"><path d="M 0.007 133.008 L 2.593 168.364 A 2.75 2.75 0 0 0 5.508 170.908 L 78.615 166.302 A 2.75 2.75 0 0 1 78.788 166.296 L 88.317 166.296 A 2.75 2.75 0 0 1 88.452 166.3 L 161.692 169.899 A 2.75 2.75 0 0 0 164.57 167.353 L 167.158 131.96 A 2.75 2.75 0 0 0 167.033 130.919 L 160.464 110.468 A 2.75 2.75 0 0 1 160.336 109.483 L 165.657 7.94 A 2.75 2.75 0 0 0 163.055 5.05 L 151.345 4.436 A 2.75 2.75 0 0 1 151.248 4.429 L 128.534 2.434 A 2.75 2.75 0 0 0 128.466 2.429 L 106.056 1.019 A 2.75 2.75 0 0 0 106.008 1.016 L 83.689 0.003 A 2.75 2.75 0 0 0 83.397 0.005 L 61.098 1.366 A 2.75 2.75 0 0 0 61.05 1.369 L 38.666 3.128 A 2.75 2.75 0 0 0 38.599 3.134 L 15.938 5.475 A 2.75 2.75 0 0 1 15.799 5.485 L 4.11 6.098 A 2.75 2.75 0 0 0 1.508 8.988 L 6.829 110.531 A 2.75 2.75 0 0 1 6.701 111.516 L 0.132 131.967 A 2.75 2.75 0 0 0 0.007 133.008 Z M 123.448 152.133 L 142.451 153.462 L 143.78 134.458 L 124.776 133.129 L 123.448 152.133 Z M 24.714 154.51 L 43.718 153.181 L 42.389 134.177 L 23.385 135.506 L 24.714 154.51 Z M 95.372 65.941 L 114.419 66.274 L 114.752 47.227 L 95.705 46.894 L 95.372 65.941 Z M 95.74 44.895 L 114.787 45.227 L 115.119 26.18 L 96.072 25.847 L 95.74 44.895 Z M 52.686 66.624 L 71.733 66.291 L 71.401 47.244 L 52.354 47.576 L 52.686 66.624 Z M 52.319 45.577 L 71.366 45.244 L 71.034 26.197 L 51.987 26.53 L 52.319 45.577 Z M 93.903 150.129 L 112.95 150.461 L 113.282 131.414 L 94.235 131.081 L 93.903 150.129 Z M 94.27 129.082 L 113.317 129.414 L 113.65 110.367 L 94.603 110.035 L 94.27 129.082 Z M 94.638 108.035 L 113.685 108.367 L 114.017 89.32 L 94.97 88.988 L 94.638 108.035 Z M 95.005 86.988 L 114.052 87.321 L 114.385 68.273 L 95.337 67.941 L 95.005 86.988 Z M 54.156 150.811 L 73.203 150.478 L 72.87 131.431 L 53.823 131.764 L 54.156 150.811 Z M 53.788 129.764 L 72.836 129.431 L 72.503 110.384 L 53.456 110.717 L 53.788 129.764 Z M 53.421 108.717 L 72.468 108.385 L 72.136 89.338 L 53.089 89.67 L 53.421 108.717 Z M 53.054 87.67 L 72.101 87.338 L 71.768 68.291 L 52.721 68.623 L 53.054 87.67 Z M 74.018 149.296 L 93.068 149.296 L 93.068 130.246 L 74.018 130.246 L 74.018 149.296 Z M 74.018 128.246 L 93.068 128.246 L 93.068 109.196 L 74.018 109.196 L 74.018 128.246 Z M 74.018 107.196 L 93.068 107.196 L 93.068 88.146 L 74.018 88.146 L 74.018 107.196 Z M 74.018 86.146 L 93.068 86.146 L 93.068 67.096 L 74.018 67.096 L 74.018 86.146 Z M 74.018 65.096 L 93.068 65.096 L 93.068 46.046 L 74.018 46.046 L 74.018 65.096 Z M 74.018 44.046 L 93.068 44.046 L 93.068 24.996 L 74.018 24.996 L 74.018 44.046 Z M 10.866 92.012 L 29.889 91.015 L 28.892 71.991 L 9.869 72.988 L 10.866 92.012 Z M 8.662 49.97 L 27.686 48.973 L 26.689 29.949 L 7.665 30.946 L 8.662 49.97 Z M 137.276 89.967 L 156.3 90.964 L 157.297 71.94 L 138.273 70.943 L 137.276 89.967 Z M 139.479 47.925 L 158.503 48.922 L 159.5 29.898 L 140.476 28.901 L 139.479 47.925 Z M 13.069 134.054 L 32.093 133.057 L 31.096 114.034 L 12.072 115.031 L 13.069 134.054 Z M 11.967 113.033 L 30.991 112.036 L 29.994 93.012 L 10.97 94.009 L 11.967 113.033 Z M 9.764 70.991 L 28.788 69.994 L 27.791 50.97 L 8.767 51.967 L 9.764 70.991 Z M 135.072 132.009 L 154.096 133.006 L 155.093 113.983 L 136.069 112.986 L 135.072 132.009 Z M 136.174 110.988 L 155.198 111.985 L 156.195 92.961 L 137.171 91.964 L 136.174 110.988 Z M 138.377 68.946 L 157.401 69.943 L 158.398 50.919 L 139.374 49.922 L 138.377 68.946 Z M 32.854 110.597 L 51.893 109.933 L 51.228 90.894 L 32.189 91.559 L 32.854 110.597 Z M 114.505 130.271 L 133.544 130.935 L 134.208 111.897 L 115.17 111.232 L 114.505 130.271 Z M 33.589 131.635 L 52.627 130.97 L 51.962 111.931 L 32.924 112.596 L 33.589 131.635 Z M 31.385 68.523 L 50.423 67.858 L 49.759 48.82 L 30.72 49.485 L 31.385 68.523 Z M 30.65 47.486 L 49.689 46.821 L 49.024 27.783 L 29.985 28.447 L 30.65 47.486 Z M 115.974 88.196 L 135.013 88.861 L 135.678 69.823 L 116.639 69.158 L 115.974 88.196 Z M 32.12 89.56 L 51.158 88.895 L 50.493 69.857 L 31.455 70.522 L 32.12 89.56 Z M 115.24 109.233 L 134.278 109.898 L 134.943 90.86 L 115.905 90.195 L 115.24 109.233 Z M 116.709 67.159 L 135.747 67.824 L 136.412 48.785 L 117.374 48.121 L 116.709 67.159 Z M 117.444 46.122 L 136.482 46.787 L 137.147 27.748 L 118.109 27.083 L 117.444 46.122 Z" vector-effect="non-scaling-stroke"/></g></svg>