0
SECTION
2
HEADER
9
$INSUNITS
70
4
0
ENDSEC
0
SECTION
2
TABLES
0
TABLE
2
LTYPE
0
LTYPE
72
65
70
0
2
CONTINUOUS
3
______
73
0
40
0
0
LTYPE
72
65
70
0
2
DASHED
3
_ _ _ 
73
2
40
7.5
49
5
49
-2.5
0
LTYPE
72
65
70
0
2
DOTTED
3
. . . 
73
2
40
1.5
49
0.5
49
-1
0
ENDTAB
0
TABLE
2
LAYER
0
ENDTAB
0
ENDSEC
0
SECTION
2
ENTITIES
0
ARC
8
0
6
CONTINUOUS
10
113.5988822
20
-519.6807142
40
464.5664942
50
82.0883718
51
98.793599
0
ARC
8
0
6
CONTINUOUS
10
115.4723915
20
-885.7239952
40
664.3183738
50
85.1166111
51
95.8203748
0
LINE
8
0
6
CONTINUOUS
10
42.0753816
20
-60.6269028
11
32.8167747
21
-61.1121258
0
LINE
8
0
6
CONTINUOUS
10
177.9709487
20
-59.5769136
11
187.2681724
21
-60.0641605
0
LINE
8
0
6
CONTINUOUS
10
191.9996401
20
-65.3189882
11
186.8173643
21
-164.2026998
0
LINE
8
0
6
CONTINUOUS
10
187.0501097
20
-165.9936183
11
193.358108
21
-185.6299353
0
LINE
8
0
6
CONTINUOUS
10
193.5837231
20
-187.5328468
11
191.9855799
21
-208.8572814
0
LINE
8
0
6
CONTINUOUS
10
189.8981837
20
-212.5576721
11
175.3487879
21
-222.9092987
0
LINE
8
0
6
CONTINUOUS
10
44.6981421
20
-223.9302156
11
30.1867634
21
-213.6056374
0
LINE
8
0
6
CONTINUOUS
10
28.0993672
20
-209.9052467
11
26.501224
21
-188.5808121
0
LINE
8
0
6
CONTINUOUS
10
26.7268391
20
-186.6779006
11
33.0348374
21
-167.0415836
0
LINE
8
0
6
CONTINUOUS
10
33.2675828
20
-165.2506651
11
28.085307
21
-66.3669535
0
ARC
8
0
6
CONTINUOUS
10
41.8137016
20
-55.633755
40
5
50
273.0000026
51
278.793599
0
ARC
8
0
6
CONTINUOUS
10
33.0784547
20
-66.1052735
40
5
50
93.0000026
51
183.0000026
0
ARC
8
0
6
CONTINUOUS
10
28.2744351
20
-165.5123451
40
5
50
342.19083
51
3.0000026
0
ARC
8
0
6
CONTINUOUS
10
31.4872413
20
-188.2071391
40
5
50
162.19083
51
184.285973
0
ARC
8
0
6
CONTINUOUS
10
33.0853845
20
-209.5315737
40
5
50
184.285973
51
234.568851
0
ARC
8
0
6
CONTINUOUS
10
47.5967632
20
-219.856152
40
5
50
234.568851
51
275.8203748
0
ARC
8
0
6
CONTINUOUS
10
172.4501667
20
-218.8352349
40
5
50
265.1166111
51
305.431149
0
ARC
8
0
6
CONTINUOUS
10
186.9995626
20
-208.4836084
40
5
50
305.431149
51
355.714027
0
ARC
8
0
6
CONTINUOUS
10
188.5977058
20
-187.1591738
40
5
50
355.714027
51
17.80917
0
ARC
8
0
6
CONTINUOUS
10
191.810512
20
-164.4643798
40
5
50
176.9999974
51
197.80917
0
ARC
8
0
6
CONTINUOUS
10
187.0064924
20
-65.0573082
40
5
50
356.9999974
51
86.9999974
0
ARC
8
0
6
CONTINUOUS
10
178.2326288
20
-54.5837659
40
5
50
262.0883718
51
266.9999974
0
CIRCLE
8
0
6
CONTINUOUS
10
31.2392651
20
-64.4492597
40
1.5
0
CIRCLE
8
0
6
CONTINUOUS
10
110.0025666
20
-64.6281403
40
1.5
0
CIRCLE
8
0
6
CONTINUOUS
10
188.5850638
20
-73.1510164
40
1.5
0
CIRCLE
8
0
6
CONTINUOUS
10
181.7874944
20
-214.7568231
40
1.5
0
CIRCLE
8
0
6
CONTINUOUS
10
110.0025666
20
-213.0593903
40
1.5
0
CIRCLE
8
0
6
CONTINUOUS
10
38.2974527
20
-215.8047884
40
1.5
0
ENDSEC
0
EOF