0
SECTION
2
HEADER
9
$INSUNITS
70
4
0
ENDSEC
0
SECTION
2
TABLES
0
TABLE
2
LTYPE
0
LTYPE
72
65
70
64
2
CONTINUOUS
3
______
73
0
40
0
0
ENDTAB
0
TABLE
2
LAYER
0
ENDTAB
0
ENDSEC
0
SECTION
2
ENTITIES
0
LINE
8
0
10
40.9865537
20
-210.0104463
11
60.0104463
21
-209.0134463
0
LINE
8
0
10
60.0104463
20
-209.0134463
11
59.0134463
21
-189.9895537
0
LINE
8
0
10
59.0134463
20
-189.9895537
11
39.9895537
21
-190.9865537
0
LINE
8
0
10
39.9895537
20
-190.9865537
11
40.9865537
21
-210.0104463
0
LINE
8
0
10
39.8848818
20
-188.9892946
11
58.9087744
21
-187.9922946
0
LINE
8
0
10
58.9087744
20
-187.9922946
11
57.9117744
21
-168.968402
0
LINE
8
0
10
57.9117744
20
-168.968402
11
38.8878818
21
-169.965402
0
LINE
8
0
10
38.8878818
20
-169.965402
11
39.8848818
21
-188.9892946
0
LINE
8
0
10
38.7832099
20
-167.9681429
11
57.8071025
21
-166.9711429
0
LINE
8
0
10
57.8071025
20
-166.9711429
11
56.8101025
21
-147.9472503
0
LINE
8
0
10
56.8101025
20
-147.9472503
11
37.7862099
21
-148.9442503
0
LINE
8
0
10
37.7862099
20
-148.9442503
11
38.7832099
21
-167.9681429
0
LINE
8
0
10
37.681538
20
-146.9469912
11
56.7054306
21
-145.9499912
0
LINE
8
0
10
56.7054306
20
-145.9499912
11
55.7084306
21
-126.9260986
0
LINE
8
0
10
55.7084306
20
-126.9260986
11
36.684538
21
-127.9230986
0
LINE
8
0
10
36.684538
20
-127.9230986
11
37.681538
21
-146.9469912
0
LINE
8
0
10
36.5798661
20
-125.9258395
11
55.6037587
21
-124.9288395
0
LINE
8
0
10
55.6037587
20
-124.9288395
11
54.6067587
21
-105.9049469
0
LINE
8
0
10
54.6067587
20
-105.9049469
11
35.5828661
21
-106.9019469
0
LINE
8
0
10
35.5828661
20
-106.9019469
11
36.5798661
21
-125.9258395
0
LINE
8
0
10
35.4781942
20
-104.9046878
11
54.5020868
21
-103.9076878
0
LINE
8
0
10
54.5020868
20
-103.9076878
11
53.5050868
21
-84.8837952
0
LINE
8
0
10
53.5050868
20
-84.8837952
11
34.4811942
21
-85.8807952
0
LINE
8
0
10
34.4811942
20
-85.8807952
11
35.4781942
21
-104.9046878
0
LINE
8
0
10
60.7834063
20
-207.8036498
11
79.8218015
21
-207.1388144
0
LINE
8
0
10
79.8218015
20
-207.1388144
11
79.1569661
21
-188.1004192
0
LINE
8
0
10
79.1569661
20
-188.1004192
11
60.1185709
21
-188.7652546
0
LINE
8
0
10
60.1185709
20
-188.7652546
11
60.7834063
21
-207.8036498
0
LINE
8
0
10
60.0487719
20
-186.7664729
11
79.0871671
21
-186.1016375
0
LINE
8
0
10
79.0871671
20
-186.1016375
11
78.4223317
21
-167.0632423
0
LINE
8
0
10
78.4223317
20
-167.0632423
11
59.3839365
21
-167.7280777
0
LINE
8
0
10
59.3839365
20
-167.7280777
11
60.0487719
21
-186.7664729
0
LINE
8
0
10
59.3141375
20
-165.729296
11
78.3525327
21
-165.0644606
0
LINE
8
0
10
78.3525327
20
-165.0644606
11
77.6876973
21
-146.0260654
0
LINE
8
0
10
77.6876973
20
-146.0260654
11
58.6493021
21
-146.6909008
0
LINE
8
0
10
58.6493021
20
-146.6909008
11
59.3141375
21
-165.729296
0
LINE
8
0
10
58.5795031
20
-144.6921191
11
77.6178983
21
-144.0272837
0
LINE
8
0
10
77.6178983
20
-144.0272837
11
76.9530629
21
-124.9888885
0
LINE
8
0
10
76.9530629
20
-124.9888885
11
57.9146677
21
-125.6537239
0
LINE
8
0
10
57.9146677
20
-125.6537239
11
58.5795031
21
-144.6921191
0
LINE
8
0
10
57.8448687
20
-123.6549422
11
76.8832639
21
-122.9901068
0
LINE
8
0
10
76.8832639
20
-122.9901068
11
76.2184285
21
-103.9517116
0
LINE
8
0
10
76.2184285
20
-103.9517116
11
57.1800333
21
-104.616547
0
LINE
8
0
10
57.1800333
20
-104.616547
11
57.8448687
21
-123.6549422
0
LINE
8
0
10
57.1102343
20
-102.6177653
11
76.1486295
21
-101.9529299
0
LINE
8
0
10
76.1486295
20
-101.9529299
11
75.4837941
21
-82.9145347
0
LINE
8
0
10
75.4837941
20
-82.9145347
11
56.4453989
21
-83.5793701
0
LINE
8
0
10
56.4453989
20
-83.5793701
11
57.1102343
21
-102.6177653
0
LINE
8
0
10
80.6157577
20
-205.9426923
11
99.6628563
21
-205.6102239
0
LINE
8
0
10
99.6628563
20
-205.6102239
11
99.3303879
21
-186.5631253
0
LINE
8
0
10
99.3303879
20
-186.5631253
11
80.2832893
21
-186.8955937
0
LINE
8
0
10
80.2832893
20
-186.8955937
11
80.6157577
21
-205.9426923
0
LINE
8
0
10
80.2483845
20
-184.8958983
11
99.2954831
21
-184.5634299
0
LINE
8
0
10
99.2954831
20
-184.5634299
11
98.9630147
21
-165.5163313
0
LINE
8
0
10
98.9630147
20
-165.5163313
11
79.9159161
21
-165.8487997
0
LINE
8
0
10
79.9159161
20
-165.8487997
11
80.2483845
21
-184.8958983
0
LINE
8
0
10
79.8810113
20
-163.8491043
11
98.9281099
21
-163.5166359
0
LINE
8
0
10
98.9281099
20
-163.5166359
11
98.5956415
21
-144.4695373
0
LINE
8
0
10
98.5956415
20
-144.4695373
11
79.5485429
21
-144.8020057
0
LINE
8
0
10
79.5485429
20
-144.8020057
11
79.8810113
21
-163.8491043
0
LINE
8
0
10
79.5136381
20
-142.8023103
11
98.5607367
21
-142.4698419
0
LINE
8
0
10
98.5607367
20
-142.4698419
11
98.2282683
21
-123.4227433
0
LINE
8
0
10
98.2282683
20
-123.4227433
11
79.1811697
21
-123.7552117
0
LINE
8
0
10
79.1811697
20
-123.7552117
11
79.5136381
21
-142.8023103
0
LINE
8
0
10
79.1462649
20
-121.7555163
11
98.1933635
21
-121.4230479
0
LINE
8
0
10
98.1933635
20
-121.4230479
11
97.8608951
21
-102.3759493
0
LINE
8
0
10
97.8608951
20
-102.3759493
11
78.8137965
21
-102.7084177
0
LINE
8
0
10
78.8137965
20
-102.7084177
11
79.1462649
21
-121.7555163
0
LINE
8
0
10
78.7788917
20
-100.7087223
11
97.8259903
21
-100.3762539
0
LINE
8
0
10
97.8259903
20
-100.3762539
11
97.4935219
21
-81.3291553
0
LINE
8
0
10
97.4935219
20
-81.3291553
11
78.4464233
21
-81.6616237
0
LINE
8
0
10
78.4464233
20
-81.6616237
11
78.7788917
21
-100.7087223
0
LINE
8
0
10
100.4775666
20
-204.4281403
11
119.5275666
21
-204.4281403
0
LINE
8
0
10
119.5275666
20
-204.4281403
11
119.5275666
21
-185.3781403
0
LINE
8
0
10
119.5275666
20
-185.3781403
11
100.4775666
21
-185.3781403
0
LINE
8
0
10
100.4775666
20
-185.3781403
11
100.4775666
21
-204.4281403
0
LINE
8
0
10
100.4775666
20
-183.3781403
11
119.5275666
21
-183.3781403
0
LINE
8
0
10
119.5275666
20
-183.3781403
11
119.5275666
21
-164.3281403
0
LINE
8
0
10
119.5275666
20
-164.3281403
11
100.4775666
21
-164.3281403
0
LINE
8
0
10
100.4775666
20
-164.3281403
11
100.4775666
21
-183.3781403
0
LINE
8
0
10
100.4775666
20
-162.3281403
11
119.5275666
21
-162.3281403
0
LINE
8
0
10
119.5275666
20
-162.3281403
11
119.5275666
21
-143.2781403
0
LINE
8
0
10
119.5275666
20
-143.2781403
11
100.4775666
21
-143.2781403
0
LINE
8
0
10
100.4775666
20
-143.2781403
11
100.4775666
21
-162.3281403
0
LINE
8
0
10
100.4775666
20
-141.2781403
11
119.5275666
21
-141.2781403
0
LINE
8
0
10
119.5275666
20
-141.2781403
11
119.5275666
21
-122.2281403
0
LINE
8
0
10
119.5275666
20
-122.2281403
11
100.4775666
21
-122.2281403
0
LINE
8
0
10
100.4775666
20
-122.2281403
11
100.4775666
21
-141.2781403
0
LINE
8
0
10
100.4775666
20
-120.2281403
11
119.5275666
21
-120.2281403
0
LINE
8
0
10
119.5275666
20
-120.2281403
11
119.5275666
21
-101.1781403
0
LINE
8
0
10
119.5275666
20
-101.1781403
11
100.4775666
21
-101.1781403
0
LINE
8
0
10
100.4775666
20
-101.1781403
11
100.4775666
21
-120.2281403
0
LINE
8
0
10
100.4775666
20
-99.1781403
11
119.5275666
21
-99.1781403
0
LINE
8
0
10
119.5275666
20
-99.1781403
11
119.5275666
21
-80.1281403
0
LINE
8
0
10
119.5275666
20
-80.1281403
11
100.4775666
21
-80.1281403
0
LINE
8
0
10
100.4775666
20
-80.1281403
11
100.4775666
21
-99.1781403
0
LINE
8
0
10
120.3627832
20
-205.2604554
11
139.4098818
21
-205.5929238
0
LINE
8
0
10
139.4098818
20
-205.5929238
11
139.7423502
21
-186.5458252
0
LINE
8
0
10
139.7423502
20
-186.5458252
11
120.6952516
21
-186.2133568
0
LINE
8
0
10
120.6952516
20
-186.2133568
11
120.3627832
21
-205.2604554
0
LINE
8
0
10
120.7301564
20
-184.2136614
11
139.777255
21
-184.5461298
0
LINE
8
0
10
139.777255
20
-184.5461298
11
140.1097234
21
-165.4990312
0
LINE
8
0
10
140.1097234
20
-165.4990312
11
121.0626248
21
-165.1665628
0
LINE
8
0
10
121.0626248
20
-165.1665628
11
120.7301564
21
-184.2136614
0
LINE
8
0
10
121.0975296
20
-163.1668674
11
140.1446282
21
-163.4993358
0
LINE
8
0
10
140.1446282
20
-163.4993358
11
140.4770966
21
-144.4522372
0
LINE
8
0
10
140.4770966
20
-144.4522372
11
121.429998
21
-144.1197688
0
LINE
8
0
10
121.429998
20
-144.1197688
11
121.0975296
21
-163.1668674
0
LINE
8
0
10
121.4649028
20
-142.1200734
11
140.5120014
21
-142.4525418
0
LINE
8
0
10
140.5120014
20
-142.4525418
11
140.8444698
21
-123.4054432
0
LINE
8
0
10
140.8444698
20
-123.4054432
11
121.7973712
21
-123.0729748
0
LINE
8
0
10
121.7973712
20
-123.0729748
11
121.4649028
21
-142.1200734
0
LINE
8
0
10
121.832276
20
-121.0732794
11
140.8793746
21
-121.4057478
0
LINE
8
0
10
140.8793746
20
-121.4057478
11
141.211843
21
-102.3586492
0
LINE
8
0
10
141.211843
20
-102.3586492
11
122.1647444
21
-102.0261808
0
LINE
8
0
10
122.1647444
20
-102.0261808
11
121.832276
21
-121.0732794
0
LINE
8
0
10
122.1996492
20
-100.0264854
11
141.2467478
21
-100.3589538
0
LINE
8
0
10
141.2467478
20
-100.3589538
11
141.5792162
21
-81.3118552
0
LINE
8
0
10
141.5792162
20
-81.3118552
11
122.5321176
21
-80.9793868
0
LINE
8
0
10
122.5321176
20
-80.9793868
11
122.1996492
21
-100.0264854
0
LINE
8
0
10
140.2304452
20
-206.4396887
11
159.2688404
21
-207.1045241
0
LINE
8
0
10
159.2688404
20
-207.1045241
11
159.9336758
21
-188.0661289
0
LINE
8
0
10
159.9336758
20
-188.0661289
11
140.8952806
21
-187.4012935
0
LINE
8
0
10
140.8952806
20
-187.4012935
11
140.2304452
21
-206.4396887
0
LINE
8
0
10
140.9650796
20
-185.4025118
11
160.0034748
21
-186.0673472
0
LINE
8
0
10
160.0034748
20
-186.0673472
11
160.6683102
21
-167.028952
0
LINE
8
0
10
160.6683102
20
-167.028952
11
141.629915
21
-166.3641166
0
LINE
8
0
10
141.629915
20
-166.3641166
11
140.9650796
21
-185.4025118
0
LINE
8
0
10
141.699714
20
-164.3653349
11
160.7381092
21
-165.0301703
0
LINE
8
0
10
160.7381092
20
-165.0301703
11
161.4029446
21
-145.9917751
0
LINE
8
0
10
161.4029446
20
-145.9917751
11
142.3645494
21
-145.3269397
0
LINE
8
0
10
142.3645494
20
-145.3269397
11
141.699714
21
-164.3653349
0
LINE
8
0
10
142.4343484
20
-143.328158
11
161.4727436
21
-143.9929934
0
LINE
8
0
10
161.4727436
20
-143.9929934
11
162.137579
21
-124.9545982
0
LINE
8
0
10
162.137579
20
-124.9545982
11
143.0991838
21
-124.2897628
0
LINE
8
0
10
143.0991838
20
-124.2897628
11
142.4343484
21
-143.328158
0
LINE
8
0
10
143.1689828
20
-122.2909811
11
162.207378
21
-122.9558165
0
LINE
8
0
10
162.207378
20
-122.9558165
11
162.8722134
21
-103.9174213
0
LINE
8
0
10
162.8722134
20
-103.9174213
11
143.8338182
21
-103.2525859
0
LINE
8
0
10
143.8338182
20
-103.2525859
11
143.1689828
21
-122.2909811
0
LINE
8
0
10
143.9036172
20
-101.2538042
11
162.9420124
21
-101.9186396
0
LINE
8
0
10
162.9420124
20
-101.9186396
11
163.6068478
21
-82.8802444
0
LINE
8
0
10
163.6068478
20
-82.8802444
11
144.5684526
21
-82.215409
0
LINE
8
0
10
144.5684526
20
-82.215409
11
143.9036172
21
-101.2538042
0
LINE
8
0
10
160.0745008
20
-207.965481
11
179.0983934
21
-208.962481
0
LINE
8
0
10
179.0983934
20
-208.962481
11
180.0953934
21
-189.9385884
0
LINE
8
0
10
180.0953934
20
-189.9385884
11
161.0715008
21
-188.9415884
0
LINE
8
0
10
161.0715008
20
-188.9415884
11
160.0745008
21
-207.965481
0
LINE
8
0
10
161.1761727
20
-186.9443293
11
180.2000653
21
-187.9413293
0
LINE
8
0
10
180.2000653
20
-187.9413293
11
181.1970653
21
-168.9174367
0
LINE
8
0
10
181.1970653
20
-168.9174367
11
162.1731727
21
-167.9204367
0
LINE
8
0
10
162.1731727
20
-167.9204367
11
161.1761727
21
-186.9443293
0
LINE
8
0
10
162.2778446
20
-165.9231776
11
181.3017372
21
-166.9201776
0
LINE
8
0
10
181.3017372
20
-166.9201776
11
182.2987372
21
-147.896285
0
LINE
8
0
10
182.2987372
20
-147.896285
11
163.2748446
21
-146.899285
0
LINE
8
0
10
163.2748446
20
-146.899285
11
162.2778446
21
-165.9231776
0
LINE
8
0
10
163.3795165
20
-144.9020259
11
182.4034091
21
-145.8990259
0
LINE
8
0
10
182.4034091
20
-145.8990259
11
183.4004091
21
-126.8751333
0
LINE
8
0
10
183.4004091
20
-126.8751333
11
164.3765165
21
-125.8781333
0
LINE
8
0
10
164.3765165
20
-125.8781333
11
163.3795165
21
-144.9020259
0
LINE
8
0
10
164.4811884
20
-123.8808742
11
183.505081
21
-124.8778742
0
LINE
8
0
10
183.505081
20
-124.8778742
11
184.502081
21
-105.8539816
0
LINE
8
0
10
184.502081
20
-105.8539816
11
165.4781884
21
-104.8569816
0
LINE
8
0
10
165.4781884
20
-104.8569816
11
164.4811884
21
-123.8808742
0
LINE
8
0
10
165.5828603
20
-102.8597225
11
184.6067529
21
-103.8567225
0
LINE
8
0
10
184.6067529
20
-103.8567225
11
185.6037529
21
-84.8328299
0
LINE
8
0
10
185.6037529
20
-84.8328299
11
166.5798603
21
-83.8358299
0
LINE
8
0
10
166.5798603
20
-83.8358299
11
165.5828603
21
-102.8597225
0
ENDSEC
0
EOF