<svg width="151.123mm" height="129.882mm" viewBox="0 0 151.123 129.882" xmlns="http://www.w3.org/2000/svg"><g id="svgGroup" stroke-linecap="round" fill-rule="evenodd" font-size="9pt" stroke="#000" stroke-width="0.25mm" fill="none" style="stroke:#000;stroke-width:0.25mm;fill:none"><path d="M 87.351 40.945 L 106.398 41.278 L 106.731 22.231 L 87.684 21.898 L 87.351 40.945 Z M 87.718 19.898 L 106.766 20.231 L 107.098 1.184 L 88.051 0.851 L 87.718 19.898 Z M 44.665 41.627 L 63.712 41.295 L 63.38 22.248 L 44.333 22.58 L 44.665 41.627 Z M 44.298 20.581 L 63.345 20.248 L 63.012 1.201 L 43.965 1.533 L 44.298 20.581 Z M 85.882 125.132 L 104.929 125.465 L 105.261 106.418 L 86.214 106.085 L 85.882 125.132 Z M 86.249 104.086 L 105.296 104.418 L 105.629 85.371 L 86.581 85.038 L 86.249 104.086 Z M 86.616 83.039 L 105.663 83.371 L 105.996 64.324 L 86.949 63.992 L 86.616 83.039 Z M 86.984 61.992 L 106.031 62.324 L 106.363 43.277 L 87.316 42.945 L 86.984 61.992 Z M 46.135 125.815 L 65.182 125.482 L 64.849 106.435 L 45.802 106.767 L 46.135 125.815 Z M 45.767 104.768 L 64.814 104.435 L 64.482 85.388 L 45.435 85.721 L 45.767 104.768 Z M 45.4 83.721 L 64.447 83.388 L 64.114 64.341 L 45.067 64.674 L 45.4 83.721 Z M 45.032 62.674 L 64.08 62.342 L 63.747 43.295 L 44.7 43.627 L 45.032 62.674 Z M 65.996 124.3 L 85.046 124.3 L 85.046 105.25 L 65.996 105.25 L 65.996 124.3 Z M 65.996 103.25 L 85.046 103.25 L 85.046 84.2 L 65.996 84.2 L 65.996 103.25 Z M 65.996 82.2 L 85.046 82.2 L 85.046 63.15 L 65.996 63.15 L 65.996 82.2 Z M 65.996 61.15 L 85.046 61.15 L 85.046 42.1 L 65.996 42.1 L 65.996 61.15 Z M 65.996 40.1 L 85.046 40.1 L 85.046 21.05 L 65.996 21.05 L 65.996 40.1 Z M 65.996 19.05 L 85.046 19.05 L 85.046 0 L 65.996 0 L 65.996 19.05 Z M 3.2 66.819 L 22.224 65.822 L 21.227 46.798 L 2.203 47.795 L 3.2 66.819 Z M 0.997 24.777 L 20.021 23.78 L 19.024 4.756 L 0 5.753 L 0.997 24.777 Z M 128.898 64.774 L 147.922 65.771 L 148.919 46.747 L 129.895 45.75 L 128.898 64.774 Z M 131.102 22.732 L 150.126 23.729 L 151.123 4.705 L 132.099 3.708 L 131.102 22.732 Z M 6.505 129.882 L 25.529 128.885 L 24.532 109.861 L 5.508 110.858 L 6.505 129.882 Z M 5.404 108.861 L 24.428 107.864 L 23.431 88.84 L 4.407 89.837 L 5.404 108.861 Z M 4.302 87.84 L 23.326 86.843 L 22.329 67.819 L 3.305 68.816 L 4.302 87.84 Z M 2.099 45.798 L 21.123 44.801 L 20.126 25.777 L 1.102 26.774 L 2.099 45.798 Z M 125.593 127.837 L 144.617 128.834 L 145.614 109.81 L 126.59 108.813 L 125.593 127.837 Z M 126.695 106.816 L 145.719 107.813 L 146.716 88.789 L 127.692 87.792 L 126.695 106.816 Z M 127.797 85.795 L 146.821 86.792 L 147.818 67.768 L 128.794 66.771 L 127.797 85.795 Z M 130 43.753 L 149.024 44.75 L 150.021 25.726 L 130.997 24.729 L 130 43.753 Z M 26.302 127.676 L 45.341 127.011 L 44.676 107.972 L 25.637 108.637 L 26.302 127.676 Z M 24.833 85.601 L 43.871 84.936 L 43.207 65.898 L 24.168 66.563 L 24.833 85.601 Z M 106.484 105.274 L 125.522 105.939 L 126.187 86.901 L 107.149 86.236 L 106.484 105.274 Z M 25.568 106.638 L 44.606 105.973 L 43.941 86.935 L 24.903 87.6 L 25.568 106.638 Z M 23.364 43.527 L 42.402 42.862 L 41.737 23.824 L 22.699 24.488 L 23.364 43.527 Z M 22.629 22.49 L 41.667 21.825 L 41.003 2.786 L 21.964 3.451 L 22.629 22.49 Z M 107.953 63.2 L 126.992 63.865 L 127.656 44.826 L 108.618 44.162 L 107.953 63.2 Z M 24.098 64.564 L 43.137 63.899 L 42.472 44.861 L 23.433 45.526 L 24.098 64.564 Z M 105.749 126.312 L 124.788 126.976 L 125.452 107.938 L 106.414 107.273 L 105.749 126.312 Z M 107.219 84.237 L 126.257 84.902 L 126.922 65.864 L 107.883 65.199 L 107.219 84.237 Z M 108.688 42.163 L 127.726 42.828 L 128.391 23.789 L 109.353 23.124 L 108.688 42.163 Z M 109.422 21.126 L 128.461 21.79 L 129.126 2.752 L 110.087 2.087 L 109.422 21.126 Z" vector-effect="non-scaling-stroke"/></g></svg>