<svg width="151.835mm" height="129.513mm" viewBox="0 0 151.835 129.513" xmlns="http://www.w3.org/2000/svg"><g id="svgGroup" stroke-linecap="round" fill-rule="evenodd" font-size="9pt" stroke="#000" stroke-width="0.25mm" fill="none" style="stroke:#000;stroke-width:0.25mm;fill:none"><path d="M 115.782 127.137 L 134.786 128.465 L 136.115 109.462 L 117.111 108.133 L 115.782 127.137 Z M 17.049 129.513 L 36.052 128.185 L 34.723 109.181 L 15.72 110.51 L 17.049 129.513 Z M 87.707 40.945 L 106.754 41.278 L 107.087 22.231 L 88.04 21.898 L 87.707 40.945 Z M 88.074 19.898 L 107.122 20.231 L 107.454 1.184 L 88.407 0.851 L 88.074 19.898 Z M 45.021 41.627 L 64.068 41.295 L 63.736 22.248 L 44.689 22.58 L 45.021 41.627 Z M 44.654 20.581 L 63.701 20.248 L 63.368 1.201 L 44.321 1.533 L 44.654 20.581 Z M 86.238 125.132 L 105.285 125.465 L 105.617 106.418 L 86.57 106.085 L 86.238 125.132 Z M 86.605 104.086 L 105.652 104.418 L 105.985 85.371 L 86.937 85.038 L 86.605 104.086 Z M 86.972 83.039 L 106.019 83.371 L 106.352 64.324 L 87.305 63.992 L 86.972 83.039 Z M 87.34 61.992 L 106.387 62.324 L 106.719 43.277 L 87.672 42.945 L 87.34 61.992 Z M 46.491 125.815 L 65.538 125.482 L 65.205 106.435 L 46.158 106.767 L 46.491 125.815 Z M 46.123 104.768 L 65.17 104.435 L 64.838 85.388 L 45.791 85.721 L 46.123 104.768 Z M 45.756 83.721 L 64.803 83.388 L 64.47 64.341 L 45.423 64.674 L 45.756 83.721 Z M 45.388 62.674 L 64.436 62.342 L 64.103 43.295 L 45.056 43.627 L 45.388 62.674 Z M 66.352 124.3 L 85.402 124.3 L 85.402 105.25 L 66.352 105.25 L 66.352 124.3 Z M 66.352 103.25 L 85.402 103.25 L 85.402 84.2 L 66.352 84.2 L 66.352 103.25 Z M 66.352 82.2 L 85.402 82.2 L 85.402 63.15 L 66.352 63.15 L 66.352 82.2 Z M 66.352 61.15 L 85.402 61.15 L 85.402 42.1 L 66.352 42.1 L 66.352 61.15 Z M 66.352 40.1 L 85.402 40.1 L 85.402 21.05 L 66.352 21.05 L 66.352 40.1 Z M 66.352 19.05 L 85.402 19.05 L 85.402 0 L 66.352 0 L 66.352 19.05 Z M 3.2 67.016 L 22.224 66.019 L 21.227 46.995 L 2.203 47.992 L 3.2 67.016 Z M 0.997 24.974 L 20.021 23.977 L 19.024 4.953 L 0 5.95 L 0.997 24.974 Z M 129.61 64.971 L 148.634 65.968 L 149.631 46.944 L 130.607 45.947 L 129.61 64.971 Z M 131.814 22.929 L 150.838 23.926 L 151.835 4.902 L 132.811 3.905 L 131.814 22.929 Z M 5.404 109.058 L 24.428 108.061 L 23.431 89.037 L 4.407 90.034 L 5.404 109.058 Z M 4.302 88.037 L 23.326 87.04 L 22.329 68.016 L 3.305 69.013 L 4.302 88.037 Z M 2.099 45.995 L 21.123 44.998 L 20.126 25.974 L 1.102 26.971 L 2.099 45.995 Z M 127.407 107.013 L 146.431 108.01 L 147.428 88.986 L 128.404 87.989 L 127.407 107.013 Z M 128.509 85.992 L 147.533 86.989 L 148.53 67.965 L 129.506 66.968 L 128.509 85.992 Z M 130.712 43.95 L 149.736 44.947 L 150.733 25.923 L 131.709 24.926 L 130.712 43.95 Z M 25.189 85.601 L 44.227 84.936 L 43.563 65.898 L 24.524 66.563 L 25.189 85.601 Z M 106.84 105.274 L 125.878 105.939 L 126.543 86.901 L 107.505 86.236 L 106.84 105.274 Z M 25.924 106.638 L 44.962 105.973 L 44.297 86.935 L 25.259 87.6 L 25.924 106.638 Z M 23.72 43.527 L 42.758 42.862 L 42.093 23.824 L 23.055 24.488 L 23.72 43.527 Z M 22.985 22.49 L 42.023 21.825 L 41.359 2.786 L 22.32 3.451 L 22.985 22.49 Z M 108.309 63.2 L 127.348 63.865 L 128.012 44.826 L 108.974 44.162 L 108.309 63.2 Z M 24.454 64.564 L 43.493 63.899 L 42.828 44.861 L 23.789 45.526 L 24.454 64.564 Z M 107.575 84.237 L 126.613 84.902 L 127.278 65.864 L 108.239 65.199 L 107.575 84.237 Z M 109.044 42.163 L 128.082 42.828 L 128.747 23.789 L 109.709 23.124 L 109.044 42.163 Z M 109.778 21.126 L 128.817 21.79 L 129.482 2.752 L 110.443 2.087 L 109.778 21.126 Z" vector-effect="non-scaling-stroke"/></g></svg>