0
SECTION
2
HEADER
9
$INSUNITS
70
4
0
ENDSEC
0
SECTION
2
TABLES
0
TABLE
2
LTYPE
0
LTYPE
72
65
70
0
2
CONTINUOUS
3
______
73
0
40
0
0
LTYPE
72
65
70
0
2
DASHED
3
_ _ _ 
73
2
40
7.5
49
5
49
-2.5
0
LTYPE
72
65
70
0
2
DOTTED
3
. . . 
73
2
40
1.5
49
0.5
49
-1
0
ENDTAB
0
TABLE
2
LAYER
0
ENDTAB
0
ENDSEC
0
SECTION
2
ENTITIES
0
LINE
8
0
6
CONTINUOUS
10
51.1738939
20
-209.64156
11
70.1774891
21
-208.3126992
0
LINE
8
0
6
CONTINUOUS
10
70.1774891
20
-208.3126992
11
68.8486283
21
-189.309104
0
LINE
8
0
6
CONTINUOUS
10
68.8486283
20
-189.309104
11
49.8450331
21
-190.6379648
0
LINE
8
0
6
CONTINUOUS
10
49.8450331
20
-190.6379648
11
51.1738939
21
-209.64156
0
LINE
8
0
6
CONTINUOUS
10
39.5288614
20
-189.1863636
11
58.552754
21
-188.1893636
0
LINE
8
0
6
CONTINUOUS
10
58.552754
20
-188.1893636
11
57.555754
21
-169.165471
0
LINE
8
0
6
CONTINUOUS
10
57.555754
20
-169.165471
11
38.5318614
21
-170.162471
0
LINE
8
0
6
CONTINUOUS
10
38.5318614
20
-170.162471
11
39.5288614
21
-189.1863636
0
LINE
8
0
6
CONTINUOUS
10
38.4271895
20
-168.1652119
11
57.4510821
21
-167.1682119
0
LINE
8
0
6
CONTINUOUS
10
57.4510821
20
-167.1682119
11
56.4540821
21
-148.1443193
0
LINE
8
0
6
CONTINUOUS
10
56.4540821
20
-148.1443193
11
37.4301895
21
-149.1413193
0
LINE
8
0
6
CONTINUOUS
10
37.4301895
20
-149.1413193
11
38.4271895
21
-168.1652119
0
LINE
8
0
6
CONTINUOUS
10
37.3255176
20
-147.1440602
11
56.3494102
21
-146.1470602
0
LINE
8
0
6
CONTINUOUS
10
56.3494102
20
-146.1470602
11
55.3524102
21
-127.1231676
0
LINE
8
0
6
CONTINUOUS
10
55.3524102
20
-127.1231676
11
36.3285176
21
-128.1201676
0
LINE
8
0
6
CONTINUOUS
10
36.3285176
20
-128.1201676
11
37.3255176
21
-147.1440602
0
LINE
8
0
6
CONTINUOUS
10
36.2238457
20
-126.1229085
11
55.2477383
21
-125.1259085
0
LINE
8
0
6
CONTINUOUS
10
55.2477383
20
-125.1259085
11
54.2507383
21
-106.1020159
0
LINE
8
0
6
CONTINUOUS
10
54.2507383
20
-106.1020159
11
35.2268457
21
-107.0990159
0
LINE
8
0
6
CONTINUOUS
10
35.2268457
20
-107.0990159
11
36.2238457
21
-126.1229085
0
LINE
8
0
6
CONTINUOUS
10
35.1221738
20
-105.1017568
11
54.1460664
21
-104.1047568
0
LINE
8
0
6
CONTINUOUS
10
54.1460664
20
-104.1047568
11
53.1490664
21
-85.0808642
0
LINE
8
0
6
CONTINUOUS
10
53.1490664
20
-85.0808642
11
34.1251738
21
-86.0778642
0
LINE
8
0
6
CONTINUOUS
10
34.1251738
20
-86.0778642
11
35.1221738
21
-105.1017568
0
LINE
8
0
6
CONTINUOUS
10
60.0487719
20
-186.7664729
11
79.0871671
21
-186.1016375
0
LINE
8
0
6
CONTINUOUS
10
79.0871671
20
-186.1016375
11
78.4223317
21
-167.0632423
0
LINE
8
0
6
CONTINUOUS
10
78.4223317
20
-167.0632423
11
59.3839365
21
-167.7280777
0
LINE
8
0
6
CONTINUOUS
10
59.3839365
20
-167.7280777
11
60.0487719
21
-186.7664729
0
LINE
8
0
6
CONTINUOUS
10
59.3141375
20
-165.729296
11
78.3525327
21
-165.0644606
0
LINE
8
0
6
CONTINUOUS
10
78.3525327
20
-165.0644606
11
77.6876973
21
-146.0260654
0
LINE
8
0
6
CONTINUOUS
10
77.6876973
20
-146.0260654
11
58.6493021
21
-146.6909008
0
LINE
8
0
6
CONTINUOUS
10
58.6493021
20
-146.6909008
11
59.3141375
21
-165.729296
0
LINE
8
0
6
CONTINUOUS
10
58.5795031
20
-144.6921191
11
77.6178983
21
-144.0272837
0
LINE
8
0
6
CONTINUOUS
10
77.6178983
20
-144.0272837
11
76.9530629
21
-124.9888885
0
LINE
8
0
6
CONTINUOUS
10
76.9530629
20
-124.9888885
11
57.9146677
21
-125.6537239
0
LINE
8
0
6
CONTINUOUS
10
57.9146677
20
-125.6537239
11
58.5795031
21
-144.6921191
0
LINE
8
0
6
CONTINUOUS
10
57.8448687
20
-123.6549422
11
76.8832639
21
-122.9901068
0
LINE
8
0
6
CONTINUOUS
10
76.8832639
20
-122.9901068
11
76.2184285
21
-103.9517116
0
LINE
8
0
6
CONTINUOUS
10
76.2184285
20
-103.9517116
11
57.1800333
21
-104.616547
0
LINE
8
0
6
CONTINUOUS
10
57.1800333
20
-104.616547
11
57.8448687
21
-123.6549422
0
LINE
8
0
6
CONTINUOUS
10
57.1102343
20
-102.6177653
11
76.1486295
21
-101.9529299
0
LINE
8
0
6
CONTINUOUS
10
76.1486295
20
-101.9529299
11
75.4837941
21
-82.9145347
0
LINE
8
0
6
CONTINUOUS
10
75.4837941
20
-82.9145347
11
56.4453989
21
-83.5793701
0
LINE
8
0
6
CONTINUOUS
10
56.4453989
20
-83.5793701
11
57.1102343
21
-102.6177653
0
LINE
8
0
6
CONTINUOUS
10
80.6157577
20
-205.9426923
11
99.6628563
21
-205.6102239
0
LINE
8
0
6
CONTINUOUS
10
99.6628563
20
-205.6102239
11
99.3303879
21
-186.5631253
0
LINE
8
0
6
CONTINUOUS
10
99.3303879
20
-186.5631253
11
80.2832893
21
-186.8955937
0
LINE
8
0
6
CONTINUOUS
10
80.2832893
20
-186.8955937
11
80.6157577
21
-205.9426923
0
LINE
8
0
6
CONTINUOUS
10
80.2483845
20
-184.8958983
11
99.2954831
21
-184.5634299
0
LINE
8
0
6
CONTINUOUS
10
99.2954831
20
-184.5634299
11
98.9630147
21
-165.5163313
0
LINE
8
0
6
CONTINUOUS
10
98.9630147
20
-165.5163313
11
79.9159161
21
-165.8487997
0
LINE
8
0
6
CONTINUOUS
10
79.9159161
20
-165.8487997
11
80.2483845
21
-184.8958983
0
LINE
8
0
6
CONTINUOUS
10
79.8810113
20
-163.8491043
11
98.9281099
21
-163.5166359
0
LINE
8
0
6
CONTINUOUS
10
98.9281099
20
-163.5166359
11
98.5956415
21
-144.4695373
0
LINE
8
0
6
CONTINUOUS
10
98.5956415
20
-144.4695373
11
79.5485429
21
-144.8020057
0
LINE
8
0
6
CONTINUOUS
10
79.5485429
20
-144.8020057
11
79.8810113
21
-163.8491043
0
LINE
8
0
6
CONTINUOUS
10
79.5136381
20
-142.8023103
11
98.5607367
21
-142.4698419
0
LINE
8
0
6
CONTINUOUS
10
98.5607367
20
-142.4698419
11
98.2282683
21
-123.4227433
0
LINE
8
0
6
CONTINUOUS
10
98.2282683
20
-123.4227433
11
79.1811697
21
-123.7552117
0
LINE
8
0
6
CONTINUOUS
10
79.1811697
20
-123.7552117
11
79.5136381
21
-142.8023103
0
LINE
8
0
6
CONTINUOUS
10
79.1462649
20
-121.7555163
11
98.1933635
21
-121.4230479
0
LINE
8
0
6
CONTINUOUS
10
98.1933635
20
-121.4230479
11
97.8608951
21
-102.3759493
0
LINE
8
0
6
CONTINUOUS
10
97.8608951
20
-102.3759493
11
78.8137965
21
-102.7084177
0
LINE
8
0
6
CONTINUOUS
10
78.8137965
20
-102.7084177
11
79.1462649
21
-121.7555163
0
LINE
8
0
6
CONTINUOUS
10
78.7788917
20
-100.7087223
11
97.8259903
21
-100.3762539
0
LINE
8
0
6
CONTINUOUS
10
97.8259903
20
-100.3762539
11
97.4935219
21
-81.3291553
0
LINE
8
0
6
CONTINUOUS
10
97.4935219
20
-81.3291553
11
78.4464233
21
-81.6616237
0
LINE
8
0
6
CONTINUOUS
10
78.4464233
20
-81.6616237
11
78.7788917
21
-100.7087223
0
LINE
8
0
6
CONTINUOUS
10
100.4775666
20
-204.4281403
11
119.5275666
21
-204.4281403
0
LINE
8
0
6
CONTINUOUS
10
119.5275666
20
-204.4281403
11
119.5275666
21
-185.3781403
0
LINE
8
0
6
CONTINUOUS
10
119.5275666
20
-185.3781403
11
100.4775666
21
-185.3781403
0
LINE
8
0
6
CONTINUOUS
10
100.4775666
20
-185.3781403
11
100.4775666
21
-204.4281403
0
LINE
8
0
6
CONTINUOUS
10
100.4775666
20
-183.3781403
11
119.5275666
21
-183.3781403
0
LINE
8
0
6
CONTINUOUS
10
119.5275666
20
-183.3781403
11
119.5275666
21
-164.3281403
0
LINE
8
0
6
CONTINUOUS
10
119.5275666
20
-164.3281403
11
100.4775666
21
-164.3281403
0
LINE
8
0
6
CONTINUOUS
10
100.4775666
20
-164.3281403
11
100.4775666
21
-183.3781403
0
LINE
8
0
6
CONTINUOUS
10
100.4775666
20
-162.3281403
11
119.5275666
21
-162.3281403
0
LINE
8
0
6
CONTINUOUS
10
119.5275666
20
-162.3281403
11
119.5275666
21
-143.2781403
0
LINE
8
0
6
CONTINUOUS
10
119.5275666
20
-143.2781403
11
100.4775666
21
-143.2781403
0
LINE
8
0
6
CONTINUOUS
10
100.4775666
20
-143.2781403
11
100.4775666
21
-162.3281403
0
LINE
8
0
6
CONTINUOUS
10
100.4775666
20
-141.2781403
11
119.5275666
21
-141.2781403
0
LINE
8
0
6
CONTINUOUS
10
119.5275666
20
-141.2781403
11
119.5275666
21
-122.2281403
0
LINE
8
0
6
CONTINUOUS
10
119.5275666
20
-122.2281403
11
100.4775666
21
-122.2281403
0
LINE
8
0
6
CONTINUOUS
10
100.4775666
20
-122.2281403
11
100.4775666
21
-141.2781403
0
LINE
8
0
6
CONTINUOUS
10
100.4775666
20
-120.2281403
11
119.5275666
21
-120.2281403
0
LINE
8
0
6
CONTINUOUS
10
119.5275666
20
-120.2281403
11
119.5275666
21
-101.1781403
0
LINE
8
0
6
CONTINUOUS
10
119.5275666
20
-101.1781403
11
100.4775666
21
-101.1781403
0
LINE
8
0
6
CONTINUOUS
10
100.4775666
20
-101.1781403
11
100.4775666
21
-120.2281403
0
LINE
8
0
6
CONTINUOUS
10
100.4775666
20
-99.1781403
11
119.5275666
21
-99.1781403
0
LINE
8
0
6
CONTINUOUS
10
119.5275666
20
-99.1781403
11
119.5275666
21
-80.1281403
0
LINE
8
0
6
CONTINUOUS
10
119.5275666
20
-80.1281403
11
100.4775666
21
-80.1281403
0
LINE
8
0
6
CONTINUOUS
10
100.4775666
20
-80.1281403
11
100.4775666
21
-99.1781403
0
LINE
8
0
6
CONTINUOUS
10
120.3627832
20
-205.2604554
11
139.4098818
21
-205.5929238
0
LINE
8
0
6
CONTINUOUS
10
139.4098818
20
-205.5929238
11
139.7423502
21
-186.5458252
0
LINE
8
0
6
CONTINUOUS
10
139.7423502
20
-186.5458252
11
120.6952516
21
-186.2133568
0
LINE
8
0
6
CONTINUOUS
10
120.6952516
20
-186.2133568
11
120.3627832
21
-205.2604554
0
LINE
8
0
6
CONTINUOUS
10
120.7301564
20
-184.2136614
11
139.777255
21
-184.5461298
0
LINE
8
0
6
CONTINUOUS
10
139.777255
20
-184.5461298
11
140.1097234
21
-165.4990312
0
LINE
8
0
6
CONTINUOUS
10
140.1097234
20
-165.4990312
11
121.0626248
21
-165.1665628
0
LINE
8
0
6
CONTINUOUS
10
121.0626248
20
-165.1665628
11
120.7301564
21
-184.2136614
0
LINE
8
0
6
CONTINUOUS
10
121.0975296
20
-163.1668674
11
140.1446282
21
-163.4993358
0
LINE
8
0
6
CONTINUOUS
10
140.1446282
20
-163.4993358
11
140.4770966
21
-144.4522372
0
LINE
8
0
6
CONTINUOUS
10
140.4770966
20
-144.4522372
11
121.429998
21
-144.1197688
0
LINE
8
0
6
CONTINUOUS
10
121.429998
20
-144.1197688
11
121.0975296
21
-163.1668674
0
LINE
8
0
6
CONTINUOUS
10
121.4649028
20
-142.1200734
11
140.5120014
21
-142.4525418
0
LINE
8
0
6
CONTINUOUS
10
140.5120014
20
-142.4525418
11
140.8444698
21
-123.4054432
0
LINE
8
0
6
CONTINUOUS
10
140.8444698
20
-123.4054432
11
121.7973712
21
-123.0729748
0
LINE
8
0
6
CONTINUOUS
10
121.7973712
20
-123.0729748
11
121.4649028
21
-142.1200734
0
LINE
8
0
6
CONTINUOUS
10
121.832276
20
-121.0732794
11
140.8793746
21
-121.4057478
0
LINE
8
0
6
CONTINUOUS
10
140.8793746
20
-121.4057478
11
141.211843
21
-102.3586492
0
LINE
8
0
6
CONTINUOUS
10
141.211843
20
-102.3586492
11
122.1647444
21
-102.0261808
0
LINE
8
0
6
CONTINUOUS
10
122.1647444
20
-102.0261808
11
121.832276
21
-121.0732794
0
LINE
8
0
6
CONTINUOUS
10
122.1996492
20
-100.0264854
11
141.2467478
21
-100.3589538
0
LINE
8
0
6
CONTINUOUS
10
141.2467478
20
-100.3589538
11
141.5792162
21
-81.3118552
0
LINE
8
0
6
CONTINUOUS
10
141.5792162
20
-81.3118552
11
122.5321176
21
-80.9793868
0
LINE
8
0
6
CONTINUOUS
10
122.5321176
20
-80.9793868
11
122.1996492
21
-100.0264854
0
LINE
8
0
6
CONTINUOUS
10
140.9650796
20
-185.4025118
11
160.0034748
21
-186.0673472
0
LINE
8
0
6
CONTINUOUS
10
160.0034748
20
-186.0673472
11
160.6683102
21
-167.028952
0
LINE
8
0
6
CONTINUOUS
10
160.6683102
20
-167.028952
11
141.629915
21
-166.3641166
0
LINE
8
0
6
CONTINUOUS
10
141.629915
20
-166.3641166
11
140.9650796
21
-185.4025118
0
LINE
8
0
6
CONTINUOUS
10
141.699714
20
-164.3653349
11
160.7381092
21
-165.0301703
0
LINE
8
0
6
CONTINUOUS
10
160.7381092
20
-165.0301703
11
161.4029446
21
-145.9917751
0
LINE
8
0
6
CONTINUOUS
10
161.4029446
20
-145.9917751
11
142.3645494
21
-145.3269397
0
LINE
8
0
6
CONTINUOUS
10
142.3645494
20
-145.3269397
11
141.699714
21
-164.3653349
0
LINE
8
0
6
CONTINUOUS
10
142.4343484
20
-143.328158
11
161.4727436
21
-143.9929934
0
LINE
8
0
6
CONTINUOUS
10
161.4727436
20
-143.9929934
11
162.137579
21
-124.9545982
0
LINE
8
0
6
CONTINUOUS
10
162.137579
20
-124.9545982
11
143.0991838
21
-124.2897628
0
LINE
8
0
6
CONTINUOUS
10
143.0991838
20
-124.2897628
11
142.4343484
21
-143.328158
0
LINE
8
0
6
CONTINUOUS
10
143.1689828
20
-122.2909811
11
162.207378
21
-122.9558165
0
LINE
8
0
6
CONTINUOUS
10
162.207378
20
-122.9558165
11
162.8722134
21
-103.9174213
0
LINE
8
0
6
CONTINUOUS
10
162.8722134
20
-103.9174213
11
143.8338182
21
-103.2525859
0
LINE
8
0
6
CONTINUOUS
10
143.8338182
20
-103.2525859
11
143.1689828
21
-122.2909811
0
LINE
8
0
6
CONTINUOUS
10
143.9036172
20
-101.2538042
11
162.9420124
21
-101.9186396
0
LINE
8
0
6
CONTINUOUS
10
162.9420124
20
-101.9186396
11
163.6068478
21
-82.8802444
0
LINE
8
0
6
CONTINUOUS
10
163.6068478
20
-82.8802444
11
144.5684526
21
-82.215409
0
LINE
8
0
6
CONTINUOUS
10
144.5684526
20
-82.215409
11
143.9036172
21
-101.2538042
0
LINE
8
0
6
CONTINUOUS
10
149.907458
20
-207.2647339
11
168.9110532
21
-208.5935947
0
LINE
8
0
6
CONTINUOUS
10
168.9110532
20
-208.5935947
11
170.239914
21
-189.5899995
0
LINE
8
0
6
CONTINUOUS
10
170.239914
20
-189.5899995
11
151.2363188
21
-188.2611387
0
LINE
8
0
6
CONTINUOUS
10
151.2363188
20
-188.2611387
11
149.907458
21
-207.2647339
0
LINE
8
0
6
CONTINUOUS
10
161.5321931
20
-187.1413983
11
180.5560857
21
-188.1383983
0
LINE
8
0
6
CONTINUOUS
10
180.5560857
20
-188.1383983
11
181.5530857
21
-169.1145057
0
LINE
8
0
6
CONTINUOUS
10
181.5530857
20
-169.1145057
11
162.5291931
21
-168.1175057
0
LINE
8
0
6
CONTINUOUS
10
162.5291931
20
-168.1175057
11
161.5321931
21
-187.1413983
0
LINE
8
0
6
CONTINUOUS
10
162.633865
20
-166.1202466
11
181.6577576
21
-167.1172466
0
LINE
8
0
6
CONTINUOUS
10
181.6577576
20
-167.1172466
11
182.6547576
21
-148.093354
0
LINE
8
0
6
CONTINUOUS
10
182.6547576
20
-148.093354
11
163.630865
21
-147.096354
0
LINE
8
0
6
CONTINUOUS
10
163.630865
20
-147.096354
11
162.633865
21
-166.1202466
0
LINE
8
0
6
CONTINUOUS
10
163.7355369
20
-145.0990949
11
182.7594295
21
-146.0960949
0
LINE
8
0
6
CONTINUOUS
10
182.7594295
20
-146.0960949
11
183.7564295
21
-127.0722023
0
LINE
8
0
6
CONTINUOUS
10
183.7564295
20
-127.0722023
11
164.7325369
21
-126.0752023
0
LINE
8
0
6
CONTINUOUS
10
164.7325369
20
-126.0752023
11
163.7355369
21
-145.0990949
0
LINE
8
0
6
CONTINUOUS
10
164.8372088
20
-124.0779432
11
183.8611014
21
-125.0749432
0
LINE
8
0
6
CONTINUOUS
10
183.8611014
20
-125.0749432
11
184.8581014
21
-106.0510506
0
LINE
8
0
6
CONTINUOUS
10
184.8581014
20
-106.0510506
11
165.8342088
21
-105.0540506
0
LINE
8
0
6
CONTINUOUS
10
165.8342088
20
-105.0540506
11
164.8372088
21
-124.0779432
0
LINE
8
0
6
CONTINUOUS
10
165.9388807
20
-103.0567915
11
184.9627733
21
-104.0537915
0
LINE
8
0
6
CONTINUOUS
10
184.9627733
20
-104.0537915
11
185.9597733
21
-85.0298989
0
LINE
8
0
6
CONTINUOUS
10
185.9597733
20
-85.0298989
11
166.9358807
21
-84.0328989
0
LINE
8
0
6
CONTINUOUS
10
166.9358807
20
-84.0328989
11
165.9388807
21
-103.0567915
0
ENDSEC
0
EOF