<svg width="160.871mm" height="162.3mm" viewBox="0 0 160.871 162.3" xmlns="http://www.w3.org/2000/svg"><g id="svgGroup" stroke-linecap="round" fill-rule="evenodd" font-size="9pt" stroke="#000" stroke-width="0.25mm" fill="none" style="stroke:#000;stroke-width:0.25mm;fill:none"><path d="M 1.5 1.5 m -1.5 0 a 1.5 1.5 0 0 1 3 0 a 1.5 1.5 0 0 1 -3 0 z M 80.789 2.152 m -1.5 0 a 1.5 1.5 0 0 1 3 0 a 1.5 1.5 0 0 1 -3 0 z M 159.371 10.675 m -1.5 0 a 1.5 1.5 0 0 1 3 0 a 1.5 1.5 0 0 1 -3 0 z M 159.068 159.752 m -1.5 0 a 1.5 1.5 0 0 1 3 0 a 1.5 1.5 0 0 1 -3 0 z M 80.789 150.583 m -1.5 0 a 1.5 1.5 0 0 1 3 0 a 1.5 1.5 0 0 1 -3 0 z M 2.589 160.8 m -1.5 0 a 1.5 1.5 0 0 1 3 0 a 1.5 1.5 0 0 1 -3 0 z" vector-effect="non-scaling-stroke"/></g></svg>