0
SECTION
2
HEADER
9
$INSUNITS
70
4
0
ENDSEC
0
SECTION
2
TABLES
0
TABLE
2
LTYPE
0
LTYPE
72
65
70
0
2
CONTINUOUS
3
______
73
0
40
0
0
LTYPE
72
65
70
0
2
DASHED
3
_ _ _ 
73
2
40
7.5
49
5
49
-2.5
0
LTYPE
72
65
70
0
2
DOTTED
3
. . . 
73
2
40
1.5
49
0.5
49
-1
0
ENDTAB
0
TABLE
2
LAYER
0
ENDTAB
0
ENDSEC
0
SECTION
2
ENTITIES
0
CIRCLE
8
0
6
CONTINUOUS
10
31.2392651
20
-64.4492597
40
1.5
0
CIRCLE
8
0
6
CONTINUOUS
10
110.0025666
20
-64.6281403
40
1.5
0
CIRCLE
8
0
6
CONTINUOUS
10
188.5850638
20
-73.1510164
40
1.5
0
CIRCLE
8
0
6
CONTINUOUS
10
181.7874944
20
-214.7568231
40
1.5
0
CIRCLE
8
0
6
CONTINUOUS
10
110.0025666
20
-213.0593903
40
1.5
0
CIRCLE
8
0
6
CONTINUOUS
10
38.2974527
20
-215.8047884
40
1.5
0
ENDSEC
0
EOF