0
SECTION
2
HEADER
9
$INSUNITS
70
4
0
ENDSEC
0
SECTION
2
TABLES
0
TABLE
2
LTYPE
0
LTYPE
72
65
70
0
2
CONTINUOUS
3
______
73
0
40
0
0
LTYPE
72
65
70
0
2
DASHED
3
_ _ _ 
73
2
40
7.5
49
5
49
-2.5
0
LTYPE
72
65
70
0
2
DOTTED
3
. . . 
73
2
40
1.5
49
0.5
49
-1
0
ENDTAB
0
TABLE
2
LAYER
0
ENDTAB
0
ENDSEC
0
SECTION
2
ENTITIES
0
LINE
8
0
6
CONTINUOUS
10
50.3071233
20
-211.581749
11
71.3058465
21
-210.1133753
0
LINE
8
0
6
CONTINUOUS
10
38.6283617
20
-191.1111299
11
38.9453296
21
-191.0945184
0
LINE
8
0
6
CONTINUOUS
10
36.4364724
20
-168.3947125
11
36.5280603
21
-170.1423142
0
LINE
8
0
6
CONTINUOUS
10
36.5280603
20
-170.1423142
11
37.5773962
21
-190.1648364
0
LINE
8
0
6
CONTINUOUS
10
35.3348005
20
-147.3735608
11
35.4263884
21
-149.1211625
0
LINE
8
0
6
CONTINUOUS
10
35.4263884
20
-149.1211625
11
36.4364724
21
-168.3947125
0
LINE
8
0
6
CONTINUOUS
10
34.2331286
20
-126.3524091
11
34.3247165
21
-128.1000108
0
LINE
8
0
6
CONTINUOUS
10
34.3247165
20
-128.1000108
11
35.3348005
21
-147.3735608
0
LINE
8
0
6
CONTINUOUS
10
33.1314567
20
-105.3312574
11
33.2230446
21
-107.0788591
0
LINE
8
0
6
CONTINUOUS
10
33.2230446
20
-107.0788591
11
34.2331286
21
-126.3524091
0
LINE
8
0
6
CONTINUOUS
10
54.428705
20
-83.136228
11
33.0284143
21
-84.2577697
0
LINE
8
0
6
CONTINUOUS
10
32.0821208
20
-85.3087352
11
33.1314567
21
-105.3312574
0
LINE
8
0
6
CONTINUOUS
10
76.4346605
20
-81.0051868
11
55.3805715
21
-81.7404118
0
LINE
8
0
6
CONTINUOUS
10
54.4160802
20
-82.7747021
11
54.428705
21
-83.136228
0
LINE
8
0
6
CONTINUOUS
10
81.0739644
20
-207.8099798
11
100.6954272
21
-207.4674859
0
LINE
8
0
6
CONTINUOUS
10
101.6778225
20
-206.4501858
11
101.6752558
21
-206.3031403
0
LINE
8
0
6
CONTINUOUS
10
98.4775666
20
-79.4366932
11
77.4138524
21
-79.8043617
0
LINE
8
0
6
CONTINUOUS
10
76.4314571
20
-80.8216618
11
76.4346605
21
-81.0051868
0
LINE
8
0
6
CONTINUOUS
10
101.6752558
20
-206.3031403
11
118.3442785
21
-206.3031403
0
LINE
8
0
6
CONTINUOUS
10
121.5275666
20
-79.0865667
11
121.5275666
21
-78.2531403
0
LINE
8
0
6
CONTINUOUS
10
121.5275666
20
-78.2531403
11
99.4775666
21
-78.2531403
0
LINE
8
0
6
CONTINUOUS
10
98.4775666
20
-79.2531403
11
98.4775666
21
-79.4366932
0
LINE
8
0
6
CONTINUOUS
10
118.3303646
20
-207.100265
11
138.9621472
21
-207.4603941
0
LINE
8
0
6
CONTINUOUS
10
118.3442785
20
-206.3031403
11
118.3303646
21
-207.100265
0
LINE
8
0
6
CONTINUOUS
10
143.5970895
20
-80.3053454
11
143.6116348
21
-79.4720456
0
LINE
8
0
6
CONTINUOUS
10
143.6116348
20
-79.4720456
11
121.5275666
21
-79.0865667
0
LINE
8
0
6
CONTINUOUS
10
165.6700566
20
-81.1050908
11
165.671066
21
-81.0761856
0
LINE
8
0
6
CONTINUOUS
10
165.671066
20
-81.0761856
11
143.5970895
21
-80.3053454
0
LINE
8
0
6
CONTINUOUS
10
148.7791006
20
-209.06541
11
169.7778238
21
-210.5337837
0
LINE
8
0
6
CONTINUOUS
10
181.1396175
20
-190.0465531
11
181.4565854
21
-190.0631646
0
LINE
8
0
6
CONTINUOUS
10
182.5075509
20
-189.1168711
11
183.5568868
21
-169.0943489
0
LINE
8
0
6
CONTINUOUS
10
183.5568868
20
-169.0943489
11
183.6484747
21
-167.3467472
0
LINE
8
0
6
CONTINUOUS
10
183.6484747
20
-167.3467472
11
184.6585587
21
-148.0731972
0
LINE
8
0
6
CONTINUOUS
10
184.6585587
20
-148.0731972
11
184.7501466
21
-146.3255955
0
LINE
8
0
6
CONTINUOUS
10
184.7501466
20
-146.3255955
11
185.7602306
21
-127.0520455
0
LINE
8
0
6
CONTINUOUS
10
185.7602306
20
-127.0520455
11
185.8518185
21
-125.3044438
0
LINE
8
0
6
CONTINUOUS
10
185.8518185
20
-125.3044438
11
186.8619025
21
-106.0308938
0
LINE
8
0
6
CONTINUOUS
10
186.8619025
20
-106.0308938
11
186.9534904
21
-104.2832921
0
LINE
8
0
6
CONTINUOUS
10
186.9534904
20
-104.2832921
11
188.0028263
21
-84.2607699
0
LINE
8
0
6
CONTINUOUS
10
187.0565328
20
-83.2098044
11
166.6171114
21
-82.1386198
0
ARC
8
0
6
CONTINUOUS
10
71.23609
20
-209.1158112
40
1
50
274.0000013
51
358.2608231
0
ARC
8
0
6
CONTINUOUS
10
100.6779748
20
-206.4676382
40
1
50
270.9999996
51
0.9999996
0
ARC
8
0
6
CONTINUOUS
10
148.8488571
20
-208.0678459
40
1
50
181.7391769
51
265.9999987
0
ARC
8
0
6
CONTINUOUS
10
169.8475803
20
-209.5362196
40
1
50
265.9999987
51
350.2608245
0
ARC
8
0
6
CONTINUOUS
10
181.5089214
20
-189.0645351
40
1
50
266.9999974
51
356.9999974
0
ARC
8
0
6
CONTINUOUS
10
187.0041968
20
-84.2084339
40
1
50
356.9999974
51
86.9999974
0
ARC
8
0
6
CONTINUOUS
10
166.6694474
20
-81.1399903
40
1
50
177.9999998
51
266.9999974
0
ARC
8
0
6
CONTINUOUS
10
99.4775666
20
-79.2531403
40
1
50
90
51
180
0
ARC
8
0
6
CONTINUOUS
10
77.4313048
20
-80.8042094
40
1
50
90.9999996
51
180.9999996
0
ARC
8
0
6
CONTINUOUS
10
55.415471
20
-82.7398026
40
1
50
92.0000002
51
182.0000002
0
ARC
8
0
6
CONTINUOUS
10
33.0807503
20
-85.2563992
40
1
50
93.0000026
51
183.0000026
0
ARC
8
0
6
CONTINUOUS
10
38.5760257
20
-190.1125004
40
1
50
183.0000026
51
273.0000026
0
ARC
8
0
6
CONTINUOUS
10
50.2373668
20
-210.5841849
40
1
50
189.7391755
51
274.0000013
0
LINE
8
0
6
CONTINUOUS
10
72.2356293
20
-209.1461609
11
81.1239376
21
-208.5246298
0
LINE
8
0
6
CONTINUOUS
10
81.1239376
20
-208.5246298
11
81.0739644
21
-207.8099798
0
LINE
8
0
6
CONTINUOUS
10
170.8331683
20
-209.7053829
11
174.7336562
21
-209.9781316
0
LINE
8
0
6
CONTINUOUS
10
180.070259
20
-205.3390938
11
181.1396175
21
-190.0465531
0
ARC
8
0
6
CONTINUOUS
10
175.0824387
20
-204.9903113
40
5
50
265.9999987
51
355.9999987
0
LINE
8
0
6
CONTINUOUS
10
45.3512909
20
-211.0260969
11
49.2517788
21
-210.7533482
0
LINE
8
0
6
CONTINUOUS
10
38.9453296
20
-191.0945184
11
40.0146881
21
-206.3870591
0
LINE
8
0
6
CONTINUOUS
10
138.9610095
20
-207.4766645
11
147.8493178
21
-208.0981956
0
LINE
8
0
6
CONTINUOUS
10
138.9621472
20
-207.4603941
11
138.9610095
21
-207.4766645
0
ARC
8
0
6
CONTINUOUS
10
45.0025084
20
-206.0382766
40
5
50
184.0000013
51
274.0000013
0
ENDSEC
0
EOF