0
SECTION
2
HEADER
9
$INSUNITS
70
4
0
ENDSEC
0
SECTION
2
TABLES
0
TABLE
2
LTYPE
0
LTYPE
72
65
70
0
2
CONTINUOUS
3
______
73
0
40
0
0
LTYPE
72
65
70
0
2
DASHED
3
_ _ _ 
73
2
40
7.5
49
5
49
-2.5
0
LTYPE
72
65
70
0
2
DOTTED
3
. . . 
73
2
40
1.5
49
0.5
49
-1
0
ENDTAB
0
TABLE
2
LAYER
0
ENDTAB
0
ENDSEC
0
SECTION
2
ENTITIES
0
LINE
8
0
6
CONTINUOUS
10
39.9372145
20
-186.4691776
11
34.7555408
21
-87.5969551
0
LINE
8
0
6
CONTINUOUS
10
35.7018343
20
-86.5459896
11
50.5560851
21
-85.7675113
0
LINE
8
0
6
CONTINUOUS
10
50.7051647
20
-85.7483877
11
58.9306191
21
-84.0569895
0
LINE
8
0
6
CONTINUOUS
10
59.0971352
20
-84.0371046
11
72.8866833
21
-83.555563
0
LINE
8
0
6
CONTINUOUS
10
73.0214575
20
-83.5416725
11
80.9300731
21
-82.1800456
0
LINE
8
0
6
CONTINUOUS
10
81.0822944
20
-82.1656982
11
94.8856197
21
-81.9247602
0
LINE
8
0
6
CONTINUOUS
10
95.0206157
20
-81.9132239
11
102.9517903
21
-80.6898289
0
LINE
8
0
6
CONTINUOUS
10
103.1042387
20
-80.6781403
11
116.9224097
21
-80.6781403
0
LINE
8
0
6
CONTINUOUS
10
117.0323888
20
-80.6842064
11
125.0260042
21
-81.5687028
0
LINE
8
0
6
CONTINUOUS
10
125.1185309
20
-81.5746166
11
138.9648573
21
-81.8163052
0
LINE
8
0
6
CONTINUOUS
10
139.0747139
20
-81.8242898
11
147.0516746
21
-82.8481595
0
LINE
8
0
6
CONTINUOUS
10
147.1440841
20
-82.8556872
11
160.9756419
21
-83.3386959
0
LINE
8
0
6
CONTINUOUS
10
161.101978
20
-83.3511708
11
169.3994725
21
-84.7067586
0
LINE
8
0
6
CONTINUOUS
10
169.5083721
20
-84.7184722
11
184.3831128
21
-85.4980243
0
LINE
8
0
6
CONTINUOUS
10
185.3294063
20
-86.5489898
11
180.1477326
21
-185.4212123
0
LINE
8
0
6
CONTINUOUS
10
180.0936279
20
-185.6973163
11
178.0630271
21
-191.5368999
0
LINE
8
0
6
CONTINUOUS
10
178.0099878
20
-191.7955834
11
176.8334192
21
-208.6212984
0
LINE
8
0
6
CONTINUOUS
10
175.7660986
20
-209.549106
11
144.1072699
21
-207.3353051
0
LINE
8
0
6
CONTINUOUS
10
143.8659879
20
-207.2881383
11
137.01294
21
-205.045327
0
LINE
8
0
6
CONTINUOUS
10
136.7193539
20
-204.9958766
11
122.9865768
21
-204.7561701
0
LINE
8
0
6
CONTINUOUS
10
122.8580918
20
-204.7456162
11
117.0501428
21
-203.8888465
0
LINE
8
0
6
CONTINUOUS
10
116.9042054
20
-203.8781403
11
103.1300155
21
-203.8781403
0
LINE
8
0
6
CONTINUOUS
10
102.9272463
20
-203.8989137
11
97.1953385
21
-205.0858244
0
LINE
8
0
6
CONTINUOUS
10
97.0100217
20
-205.1064455
11
83.3521058
21
-205.3448454
0
LINE
8
0
6
CONTINUOUS
10
82.9753102
20
-205.425689
11
76.2568345
21
-208.3078805
0
LINE
8
0
6
CONTINUOUS
10
75.932343
20
-208.3864405
11
44.3188485
21
-210.5970713
0
LINE
8
0
6
CONTINUOUS
10
43.2515279
20
-209.6692637
11
42.0749593
21
-192.8435487
0
LINE
8
0
6
CONTINUOUS
10
42.02192
20
-192.5848652
11
39.9913192
21
-186.7452816
0
ARC
8
0
6
CONTINUOUS
10
35.7541703
20
-87.5446191
40
1
50
93.0000026
51
183.0000026
0
ARC
8
0
6
CONTINUOUS
10
50.5037491
20
-84.7688818
40
1
50
273.0000026
51
281.6197514
0
ARC
8
0
6
CONTINUOUS
10
59.1320347
20
-85.0364954
40
1
50
92.0000002
51
101.6197514
0
ARC
8
0
6
CONTINUOUS
10
72.8517838
20
-82.5561722
40
1
50
272.0000002
51
279.7688478
0
ARC
8
0
6
CONTINUOUS
10
81.0997468
20
-83.1655459
40
1
50
90.9999996
51
99.7688478
0
ARC
8
0
6
CONTINUOUS
10
94.8681673
20
-80.9249125
40
1
50
270.9999996
51
278.768842
0
ARC
8
0
6
CONTINUOUS
10
103.1042387
20
-81.6781403
40
1
50
90
51
98.768842
0
ARC
8
0
6
CONTINUOUS
10
116.9224097
20
-81.6781403
40
1
50
83.6858892
51
90
0
ARC
8
0
6
CONTINUOUS
10
125.1359833
20
-80.5747689
40
1
50
263.6858892
51
269.0000004
0
ARC
8
0
6
CONTINUOUS
10
138.9474049
20
-82.8161529
40
1
50
82.6858827
51
89.0000004
0
ARC
8
0
6
CONTINUOUS
10
147.1789836
20
-81.8562964
40
1
50
262.6858827
51
267.9999998
0
ARC
8
0
6
CONTINUOUS
10
160.9407424
20
-84.3380867
40
1
50
80.7213775
51
87.9999998
0
ARC
8
0
6
CONTINUOUS
10
169.5607081
20
-83.7198427
40
1
50
260.7213775
51
266.9999974
0
ARC
8
0
6
CONTINUOUS
10
184.3307768
20
-86.4966538
40
1
50
356.9999974
51
86.9999974
0
ARC
8
0
6
CONTINUOUS
10
179.1491031
20
-185.3688763
40
1
50
340.8258821
51
356.9999974
0
ARC
8
0
6
CONTINUOUS
10
179.0075519
20
-191.8653399
40
1
50
160.8258821
51
175.9999987
0
ARC
8
0
6
CONTINUOUS
10
175.8358551
20
-208.5515419
40
1
50
265.9999987
51
355.9999987
0
ARC
8
0
6
CONTINUOUS
10
144.1770264
20
-206.337741
40
1
50
251.8781733
51
265.9999987
0
ARC
8
0
6
CONTINUOUS
10
136.7019015
20
-205.9957243
40
1
50
71.8781733
51
89.0000004
0
ARC
8
0
6
CONTINUOUS
10
123.0040292
20
-203.7563224
40
1
50
261.6084341
51
269.0000004
0
ARC
8
0
6
CONTINUOUS
10
116.9042054
20
-204.8781403
40
1
50
81.6084341
51
90
0
ARC
8
0
6
CONTINUOUS
10
103.1300155
20
-204.8781403
40
1
50
90
51
101.6989407
0
ARC
8
0
6
CONTINUOUS
10
96.9925693
20
-204.1065978
40
1
50
270.9999996
51
281.6989407
0
ARC
8
0
6
CONTINUOUS
10
83.3695582
20
-206.3446931
40
1
50
90.9999996
51
113.2190817
0
ARC
8
0
6
CONTINUOUS
10
75.8625865
20
-207.3888764
40
1
50
274.0000013
51
293.2190817
0
ARC
8
0
6
CONTINUOUS
10
44.249092
20
-209.5995072
40
1
50
184.0000013
51
274.0000013
0
ARC
8
0
6
CONTINUOUS
10
41.0773952
20
-192.9133052
40
1
50
4.0000013
51
19.1741179
0
ARC
8
0
6
CONTINUOUS
10
40.935844
20
-186.4168416
40
1
50
183.0000026
51
199.1741179
0
ENDSEC
0
EOF