<svg width="155.923mm" height="133.331mm" viewBox="0 0 155.923 133.331" xmlns="http://www.w3.org/2000/svg"><g id="svgGroup" stroke-linecap="round" fill-rule="evenodd" font-size="9pt" stroke="#000" stroke-width="0.25mm" fill="none" style="stroke:#000;stroke-width:0.25mm;fill:none"><path d="M 18.226 133.329 L 39.225 131.86 A 1 1 0 0 0 40.155 130.893 L 49.043 130.271 L 48.993 129.557 L 68.615 129.214 A 1 1 0 0 0 69.597 128.197 L 69.595 128.05 L 86.264 128.05 L 86.25 128.847 L 106.881 129.207 L 106.88 129.224 L 115.769 129.845 A 1 1 0 0 0 116.698 130.812 L 137.697 132.281 A 1 1 0 0 0 138.752 131.452 L 142.653 131.725 A 5 5 0 0 0 147.99 127.086 L 149.059 111.793 L 149.376 111.81 A 1 1 0 0 0 150.427 110.864 L 151.476 90.841 L 151.568 89.094 L 152.578 69.82 L 152.669 68.072 L 153.679 48.799 L 153.771 47.051 L 154.781 27.778 L 154.873 26.03 L 155.922 6.008 A 1 1 0 0 0 154.976 4.957 L 134.536 3.885 A 1 1 0 0 1 133.589 2.852 L 133.59 2.823 L 111.516 2.052 L 111.531 1.219 L 89.447 0.833 L 89.447 0 L 67.397 0 A 1 1 0 0 0 66.397 1 L 66.397 1.184 L 45.333 1.551 A 1 1 0 0 0 44.351 2.569 L 44.354 2.752 L 23.3 3.487 A 1 1 0 0 0 22.335 4.522 L 22.348 4.883 L 0.948 6.005 A 1 1 0 0 0 0.001 7.056 L 1.051 27.078 L 1.142 28.826 L 2.152 48.099 L 2.244 49.847 L 3.254 69.12 L 3.346 70.868 L 4.356 90.142 L 4.447 91.889 L 5.497 111.912 A 1 1 0 0 0 6.548 112.858 L 6.865 112.841 L 7.934 128.134 A 5 5 0 0 0 13.271 132.773 L 17.171 132.5 A 1 1 0 0 0 18.226 133.329 Z M 21.459 128.667 L 35.375 127.694 L 34.402 113.778 L 20.486 114.751 L 21.459 128.667 Z M 120.548 126.646 L 134.464 127.619 L 135.437 113.703 L 121.521 112.73 L 120.548 126.646 Z M 70.947 60.475 L 84.897 60.475 L 84.897 46.525 L 70.947 46.525 L 70.947 60.475 Z M 70.947 39.425 L 84.897 39.425 L 84.897 25.475 L 70.947 25.475 L 70.947 39.425 Z M 70.947 18.375 L 84.897 18.375 L 84.897 4.425 L 70.947 4.425 L 70.947 18.375 Z M 70.947 123.625 L 84.897 123.625 L 84.897 109.675 L 70.947 109.675 L 70.947 123.625 Z M 70.947 102.575 L 84.897 102.575 L 84.897 88.625 L 70.947 88.625 L 70.947 102.575 Z M 70.947 81.525 L 84.897 81.525 L 84.897 67.575 L 70.947 67.575 L 70.947 81.525 Z M 5.454 24.169 L 19.385 23.439 L 18.655 9.508 L 4.724 10.238 L 5.454 24.169 Z M 136.538 22.391 L 150.469 23.121 L 151.199 9.19 L 137.268 8.46 L 136.538 22.391 Z M 6.556 45.19 L 20.487 44.46 L 19.757 30.529 L 5.826 31.259 L 6.556 45.19 Z M 9.861 108.253 L 23.792 107.523 L 23.062 93.592 L 9.131 94.322 L 9.861 108.253 Z M 8.759 87.232 L 22.69 86.502 L 21.96 72.571 L 8.029 73.301 L 8.759 87.232 Z M 7.658 66.211 L 21.589 65.481 L 20.859 51.55 L 6.928 52.28 L 7.658 66.211 Z M 135.436 43.412 L 149.367 44.142 L 150.097 30.211 L 136.167 29.481 L 135.436 43.412 Z M 132.131 106.475 L 146.062 107.205 L 146.792 93.274 L 132.861 92.544 L 132.131 106.475 Z M 133.233 85.454 L 147.164 86.184 L 147.894 72.253 L 133.963 71.523 L 133.233 85.454 Z M 134.335 64.433 L 148.266 65.163 L 148.996 51.232 L 135.065 50.502 L 134.335 64.433 Z M 30.427 105.876 L 44.369 105.389 L 43.882 91.448 L 29.941 91.934 L 30.427 105.876 Z M 29.693 84.839 L 43.634 84.352 L 43.147 70.41 L 29.206 70.897 L 29.693 84.839 Z M 28.958 63.802 L 42.9 63.315 L 42.413 49.373 L 28.471 49.86 L 28.958 63.802 Z M 28.224 42.764 L 42.165 42.278 L 41.678 28.336 L 27.737 28.823 L 28.224 42.764 Z M 27.489 21.727 L 41.43 21.24 L 40.944 7.299 L 27.002 7.786 L 27.489 21.727 Z M 111.522 104.69 L 125.463 105.177 L 125.95 91.235 L 112.009 90.748 L 111.522 104.69 Z M 112.256 83.653 L 126.198 84.14 L 126.685 70.198 L 112.743 69.711 L 112.256 83.653 Z M 112.991 62.616 L 126.933 63.102 L 127.419 49.161 L 113.478 48.674 L 112.991 62.616 Z M 113.726 41.578 L 127.667 42.065 L 128.154 28.124 L 114.213 27.637 L 113.726 41.578 Z M 114.46 20.541 L 128.402 21.028 L 128.889 7.087 L 114.947 6.6 L 114.46 20.541 Z M 90.876 124.502 L 104.824 124.746 L 105.067 110.798 L 91.12 110.554 L 90.876 124.502 Z M 91.244 103.455 L 105.191 103.699 L 105.435 89.751 L 91.487 89.508 L 91.244 103.455 Z M 91.611 82.409 L 105.559 82.652 L 105.802 68.704 L 91.854 68.461 L 91.611 82.409 Z M 51.04 125.095 L 64.988 124.852 L 64.745 110.904 L 50.797 111.148 L 51.04 125.095 Z M 50.673 104.049 L 64.621 103.805 L 64.377 89.857 L 50.429 90.101 L 50.673 104.049 Z M 50.305 83.002 L 64.253 82.758 L 64.01 68.811 L 50.062 69.054 L 50.305 83.002 Z M 91.978 61.362 L 105.926 61.605 L 106.17 47.657 L 92.222 47.414 L 91.978 61.362 Z M 92.346 40.315 L 106.294 40.558 L 106.537 26.611 L 92.589 26.367 L 92.346 40.315 Z M 92.713 19.268 L 106.661 19.512 L 106.904 5.564 L 92.956 5.32 L 92.713 19.268 Z M 49.938 61.955 L 63.886 61.712 L 63.642 47.764 L 49.695 48.007 L 49.938 61.955 Z M 49.571 40.908 L 63.518 40.665 L 63.275 26.717 L 49.327 26.96 L 49.571 40.908 Z M 49.203 19.861 L 63.151 19.618 L 62.908 5.67 L 48.96 5.914 L 49.203 19.861 Z M 36.898 128.615 L 43.881 128.126 L 42.765 112.165 L 35.782 112.654 L 36.898 128.615 Z M 13.096 130.279 L 20.079 129.791 L 18.963 113.83 L 11.98 114.318 L 13.096 130.279 Z M 135.844 128.743 L 142.827 129.231 L 143.943 113.27 L 136.96 112.782 L 135.844 128.743 Z M 112.042 127.078 L 119.025 127.567 L 120.142 111.606 L 113.159 111.117 L 112.042 127.078 Z" vector-effect="non-scaling-stroke"/></g></svg>