<svg width="155.326mm" height="133.984mm" viewBox="0 0 155.326 133.984" xmlns="http://www.w3.org/2000/svg"><g id="svgGroup" stroke-linecap="round" fill-rule="evenodd" font-size="9pt" stroke="#000" stroke-width="0.25mm" fill="none" style="stroke:#000;stroke-width:0.25mm;fill:none"><path d="M 6.715 133.984 L 29.733 132.778 L 29.673 131.632 L 49.511 130.94 L 49.471 129.793 L 69.318 129.447 L 69.298 128.3 L 85.963 128.3 L 85.949 129.097 L 105.81 129.444 L 105.783 130.241 L 125.635 130.934 L 125.593 131.73 L 148.612 132.936 L 155.326 4.812 L 133.267 3.656 L 133.296 2.823 L 111.22 2.052 L 111.235 1.219 L 89.148 0.833 L 89.148 0 L 66.098 0 L 66.098 1.184 L 44.033 1.569 L 44.053 2.752 L 21.998 3.522 L 22.039 4.705 L 0 5.86 L 6.715 133.984 Z" vector-effect="non-scaling-stroke"/></g></svg>