0
SECTION
2
HEADER
9
$INSUNITS
70
4
0
ENDSEC
0
SECTION
2
TABLES
0
TABLE
2
LTYPE
0
LTYPE
72
65
70
0
2
CONTINUOUS
3
______
73
0
40
0
0
LTYPE
72
65
70
0
2
DASHED
3
_ _ _ 
73
2
40
7.5
49
5
49
-2.5
0
LTYPE
72
65
70
0
2
DOTTED
3
. . . 
73
2
40
1.5
49
0.5
49
-1
0
ENDTAB
0
TABLE
2
LAYER
0
ENDTAB
0
ENDSEC
0
SECTION
2
ENTITIES
0
LINE
8
0
6
CONTINUOUS
10
49.3182788
20
-211.776201
11
72.3121301
21
-210.1683143
0
LINE
8
0
6
CONTINUOUS
10
72.3121301
20
-210.1683143
11
70.7894252
21
-188.3926202
0
LINE
8
0
6
CONTINUOUS
10
47.8482011
20
-190.7531102
11
49.3182788
21
-211.776201
0
LINE
8
0
6
CONTINUOUS
10
37.6362742
20
-191.2882946
11
47.8482011
21
-190.7531102
0
LINE
8
0
6
CONTINUOUS
10
32.0232428
20
-84.185277
11
37.6362742
21
-191.2882946
0
LINE
8
0
6
CONTINUOUS
10
54.4243418
20
-83.0112851
11
32.0232428
21
-84.185277
0
LINE
8
0
6
CONTINUOUS
10
70.7894252
20
-188.3926202
11
78.3045346
21
-188.1301868
0
LINE
8
0
6
CONTINUOUS
10
76.4324786
20
-80.8801868
11
54.3768182
21
-81.6503874
0
LINE
8
0
6
CONTINUOUS
10
54.3768182
20
-81.6503874
11
54.4243418
21
-83.0112851
0
LINE
8
0
6
CONTINUOUS
10
78.6509671
20
-207.9772925
11
101.6974565
21
-207.5750145
0
LINE
8
0
6
CONTINUOUS
10
101.6974565
20
-207.5750145
11
101.6774377
21
-206.4281403
0
LINE
8
0
6
CONTINUOUS
10
78.3045346
20
-188.1301868
11
78.6509671
21
-207.9772925
0
LINE
8
0
6
CONTINUOUS
10
98.4775666
20
-79.3116741
11
76.4118231
21
-79.6968331
0
LINE
8
0
6
CONTINUOUS
10
76.4118231
20
-79.6968331
11
76.4324786
21
-80.8801868
0
LINE
8
0
6
CONTINUOUS
10
101.6774377
20
-206.4281403
11
118.3420965
21
-206.4281403
0
LINE
8
0
6
CONTINUOUS
10
121.5275666
20
-78.9615476
11
121.5275666
21
-78.1281403
0
LINE
8
0
6
CONTINUOUS
10
121.5275666
20
-78.1281403
11
98.4775666
21
-78.1281403
0
LINE
8
0
6
CONTINUOUS
10
98.4775666
20
-78.1281403
11
98.4775666
21
-79.3116741
0
LINE
8
0
6
CONTINUOUS
10
118.328183
20
-207.225246
11
141.3746724
21
-207.627524
0
LINE
8
0
6
CONTINUOUS
10
141.3746724
20
-207.627524
11
141.7272155
21
-187.4303453
0
LINE
8
0
6
CONTINUOUS
10
118.3420965
20
-206.4281403
11
118.328183
21
-207.225246
0
LINE
8
0
6
CONTINUOUS
10
143.5992714
20
-80.1803453
11
143.6138164
21
-79.3470646
0
LINE
8
0
6
CONTINUOUS
10
143.6138164
20
-79.3470646
11
121.5275666
21
-78.9615476
0
LINE
8
0
6
CONTINUOUS
10
141.7272155
20
-187.4303453
11
149.2711084
21
-187.6937838
0
LINE
8
0
6
CONTINUOUS
10
165.6401241
20
-81.9622465
11
165.6754285
21
-80.9512617
0
LINE
8
0
6
CONTINUOUS
10
165.6754285
20
-80.9512617
11
143.5992714
21
-80.1803453
0
LINE
8
0
6
CONTINUOUS
10
147.772817
20
-209.120349
11
170.7666683
21
-210.7282357
0
LINE
8
0
6
CONTINUOUS
10
170.7666683
20
-210.7282357
11
172.236746
21
-189.7051449
0
LINE
8
0
6
CONTINUOUS
10
149.2711084
20
-187.6937838
11
147.772817
21
-209.120349
0
LINE
8
0
6
CONTINUOUS
10
172.236746
20
-189.7051449
11
182.4486729
21
-190.2403293
0
LINE
8
0
6
CONTINUOUS
10
182.4486729
20
-190.2403293
11
188.0617043
21
-83.1373117
0
LINE
8
0
6
CONTINUOUS
10
188.0617043
20
-83.1373117
11
165.6401241
21
-81.9622465
0
ENDSEC
0
EOF