<svg width="156.038mm" height="133.648mm" viewBox="0 0 156.038 133.648" xmlns="http://www.w3.org/2000/svg"><g id="svgGroup" stroke-linecap="round" fill-rule="evenodd" font-size="9pt" stroke="#000" stroke-width="0.25mm" fill="none" style="stroke:#000;stroke-width:0.25mm;fill:none"><path d="M 17.295 133.648 L 40.289 132.04 L 38.766 110.264 L 46.281 110.002 L 46.628 129.849 L 69.674 129.447 L 69.654 128.3 L 86.319 128.3 L 86.305 129.097 L 109.351 129.499 L 109.704 109.302 L 117.248 109.566 L 115.75 130.992 L 138.743 132.6 L 140.214 111.577 L 150.425 112.112 L 156.038 5.009 L 133.617 3.834 L 133.652 2.823 L 111.576 2.052 L 111.591 1.219 L 89.504 0.833 L 89.504 0 L 66.454 0 L 66.454 1.184 L 44.389 1.569 L 44.409 2.752 L 22.354 3.522 L 22.401 4.883 L 0 6.057 L 5.613 113.16 L 15.825 112.625 L 17.295 133.648 Z" vector-effect="non-scaling-stroke"/></g></svg>