0
SECTION
2
HEADER
9
$INSUNITS
70
4
0
ENDSEC
0
SECTION
2
TABLES
0
TABLE
2
LTYPE
0
LTYPE
72
65
70
0
2
CONTINUOUS
3
______
73
0
40
0
0
LTYPE
72
65
70
0
2
DASHED
3
_ _ _ 
73
2
40
7.5
49
5
49
-2.5
0
LTYPE
72
65
70
0
2
DOTTED
3
. . . 
73
2
40
1.5
49
0.5
49
-1
0
ENDTAB
0
TABLE
2
LAYER
0
ENDTAB
0
ENDSEC
0
SECTION
2
ENTITIES
0
LINE
8
0
6
CONTINUOUS
10
36.5346023
20
-170.2671429
11
59.5530131
21
-169.0607991
0
LINE
8
0
6
CONTINUOUS
10
59.5530131
20
-169.0607991
11
59.4829869
21
-167.7246188
0
LINE
8
0
6
CONTINUOUS
10
56.6285807
20
-146.1324295
11
35.3282585
21
-147.2487321
0
LINE
8
0
6
CONTINUOUS
10
35.3282585
20
-147.2487321
11
36.5346023
21
-170.2671429
0
LINE
8
0
6
CONTINUOUS
10
34.3312585
20
-128.2248395
11
57.3496693
21
-127.0184957
0
LINE
8
0
6
CONTINUOUS
10
57.3496693
20
-127.0184957
11
57.2793074
21
-125.6759112
0
LINE
8
0
6
CONTINUOUS
10
55.1590881
20
-104.0516666
11
33.1249147
21
-105.2064287
0
LINE
8
0
6
CONTINUOUS
10
33.1249147
20
-105.2064287
11
34.3312585
21
-128.2248395
0
LINE
8
0
6
CONTINUOUS
10
59.4829869
20
-167.7246188
11
80.4211134
21
-166.9934433
0
LINE
8
0
6
CONTINUOUS
10
80.4211134
20
-166.9934433
11
80.3808582
21
-165.8406841
0
LINE
8
0
6
CONTINUOUS
10
77.5347661
20
-144.0301867
11
56.5807214
21
-144.7619181
0
LINE
8
0
6
CONTINUOUS
10
56.5807214
20
-144.7619181
11
56.6285807
21
-146.1324295
0
LINE
8
0
6
CONTINUOUS
10
57.2793074
20
-125.6759112
11
78.9518446
21
-124.9190895
0
LINE
8
0
6
CONTINUOUS
10
78.9518446
20
-124.9190895
11
78.9113655
21
-123.7599211
0
LINE
8
0
6
CONTINUOUS
10
76.7999078
20
-101.9301868
11
55.1114526
21
-102.6875643
0
LINE
8
0
6
CONTINUOUS
10
55.1114526
20
-102.6875643
11
55.1590881
21
-104.0516666
0
LINE
8
0
6
CONTINUOUS
10
78.6509671
20
-207.9772925
11
101.6974565
21
-207.5750145
0
LINE
8
0
6
CONTINUOUS
10
101.6974565
20
-207.5750145
11
101.6774377
21
-206.4281403
0
LINE
8
0
6
CONTINUOUS
10
98.4775666
20
-184.5777067
11
78.2486891
21
-184.9308031
0
LINE
8
0
6
CONTINUOUS
10
78.2486891
20
-184.9308031
11
78.6509671
21
-207.9772925
0
LINE
8
0
6
CONTINUOUS
10
80.3808582
20
-165.8406841
11
100.9627101
21
-165.4814265
0
LINE
8
0
6
CONTINUOUS
10
100.9627101
20
-165.4814265
11
100.9425794
21
-164.3281403
0
LINE
8
0
6
CONTINUOUS
10
98.4775666
20
-142.4712937
11
77.5139427
21
-142.8372151
0
LINE
8
0
6
CONTINUOUS
10
77.5139427
20
-142.8372151
11
77.5347661
21
-144.0301867
0
LINE
8
0
6
CONTINUOUS
10
78.9113655
20
-123.7599211
11
100.2279637
21
-123.3878385
0
LINE
8
0
6
CONTINUOUS
10
100.2279637
20
-123.3878385
11
100.2077211
21
-122.2281403
0
LINE
8
0
6
CONTINUOUS
10
98.4775666
20
-100.3648806
11
76.7791963
21
-100.7436271
0
LINE
8
0
6
CONTINUOUS
10
76.7791963
20
-100.7436271
11
76.7999078
21
-101.9301868
0
LINE
8
0
6
CONTINUOUS
10
101.6774377
20
-206.4281403
11
118.3420965
21
-206.4281403
0
LINE
8
0
6
CONTINUOUS
10
121.5275666
20
-184.2275803
11
121.5275666
21
-183.3781403
0
LINE
8
0
6
CONTINUOUS
10
121.5275666
20
-183.3781403
11
98.4775666
21
-183.3781403
0
LINE
8
0
6
CONTINUOUS
10
98.4775666
20
-183.3781403
11
98.4775666
21
-184.5777067
0
LINE
8
0
6
CONTINUOUS
10
100.9425794
20
-164.3281403
11
119.0769549
21
-164.3281403
0
LINE
8
0
6
CONTINUOUS
10
121.5275666
20
-142.1211672
11
121.5275666
21
-141.2781403
0
LINE
8
0
6
CONTINUOUS
10
121.5275666
20
-141.2781403
11
98.4775666
21
-141.2781403
0
LINE
8
0
6
CONTINUOUS
10
98.4775666
20
-141.2781403
11
98.4775666
21
-142.4712937
0
LINE
8
0
6
CONTINUOUS
10
100.2077211
20
-122.2281403
11
119.8118132
21
-122.2281403
0
LINE
8
0
6
CONTINUOUS
10
121.5275666
20
-100.0147542
11
121.5275666
21
-99.1781403
0
LINE
8
0
6
CONTINUOUS
10
121.5275666
20
-99.1781403
11
98.4775666
21
-99.1781403
0
LINE
8
0
6
CONTINUOUS
10
98.4775666
20
-99.1781403
11
98.4775666
21
-100.3648806
0
LINE
8
0
6
CONTINUOUS
10
118.328183
20
-207.225246
11
141.3746724
21
-207.627524
0
LINE
8
0
6
CONTINUOUS
10
141.3746724
20
-207.627524
11
141.7769504
21
-184.5810346
0
LINE
8
0
6
CONTINUOUS
10
141.7769504
20
-184.5810346
11
121.5275666
21
-184.2275803
0
LINE
8
0
6
CONTINUOUS
10
118.3420965
20
-206.4281403
11
118.328183
21
-207.225246
0
LINE
8
0
6
CONTINUOUS
10
119.0629294
20
-165.131658
11
139.6591799
21
-165.4911669
0
LINE
8
0
6
CONTINUOUS
10
142.4969839
20
-143.3303453
11
142.5116968
21
-142.4874466
0
LINE
8
0
6
CONTINUOUS
10
142.5116968
20
-142.4874466
11
121.5275666
21
-142.1211672
0
LINE
8
0
6
CONTINUOUS
10
119.0769549
20
-164.3281403
11
119.0629294
21
-165.131658
0
LINE
8
0
6
CONTINUOUS
10
119.7976758
20
-123.03807
11
141.1286726
21
-123.410404
0
LINE
8
0
6
CONTINUOUS
10
143.2318423
20
-101.2303453
11
143.2464432
21
-100.3938586
0
LINE
8
0
6
CONTINUOUS
10
143.2464432
20
-100.3938586
11
121.5275666
21
-100.0147542
0
LINE
8
0
6
CONTINUOUS
10
119.8118132
20
-122.2281403
11
119.7976758
21
-123.03807
0
LINE
8
0
6
CONTINUOUS
10
139.6311333
20
-166.2943176
11
160.583652
21
-167.0259957
0
LINE
8
0
6
CONTINUOUS
10
163.4358852
20
-145.0833908
11
163.4715253
21
-144.0627924
0
LINE
8
0
6
CONTINUOUS
10
163.4715253
20
-144.0627924
11
142.4969839
21
-143.3303453
0
LINE
8
0
6
CONTINUOUS
10
139.6591799
20
-165.4911669
11
139.6311333
21
-166.2943176
0
LINE
8
0
6
CONTINUOUS
10
141.1004021
20
-124.2199638
11
162.7873314
21
-124.9772881
0
LINE
8
0
6
CONTINUOUS
10
164.9053778
20
-103.0026279
11
164.9407941
21
-101.9884386
0
LINE
8
0
6
CONTINUOUS
10
164.9407941
20
-101.9884386
11
143.2318423
21
-101.2303453
0
LINE
8
0
6
CONTINUOUS
10
141.1286726
20
-123.410404
11
141.1004021
21
-124.2199638
0
LINE
8
0
6
CONTINUOUS
10
160.531934
20
-168.0128338
11
183.5503448
21
-169.2191776
0
LINE
8
0
6
CONTINUOUS
10
183.5503448
20
-169.2191776
11
184.7566886
21
-146.2007668
0
LINE
8
0
6
CONTINUOUS
10
184.7566886
20
-146.2007668
11
163.4358852
21
-145.0833908
0
LINE
8
0
6
CONTINUOUS
10
160.583652
20
-167.0259957
11
160.531934
21
-168.0128338
0
LINE
8
0
6
CONTINUOUS
10
162.7352778
20
-125.9705304
11
185.7536886
21
-127.1768742
0
LINE
8
0
6
CONTINUOUS
10
185.7536886
20
-127.1768742
11
186.9600324
21
-104.1584634
0
LINE
8
0
6
CONTINUOUS
10
186.9600324
20
-104.1584634
11
164.9053778
21
-103.0026279
0
LINE
8
0
6
CONTINUOUS
10
162.7873314
20
-124.9772881
11
162.7352778
21
-125.9705304
0
ENDSEC
0
EOF