<svg width="155.326mm" height="112.963mm" viewBox="0 0 155.326 112.963" xmlns="http://www.w3.org/2000/svg"><g id="svgGroup" stroke-linecap="round" fill-rule="evenodd" font-size="9pt" stroke="#000" stroke-width="0.25mm" fill="none" style="stroke:#000;stroke-width:0.25mm;fill:none"><path d="M 1.206 28.878 L 24.225 27.672 L 24.164 26.511 L 45.838 25.754 L 45.797 24.591 L 67.481 24.213 L 67.461 23.05 L 87.8 23.05 L 87.786 23.863 L 109.484 24.242 L 109.456 25.055 L 131.144 25.812 L 131.102 26.624 L 154.12 27.831 L 155.326 4.812 L 133.267 3.656 L 133.296 2.823 L 111.22 2.052 L 111.235 1.219 L 89.148 0.833 L 89.148 0 L 66.098 0 L 66.098 1.184 L 44.033 1.569 L 44.053 2.752 L 21.998 3.522 L 22.039 4.705 L 0 5.86 L 1.206 28.878 Z M 3.41 70.921 L 26.428 69.714 L 26.368 68.559 L 47.307 67.828 L 47.267 66.672 L 68.216 66.306 L 68.196 65.15 L 87.065 65.15 L 87.051 65.957 L 108.015 66.323 L 107.987 67.129 L 128.941 67.861 L 128.898 68.666 L 151.917 69.873 L 153.123 46.854 L 131.798 45.737 L 131.827 44.897 L 110.485 44.152 L 110.5 43.313 L 89.148 42.94 L 89.148 42.1 L 66.098 42.1 L 66.098 43.29 L 44.767 43.662 L 44.788 44.852 L 23.467 45.597 L 23.508 46.786 L 2.203 47.902 L 3.41 70.921 Z M 5.613 112.963 L 28.631 111.757 L 28.571 110.608 L 48.776 109.902 L 48.736 108.753 L 68.951 108.4 L 68.931 107.25 L 86.33 107.25 L 86.316 108.05 L 106.545 108.403 L 106.517 109.203 L 126.737 109.909 L 126.695 110.709 L 149.713 111.915 L 150.92 88.897 L 130.328 87.818 L 130.358 86.972 L 109.75 86.252 L 109.765 85.406 L 89.148 85.046 L 89.148 84.2 L 66.098 84.2 L 66.098 85.396 L 45.502 85.756 L 45.523 86.952 L 24.936 87.671 L 24.978 88.867 L 4.407 89.945 L 5.613 112.963 Z" vector-effect="non-scaling-stroke"/></g></svg>