0
SECTION
2
HEADER
9
$INSUNITS
70
4
0
ENDSEC
0
SECTION
2
TABLES
0
TABLE
2
LTYPE
0
LTYPE
72
65
70
64
2
CONTINUOUS
3
______
73
0
40
0
0
ENDTAB
0
TABLE
2
LAYER
0
ENDTAB
0
ENDSEC
0
SECTION
2
ENTITIES
0
LINE
8
0
10
27.9922946
20
-191.0912256
11
51.0107054
21
-189.8848818
0
LINE
8
0
10
51.0107054
20
-189.8848818
11
50.9505057
21
-188.7362028
0
LINE
8
0
10
47.3571082
20
-166.9947261
11
26.7859508
21
-168.0728148
0
LINE
8
0
10
26.7859508
20
-168.0728148
11
27.9922946
21
-191.0912256
0
LINE
8
0
10
25.7889508
20
-149.0489222
11
48.8073616
21
-147.8425784
0
LINE
8
0
10
48.8073616
20
-147.8425784
11
48.7468263
21
-146.6874952
0
LINE
8
0
10
45.8876155
20
-124.9139632
11
24.582607
21
-126.0305114
0
LINE
8
0
10
24.582607
20
-126.0305114
11
25.7889508
21
-149.0489222
0
LINE
8
0
10
23.585607
20
-107.0066188
11
46.6040178
21
-105.800275
0
LINE
8
0
10
46.6040178
20
-105.800275
11
46.5431468
21
-104.6387876
0
LINE
8
0
10
44.4181229
20
-82.8332003
11
22.3792632
21
-83.988208
0
LINE
8
0
10
22.3792632
20
-83.988208
11
23.585607
21
-107.0066188
0
LINE
8
0
10
50.9505057
20
-188.7362028
11
71.1557478
21
-188.0306202
0
LINE
8
0
10
71.1557478
20
-188.0306202
11
71.1156045
21
-186.8810656
0
LINE
8
0
10
67.9021953
20
-165.0801867
11
47.3153558
21
-165.799095
0
LINE
8
0
10
47.3153558
20
-165.799095
11
47.3571082
21
-166.9947261
0
LINE
8
0
10
48.7468263
20
-146.6874952
11
69.686479
21
-145.9562664
0
LINE
8
0
10
69.686479
20
-145.9562664
11
69.6461119
21
-144.8003026
0
LINE
8
0
10
67.1673369
20
-122.9801867
11
45.846087
21
-123.7247412
0
LINE
8
0
10
45.846087
20
-123.7247412
11
45.8876155
21
-124.9139632
0
LINE
8
0
10
46.5431468
20
-104.6387876
11
68.2172102
21
-103.8819126
0
LINE
8
0
10
68.2172102
20
-103.8819126
11
68.1766192
21
-102.7195397
0
LINE
8
0
10
66.4324786
20
-80.8801868
11
44.3768182
21
-81.6503874
0
LINE
8
0
10
44.3768182
20
-81.6503874
11
44.4181229
21
-82.8332003
0
LINE
8
0
10
71.1156045
20
-186.8810656
11
91.3300833
21
-186.5282205
0
LINE
8
0
10
91.3300833
20
-186.5282205
11
91.3100086
21
-185.3781403
0
LINE
8
0
10
88.4775666
20
-163.5245002
11
67.8813159
21
-163.8840091
0
LINE
8
0
10
67.8813159
20
-163.8840091
11
67.9021953
21
-165.0801867
0
LINE
8
0
10
69.6461119
20
-144.8003026
11
90.5953369
21
-144.4346325
0
LINE
8
0
10
90.5953369
20
-144.4346325
11
90.5751503
21
-143.2781403
0
LINE
8
0
10
88.4775666
20
-121.4180871
11
67.1465695
21
-121.7904211
0
LINE
8
0
10
67.1465695
20
-121.7904211
11
67.1673369
21
-122.9801867
0
LINE
8
0
10
68.1766192
20
-102.7195397
11
89.8605905
21
-102.3410445
0
LINE
8
0
10
89.8605905
20
-102.3410445
11
89.8402919
21
-101.1781403
0
LINE
8
0
10
88.4775666
20
-79.3116741
11
66.4118231
21
-79.6968331
0
LINE
8
0
10
66.4118231
20
-79.6968331
11
66.4324786
21
-80.8801868
0
LINE
8
0
10
91.3100086
20
-185.3781403
11
108.7095257
21
-185.3781403
0
LINE
8
0
10
111.5275666
20
-163.1743737
11
111.5275666
21
-162.3281403
0
LINE
8
0
10
111.5275666
20
-162.3281403
11
88.4775666
21
-162.3281403
0
LINE
8
0
10
88.4775666
20
-162.3281403
11
88.4775666
21
-163.5245002
0
LINE
8
0
10
90.5751503
20
-143.2781403
11
109.444384
21
-143.2781403
0
LINE
8
0
10
111.5275666
20
-121.0679607
11
111.5275666
21
-120.2281403
0
LINE
8
0
10
111.5275666
20
-120.2281403
11
88.4775666
21
-120.2281403
0
LINE
8
0
10
88.4775666
20
-120.2281403
11
88.4775666
21
-121.4180871
0
LINE
8
0
10
89.8402919
20
-101.1781403
11
110.1792423
21
-101.1781403
0
LINE
8
0
10
111.5275666
20
-78.9615476
11
111.5275666
21
-78.1281403
0
LINE
8
0
10
111.5275666
20
-78.1281403
11
88.4775666
21
-78.1281403
0
LINE
8
0
10
88.4775666
20
-78.1281403
11
88.4775666
21
-79.3116741
0
LINE
8
0
10
108.6955562
20
-186.178452
11
128.9244336
21
-186.5315484
0
LINE
8
0
10
132.1295548
20
-164.3803453
11
132.1443236
21
-163.5342406
0
LINE
8
0
10
132.1443236
20
-163.5342406
11
111.5275666
21
-163.1743737
0
LINE
8
0
10
108.7095257
20
-185.3781403
11
108.6955562
21
-186.178452
0
LINE
8
0
10
109.4303026
20
-144.084864
11
130.3939262
21
-144.4507854
0
LINE
8
0
10
132.8644131
20
-122.2803453
11
132.87907
21
-121.4406526
0
LINE
8
0
10
132.87907
20
-121.4406526
11
111.5275666
21
-121.0679607
0
LINE
8
0
10
109.444384
20
-143.2781403
11
109.4303026
21
-144.084864
0
LINE
8
0
10
110.165049
20
-101.991276
11
131.8634189
21
-102.3700225
0
LINE
8
0
10
133.5992714
20
-80.1803453
11
133.6138164
21
-79.3470646
0
LINE
8
0
10
133.6138164
20
-79.3470646
11
111.5275666
21
-78.9615476
0
LINE
8
0
10
110.1792423
20
-101.1781403
11
110.165049
21
-101.991276
0
LINE
8
0
10
128.8964989
20
-187.3314945
11
149.1161332
21
-188.0375797
0
LINE
8
0
10
152.7073578
20
-165.9456874
11
152.7368909
21
-165.0999693
0
LINE
8
0
10
152.7368909
20
-165.0999693
11
132.1295548
21
-164.3803453
0
LINE
8
0
10
128.9244336
20
-186.5315484
11
128.8964989
21
-187.3314945
0
LINE
8
0
10
130.3657677
20
-145.2571407
11
151.3198126
21
-145.9888721
0
LINE
8
0
10
154.1768504
20
-123.8649245
11
154.2061597
21
-123.0256155
0
LINE
8
0
10
154.2061597
20
-123.0256155
11
132.8644131
21
-122.2803453
0
LINE
8
0
10
130.3939262
20
-144.4507854
11
130.3657677
21
-145.2571407
0
LINE
8
0
10
131.8350365
20
-103.1827869
11
153.523492
21
-103.9401645
0
LINE
8
0
10
155.646343
20
-81.7841616
11
155.6754285
21
-80.9512617
0
LINE
8
0
10
155.6754285
20
-80.9512617
11
133.5992714
21
-80.1803453
0
LINE
8
0
10
131.8634189
20
-102.3700225
11
131.8350365
21
-103.1827869
0
LINE
8
0
10
149.0742417
20
-188.8369165
11
172.0926525
21
-190.0432603
0
LINE
8
0
10
172.0926525
20
-190.0432603
11
173.2989963
21
-167.0248495
0
LINE
8
0
10
173.2989963
20
-167.0248495
11
152.7073578
21
-165.9456874
0
LINE
8
0
10
149.1161332
20
-188.0375797
11
149.0742417
21
-188.8369165
0
LINE
8
0
10
151.2775855
20
-146.7946131
11
174.2959963
21
-148.0009569
0
LINE
8
0
10
174.2959963
20
-148.0009569
11
175.5023401
21
-124.9825461
0
LINE
8
0
10
175.5023401
20
-124.9825461
11
154.1768504
21
-123.8649245
0
LINE
8
0
10
151.3198126
20
-145.9888721
11
151.2775855
21
-146.7946131
0
LINE
8
0
10
153.4809293
20
-104.7523097
11
176.4993401
21
-105.9586535
0
LINE
8
0
10
176.4993401
20
-105.9586535
11
177.7056839
21
-82.9402427
0
LINE
8
0
10
177.7056839
20
-82.9402427
11
155.646343
21
-81.7841616
0
LINE
8
0
10
153.523492
20
-103.9401645
11
153.4809293
21
-104.7523097
0
ENDSEC
0
EOF