<svg width="153.835mm" height="112.598mm" viewBox="0 0 153.835 112.598" xmlns="http://www.w3.org/2000/svg"><g id="svgGroup" stroke-linecap="round" fill-rule="evenodd" font-size="9pt" stroke="#000" stroke-width="0.25mm" fill="none" style="stroke:#000;stroke-width:0.25mm;fill:none"><path d="M 1.206 29.047 L 24.225 27.84 L 24.154 26.498 L 45.827 25.741 L 45.786 24.582 L 67.103 24.21 L 67.083 23.05 L 86.687 23.05 L 86.673 23.86 L 108.004 24.232 L 107.975 25.042 L 129.662 25.799 L 129.61 26.792 L 152.629 27.999 L 153.835 4.98 L 131.78 3.824 L 131.816 2.81 L 110.107 2.052 L 110.122 1.216 L 88.403 0.837 L 88.403 0 L 65.353 0 L 65.353 1.187 L 43.654 1.565 L 43.675 2.752 L 21.987 3.509 L 22.034 4.874 L 0 6.028 L 1.206 29.047 Z M 3.41 71.089 L 26.428 69.883 L 26.358 68.546 L 47.296 67.815 L 47.256 66.663 L 67.838 66.303 L 67.818 65.15 L 85.952 65.15 L 85.938 65.954 L 106.534 66.313 L 106.506 67.116 L 127.459 67.848 L 127.407 68.835 L 150.425 70.041 L 151.632 47.023 L 130.311 45.905 L 130.347 44.885 L 109.372 44.152 L 109.387 43.309 L 88.403 42.943 L 88.403 42.1 L 65.353 42.1 L 65.353 43.293 L 44.389 43.659 L 44.41 44.852 L 23.456 45.584 L 23.504 46.954 L 2.203 48.071 L 3.41 71.089 Z M 45.526 108.799 L 68.573 108.397 L 68.553 107.25 L 85.217 107.25 L 85.203 108.047 L 108.25 108.449 L 108.652 85.403 L 88.403 85.049 L 88.403 84.2 L 65.353 84.2 L 65.353 85.4 L 45.124 85.753 L 45.526 108.799 Z M 16.193 112.598 L 39.187 110.99 L 37.579 87.996 L 14.585 89.604 L 16.193 112.598 Z M 114.648 109.942 L 137.642 111.55 L 139.25 88.556 L 116.256 86.948 L 114.648 109.942 Z" vector-effect="non-scaling-stroke"/></g></svg>