0
SECTION
2
HEADER
9
$INSUNITS
70
4
0
ENDSEC
0
SECTION
2
TABLES
0
TABLE
2
LTYPE
0
LTYPE
72
65
70
0
2
CONTINUOUS
3
______
73
0
40
0
0
LTYPE
72
65
70
0
2
DASHED
3
_ _ _ 
73
2
40
7.5
49
5
49
-2.5
0
LTYPE
72
65
70
0
2
DOTTED
3
. . . 
73
2
40
1.5
49
0.5
49
-1
0
ENDTAB
0
TABLE
2
LAYER
0
ENDTAB
0
ENDSEC
0
SECTION
2
ENTITIES
0
LINE
8
0
6
CONTINUOUS
10
37.6362742
20
-191.2882946
11
60.654685
21
-190.0819508
0
LINE
8
0
6
CONTINUOUS
10
60.654685
20
-190.0819508
11
60.5848266
21
-188.7489726
0
LINE
8
0
6
CONTINUOUS
10
57.363327
20
-167.172811
11
36.4299304
21
-168.2698838
0
LINE
8
0
6
CONTINUOUS
10
36.4299304
20
-168.2698838
11
37.6362742
21
-191.2882946
0
LINE
8
0
6
CONTINUOUS
10
35.4329304
20
-149.2459912
11
58.4513412
21
-148.0396474
0
LINE
8
0
6
CONTINUOUS
10
58.4513412
20
-148.0396474
11
58.3811471
21
-146.700265
0
LINE
8
0
6
CONTINUOUS
10
55.8938344
20
-125.0920481
11
34.2265866
21
-126.2275804
0
LINE
8
0
6
CONTINUOUS
10
34.2265866
20
-126.2275804
11
35.4329304
21
-149.2459912
0
LINE
8
0
6
CONTINUOUS
10
33.2295866
20
-107.2036878
11
56.2479974
21
-105.997344
0
LINE
8
0
6
CONTINUOUS
10
56.2479974
20
-105.997344
11
56.1774677
21
-104.6515574
0
LINE
8
0
6
CONTINUOUS
10
54.4243418
20
-83.0112851
11
32.0232428
21
-84.185277
0
LINE
8
0
6
CONTINUOUS
10
32.0232428
20
-84.185277
11
33.2295866
21
-107.2036878
0
LINE
8
0
6
CONTINUOUS
10
60.5848266
20
-188.7489726
11
81.1557478
21
-188.0306202
0
LINE
8
0
6
CONTINUOUS
10
81.1557478
20
-188.0306202
11
81.1156045
21
-186.8810656
0
LINE
8
0
6
CONTINUOUS
10
77.9021953
20
-165.0801867
11
57.3153558
21
-165.799095
0
LINE
8
0
6
CONTINUOUS
10
57.3153558
20
-165.799095
11
57.363327
21
-167.172811
0
LINE
8
0
6
CONTINUOUS
10
58.3811471
20
-146.700265
11
79.686479
21
-145.9562664
0
LINE
8
0
6
CONTINUOUS
10
79.686479
20
-145.9562664
11
79.6461119
21
-144.8003026
0
LINE
8
0
6
CONTINUOUS
10
77.1673369
20
-122.9801867
11
55.846087
21
-123.7247412
0
LINE
8
0
6
CONTINUOUS
10
55.846087
20
-123.7247412
11
55.8938344
21
-125.0920481
0
LINE
8
0
6
CONTINUOUS
10
56.1774677
20
-104.6515574
11
78.2172102
21
-103.8819126
0
LINE
8
0
6
CONTINUOUS
10
78.2172102
20
-103.8819126
11
78.1766192
21
-102.7195397
0
LINE
8
0
6
CONTINUOUS
10
76.4324786
20
-80.8801868
11
54.3768182
21
-81.6503874
0
LINE
8
0
6
CONTINUOUS
10
54.3768182
20
-81.6503874
11
54.4243418
21
-83.0112851
0
LINE
8
0
6
CONTINUOUS
10
81.1156045
20
-186.8810656
11
101.3300833
21
-186.5282205
0
LINE
8
0
6
CONTINUOUS
10
101.3300833
20
-186.5282205
11
101.3100086
21
-185.3781403
0
LINE
8
0
6
CONTINUOUS
10
98.4775666
20
-163.5245002
11
77.8813159
21
-163.8840091
0
LINE
8
0
6
CONTINUOUS
10
77.8813159
20
-163.8840091
11
77.9021953
21
-165.0801867
0
LINE
8
0
6
CONTINUOUS
10
79.6461119
20
-144.8003026
11
100.5953369
21
-144.4346325
0
LINE
8
0
6
CONTINUOUS
10
100.5953369
20
-144.4346325
11
100.5751503
21
-143.2781403
0
LINE
8
0
6
CONTINUOUS
10
98.4775666
20
-121.4180871
11
77.1465695
21
-121.7904211
0
LINE
8
0
6
CONTINUOUS
10
77.1465695
20
-121.7904211
11
77.1673369
21
-122.9801867
0
LINE
8
0
6
CONTINUOUS
10
78.1766192
20
-102.7195397
11
99.8605905
21
-102.3410445
0
LINE
8
0
6
CONTINUOUS
10
99.8605905
20
-102.3410445
11
99.8402919
21
-101.1781403
0
LINE
8
0
6
CONTINUOUS
10
98.4775666
20
-79.3116741
11
76.4118231
21
-79.6968331
0
LINE
8
0
6
CONTINUOUS
10
76.4118231
20
-79.6968331
11
76.4324786
21
-80.8801868
0
LINE
8
0
6
CONTINUOUS
10
101.3100086
20
-185.3781403
11
118.7095257
21
-185.3781403
0
LINE
8
0
6
CONTINUOUS
10
121.5275666
20
-163.1743737
11
121.5275666
21
-162.3281403
0
LINE
8
0
6
CONTINUOUS
10
121.5275666
20
-162.3281403
11
98.4775666
21
-162.3281403
0
LINE
8
0
6
CONTINUOUS
10
98.4775666
20
-162.3281403
11
98.4775666
21
-163.5245002
0
LINE
8
0
6
CONTINUOUS
10
100.5751503
20
-143.2781403
11
119.444384
21
-143.2781403
0
LINE
8
0
6
CONTINUOUS
10
121.5275666
20
-121.0679607
11
121.5275666
21
-120.2281403
0
LINE
8
0
6
CONTINUOUS
10
121.5275666
20
-120.2281403
11
98.4775666
21
-120.2281403
0
LINE
8
0
6
CONTINUOUS
10
98.4775666
20
-120.2281403
11
98.4775666
21
-121.4180871
0
LINE
8
0
6
CONTINUOUS
10
99.8402919
20
-101.1781403
11
120.1792423
21
-101.1781403
0
LINE
8
0
6
CONTINUOUS
10
121.5275666
20
-78.9615476
11
121.5275666
21
-78.1281403
0
LINE
8
0
6
CONTINUOUS
10
121.5275666
20
-78.1281403
11
98.4775666
21
-78.1281403
0
LINE
8
0
6
CONTINUOUS
10
98.4775666
20
-78.1281403
11
98.4775666
21
-79.3116741
0
LINE
8
0
6
CONTINUOUS
10
118.6955562
20
-186.178452
11
138.9244336
21
-186.5315484
0
LINE
8
0
6
CONTINUOUS
10
142.1295548
20
-164.3803453
11
142.1443236
21
-163.5342406
0
LINE
8
0
6
CONTINUOUS
10
142.1443236
20
-163.5342406
11
121.5275666
21
-163.1743737
0
LINE
8
0
6
CONTINUOUS
10
118.7095257
20
-185.3781403
11
118.6955562
21
-186.178452
0
LINE
8
0
6
CONTINUOUS
10
119.4303026
20
-144.084864
11
140.3939262
21
-144.4507854
0
LINE
8
0
6
CONTINUOUS
10
142.8644131
20
-122.2803453
11
142.87907
21
-121.4406526
0
LINE
8
0
6
CONTINUOUS
10
142.87907
20
-121.4406526
11
121.5275666
21
-121.0679607
0
LINE
8
0
6
CONTINUOUS
10
119.444384
20
-143.2781403
11
119.4303026
21
-144.084864
0
LINE
8
0
6
CONTINUOUS
10
120.165049
20
-101.991276
11
141.8634189
21
-102.3700225
0
LINE
8
0
6
CONTINUOUS
10
143.5992714
20
-80.1803453
11
143.6138164
21
-79.3470646
0
LINE
8
0
6
CONTINUOUS
10
143.6138164
20
-79.3470646
11
121.5275666
21
-78.9615476
0
LINE
8
0
6
CONTINUOUS
10
120.1792423
20
-101.1781403
11
120.165049
21
-101.991276
0
LINE
8
0
6
CONTINUOUS
10
138.8964989
20
-187.3314945
11
159.4818123
21
-188.0503495
0
LINE
8
0
6
CONTINUOUS
10
162.7011389
20
-166.1237723
11
162.7368909
21
-165.0999693
0
LINE
8
0
6
CONTINUOUS
10
162.7368909
20
-165.0999693
11
142.1295548
21
-164.3803453
0
LINE
8
0
6
CONTINUOUS
10
138.9244336
20
-186.5315484
11
138.8964989
21
-187.3314945
0
LINE
8
0
6
CONTINUOUS
10
140.3657677
20
-145.2571407
11
161.6854917
21
-146.0016419
0
LINE
8
0
6
CONTINUOUS
10
164.1706315
20
-124.0430094
11
164.2061597
21
-123.0256155
0
LINE
8
0
6
CONTINUOUS
10
164.2061597
20
-123.0256155
11
142.8644131
21
-122.2803453
0
LINE
8
0
6
CONTINUOUS
10
140.3939262
20
-144.4507854
11
140.3657677
21
-145.2571407
0
LINE
8
0
6
CONTINUOUS
10
141.8350365
20
-103.1827869
11
163.8891711
21
-103.9529343
0
LINE
8
0
6
CONTINUOUS
10
165.6401241
20
-81.9622465
11
165.6754285
21
-80.9512617
0
LINE
8
0
6
CONTINUOUS
10
165.6754285
20
-80.9512617
11
143.5992714
21
-80.1803453
0
LINE
8
0
6
CONTINUOUS
10
141.8634189
20
-102.3700225
11
141.8350365
21
-103.1827869
0
LINE
8
0
6
CONTINUOUS
10
159.4302621
20
-189.0339855
11
182.4486729
21
-190.2403293
0
LINE
8
0
6
CONTINUOUS
10
182.4486729
20
-190.2403293
11
183.6550167
21
-167.2219185
0
LINE
8
0
6
CONTINUOUS
10
183.6550167
20
-167.2219185
11
162.7011389
21
-166.1237723
0
LINE
8
0
6
CONTINUOUS
10
159.4818123
20
-188.0503495
11
159.4302621
21
-189.0339855
0
LINE
8
0
6
CONTINUOUS
10
161.6336059
20
-146.9916821
11
184.6520167
21
-148.1980259
0
LINE
8
0
6
CONTINUOUS
10
184.6520167
20
-148.1980259
11
185.8583605
21
-125.1796151
0
LINE
8
0
6
CONTINUOUS
10
185.8583605
20
-125.1796151
11
164.1706315
21
-124.0430094
0
LINE
8
0
6
CONTINUOUS
10
161.6854917
20
-146.0016419
11
161.6336059
21
-146.9916821
0
LINE
8
0
6
CONTINUOUS
10
163.8369497
20
-104.9493787
11
186.8553605
21
-106.1557225
0
LINE
8
0
6
CONTINUOUS
10
186.8553605
20
-106.1557225
11
188.0617043
21
-83.1373117
0
LINE
8
0
6
CONTINUOUS
10
188.0617043
20
-83.1373117
11
165.6401241
21
-81.9622465
0
LINE
8
0
6
CONTINUOUS
10
163.8891711
20
-103.9529343
11
163.8369497
21
-104.9493787
0
ENDSEC
0
EOF