0
SECTION
2
HEADER
9
$INSUNITS
70
4
0
ENDSEC
0
SECTION
2
TABLES
0
TABLE
2
LTYPE
0
LTYPE
72
65
70
64
2
CONTINUOUS
3
______
73
0
40
0
0
ENDTAB
0
TABLE
2
LAYER
0
ENDTAB
0
ENDSEC
0
SECTION
2
ENTITIES
0
LINE
8
0
10
39.0939665
20
-212.1123773
11
62.1123773
21
-210.9060335
0
LINE
8
0
10
62.1123773
20
-210.9060335
11
62.0523454
21
-209.7605566
0
LINE
8
0
10
58.0918545
20
-188.0351076
11
37.8876227
21
-189.0939665
0
LINE
8
0
10
37.8876227
20
-189.0939665
11
39.0939665
21
-212.1123773
0
LINE
8
0
10
36.8906227
20
-170.0700739
11
59.9090335
21
-168.8637301
0
LINE
8
0
10
59.9090335
20
-168.8637301
11
59.848666
21
-167.711849
0
LINE
8
0
10
56.6223619
20
-145.9543447
11
35.6842789
21
-147.0516631
0
LINE
8
0
10
35.6842789
20
-147.0516631
11
36.8906227
21
-170.0700739
0
LINE
8
0
10
34.6872789
20
-128.0277705
11
57.7056897
21
-126.8214267
0
LINE
8
0
10
57.7056897
20
-126.8214267
11
57.6449865
21
-125.6631414
0
LINE
8
0
10
55.1528692
20
-103.8735818
11
33.4809351
21
-105.0093597
0
LINE
8
0
10
33.4809351
20
-105.0093597
11
34.6872789
21
-128.0277705
0
LINE
8
0
10
62.0523454
20
-209.7605566
11
81.8903822
21
-209.0677971
0
LINE
8
0
10
81.8903822
20
-209.0677971
11
81.8503508
21
-207.921447
0
LINE
8
0
10
78.2696244
20
-186.1301867
11
58.0499902
21
-186.8362719
0
LINE
8
0
10
58.0499902
20
-186.8362719
11
58.0918545
21
-188.0351076
0
LINE
8
0
10
59.848666
20
-167.711849
11
80.4211134
21
-166.9934433
0
LINE
8
0
10
80.4211134
20
-166.9934433
11
80.3808582
21
-165.8406841
0
LINE
8
0
10
77.5347661
20
-144.0301867
11
56.5807214
21
-144.7619181
0
LINE
8
0
10
56.5807214
20
-144.7619181
11
56.6223619
21
-145.9543447
0
LINE
8
0
10
57.6449865
20
-125.6631414
11
78.9518446
21
-124.9190895
0
LINE
8
0
10
78.9518446
20
-124.9190895
11
78.9113655
21
-123.7599211
0
LINE
8
0
10
76.7999078
20
-101.9301868
11
55.1114526
21
-102.6875643
0
LINE
8
0
10
55.1114526
20
-102.6875643
11
55.1528692
21
-103.8735818
0
LINE
8
0
10
81.8503508
20
-207.921447
11
101.6974565
21
-207.5750145
0
LINE
8
0
10
101.6974565
20
-207.5750145
11
101.6774377
21
-206.4281403
0
LINE
8
0
10
98.4775666
20
-184.5777067
11
78.2486891
21
-184.9308031
0
LINE
8
0
10
78.2486891
20
-184.9308031
11
78.2696244
21
-186.1301867
0
LINE
8
0
10
80.3808582
20
-165.8406841
11
100.9627101
21
-165.4814265
0
LINE
8
0
10
100.9627101
20
-165.4814265
11
100.9425794
21
-164.3281403
0
LINE
8
0
10
98.4775666
20
-142.4712937
11
77.5139427
21
-142.8372151
0
LINE
8
0
10
77.5139427
20
-142.8372151
11
77.5347661
21
-144.0301867
0
LINE
8
0
10
78.9113655
20
-123.7599211
11
100.2279637
21
-123.3878385
0
LINE
8
0
10
100.2279637
20
-123.3878385
11
100.2077211
21
-122.2281403
0
LINE
8
0
10
98.4775666
20
-100.3648806
11
76.7791963
21
-100.7436271
0
LINE
8
0
10
76.7791963
20
-100.7436271
11
76.7999078
21
-101.9301868
0
LINE
8
0
10
101.6774377
20
-206.4281403
11
118.3420965
21
-206.4281403
0
LINE
8
0
10
121.5275666
20
-184.2275803
11
121.5275666
21
-183.3781403
0
LINE
8
0
10
121.5275666
20
-183.3781403
11
98.4775666
21
-183.3781403
0
LINE
8
0
10
98.4775666
20
-183.3781403
11
98.4775666
21
-184.5777067
0
LINE
8
0
10
100.9425794
20
-164.3281403
11
119.0769549
21
-164.3281403
0
LINE
8
0
10
121.5275666
20
-142.1211672
11
121.5275666
21
-141.2781403
0
LINE
8
0
10
121.5275666
20
-141.2781403
11
98.4775666
21
-141.2781403
0
LINE
8
0
10
98.4775666
20
-141.2781403
11
98.4775666
21
-142.4712937
0
LINE
8
0
10
100.2077211
20
-122.2281403
11
119.8118132
21
-122.2281403
0
LINE
8
0
10
121.5275666
20
-100.0147542
11
121.5275666
21
-99.1781403
0
LINE
8
0
10
121.5275666
20
-99.1781403
11
98.4775666
21
-99.1781403
0
LINE
8
0
10
98.4775666
20
-99.1781403
11
98.4775666
21
-100.3648806
0
LINE
8
0
10
118.328183
20
-207.225246
11
138.1896873
21
-207.5719299
0
LINE
8
0
10
141.7621256
20
-185.4303453
11
141.7769504
21
-184.5810346
0
LINE
8
0
10
141.7769504
20
-184.5810346
11
121.5275666
21
-184.2275803
0
LINE
8
0
10
118.3420965
20
-206.4281403
11
118.328183
21
-207.225246
0
LINE
8
0
10
119.0629294
20
-165.131658
11
139.6591799
21
-165.4911669
0
LINE
8
0
10
142.4969839
20
-143.3303453
11
142.5116968
21
-142.4874466
0
LINE
8
0
10
142.5116968
20
-142.4874466
11
121.5275666
21
-142.1211672
0
LINE
8
0
10
119.0769549
20
-164.3281403
11
119.0629294
21
-165.131658
0
LINE
8
0
10
119.7976758
20
-123.03807
11
141.1286726
21
-123.410404
0
LINE
8
0
10
143.2318423
20
-101.2303453
11
143.2464432
21
-100.3938586
0
LINE
8
0
10
143.2464432
20
-100.3938586
11
121.5275666
21
-100.0147542
0
LINE
8
0
10
119.8118132
20
-122.2281403
11
119.7976758
21
-123.03807
0
LINE
8
0
10
138.1618645
20
-208.3686714
11
158.0142935
21
-209.0619335
0
LINE
8
0
10
161.9726115
20
-186.9860689
11
162.0022565
21
-186.1371462
0
LINE
8
0
10
162.0022565
20
-186.1371462
11
141.7621256
21
-185.4303453
0
LINE
8
0
10
138.1896873
20
-207.5719299
11
138.1618645
21
-208.3686714
0
LINE
8
0
10
139.6311333
20
-166.2943176
11
160.2179729
21
-167.0132259
0
LINE
8
0
10
163.4421041
20
-144.905306
11
163.4715253
21
-144.0627924
0
LINE
8
0
10
163.4715253
20
-144.0627924
11
142.4969839
21
-143.3303453
0
LINE
8
0
10
139.6591799
20
-165.4911669
11
139.6311333
21
-166.2943176
0
LINE
8
0
10
141.1004021
20
-124.2199638
11
162.4216523
21
-124.9645183
0
LINE
8
0
10
164.9115967
20
-102.8245431
11
164.9407941
21
-101.9884386
0
LINE
8
0
10
164.9407941
20
-101.9884386
11
143.2318423
21
-101.2303453
0
LINE
8
0
10
141.1286726
20
-123.410404
11
141.1004021
21
-124.2199638
0
LINE
8
0
10
157.9725698
20
-209.8580682
11
180.9909806
21
-211.064412
0
LINE
8
0
10
180.9909806
20
-211.064412
11
182.1973244
21
-188.0460012
0
LINE
8
0
10
182.1973244
20
-188.0460012
11
161.9726115
21
-186.9860689
0
LINE
8
0
10
158.0142935
20
-209.0619335
11
157.9725698
21
-209.8580682
0
LINE
8
0
10
160.1759136
20
-167.8157648
11
183.1943244
21
-169.0221086
0
LINE
8
0
10
183.1943244
20
-169.0221086
11
184.4006682
21
-146.0036978
0
LINE
8
0
10
184.4006682
20
-146.0036978
11
163.4421041
21
-144.905306
0
LINE
8
0
10
160.2179729
20
-167.0132259
11
160.1759136
21
-167.8157648
0
LINE
8
0
10
162.3792574
20
-125.7734614
11
185.3976682
21
-126.9798052
0
LINE
8
0
10
185.3976682
20
-126.9798052
11
186.604012
21
-103.9613944
0
LINE
8
0
10
186.604012
20
-103.9613944
11
164.9115967
21
-102.8245431
0
LINE
8
0
10
162.4216523
20
-124.9645183
11
162.3792574
21
-125.7734614
0
ENDSEC
0
EOF