<svg width="153.123mm" height="112.934mm" viewBox="0 0 153.123 112.934" xmlns="http://www.w3.org/2000/svg"><g id="svgGroup" stroke-linecap="round" fill-rule="evenodd" font-size="9pt" stroke="#000" stroke-width="0.25mm" fill="none" style="stroke:#000;stroke-width:0.25mm;fill:none"><path d="M 1.206 28.85 L 24.225 27.643 L 24.164 26.485 L 45.471 25.741 L 45.43 24.582 L 66.747 24.21 L 66.727 23.05 L 86.331 23.05 L 86.317 23.86 L 107.648 24.232 L 107.619 25.042 L 128.941 25.786 L 128.898 26.595 L 151.917 27.802 L 153.123 4.783 L 131.431 3.646 L 131.46 2.81 L 109.751 2.052 L 109.766 1.216 L 88.047 0.837 L 88.047 0 L 64.997 0 L 64.997 1.187 L 43.298 1.565 L 43.319 2.752 L 21.631 3.509 L 21.672 4.695 L 0 5.831 L 1.206 28.85 Z M 3.41 70.892 L 26.428 69.686 L 26.368 68.534 L 46.94 67.815 L 46.9 66.663 L 67.482 66.303 L 67.462 65.15 L 85.596 65.15 L 85.582 65.954 L 106.178 66.313 L 106.15 67.116 L 126.737 67.835 L 126.695 68.638 L 149.713 69.844 L 150.92 46.826 L 129.961 45.727 L 129.991 44.885 L 109.016 44.152 L 109.031 43.309 L 88.047 42.943 L 88.047 42.1 L 64.997 42.1 L 64.997 43.293 L 44.033 43.659 L 44.054 44.852 L 23.1 45.584 L 23.141 46.776 L 2.203 47.874 L 3.41 70.892 Z M 5.613 112.934 L 28.631 111.728 L 28.571 110.582 L 48.409 109.89 L 48.369 108.743 L 68.217 108.397 L 68.197 107.25 L 84.861 107.25 L 84.847 108.047 L 104.709 108.394 L 104.681 109.191 L 124.533 109.884 L 124.492 110.68 L 147.51 111.886 L 148.716 88.868 L 128.492 87.808 L 128.521 86.959 L 108.281 86.252 L 108.296 85.403 L 88.047 85.049 L 88.047 84.2 L 64.997 84.2 L 64.997 85.4 L 44.768 85.753 L 44.789 86.952 L 24.569 87.658 L 24.611 88.857 L 4.407 89.916 L 5.613 112.934 Z" vector-effect="non-scaling-stroke"/></g></svg>