<svg width="156.038mm" height="113.16mm" viewBox="0 0 156.038 113.16" xmlns="http://www.w3.org/2000/svg"><g id="svgGroup" stroke-linecap="round" fill-rule="evenodd" font-size="9pt" stroke="#000" stroke-width="0.25mm" fill="none" style="stroke:#000;stroke-width:0.25mm;fill:none"><path d="M 1.206 29.076 L 24.225 27.869 L 24.154 26.523 L 46.194 25.754 L 46.153 24.591 L 67.837 24.213 L 67.817 23.05 L 88.156 23.05 L 88.142 23.863 L 109.84 24.242 L 109.812 25.055 L 131.866 25.825 L 131.814 26.821 L 154.832 28.028 L 156.038 5.009 L 133.617 3.834 L 133.652 2.823 L 111.576 2.052 L 111.591 1.219 L 89.504 0.833 L 89.504 0 L 66.454 0 L 66.454 1.184 L 44.389 1.569 L 44.409 2.752 L 22.354 3.522 L 22.401 4.883 L 0 6.057 L 1.206 29.076 Z M 3.41 71.118 L 26.428 69.912 L 26.358 68.572 L 47.663 67.828 L 47.623 66.672 L 68.572 66.306 L 68.552 65.15 L 87.421 65.15 L 87.407 65.957 L 108.371 66.323 L 108.343 67.129 L 129.662 67.874 L 129.61 68.864 L 152.629 70.07 L 153.835 47.051 L 132.147 45.915 L 132.183 44.897 L 110.841 44.152 L 110.856 43.313 L 89.504 42.94 L 89.504 42.1 L 66.454 42.1 L 66.454 43.29 L 45.123 43.662 L 45.144 44.852 L 23.823 45.597 L 23.871 46.964 L 2.203 48.099 L 3.41 71.118 Z M 5.613 113.16 L 28.631 111.954 L 28.562 110.621 L 49.133 109.902 L 49.092 108.753 L 69.307 108.4 L 69.287 107.25 L 86.686 107.25 L 86.672 108.05 L 106.901 108.403 L 106.873 109.203 L 127.459 109.922 L 127.407 110.906 L 150.425 112.112 L 151.632 89.094 L 130.678 87.996 L 130.714 86.972 L 110.106 86.252 L 110.121 85.406 L 89.504 85.046 L 89.504 84.2 L 66.454 84.2 L 66.454 85.396 L 45.858 85.756 L 45.879 86.952 L 25.292 87.671 L 25.34 89.045 L 4.407 90.142 L 5.613 113.16 Z" vector-effect="non-scaling-stroke"/></g></svg>