<svg width="164.865mm" height="172.498mm" viewBox="0 0 164.865 172.498" xmlns="http://www.w3.org/2000/svg"><g id="svgGroup" stroke-linecap="round" fill-rule="evenodd" font-size="9pt" stroke="#000" stroke-width="0.25mm" fill="none" style="stroke:#000;stroke-width:0.25mm;fill:none"><path d="M 84.989 159.431 A 2.85 2.85 0 0 0 79.289 159.431 L 79.289 169.431 L 84.989 169.431 L 84.989 159.431 Z M 81.639 8.194 A 2.85 2.85 0 1 0 82.639 8.194 L 82.639 0 L 81.639 0 L 81.639 8.194 Z M 160.87 16.677 A 2.85 2.85 0 1 0 160.572 22.369 L 164.567 22.578 L 164.865 16.886 L 160.87 16.677 Z M 2.85 10.348 m -2.85 0 a 2.85 2.85 0 0 1 5.7 0 a 2.85 2.85 0 0 1 -5.7 0 z M 160.418 168.6 m -2.85 0 a 2.85 2.85 0 0 1 5.7 0 a 2.85 2.85 0 0 1 -5.7 0 z M 3.939 169.648 m -2.85 0 a 2.85 2.85 0 0 1 5.7 0 a 2.85 2.85 0 0 1 -5.7 0 z" vector-effect="non-scaling-stroke"/></g></svg>