<svg width="165.871mm" height="171.648mm" viewBox="0 0 165.871 171.648" xmlns="http://www.w3.org/2000/svg"><g id="svgGroup" stroke-linecap="round" fill-rule="evenodd" font-size="9pt" stroke="#000" stroke-width="0.25mm" fill="none" style="stroke:#000;stroke-width:0.25mm;fill:none"><path d="M 79.416 10 A 4 4 0 0 0 87.162 10 L 87.289 10 L 87.289 0 L 79.289 0 L 79.289 10 L 79.416 10 Z M 87.257 156.931 A 4 4 0 0 0 79.32 156.931 L 79.289 156.931 L 79.289 165.931 L 87.289 165.931 L 87.289 156.931 L 87.257 156.931 Z M 4 8.348 m -4 0 a 4 4 0 0 1 8 0 a 4 4 0 0 1 -8 0 z M 161.871 17.523 m -4 0 a 4 4 0 0 1 8 0 a 4 4 0 0 1 -8 0 z M 161.568 166.6 m -4 0 a 4 4 0 0 1 8 0 a 4 4 0 0 1 -8 0 z M 5.089 167.648 m -4 0 a 4 4 0 0 1 8 0 a 4 4 0 0 1 -8 0 z" vector-effect="non-scaling-stroke"/></g></svg>