<svg width="171.16mm" height="175.043mm" viewBox="0 0 171.16 175.043" xmlns="http://www.w3.org/2000/svg"><g id="svgGroup" stroke-linecap="round" fill-rule="evenodd" font-size="9pt" stroke="#000" stroke-width="0.25mm" fill="none" style="stroke:#000;stroke-width:0.25mm;fill:none"><path d="M 0.007 135.113 L 2.735 172.493 A 2.75 2.75 0 0 0 5.655 175.037 L 78.609 170.302 A 2.75 2.75 0 0 1 78.787 170.296 L 92.312 170.296 A 2.75 2.75 0 0 1 92.452 170.3 L 165.54 174.029 A 2.75 2.75 0 0 0 168.422 171.482 L 171.152 134.065 A 2.75 2.75 0 0 0 171.028 133.024 L 164.458 112.573 A 2.75 2.75 0 0 1 164.33 111.588 L 169.757 8.048 A 2.75 2.75 0 0 0 167.154 5.157 L 153.447 4.439 A 2.75 2.75 0 0 1 153.35 4.432 L 130.601 2.435 A 2.75 2.75 0 0 0 130.533 2.43 L 108.088 1.019 A 2.75 2.75 0 0 0 108.04 1.017 L 85.686 0.003 A 2.75 2.75 0 0 0 85.394 0.005 L 63.06 1.366 A 2.75 2.75 0 0 0 63.012 1.369 L 40.593 3.129 A 2.75 2.75 0 0 0 40.526 3.135 L 17.831 5.477 A 2.75 2.75 0 0 1 17.692 5.488 L 4.005 6.205 A 2.75 2.75 0 0 0 1.403 9.096 L 6.829 112.636 A 2.75 2.75 0 0 1 6.701 113.621 L 0.132 134.072 A 2.75 2.75 0 0 0 0.007 135.113 Z" vector-effect="non-scaling-stroke"/></g></svg>