0
SECTION
2
HEADER
9
$INSUNITS
70
4
0
ENDSEC
0
SECTION
2
TABLES
0
TABLE
2
LTYPE
0
LTYPE
72
65
70
0
2
CONTINUOUS
3
______
73
0
40
0
0
LTYPE
72
65
70
0
2
DASHED
3
_ _ _ 
73
2
40
7.5
49
5
49
-2.5
0
LTYPE
72
65
70
0
2
DOTTED
3
. . . 
73
2
40
1.5
49
0.5
49
-1
0
ENDTAB
0
TABLE
2
LAYER
0
ENDTAB
0
ENDSEC
0
SECTION
2
ENTITIES
0
LINE
8
0
6
CONTINUOUS
10
24.4698738
20
-188.2446894
11
27.1971991
21
-225.6249951
0
LINE
8
0
6
CONTINUOUS
10
30.1180271
20
-228.1691084
11
103.0719336
21
-223.4339148
0
LINE
8
0
6
CONTINUOUS
10
103.2500522
20
-223.4281403
11
116.7741254
21
-223.4281403
0
LINE
8
0
6
CONTINUOUS
10
116.9142514
20
-223.4317127
11
190.002184
21
-227.160743
0
LINE
8
0
6
CONTINUOUS
10
192.8850194
20
-224.6144276
11
195.6150733
21
-187.1967241
0
LINE
8
0
6
CONTINUOUS
10
195.4905852
20
-186.1555307
11
188.9210113
21
-165.704949
0
LINE
8
0
6
CONTINUOUS
10
188.7930014
20
-164.7199438
11
194.219327
21
-61.1794844
0
LINE
8
0
6
CONTINUOUS
10
191.6170198
20
-58.2893292
11
177.9092311
21
-57.5709344
0
LINE
8
0
6
CONTINUOUS
10
177.8126816
20
-57.5641689
11
155.0638812
21
-55.567254
0
LINE
8
0
6
CONTINUOUS
10
154.995932
20
-55.5621368
11
132.5508359
21
-54.151239
0
LINE
8
0
6
CONTINUOUS
10
132.50291
20
-54.148646
11
110.1485616
21
-53.1347619
0
LINE
8
0
6
CONTINUOUS
10
109.8566912
20
-53.1370298
11
87.5227161
21
-54.4980417
0
LINE
8
0
6
CONTINUOUS
10
87.4748361
20
-54.501379
11
65.0559315
21
-56.2607615
0
LINE
8
0
6
CONTINUOUS
10
64.9887608
20
-56.2668626
11
42.2931121
21
-58.6092389
0
LINE
8
0
6
CONTINUOUS
10
42.1547134
20
-58.6200004
11
28.4679273
21
-59.3372945
0
LINE
8
0
6
CONTINUOUS
10
25.8656201
20
-62.2274497
11
31.2919457
21
-165.7679091
0
LINE
8
0
6
CONTINUOUS
10
31.1639358
20
-166.7529143
11
24.5943619
21
-187.203496
0
ARC
8
0
6
CONTINUOUS
10
29.9399085
20
-225.4248829
40
2.75
50
184.1729933
51
273.7136702
0
ARC
8
0
6
CONTINUOUS
10
103.2500522
20
-226.1781403
40
2.75
50
90
51
93.7136702
0
ARC
8
0
6
CONTINUOUS
10
116.7741254
20
-226.1781403
40
2.75
50
87.0792346
51
90
0
ARC
8
0
6
CONTINUOUS
10
190.14231
20
-224.4143154
40
2.75
50
267.0792346
51
355.8270067
0
ARC
8
0
6
CONTINUOUS
10
192.8723639
20
-186.9966118
40
2.75
50
355.8270067
51
17.80917
0
ARC
8
0
6
CONTINUOUS
10
191.5392326
20
-164.8638678
40
2.75
50
176.9999974
51
197.80917
0
ARC
8
0
6
CONTINUOUS
10
191.4730958
20
-61.0355604
40
2.75
50
356.9999974
51
86.9999974
0
ARC
8
0
6
CONTINUOUS
10
178.0531551
20
-54.8247032
40
2.75
50
264.9833692
51
266.9999974
0
ARC
8
0
6
CONTINUOUS
10
154.8234078
20
-58.3067197
40
2.75
50
84.9833692
51
86.403124
0
ARC
8
0
6
CONTINUOUS
10
132.3783116
20
-56.8958219
40
2.75
50
86.403124
51
87.403125
0
ARC
8
0
6
CONTINUOUS
10
110.0239632
20
-55.8819378
40
2.75
50
87.403125
51
93.4872371
0
ARC
8
0
6
CONTINUOUS
10
87.6899882
20
-57.2429497
40
2.75
50
93.4872371
51
94.4872413
0
ARC
8
0
6
CONTINUOUS
10
65.2710835
20
-59.0023322
40
2.75
50
94.4872413
51
95.8925272
0
ARC
8
0
6
CONTINUOUS
10
42.0107894
20
-55.8737692
40
2.75
50
273.0000026
51
275.8925272
0
ARC
8
0
6
CONTINUOUS
10
28.6118513
20
-62.0835257
40
2.75
50
93.0000026
51
183.0000026
0
ARC
8
0
6
CONTINUOUS
10
28.5457145
20
-165.9118331
40
2.75
50
342.19083
51
3.0000026
0
ARC
8
0
6
CONTINUOUS
10
27.2125832
20
-188.0445771
40
2.75
50
162.19083
51
184.1729933
0
ENDSEC
0
EOF