0
SECTION
2
HEADER
9
$INSUNITS
70
4
0
ENDSEC
0
SECTION
2
TABLES
0
TABLE
2
LTYPE
0
LTYPE
72
65
70
0
2
CONTINUOUS
3
______
73
0
40
0
0
LTYPE
72
65
70
0
2
DASHED
3
_ _ _ 
73
2
40
7.5
49
5
49
-2.5
0
LTYPE
72
65
70
0
2
DOTTED
3
. . . 
73
2
40
1.5
49
0.5
49
-1
0
ENDTAB
0
TABLE
2
LAYER
0
ENDTAB
0
ENDSEC
0
SECTION
2
ENTITIES
0
ARC
8
0
6
CONTINUOUS
10
113.6024502
20
-518.8557919
40
465.7415642
50
82.1010679
51
98.7786178
0
ARC
8
0
6
CONTINUOUS
10
115.4691105
20
-885.8747828
40
662.4691973
50
85.1494898
51
95.7887182
0
LINE
8
0
6
CONTINUOUS
10
41.9206703
20
-58.6322661
11
31.7134731
21
-59.1672027
0
LINE
8
0
6
CONTINUOUS
10
178.1180303
20
-57.5818771
11
188.371474
21
-58.1192374
0
LINE
8
0
6
CONTINUOUS
10
194.0492351
20
-64.4250306
11
188.8242332
21
-164.1240063
0
LINE
8
0
6
CONTINUOUS
10
189.1035276
20
-166.2731084
11
195.2956712
21
-185.5487784
0
LINE
8
0
6
CONTINUOUS
10
195.5664179
20
-187.8321563
11
194.0127209
21
-208.5689204
0
LINE
8
0
6
CONTINUOUS
10
191.561605
20
-212.9708011
11
175.5244981
21
-224.6497438
0
LINE
8
0
6
CONTINUOUS
10
44.5149271
20
-225.664558
11
28.5233421
21
-214.0187664
0
LINE
8
0
6
CONTINUOUS
10
26.0722262
20
-209.6168857
11
24.5185292
21
-188.8801216
0
LINE
8
0
6
CONTINUOUS
10
24.7892759
20
-186.5967437
11
30.9814195
21
-167.3210737
0
LINE
8
0
6
CONTINUOUS
10
31.2607139
20
-165.1719716
11
26.035712
21
-65.4729959
0
ARC
8
0
6
CONTINUOUS
10
41.6066543
20
-52.6404889
40
6
50
273.0000026
51
278.7786178
0
ARC
8
0
6
CONTINUOUS
10
32.0274891
20
-65.1589799
40
6
50
93.0000026
51
183.0000026
0
ARC
8
0
6
CONTINUOUS
10
25.2689368
20
-165.4859876
40
6
50
342.19083
51
3.0000026
0
ARC
8
0
6
CONTINUOUS
10
30.5017586
20
-188.4318298
40
6
50
162.19083
51
184.2848643
0
ARC
8
0
6
CONTINUOUS
10
32.0554556
20
-209.1685939
40
6
50
184.2848643
51
233.9362107
0
ARC
8
0
6
CONTINUOUS
10
48.0470407
20
-220.8143853
40
6
50
233.9362107
51
275.7887182
0
ARC
8
0
6
CONTINUOUS
10
171.9923846
20
-219.7995714
40
6
50
265.1494898
51
306.0637893
0
ARC
8
0
6
CONTINUOUS
10
188.0294915
20
-208.1206286
40
6
50
306.0637893
51
355.7151357
0
ARC
8
0
6
CONTINUOUS
10
189.5831885
20
-187.3838645
40
6
50
355.7151357
51
17.80917
0
ARC
8
0
6
CONTINUOUS
10
194.8160103
20
-164.4380223
40
6
50
176.9999974
51
197.80917
0
ARC
8
0
6
CONTINUOUS
10
188.057458
20
-64.1110146
40
6
50
356.9999974
51
86.9999974
0
ARC
8
0
6
CONTINUOUS
10
178.4320463
20
-51.5901
40
6
50
262.1010679
51
266.9999974
0
ENDSEC
0
EOF