%TF.GenerationSoftware,KiCad,Pcbnew,9.0.7*%
%TF.CreationDate,2026-01-25T01:50:45-05:00*%
%TF.ProjectId,travis_erg2026-v1,74726176-6973-45f6-9572-67323032362d,2026.01.24*%
%TF.SameCoordinates,Original*%
%TF.FileFunction,Profile,NP*%
%FSLAX46Y46*%
G04 Gerber Fmt 4.6, Leading zero omitted, Abs format (unit mm)*
G04 Created by KiCad (PCBNEW 9.0.7) date 2026-01-25 01:50:45*
%MOMM*%
%LPD*%
G01*
G04 APERTURE LIST*
%TA.AperFunction,Profile*%
%ADD10C,0.150000*%
%TD*%
%TA.AperFunction,Profile*%
%ADD11C,0.120000*%
%TD*%
G04 APERTURE END LIST*
D10*
X132468004Y-56148340D02*
G75*
G02*
X132515930Y-56150936I-124104J-2735260D01*
G01*
X189515089Y-60181916D02*
G75*
G02*
X192117380Y-63072071I-143889J-2746184D01*
G01*
X193493253Y-186050632D02*
X186923752Y-165600277D01*
X193493253Y-186050632D02*
G75*
G02*
X193617692Y-187092282I-2618453J-841068D01*
G01*
X177707919Y-59561417D02*
X154994095Y-57566039D01*
X132468004Y-56148340D02*
X110148751Y-55134779D01*
X65058547Y-58265649D02*
G75*
G02*
X65125743Y-58259540I283853J-2749651D01*
G01*
X105247452Y-221428140D02*
X114776689Y-221428140D01*
X189515089Y-60181916D02*
X177804652Y-59568198D01*
X31968379Y-226039964D02*
G75*
G02*
X29052778Y-223495975I-172919J2744564D01*
G01*
X105074519Y-221433583D02*
G75*
G02*
X105247452Y-221428138I173081J-2748317D01*
G01*
X87509739Y-56501076D02*
X65125743Y-58259539D01*
X27967551Y-64120037D02*
X33289205Y-165663237D01*
X191029453Y-222485264D02*
G75*
G02*
X188151772Y-225031360I-2742653J200564D01*
G01*
X26467239Y-188140248D02*
X29052770Y-223495976D01*
X42259261Y-60617266D02*
X30569858Y-61229882D01*
X114911695Y-221431456D02*
X188151771Y-225031379D01*
X186923752Y-165600277D02*
G75*
G02*
X186795749Y-164615272I2618348J841077D01*
G01*
X42397907Y-60606479D02*
G75*
G02*
X42259261Y-60617265I-282307J2732479D01*
G01*
X109856503Y-55137053D02*
G75*
G02*
X110148751Y-55134778I167497J-2744947D01*
G01*
X114776689Y-221428140D02*
G75*
G02*
X114911695Y-221431456I11J-2749560D01*
G01*
X186795742Y-164615272D02*
X192117396Y-63072072D01*
X191029453Y-222485264D02*
X193617708Y-187092283D01*
X33161195Y-166648242D02*
X26591694Y-187098598D01*
X65058547Y-58265649D02*
X42397907Y-60606479D01*
X154926118Y-57560916D02*
G75*
G02*
X154994095Y-57566039I-172818J-2746784D01*
G01*
X87509739Y-56501076D02*
G75*
G02*
X87557619Y-56497734I215361J-2741024D01*
G01*
X26467239Y-188140248D02*
G75*
G02*
X26591693Y-187098598I2742861J200548D01*
G01*
X27967551Y-64120037D02*
G75*
G02*
X30569858Y-61229878I2746199J143957D01*
G01*
X177804652Y-59568198D02*
G75*
G02*
X177707919Y-59561418I143848J2745798D01*
G01*
X31968379Y-226039964D02*
X105074519Y-221433583D01*
X109856503Y-55137053D02*
X87557619Y-56497735D01*
X33289205Y-165663237D02*
G75*
G02*
X33161189Y-166648240I-2745805J-143963D01*
G01*
X154926118Y-57560916D02*
X132515930Y-56150936D01*
D11*
%TO.C,LED8*%
X86957612Y-126634932D02*
X87011714Y-129734460D01*
X87011714Y-129734460D02*
X90611166Y-129671632D01*
X90557064Y-126572104D02*
X86957612Y-126634932D01*
X90611166Y-129671632D02*
X90557064Y-126572104D01*
%TO.C,LED6*%
X64270915Y-86322935D02*
X64379104Y-89421047D01*
X64379104Y-89421047D02*
X67976911Y-89295409D01*
X67868722Y-86197297D02*
X64270915Y-86322935D01*
X67976911Y-89295409D02*
X67868722Y-86197297D01*
%TO.C,LED28*%
X87324985Y-147681726D02*
X87379087Y-150781254D01*
X87379087Y-150781254D02*
X90978539Y-150718426D01*
X90924437Y-147618898D02*
X87324985Y-147681726D01*
X90978539Y-150718426D02*
X90924437Y-147618898D01*
%TO.C,LED37*%
X151340702Y-109633460D02*
X154938509Y-109759098D01*
X151448891Y-106535348D02*
X151340702Y-109633460D01*
X154938509Y-109759098D02*
X155046698Y-106660986D01*
X155046698Y-106660986D02*
X151448891Y-106535348D01*
%TO.C,LED11*%
X108202567Y-125243140D02*
X108202567Y-128343140D01*
X108202567Y-128343140D02*
X111802567Y-128343140D01*
X111802567Y-125243140D02*
X108202567Y-125243140D01*
X111802567Y-128343140D02*
X111802567Y-125243140D01*
%TO.C,LED35*%
X129781846Y-108275070D02*
X133381298Y-108337898D01*
X129835948Y-105175542D02*
X129781846Y-108275070D01*
X133381298Y-108337898D02*
X133435400Y-105238370D01*
X133435400Y-105238370D02*
X129835948Y-105175542D01*
%TO.C,LED31*%
X108202567Y-146293140D02*
X108202567Y-149393140D01*
X108202567Y-149393140D02*
X111802567Y-149393140D01*
X111802567Y-146293140D02*
X108202567Y-146293140D01*
X111802567Y-149393140D02*
X111802567Y-146293140D01*
%TO.C,LED10*%
X108202567Y-167343140D02*
X108202567Y-170443140D01*
X108202567Y-170443140D02*
X111802567Y-170443140D01*
X111802567Y-167343140D02*
X108202567Y-167343140D01*
X111802567Y-170443140D02*
X111802567Y-167343140D01*
%TO.C,LED40*%
X173228587Y-111564965D02*
X176823653Y-111753375D01*
X173390829Y-108469213D02*
X173228587Y-111564965D01*
X176823653Y-111753375D02*
X176985895Y-108657623D01*
X176985895Y-108657623D02*
X173390829Y-108469213D01*
%TO.C,LED19*%
X169923572Y-174628421D02*
X173518638Y-174816831D01*
X170085814Y-171532669D02*
X169923572Y-174628421D01*
X173518638Y-174816831D02*
X173680880Y-171721079D01*
X173680880Y-171721079D02*
X170085814Y-171532669D01*
%TO.C,LED20*%
X172126916Y-132586117D02*
X175721982Y-132774527D01*
X172289158Y-129490365D02*
X172126916Y-132586117D01*
X175721982Y-132774527D02*
X175884224Y-129678775D01*
X175884224Y-129678775D02*
X172289158Y-129490365D01*
%TO.C,LED5*%
X65740183Y-128397288D02*
X65848372Y-131495400D01*
X65848372Y-131495400D02*
X69446179Y-131369762D01*
X69337990Y-128271650D02*
X65740183Y-128397288D01*
X69446179Y-131369762D02*
X69337990Y-128271650D01*
%TO.C,LED26*%
X65005549Y-107360111D02*
X65113738Y-110458223D01*
X65113738Y-110458223D02*
X68711545Y-110332585D01*
X68603356Y-107234473D02*
X65005549Y-107360111D01*
X68711545Y-110332585D02*
X68603356Y-107234473D01*
%TO.C,LED4*%
X67209452Y-170471642D02*
X67317641Y-173569754D01*
X67317641Y-173569754D02*
X70915448Y-173444116D01*
X70807259Y-170346004D02*
X67209452Y-170471642D01*
X70915448Y-173444116D02*
X70807259Y-170346004D01*
%TO.C,LED24*%
X43099052Y-109705589D02*
X43261294Y-112801341D01*
X43261294Y-112801341D02*
X46856360Y-112612931D01*
X46694118Y-109517179D02*
X43099052Y-109705589D01*
X46856360Y-112612931D02*
X46694118Y-109517179D01*
%TO.C,LED23*%
X45302395Y-151747892D02*
X45464637Y-154843644D01*
X45464637Y-154843644D02*
X49059703Y-154655234D01*
X48897461Y-151559482D02*
X45302395Y-151747892D01*
X49059703Y-154655234D02*
X48897461Y-151559482D01*
%TO.C,LED2*%
X44200724Y-130726740D02*
X44362966Y-133822492D01*
X44362966Y-133822492D02*
X47958032Y-133634082D01*
X47795790Y-130538330D02*
X44200724Y-130726740D01*
X47958032Y-133634082D02*
X47795790Y-130538330D01*
%TO.C,LED29*%
X86590239Y-105588138D02*
X86644341Y-108687666D01*
X86644341Y-108687666D02*
X90243793Y-108624838D01*
X90189691Y-105525310D02*
X86590239Y-105588138D01*
X90243793Y-108624838D02*
X90189691Y-105525310D01*
%TO.C,LED38*%
X158515940Y-194900112D02*
X162107171Y-195151235D01*
X158732185Y-191807663D02*
X158515940Y-194900112D01*
X162107171Y-195151235D02*
X162323416Y-192058786D01*
X162323416Y-192058786D02*
X158732185Y-191807663D01*
%TO.C,LED3*%
X41997380Y-88684437D02*
X42159622Y-91780189D01*
X42159622Y-91780189D02*
X45754688Y-91591779D01*
X45592446Y-88496027D02*
X41997380Y-88684437D01*
X45754688Y-91591779D02*
X45592446Y-88496027D01*
%TO.C,LED7*%
X87692359Y-168728520D02*
X87746461Y-171828048D01*
X87746461Y-171828048D02*
X91345913Y-171765220D01*
X91291811Y-168665692D02*
X87692359Y-168728520D01*
X91345913Y-171765220D02*
X91291811Y-168665692D01*
%TO.C,LED22*%
X57761531Y-193106751D02*
X57977776Y-196199200D01*
X57977776Y-196199200D02*
X61569007Y-195948077D01*
X61352762Y-192855628D02*
X57761531Y-193106751D01*
X61569007Y-195948077D02*
X61352762Y-192855628D01*
%TO.C,LED30*%
X108202567Y-188393140D02*
X108202567Y-191493140D01*
X108202567Y-191493140D02*
X111802567Y-191493140D01*
X111802567Y-188393140D02*
X108202567Y-188393140D01*
X111802567Y-191493140D02*
X111802567Y-188393140D01*
%TO.C,LED25*%
X66474818Y-149434465D02*
X66583007Y-152532577D01*
X66583007Y-152532577D02*
X70180814Y-152406939D01*
X70072625Y-149308827D02*
X66474818Y-149434465D01*
X70180814Y-152406939D02*
X70072625Y-149308827D01*
%TO.C,LED39*%
X171025244Y-153607269D02*
X174620310Y-153795679D01*
X171187486Y-150511517D02*
X171025244Y-153607269D01*
X174620310Y-153795679D02*
X174782552Y-150699927D01*
X174782552Y-150699927D02*
X171187486Y-150511517D01*
%TO.C,LED36*%
X149871433Y-151707814D02*
X153469240Y-151833452D01*
X149979622Y-148609702D02*
X149871433Y-151707814D01*
X153469240Y-151833452D02*
X153577429Y-148735340D01*
X153577429Y-148735340D02*
X149979622Y-148609702D01*
%TO.C,LED33*%
X128312354Y-192462246D02*
X131911806Y-192525074D01*
X128366456Y-189362718D02*
X128312354Y-192462246D01*
X131911806Y-192525074D02*
X131965908Y-189425546D01*
X131965908Y-189425546D02*
X128366456Y-189362718D01*
%TO.C,LED1*%
X46404067Y-172769044D02*
X46566309Y-175864796D01*
X46566309Y-175864796D02*
X50161375Y-175676386D01*
X49999133Y-172580634D02*
X46404067Y-172769044D01*
X50161375Y-175676386D02*
X49999133Y-172580634D01*
%TO.C,LED15*%
X130149220Y-87228276D02*
X133748672Y-87291104D01*
X130203322Y-84128748D02*
X130149220Y-87228276D01*
X133748672Y-87291104D02*
X133802774Y-84191576D01*
X133802774Y-84191576D02*
X130203322Y-84128748D01*
%TO.C,LED16*%
X149136798Y-172744990D02*
X152734605Y-172870628D01*
X149244987Y-169646878D02*
X149136798Y-172744990D01*
X152734605Y-172870628D02*
X152842794Y-169772516D01*
X152842794Y-169772516D02*
X149244987Y-169646878D01*
%TO.C,LED18*%
X152075336Y-88596283D02*
X155673143Y-88721921D01*
X152183525Y-85498171D02*
X152075336Y-88596283D01*
X155673143Y-88721921D02*
X155781332Y-85623809D01*
X155781332Y-85623809D02*
X152183525Y-85498171D01*
%TO.C,LED34*%
X129047100Y-150368658D02*
X132646552Y-150431486D01*
X129101202Y-147269130D02*
X129047100Y-150368658D01*
X132646552Y-150431486D02*
X132700654Y-147331958D01*
X132700654Y-147331958D02*
X129101202Y-147269130D01*
%TO.C,LED9*%
X86222866Y-84541344D02*
X86276968Y-87640872D01*
X86276968Y-87640872D02*
X89876420Y-87578044D01*
X89822318Y-84478516D02*
X86222866Y-84541344D01*
X89876420Y-87578044D02*
X89822318Y-84478516D01*
%TO.C,LED32*%
X108202567Y-104193140D02*
X108202567Y-107293140D01*
X108202567Y-107293140D02*
X111802567Y-107293140D01*
X111802567Y-104193140D02*
X108202567Y-104193140D01*
X111802567Y-107293140D02*
X111802567Y-104193140D01*
%TO.C,LED21*%
X174330259Y-90543814D02*
X177925325Y-90732224D01*
X174492501Y-87448062D02*
X174330259Y-90543814D01*
X177925325Y-90732224D02*
X178087567Y-87636472D01*
X178087567Y-87636472D02*
X174492501Y-87448062D01*
%TO.C,LED14*%
X129414473Y-129321864D02*
X133013925Y-129384692D01*
X129468575Y-126222336D02*
X129414473Y-129321864D01*
X133013925Y-129384692D02*
X133068027Y-126285164D01*
X133068027Y-126285164D02*
X129468575Y-126222336D01*
%TO.C,LED17*%
X150606067Y-130670637D02*
X154203874Y-130796275D01*
X150714256Y-127572525D02*
X150606067Y-130670637D01*
X154203874Y-130796275D02*
X154312063Y-127698163D01*
X154312063Y-127698163D02*
X150714256Y-127572525D01*
%TO.C,LED13*%
X128679727Y-171415452D02*
X132279179Y-171478280D01*
X128733829Y-168315924D02*
X128679727Y-171415452D01*
X132279179Y-171478280D02*
X132333281Y-168378752D01*
X132333281Y-168378752D02*
X128733829Y-168315924D01*
%TO.C,LED12*%
X108202567Y-83143140D02*
X108202567Y-86243140D01*
X108202567Y-86243140D02*
X111802567Y-86243140D01*
X111802567Y-83143140D02*
X108202567Y-83143140D01*
X111802567Y-86243140D02*
X111802567Y-83143140D01*
%TO.C,LED27*%
X88059732Y-189775314D02*
X88113834Y-192874842D01*
X88113834Y-192874842D02*
X91713286Y-192812014D01*
X91659184Y-189712486D02*
X88059732Y-189775314D01*
X91713286Y-192812014D02*
X91659184Y-189712486D01*
%TD*%
M02*
