M48
; DRILL file {KiCad 9.0.7} date 2026-01-25T01:50:17-0500
; FORMAT={-:-/ absolute / metric / decimal}
; #@! TF.CreationDate,2026-01-25T01:50:17-05:00
; #@! TF.GenerationSoftware,Kicad,Pcbnew,9.0.7
; #@! TF.FileFunction,Plated,1,2,PTH
FMAT,2
METRIC
; #@! TA.AperFunction,Plated,PTH,ViaDrill
T1C0.300
; #@! TA.AperFunction,Plated,PTH,ComponentDrill
T2C0.400
; #@! TA.AperFunction,Plated,PTH,ComponentDrill
T3C0.700
; #@! TA.AperFunction,Plated,PTH,ComponentDrill
T4C0.762
; #@! TA.AperFunction,Plated,PTH,ComponentDrill
T5C0.800
; #@! TA.AperFunction,Plated,PTH,ComponentDrill
T6C1.000
; #@! TA.AperFunction,Plated,PTH,ComponentDrill
T7C1.800
; #@! TA.AperFunction,Plated,PTH,ComponentDrill
T8C2.200
%
G90
G05
T1
X29.2Y-67.0
X29.2Y-72.2
X34.2Y-62.4
X34.4Y-220.4
X39.247Y-92.569
X46.6Y-88.0
X49.6Y-108.6
X51.4Y-97.2
X52.446Y-118.278
X53.4Y-139.2
X54.8Y-160.4
X55.6Y-222.8
X55.8Y-181.4
X57.0Y-171.6
X59.4Y-62.0
X60.6Y-81.0
X61.0Y-90.2
X62.8Y-59.2
X67.4Y-201.6
X69.4Y-90.0
X72.0Y-78.4
X73.4Y-95.0
X74.201Y-116.095
X74.8Y-137.2
X75.8Y-158.2
X76.4Y-179.2
X81.2Y-83.0
X82.653Y-122.094
X83.4Y-88.4
X85.0Y-192.8
X93.129Y-104.859
X95.4Y-93.2
X95.632Y-114.482
X96.0Y-135.6
X96.4Y-156.6
X96.6Y-126.6
X96.8Y-177.6
X97.2Y-198.6
X98.8Y-82.4
X99.0Y-182.0
X99.0Y-189.0
X101.4Y-58.0
X102.2Y-56.4
X103.4Y-168.6
X104.4Y-191.2
X104.4Y-219.2
X104.6Y-77.8
X105.2Y-86.6
X114.753Y-103.578
X115.8Y-79.2
X117.088Y-113.243
X117.088Y-155.343
X117.2Y-92.2
X117.2Y-134.2
X117.2Y-176.4
X117.2Y-197.4
X118.2Y-108.0
X118.4Y-192.0
X123.2Y-168.0
X123.6Y-125.4
X123.8Y-100.488
X124.2Y-83.4
X124.957Y-142.581
X126.6Y-82.625
X126.8Y-150.4
X127.189Y-87.812
X127.8Y-82.8
X137.2Y-198.6
X137.4Y-177.6
X137.827Y-156.473
X138.2Y-135.4
X138.562Y-114.379
X139.0Y-93.4
X139.8Y-109.6
X141.0Y-164.887
X142.4Y-126.2
X143.2Y-168.8
X143.2Y-194.8
X144.449Y-185.924
X145.6Y-84.4
X146.8Y-151.6
X148.0Y-83.4
X149.051Y-149.428
X149.105Y-89.128
X149.2Y-83.6
X151.6Y-77.0
X153.371Y-207.908
X155.8Y-64.8
X157.2Y-67.4
X158.0Y-72.8
X158.0Y-179.0
X158.016Y-106.149
X158.6Y-158.0
X159.4Y-137.0
X160.013Y-115.89
X160.8Y-94.8
X161.4Y-70.2
X162.0Y-111.4
X162.2Y-71.8
X162.8Y-66.2
X164.0Y-127.8
X164.0Y-170.6
X166.2Y-153.6
X167.0Y-81.2
X167.4Y-66.2
X167.8Y-86.0
X169.4Y-81.4
X170.0Y-66.4
X170.8Y-78.8
X172.2Y-60.6
X173.2Y-78.8
X174.8Y-172.6
X175.2Y-78.13
X175.637Y-151.596
X176.8Y-130.6
X177.2Y-78.2
X178.0Y-109.6
X178.4Y-181.0
X178.4Y-193.2
X179.6Y-160.0
X180.8Y-139.0
X181.8Y-118.0
X182.2Y-77.8
X182.892Y-96.951
X183.0Y-87.6
X185.6Y-148.4
X187.4Y-78.8
X187.4Y-86.6
X187.4Y-171.2
X188.2Y-120.2
X189.8Y-84.4
X190.0Y-78.8
T2
X29.066Y-64.062
X29.488Y-62.872
X29.61Y-65.202
X30.157Y-223.391
X30.558Y-222.194
X30.627Y-62.328
X30.72Y-224.521
X30.8Y-65.624
X31.688Y-221.63
X31.818Y-62.75
X31.918Y-224.922
X31.94Y-65.08
X32.362Y-63.89
X32.885Y-222.031
X33.048Y-224.359
X33.449Y-223.161
X108.353Y-64.628
X108.353Y-213.059
X108.836Y-63.461
X108.836Y-65.795
X108.836Y-211.893
X108.836Y-214.226
X110.003Y-62.978
X110.003Y-66.278
X110.003Y-211.409
X110.003Y-214.709
X111.169Y-63.461
X111.169Y-65.795
X111.169Y-211.893
X111.169Y-214.226
X111.653Y-64.628
X111.653Y-213.059
X186.636Y-222.113
X186.937Y-73.065
X187.037Y-223.311
X187.2Y-220.983
X187.359Y-74.255
X187.481Y-71.925
X188.167Y-223.874
X188.397Y-220.582
X188.499Y-74.799
X188.671Y-71.503
X189.365Y-223.473
X189.527Y-221.146
X189.689Y-74.377
X189.811Y-72.047
X189.928Y-222.343
X190.233Y-73.237
T4
X159.232Y-79.218
X159.365Y-76.682
X159.498Y-74.145
X159.631Y-71.609
X159.764Y-69.072
X159.897Y-66.536
X160.03Y-63.999
X161.769Y-79.351
X162.566Y-64.132
X164.305Y-79.484
X165.103Y-64.265
X166.842Y-79.617
X167.639Y-64.398
X169.378Y-79.75
X170.176Y-64.531
X171.915Y-79.883
X172.713Y-64.664
X174.451Y-80.016
X175.249Y-64.797
X176.988Y-80.149
X177.786Y-64.93
X179.524Y-80.282
X180.322Y-65.062
X182.061Y-80.415
X182.859Y-65.195
X184.597Y-80.547
X185.395Y-65.328
X187.134Y-80.68
X187.932Y-65.461
X189.671Y-80.813
X190.468Y-65.594
T5
X180.021Y-73.679
X180.152Y-71.182
T6
X31.237Y-69.181
X31.37Y-71.717
X31.503Y-74.254
X31.636Y-76.79
X61.395Y-61.267
X62.07Y-80.881
X63.925Y-61.045
X64.608Y-80.793
X66.456Y-60.824
X67.147Y-80.704
X68.986Y-60.603
X69.685Y-80.616
X106.193Y-57.603
X106.193Y-77.628
X108.733Y-57.603
X108.733Y-77.628
X111.273Y-57.603
X111.273Y-77.628
X113.813Y-57.603
X113.813Y-77.628
T8
X30.714Y-63.976
X31.803Y-223.276
X110.003Y-64.628
X110.003Y-213.059
X188.282Y-222.228
X188.585Y-73.151
T3
G00X30.234Y-199.051
M15
G01X29.935Y-199.072
M16
G05
G00X30.409Y-201.545
M15
G01X30.109Y-201.566
M16
G05
G00X30.583Y-204.039
M15
G01X30.284Y-204.06
M16
G05
G00X48.546Y-222.231
M15
G01X48.567Y-222.53
M16
G05
G00X51.04Y-222.056
M15
G01X51.06Y-222.355
M16
G05
G00X53.533Y-221.882
M15
G01X53.554Y-222.181
M16
G05
G00X166.551Y-220.834
M15
G01X166.531Y-221.133
M16
G05
G00X169.045Y-221.008
M15
G01X169.024Y-221.307
M16
G05
G00X171.539Y-221.183
M15
G01X171.518Y-221.482
M16
G05
G00X189.502Y-202.991
M15
G01X189.801Y-203.012
M16
G05
G00X189.676Y-200.497
M15
G01X189.976Y-200.518
M16
G05
G00X189.851Y-198.003
M15
G01X190.15Y-198.024
M16
G05
T7
G00X32.065Y-196.919
M15
G01X31.815Y-196.936
M16
G05
G00X32.693Y-205.897
M15
G01X32.443Y-205.914
M16
G05
G00X46.413Y-220.4
M15
G01X46.43Y-220.649
M16
G05
G00X55.391Y-219.772
M15
G01X55.408Y-220.021
M16
G05
G00X164.694Y-218.724
M15
G01X164.677Y-218.974
M16
G05
G00X173.672Y-219.352
M15
G01X173.655Y-219.601
M16
G05
G00X187.392Y-204.849
M15
G01X187.642Y-204.866
M16
G05
G00X188.02Y-195.871
M15
G01X188.27Y-195.888
M16
G05
M30
