%TF.GenerationSoftware,KiCad,Pcbnew,9.0.7*%
%TF.CreationDate,2026-01-25T01:50:45-05:00*%
%TF.ProjectId,travis_erg2026-v1,74726176-6973-45f6-9572-67323032362d,2026.01.24*%
%TF.SameCoordinates,Original*%
%TF.FileFunction,Soldermask,Bot*%
%TF.FilePolarity,Negative*%
%FSLAX46Y46*%
G04 Gerber Fmt 4.6, Leading zero omitted, Abs format (unit mm)*
G04 Created by KiCad (PCBNEW 9.0.7) date 2026-01-25 01:50:45*
%MOMM*%
%LPD*%
G01*
G04 APERTURE LIST*
G04 Aperture macros list*
%AMRoundRect*
0 Rectangle with rounded corners*
0 $1 Rounding radius*
0 $2 $3 $4 $5 $6 $7 $8 $9 X,Y pos of 4 corners*
0 Add a 4 corners polygon primitive as box body*
4,1,4,$2,$3,$4,$5,$6,$7,$8,$9,$2,$3,0*
0 Add four circle primitives for the rounded corners*
1,1,$1+$1,$2,$3*
1,1,$1+$1,$4,$5*
1,1,$1+$1,$6,$7*
1,1,$1+$1,$8,$9*
0 Add four rect primitives between the rounded corners*
20,1,$1+$1,$2,$3,$4,$5,0*
20,1,$1+$1,$4,$5,$6,$7,0*
20,1,$1+$1,$6,$7,$8,$9,0*
20,1,$1+$1,$8,$9,$2,$3,0*%
%AMHorizOval*
0 Thick line with rounded ends*
0 $1 width*
0 $2 $3 position (X,Y) of the first rounded end (center of the circle)*
0 $4 $5 position (X,Y) of the second rounded end (center of the circle)*
0 Add line between two ends*
20,1,$1,$2,$3,$4,$5,0*
0 Add two circle primitives to create the rounded ends*
1,1,$1,$2,$3*
1,1,$1,$4,$5*%
G04 Aperture macros list end*
%ADD10C,1.801800*%
%ADD11C,3.100000*%
%ADD12C,4.087800*%
%ADD13RoundRect,0.050000X1.317848X1.204742X-1.230599X1.293735X-1.317848X-1.204742X1.230599X-1.293735X0*%
%ADD14RoundRect,0.050000X1.230599X1.293735X-1.317848X1.204742X-1.230599X-1.293735X1.317848X-1.204742X0*%
%ADD15RoundRect,0.050000X1.275000X1.250000X-1.275000X1.250000X-1.275000X-1.250000X1.275000X-1.250000X0*%
%ADD16RoundRect,0.050000X1.338673X1.181559X-1.207833X1.315015X-1.338673X-1.181559X1.207833X-1.315015X0*%
%ADD17RoundRect,0.050000X1.252990X1.272061X-1.296621X1.227558X-1.252990X-1.272061X1.296621X-1.227558X0*%
%ADD18C,1.700000*%
%ADD19RoundRect,0.050000X1.296621X1.227558X-1.252990X1.272061X-1.296621X-1.227558X1.252990X-1.272061X0*%
%ADD20C,0.800000*%
%ADD21C,4.500000*%
%ADD22RoundRect,0.050000X-0.850000X0.850000X-0.850000X-0.850000X0.850000X-0.850000X0.850000X0.850000X0*%
%ADD23O,1.800000X1.800000*%
%ADD24RoundRect,0.050000X1.207833X1.315015X-1.338673X1.181559X-1.207833X-1.315015X1.338673X-1.181559X0*%
%ADD25RoundRect,0.650000X0.852466X-0.711197X0.943149X0.585636X-0.852466X0.711197X-0.943149X-0.585636X0*%
%ADD26HorizOval,1.500000X-0.149635X0.010463X0.149635X-0.010463X0*%
%ADD27C,1.624000*%
%ADD28RoundRect,0.050000X1.184699X1.335895X-1.359090X1.158016X-1.184699X-1.335895X1.359090X-1.158016X0*%
%ADD29RoundRect,0.050000X0.879147X-0.819818X0.819818X0.879147X-0.879147X0.819818X-0.819818X-0.879147X0*%
%ADD30HorizOval,1.800000X0.000000X0.000000X0.000000X0.000000X0*%
%ADD31RoundRect,0.050000X-0.920848X0.772683X-0.772683X-0.920848X0.920848X-0.772683X0.772683X0.920848X0*%
%ADD32HorizOval,1.800000X0.000000X0.000000X0.000000X0.000000X0*%
%ADD33C,3.148000*%
%ADD34RoundRect,0.650000X-0.585636X-0.943149X0.711197X-0.852466X0.585636X0.943149X-0.711197X0.852466X0*%
%ADD35HorizOval,1.500000X-0.010463X0.149635X0.010463X-0.149635X0*%
%ADD36RoundRect,0.050000X-0.804350X-0.893321X0.893321X-0.804350X0.804350X0.893321X-0.893321X0.804350X0*%
%ADD37HorizOval,1.800000X0.000000X0.000000X0.000000X0.000000X0*%
%ADD38RoundRect,0.050000X1.359090X1.158016X-1.184699X1.335895X-1.359090X-1.158016X1.184699X-1.335895X0*%
%ADD39RoundRect,0.650000X-0.943149X0.585636X-0.852466X-0.711197X0.943149X-0.585636X0.852466X0.711197X0*%
%ADD40HorizOval,1.500000X-0.149635X-0.010463X0.149635X0.010463X0*%
%ADD41RoundRect,0.650000X-0.711197X-0.852466X0.585636X-0.943149X0.711197X0.852466X-0.585636X0.943149X0*%
%ADD42HorizOval,1.500000X-0.010463X-0.149635X0.010463X0.149635X0*%
%ADD43RoundRect,0.050000X0.850000X-0.850000X0.850000X0.850000X-0.850000X0.850000X-0.850000X-0.850000X0*%
%ADD44RoundRect,0.050000X0.691167X0.512141X-0.708620X0.487707X-0.691167X-0.512141X0.708620X-0.487707X0*%
%ADD45RoundRect,0.050000X0.682124X0.524125X-0.717023X0.475266X-0.682124X-0.524125X0.717023X-0.475266X0*%
%ADD46RoundRect,0.271739X-0.671992X0.365044X-0.684323X-0.341370X0.671992X-0.365044X0.684323X0.341370X0*%
%ADD47RoundRect,0.050000X-0.691167X-0.512141X0.708620X-0.487707X0.691167X0.512141X-0.708620X0.487707X0*%
%ADD48RoundRect,0.270000X0.632906X-0.438725X0.675298X0.370165X-0.632906X0.438725X-0.675298X-0.370165X0*%
%ADD49RoundRect,0.271739X0.684323X-0.341370X0.671992X0.365044X-0.684323X0.341370X-0.671992X-0.365044X0*%
%ADD50RoundRect,0.271739X0.701251X-0.305087X0.651967X0.399714X-0.701251X0.305087X-0.651967X-0.399714X0*%
%ADD51RoundRect,0.271739X-0.658843X0.388274X-0.695820X-0.317279X0.658843X-0.388274X0.695820X0.317279X0*%
%ADD52RoundRect,0.050000X-0.717023X-0.475266X0.682124X-0.524125X0.717023X0.475266X-0.682124X0.524125X0*%
%ADD53RoundRect,0.271739X-0.684323X0.341370X-0.671992X-0.365044X0.684323X-0.341370X0.671992X0.365044X0*%
%ADD54RoundRect,0.270000X0.675298X-0.370165X0.632906X0.438725X-0.675298X0.370165X-0.632906X-0.438725X0*%
%ADD55RoundRect,0.050000X0.700000X0.500000X-0.700000X0.500000X-0.700000X-0.500000X0.700000X-0.500000X0*%
%ADD56RoundRect,0.050000X-0.708620X-0.487707X0.691167X-0.512141X0.708620X0.487707X-0.691167X0.512141X0*%
%ADD57RoundRect,0.270000X0.661968X-0.393507X0.647832X0.416370X-0.661968X0.393507X-0.647832X-0.416370X0*%
%ADD58RoundRect,0.270000X0.647832X-0.416370X0.661968X0.393507X-0.647832X0.416370X-0.661968X-0.393507X0*%
%ADD59RoundRect,0.050000X-0.700000X-0.500000X0.700000X-0.500000X0.700000X0.500000X-0.700000X0.500000X0*%
%ADD60RoundRect,0.271739X-0.690176X0.329375X-0.665519X-0.376717X0.690176X-0.329375X0.665519X0.376717X0*%
%ADD61RoundRect,0.270000X0.640467X-0.427612X0.668735X0.381894X-0.640467X0.427612X-0.668735X-0.381894X0*%
%ADD62RoundRect,0.270000X0.655000X-0.405000X0.655000X0.405000X-0.655000X0.405000X-0.655000X-0.405000X0*%
%ADD63RoundRect,0.271739X0.665519X-0.376717X0.690176X0.329375X-0.665519X0.376717X-0.690176X-0.329375X0*%
%ADD64RoundRect,0.050000X-0.725209X-0.462680X0.672873X-0.535950X0.725209X0.462680X-0.672873X0.535950X0*%
%ADD65RoundRect,0.271739X-0.678261X0.353261X-0.678261X-0.353261X0.678261X-0.353261X0.678261X0.353261X0*%
%ADD66RoundRect,0.050000X0.725209X0.462680X-0.672873X0.535950X-0.725209X-0.462680X0.672873X-0.535950X0*%
%ADD67RoundRect,0.271739X-0.665519X0.376717X-0.690176X-0.329375X0.665519X-0.376717X0.690176X0.329375X0*%
%ADD68RoundRect,0.271739X0.678261X-0.353261X0.678261X0.353261X-0.678261X0.353261X-0.678261X-0.353261X0*%
%ADD69RoundRect,0.271739X-0.695820X0.317279X-0.658843X-0.388274X0.695820X-0.317279X0.658843X0.388274X0*%
%ADD70RoundRect,0.271739X0.671992X-0.365044X0.684323X0.341370X-0.671992X0.365044X-0.684323X-0.341370X0*%
%ADD71RoundRect,0.050000X-0.682124X-0.524125X0.717023X-0.475266X0.682124X0.524125X-0.717023X0.475266X0*%
%ADD72RoundRect,0.270000X0.668735X-0.381894X0.640467X0.427612X-0.668735X0.381894X-0.640467X-0.427612X0*%
%ADD73RoundRect,0.270000X0.625153X-0.449704X0.681656X0.358323X-0.625153X0.449704X-0.681656X-0.358323X0*%
%ADD74RoundRect,0.050000X-0.672873X-0.535950X0.725209X-0.462680X0.672873X0.535950X-0.725209X0.462680X0*%
%ADD75RoundRect,0.050000X0.672873X0.535950X-0.725209X0.462680X-0.672873X-0.535950X0.725209X-0.462680X0*%
%ADD76RoundRect,0.270000X0.681656X-0.358323X0.625153X0.449704X-0.681656X0.358323X-0.625153X-0.449704X0*%
%ADD77RoundRect,0.050000X-0.733173X-0.449952X0.663417X-0.547612X0.733173X0.449952X-0.663417X0.547612X0*%
%ADD78RoundRect,0.271739X0.658843X-0.388274X0.695820X0.317279X-0.658843X0.388274X-0.695820X-0.317279X0*%
%ADD79RoundRect,0.050000X-0.663417X-0.547612X0.733173X-0.449952X0.663417X0.547612X-0.733173X0.449952X0*%
%ADD80RoundRect,0.271739X0.651967X-0.399714X0.701251X0.305087X-0.651967X0.399714X-0.701251X-0.305087X0*%
%ADD81RoundRect,0.271739X0.695820X-0.317279X0.658843X0.388274X-0.695820X0.317279X-0.658843X-0.388274X0*%
%ADD82RoundRect,0.050000X0.708620X0.487707X-0.691167X0.512141X-0.708620X-0.487707X0.691167X-0.512141X0*%
%ADD83RoundRect,0.050000X0.717023X0.475266X-0.682124X0.524125X-0.717023X-0.475266X0.682124X-0.524125X0*%
%ADD84RoundRect,0.271739X0.690176X-0.329375X0.665519X0.376717X-0.690176X0.329375X-0.665519X-0.376717X0*%
G04 APERTURE END LIST*
D10*
%TO.C,S32*%
X157362869Y-134318667D03*
D11*
X156004998Y-136812798D03*
D12*
X152285964Y-134141378D03*
D11*
X149570222Y-139129639D03*
D10*
X147209059Y-133964089D03*
D13*
X159278003Y-136927094D03*
X146270233Y-139014401D03*
%TD*%
D10*
%TO.C,S9*%
X72843188Y-134663215D03*
D11*
X71662607Y-137245990D03*
D12*
X67766283Y-134840504D03*
D11*
X65405120Y-140006054D03*
D10*
X62689378Y-135017793D03*
D14*
X74935612Y-137131694D03*
X62105131Y-140121292D03*
%TD*%
D10*
%TO.C,S31*%
X156628234Y-155355844D03*
D11*
X155270363Y-157849975D03*
D12*
X151551329Y-155178555D03*
D11*
X148835587Y-160166816D03*
D10*
X146474424Y-155001266D03*
D13*
X158543368Y-157964271D03*
X145535598Y-160051578D03*
%TD*%
D10*
%TO.C,S23*%
X115082567Y-89653140D03*
D11*
X113812567Y-92193140D03*
D12*
X110002567Y-89653140D03*
D11*
X107462567Y-94733140D03*
D10*
X104922567Y-89653140D03*
D15*
X117087567Y-92193140D03*
X104160567Y-94733140D03*
%TD*%
D10*
%TO.C,S40*%
X181022365Y-94309212D03*
D11*
X179621172Y-96779264D03*
D12*
X175949327Y-94043345D03*
D11*
X173146941Y-98983450D03*
D10*
X170876289Y-93777478D03*
D16*
X182891684Y-96950664D03*
X169849467Y-98810636D03*
%TD*%
D10*
%TO.C,S16*%
X93582806Y-111977075D03*
D11*
X92357329Y-114538852D03*
D12*
X88503580Y-112065733D03*
D11*
X86052625Y-117189288D03*
D10*
X83424354Y-112154391D03*
D17*
X95631830Y-114481696D03*
X82751128Y-117246916D03*
%TD*%
D10*
%TO.C,S39*%
X179920693Y-115330364D03*
D11*
X178519500Y-117800416D03*
D12*
X174847655Y-115064497D03*
D11*
X172045269Y-120004602D03*
D10*
X169774617Y-114798630D03*
D16*
X181790012Y-117971816D03*
X168747795Y-119831788D03*
%TD*%
D18*
%TO.C,C1*%
X180020720Y-73678516D03*
X180151560Y-71181942D03*
%TD*%
D10*
%TO.C,S29*%
X136968659Y-90757828D03*
D11*
X135654524Y-93275277D03*
D12*
X131889433Y-90669170D03*
D11*
X129261162Y-95704067D03*
D10*
X126810207Y-90580512D03*
D19*
X138929025Y-93332433D03*
X125959665Y-95646439D03*
%TD*%
D10*
%TO.C,S8*%
X73577822Y-155700392D03*
D11*
X72397241Y-158283167D03*
D12*
X68500917Y-155877681D03*
D11*
X66139754Y-161043231D03*
D10*
X63424012Y-156054970D03*
D14*
X75670246Y-158168871D03*
X62839765Y-161158469D03*
%TD*%
D20*
%TO.C,HOLE1*%
X29066043Y-64062467D03*
X29487593Y-62872048D03*
X29609717Y-65202302D03*
X30627428Y-62328374D03*
D21*
X30713782Y-63976113D03*
D20*
X30800136Y-65623852D03*
X31817847Y-62749924D03*
X31939971Y-65080178D03*
X32361521Y-63889759D03*
%TD*%
D10*
%TO.C,S7*%
X74312457Y-176737569D03*
D11*
X73131876Y-179320344D03*
D12*
X69235552Y-176914858D03*
D11*
X66874389Y-182080408D03*
D10*
X64158647Y-177092147D03*
D14*
X76404881Y-179206048D03*
X63574400Y-182195646D03*
%TD*%
D10*
%TO.C,S26*%
X135866539Y-153898210D03*
D11*
X134552404Y-156415659D03*
D12*
X130787313Y-153809552D03*
D11*
X128159042Y-158844449D03*
D10*
X125708087Y-153720894D03*
D19*
X137826905Y-156472815D03*
X124857545Y-158786821D03*
%TD*%
D22*
%TO.C,OLED5*%
X113812567Y-57603140D03*
D23*
X111272567Y-57603140D03*
X108732567Y-57603140D03*
X106192567Y-57603140D03*
%TD*%
D10*
%TO.C,S3*%
X52513674Y-157888899D03*
D11*
X51378348Y-160491885D03*
D12*
X47440636Y-158154766D03*
D11*
X45169984Y-163360737D03*
D10*
X42367598Y-158420633D03*
D24*
X54648860Y-160320485D03*
X41872509Y-163533551D03*
%TD*%
D25*
%TO.C,ROT4*%
X187517002Y-204857379D03*
X188144810Y-195879303D03*
D26*
X189651643Y-203001764D03*
X189826034Y-200507854D03*
X190000425Y-198013944D03*
%TD*%
D10*
%TO.C,S12*%
X95052299Y-196164251D03*
D11*
X93826822Y-198726028D03*
D12*
X89973073Y-196252909D03*
D11*
X87522118Y-201376464D03*
D10*
X84893847Y-196341567D03*
D17*
X97101323Y-198668872D03*
X84220621Y-201434092D03*
%TD*%
D10*
%TO.C,S25*%
X135499166Y-174945004D03*
D11*
X134185031Y-177462453D03*
D12*
X130419940Y-174856346D03*
D11*
X127791669Y-179891243D03*
D10*
X125340714Y-174767688D03*
D19*
X137459532Y-177519609D03*
X124490172Y-179833615D03*
%TD*%
D27*
%TO.C,MCU1*%
X190468138Y-65594213D03*
X187931619Y-65461279D03*
X185395100Y-65328346D03*
X182858581Y-65195413D03*
X180322062Y-65062479D03*
X177785543Y-64929546D03*
X175249023Y-64796613D03*
X172712504Y-64663679D03*
X170175985Y-64530746D03*
X167639466Y-64397813D03*
X165102947Y-64264879D03*
X162566428Y-64131946D03*
X160029909Y-63999013D03*
X159896976Y-66535532D03*
X159764043Y-69072051D03*
X159631109Y-71608570D03*
X159498176Y-74145089D03*
X159365243Y-76681608D03*
X159232309Y-79218127D03*
X161768828Y-79351060D03*
X164305347Y-79483993D03*
X166841866Y-79616927D03*
X169378385Y-79749860D03*
X171914905Y-79882793D03*
X174451424Y-80015727D03*
X176987943Y-80148660D03*
X179524462Y-80281593D03*
X182060981Y-80414527D03*
X184597500Y-80547460D03*
X187134019Y-80680393D03*
X189670538Y-80813327D03*
%TD*%
D10*
%TO.C,S1*%
X65078886Y-199120969D03*
D11*
X63989159Y-201743373D03*
D12*
X60011261Y-199475332D03*
D11*
X57831811Y-204720139D03*
D10*
X54943636Y-199829695D03*
D28*
X67256184Y-201514920D03*
X54537855Y-204950475D03*
%TD*%
D10*
%TO.C,S4*%
X51412002Y-136867747D03*
D11*
X50276676Y-139470733D03*
D12*
X46338964Y-137133614D03*
D11*
X44068312Y-142339585D03*
D10*
X41265926Y-137399481D03*
D24*
X53547188Y-139299333D03*
X40770837Y-142512399D03*
%TD*%
D10*
%TO.C,S18*%
X115082567Y-194903140D03*
D11*
X113812567Y-197443140D03*
D12*
X110002567Y-194903140D03*
D11*
X107462567Y-199983140D03*
D10*
X104922567Y-194903140D03*
D15*
X117087567Y-197443140D03*
X104160567Y-199983140D03*
%TD*%
D29*
%TO.C,OLED2*%
X62069669Y-80881442D03*
D30*
X64608122Y-80792797D03*
X67146574Y-80704153D03*
X69685027Y-80615508D03*
%TD*%
D31*
%TO.C,OLED3*%
X68986164Y-60602707D03*
D32*
X66455828Y-60824083D03*
X63925495Y-61045458D03*
X61395160Y-61266834D03*
%TD*%
D10*
%TO.C,S20*%
X115082567Y-152803140D03*
D11*
X113812567Y-155343140D03*
D12*
X110002567Y-152803140D03*
D11*
X107462567Y-157883140D03*
D10*
X104922567Y-152803140D03*
D15*
X117087567Y-155343140D03*
X104160567Y-157883140D03*
%TD*%
D10*
%TO.C,S38*%
X178819021Y-136351516D03*
D11*
X177417828Y-138821568D03*
D12*
X173745983Y-136085649D03*
D11*
X170943597Y-141025754D03*
D10*
X168672945Y-135819782D03*
D16*
X180688340Y-138992968D03*
X167646123Y-140852940D03*
%TD*%
D10*
%TO.C,S30*%
X155893600Y-176393021D03*
D11*
X154535729Y-178887152D03*
D12*
X150816695Y-176215732D03*
D11*
X148100953Y-181203993D03*
D10*
X145739790Y-176038443D03*
D13*
X157808734Y-179001448D03*
X144800964Y-181088755D03*
%TD*%
D10*
%TO.C,S24*%
X135131793Y-195991798D03*
D11*
X133817658Y-198509247D03*
D12*
X130052567Y-195903140D03*
D11*
X127424296Y-200938037D03*
D10*
X124973341Y-195814482D03*
D19*
X137092159Y-198566403D03*
X124122799Y-200880409D03*
%TD*%
D10*
%TO.C,S2*%
X53615346Y-178910050D03*
D11*
X52480020Y-181513036D03*
D12*
X48542308Y-179175917D03*
D11*
X46271656Y-184381888D03*
D10*
X43469270Y-179441784D03*
D24*
X55750532Y-181341636D03*
X42974181Y-184554702D03*
%TD*%
D10*
%TO.C,S37*%
X177717349Y-157372667D03*
D11*
X176316156Y-159842719D03*
D12*
X172644311Y-157106800D03*
D11*
X169841925Y-162046905D03*
D10*
X167571273Y-156840933D03*
D16*
X179586668Y-160014119D03*
X166544451Y-161874091D03*
%TD*%
D20*
%TO.C,HOLE4*%
X186636167Y-222112969D03*
X187199651Y-220982796D03*
X187036877Y-223310564D03*
X188397246Y-220582086D03*
D21*
X188282148Y-222228067D03*
D20*
X188167050Y-223874048D03*
X189527419Y-221145570D03*
X189364645Y-223473338D03*
X189928129Y-222343165D03*
%TD*%
D10*
%TO.C,S11*%
X71373919Y-92588861D03*
D11*
X70193338Y-95171636D03*
D12*
X66297014Y-92766150D03*
D11*
X63935851Y-97931700D03*
D10*
X61220109Y-92943439D03*
D14*
X73466343Y-95057340D03*
X60635862Y-98046938D03*
%TD*%
D33*
%TO.C,STAB2u1*%
X47615092Y-193340100D03*
D12*
X48676088Y-208513049D03*
D33*
X71432932Y-191674594D03*
D12*
X72493928Y-206847544D03*
%TD*%
D34*
%TO.C,ROT2*%
X46421479Y-220524582D03*
X55399555Y-219896774D03*
D35*
X48556120Y-222380197D03*
X51050030Y-222205806D03*
X53543940Y-222031415D03*
%TD*%
D36*
%TO.C,OLED1*%
X31236895Y-69180868D03*
D37*
X31369828Y-71717387D03*
X31502762Y-74253906D03*
X31635695Y-76790425D03*
%TD*%
D10*
%TO.C,S6*%
X49208658Y-94825444D03*
D11*
X48073332Y-97428430D03*
D12*
X44135620Y-95091311D03*
D11*
X41864968Y-100297282D03*
D10*
X39062582Y-95357178D03*
D24*
X51343844Y-97257030D03*
X38567493Y-100470096D03*
%TD*%
D10*
%TO.C,S15*%
X93950179Y-133023869D03*
D11*
X92724702Y-135585646D03*
D12*
X88870953Y-133112527D03*
D11*
X86419998Y-138236082D03*
D10*
X83791727Y-133201185D03*
D17*
X95999203Y-135528490D03*
X83118501Y-138293710D03*
%TD*%
D10*
%TO.C,S5*%
X50310330Y-115846595D03*
D11*
X49175004Y-118449581D03*
D12*
X45237292Y-116112462D03*
D11*
X42966640Y-121318433D03*
D10*
X40164254Y-116378329D03*
D24*
X52445516Y-118278181D03*
X39669165Y-121491247D03*
%TD*%
D10*
%TO.C,S19*%
X115082567Y-173853140D03*
D11*
X113812567Y-176393140D03*
D12*
X110002567Y-173853140D03*
D11*
X107462567Y-178933140D03*
D10*
X104922567Y-173853140D03*
D15*
X117087567Y-176393140D03*
X104160567Y-178933140D03*
%TD*%
D10*
%TO.C,S35*%
X165141311Y-198781730D03*
D11*
X163697224Y-201226952D03*
D12*
X160073686Y-198427367D03*
D11*
X157185510Y-203317811D03*
D10*
X155006061Y-198073004D03*
D38*
X166964246Y-201455404D03*
X153891554Y-203087475D03*
%TD*%
D20*
%TO.C,HOLE5*%
X108352567Y-213059390D03*
X108835841Y-211892664D03*
X108835841Y-214226116D03*
X110002567Y-211409390D03*
D21*
X110002567Y-213059390D03*
D20*
X110002567Y-214709390D03*
X111169293Y-211892664D03*
X111169293Y-214226116D03*
X111652567Y-213059390D03*
%TD*%
D39*
%TO.C,ROT1*%
X31940137Y-196927268D03*
X32567945Y-205905344D03*
D40*
X30084522Y-199061909D03*
X30258913Y-201555819D03*
X30433304Y-204049729D03*
%TD*%
D10*
%TO.C,S10*%
X72108554Y-113626038D03*
D11*
X70927973Y-116208813D03*
D12*
X67031649Y-113803327D03*
D11*
X64670486Y-118968877D03*
D10*
X61954744Y-113980616D03*
D14*
X74200978Y-116094517D03*
X61370497Y-119084115D03*
%TD*%
D33*
%TO.C,STAB2u2*%
X148652015Y-190626629D03*
D12*
X147591019Y-205799579D03*
D33*
X172469855Y-192292135D03*
D12*
X171408859Y-207465084D03*
%TD*%
D10*
%TO.C,S28*%
X136601286Y-111804622D03*
D11*
X135287151Y-114322071D03*
D12*
X131522060Y-111715964D03*
D11*
X128893789Y-116750861D03*
D10*
X126442834Y-111627306D03*
D19*
X138561652Y-114379227D03*
X125592292Y-116693233D03*
%TD*%
D10*
%TO.C,S13*%
X94684926Y-175117457D03*
D11*
X93459449Y-177679234D03*
D12*
X89605700Y-175206115D03*
D11*
X87154745Y-180329670D03*
D10*
X84526474Y-175294773D03*
D17*
X96733950Y-177622078D03*
X83853248Y-180387298D03*
%TD*%
D10*
%TO.C,S17*%
X93215433Y-90930281D03*
D11*
X91989956Y-93492058D03*
D12*
X88136207Y-91018939D03*
D11*
X85685252Y-96142494D03*
D10*
X83056981Y-91107597D03*
D17*
X95264457Y-93434902D03*
X82383755Y-96200122D03*
%TD*%
D10*
%TO.C,S14*%
X94317552Y-154070663D03*
D11*
X93092075Y-156632440D03*
D12*
X89238326Y-154159321D03*
D11*
X86787371Y-159282876D03*
D10*
X84159100Y-154247979D03*
D17*
X96366576Y-156575284D03*
X83485874Y-159340504D03*
%TD*%
D41*
%TO.C,ROT3*%
X164685392Y-218848809D03*
X173663468Y-219476617D03*
D42*
X166541007Y-220983450D03*
X169034917Y-221157841D03*
X171528827Y-221332232D03*
%TD*%
D10*
%TO.C,S36*%
X176615677Y-178393819D03*
D11*
X175214484Y-180863871D03*
D12*
X171542639Y-178127952D03*
D11*
X168740253Y-183068057D03*
D10*
X166469601Y-177862085D03*
D16*
X178484996Y-181035271D03*
X165442779Y-182895243D03*
%TD*%
D10*
%TO.C,S27*%
X136233912Y-132851416D03*
D11*
X134919777Y-135368865D03*
D12*
X131154686Y-132762758D03*
D11*
X128526415Y-137797655D03*
D10*
X126075460Y-132674100D03*
D19*
X138194278Y-135426021D03*
X125224918Y-137740027D03*
%TD*%
D20*
%TO.C,HOLE3*%
X186937325Y-73064662D03*
X187480999Y-71924827D03*
X187358875Y-74255081D03*
X188671418Y-71503277D03*
D21*
X188585064Y-73151016D03*
D20*
X188498710Y-74798755D03*
X189811253Y-72046951D03*
X189689129Y-74377205D03*
X190232803Y-73237370D03*
%TD*%
D10*
%TO.C,S22*%
X115082567Y-110703140D03*
D11*
X113812567Y-113243140D03*
D12*
X110002567Y-110703140D03*
D11*
X107462567Y-115783140D03*
D10*
X104922567Y-110703140D03*
D15*
X117087567Y-113243140D03*
X104160567Y-115783140D03*
%TD*%
D10*
%TO.C,S33*%
X158097503Y-113281490D03*
D11*
X156739632Y-115775621D03*
D12*
X153020598Y-113104201D03*
D11*
X150304856Y-118092462D03*
D10*
X147943693Y-112926912D03*
D13*
X160012637Y-115889917D03*
X147004867Y-117977224D03*
%TD*%
D10*
%TO.C,S34*%
X158832138Y-92244313D03*
D11*
X157474267Y-94738444D03*
D12*
X153755233Y-92067024D03*
D11*
X151039491Y-97055285D03*
D10*
X148678328Y-91889735D03*
D13*
X160747272Y-94852740D03*
X147739502Y-96940047D03*
%TD*%
D20*
%TO.C,HOLE6*%
X30156819Y-223391130D03*
X30557529Y-222193535D03*
X30720303Y-224521303D03*
X31687702Y-221630051D03*
D21*
X31802800Y-223276032D03*
D20*
X31917898Y-224922013D03*
X32885297Y-222030761D03*
X33048071Y-224358529D03*
X33448781Y-223160934D03*
%TD*%
D10*
%TO.C,S21*%
X115082567Y-131753140D03*
D11*
X113812567Y-134293140D03*
D12*
X110002567Y-131753140D03*
D11*
X107462567Y-136833140D03*
D10*
X104922567Y-131753140D03*
D15*
X117087567Y-134293140D03*
X104160567Y-136833140D03*
%TD*%
D43*
%TO.C,OLED4*%
X106192567Y-77628140D03*
D23*
X108732567Y-77628140D03*
X111272567Y-77628140D03*
X113812567Y-77628140D03*
%TD*%
D20*
%TO.C,HOLE2*%
X108352567Y-64628140D03*
X108835841Y-63461414D03*
X108835841Y-65794866D03*
X110002567Y-62978140D03*
D21*
X110002567Y-64628140D03*
D20*
X110002567Y-66278140D03*
X111169293Y-63461414D03*
X111169293Y-65794866D03*
X111652567Y-64628140D03*
%TD*%
D44*
%TO.C,LED8*%
X86072584Y-127500510D03*
X86097017Y-128900297D03*
X91496194Y-128806054D03*
X91471761Y-127406267D03*
%TD*%
D45*
%TO.C,LED6*%
X63401128Y-87203827D03*
X63449987Y-88602974D03*
X68846698Y-88414517D03*
X68797839Y-87015370D03*
%TD*%
D46*
%TO.C,C14*%
X125770578Y-169049320D03*
X125719094Y-171998870D03*
%TD*%
D47*
%TO.C,LED28*%
X91863567Y-149852848D03*
X91839134Y-148453061D03*
X86439957Y-148547304D03*
X86464390Y-149947091D03*
%TD*%
D48*
%TO.C,D37*%
X166108134Y-166702874D03*
X166254674Y-163906712D03*
%TD*%
D49*
%TO.C,C29*%
X93914739Y-149902057D03*
X93863255Y-146952507D03*
%TD*%
D50*
%TO.C,C23*%
X64458457Y-194979159D03*
X64252675Y-192036345D03*
%TD*%
D51*
%TO.C,C22*%
X171505461Y-88077595D03*
X171351069Y-91023553D03*
%TD*%
D52*
%TO.C,LED37*%
X155867626Y-108941025D03*
X155916485Y-107541878D03*
X150519774Y-107353421D03*
X150470915Y-108752568D03*
%TD*%
D53*
%TO.C,C9*%
X84021762Y-127471298D03*
X84073246Y-130420848D03*
%TD*%
D54*
%TO.C,D3*%
X41943327Y-168381488D03*
X41796787Y-165585326D03*
%TD*%
D49*
%TO.C,C28*%
X94649485Y-191995645D03*
X94598001Y-189046095D03*
%TD*%
D55*
%TO.C,LED11*%
X107302567Y-126093140D03*
X107302567Y-127493140D03*
X112702567Y-127493140D03*
X112702567Y-126093140D03*
%TD*%
D56*
%TO.C,LED35*%
X134295995Y-107503735D03*
X134320428Y-106103948D03*
X128921251Y-106009705D03*
X128896818Y-107409492D03*
%TD*%
D53*
%TO.C,C8*%
X84756508Y-169564886D03*
X84807992Y-172514436D03*
%TD*%
D57*
%TO.C,D12*%
X84122205Y-206281548D03*
X84073339Y-203481974D03*
%TD*%
D58*
%TO.C,D26*%
X124590016Y-163627890D03*
X124638882Y-160828316D03*
%TD*%
D59*
%TO.C,LED31*%
X112702567Y-148543140D03*
X112702567Y-147143140D03*
X107302567Y-147143140D03*
X107302567Y-148543140D03*
%TD*%
D55*
%TO.C,LED10*%
X107302567Y-168193140D03*
X107302567Y-169593140D03*
X112702567Y-169593140D03*
X112702567Y-168193140D03*
%TD*%
D60*
%TO.C,C5*%
X64288645Y-171359118D03*
X64391599Y-174307320D03*
%TD*%
D61*
%TO.C,D34*%
X147387526Y-101775709D03*
X147485244Y-98977415D03*
%TD*%
D58*
%TO.C,D25*%
X124222643Y-184674684D03*
X124271509Y-181875110D03*
%TD*%
D62*
%TO.C,D21*%
X103977567Y-141678140D03*
X103977567Y-138878140D03*
%TD*%
D63*
%TO.C,C38*%
X157913410Y-109097517D03*
X158016364Y-106149315D03*
%TD*%
D53*
%TO.C,C10*%
X83287015Y-85377710D03*
X83338499Y-88327260D03*
%TD*%
D64*
%TO.C,LED40*%
X177766906Y-110951642D03*
X177840176Y-109553560D03*
X172447576Y-109270946D03*
X172374306Y-110669028D03*
%TD*%
D65*
%TO.C,C11*%
X105252567Y-168128140D03*
X105252567Y-171078140D03*
%TD*%
D57*
%TO.C,D17*%
X82285339Y-101047578D03*
X82236473Y-98248004D03*
%TD*%
D62*
%TO.C,D23*%
X103977567Y-99578140D03*
X103977567Y-96778140D03*
%TD*%
D66*
%TO.C,LED19*%
X169142561Y-172334402D03*
X169069291Y-173732484D03*
X174461891Y-174015098D03*
X174535161Y-172617016D03*
%TD*%
%TO.C,LED20*%
X171345905Y-130292098D03*
X171272635Y-131690180D03*
X176665235Y-131972794D03*
X176738505Y-130574712D03*
%TD*%
D67*
%TO.C,C19*%
X149207926Y-86179740D03*
X149104972Y-89127942D03*
%TD*%
D68*
%TO.C,C33*%
X114752567Y-106528140D03*
X114752567Y-103578140D03*
%TD*%
D45*
%TO.C,LED5*%
X64870396Y-129278180D03*
X64919255Y-130677327D03*
X70315966Y-130488870D03*
X70267107Y-129089723D03*
%TD*%
D69*
%TO.C,C4*%
X39092506Y-89622752D03*
X39246898Y-92568710D03*
%TD*%
D70*
%TO.C,C34*%
X134874707Y-191811675D03*
X134926191Y-188862125D03*
%TD*%
D71*
%TO.C,LED26*%
X69581332Y-109451693D03*
X69532473Y-108052546D03*
X64135762Y-108241003D03*
X64184621Y-109640150D03*
%TD*%
D62*
%TO.C,D20*%
X103977567Y-162728140D03*
X103977567Y-159928140D03*
%TD*%
D72*
%TO.C,D10*%
X61356696Y-123932550D03*
X61258978Y-121134256D03*
%TD*%
D73*
%TO.C,D35*%
X153371030Y-207907908D03*
X153566348Y-205114728D03*
%TD*%
D62*
%TO.C,D19*%
X103977567Y-183778140D03*
X103977567Y-180978140D03*
%TD*%
D68*
%TO.C,C32*%
X114752567Y-148628140D03*
X114752567Y-145678140D03*
%TD*%
D46*
%TO.C,C16*%
X127240071Y-84862144D03*
X127188587Y-87811694D03*
%TD*%
D45*
%TO.C,LED4*%
X66339665Y-171352534D03*
X66388524Y-172751681D03*
X71785235Y-172563224D03*
X71736376Y-171164077D03*
%TD*%
D72*
%TO.C,D7*%
X63560599Y-187044081D03*
X63462881Y-184245787D03*
%TD*%
D74*
%TO.C,LED24*%
X47710641Y-111716994D03*
X47637371Y-110318912D03*
X42244771Y-110601526D03*
X42318041Y-111999608D03*
%TD*%
%TO.C,LED23*%
X49913984Y-153759297D03*
X49840714Y-152361215D03*
X44448114Y-152643829D03*
X44521384Y-154041911D03*
%TD*%
D54*
%TO.C,D2*%
X43044999Y-189402639D03*
X42898459Y-186606477D03*
%TD*%
D61*
%TO.C,D33*%
X146652891Y-122812886D03*
X146750609Y-120014592D03*
%TD*%
D69*
%TO.C,C3*%
X41295850Y-131665055D03*
X41450242Y-134611013D03*
%TD*%
D65*
%TO.C,C12*%
X105252567Y-126028140D03*
X105252567Y-128978140D03*
%TD*%
D70*
%TO.C,C36*%
X136344200Y-107624499D03*
X136395684Y-104674949D03*
%TD*%
D75*
%TO.C,LED2*%
X43346443Y-131622677D03*
X43419713Y-133020759D03*
X48812313Y-132738145D03*
X48739043Y-131340063D03*
%TD*%
D62*
%TO.C,D18*%
X103977567Y-204828140D03*
X103977567Y-202028140D03*
%TD*%
D54*
%TO.C,D5*%
X39739983Y-126339184D03*
X39593443Y-123543022D03*
%TD*%
D69*
%TO.C,C2*%
X43499194Y-173707359D03*
X43653586Y-176653317D03*
%TD*%
D57*
%TO.C,D14*%
X83387459Y-164187960D03*
X83338593Y-161388386D03*
%TD*%
D62*
%TO.C,D22*%
X103977567Y-120628140D03*
X103977567Y-117828140D03*
%TD*%
D76*
%TO.C,D1*%
X54693271Y-209796438D03*
X54497953Y-207003258D03*
%TD*%
D61*
%TO.C,D32*%
X145918257Y-143850062D03*
X146015975Y-141051768D03*
%TD*%
D57*
%TO.C,D13*%
X83754832Y-185234754D03*
X83705966Y-182435180D03*
%TD*%
%TO.C,D16*%
X82652712Y-122094372D03*
X82603846Y-119294798D03*
%TD*%
D67*
%TO.C,C17*%
X146269388Y-170328447D03*
X146166434Y-173276649D03*
%TD*%
D58*
%TO.C,D29*%
X125692136Y-100487508D03*
X125741002Y-97687934D03*
%TD*%
D47*
%TO.C,LED29*%
X91128821Y-107759260D03*
X91104388Y-106359473D03*
X85705211Y-106453716D03*
X85729644Y-107853503D03*
%TD*%
D77*
%TO.C,LED38*%
X163064271Y-194366086D03*
X163161930Y-192969497D03*
X157775085Y-192592812D03*
X157677426Y-193989401D03*
%TD*%
D65*
%TO.C,C13*%
X105252567Y-83928140D03*
X105252567Y-86878140D03*
%TD*%
D75*
%TO.C,LED3*%
X41143099Y-89580374D03*
X41216369Y-90978456D03*
X46608969Y-90695842D03*
X46535699Y-89297760D03*
%TD*%
D78*
%TO.C,C40*%
X177606304Y-153186118D03*
X177760696Y-150240160D03*
%TD*%
D44*
%TO.C,LED7*%
X86807331Y-169594098D03*
X86831764Y-170993885D03*
X92230941Y-170899642D03*
X92206508Y-169499855D03*
%TD*%
D61*
%TO.C,D30*%
X144448988Y-185924416D03*
X144546706Y-183126122D03*
%TD*%
D79*
%TO.C,LED22*%
X62407521Y-195037366D03*
X62309862Y-193640777D03*
X56923017Y-194017462D03*
X57020676Y-195414051D03*
%TD*%
D80*
%TO.C,C39*%
X165103348Y-194593880D03*
X165309130Y-191651066D03*
%TD*%
D58*
%TO.C,D24*%
X123855270Y-205721478D03*
X123904136Y-202921904D03*
%TD*%
D63*
%TO.C,C37*%
X156444141Y-151171870D03*
X156547095Y-148223668D03*
%TD*%
D59*
%TO.C,LED30*%
X112702567Y-190643140D03*
X112702567Y-189243140D03*
X107302567Y-189243140D03*
X107302567Y-190643140D03*
%TD*%
D71*
%TO.C,LED25*%
X71050601Y-151526047D03*
X71001742Y-150126900D03*
X65605031Y-150315357D03*
X65653890Y-151714504D03*
%TD*%
D72*
%TO.C,D8*%
X62825965Y-166006904D03*
X62728247Y-163208610D03*
%TD*%
D57*
%TO.C,D15*%
X83020086Y-143141166D03*
X82971220Y-140341592D03*
%TD*%
D64*
%TO.C,LED39*%
X175563563Y-152993946D03*
X175636833Y-151595864D03*
X170244233Y-151313250D03*
X170170963Y-152711332D03*
%TD*%
D67*
%TO.C,C18*%
X147738657Y-128254094D03*
X147635703Y-131202296D03*
%TD*%
D61*
%TO.C,D31*%
X145183622Y-164887239D03*
X145281340Y-162088945D03*
%TD*%
D60*
%TO.C,C6*%
X62819377Y-129284764D03*
X62922331Y-132232966D03*
%TD*%
D51*
%TO.C,C21*%
X169302117Y-130119898D03*
X169147725Y-133065856D03*
%TD*%
D60*
%TO.C,C7*%
X61350108Y-87210411D03*
X61453062Y-90158613D03*
%TD*%
D52*
%TO.C,LED36*%
X154398357Y-151015379D03*
X154447216Y-149616232D03*
X149050505Y-149427775D03*
X149001646Y-150826922D03*
%TD*%
D46*
%TO.C,C15*%
X126505325Y-126955732D03*
X126453841Y-129905282D03*
%TD*%
D56*
%TO.C,LED33*%
X132826503Y-191690911D03*
X132850936Y-190291124D03*
X127451759Y-190196881D03*
X127427326Y-191596668D03*
%TD*%
D68*
%TO.C,C31*%
X114752567Y-190728140D03*
X114752567Y-187778140D03*
%TD*%
D75*
%TO.C,LED1*%
X45549786Y-173664981D03*
X45623056Y-175063063D03*
X51015656Y-174780449D03*
X50942386Y-173382367D03*
%TD*%
D48*
%TO.C,D40*%
X169413150Y-103639419D03*
X169559690Y-100843257D03*
%TD*%
D81*
%TO.C,C24*%
X51965624Y-153736892D03*
X51811232Y-150790934D03*
%TD*%
D82*
%TO.C,LED15*%
X129288625Y-84962911D03*
X129264192Y-86362698D03*
X134663369Y-86456941D03*
X134687802Y-85057154D03*
%TD*%
D58*
%TO.C,D27*%
X124957389Y-142581096D03*
X125006255Y-139781522D03*
%TD*%
D48*
%TO.C,D39*%
X168311478Y-124660571D03*
X168458018Y-121864409D03*
%TD*%
%TO.C,D36*%
X165006462Y-187724026D03*
X165153002Y-184927864D03*
%TD*%
D51*
%TO.C,C20*%
X167098773Y-172162202D03*
X166944381Y-175108160D03*
%TD*%
D78*
%TO.C,C41*%
X179809648Y-111143815D03*
X179964040Y-108197857D03*
%TD*%
D83*
%TO.C,LED16*%
X148315870Y-170464951D03*
X148267011Y-171864098D03*
X153663722Y-172052555D03*
X153712581Y-170653408D03*
%TD*%
%TO.C,LED18*%
X151254408Y-86316244D03*
X151205549Y-87715391D03*
X156602260Y-87903848D03*
X156651119Y-86504701D03*
%TD*%
D72*
%TO.C,D9*%
X62091330Y-144969727D03*
X61993612Y-142171433D03*
%TD*%
D56*
%TO.C,LED34*%
X133561249Y-149597323D03*
X133585682Y-148197536D03*
X128186505Y-148103293D03*
X128162072Y-149503080D03*
%TD*%
D70*
%TO.C,C35*%
X135609454Y-149718087D03*
X135660938Y-146768537D03*
%TD*%
D81*
%TO.C,C25*%
X49762280Y-111694589D03*
X49607888Y-108748631D03*
%TD*%
D72*
%TO.C,D11*%
X60622062Y-102895373D03*
X60524344Y-100097079D03*
%TD*%
D44*
%TO.C,LED9*%
X85337838Y-85406922D03*
X85362271Y-86806709D03*
X90761448Y-86712466D03*
X90737015Y-85312679D03*
%TD*%
D59*
%TO.C,LED32*%
X112702567Y-106443140D03*
X112702567Y-105043140D03*
X107302567Y-105043140D03*
X107302567Y-106443140D03*
%TD*%
D84*
%TO.C,C27*%
X71633050Y-109465097D03*
X71530096Y-106516895D03*
%TD*%
D66*
%TO.C,LED21*%
X173549248Y-88249795D03*
X173475978Y-89647877D03*
X178868578Y-89930491D03*
X178941848Y-88532409D03*
%TD*%
D84*
%TO.C,C26*%
X73102319Y-151539451D03*
X72999365Y-148591249D03*
%TD*%
D54*
%TO.C,D6*%
X38638311Y-105318032D03*
X38491771Y-102521870D03*
%TD*%
D82*
%TO.C,LED14*%
X128553878Y-127056499D03*
X128529445Y-128456286D03*
X133928622Y-128550529D03*
X133953055Y-127150742D03*
%TD*%
D58*
%TO.C,D28*%
X125324762Y-121534302D03*
X125373628Y-118734728D03*
%TD*%
D49*
%TO.C,C30*%
X93179992Y-107808469D03*
X93128508Y-104858919D03*
%TD*%
D54*
%TO.C,D4*%
X40841655Y-147360336D03*
X40695115Y-144564174D03*
%TD*%
D83*
%TO.C,LED17*%
X149785139Y-128390598D03*
X149736280Y-129789745D03*
X155132991Y-129978202D03*
X155181850Y-128579055D03*
%TD*%
D82*
%TO.C,LED13*%
X127819132Y-169150087D03*
X127794699Y-170549874D03*
X133193876Y-170644117D03*
X133218309Y-169244330D03*
%TD*%
D55*
%TO.C,LED12*%
X107302567Y-83993140D03*
X107302567Y-85393140D03*
X112702567Y-85393140D03*
X112702567Y-83993140D03*
%TD*%
D47*
%TO.C,LED27*%
X92598314Y-191946436D03*
X92573881Y-190546649D03*
X87174704Y-190640892D03*
X87199137Y-192040679D03*
%TD*%
D48*
%TO.C,D38*%
X167209806Y-145681722D03*
X167356346Y-142885560D03*
%TD*%
M02*
