M48
; DRILL file {KiCad 9.0.7} date 2026-01-25T01:50:17-0500
; FORMAT={-:-/ absolute / metric / decimal}
; #@! TF.CreationDate,2026-01-25T01:50:17-05:00
; #@! TF.GenerationSoftware,Kicad,Pcbnew,9.0.7
; #@! TF.FileFunction,NonPlated,1,2,NPTH
FMAT,2
METRIC
; #@! TA.AperFunction,NonPlated,NPTH,ComponentDrill
T1C1.702
; #@! TA.AperFunction,NonPlated,NPTH,ComponentDrill
T2C3.000
; #@! TA.AperFunction,NonPlated,NPTH,ComponentDrill
T3C3.048
; #@! TA.AperFunction,NonPlated,NPTH,ComponentDrill
T4C3.988
%
G90
G05
T1
X39.063Y-95.357
X40.164Y-116.378
X41.266Y-137.399
X42.368Y-158.421
X43.469Y-179.442
X49.209Y-94.825
X50.31Y-115.847
X51.412Y-136.868
X52.514Y-157.889
X53.615Y-178.91
X54.944Y-199.83
X61.22Y-92.943
X61.955Y-113.981
X62.689Y-135.018
X63.424Y-156.055
X64.159Y-177.092
X65.079Y-199.121
X71.374Y-92.589
X72.109Y-113.626
X72.843Y-134.663
X73.578Y-155.7
X74.312Y-176.738
X83.057Y-91.108
X83.424Y-112.154
X83.792Y-133.201
X84.159Y-154.248
X84.526Y-175.295
X84.894Y-196.342
X93.215Y-90.93
X93.583Y-111.977
X93.95Y-133.024
X94.318Y-154.071
X94.685Y-175.117
X95.052Y-196.164
X104.923Y-89.653
X104.923Y-110.703
X104.923Y-131.753
X104.923Y-152.803
X104.923Y-173.853
X104.923Y-194.903
X115.083Y-89.653
X115.083Y-110.703
X115.083Y-131.753
X115.083Y-152.803
X115.083Y-173.853
X115.083Y-194.903
X124.973Y-195.814
X125.341Y-174.768
X125.708Y-153.721
X126.075Y-132.674
X126.443Y-111.627
X126.81Y-90.581
X135.132Y-195.992
X135.499Y-174.945
X135.867Y-153.898
X136.234Y-132.851
X136.601Y-111.805
X136.969Y-90.758
X145.74Y-176.038
X146.474Y-155.001
X147.209Y-133.964
X147.944Y-112.927
X148.678Y-91.89
X155.006Y-198.073
X155.894Y-176.393
X156.628Y-155.356
X157.363Y-134.319
X158.098Y-113.281
X158.832Y-92.244
X165.141Y-198.782
X166.47Y-177.862
X167.571Y-156.841
X168.673Y-135.82
X169.775Y-114.799
X170.876Y-93.777
X176.616Y-178.394
X177.717Y-157.373
X178.819Y-136.352
X179.921Y-115.33
X181.022Y-94.309
T2
X41.865Y-100.297
X42.967Y-121.318
X44.068Y-142.34
X45.17Y-163.361
X46.272Y-184.382
X48.073Y-97.428
X49.175Y-118.45
X50.277Y-139.471
X51.378Y-160.492
X52.48Y-181.513
X57.832Y-204.72
X63.936Y-97.932
X63.989Y-201.743
X64.67Y-118.969
X65.405Y-140.006
X66.14Y-161.043
X66.874Y-182.08
X70.193Y-95.172
X70.928Y-116.209
X71.663Y-137.246
X72.397Y-158.283
X73.132Y-179.32
X85.685Y-96.142
X86.053Y-117.189
X86.42Y-138.236
X86.787Y-159.283
X87.155Y-180.33
X87.522Y-201.376
X91.99Y-93.492
X92.357Y-114.539
X92.725Y-135.586
X93.092Y-156.632
X93.459Y-177.679
X93.827Y-198.726
X107.463Y-94.733
X107.463Y-115.783
X107.463Y-136.833
X107.463Y-157.883
X107.463Y-178.933
X107.463Y-199.983
X113.813Y-92.193
X113.813Y-113.243
X113.813Y-134.293
X113.813Y-155.343
X113.813Y-176.393
X113.813Y-197.443
X127.424Y-200.938
X127.792Y-179.891
X128.159Y-158.844
X128.526Y-137.798
X128.894Y-116.751
X129.261Y-95.704
X133.818Y-198.509
X134.185Y-177.462
X134.552Y-156.416
X134.92Y-135.369
X135.287Y-114.322
X135.655Y-93.275
X148.101Y-181.204
X148.836Y-160.167
X149.57Y-139.13
X150.305Y-118.092
X151.039Y-97.055
X154.536Y-178.887
X155.27Y-157.85
X156.005Y-136.813
X156.74Y-115.776
X157.186Y-203.318
X157.474Y-94.738
X163.697Y-201.227
X168.74Y-183.068
X169.842Y-162.047
X170.944Y-141.026
X172.045Y-120.005
X173.147Y-98.983
X175.214Y-180.864
X176.316Y-159.843
X177.418Y-138.822
X178.519Y-117.8
X179.621Y-96.779
T3
X47.615Y-193.34
X71.433Y-191.675
X148.652Y-190.627
X172.47Y-192.292
T4
X44.136Y-95.091
X45.237Y-116.112
X46.339Y-137.134
X47.441Y-158.155
X48.542Y-179.176
X48.676Y-208.513
X60.011Y-199.475
X66.297Y-92.766
X67.032Y-113.803
X67.766Y-134.841
X68.501Y-155.878
X69.236Y-176.915
X72.494Y-206.848
X88.136Y-91.019
X88.504Y-112.066
X88.871Y-133.113
X89.238Y-154.159
X89.606Y-175.206
X89.973Y-196.253
X110.003Y-89.653
X110.003Y-110.703
X110.003Y-131.753
X110.003Y-152.803
X110.003Y-173.853
X110.003Y-194.903
X130.053Y-195.903
X130.42Y-174.856
X130.787Y-153.81
X131.155Y-132.763
X131.522Y-111.716
X131.889Y-90.669
X147.591Y-205.8
X150.817Y-176.216
X151.551Y-155.179
X152.286Y-134.141
X153.021Y-113.104
X153.755Y-92.067
X160.074Y-198.427
X171.409Y-207.465
X171.543Y-178.128
X172.644Y-157.107
X173.746Y-136.086
X174.848Y-115.064
X175.949Y-94.043
M30
