%TF.GenerationSoftware,KiCad,Pcbnew,9.0.7*%
%TF.CreationDate,2026-01-25T01:50:45-05:00*%
%TF.ProjectId,travis_erg2026-v1,74726176-6973-45f6-9572-67323032362d,2026.01.24*%
%TF.SameCoordinates,Original*%
%TF.FileFunction,Soldermask,Top*%
%TF.FilePolarity,Negative*%
%FSLAX46Y46*%
G04 Gerber Fmt 4.6, Leading zero omitted, Abs format (unit mm)*
G04 Created by KiCad (PCBNEW 9.0.7) date 2026-01-25 01:50:45*
%MOMM*%
%LPD*%
G01*
G04 APERTURE LIST*
G04 Aperture macros list*
%AMRoundRect*
0 Rectangle with rounded corners*
0 $1 Rounding radius*
0 $2 $3 $4 $5 $6 $7 $8 $9 X,Y pos of 4 corners*
0 Add a 4 corners polygon primitive as box body*
4,1,4,$2,$3,$4,$5,$6,$7,$8,$9,$2,$3,0*
0 Add four circle primitives for the rounded corners*
1,1,$1+$1,$2,$3*
1,1,$1+$1,$4,$5*
1,1,$1+$1,$6,$7*
1,1,$1+$1,$8,$9*
0 Add four rect primitives between the rounded corners*
20,1,$1+$1,$2,$3,$4,$5,0*
20,1,$1+$1,$4,$5,$6,$7,0*
20,1,$1+$1,$6,$7,$8,$9,0*
20,1,$1+$1,$8,$9,$2,$3,0*%
%AMHorizOval*
0 Thick line with rounded ends*
0 $1 width*
0 $2 $3 position (X,Y) of the first rounded end (center of the circle)*
0 $4 $5 position (X,Y) of the second rounded end (center of the circle)*
0 Add line between two ends*
20,1,$1,$2,$3,$4,$5,0*
0 Add two circle primitives to create the rounded ends*
1,1,$1,$2,$3*
1,1,$1,$4,$5*%
G04 Aperture macros list end*
%ADD10C,1.801800*%
%ADD11C,3.100000*%
%ADD12C,4.087800*%
%ADD13C,1.700000*%
%ADD14C,0.800000*%
%ADD15C,4.500000*%
%ADD16RoundRect,0.050000X-0.850000X0.850000X-0.850000X-0.850000X0.850000X-0.850000X0.850000X0.850000X0*%
%ADD17O,1.800000X1.800000*%
%ADD18RoundRect,0.650000X0.852466X-0.711197X0.943149X0.585636X-0.852466X0.711197X-0.943149X-0.585636X0*%
%ADD19HorizOval,1.500000X-0.149635X0.010463X0.149635X-0.010463X0*%
%ADD20C,1.624000*%
%ADD21RoundRect,0.050000X0.879147X-0.819818X0.819818X0.879147X-0.879147X0.819818X-0.819818X-0.879147X0*%
%ADD22HorizOval,1.800000X0.000000X0.000000X0.000000X0.000000X0*%
%ADD23RoundRect,0.050000X-0.920848X0.772683X-0.772683X-0.920848X0.920848X-0.772683X0.772683X0.920848X0*%
%ADD24HorizOval,1.800000X0.000000X0.000000X0.000000X0.000000X0*%
%ADD25C,3.148000*%
%ADD26RoundRect,0.650000X-0.585636X-0.943149X0.711197X-0.852466X0.585636X0.943149X-0.711197X0.852466X0*%
%ADD27HorizOval,1.500000X-0.010463X0.149635X0.010463X-0.149635X0*%
%ADD28RoundRect,0.050000X-0.804350X-0.893321X0.893321X-0.804350X0.804350X0.893321X-0.893321X0.804350X0*%
%ADD29HorizOval,1.800000X0.000000X0.000000X0.000000X0.000000X0*%
%ADD30RoundRect,0.650000X-0.943149X0.585636X-0.852466X-0.711197X0.943149X-0.585636X0.852466X0.711197X0*%
%ADD31HorizOval,1.500000X-0.149635X-0.010463X0.149635X0.010463X0*%
%ADD32RoundRect,0.650000X-0.711197X-0.852466X0.585636X-0.943149X0.711197X0.852466X-0.585636X0.943149X0*%
%ADD33HorizOval,1.500000X-0.010463X-0.149635X0.010463X0.149635X0*%
%ADD34RoundRect,0.050000X0.850000X-0.850000X0.850000X0.850000X-0.850000X0.850000X-0.850000X-0.850000X0*%
G04 APERTURE END LIST*
D10*
%TO.C,S32*%
X157362869Y-134318667D03*
D11*
X156004998Y-136812798D03*
D12*
X152285964Y-134141378D03*
D11*
X149570222Y-139129639D03*
D10*
X147209059Y-133964089D03*
%TD*%
%TO.C,S9*%
X72843188Y-134663215D03*
D11*
X71662607Y-137245990D03*
D12*
X67766283Y-134840504D03*
D11*
X65405120Y-140006054D03*
D10*
X62689378Y-135017793D03*
%TD*%
%TO.C,S31*%
X156628234Y-155355844D03*
D11*
X155270363Y-157849975D03*
D12*
X151551329Y-155178555D03*
D11*
X148835587Y-160166816D03*
D10*
X146474424Y-155001266D03*
%TD*%
%TO.C,S23*%
X115082567Y-89653140D03*
D11*
X113812567Y-92193140D03*
D12*
X110002567Y-89653140D03*
D11*
X107462567Y-94733140D03*
D10*
X104922567Y-89653140D03*
%TD*%
%TO.C,S40*%
X181022365Y-94309212D03*
D11*
X179621172Y-96779264D03*
D12*
X175949327Y-94043345D03*
D11*
X173146941Y-98983450D03*
D10*
X170876289Y-93777478D03*
%TD*%
%TO.C,S16*%
X93582806Y-111977075D03*
D11*
X92357329Y-114538852D03*
D12*
X88503580Y-112065733D03*
D11*
X86052625Y-117189288D03*
D10*
X83424354Y-112154391D03*
%TD*%
%TO.C,S39*%
X179920693Y-115330364D03*
D11*
X178519500Y-117800416D03*
D12*
X174847655Y-115064497D03*
D11*
X172045269Y-120004602D03*
D10*
X169774617Y-114798630D03*
%TD*%
D13*
%TO.C,C1*%
X180020720Y-73678516D03*
X180151560Y-71181942D03*
%TD*%
D10*
%TO.C,S29*%
X136968659Y-90757828D03*
D11*
X135654524Y-93275277D03*
D12*
X131889433Y-90669170D03*
D11*
X129261162Y-95704067D03*
D10*
X126810207Y-90580512D03*
%TD*%
%TO.C,S8*%
X73577822Y-155700392D03*
D11*
X72397241Y-158283167D03*
D12*
X68500917Y-155877681D03*
D11*
X66139754Y-161043231D03*
D10*
X63424012Y-156054970D03*
%TD*%
D14*
%TO.C,HOLE1*%
X29066043Y-64062467D03*
X29487593Y-62872048D03*
X29609717Y-65202302D03*
X30627428Y-62328374D03*
D15*
X30713782Y-63976113D03*
D14*
X30800136Y-65623852D03*
X31817847Y-62749924D03*
X31939971Y-65080178D03*
X32361521Y-63889759D03*
%TD*%
D10*
%TO.C,S7*%
X74312457Y-176737569D03*
D11*
X73131876Y-179320344D03*
D12*
X69235552Y-176914858D03*
D11*
X66874389Y-182080408D03*
D10*
X64158647Y-177092147D03*
%TD*%
%TO.C,S26*%
X135866539Y-153898210D03*
D11*
X134552404Y-156415659D03*
D12*
X130787313Y-153809552D03*
D11*
X128159042Y-158844449D03*
D10*
X125708087Y-153720894D03*
%TD*%
D16*
%TO.C,OLED5*%
X113812567Y-57603140D03*
D17*
X111272567Y-57603140D03*
X108732567Y-57603140D03*
X106192567Y-57603140D03*
%TD*%
D10*
%TO.C,S3*%
X52513674Y-157888899D03*
D11*
X51378348Y-160491885D03*
D12*
X47440636Y-158154766D03*
D11*
X45169984Y-163360737D03*
D10*
X42367598Y-158420633D03*
%TD*%
D18*
%TO.C,ROT4*%
X187517002Y-204857379D03*
X188144810Y-195879303D03*
D19*
X189651643Y-203001764D03*
X189826034Y-200507854D03*
X190000425Y-198013944D03*
%TD*%
D10*
%TO.C,S12*%
X95052299Y-196164251D03*
D11*
X93826822Y-198726028D03*
D12*
X89973073Y-196252909D03*
D11*
X87522118Y-201376464D03*
D10*
X84893847Y-196341567D03*
%TD*%
%TO.C,S25*%
X135499166Y-174945004D03*
D11*
X134185031Y-177462453D03*
D12*
X130419940Y-174856346D03*
D11*
X127791669Y-179891243D03*
D10*
X125340714Y-174767688D03*
%TD*%
D20*
%TO.C,MCU1*%
X190468138Y-65594213D03*
X187931619Y-65461279D03*
X185395100Y-65328346D03*
X182858581Y-65195413D03*
X180322062Y-65062479D03*
X177785543Y-64929546D03*
X175249023Y-64796613D03*
X172712504Y-64663679D03*
X170175985Y-64530746D03*
X167639466Y-64397813D03*
X165102947Y-64264879D03*
X162566428Y-64131946D03*
X160029909Y-63999013D03*
X159896976Y-66535532D03*
X159764043Y-69072051D03*
X159631109Y-71608570D03*
X159498176Y-74145089D03*
X159365243Y-76681608D03*
X159232309Y-79218127D03*
X161768828Y-79351060D03*
X164305347Y-79483993D03*
X166841866Y-79616927D03*
X169378385Y-79749860D03*
X171914905Y-79882793D03*
X174451424Y-80015727D03*
X176987943Y-80148660D03*
X179524462Y-80281593D03*
X182060981Y-80414527D03*
X184597500Y-80547460D03*
X187134019Y-80680393D03*
X189670538Y-80813327D03*
%TD*%
D10*
%TO.C,S1*%
X65078886Y-199120969D03*
D11*
X63989159Y-201743373D03*
D12*
X60011261Y-199475332D03*
D11*
X57831811Y-204720139D03*
D10*
X54943636Y-199829695D03*
%TD*%
%TO.C,S4*%
X51412002Y-136867747D03*
D11*
X50276676Y-139470733D03*
D12*
X46338964Y-137133614D03*
D11*
X44068312Y-142339585D03*
D10*
X41265926Y-137399481D03*
%TD*%
%TO.C,S18*%
X115082567Y-194903140D03*
D11*
X113812567Y-197443140D03*
D12*
X110002567Y-194903140D03*
D11*
X107462567Y-199983140D03*
D10*
X104922567Y-194903140D03*
%TD*%
D21*
%TO.C,OLED2*%
X62069669Y-80881442D03*
D22*
X64608122Y-80792797D03*
X67146574Y-80704153D03*
X69685027Y-80615508D03*
%TD*%
D23*
%TO.C,OLED3*%
X68986164Y-60602707D03*
D24*
X66455828Y-60824083D03*
X63925495Y-61045458D03*
X61395160Y-61266834D03*
%TD*%
D10*
%TO.C,S20*%
X115082567Y-152803140D03*
D11*
X113812567Y-155343140D03*
D12*
X110002567Y-152803140D03*
D11*
X107462567Y-157883140D03*
D10*
X104922567Y-152803140D03*
%TD*%
%TO.C,S38*%
X178819021Y-136351516D03*
D11*
X177417828Y-138821568D03*
D12*
X173745983Y-136085649D03*
D11*
X170943597Y-141025754D03*
D10*
X168672945Y-135819782D03*
%TD*%
%TO.C,S30*%
X155893600Y-176393021D03*
D11*
X154535729Y-178887152D03*
D12*
X150816695Y-176215732D03*
D11*
X148100953Y-181203993D03*
D10*
X145739790Y-176038443D03*
%TD*%
%TO.C,S24*%
X135131793Y-195991798D03*
D11*
X133817658Y-198509247D03*
D12*
X130052567Y-195903140D03*
D11*
X127424296Y-200938037D03*
D10*
X124973341Y-195814482D03*
%TD*%
%TO.C,S2*%
X53615346Y-178910050D03*
D11*
X52480020Y-181513036D03*
D12*
X48542308Y-179175917D03*
D11*
X46271656Y-184381888D03*
D10*
X43469270Y-179441784D03*
%TD*%
%TO.C,S37*%
X177717349Y-157372667D03*
D11*
X176316156Y-159842719D03*
D12*
X172644311Y-157106800D03*
D11*
X169841925Y-162046905D03*
D10*
X167571273Y-156840933D03*
%TD*%
D14*
%TO.C,HOLE4*%
X186636167Y-222112969D03*
X187199651Y-220982796D03*
X187036877Y-223310564D03*
X188397246Y-220582086D03*
D15*
X188282148Y-222228067D03*
D14*
X188167050Y-223874048D03*
X189527419Y-221145570D03*
X189364645Y-223473338D03*
X189928129Y-222343165D03*
%TD*%
D10*
%TO.C,S11*%
X71373919Y-92588861D03*
D11*
X70193338Y-95171636D03*
D12*
X66297014Y-92766150D03*
D11*
X63935851Y-97931700D03*
D10*
X61220109Y-92943439D03*
%TD*%
D25*
%TO.C,STAB2u1*%
X47615092Y-193340100D03*
D12*
X48676088Y-208513049D03*
D25*
X71432932Y-191674594D03*
D12*
X72493928Y-206847544D03*
%TD*%
D26*
%TO.C,ROT2*%
X46421479Y-220524582D03*
X55399555Y-219896774D03*
D27*
X48556120Y-222380197D03*
X51050030Y-222205806D03*
X53543940Y-222031415D03*
%TD*%
D28*
%TO.C,OLED1*%
X31236895Y-69180868D03*
D29*
X31369828Y-71717387D03*
X31502762Y-74253906D03*
X31635695Y-76790425D03*
%TD*%
D10*
%TO.C,S6*%
X49208658Y-94825444D03*
D11*
X48073332Y-97428430D03*
D12*
X44135620Y-95091311D03*
D11*
X41864968Y-100297282D03*
D10*
X39062582Y-95357178D03*
%TD*%
%TO.C,S15*%
X93950179Y-133023869D03*
D11*
X92724702Y-135585646D03*
D12*
X88870953Y-133112527D03*
D11*
X86419998Y-138236082D03*
D10*
X83791727Y-133201185D03*
%TD*%
%TO.C,S5*%
X50310330Y-115846595D03*
D11*
X49175004Y-118449581D03*
D12*
X45237292Y-116112462D03*
D11*
X42966640Y-121318433D03*
D10*
X40164254Y-116378329D03*
%TD*%
%TO.C,S19*%
X115082567Y-173853140D03*
D11*
X113812567Y-176393140D03*
D12*
X110002567Y-173853140D03*
D11*
X107462567Y-178933140D03*
D10*
X104922567Y-173853140D03*
%TD*%
%TO.C,S35*%
X165141311Y-198781730D03*
D11*
X163697224Y-201226952D03*
D12*
X160073686Y-198427367D03*
D11*
X157185510Y-203317811D03*
D10*
X155006061Y-198073004D03*
%TD*%
D14*
%TO.C,HOLE5*%
X108352567Y-213059390D03*
X108835841Y-211892664D03*
X108835841Y-214226116D03*
X110002567Y-211409390D03*
D15*
X110002567Y-213059390D03*
D14*
X110002567Y-214709390D03*
X111169293Y-211892664D03*
X111169293Y-214226116D03*
X111652567Y-213059390D03*
%TD*%
D30*
%TO.C,ROT1*%
X31940137Y-196927268D03*
X32567945Y-205905344D03*
D31*
X30084522Y-199061909D03*
X30258913Y-201555819D03*
X30433304Y-204049729D03*
%TD*%
D10*
%TO.C,S10*%
X72108554Y-113626038D03*
D11*
X70927973Y-116208813D03*
D12*
X67031649Y-113803327D03*
D11*
X64670486Y-118968877D03*
D10*
X61954744Y-113980616D03*
%TD*%
D25*
%TO.C,STAB2u2*%
X148652015Y-190626629D03*
D12*
X147591019Y-205799579D03*
D25*
X172469855Y-192292135D03*
D12*
X171408859Y-207465084D03*
%TD*%
D10*
%TO.C,S28*%
X136601286Y-111804622D03*
D11*
X135287151Y-114322071D03*
D12*
X131522060Y-111715964D03*
D11*
X128893789Y-116750861D03*
D10*
X126442834Y-111627306D03*
%TD*%
%TO.C,S13*%
X94684926Y-175117457D03*
D11*
X93459449Y-177679234D03*
D12*
X89605700Y-175206115D03*
D11*
X87154745Y-180329670D03*
D10*
X84526474Y-175294773D03*
%TD*%
%TO.C,S17*%
X93215433Y-90930281D03*
D11*
X91989956Y-93492058D03*
D12*
X88136207Y-91018939D03*
D11*
X85685252Y-96142494D03*
D10*
X83056981Y-91107597D03*
%TD*%
%TO.C,S14*%
X94317552Y-154070663D03*
D11*
X93092075Y-156632440D03*
D12*
X89238326Y-154159321D03*
D11*
X86787371Y-159282876D03*
D10*
X84159100Y-154247979D03*
%TD*%
D32*
%TO.C,ROT3*%
X164685392Y-218848809D03*
X173663468Y-219476617D03*
D33*
X166541007Y-220983450D03*
X169034917Y-221157841D03*
X171528827Y-221332232D03*
%TD*%
D10*
%TO.C,S36*%
X176615677Y-178393819D03*
D11*
X175214484Y-180863871D03*
D12*
X171542639Y-178127952D03*
D11*
X168740253Y-183068057D03*
D10*
X166469601Y-177862085D03*
%TD*%
%TO.C,S27*%
X136233912Y-132851416D03*
D11*
X134919777Y-135368865D03*
D12*
X131154686Y-132762758D03*
D11*
X128526415Y-137797655D03*
D10*
X126075460Y-132674100D03*
%TD*%
D14*
%TO.C,HOLE3*%
X186937325Y-73064662D03*
X187480999Y-71924827D03*
X187358875Y-74255081D03*
X188671418Y-71503277D03*
D15*
X188585064Y-73151016D03*
D14*
X188498710Y-74798755D03*
X189811253Y-72046951D03*
X189689129Y-74377205D03*
X190232803Y-73237370D03*
%TD*%
D10*
%TO.C,S22*%
X115082567Y-110703140D03*
D11*
X113812567Y-113243140D03*
D12*
X110002567Y-110703140D03*
D11*
X107462567Y-115783140D03*
D10*
X104922567Y-110703140D03*
%TD*%
%TO.C,S33*%
X158097503Y-113281490D03*
D11*
X156739632Y-115775621D03*
D12*
X153020598Y-113104201D03*
D11*
X150304856Y-118092462D03*
D10*
X147943693Y-112926912D03*
%TD*%
%TO.C,S34*%
X158832138Y-92244313D03*
D11*
X157474267Y-94738444D03*
D12*
X153755233Y-92067024D03*
D11*
X151039491Y-97055285D03*
D10*
X148678328Y-91889735D03*
%TD*%
D14*
%TO.C,HOLE6*%
X30156819Y-223391130D03*
X30557529Y-222193535D03*
X30720303Y-224521303D03*
X31687702Y-221630051D03*
D15*
X31802800Y-223276032D03*
D14*
X31917898Y-224922013D03*
X32885297Y-222030761D03*
X33048071Y-224358529D03*
X33448781Y-223160934D03*
%TD*%
D10*
%TO.C,S21*%
X115082567Y-131753140D03*
D11*
X113812567Y-134293140D03*
D12*
X110002567Y-131753140D03*
D11*
X107462567Y-136833140D03*
D10*
X104922567Y-131753140D03*
%TD*%
D34*
%TO.C,OLED4*%
X106192567Y-77628140D03*
D17*
X108732567Y-77628140D03*
X111272567Y-77628140D03*
X113812567Y-77628140D03*
%TD*%
D14*
%TO.C,HOLE2*%
X108352567Y-64628140D03*
X108835841Y-63461414D03*
X108835841Y-65794866D03*
X110002567Y-62978140D03*
D15*
X110002567Y-64628140D03*
D14*
X110002567Y-66278140D03*
X111169293Y-63461414D03*
X111169293Y-65794866D03*
X111652567Y-64628140D03*
%TD*%
M02*
