%TF.GenerationSoftware,KiCad,Pcbnew,9.0.7*%
%TF.CreationDate,2026-01-25T01:50:44-05:00*%
%TF.ProjectId,travis_erg2026-v1,74726176-6973-45f6-9572-67323032362d,2026.01.24*%
%TF.SameCoordinates,Original*%
%TF.FileFunction,Paste,Bot*%
%TF.FilePolarity,Positive*%
%FSLAX46Y46*%
G04 Gerber Fmt 4.6, Leading zero omitted, Abs format (unit mm)*
G04 Created by KiCad (PCBNEW 9.0.7) date 2026-01-25 01:50:44*
%MOMM*%
%LPD*%
G01*
G04 APERTURE LIST*
G04 Aperture macros list*
%AMRoundRect*
0 Rectangle with rounded corners*
0 $1 Rounding radius*
0 $2 $3 $4 $5 $6 $7 $8 $9 X,Y pos of 4 corners*
0 Add a 4 corners polygon primitive as box body*
4,1,4,$2,$3,$4,$5,$6,$7,$8,$9,$2,$3,0*
0 Add four circle primitives for the rounded corners*
1,1,$1+$1,$2,$3*
1,1,$1+$1,$4,$5*
1,1,$1+$1,$6,$7*
1,1,$1+$1,$8,$9*
0 Add four rect primitives between the rounded corners*
20,1,$1+$1,$2,$3,$4,$5,0*
20,1,$1+$1,$4,$5,$6,$7,0*
20,1,$1+$1,$6,$7,$8,$9,0*
20,1,$1+$1,$8,$9,$2,$3,0*%
%AMRotRect*
0 Rectangle, with rotation*
0 The origin of the aperture is its center*
0 $1 length*
0 $2 width*
0 $3 Rotation angle, in degrees counterclockwise*
0 Add horizontal line*
21,1,$1,$2,0,0,$3*%
G04 Aperture macros list end*
%ADD10RotRect,2.550000X2.500000X178.000000*%
%ADD11RotRect,2.550000X2.500000X182.000000*%
%ADD12R,2.550000X2.500000*%
%ADD13RotRect,2.550000X2.500000X177.000000*%
%ADD14RotRect,2.550000X2.500000X181.000000*%
%ADD15RotRect,2.550000X2.500000X179.000000*%
%ADD16RotRect,2.550000X2.500000X183.000000*%
%ADD17RotRect,2.550000X2.500000X184.000000*%
%ADD18RotRect,2.550000X2.500000X176.000000*%
%ADD19RotRect,1.400000X1.000000X181.000000*%
%ADD20RotRect,1.400000X1.000000X182.000000*%
%ADD21RoundRect,0.250000X-0.644229X0.336295X-0.655573X-0.313606X0.644229X-0.336295X0.655573X0.313606X0*%
%ADD22RotRect,1.400000X1.000000X1.000000*%
%ADD23RoundRect,0.250000X0.604517X-0.407196X0.643769X0.341776X-0.604517X0.407196X-0.643769X-0.341776X0*%
%ADD24RoundRect,0.250000X0.655573X-0.313606X0.644229X0.336295X-0.655573X0.313606X-0.644229X-0.336295X0*%
%ADD25RoundRect,0.250000X0.671087X-0.278867X0.625746X0.369550X-0.671087X0.278867X-0.625746X-0.369550X0*%
%ADD26RoundRect,0.250000X-0.632100X0.358573X-0.666118X-0.290536X0.632100X-0.358573X0.666118X0.290536X0*%
%ADD27RotRect,1.400000X1.000000X358.000000*%
%ADD28RoundRect,0.250000X-0.655573X0.313606X-0.644229X-0.336295X0.655573X-0.313606X0.644229X0.336295X0*%
%ADD29RoundRect,0.250000X0.643769X-0.341776X0.604517X0.407196X-0.643769X0.341776X-0.604517X-0.407196X0*%
%ADD30R,1.400000X1.000000*%
%ADD31RotRect,1.400000X1.000000X359.000000*%
%ADD32RoundRect,0.250000X0.631449X-0.364035X0.618360X0.385851X-0.631449X0.364035X-0.618360X-0.385851X0*%
%ADD33RoundRect,0.250000X0.618360X-0.385851X0.631449X0.364035X-0.618360X0.385851X-0.631449X-0.364035X0*%
%ADD34RoundRect,0.250000X-0.660946X0.302117X-0.638262X-0.347487X0.660946X-0.302117X0.638262X0.347487X0*%
%ADD35RoundRect,0.250000X0.611532X-0.396584X0.637707X0.352959X-0.611532X0.396584X-0.637707X-0.352959X0*%
%ADD36RoundRect,0.250000X0.625000X-0.375000X0.625000X0.375000X-0.625000X0.375000X-0.625000X-0.375000X0*%
%ADD37RoundRect,0.250000X0.638262X-0.347487X0.660946X0.302117X-0.638262X0.347487X-0.660946X-0.302117X0*%
%ADD38RotRect,1.400000X1.000000X357.000000*%
%ADD39RoundRect,0.250000X-0.650000X0.325000X-0.650000X-0.325000X0.650000X-0.325000X0.650000X0.325000X0*%
%ADD40RotRect,1.400000X1.000000X177.000000*%
%ADD41RoundRect,0.250000X-0.638262X0.347487X-0.660946X-0.302117X0.638262X-0.347487X0.660946X0.302117X0*%
%ADD42RoundRect,0.250000X0.650000X-0.325000X0.650000X0.325000X-0.650000X0.325000X-0.650000X-0.325000X0*%
%ADD43RoundRect,0.250000X-0.666118X0.290536X-0.632100X-0.358573X0.666118X-0.290536X0.632100X0.358573X0*%
%ADD44RoundRect,0.250000X0.644229X-0.336295X0.655573X0.313606X-0.644229X0.336295X-0.655573X-0.313606X0*%
%ADD45RotRect,1.400000X1.000000X2.000000*%
%ADD46RoundRect,0.250000X0.637707X-0.352959X0.611532X0.396584X-0.637707X0.352959X-0.611532X-0.396584X0*%
%ADD47RoundRect,0.250000X0.597319X-0.417684X0.649636X0.330489X-0.597319X0.417684X-0.649636X-0.330489X0*%
%ADD48RotRect,1.400000X1.000000X3.000000*%
%ADD49RotRect,1.400000X1.000000X183.000000*%
%ADD50RoundRect,0.250000X0.649636X-0.330489X0.597319X0.417684X-0.649636X0.330489X-0.597319X-0.417684X0*%
%ADD51RotRect,1.400000X1.000000X356.000000*%
%ADD52RoundRect,0.250000X0.632100X-0.358573X0.666118X0.290536X-0.632100X0.358573X-0.666118X-0.290536X0*%
%ADD53RotRect,1.400000X1.000000X4.000000*%
%ADD54RoundRect,0.250000X0.625746X-0.369550X0.671087X0.278867X-0.625746X0.369550X-0.671087X-0.278867X0*%
%ADD55RoundRect,0.250000X0.666118X-0.290536X0.632100X0.358573X-0.666118X0.290536X-0.632100X-0.358573X0*%
%ADD56RotRect,1.400000X1.000000X179.000000*%
%ADD57RotRect,1.400000X1.000000X178.000000*%
%ADD58RoundRect,0.250000X0.660946X-0.302117X0.638262X0.347487X-0.660946X0.302117X-0.638262X-0.347487X0*%
G04 APERTURE END LIST*
D10*
%TO.C,S32*%
X159278003Y-136927094D03*
X146270233Y-139014401D03*
%TD*%
D11*
%TO.C,S9*%
X74935612Y-137131694D03*
X62105131Y-140121292D03*
%TD*%
D10*
%TO.C,S31*%
X158543368Y-157964271D03*
X145535598Y-160051578D03*
%TD*%
D12*
%TO.C,S23*%
X117087567Y-92193140D03*
X104160567Y-94733140D03*
%TD*%
D13*
%TO.C,S40*%
X182891684Y-96950664D03*
X169849467Y-98810636D03*
%TD*%
D14*
%TO.C,S16*%
X95631830Y-114481696D03*
X82751128Y-117246916D03*
%TD*%
D13*
%TO.C,S39*%
X181790012Y-117971816D03*
X168747795Y-119831788D03*
%TD*%
D15*
%TO.C,S29*%
X138929025Y-93332433D03*
X125959665Y-95646439D03*
%TD*%
D11*
%TO.C,S8*%
X75670246Y-158168871D03*
X62839765Y-161158469D03*
%TD*%
%TO.C,S7*%
X76404881Y-179206048D03*
X63574400Y-182195646D03*
%TD*%
D15*
%TO.C,S26*%
X137826905Y-156472815D03*
X124857545Y-158786821D03*
%TD*%
D16*
%TO.C,S3*%
X54648860Y-160320485D03*
X41872509Y-163533551D03*
%TD*%
D14*
%TO.C,S12*%
X97101323Y-198668872D03*
X84220621Y-201434092D03*
%TD*%
D15*
%TO.C,S25*%
X137459532Y-177519609D03*
X124490172Y-179833615D03*
%TD*%
D17*
%TO.C,S1*%
X67256184Y-201514920D03*
X54537855Y-204950475D03*
%TD*%
D16*
%TO.C,S4*%
X53547188Y-139299333D03*
X40770837Y-142512399D03*
%TD*%
D12*
%TO.C,S18*%
X117087567Y-197443140D03*
X104160567Y-199983140D03*
%TD*%
%TO.C,S20*%
X117087567Y-155343140D03*
X104160567Y-157883140D03*
%TD*%
D13*
%TO.C,S38*%
X180688340Y-138992968D03*
X167646123Y-140852940D03*
%TD*%
D10*
%TO.C,S30*%
X157808734Y-179001448D03*
X144800964Y-181088755D03*
%TD*%
D15*
%TO.C,S24*%
X137092159Y-198566403D03*
X124122799Y-200880409D03*
%TD*%
D16*
%TO.C,S2*%
X55750532Y-181341636D03*
X42974181Y-184554702D03*
%TD*%
D13*
%TO.C,S37*%
X179586668Y-160014119D03*
X166544451Y-161874091D03*
%TD*%
D11*
%TO.C,S11*%
X73466343Y-95057340D03*
X60635862Y-98046938D03*
%TD*%
D16*
%TO.C,S6*%
X51343844Y-97257030D03*
X38567493Y-100470096D03*
%TD*%
D14*
%TO.C,S15*%
X95999203Y-135528490D03*
X83118501Y-138293710D03*
%TD*%
D16*
%TO.C,S5*%
X52445516Y-118278181D03*
X39669165Y-121491247D03*
%TD*%
D12*
%TO.C,S19*%
X117087567Y-176393140D03*
X104160567Y-178933140D03*
%TD*%
D18*
%TO.C,S35*%
X166964246Y-201455404D03*
X153891554Y-203087475D03*
%TD*%
D11*
%TO.C,S10*%
X74200978Y-116094517D03*
X61370497Y-119084115D03*
%TD*%
D15*
%TO.C,S28*%
X138561652Y-114379227D03*
X125592292Y-116693233D03*
%TD*%
D14*
%TO.C,S13*%
X96733950Y-177622078D03*
X83853248Y-180387298D03*
%TD*%
%TO.C,S17*%
X95264457Y-93434902D03*
X82383755Y-96200122D03*
%TD*%
%TO.C,S14*%
X96366576Y-156575284D03*
X83485874Y-159340504D03*
%TD*%
D13*
%TO.C,S36*%
X178484996Y-181035271D03*
X165442779Y-182895243D03*
%TD*%
D15*
%TO.C,S27*%
X138194278Y-135426021D03*
X125224918Y-137740027D03*
%TD*%
D12*
%TO.C,S22*%
X117087567Y-113243140D03*
X104160567Y-115783140D03*
%TD*%
D10*
%TO.C,S33*%
X160012637Y-115889917D03*
X147004867Y-117977224D03*
%TD*%
%TO.C,S34*%
X160747272Y-94852740D03*
X147739502Y-96940047D03*
%TD*%
D12*
%TO.C,S21*%
X117087567Y-134293140D03*
X104160567Y-136833140D03*
%TD*%
D19*
%TO.C,LED8*%
X86072584Y-127500510D03*
X86097017Y-128900297D03*
X91496194Y-128806054D03*
X91471761Y-127406267D03*
%TD*%
D20*
%TO.C,LED6*%
X63401128Y-87203827D03*
X63449987Y-88602974D03*
X68846698Y-88414517D03*
X68797839Y-87015370D03*
%TD*%
D21*
%TO.C,C14*%
X125770578Y-169049320D03*
X125719094Y-171998870D03*
%TD*%
D22*
%TO.C,LED28*%
X91863567Y-149852848D03*
X91839134Y-148453061D03*
X86439957Y-148547304D03*
X86464390Y-149947091D03*
%TD*%
D23*
%TO.C,D37*%
X166108134Y-166702874D03*
X166254674Y-163906712D03*
%TD*%
D24*
%TO.C,C29*%
X93914739Y-149902057D03*
X93863255Y-146952507D03*
%TD*%
D25*
%TO.C,C23*%
X64458457Y-194979159D03*
X64252675Y-192036345D03*
%TD*%
D26*
%TO.C,C22*%
X171505461Y-88077595D03*
X171351069Y-91023553D03*
%TD*%
D27*
%TO.C,LED37*%
X155867626Y-108941025D03*
X155916485Y-107541878D03*
X150519774Y-107353421D03*
X150470915Y-108752568D03*
%TD*%
D28*
%TO.C,C9*%
X84021762Y-127471298D03*
X84073246Y-130420848D03*
%TD*%
D29*
%TO.C,D3*%
X41943327Y-168381488D03*
X41796787Y-165585326D03*
%TD*%
D24*
%TO.C,C28*%
X94649485Y-191995645D03*
X94598001Y-189046095D03*
%TD*%
D30*
%TO.C,LED11*%
X107302567Y-126093140D03*
X107302567Y-127493140D03*
X112702567Y-127493140D03*
X112702567Y-126093140D03*
%TD*%
D31*
%TO.C,LED35*%
X134295995Y-107503735D03*
X134320428Y-106103948D03*
X128921251Y-106009705D03*
X128896818Y-107409492D03*
%TD*%
D28*
%TO.C,C8*%
X84756508Y-169564886D03*
X84807992Y-172514436D03*
%TD*%
D32*
%TO.C,D12*%
X84122205Y-206281548D03*
X84073339Y-203481974D03*
%TD*%
D33*
%TO.C,D26*%
X124590016Y-163627890D03*
X124638882Y-160828316D03*
%TD*%
D30*
%TO.C,LED31*%
X112702567Y-148543140D03*
X112702567Y-147143140D03*
X107302567Y-147143140D03*
X107302567Y-148543140D03*
%TD*%
%TO.C,LED10*%
X107302567Y-168193140D03*
X107302567Y-169593140D03*
X112702567Y-169593140D03*
X112702567Y-168193140D03*
%TD*%
D34*
%TO.C,C5*%
X64288645Y-171359118D03*
X64391599Y-174307320D03*
%TD*%
D35*
%TO.C,D34*%
X147387526Y-101775709D03*
X147485244Y-98977415D03*
%TD*%
D33*
%TO.C,D25*%
X124222643Y-184674684D03*
X124271509Y-181875110D03*
%TD*%
D36*
%TO.C,D21*%
X103977567Y-141678140D03*
X103977567Y-138878140D03*
%TD*%
D37*
%TO.C,C38*%
X157913410Y-109097517D03*
X158016364Y-106149315D03*
%TD*%
D28*
%TO.C,C10*%
X83287015Y-85377710D03*
X83338499Y-88327260D03*
%TD*%
D38*
%TO.C,LED40*%
X177766906Y-110951642D03*
X177840176Y-109553560D03*
X172447576Y-109270946D03*
X172374306Y-110669028D03*
%TD*%
D39*
%TO.C,C11*%
X105252567Y-168128140D03*
X105252567Y-171078140D03*
%TD*%
D32*
%TO.C,D17*%
X82285339Y-101047578D03*
X82236473Y-98248004D03*
%TD*%
D36*
%TO.C,D23*%
X103977567Y-99578140D03*
X103977567Y-96778140D03*
%TD*%
D40*
%TO.C,LED19*%
X169142561Y-172334402D03*
X169069291Y-173732484D03*
X174461891Y-174015098D03*
X174535161Y-172617016D03*
%TD*%
%TO.C,LED20*%
X171345905Y-130292098D03*
X171272635Y-131690180D03*
X176665235Y-131972794D03*
X176738505Y-130574712D03*
%TD*%
D41*
%TO.C,C19*%
X149207926Y-86179740D03*
X149104972Y-89127942D03*
%TD*%
D42*
%TO.C,C33*%
X114752567Y-106528140D03*
X114752567Y-103578140D03*
%TD*%
D20*
%TO.C,LED5*%
X64870396Y-129278180D03*
X64919255Y-130677327D03*
X70315966Y-130488870D03*
X70267107Y-129089723D03*
%TD*%
D43*
%TO.C,C4*%
X39092506Y-89622752D03*
X39246898Y-92568710D03*
%TD*%
D44*
%TO.C,C34*%
X134874707Y-191811675D03*
X134926191Y-188862125D03*
%TD*%
D45*
%TO.C,LED26*%
X69581332Y-109451693D03*
X69532473Y-108052546D03*
X64135762Y-108241003D03*
X64184621Y-109640150D03*
%TD*%
D36*
%TO.C,D20*%
X103977567Y-162728140D03*
X103977567Y-159928140D03*
%TD*%
D46*
%TO.C,D10*%
X61356696Y-123932550D03*
X61258978Y-121134256D03*
%TD*%
D47*
%TO.C,D35*%
X153371030Y-207907908D03*
X153566348Y-205114728D03*
%TD*%
D36*
%TO.C,D19*%
X103977567Y-183778140D03*
X103977567Y-180978140D03*
%TD*%
D42*
%TO.C,C32*%
X114752567Y-148628140D03*
X114752567Y-145678140D03*
%TD*%
D21*
%TO.C,C16*%
X127240071Y-84862144D03*
X127188587Y-87811694D03*
%TD*%
D20*
%TO.C,LED4*%
X66339665Y-171352534D03*
X66388524Y-172751681D03*
X71785235Y-172563224D03*
X71736376Y-171164077D03*
%TD*%
D46*
%TO.C,D7*%
X63560599Y-187044081D03*
X63462881Y-184245787D03*
%TD*%
D48*
%TO.C,LED24*%
X47710641Y-111716994D03*
X47637371Y-110318912D03*
X42244771Y-110601526D03*
X42318041Y-111999608D03*
%TD*%
%TO.C,LED23*%
X49913984Y-153759297D03*
X49840714Y-152361215D03*
X44448114Y-152643829D03*
X44521384Y-154041911D03*
%TD*%
D29*
%TO.C,D2*%
X43044999Y-189402639D03*
X42898459Y-186606477D03*
%TD*%
D35*
%TO.C,D33*%
X146652891Y-122812886D03*
X146750609Y-120014592D03*
%TD*%
D43*
%TO.C,C3*%
X41295850Y-131665055D03*
X41450242Y-134611013D03*
%TD*%
D39*
%TO.C,C12*%
X105252567Y-126028140D03*
X105252567Y-128978140D03*
%TD*%
D44*
%TO.C,C36*%
X136344200Y-107624499D03*
X136395684Y-104674949D03*
%TD*%
D49*
%TO.C,LED2*%
X43346443Y-131622677D03*
X43419713Y-133020759D03*
X48812313Y-132738145D03*
X48739043Y-131340063D03*
%TD*%
D36*
%TO.C,D18*%
X103977567Y-204828140D03*
X103977567Y-202028140D03*
%TD*%
D29*
%TO.C,D5*%
X39739983Y-126339184D03*
X39593443Y-123543022D03*
%TD*%
D43*
%TO.C,C2*%
X43499194Y-173707359D03*
X43653586Y-176653317D03*
%TD*%
D32*
%TO.C,D14*%
X83387459Y-164187960D03*
X83338593Y-161388386D03*
%TD*%
D36*
%TO.C,D22*%
X103977567Y-120628140D03*
X103977567Y-117828140D03*
%TD*%
D50*
%TO.C,D1*%
X54693271Y-209796438D03*
X54497953Y-207003258D03*
%TD*%
D35*
%TO.C,D32*%
X145918257Y-143850062D03*
X146015975Y-141051768D03*
%TD*%
D32*
%TO.C,D13*%
X83754832Y-185234754D03*
X83705966Y-182435180D03*
%TD*%
%TO.C,D16*%
X82652712Y-122094372D03*
X82603846Y-119294798D03*
%TD*%
D41*
%TO.C,C17*%
X146269388Y-170328447D03*
X146166434Y-173276649D03*
%TD*%
D33*
%TO.C,D29*%
X125692136Y-100487508D03*
X125741002Y-97687934D03*
%TD*%
D22*
%TO.C,LED29*%
X91128821Y-107759260D03*
X91104388Y-106359473D03*
X85705211Y-106453716D03*
X85729644Y-107853503D03*
%TD*%
D51*
%TO.C,LED38*%
X163064271Y-194366086D03*
X163161930Y-192969497D03*
X157775085Y-192592812D03*
X157677426Y-193989401D03*
%TD*%
D39*
%TO.C,C13*%
X105252567Y-83928140D03*
X105252567Y-86878140D03*
%TD*%
D49*
%TO.C,LED3*%
X41143099Y-89580374D03*
X41216369Y-90978456D03*
X46608969Y-90695842D03*
X46535699Y-89297760D03*
%TD*%
D52*
%TO.C,C40*%
X177606304Y-153186118D03*
X177760696Y-150240160D03*
%TD*%
D19*
%TO.C,LED7*%
X86807331Y-169594098D03*
X86831764Y-170993885D03*
X92230941Y-170899642D03*
X92206508Y-169499855D03*
%TD*%
D35*
%TO.C,D30*%
X144448988Y-185924416D03*
X144546706Y-183126122D03*
%TD*%
D53*
%TO.C,LED22*%
X62407521Y-195037366D03*
X62309862Y-193640777D03*
X56923017Y-194017462D03*
X57020676Y-195414051D03*
%TD*%
D54*
%TO.C,C39*%
X165103348Y-194593880D03*
X165309130Y-191651066D03*
%TD*%
D33*
%TO.C,D24*%
X123855270Y-205721478D03*
X123904136Y-202921904D03*
%TD*%
D37*
%TO.C,C37*%
X156444141Y-151171870D03*
X156547095Y-148223668D03*
%TD*%
D30*
%TO.C,LED30*%
X112702567Y-190643140D03*
X112702567Y-189243140D03*
X107302567Y-189243140D03*
X107302567Y-190643140D03*
%TD*%
D45*
%TO.C,LED25*%
X71050601Y-151526047D03*
X71001742Y-150126900D03*
X65605031Y-150315357D03*
X65653890Y-151714504D03*
%TD*%
D46*
%TO.C,D8*%
X62825965Y-166006904D03*
X62728247Y-163208610D03*
%TD*%
D32*
%TO.C,D15*%
X83020086Y-143141166D03*
X82971220Y-140341592D03*
%TD*%
D38*
%TO.C,LED39*%
X175563563Y-152993946D03*
X175636833Y-151595864D03*
X170244233Y-151313250D03*
X170170963Y-152711332D03*
%TD*%
D41*
%TO.C,C18*%
X147738657Y-128254094D03*
X147635703Y-131202296D03*
%TD*%
D35*
%TO.C,D31*%
X145183622Y-164887239D03*
X145281340Y-162088945D03*
%TD*%
D34*
%TO.C,C6*%
X62819377Y-129284764D03*
X62922331Y-132232966D03*
%TD*%
D26*
%TO.C,C21*%
X169302117Y-130119898D03*
X169147725Y-133065856D03*
%TD*%
D34*
%TO.C,C7*%
X61350108Y-87210411D03*
X61453062Y-90158613D03*
%TD*%
D27*
%TO.C,LED36*%
X154398357Y-151015379D03*
X154447216Y-149616232D03*
X149050505Y-149427775D03*
X149001646Y-150826922D03*
%TD*%
D21*
%TO.C,C15*%
X126505325Y-126955732D03*
X126453841Y-129905282D03*
%TD*%
D31*
%TO.C,LED33*%
X132826503Y-191690911D03*
X132850936Y-190291124D03*
X127451759Y-190196881D03*
X127427326Y-191596668D03*
%TD*%
D42*
%TO.C,C31*%
X114752567Y-190728140D03*
X114752567Y-187778140D03*
%TD*%
D49*
%TO.C,LED1*%
X45549786Y-173664981D03*
X45623056Y-175063063D03*
X51015656Y-174780449D03*
X50942386Y-173382367D03*
%TD*%
D23*
%TO.C,D40*%
X169413150Y-103639419D03*
X169559690Y-100843257D03*
%TD*%
D55*
%TO.C,C24*%
X51965624Y-153736892D03*
X51811232Y-150790934D03*
%TD*%
D56*
%TO.C,LED15*%
X129288625Y-84962911D03*
X129264192Y-86362698D03*
X134663369Y-86456941D03*
X134687802Y-85057154D03*
%TD*%
D33*
%TO.C,D27*%
X124957389Y-142581096D03*
X125006255Y-139781522D03*
%TD*%
D23*
%TO.C,D39*%
X168311478Y-124660571D03*
X168458018Y-121864409D03*
%TD*%
%TO.C,D36*%
X165006462Y-187724026D03*
X165153002Y-184927864D03*
%TD*%
D26*
%TO.C,C20*%
X167098773Y-172162202D03*
X166944381Y-175108160D03*
%TD*%
D52*
%TO.C,C41*%
X179809648Y-111143815D03*
X179964040Y-108197857D03*
%TD*%
D57*
%TO.C,LED16*%
X148315870Y-170464951D03*
X148267011Y-171864098D03*
X153663722Y-172052555D03*
X153712581Y-170653408D03*
%TD*%
%TO.C,LED18*%
X151254408Y-86316244D03*
X151205549Y-87715391D03*
X156602260Y-87903848D03*
X156651119Y-86504701D03*
%TD*%
D46*
%TO.C,D9*%
X62091330Y-144969727D03*
X61993612Y-142171433D03*
%TD*%
D31*
%TO.C,LED34*%
X133561249Y-149597323D03*
X133585682Y-148197536D03*
X128186505Y-148103293D03*
X128162072Y-149503080D03*
%TD*%
D44*
%TO.C,C35*%
X135609454Y-149718087D03*
X135660938Y-146768537D03*
%TD*%
D55*
%TO.C,C25*%
X49762280Y-111694589D03*
X49607888Y-108748631D03*
%TD*%
D46*
%TO.C,D11*%
X60622062Y-102895373D03*
X60524344Y-100097079D03*
%TD*%
D19*
%TO.C,LED9*%
X85337838Y-85406922D03*
X85362271Y-86806709D03*
X90761448Y-86712466D03*
X90737015Y-85312679D03*
%TD*%
D30*
%TO.C,LED32*%
X112702567Y-106443140D03*
X112702567Y-105043140D03*
X107302567Y-105043140D03*
X107302567Y-106443140D03*
%TD*%
D58*
%TO.C,C27*%
X71633050Y-109465097D03*
X71530096Y-106516895D03*
%TD*%
D40*
%TO.C,LED21*%
X173549248Y-88249795D03*
X173475978Y-89647877D03*
X178868578Y-89930491D03*
X178941848Y-88532409D03*
%TD*%
D58*
%TO.C,C26*%
X73102319Y-151539451D03*
X72999365Y-148591249D03*
%TD*%
D29*
%TO.C,D6*%
X38638311Y-105318032D03*
X38491771Y-102521870D03*
%TD*%
D56*
%TO.C,LED14*%
X128553878Y-127056499D03*
X128529445Y-128456286D03*
X133928622Y-128550529D03*
X133953055Y-127150742D03*
%TD*%
D33*
%TO.C,D28*%
X125324762Y-121534302D03*
X125373628Y-118734728D03*
%TD*%
D24*
%TO.C,C30*%
X93179992Y-107808469D03*
X93128508Y-104858919D03*
%TD*%
D29*
%TO.C,D4*%
X40841655Y-147360336D03*
X40695115Y-144564174D03*
%TD*%
D57*
%TO.C,LED17*%
X149785139Y-128390598D03*
X149736280Y-129789745D03*
X155132991Y-129978202D03*
X155181850Y-128579055D03*
%TD*%
D56*
%TO.C,LED13*%
X127819132Y-169150087D03*
X127794699Y-170549874D03*
X133193876Y-170644117D03*
X133218309Y-169244330D03*
%TD*%
D30*
%TO.C,LED12*%
X107302567Y-83993140D03*
X107302567Y-85393140D03*
X112702567Y-85393140D03*
X112702567Y-83993140D03*
%TD*%
D22*
%TO.C,LED27*%
X92598314Y-191946436D03*
X92573881Y-190546649D03*
X87174704Y-190640892D03*
X87199137Y-192040679D03*
%TD*%
D23*
%TO.C,D38*%
X167209806Y-145681722D03*
X167356346Y-142885560D03*
%TD*%
M02*
