<svg width="150.019mm" height="128.806mm" viewBox="0 0 150.019 128.806" xmlns="http://www.w3.org/2000/svg"><g id="svgGroup" stroke-linecap="round" fill-rule="evenodd" font-size="9pt" stroke="#000" stroke-width="0.25mm" fill="none" style="stroke:#000;stroke-width:0.25mm;fill:none"><path d="M 24.894 87.581 L 42.883 86.953 L 43.511 104.942 L 25.522 105.57 L 24.894 87.581 Z M 106.369 107.291 L 124.358 107.919 L 123.73 125.908 L 105.74 125.28 L 106.369 107.291 Z M 107.838 65.217 L 125.827 65.845 L 125.199 83.834 L 107.21 83.206 L 107.838 65.217 Z M 23.425 45.507 L 41.414 44.879 L 42.042 62.868 L 24.053 63.496 L 23.425 45.507 Z M 21.955 3.433 L 39.944 2.804 L 40.573 20.793 L 22.584 21.422 L 21.955 3.433 Z M 109.307 23.142 L 127.296 23.771 L 126.668 41.76 L 108.679 41.131 L 109.307 23.142 Z M 110.042 2.105 L 128.031 2.733 L 127.403 20.722 L 109.414 20.094 L 110.042 2.105 Z M 22.69 24.47 L 40.679 23.842 L 41.307 41.831 L 23.318 42.459 L 22.69 24.47 Z M 108.573 44.18 L 126.562 44.808 L 125.933 62.797 L 107.944 62.169 L 108.573 44.18 Z M 24.159 66.544 L 42.148 65.916 L 42.777 83.905 L 24.788 84.533 L 24.159 66.544 Z M 107.103 86.254 L 125.092 86.882 L 124.464 104.871 L 106.475 104.243 L 107.103 86.254 Z M 25.629 108.618 L 43.618 107.99 L 44.246 125.979 L 26.257 126.608 L 25.629 108.618 Z M 65.97 105.25 L 83.97 105.25 L 83.97 123.25 L 65.97 123.25 L 65.97 105.25 Z M 65.97 84.2 L 83.97 84.2 L 83.97 102.2 L 65.97 102.2 L 65.97 84.2 Z M 65.97 63.15 L 83.97 63.15 L 83.97 81.15 L 65.97 81.15 L 65.97 63.15 Z M 65.97 42.1 L 83.97 42.1 L 83.97 60.1 L 65.97 60.1 L 65.97 42.1 Z M 65.97 21.05 L 83.97 21.05 L 83.97 39.05 L 65.97 39.05 L 65.97 21.05 Z M 65.97 0 L 83.97 0 L 83.97 18 L 65.97 18 L 65.97 0 Z M 88.015 0.86 L 106.012 1.174 L 105.698 19.172 L 87.701 18.858 L 88.015 0.86 Z M 45.417 85.711 L 63.414 85.397 L 63.728 103.395 L 45.731 103.709 L 45.417 85.711 Z M 44.315 22.571 L 62.312 22.257 L 62.626 40.254 L 44.629 40.568 L 44.315 22.571 Z M 43.948 1.524 L 61.945 1.21 L 62.259 19.207 L 44.262 19.521 L 43.948 1.524 Z M 87.28 42.954 L 105.277 43.268 L 104.963 61.265 L 86.966 60.951 L 87.28 42.954 Z M 44.682 43.618 L 62.68 43.304 L 62.994 61.301 L 44.996 61.615 L 44.682 43.618 Z M 86.178 106.094 L 104.175 106.408 L 103.861 124.406 L 85.864 124.092 L 86.178 106.094 Z M 86.545 85.048 L 104.543 85.362 L 104.229 103.359 L 86.231 103.045 L 86.545 85.048 Z M 86.913 64.001 L 104.91 64.315 L 104.596 82.312 L 86.599 81.998 L 86.913 64.001 Z M 87.648 21.907 L 105.645 22.221 L 105.331 40.219 L 87.333 39.904 L 87.648 21.907 Z M 45.784 106.758 L 63.782 106.444 L 64.096 124.441 L 46.099 124.755 L 45.784 106.758 Z M 45.05 64.665 L 63.047 64.35 L 63.361 82.348 L 45.364 82.662 L 45.05 64.665 Z M 5.508 110.83 L 23.484 109.888 L 24.426 127.864 L 6.45 128.806 L 5.508 110.83 Z M 4.407 89.809 L 22.382 88.867 L 23.324 106.842 L 5.349 107.784 L 4.407 89.809 Z M 3.305 68.788 L 21.28 67.846 L 22.222 85.821 L 4.247 86.763 L 3.305 68.788 Z M 2.203 47.767 L 20.179 46.825 L 21.121 64.8 L 3.145 65.742 L 2.203 47.767 Z M 0 5.724 L 17.975 4.782 L 18.917 22.758 L 0.942 23.7 L 0 5.724 Z M 126.535 108.84 L 144.511 109.782 L 143.569 127.758 L 125.593 126.816 L 126.535 108.84 Z M 127.637 87.819 L 145.612 88.761 L 144.67 106.736 L 126.695 105.794 L 127.637 87.819 Z M 128.739 66.798 L 146.714 67.74 L 145.772 85.715 L 127.797 84.773 L 128.739 66.798 Z M 129.84 45.777 L 147.816 46.719 L 146.874 64.694 L 128.898 63.752 L 129.84 45.777 Z M 132.044 3.734 L 150.019 4.676 L 149.077 22.652 L 131.102 21.71 L 132.044 3.734 Z M 1.102 26.746 L 19.077 25.804 L 20.019 43.779 L 2.044 44.721 L 1.102 26.746 Z M 130.942 24.756 L 148.917 25.698 L 147.975 43.673 L 130 42.731 L 130.942 24.756 Z" vector-effect="non-scaling-stroke"/></g></svg>