0
SECTION
2
HEADER
9
$INSUNITS
70
4
0
ENDSEC
0
SECTION
2
TABLES
0
TABLE
2
LTYPE
0
LTYPE
72
65
70
64
2
CONTINUOUS
3
______
73
0
40
0
0
ENDTAB
0
TABLE
2
LAYER
0
ENDTAB
0
ENDSEC
0
SECTION
2
ENTITIES
0
LINE
8
0
10
40.5413106
20
-191.4833578
11
58.5166422
21
-190.5413106
0
LINE
8
0
10
58.5166422
20
-190.5413106
11
59.4586894
21
-208.5166422
0
LINE
8
0
10
59.4586894
20
-208.5166422
11
41.4833578
21
-209.4586894
0
LINE
8
0
10
41.4833578
20
-209.4586894
11
40.5413106
21
-191.4833578
0
LINE
8
0
10
39.4396387
20
-170.4622061
11
57.4149703
21
-169.5201589
0
LINE
8
0
10
57.4149703
20
-169.5201589
11
58.3570175
21
-187.4954905
0
LINE
8
0
10
58.3570175
20
-187.4954905
11
40.3816859
21
-188.4375377
0
LINE
8
0
10
40.3816859
20
-188.4375377
11
39.4396387
21
-170.4622061
0
LINE
8
0
10
38.3379668
20
-149.4410544
11
56.3132984
21
-148.4990072
0
LINE
8
0
10
56.3132984
20
-148.4990072
11
57.2553456
21
-166.4743388
0
LINE
8
0
10
57.2553456
20
-166.4743388
11
39.280014
21
-167.416386
0
LINE
8
0
10
39.280014
20
-167.416386
11
38.3379668
21
-149.4410544
0
LINE
8
0
10
37.2362949
20
-128.4199027
11
55.2116265
21
-127.4778555
0
LINE
8
0
10
55.2116265
20
-127.4778555
11
56.1536737
21
-145.4531871
0
LINE
8
0
10
56.1536737
20
-145.4531871
11
38.1783421
21
-146.3952343
0
LINE
8
0
10
38.1783421
20
-146.3952343
11
37.2362949
21
-128.4199027
0
LINE
8
0
10
36.134623
20
-107.398751
11
54.1099546
21
-106.4567038
0
LINE
8
0
10
54.1099546
20
-106.4567038
11
55.0520018
21
-124.4320354
0
LINE
8
0
10
55.0520018
20
-124.4320354
11
37.0766702
21
-125.3740826
0
LINE
8
0
10
37.0766702
20
-125.3740826
11
36.134623
21
-107.398751
0
LINE
8
0
10
35.0329511
20
-86.3775993
11
53.0082827
21
-85.4355521
0
LINE
8
0
10
53.0082827
20
-85.4355521
11
53.9503299
21
-103.4108837
0
LINE
8
0
10
53.9503299
20
-103.4108837
11
35.9749983
21
-104.3529309
0
LINE
8
0
10
35.9749983
20
-104.3529309
11
35.0329511
21
-86.3775993
0
LINE
8
0
10
60.6615733
20
-189.2716125
11
78.6506082
21
-188.6434216
0
LINE
8
0
10
78.6506082
20
-188.6434216
11
79.2787991
21
-206.6324565
0
LINE
8
0
10
79.2787991
20
-206.6324565
11
61.2897642
21
-207.2606474
0
LINE
8
0
10
61.2897642
20
-207.2606474
11
60.6615733
21
-189.2716125
0
LINE
8
0
10
59.9269389
20
-168.2344356
11
77.9159738
21
-167.6062447
0
LINE
8
0
10
77.9159738
20
-167.6062447
11
78.5441647
21
-185.5952796
0
LINE
8
0
10
78.5441647
20
-185.5952796
11
60.5551298
21
-186.2234705
0
LINE
8
0
10
60.5551298
20
-186.2234705
11
59.9269389
21
-168.2344356
0
LINE
8
0
10
59.1923045
20
-147.1972587
11
77.1813394
21
-146.5690678
0
LINE
8
0
10
77.1813394
20
-146.5690678
11
77.8095303
21
-164.5581027
0
LINE
8
0
10
77.8095303
20
-164.5581027
11
59.8204954
21
-165.1862936
0
LINE
8
0
10
59.8204954
20
-165.1862936
11
59.1923045
21
-147.1972587
0
LINE
8
0
10
58.4576701
20
-126.1600818
11
76.446705
21
-125.5318909
0
LINE
8
0
10
76.446705
20
-125.5318909
11
77.0748959
21
-143.5209258
0
LINE
8
0
10
77.0748959
20
-143.5209258
11
59.085861
21
-144.1491167
0
LINE
8
0
10
59.085861
20
-144.1491167
11
58.4576701
21
-126.1600818
0
LINE
8
0
10
57.7230357
20
-105.1229049
11
75.7120706
21
-104.494714
0
LINE
8
0
10
75.7120706
20
-104.494714
11
76.3402615
21
-122.4837489
0
LINE
8
0
10
76.3402615
20
-122.4837489
11
58.3512266
21
-123.1119398
0
LINE
8
0
10
58.3512266
20
-123.1119398
11
57.7230357
21
-105.1229049
0
LINE
8
0
10
56.9884013
20
-84.085728
11
74.9774362
21
-83.4575371
0
LINE
8
0
10
74.9774362
20
-83.4575371
11
75.6056271
21
-101.446572
0
LINE
8
0
10
75.6056271
20
-101.446572
11
57.6165922
21
-102.0747629
0
LINE
8
0
10
57.6165922
20
-102.0747629
11
56.9884013
21
-84.085728
0
LINE
8
0
10
80.8173719
20
-187.4113512
11
98.8146304
21
-187.0972079
0
LINE
8
0
10
98.8146304
20
-187.0972079
11
99.1287737
21
-205.0944664
0
LINE
8
0
10
99.1287737
20
-205.0944664
11
81.1315152
21
-205.4086097
0
LINE
8
0
10
81.1315152
20
-205.4086097
11
80.8173719
21
-187.4113512
0
LINE
8
0
10
80.4499987
20
-166.3645572
11
98.4472572
21
-166.0504139
0
LINE
8
0
10
98.4472572
20
-166.0504139
11
98.7614005
21
-184.0476724
0
LINE
8
0
10
98.7614005
20
-184.0476724
11
80.764142
21
-184.3618157
0
LINE
8
0
10
80.764142
20
-184.3618157
11
80.4499987
21
-166.3645572
0
LINE
8
0
10
80.0826255
20
-145.3177632
11
98.079884
21
-145.0036199
0
LINE
8
0
10
98.079884
20
-145.0036199
11
98.3940273
21
-163.0008784
0
LINE
8
0
10
98.3940273
20
-163.0008784
11
80.3967688
21
-163.3150217
0
LINE
8
0
10
80.3967688
20
-163.3150217
11
80.0826255
21
-145.3177632
0
LINE
8
0
10
79.7152523
20
-124.2709692
11
97.7125108
21
-123.9568259
0
LINE
8
0
10
97.7125108
20
-123.9568259
11
98.0266541
21
-141.9540844
0
LINE
8
0
10
98.0266541
20
-141.9540844
11
80.0293956
21
-142.2682277
0
LINE
8
0
10
80.0293956
20
-142.2682277
11
79.7152523
21
-124.2709692
0
LINE
8
0
10
79.3478791
20
-103.2241752
11
97.3451376
21
-102.9100319
0
LINE
8
0
10
97.3451376
20
-102.9100319
11
97.6592809
21
-120.9072904
0
LINE
8
0
10
97.6592809
20
-120.9072904
11
79.6620224
21
-121.2214337
0
LINE
8
0
10
79.6620224
20
-121.2214337
11
79.3478791
21
-103.2241752
0
LINE
8
0
10
78.9805059
20
-82.1773812
11
96.9777644
21
-81.8632379
0
LINE
8
0
10
96.9777644
20
-81.8632379
11
97.2919077
21
-99.8604964
0
LINE
8
0
10
97.2919077
20
-99.8604964
11
79.2946492
21
-100.1746397
0
LINE
8
0
10
79.2946492
20
-100.1746397
11
78.9805059
21
-82.1773812
0
LINE
8
0
10
101.0025666
20
-185.9031403
11
119.0025666
21
-185.9031403
0
LINE
8
0
10
119.0025666
20
-185.9031403
11
119.0025666
21
-203.9031403
0
LINE
8
0
10
119.0025666
20
-203.9031403
11
101.0025666
21
-203.9031403
0
LINE
8
0
10
101.0025666
20
-203.9031403
11
101.0025666
21
-185.9031403
0
LINE
8
0
10
101.0025666
20
-164.8531403
11
119.0025666
21
-164.8531403
0
LINE
8
0
10
119.0025666
20
-164.8531403
11
119.0025666
21
-182.8531403
0
LINE
8
0
10
119.0025666
20
-182.8531403
11
101.0025666
21
-182.8531403
0
LINE
8
0
10
101.0025666
20
-182.8531403
11
101.0025666
21
-164.8531403
0
LINE
8
0
10
101.0025666
20
-143.8031403
11
119.0025666
21
-143.8031403
0
LINE
8
0
10
119.0025666
20
-143.8031403
11
119.0025666
21
-161.8031403
0
LINE
8
0
10
119.0025666
20
-161.8031403
11
101.0025666
21
-161.8031403
0
LINE
8
0
10
101.0025666
20
-161.8031403
11
101.0025666
21
-143.8031403
0
LINE
8
0
10
101.0025666
20
-122.7531403
11
119.0025666
21
-122.7531403
0
LINE
8
0
10
119.0025666
20
-122.7531403
11
119.0025666
21
-140.7531403
0
LINE
8
0
10
119.0025666
20
-140.7531403
11
101.0025666
21
-140.7531403
0
LINE
8
0
10
101.0025666
20
-140.7531403
11
101.0025666
21
-122.7531403
0
LINE
8
0
10
101.0025666
20
-101.7031403
11
119.0025666
21
-101.7031403
0
LINE
8
0
10
119.0025666
20
-101.7031403
11
119.0025666
21
-119.7031403
0
LINE
8
0
10
119.0025666
20
-119.7031403
11
101.0025666
21
-119.7031403
0
LINE
8
0
10
101.0025666
20
-119.7031403
11
101.0025666
21
-101.7031403
0
LINE
8
0
10
101.0025666
20
-80.6531403
11
119.0025666
21
-80.6531403
0
LINE
8
0
10
119.0025666
20
-80.6531403
11
119.0025666
21
-98.6531403
0
LINE
8
0
10
119.0025666
20
-98.6531403
11
101.0025666
21
-98.6531403
0
LINE
8
0
10
101.0025666
20
-98.6531403
11
101.0025666
21
-80.6531403
0
LINE
8
0
10
121.2110091
20
-186.7474394
11
139.2082676
21
-187.0615827
0
LINE
8
0
10
139.2082676
20
-187.0615827
11
138.8941243
21
-205.0588412
0
LINE
8
0
10
138.8941243
20
-205.0588412
11
120.8968658
21
-204.7446979
0
LINE
8
0
10
120.8968658
20
-204.7446979
11
121.2110091
21
-186.7474394
0
LINE
8
0
10
121.5783823
20
-165.7006454
11
139.5756408
21
-166.0147887
0
LINE
8
0
10
139.5756408
20
-166.0147887
11
139.2614975
21
-184.0120472
0
LINE
8
0
10
139.2614975
20
-184.0120472
11
121.264239
21
-183.6979039
0
LINE
8
0
10
121.264239
20
-183.6979039
11
121.5783823
21
-165.7006454
0
LINE
8
0
10
121.9457555
20
-144.6538514
11
139.943014
21
-144.9679947
0
LINE
8
0
10
139.943014
20
-144.9679947
11
139.6288707
21
-162.9652532
0
LINE
8
0
10
139.6288707
20
-162.9652532
11
121.6316122
21
-162.6511099
0
LINE
8
0
10
121.6316122
20
-162.6511099
11
121.9457555
21
-144.6538514
0
LINE
8
0
10
122.3131287
20
-123.6070574
11
140.3103872
21
-123.9212007
0
LINE
8
0
10
140.3103872
20
-123.9212007
11
139.9962439
21
-141.9184592
0
LINE
8
0
10
139.9962439
20
-141.9184592
11
121.9989854
21
-141.6043159
0
LINE
8
0
10
121.9989854
20
-141.6043159
11
122.3131287
21
-123.6070574
0
LINE
8
0
10
122.6805019
20
-102.5602634
11
140.6777604
21
-102.8744067
0
LINE
8
0
10
140.6777604
20
-102.8744067
11
140.3636171
21
-120.8716652
0
LINE
8
0
10
140.3636171
20
-120.8716652
11
122.3663586
21
-120.5575219
0
LINE
8
0
10
122.3663586
20
-120.5575219
11
122.6805019
21
-102.5602634
0
LINE
8
0
10
123.0478751
20
-81.5134694
11
141.0451336
21
-81.8276127
0
LINE
8
0
10
141.0451336
20
-81.8276127
11
140.7309903
21
-99.8248712
0
LINE
8
0
10
140.7309903
20
-99.8248712
11
122.7337318
21
-99.5107279
0
LINE
8
0
10
122.7337318
20
-99.5107279
11
123.0478751
21
-81.5134694
0
LINE
8
0
10
141.4016385
20
-187.9442959
11
159.3906734
21
-188.5724868
0
LINE
8
0
10
159.3906734
20
-188.5724868
11
158.7624825
21
-206.5615217
0
LINE
8
0
10
158.7624825
20
-206.5615217
11
140.7734476
21
-205.9333308
0
LINE
8
0
10
140.7734476
20
-205.9333308
11
141.4016385
21
-187.9442959
0
LINE
8
0
10
142.1362729
20
-166.907119
11
160.1253078
21
-167.5353099
0
LINE
8
0
10
160.1253078
20
-167.5353099
11
159.4971169
21
-185.5243448
0
LINE
8
0
10
159.4971169
20
-185.5243448
11
141.508082
21
-184.8961539
0
LINE
8
0
10
141.508082
20
-184.8961539
11
142.1362729
21
-166.907119
0
LINE
8
0
10
142.8709073
20
-145.8699421
11
160.8599422
21
-146.498133
0
LINE
8
0
10
160.8599422
20
-146.498133
11
160.2317513
21
-164.4871679
0
LINE
8
0
10
160.2317513
20
-164.4871679
11
142.2427164
21
-163.858977
0
LINE
8
0
10
142.2427164
20
-163.858977
11
142.8709073
21
-145.8699421
0
LINE
8
0
10
143.6055417
20
-124.8327652
11
161.5945766
21
-125.4609561
0
LINE
8
0
10
161.5945766
20
-125.4609561
11
160.9663857
21
-143.449991
0
LINE
8
0
10
160.9663857
20
-143.449991
11
142.9773508
21
-142.8218001
0
LINE
8
0
10
142.9773508
20
-142.8218001
11
143.6055417
21
-124.8327652
0
LINE
8
0
10
144.3401761
20
-103.7955883
11
162.329211
21
-104.4237792
0
LINE
8
0
10
162.329211
20
-104.4237792
11
161.7010201
21
-122.4128141
0
LINE
8
0
10
161.7010201
20
-122.4128141
11
143.7119852
21
-121.7846232
0
LINE
8
0
10
143.7119852
20
-121.7846232
11
144.3401761
21
-103.7955883
0
LINE
8
0
10
145.0748105
20
-82.7584114
11
163.0638454
21
-83.3866023
0
LINE
8
0
10
163.0638454
20
-83.3866023
11
162.4356545
21
-101.3756372
0
LINE
8
0
10
162.4356545
20
-101.3756372
11
144.4466196
21
-100.7474463
0
LINE
8
0
10
144.4466196
20
-100.7474463
11
145.0748105
21
-82.7584114
0
LINE
8
0
10
161.5683049
20
-189.4933453
11
179.5436365
21
-190.4353925
0
LINE
8
0
10
179.5436365
20
-190.4353925
11
178.6015893
21
-208.4107241
0
LINE
8
0
10
178.6015893
20
-208.4107241
11
160.6262577
21
-207.4686769
0
LINE
8
0
10
160.6262577
20
-207.4686769
11
161.5683049
21
-189.4933453
0
LINE
8
0
10
162.6699768
20
-168.4721936
11
180.6453084
21
-169.4142408
0
LINE
8
0
10
180.6453084
20
-169.4142408
11
179.7032612
21
-187.3895724
0
LINE
8
0
10
179.7032612
20
-187.3895724
11
161.7279296
21
-186.4475252
0
LINE
8
0
10
161.7279296
20
-186.4475252
11
162.6699768
21
-168.4721936
0
LINE
8
0
10
163.7716487
20
-147.4510419
11
181.7469803
21
-148.3930891
0
LINE
8
0
10
181.7469803
20
-148.3930891
11
180.8049331
21
-166.3684207
0
LINE
8
0
10
180.8049331
20
-166.3684207
11
162.8296015
21
-165.4263735
0
LINE
8
0
10
162.8296015
20
-165.4263735
11
163.7716487
21
-147.4510419
0
LINE
8
0
10
164.8733206
20
-126.4298902
11
182.8486522
21
-127.3719374
0
LINE
8
0
10
182.8486522
20
-127.3719374
11
181.906605
21
-145.347269
0
LINE
8
0
10
181.906605
20
-145.347269
11
163.9312734
21
-144.4052218
0
LINE
8
0
10
163.9312734
20
-144.4052218
11
164.8733206
21
-126.4298902
0
LINE
8
0
10
165.9749925
20
-105.4087385
11
183.9503241
21
-106.3507857
0
LINE
8
0
10
183.9503241
20
-106.3507857
11
183.0082769
21
-124.3261173
0
LINE
8
0
10
183.0082769
20
-124.3261173
11
165.0329453
21
-123.3840701
0
LINE
8
0
10
165.0329453
20
-123.3840701
11
165.9749925
21
-105.4087385
0
LINE
8
0
10
167.0766644
20
-84.3875868
11
185.051996
21
-85.329634
0
LINE
8
0
10
185.051996
20
-85.329634
11
184.1099488
21
-103.3049656
0
LINE
8
0
10
184.1099488
20
-103.3049656
11
166.1346172
21
-102.3629184
0
LINE
8
0
10
166.1346172
20
-102.3629184
11
167.0766644
21
-84.3875868
0
ENDSEC
0
EOF