0
SECTION
2
HEADER
9
$INSUNITS
70
4
0
ENDSEC
0
SECTION
2
TABLES
0
TABLE
2
LTYPE
0
LTYPE
72
65
70
0
2
CONTINUOUS
3
______
73
0
40
0
0
LTYPE
72
65
70
0
2
DASHED
3
_ _ _ 
73
2
40
7.5
49
5
49
-2.5
0
LTYPE
72
65
70
0
2
DOTTED
3
. . . 
73
2
40
1.5
49
0.5
49
-1
0
ENDTAB
0
TABLE
2
LAYER
0
ENDTAB
0
ENDSEC
0
SECTION
2
ENTITIES
0
LINE
8
0
6
CONTINUOUS
10
40.3798577
20
-191.8261164
11
78.387048
21
-189.1683947
0
LINE
8
0
6
CONTINUOUS
10
78.387048
20
-189.1683947
11
79.6426645
21
-207.1245476
0
LINE
8
0
6
CONTINUOUS
10
79.6426645
20
-207.1245476
11
41.6354742
21
-209.7822693
0
LINE
8
0
6
CONTINUOUS
10
41.6354742
20
-209.7822693
11
40.3798577
21
-191.8261164
0
LINE
8
0
6
CONTINUOUS
10
39.0836183
20
-170.6592751
11
57.0589499
21
-169.7172279
0
LINE
8
0
6
CONTINUOUS
10
57.0589499
20
-169.7172279
11
58.0009971
21
-187.6925595
0
LINE
8
0
6
CONTINUOUS
10
58.0009971
20
-187.6925595
11
40.0256655
21
-188.6346067
0
LINE
8
0
6
CONTINUOUS
10
40.0256655
20
-188.6346067
11
39.0836183
21
-170.6592751
0
LINE
8
0
6
CONTINUOUS
10
37.9819464
20
-149.6381234
11
55.957278
21
-148.6960762
0
LINE
8
0
6
CONTINUOUS
10
55.957278
20
-148.6960762
11
56.8993252
21
-166.6714078
0
LINE
8
0
6
CONTINUOUS
10
56.8993252
20
-166.6714078
11
38.9239936
21
-167.613455
0
LINE
8
0
6
CONTINUOUS
10
38.9239936
20
-167.613455
11
37.9819464
21
-149.6381234
0
LINE
8
0
6
CONTINUOUS
10
36.8802745
20
-128.6169717
11
54.8556061
21
-127.6749245
0
LINE
8
0
6
CONTINUOUS
10
54.8556061
20
-127.6749245
11
55.7976533
21
-145.6502561
0
LINE
8
0
6
CONTINUOUS
10
55.7976533
20
-145.6502561
11
37.8223217
21
-146.5923033
0
LINE
8
0
6
CONTINUOUS
10
37.8223217
20
-146.5923033
11
36.8802745
21
-128.6169717
0
LINE
8
0
6
CONTINUOUS
10
35.7786026
20
-107.59582
11
53.7539342
21
-106.6537728
0
LINE
8
0
6
CONTINUOUS
10
53.7539342
20
-106.6537728
11
54.6959814
21
-124.6291044
0
LINE
8
0
6
CONTINUOUS
10
54.6959814
20
-124.6291044
11
36.7206498
21
-125.5711516
0
LINE
8
0
6
CONTINUOUS
10
36.7206498
20
-125.5711516
11
35.7786026
21
-107.59582
0
LINE
8
0
6
CONTINUOUS
10
34.6769307
20
-86.5746683
11
52.6522623
21
-85.6326211
0
LINE
8
0
6
CONTINUOUS
10
52.6522623
20
-85.6326211
11
53.5943095
21
-103.6079527
0
LINE
8
0
6
CONTINUOUS
10
53.5943095
20
-103.6079527
11
35.6189779
21
-104.5499999
0
LINE
8
0
6
CONTINUOUS
10
35.6189779
20
-104.5499999
11
34.6769307
21
-86.5746683
0
LINE
8
0
6
CONTINUOUS
10
59.9269389
20
-168.2344356
11
77.9159738
21
-167.6062447
0
LINE
8
0
6
CONTINUOUS
10
77.9159738
20
-167.6062447
11
78.5441647
21
-185.5952796
0
LINE
8
0
6
CONTINUOUS
10
78.5441647
20
-185.5952796
11
60.5551298
21
-186.2234705
0
LINE
8
0
6
CONTINUOUS
10
60.5551298
20
-186.2234705
11
59.9269389
21
-168.2344356
0
LINE
8
0
6
CONTINUOUS
10
59.1923045
20
-147.1972587
11
77.1813394
21
-146.5690678
0
LINE
8
0
6
CONTINUOUS
10
77.1813394
20
-146.5690678
11
77.8095303
21
-164.5581027
0
LINE
8
0
6
CONTINUOUS
10
77.8095303
20
-164.5581027
11
59.8204954
21
-165.1862936
0
LINE
8
0
6
CONTINUOUS
10
59.8204954
20
-165.1862936
11
59.1923045
21
-147.1972587
0
LINE
8
0
6
CONTINUOUS
10
58.4576701
20
-126.1600818
11
76.446705
21
-125.5318909
0
LINE
8
0
6
CONTINUOUS
10
76.446705
20
-125.5318909
11
77.0748959
21
-143.5209258
0
LINE
8
0
6
CONTINUOUS
10
77.0748959
20
-143.5209258
11
59.085861
21
-144.1491167
0
LINE
8
0
6
CONTINUOUS
10
59.085861
20
-144.1491167
11
58.4576701
21
-126.1600818
0
LINE
8
0
6
CONTINUOUS
10
57.7230357
20
-105.1229049
11
75.7120706
21
-104.494714
0
LINE
8
0
6
CONTINUOUS
10
75.7120706
20
-104.494714
11
76.3402615
21
-122.4837489
0
LINE
8
0
6
CONTINUOUS
10
76.3402615
20
-122.4837489
11
58.3512266
21
-123.1119398
0
LINE
8
0
6
CONTINUOUS
10
58.3512266
20
-123.1119398
11
57.7230357
21
-105.1229049
0
LINE
8
0
6
CONTINUOUS
10
56.9884013
20
-84.085728
11
74.9774362
21
-83.4575371
0
LINE
8
0
6
CONTINUOUS
10
74.9774362
20
-83.4575371
11
75.6056271
21
-101.446572
0
LINE
8
0
6
CONTINUOUS
10
75.6056271
20
-101.446572
11
57.6165922
21
-102.0747629
0
LINE
8
0
6
CONTINUOUS
10
57.6165922
20
-102.0747629
11
56.9884013
21
-84.085728
0
LINE
8
0
6
CONTINUOUS
10
80.8173719
20
-187.4113512
11
98.8146304
21
-187.0972079
0
LINE
8
0
6
CONTINUOUS
10
98.8146304
20
-187.0972079
11
99.1287737
21
-205.0944664
0
LINE
8
0
6
CONTINUOUS
10
99.1287737
20
-205.0944664
11
81.1315152
21
-205.4086097
0
LINE
8
0
6
CONTINUOUS
10
81.1315152
20
-205.4086097
11
80.8173719
21
-187.4113512
0
LINE
8
0
6
CONTINUOUS
10
80.4499987
20
-166.3645572
11
98.4472572
21
-166.0504139
0
LINE
8
0
6
CONTINUOUS
10
98.4472572
20
-166.0504139
11
98.7614005
21
-184.0476724
0
LINE
8
0
6
CONTINUOUS
10
98.7614005
20
-184.0476724
11
80.764142
21
-184.3618157
0
LINE
8
0
6
CONTINUOUS
10
80.764142
20
-184.3618157
11
80.4499987
21
-166.3645572
0
LINE
8
0
6
CONTINUOUS
10
80.0826255
20
-145.3177632
11
98.079884
21
-145.0036199
0
LINE
8
0
6
CONTINUOUS
10
98.079884
20
-145.0036199
11
98.3940273
21
-163.0008784
0
LINE
8
0
6
CONTINUOUS
10
98.3940273
20
-163.0008784
11
80.3967688
21
-163.3150217
0
LINE
8
0
6
CONTINUOUS
10
80.3967688
20
-163.3150217
11
80.0826255
21
-145.3177632
0
LINE
8
0
6
CONTINUOUS
10
79.7152523
20
-124.2709692
11
97.7125108
21
-123.9568259
0
LINE
8
0
6
CONTINUOUS
10
97.7125108
20
-123.9568259
11
98.0266541
21
-141.9540844
0
LINE
8
0
6
CONTINUOUS
10
98.0266541
20
-141.9540844
11
80.0293956
21
-142.2682277
0
LINE
8
0
6
CONTINUOUS
10
80.0293956
20
-142.2682277
11
79.7152523
21
-124.2709692
0
LINE
8
0
6
CONTINUOUS
10
79.3478791
20
-103.2241752
11
97.3451376
21
-102.9100319
0
LINE
8
0
6
CONTINUOUS
10
97.3451376
20
-102.9100319
11
97.6592809
21
-120.9072904
0
LINE
8
0
6
CONTINUOUS
10
97.6592809
20
-120.9072904
11
79.6620224
21
-121.2214337
0
LINE
8
0
6
CONTINUOUS
10
79.6620224
20
-121.2214337
11
79.3478791
21
-103.2241752
0
LINE
8
0
6
CONTINUOUS
10
78.9805059
20
-82.1773812
11
96.9777644
21
-81.8632379
0
LINE
8
0
6
CONTINUOUS
10
96.9777644
20
-81.8632379
11
97.2919077
21
-99.8604964
0
LINE
8
0
6
CONTINUOUS
10
97.2919077
20
-99.8604964
11
79.2946492
21
-100.1746397
0
LINE
8
0
6
CONTINUOUS
10
79.2946492
20
-100.1746397
11
78.9805059
21
-82.1773812
0
LINE
8
0
6
CONTINUOUS
10
101.0025666
20
-185.9031403
11
119.0025666
21
-185.9031403
0
LINE
8
0
6
CONTINUOUS
10
119.0025666
20
-185.9031403
11
119.0025666
21
-203.9031403
0
LINE
8
0
6
CONTINUOUS
10
119.0025666
20
-203.9031403
11
101.0025666
21
-203.9031403
0
LINE
8
0
6
CONTINUOUS
10
101.0025666
20
-203.9031403
11
101.0025666
21
-185.9031403
0
LINE
8
0
6
CONTINUOUS
10
101.0025666
20
-164.8531403
11
119.0025666
21
-164.8531403
0
LINE
8
0
6
CONTINUOUS
10
119.0025666
20
-164.8531403
11
119.0025666
21
-182.8531403
0
LINE
8
0
6
CONTINUOUS
10
119.0025666
20
-182.8531403
11
101.0025666
21
-182.8531403
0
LINE
8
0
6
CONTINUOUS
10
101.0025666
20
-182.8531403
11
101.0025666
21
-164.8531403
0
LINE
8
0
6
CONTINUOUS
10
101.0025666
20
-143.8031403
11
119.0025666
21
-143.8031403
0
LINE
8
0
6
CONTINUOUS
10
119.0025666
20
-143.8031403
11
119.0025666
21
-161.8031403
0
LINE
8
0
6
CONTINUOUS
10
119.0025666
20
-161.8031403
11
101.0025666
21
-161.8031403
0
LINE
8
0
6
CONTINUOUS
10
101.0025666
20
-161.8031403
11
101.0025666
21
-143.8031403
0
LINE
8
0
6
CONTINUOUS
10
101.0025666
20
-122.7531403
11
119.0025666
21
-122.7531403
0
LINE
8
0
6
CONTINUOUS
10
119.0025666
20
-122.7531403
11
119.0025666
21
-140.7531403
0
LINE
8
0
6
CONTINUOUS
10
119.0025666
20
-140.7531403
11
101.0025666
21
-140.7531403
0
LINE
8
0
6
CONTINUOUS
10
101.0025666
20
-140.7531403
11
101.0025666
21
-122.7531403
0
LINE
8
0
6
CONTINUOUS
10
101.0025666
20
-101.7031403
11
119.0025666
21
-101.7031403
0
LINE
8
0
6
CONTINUOUS
10
119.0025666
20
-101.7031403
11
119.0025666
21
-119.7031403
0
LINE
8
0
6
CONTINUOUS
10
119.0025666
20
-119.7031403
11
101.0025666
21
-119.7031403
0
LINE
8
0
6
CONTINUOUS
10
101.0025666
20
-119.7031403
11
101.0025666
21
-101.7031403
0
LINE
8
0
6
CONTINUOUS
10
101.0025666
20
-80.6531403
11
119.0025666
21
-80.6531403
0
LINE
8
0
6
CONTINUOUS
10
119.0025666
20
-80.6531403
11
119.0025666
21
-98.6531403
0
LINE
8
0
6
CONTINUOUS
10
119.0025666
20
-98.6531403
11
101.0025666
21
-98.6531403
0
LINE
8
0
6
CONTINUOUS
10
101.0025666
20
-98.6531403
11
101.0025666
21
-80.6531403
0
LINE
8
0
6
CONTINUOUS
10
121.2110091
20
-186.7474394
11
139.2082676
21
-187.0615827
0
LINE
8
0
6
CONTINUOUS
10
139.2082676
20
-187.0615827
11
138.8941243
21
-205.0588412
0
LINE
8
0
6
CONTINUOUS
10
138.8941243
20
-205.0588412
11
120.8968658
21
-204.7446979
0
LINE
8
0
6
CONTINUOUS
10
120.8968658
20
-204.7446979
11
121.2110091
21
-186.7474394
0
LINE
8
0
6
CONTINUOUS
10
121.5783823
20
-165.7006454
11
139.5756408
21
-166.0147887
0
LINE
8
0
6
CONTINUOUS
10
139.5756408
20
-166.0147887
11
139.2614975
21
-184.0120472
0
LINE
8
0
6
CONTINUOUS
10
139.2614975
20
-184.0120472
11
121.264239
21
-183.6979039
0
LINE
8
0
6
CONTINUOUS
10
121.264239
20
-183.6979039
11
121.5783823
21
-165.7006454
0
LINE
8
0
6
CONTINUOUS
10
121.9457555
20
-144.6538514
11
139.943014
21
-144.9679947
0
LINE
8
0
6
CONTINUOUS
10
139.943014
20
-144.9679947
11
139.6288707
21
-162.9652532
0
LINE
8
0
6
CONTINUOUS
10
139.6288707
20
-162.9652532
11
121.6316122
21
-162.6511099
0
LINE
8
0
6
CONTINUOUS
10
121.6316122
20
-162.6511099
11
121.9457555
21
-144.6538514
0
LINE
8
0
6
CONTINUOUS
10
122.3131287
20
-123.6070574
11
140.3103872
21
-123.9212007
0
LINE
8
0
6
CONTINUOUS
10
140.3103872
20
-123.9212007
11
139.9962439
21
-141.9184592
0
LINE
8
0
6
CONTINUOUS
10
139.9962439
20
-141.9184592
11
121.9989854
21
-141.6043159
0
LINE
8
0
6
CONTINUOUS
10
121.9989854
20
-141.6043159
11
122.3131287
21
-123.6070574
0
LINE
8
0
6
CONTINUOUS
10
122.6805019
20
-102.5602634
11
140.6777604
21
-102.8744067
0
LINE
8
0
6
CONTINUOUS
10
140.6777604
20
-102.8744067
11
140.3636171
21
-120.8716652
0
LINE
8
0
6
CONTINUOUS
10
140.3636171
20
-120.8716652
11
122.3663586
21
-120.5575219
0
LINE
8
0
6
CONTINUOUS
10
122.3663586
20
-120.5575219
11
122.6805019
21
-102.5602634
0
LINE
8
0
6
CONTINUOUS
10
123.0478751
20
-81.5134694
11
141.0451336
21
-81.8276127
0
LINE
8
0
6
CONTINUOUS
10
141.0451336
20
-81.8276127
11
140.7309903
21
-99.8248712
0
LINE
8
0
6
CONTINUOUS
10
140.7309903
20
-99.8248712
11
122.7337318
21
-99.5107279
0
LINE
8
0
6
CONTINUOUS
10
122.7337318
20
-99.5107279
11
123.0478751
21
-81.5134694
0
LINE
8
0
6
CONTINUOUS
10
142.1362729
20
-166.907119
11
160.1253078
21
-167.5353099
0
LINE
8
0
6
CONTINUOUS
10
160.1253078
20
-167.5353099
11
159.4971169
21
-185.5243448
0
LINE
8
0
6
CONTINUOUS
10
159.4971169
20
-185.5243448
11
141.508082
21
-184.8961539
0
LINE
8
0
6
CONTINUOUS
10
141.508082
20
-184.8961539
11
142.1362729
21
-166.907119
0
LINE
8
0
6
CONTINUOUS
10
142.8709073
20
-145.8699421
11
160.8599422
21
-146.498133
0
LINE
8
0
6
CONTINUOUS
10
160.8599422
20
-146.498133
11
160.2317513
21
-164.4871679
0
LINE
8
0
6
CONTINUOUS
10
160.2317513
20
-164.4871679
11
142.2427164
21
-163.858977
0
LINE
8
0
6
CONTINUOUS
10
142.2427164
20
-163.858977
11
142.8709073
21
-145.8699421
0
LINE
8
0
6
CONTINUOUS
10
143.6055417
20
-124.8327652
11
161.5945766
21
-125.4609561
0
LINE
8
0
6
CONTINUOUS
10
161.5945766
20
-125.4609561
11
160.9663857
21
-143.449991
0
LINE
8
0
6
CONTINUOUS
10
160.9663857
20
-143.449991
11
142.9773508
21
-142.8218001
0
LINE
8
0
6
CONTINUOUS
10
142.9773508
20
-142.8218001
11
143.6055417
21
-124.8327652
0
LINE
8
0
6
CONTINUOUS
10
144.3401761
20
-103.7955883
11
162.329211
21
-104.4237792
0
LINE
8
0
6
CONTINUOUS
10
162.329211
20
-104.4237792
11
161.7010201
21
-122.4128141
0
LINE
8
0
6
CONTINUOUS
10
161.7010201
20
-122.4128141
11
143.7119852
21
-121.7846232
0
LINE
8
0
6
CONTINUOUS
10
143.7119852
20
-121.7846232
11
144.3401761
21
-103.7955883
0
LINE
8
0
6
CONTINUOUS
10
145.0748105
20
-82.7584114
11
163.0638454
21
-83.3866023
0
LINE
8
0
6
CONTINUOUS
10
163.0638454
20
-83.3866023
11
162.4356545
21
-101.3756372
0
LINE
8
0
6
CONTINUOUS
10
162.4356545
20
-101.3756372
11
144.4466196
21
-100.7474463
0
LINE
8
0
6
CONTINUOUS
10
144.4466196
20
-100.7474463
11
145.0748105
21
-82.7584114
0
LINE
8
0
6
CONTINUOUS
10
141.6978991
20
-188.1204294
11
179.7050894
21
-190.7781511
0
LINE
8
0
6
CONTINUOUS
10
179.7050894
20
-190.7781511
11
178.4494729
21
-208.734304
0
LINE
8
0
6
CONTINUOUS
10
178.4494729
20
-208.734304
11
140.4422826
21
-206.0765823
0
LINE
8
0
6
CONTINUOUS
10
140.4422826
20
-206.0765823
11
141.6978991
21
-188.1204294
0
LINE
8
0
6
CONTINUOUS
10
163.0259972
20
-168.6692626
11
181.0013288
21
-169.6113098
0
LINE
8
0
6
CONTINUOUS
10
181.0013288
20
-169.6113098
11
180.0592816
21
-187.5866414
0
LINE
8
0
6
CONTINUOUS
10
180.0592816
20
-187.5866414
11
162.08395
21
-186.6445942
0
LINE
8
0
6
CONTINUOUS
10
162.08395
20
-186.6445942
11
163.0259972
21
-168.6692626
0
LINE
8
0
6
CONTINUOUS
10
164.1276691
20
-147.6481109
11
182.1030007
21
-148.5901581
0
LINE
8
0
6
CONTINUOUS
10
182.1030007
20
-148.5901581
11
181.1609535
21
-166.5654897
0
LINE
8
0
6
CONTINUOUS
10
181.1609535
20
-166.5654897
11
163.1856219
21
-165.6234425
0
LINE
8
0
6
CONTINUOUS
10
163.1856219
20
-165.6234425
11
164.1276691
21
-147.6481109
0
LINE
8
0
6
CONTINUOUS
10
165.229341
20
-126.6269592
11
183.2046726
21
-127.5690064
0
LINE
8
0
6
CONTINUOUS
10
183.2046726
20
-127.5690064
11
182.2626254
21
-145.544338
0
LINE
8
0
6
CONTINUOUS
10
182.2626254
20
-145.544338
11
164.2872938
21
-144.6022908
0
LINE
8
0
6
CONTINUOUS
10
164.2872938
20
-144.6022908
11
165.229341
21
-126.6269592
0
LINE
8
0
6
CONTINUOUS
10
166.3310129
20
-105.6058075
11
184.3063445
21
-106.5478547
0
LINE
8
0
6
CONTINUOUS
10
184.3063445
20
-106.5478547
11
183.3642973
21
-124.5231863
0
LINE
8
0
6
CONTINUOUS
10
183.3642973
20
-124.5231863
11
165.3889657
21
-123.5811391
0
LINE
8
0
6
CONTINUOUS
10
165.3889657
20
-123.5811391
11
166.3310129
21
-105.6058075
0
LINE
8
0
6
CONTINUOUS
10
167.4326848
20
-84.5846558
11
185.4080164
21
-85.526703
0
LINE
8
0
6
CONTINUOUS
10
185.4080164
20
-85.526703
11
184.4659692
21
-103.5020346
0
LINE
8
0
6
CONTINUOUS
10
184.4659692
20
-103.5020346
11
166.4906376
21
-102.5599874
0
LINE
8
0
6
CONTINUOUS
10
166.4906376
20
-102.5599874
11
167.4326848
21
-84.5846558
0
ENDSEC
0
EOF