0
SECTION
2
HEADER
9
$INSUNITS
70
4
0
ENDSEC
0
SECTION
2
TABLES
0
TABLE
2
LTYPE
0
LTYPE
72
65
70
64
2
CONTINUOUS
3
______
73
0
40
0
0
ENDTAB
0
TABLE
2
LAYER
0
ENDTAB
0
ENDSEC
0
SECTION
2
ENTITIES
0
LINE
8
0
10
30.5413106
20
-191.4833578
11
48.5166422
21
-190.5413106
0
LINE
8
0
10
48.5166422
20
-190.5413106
11
49.4586894
21
-208.5166422
0
LINE
8
0
10
49.4586894
20
-208.5166422
11
31.4833578
21
-209.4586894
0
LINE
8
0
10
31.4833578
20
-209.4586894
11
30.5413106
21
-191.4833578
0
LINE
8
0
10
29.4396387
20
-170.4622061
11
47.4149703
21
-169.5201589
0
LINE
8
0
10
47.4149703
20
-169.5201589
11
48.3570175
21
-187.4954905
0
LINE
8
0
10
48.3570175
20
-187.4954905
11
30.3816859
21
-188.4375377
0
LINE
8
0
10
30.3816859
20
-188.4375377
11
29.4396387
21
-170.4622061
0
LINE
8
0
10
28.3379668
20
-149.4410544
11
46.3132984
21
-148.4990072
0
LINE
8
0
10
46.3132984
20
-148.4990072
11
47.2553456
21
-166.4743388
0
LINE
8
0
10
47.2553456
20
-166.4743388
11
29.280014
21
-167.416386
0
LINE
8
0
10
29.280014
20
-167.416386
11
28.3379668
21
-149.4410544
0
LINE
8
0
10
27.2362949
20
-128.4199027
11
45.2116265
21
-127.4778555
0
LINE
8
0
10
45.2116265
20
-127.4778555
11
46.1536737
21
-145.4531871
0
LINE
8
0
10
46.1536737
20
-145.4531871
11
28.1783421
21
-146.3952343
0
LINE
8
0
10
28.1783421
20
-146.3952343
11
27.2362949
21
-128.4199027
0
LINE
8
0
10
26.134623
20
-107.398751
11
44.1099546
21
-106.4567038
0
LINE
8
0
10
44.1099546
20
-106.4567038
11
45.0520018
21
-124.4320354
0
LINE
8
0
10
45.0520018
20
-124.4320354
11
27.0766702
21
-125.3740826
0
LINE
8
0
10
27.0766702
20
-125.3740826
11
26.134623
21
-107.398751
0
LINE
8
0
10
25.0329511
20
-86.3775993
11
43.0082827
21
-85.4355521
0
LINE
8
0
10
43.0082827
20
-85.4355521
11
43.9503299
21
-103.4108837
0
LINE
8
0
10
43.9503299
20
-103.4108837
11
25.9749983
21
-104.3529309
0
LINE
8
0
10
25.9749983
20
-104.3529309
11
25.0329511
21
-86.3775993
0
LINE
8
0
10
50.6615733
20
-189.2716125
11
68.6506082
21
-188.6434216
0
LINE
8
0
10
68.6506082
20
-188.6434216
11
69.2787991
21
-206.6324565
0
LINE
8
0
10
69.2787991
20
-206.6324565
11
51.2897642
21
-207.2606474
0
LINE
8
0
10
51.2897642
20
-207.2606474
11
50.6615733
21
-189.2716125
0
LINE
8
0
10
49.9269389
20
-168.2344356
11
67.9159738
21
-167.6062447
0
LINE
8
0
10
67.9159738
20
-167.6062447
11
68.5441647
21
-185.5952796
0
LINE
8
0
10
68.5441647
20
-185.5952796
11
50.5551298
21
-186.2234705
0
LINE
8
0
10
50.5551298
20
-186.2234705
11
49.9269389
21
-168.2344356
0
LINE
8
0
10
49.1923045
20
-147.1972587
11
67.1813394
21
-146.5690678
0
LINE
8
0
10
67.1813394
20
-146.5690678
11
67.8095303
21
-164.5581027
0
LINE
8
0
10
67.8095303
20
-164.5581027
11
49.8204954
21
-165.1862936
0
LINE
8
0
10
49.8204954
20
-165.1862936
11
49.1923045
21
-147.1972587
0
LINE
8
0
10
48.4576701
20
-126.1600818
11
66.446705
21
-125.5318909
0
LINE
8
0
10
66.446705
20
-125.5318909
11
67.0748959
21
-143.5209258
0
LINE
8
0
10
67.0748959
20
-143.5209258
11
49.085861
21
-144.1491167
0
LINE
8
0
10
49.085861
20
-144.1491167
11
48.4576701
21
-126.1600818
0
LINE
8
0
10
47.7230357
20
-105.1229049
11
65.7120706
21
-104.494714
0
LINE
8
0
10
65.7120706
20
-104.494714
11
66.3402615
21
-122.4837489
0
LINE
8
0
10
66.3402615
20
-122.4837489
11
48.3512266
21
-123.1119398
0
LINE
8
0
10
48.3512266
20
-123.1119398
11
47.7230357
21
-105.1229049
0
LINE
8
0
10
46.9884013
20
-84.085728
11
64.9774362
21
-83.4575371
0
LINE
8
0
10
64.9774362
20
-83.4575371
11
65.6056271
21
-101.446572
0
LINE
8
0
10
65.6056271
20
-101.446572
11
47.6165922
21
-102.0747629
0
LINE
8
0
10
47.6165922
20
-102.0747629
11
46.9884013
21
-84.085728
0
LINE
8
0
10
70.8173719
20
-187.4113512
11
88.8146304
21
-187.0972079
0
LINE
8
0
10
88.8146304
20
-187.0972079
11
89.1287737
21
-205.0944664
0
LINE
8
0
10
89.1287737
20
-205.0944664
11
71.1315152
21
-205.4086097
0
LINE
8
0
10
71.1315152
20
-205.4086097
11
70.8173719
21
-187.4113512
0
LINE
8
0
10
70.4499987
20
-166.3645572
11
88.4472572
21
-166.0504139
0
LINE
8
0
10
88.4472572
20
-166.0504139
11
88.7614005
21
-184.0476724
0
LINE
8
0
10
88.7614005
20
-184.0476724
11
70.764142
21
-184.3618157
0
LINE
8
0
10
70.764142
20
-184.3618157
11
70.4499987
21
-166.3645572
0
LINE
8
0
10
70.0826255
20
-145.3177632
11
88.079884
21
-145.0036199
0
LINE
8
0
10
88.079884
20
-145.0036199
11
88.3940273
21
-163.0008784
0
LINE
8
0
10
88.3940273
20
-163.0008784
11
70.3967688
21
-163.3150217
0
LINE
8
0
10
70.3967688
20
-163.3150217
11
70.0826255
21
-145.3177632
0
LINE
8
0
10
69.7152523
20
-124.2709692
11
87.7125108
21
-123.9568259
0
LINE
8
0
10
87.7125108
20
-123.9568259
11
88.0266541
21
-141.9540844
0
LINE
8
0
10
88.0266541
20
-141.9540844
11
70.0293956
21
-142.2682277
0
LINE
8
0
10
70.0293956
20
-142.2682277
11
69.7152523
21
-124.2709692
0
LINE
8
0
10
69.3478791
20
-103.2241752
11
87.3451376
21
-102.9100319
0
LINE
8
0
10
87.3451376
20
-102.9100319
11
87.6592809
21
-120.9072904
0
LINE
8
0
10
87.6592809
20
-120.9072904
11
69.6620224
21
-121.2214337
0
LINE
8
0
10
69.6620224
20
-121.2214337
11
69.3478791
21
-103.2241752
0
LINE
8
0
10
68.9805059
20
-82.1773812
11
86.9777644
21
-81.8632379
0
LINE
8
0
10
86.9777644
20
-81.8632379
11
87.2919077
21
-99.8604964
0
LINE
8
0
10
87.2919077
20
-99.8604964
11
69.2946492
21
-100.1746397
0
LINE
8
0
10
69.2946492
20
-100.1746397
11
68.9805059
21
-82.1773812
0
LINE
8
0
10
91.0025666
20
-185.9031403
11
109.0025666
21
-185.9031403
0
LINE
8
0
10
109.0025666
20
-185.9031403
11
109.0025666
21
-203.9031403
0
LINE
8
0
10
109.0025666
20
-203.9031403
11
91.0025666
21
-203.9031403
0
LINE
8
0
10
91.0025666
20
-203.9031403
11
91.0025666
21
-185.9031403
0
LINE
8
0
10
91.0025666
20
-164.8531403
11
109.0025666
21
-164.8531403
0
LINE
8
0
10
109.0025666
20
-164.8531403
11
109.0025666
21
-182.8531403
0
LINE
8
0
10
109.0025666
20
-182.8531403
11
91.0025666
21
-182.8531403
0
LINE
8
0
10
91.0025666
20
-182.8531403
11
91.0025666
21
-164.8531403
0
LINE
8
0
10
91.0025666
20
-143.8031403
11
109.0025666
21
-143.8031403
0
LINE
8
0
10
109.0025666
20
-143.8031403
11
109.0025666
21
-161.8031403
0
LINE
8
0
10
109.0025666
20
-161.8031403
11
91.0025666
21
-161.8031403
0
LINE
8
0
10
91.0025666
20
-161.8031403
11
91.0025666
21
-143.8031403
0
LINE
8
0
10
91.0025666
20
-122.7531403
11
109.0025666
21
-122.7531403
0
LINE
8
0
10
109.0025666
20
-122.7531403
11
109.0025666
21
-140.7531403
0
LINE
8
0
10
109.0025666
20
-140.7531403
11
91.0025666
21
-140.7531403
0
LINE
8
0
10
91.0025666
20
-140.7531403
11
91.0025666
21
-122.7531403
0
LINE
8
0
10
91.0025666
20
-101.7031403
11
109.0025666
21
-101.7031403
0
LINE
8
0
10
109.0025666
20
-101.7031403
11
109.0025666
21
-119.7031403
0
LINE
8
0
10
109.0025666
20
-119.7031403
11
91.0025666
21
-119.7031403
0
LINE
8
0
10
91.0025666
20
-119.7031403
11
91.0025666
21
-101.7031403
0
LINE
8
0
10
91.0025666
20
-80.6531403
11
109.0025666
21
-80.6531403
0
LINE
8
0
10
109.0025666
20
-80.6531403
11
109.0025666
21
-98.6531403
0
LINE
8
0
10
109.0025666
20
-98.6531403
11
91.0025666
21
-98.6531403
0
LINE
8
0
10
91.0025666
20
-98.6531403
11
91.0025666
21
-80.6531403
0
LINE
8
0
10
111.2110091
20
-186.7474394
11
129.2082676
21
-187.0615827
0
LINE
8
0
10
129.2082676
20
-187.0615827
11
128.8941243
21
-205.0588412
0
LINE
8
0
10
128.8941243
20
-205.0588412
11
110.8968658
21
-204.7446979
0
LINE
8
0
10
110.8968658
20
-204.7446979
11
111.2110091
21
-186.7474394
0
LINE
8
0
10
111.5783823
20
-165.7006454
11
129.5756408
21
-166.0147887
0
LINE
8
0
10
129.5756408
20
-166.0147887
11
129.2614975
21
-184.0120472
0
LINE
8
0
10
129.2614975
20
-184.0120472
11
111.264239
21
-183.6979039
0
LINE
8
0
10
111.264239
20
-183.6979039
11
111.5783823
21
-165.7006454
0
LINE
8
0
10
111.9457555
20
-144.6538514
11
129.943014
21
-144.9679947
0
LINE
8
0
10
129.943014
20
-144.9679947
11
129.6288707
21
-162.9652532
0
LINE
8
0
10
129.6288707
20
-162.9652532
11
111.6316122
21
-162.6511099
0
LINE
8
0
10
111.6316122
20
-162.6511099
11
111.9457555
21
-144.6538514
0
LINE
8
0
10
112.3131287
20
-123.6070574
11
130.3103872
21
-123.9212007
0
LINE
8
0
10
130.3103872
20
-123.9212007
11
129.9962439
21
-141.9184592
0
LINE
8
0
10
129.9962439
20
-141.9184592
11
111.9989854
21
-141.6043159
0
LINE
8
0
10
111.9989854
20
-141.6043159
11
112.3131287
21
-123.6070574
0
LINE
8
0
10
112.6805019
20
-102.5602634
11
130.6777604
21
-102.8744067
0
LINE
8
0
10
130.6777604
20
-102.8744067
11
130.3636171
21
-120.8716652
0
LINE
8
0
10
130.3636171
20
-120.8716652
11
112.3663586
21
-120.5575219
0
LINE
8
0
10
112.3663586
20
-120.5575219
11
112.6805019
21
-102.5602634
0
LINE
8
0
10
113.0478751
20
-81.5134694
11
131.0451336
21
-81.8276127
0
LINE
8
0
10
131.0451336
20
-81.8276127
11
130.7309903
21
-99.8248712
0
LINE
8
0
10
130.7309903
20
-99.8248712
11
112.7337318
21
-99.5107279
0
LINE
8
0
10
112.7337318
20
-99.5107279
11
113.0478751
21
-81.5134694
0
LINE
8
0
10
131.4016385
20
-187.9442959
11
149.3906734
21
-188.5724868
0
LINE
8
0
10
149.3906734
20
-188.5724868
11
148.7624825
21
-206.5615217
0
LINE
8
0
10
148.7624825
20
-206.5615217
11
130.7734476
21
-205.9333308
0
LINE
8
0
10
130.7734476
20
-205.9333308
11
131.4016385
21
-187.9442959
0
LINE
8
0
10
132.1362729
20
-166.907119
11
150.1253078
21
-167.5353099
0
LINE
8
0
10
150.1253078
20
-167.5353099
11
149.4971169
21
-185.5243448
0
LINE
8
0
10
149.4971169
20
-185.5243448
11
131.508082
21
-184.8961539
0
LINE
8
0
10
131.508082
20
-184.8961539
11
132.1362729
21
-166.907119
0
LINE
8
0
10
132.8709073
20
-145.8699421
11
150.8599422
21
-146.498133
0
LINE
8
0
10
150.8599422
20
-146.498133
11
150.2317513
21
-164.4871679
0
LINE
8
0
10
150.2317513
20
-164.4871679
11
132.2427164
21
-163.858977
0
LINE
8
0
10
132.2427164
20
-163.858977
11
132.8709073
21
-145.8699421
0
LINE
8
0
10
133.6055417
20
-124.8327652
11
151.5945766
21
-125.4609561
0
LINE
8
0
10
151.5945766
20
-125.4609561
11
150.9663857
21
-143.449991
0
LINE
8
0
10
150.9663857
20
-143.449991
11
132.9773508
21
-142.8218001
0
LINE
8
0
10
132.9773508
20
-142.8218001
11
133.6055417
21
-124.8327652
0
LINE
8
0
10
134.3401761
20
-103.7955883
11
152.329211
21
-104.4237792
0
LINE
8
0
10
152.329211
20
-104.4237792
11
151.7010201
21
-122.4128141
0
LINE
8
0
10
151.7010201
20
-122.4128141
11
133.7119852
21
-121.7846232
0
LINE
8
0
10
133.7119852
20
-121.7846232
11
134.3401761
21
-103.7955883
0
LINE
8
0
10
135.0748105
20
-82.7584114
11
153.0638454
21
-83.3866023
0
LINE
8
0
10
153.0638454
20
-83.3866023
11
152.4356545
21
-101.3756372
0
LINE
8
0
10
152.4356545
20
-101.3756372
11
134.4466196
21
-100.7474463
0
LINE
8
0
10
134.4466196
20
-100.7474463
11
135.0748105
21
-82.7584114
0
LINE
8
0
10
151.5683049
20
-189.4933453
11
169.5436365
21
-190.4353925
0
LINE
8
0
10
169.5436365
20
-190.4353925
11
168.6015893
21
-208.4107241
0
LINE
8
0
10
168.6015893
20
-208.4107241
11
150.6262577
21
-207.4686769
0
LINE
8
0
10
150.6262577
20
-207.4686769
11
151.5683049
21
-189.4933453
0
LINE
8
0
10
152.6699768
20
-168.4721936
11
170.6453084
21
-169.4142408
0
LINE
8
0
10
170.6453084
20
-169.4142408
11
169.7032612
21
-187.3895724
0
LINE
8
0
10
169.7032612
20
-187.3895724
11
151.7279296
21
-186.4475252
0
LINE
8
0
10
151.7279296
20
-186.4475252
11
152.6699768
21
-168.4721936
0
LINE
8
0
10
153.7716487
20
-147.4510419
11
171.7469803
21
-148.3930891
0
LINE
8
0
10
171.7469803
20
-148.3930891
11
170.8049331
21
-166.3684207
0
LINE
8
0
10
170.8049331
20
-166.3684207
11
152.8296015
21
-165.4263735
0
LINE
8
0
10
152.8296015
20
-165.4263735
11
153.7716487
21
-147.4510419
0
LINE
8
0
10
154.8733206
20
-126.4298902
11
172.8486522
21
-127.3719374
0
LINE
8
0
10
172.8486522
20
-127.3719374
11
171.906605
21
-145.347269
0
LINE
8
0
10
171.906605
20
-145.347269
11
153.9312734
21
-144.4052218
0
LINE
8
0
10
153.9312734
20
-144.4052218
11
154.8733206
21
-126.4298902
0
LINE
8
0
10
155.9749925
20
-105.4087385
11
173.9503241
21
-106.3507857
0
LINE
8
0
10
173.9503241
20
-106.3507857
11
173.0082769
21
-124.3261173
0
LINE
8
0
10
173.0082769
20
-124.3261173
11
155.0329453
21
-123.3840701
0
LINE
8
0
10
155.0329453
20
-123.3840701
11
155.9749925
21
-105.4087385
0
LINE
8
0
10
157.0766644
20
-84.3875868
11
175.051996
21
-85.329634
0
LINE
8
0
10
175.051996
20
-85.329634
11
174.1099488
21
-103.3049656
0
LINE
8
0
10
174.1099488
20
-103.3049656
11
156.1346172
21
-102.3629184
0
LINE
8
0
10
156.1346172
20
-102.3629184
11
157.0766644
21
-84.3875868
0
ENDSEC
0
EOF