<svg width="150.731mm" height="129.129mm" viewBox="0 0 150.731 129.129" xmlns="http://www.w3.org/2000/svg"><g id="svgGroup" stroke-linecap="round" fill-rule="evenodd" font-size="9pt" stroke="#000" stroke-width="0.25mm" fill="none" style="stroke:#000;stroke-width:0.25mm;fill:none"><path d="M 5.703 111.173 L 43.71 108.515 L 44.966 126.471 L 6.959 129.129 L 5.703 111.173 Z M 107.021 107.467 L 145.028 110.125 L 143.773 128.081 L 105.765 125.423 L 107.021 107.467 Z M 108.194 65.217 L 126.183 65.845 L 125.555 83.834 L 107.566 83.206 L 108.194 65.217 Z M 25.25 87.581 L 43.239 86.953 L 43.867 104.942 L 25.878 105.57 L 25.25 87.581 Z M 23.781 45.507 L 41.77 44.879 L 42.398 62.868 L 24.409 63.496 L 23.781 45.507 Z M 109.663 23.142 L 127.652 23.771 L 127.024 41.76 L 109.035 41.131 L 109.663 23.142 Z M 110.398 2.105 L 128.387 2.733 L 127.759 20.722 L 109.77 20.094 L 110.398 2.105 Z M 23.046 24.47 L 41.035 23.842 L 41.663 41.831 L 23.674 42.459 L 23.046 24.47 Z M 22.311 3.433 L 40.301 2.804 L 40.929 20.793 L 22.94 21.422 L 22.311 3.433 Z M 108.929 44.18 L 126.918 44.808 L 126.289 62.797 L 108.3 62.169 L 108.929 44.18 Z M 107.459 86.254 L 125.448 86.882 L 124.82 104.871 L 106.831 104.243 L 107.459 86.254 Z M 24.515 66.544 L 42.504 65.916 L 43.133 83.905 L 25.144 84.533 L 24.515 66.544 Z M 66.326 105.25 L 84.326 105.25 L 84.326 123.25 L 66.326 123.25 L 66.326 105.25 Z M 66.326 84.2 L 84.326 84.2 L 84.326 102.2 L 66.326 102.2 L 66.326 84.2 Z M 66.326 63.15 L 84.326 63.15 L 84.326 81.15 L 66.326 81.15 L 66.326 63.15 Z M 66.326 42.1 L 84.326 42.1 L 84.326 60.1 L 66.326 60.1 L 66.326 42.1 Z M 66.326 21.05 L 84.326 21.05 L 84.326 39.05 L 66.326 39.05 L 66.326 21.05 Z M 66.326 0 L 84.326 0 L 84.326 18 L 66.326 18 L 66.326 0 Z M 88.371 0.86 L 106.368 1.174 L 106.054 19.172 L 88.057 18.858 L 88.371 0.86 Z M 45.773 85.711 L 63.77 85.397 L 64.084 103.395 L 46.087 103.709 L 45.773 85.711 Z M 44.671 22.571 L 62.668 22.257 L 62.982 40.254 L 44.985 40.568 L 44.671 22.571 Z M 44.304 1.524 L 62.301 1.21 L 62.615 19.207 L 44.618 19.521 L 44.304 1.524 Z M 87.636 42.954 L 105.633 43.268 L 105.319 61.265 L 87.322 60.951 L 87.636 42.954 Z M 45.038 43.618 L 63.036 43.304 L 63.35 61.301 L 45.352 61.615 L 45.038 43.618 Z M 86.534 106.094 L 104.531 106.408 L 104.217 124.406 L 86.22 124.092 L 86.534 106.094 Z M 86.901 85.048 L 104.899 85.362 L 104.585 103.359 L 86.587 103.045 L 86.901 85.048 Z M 87.269 64.001 L 105.266 64.315 L 104.952 82.312 L 86.955 81.998 L 87.269 64.001 Z M 88.004 21.907 L 106.001 22.221 L 105.687 40.219 L 87.689 39.904 L 88.004 21.907 Z M 46.14 106.758 L 64.138 106.444 L 64.452 124.441 L 46.455 124.755 L 46.14 106.758 Z M 45.406 64.665 L 63.403 64.35 L 63.717 82.348 L 45.72 82.662 L 45.406 64.665 Z M 128.349 88.016 L 146.324 88.958 L 145.382 106.934 L 127.407 105.991 L 128.349 88.016 Z M 129.451 66.995 L 147.426 67.937 L 146.484 85.912 L 128.509 84.97 L 129.451 66.995 Z M 130.552 45.974 L 148.528 46.916 L 147.586 64.891 L 129.61 63.949 L 130.552 45.974 Z M 132.756 3.932 L 150.731 4.874 L 149.789 22.849 L 131.814 21.907 L 132.756 3.932 Z M 4.407 90.006 L 22.382 89.064 L 23.324 107.039 L 5.349 107.981 L 4.407 90.006 Z M 3.305 68.985 L 21.28 68.043 L 22.222 86.018 L 4.247 86.96 L 3.305 68.985 Z M 2.203 47.964 L 20.179 47.022 L 21.121 64.997 L 3.145 65.939 L 2.203 47.964 Z M 0 5.922 L 17.975 4.979 L 18.917 22.955 L 0.942 23.897 L 0 5.922 Z M 131.654 24.953 L 149.629 25.895 L 148.687 43.87 L 130.712 42.928 L 131.654 24.953 Z M 1.102 26.943 L 19.077 26.001 L 20.019 43.976 L 2.044 44.918 L 1.102 26.943 Z" vector-effect="non-scaling-stroke"/></g></svg>