solid csg.js
facet normal 0 0 -1
outer loop
vertex 31.177307791562427 -62.54952812555726 0
vertex 31.927307791562413 -63.09443502156128 0
vertex 32.21378229999999 -63.976112900000004 0
endloop
endfacet
facet normal 0 0 -1
outer loop
vertex 31.177307791562427 -62.54952812555726 0
vertex 32.21378229999999 -63.976112900000004 0
vertex 31.9273077915624 -64.85779077843871 0
endloop
endfacet
facet normal 0 0 -1
outer loop
vertex 31.177307791562427 -62.54952812555726 0
vertex 31.9273077915624 -64.85779077843871 0
vertex 31.177307791562427 -65.40269767444272 0
endloop
endfacet
facet normal 0 0 -1
outer loop
vertex 31.177307791562427 -62.54952812555726 0
vertex 31.177307791562427 -65.40269767444272 0
vertex 30.25025680843757 -65.40269767444272 0
endloop
endfacet
facet normal 0 0 -1
outer loop
vertex 31.177307791562427 -62.54952812555726 0
vertex 30.25025680843757 -65.40269767444272 0
vertex 29.50025680843757 -64.85779077843871 0
endloop
endfacet
facet normal 0 0 -1
outer loop
vertex 31.177307791562427 -62.54952812555726 0
vertex 29.50025680843757 -64.85779077843871 0
vertex 29.21378229999999 -63.976112900000004 0
endloop
endfacet
facet normal 0 0 -1
outer loop
vertex 31.177307791562427 -62.54952812555726 0
vertex 29.21378229999999 -63.976112900000004 0
vertex 29.50025680843757 -63.09443502156128 0
endloop
endfacet
facet normal 0 0 -1
outer loop
vertex 31.177307791562427 -62.54952812555726 0
vertex 29.50025680843757 -63.09443502156128 0
vertex 30.250256808437584 -62.54952812555726 0
endloop
endfacet
facet normal 0 0 -1
outer loop
vertex 110.46609209156242 -63.20155552555727 0
vertex 111.21609209156242 -63.746462421561304 0
vertex 111.5025666 -64.62814029999994 0
endloop
endfacet
facet normal 0 0 -1
outer loop
vertex 110.46609209156242 -63.20155552555727 0
vertex 111.5025666 -64.62814029999994 0
vertex 111.21609209156242 -65.5098181784387 0
endloop
endfacet
facet normal 0 0 -1
outer loop
vertex 110.46609209156242 -63.20155552555727 0
vertex 111.21609209156242 -65.5098181784387 0
vertex 110.46609209156239 -66.05472507444273 0
endloop
endfacet
facet normal 0 0 -1
outer loop
vertex 110.46609209156242 -63.20155552555727 0
vertex 110.46609209156239 -66.05472507444273 0
vertex 109.53904110843759 -66.05472507444273 0
endloop
endfacet
facet normal 0 0 -1
outer loop
vertex 110.46609209156242 -63.20155552555727 0
vertex 109.53904110843759 -66.05472507444273 0
vertex 108.78904110843757 -65.5098181784387 0
endloop
endfacet
facet normal 0 0 -1
outer loop
vertex 110.46609209156242 -63.20155552555727 0
vertex 108.78904110843757 -65.5098181784387 0
vertex 108.50256659999998 -64.62814029999994 0
endloop
endfacet
facet normal 0 0 -1
outer loop
vertex 110.46609209156242 -63.20155552555727 0
vertex 108.50256659999998 -64.62814029999994 0
vertex 108.78904110843754 -63.746462421561304 0
endloop
endfacet
facet normal 0 0 -1
outer loop
vertex 110.46609209156242 -63.20155552555727 0
vertex 108.78904110843754 -63.746462421561304 0
vertex 109.53904110843757 -63.20155552555727 0
endloop
endfacet
facet normal 0 0 -1
outer loop
vertex 189.04858929156245 -71.72443162555727 0
vertex 189.79858929156242 -72.26933852156132 0
vertex 190.0850638 -73.15101640000003 0
endloop
endfacet
facet normal 0 0 -1
outer loop
vertex 189.04858929156245 -71.72443162555727 0
vertex 190.0850638 -73.15101640000003 0
vertex 189.79858929156242 -74.03269427843873 0
endloop
endfacet
facet normal 0 0 -1
outer loop
vertex 189.04858929156245 -71.72443162555727 0
vertex 189.79858929156242 -74.03269427843873 0
vertex 189.04858929156242 -74.57760117444273 0
endloop
endfacet
facet normal 0 0 -1
outer loop
vertex 189.04858929156245 -71.72443162555727 0
vertex 189.04858929156242 -74.57760117444273 0
vertex 188.12153830843758 -74.57760117444273 0
endloop
endfacet
facet normal 0 0 -1
outer loop
vertex 189.04858929156245 -71.72443162555727 0
vertex 188.12153830843758 -74.57760117444273 0
vertex 187.37153830843758 -74.03269427843873 0
endloop
endfacet
facet normal 0 0 -1
outer loop
vertex 189.04858929156245 -71.72443162555727 0
vertex 187.37153830843758 -74.03269427843873 0
vertex 187.0850638 -73.15101640000003 0
endloop
endfacet
facet normal 0 0 -1
outer loop
vertex 189.04858929156245 -71.72443162555727 0
vertex 187.0850638 -73.15101640000003 0
vertex 187.37153830843758 -72.26933852156132 0
endloop
endfacet
facet normal 0 0 -1
outer loop
vertex 189.04858929156245 -71.72443162555727 0
vertex 187.37153830843758 -72.26933852156132 0
vertex 188.1215383084376 -71.72443162555727 0
endloop
endfacet
facet normal 0 0 -1
outer loop
vertex 110.46609209156244 -211.63280552555727 0
vertex 111.21609209156244 -212.17771242156132 0
vertex 111.5025666 -213.05939029999996 0
endloop
endfacet
facet normal 0 0 -1
outer loop
vertex 110.46609209156244 -211.63280552555727 0
vertex 111.5025666 -213.05939029999996 0
vertex 111.21609209156239 -213.9410681784387 0
endloop
endfacet
facet normal 0 0 -1
outer loop
vertex 110.46609209156244 -211.63280552555727 0
vertex 111.21609209156239 -213.9410681784387 0
vertex 110.46609209156244 -214.4859750744427 0
endloop
endfacet
facet normal 0 0 -1
outer loop
vertex 110.46609209156244 -211.63280552555727 0
vertex 110.46609209156244 -214.4859750744427 0
vertex 109.53904110843757 -214.4859750744427 0
endloop
endfacet
facet normal 0 0 -1
outer loop
vertex 110.46609209156244 -211.63280552555727 0
vertex 109.53904110843757 -214.4859750744427 0
vertex 108.78904110843757 -213.9410681784387 0
endloop
endfacet
facet normal 0 0 -1
outer loop
vertex 110.46609209156244 -211.63280552555727 0
vertex 108.78904110843757 -213.9410681784387 0
vertex 108.5025666 -213.05939029999996 0
endloop
endfacet
facet normal 0 0 -1
outer loop
vertex 110.46609209156244 -211.63280552555727 0
vertex 108.5025666 -213.05939029999996 0
vertex 108.78904110843756 -212.17771242156132 0
endloop
endfacet
facet normal 0 0 -1
outer loop
vertex 110.46609209156244 -211.63280552555727 0
vertex 108.78904110843756 -212.17771242156132 0
vertex 109.53904110843762 -211.63280552555727 0
endloop
endfacet
facet normal 0 0 -1
outer loop
vertex 182.25101989156246 -213.33023832555727 0
vertex 183.00101989156244 -213.87514522156124 0
vertex 183.2874944 -214.75682310000005 0
endloop
endfacet
facet normal 0 0 -1
outer loop
vertex 182.25101989156246 -213.33023832555727 0
vertex 183.2874944 -214.75682310000005 0
vertex 183.0010198915624 -215.6385009784387 0
endloop
endfacet
facet normal 0 0 -1
outer loop
vertex 182.25101989156246 -213.33023832555727 0
vertex 183.0010198915624 -215.6385009784387 0
vertex 182.25101989156246 -216.1834078744427 0
endloop
endfacet
facet normal 0 0 -1
outer loop
vertex 182.25101989156246 -213.33023832555727 0
vertex 182.25101989156246 -216.1834078744427 0
vertex 181.3239689084376 -216.1834078744427 0
endloop
endfacet
facet normal 0 0 -1
outer loop
vertex 182.25101989156246 -213.33023832555727 0
vertex 181.3239689084376 -216.1834078744427 0
vertex 180.5739689084376 -215.6385009784387 0
endloop
endfacet
facet normal 0 0 -1
outer loop
vertex 182.25101989156246 -213.33023832555727 0
vertex 180.5739689084376 -215.6385009784387 0
vertex 180.2874944 -214.75682310000005 0
endloop
endfacet
facet normal 0 0 -1
outer loop
vertex 182.25101989156246 -213.33023832555727 0
vertex 180.2874944 -214.75682310000005 0
vertex 180.57396890843762 -213.87514522156124 0
endloop
endfacet
facet normal 0 0 -1
outer loop
vertex 182.25101989156246 -213.33023832555727 0
vertex 180.57396890843762 -213.87514522156124 0
vertex 181.3239689084376 -213.33023832555727 0
endloop
endfacet
facet normal 0 0 -1
outer loop
vertex 38.76097819156246 -214.37820362555726 0
vertex 39.510978191562415 -214.92311052156126 0
vertex 39.797452699999994 -215.8047884 0
endloop
endfacet
facet normal 0 0 -1
outer loop
vertex 38.76097819156246 -214.37820362555726 0
vertex 39.797452699999994 -215.8047884 0
vertex 39.5109781915624 -216.68646627843873 0
endloop
endfacet
facet normal 0 0 -1
outer loop
vertex 38.76097819156246 -214.37820362555726 0
vertex 39.5109781915624 -216.68646627843873 0
vertex 38.76097819156246 -217.23137317444275 0
endloop
endfacet
facet normal 0 0 -1
outer loop
vertex 38.76097819156246 -214.37820362555726 0
vertex 38.76097819156246 -217.23137317444275 0
vertex 37.833927208437586 -217.23137317444275 0
endloop
endfacet
facet normal 0 0 -1
outer loop
vertex 38.76097819156246 -214.37820362555726 0
vertex 37.833927208437586 -217.23137317444275 0
vertex 37.083927208437586 -216.68646627843873 0
endloop
endfacet
facet normal 0 0 -1
outer loop
vertex 38.76097819156246 -214.37820362555726 0
vertex 37.083927208437586 -216.68646627843873 0
vertex 36.79745270000001 -215.8047884 0
endloop
endfacet
facet normal 0 0 -1
outer loop
vertex 38.76097819156246 -214.37820362555726 0
vertex 36.79745270000001 -215.8047884 0
vertex 37.0839272084376 -214.92311052156126 0
endloop
endfacet
facet normal 0 0 -1
outer loop
vertex 38.76097819156246 -214.37820362555726 0
vertex 37.0839272084376 -214.92311052156126 0
vertex 37.83392720843756 -214.37820362555726 0
endloop
endfacet
facet normal 0 0 1
outer loop
vertex 38.7609781915624 -217.23137317444272 4
vertex 39.51097819156243 -216.6864662784387 4
vertex 39.79745270000001 -215.80478839999998 4
endloop
endfacet
facet normal 0 0 1
outer loop
vertex 38.7609781915624 -217.23137317444272 4
vertex 39.79745270000001 -215.80478839999998 4
vertex 39.51097819156243 -214.92311052156128 4
endloop
endfacet
facet normal 0 0 1
outer loop
vertex 38.7609781915624 -217.23137317444272 4
vertex 39.51097819156243 -214.92311052156128 4
vertex 38.7609781915624 -214.37820362555726 4
endloop
endfacet
facet normal 0 0 1
outer loop
vertex 38.7609781915624 -217.23137317444272 4
vertex 38.7609781915624 -214.37820362555726 4
vertex 37.833927208437586 -214.37820362555726 4
endloop
endfacet
facet normal 0 0 1
outer loop
vertex 38.7609781915624 -217.23137317444272 4
vertex 37.833927208437586 -214.37820362555726 4
vertex 37.083927208437586 -214.92311052156128 4
endloop
endfacet
facet normal 0 0 1
outer loop
vertex 38.7609781915624 -217.23137317444272 4
vertex 37.083927208437586 -214.92311052156128 4
vertex 36.79745270000001 -215.80478839999998 4
endloop
endfacet
facet normal 0 0 1
outer loop
vertex 38.7609781915624 -217.23137317444272 4
vertex 36.79745270000001 -215.80478839999998 4
vertex 37.08392720843757 -216.6864662784387 4
endloop
endfacet
facet normal 0 0 1
outer loop
vertex 38.7609781915624 -217.23137317444272 4
vertex 37.08392720843757 -216.6864662784387 4
vertex 37.833927208437586 -217.23137317444272 4
endloop
endfacet
facet normal 0 0 1
outer loop
vertex 182.2510198915625 -216.1834078744427 4
vertex 183.0010198915624 -215.63850097843869 4
vertex 183.2874944 -214.7568231 4
endloop
endfacet
facet normal 0 0 1
outer loop
vertex 182.2510198915625 -216.1834078744427 4
vertex 183.2874944 -214.7568231 4
vertex 183.00101989156244 -213.87514522156124 4
endloop
endfacet
facet normal 0 0 1
outer loop
vertex 182.2510198915625 -216.1834078744427 4
vertex 183.00101989156244 -213.87514522156124 4
vertex 182.25101989156246 -213.33023832555727 4
endloop
endfacet
facet normal 0 0 1
outer loop
vertex 182.2510198915625 -216.1834078744427 4
vertex 182.25101989156246 -213.33023832555727 4
vertex 181.32396890843762 -213.33023832555727 4
endloop
endfacet
facet normal 0 0 1
outer loop
vertex 182.2510198915625 -216.1834078744427 4
vertex 181.32396890843762 -213.33023832555727 4
vertex 180.5739689084376 -213.87514522156124 4
endloop
endfacet
facet normal 0 0 1
outer loop
vertex 182.2510198915625 -216.1834078744427 4
vertex 180.5739689084376 -213.87514522156124 4
vertex 180.2874944 -214.7568231 4
endloop
endfacet
facet normal 0 0 1
outer loop
vertex 182.2510198915625 -216.1834078744427 4
vertex 180.2874944 -214.7568231 4
vertex 180.5739689084376 -215.63850097843869 4
endloop
endfacet
facet normal 0 0 1
outer loop
vertex 182.2510198915625 -216.1834078744427 4
vertex 180.5739689084376 -215.63850097843869 4
vertex 181.32396890843762 -216.1834078744427 4
endloop
endfacet
facet normal 0 0 1
outer loop
vertex 110.46609209156243 -214.4859750744427 4
vertex 111.2160920915624 -213.9410681784387 4
vertex 111.5025666 -213.05939029999996 4
endloop
endfacet
facet normal 0 0 1
outer loop
vertex 110.46609209156243 -214.4859750744427 4
vertex 111.5025666 -213.05939029999996 4
vertex 111.21609209156243 -212.1777124215613 4
endloop
endfacet
facet normal 0 0 1
outer loop
vertex 110.46609209156243 -214.4859750744427 4
vertex 111.21609209156243 -212.1777124215613 4
vertex 110.46609209156239 -211.63280552555727 4
endloop
endfacet
facet normal 0 0 1
outer loop
vertex 110.46609209156243 -214.4859750744427 4
vertex 110.46609209156239 -211.63280552555727 4
vertex 109.5390411084376 -211.63280552555727 4
endloop
endfacet
facet normal 0 0 1
outer loop
vertex 110.46609209156243 -214.4859750744427 4
vertex 109.5390411084376 -211.63280552555727 4
vertex 108.78904110843753 -212.1777124215613 4
endloop
endfacet
facet normal 0 0 1
outer loop
vertex 110.46609209156243 -214.4859750744427 4
vertex 108.78904110843753 -212.1777124215613 4
vertex 108.5025666 -213.05939029999996 4
endloop
endfacet
facet normal 0 0 1
outer loop
vertex 110.46609209156243 -214.4859750744427 4
vertex 108.5025666 -213.05939029999996 4
vertex 108.78904110843759 -213.9410681784387 4
endloop
endfacet
facet normal 0 0 1
outer loop
vertex 110.46609209156243 -214.4859750744427 4
vertex 108.78904110843759 -213.9410681784387 4
vertex 109.53904110843759 -214.4859750744427 4
endloop
endfacet
facet normal 0 0 1
outer loop
vertex 189.0485892915624 -74.57760117444273 4
vertex 189.79858929156242 -74.03269427843873 4
vertex 190.0850638 -73.15101639999997 4
endloop
endfacet
facet normal 0 0 1
outer loop
vertex 189.0485892915624 -74.57760117444273 4
vertex 190.0850638 -73.15101639999997 4
vertex 189.79858929156242 -72.26933852156134 4
endloop
endfacet
facet normal 0 0 1
outer loop
vertex 189.0485892915624 -74.57760117444273 4
vertex 189.79858929156242 -72.26933852156134 4
vertex 189.04858929156245 -71.72443162555727 4
endloop
endfacet
facet normal 0 0 1
outer loop
vertex 189.0485892915624 -74.57760117444273 4
vertex 189.04858929156245 -71.72443162555727 4
vertex 188.1215383084376 -71.72443162555727 4
endloop
endfacet
facet normal 0 0 1
outer loop
vertex 189.0485892915624 -74.57760117444273 4
vertex 188.1215383084376 -71.72443162555727 4
vertex 187.37153830843755 -72.26933852156134 4
endloop
endfacet
facet normal 0 0 1
outer loop
vertex 189.0485892915624 -74.57760117444273 4
vertex 187.37153830843755 -72.26933852156134 4
vertex 187.0850638 -73.15101639999997 4
endloop
endfacet
facet normal 0 0 1
outer loop
vertex 189.0485892915624 -74.57760117444273 4
vertex 187.0850638 -73.15101639999997 4
vertex 187.3715383084376 -74.03269427843873 4
endloop
endfacet
facet normal 0 0 1
outer loop
vertex 189.0485892915624 -74.57760117444273 4
vertex 187.3715383084376 -74.03269427843873 4
vertex 188.12153830843758 -74.57760117444273 4
endloop
endfacet
facet normal 0 0 1
outer loop
vertex 110.4660920915624 -66.05472507444273 4
vertex 111.21609209156243 -65.5098181784387 4
vertex 111.5025666 -64.62814029999996 4
endloop
endfacet
facet normal 0 0 1
outer loop
vertex 110.4660920915624 -66.05472507444273 4
vertex 111.5025666 -64.62814029999996 4
vertex 111.2160920915624 -63.746462421561304 4
endloop
endfacet
facet normal 0 0 1
outer loop
vertex 110.4660920915624 -66.05472507444273 4
vertex 111.2160920915624 -63.746462421561304 4
vertex 110.46609209156243 -63.20155552555727 4
endloop
endfacet
facet normal 0 0 1
outer loop
vertex 110.4660920915624 -66.05472507444273 4
vertex 110.46609209156243 -63.20155552555727 4
vertex 109.53904110843757 -63.20155552555727 4
endloop
endfacet
facet normal 0 0 1
outer loop
vertex 110.4660920915624 -66.05472507444273 4
vertex 109.53904110843757 -63.20155552555727 4
vertex 108.78904110843754 -63.746462421561304 4
endloop
endfacet
facet normal 0 0 1
outer loop
vertex 110.4660920915624 -66.05472507444273 4
vertex 108.78904110843754 -63.746462421561304 4
vertex 108.5025666 -64.62814029999996 4
endloop
endfacet
facet normal 0 0 1
outer loop
vertex 110.4660920915624 -66.05472507444273 4
vertex 108.5025666 -64.62814029999996 4
vertex 108.78904110843759 -65.5098181784387 4
endloop
endfacet
facet normal 0 0 1
outer loop
vertex 110.4660920915624 -66.05472507444273 4
vertex 108.78904110843759 -65.5098181784387 4
vertex 109.53904110843759 -66.05472507444273 4
endloop
endfacet
facet normal 0 0 1
outer loop
vertex 31.177307791562427 -65.40269767444272 4
vertex 31.927307791562413 -64.85779077843873 4
vertex 32.21378229999999 -63.97611289999999 4
endloop
endfacet
facet normal 0 0 1
outer loop
vertex 31.177307791562427 -65.40269767444272 4
vertex 32.21378229999999 -63.97611289999999 4
vertex 31.927307791562413 -63.09443502156128 4
endloop
endfacet
facet normal 0 0 1
outer loop
vertex 31.177307791562427 -65.40269767444272 4
vertex 31.927307791562413 -63.09443502156128 4
vertex 31.177307791562427 -62.54952812555726 4
endloop
endfacet
facet normal 0 0 1
outer loop
vertex 31.177307791562427 -65.40269767444272 4
vertex 31.177307791562427 -62.54952812555726 4
vertex 30.25025680843757 -62.54952812555726 4
endloop
endfacet
facet normal 0 0 1
outer loop
vertex 31.177307791562427 -65.40269767444272 4
vertex 30.25025680843757 -62.54952812555726 4
vertex 29.50025680843757 -63.09443502156128 4
endloop
endfacet
facet normal 0 0 1
outer loop
vertex 31.177307791562427 -65.40269767444272 4
vertex 29.50025680843757 -63.09443502156128 4
vertex 29.21378229999999 -63.97611289999999 4
endloop
endfacet
facet normal 0 0 1
outer loop
vertex 31.177307791562427 -65.40269767444272 4
vertex 29.21378229999999 -63.97611289999999 4
vertex 29.500256808437584 -64.85779077843873 4
endloop
endfacet
facet normal 0 0 1
outer loop
vertex 31.177307791562427 -65.40269767444272 4
vertex 29.500256808437584 -64.85779077843873 4
vertex 30.25025680843757 -65.40269767444272 4
endloop
endfacet
facet normal 0.951056516295155 -0.3090169943749434 0
outer loop
vertex 32.21378229999999 -63.97611289999999 4
vertex 31.927307791562413 -64.85779077843873 4
vertex 31.9273077915624 -64.85779077843871 0
endloop
endfacet
facet normal 0.951056516295155 -0.3090169943749434 0
outer loop
vertex 32.21378229999999 -63.97611289999999 4
vertex 31.9273077915624 -64.85779077843871 0
vertex 32.21378229999999 -63.976112900000004 0
endloop
endfacet
facet normal 0.951056516295151 0.30901699437495556 0
outer loop
vertex 31.927307791562413 -63.09443502156128 4
vertex 32.21378229999999 -63.97611289999999 4
vertex 32.21378229999999 -63.976112900000004 0
endloop
endfacet
facet normal 0.951056516295151 0.30901699437495556 0
outer loop
vertex 31.927307791562413 -63.09443502156128 4
vertex 32.21378229999999 -63.976112900000004 0
vertex 31.927307791562413 -63.09443502156128 0
endloop
endfacet
facet normal 0.5877852522924697 0.8090169943749499 0
outer loop
vertex 31.177307791562427 -62.54952812555726 4
vertex 31.927307791562413 -63.09443502156128 4
vertex 31.927307791562413 -63.09443502156128 0
endloop
endfacet
facet normal 0.5877852522924697 0.8090169943749499 0
outer loop
vertex 31.177307791562427 -62.54952812555726 4
vertex 31.927307791562413 -63.09443502156128 0
vertex 31.177307791562427 -62.54952812555726 0
endloop
endfacet
facet normal 0 1 0
outer loop
vertex 31.177307791562427 -62.54952812555726 4
vertex 31.177307791562427 -62.54952812555726 0
vertex 30.250256808437584 -62.54952812555726 0
endloop
endfacet
facet normal 0 1 0
outer loop
vertex 31.177307791562427 -62.54952812555726 4
vertex 30.250256808437584 -62.54952812555726 0
vertex 30.25025680843757 -62.54952812555726 4
endloop
endfacet
facet normal -0.587785252292465 0.8090169943749533 0
outer loop
vertex 29.50025680843757 -63.09443502156128 4
vertex 30.25025680843757 -62.54952812555726 4
vertex 30.250256808437584 -62.54952812555726 0
endloop
endfacet
facet normal -0.587785252292465 0.8090169943749533 0
outer loop
vertex 29.50025680843757 -63.09443502156128 4
vertex 30.250256808437584 -62.54952812555726 0
vertex 29.50025680843757 -63.09443502156128 0
endloop
endfacet
facet normal -0.9510565162951504 0.30901699437495733 0
outer loop
vertex 29.21378229999999 -63.97611289999999 4
vertex 29.50025680843757 -63.09443502156128 4
vertex 29.50025680843757 -63.09443502156128 0
endloop
endfacet
facet normal -0.9510565162951504 0.30901699437495733 0
outer loop
vertex 29.21378229999999 -63.97611289999999 4
vertex 29.50025680843757 -63.09443502156128 0
vertex 29.21378229999999 -63.976112900000004 0
endloop
endfacet
facet normal -0.951056516295155 -0.309016994374943 0
outer loop
vertex 29.500256808437584 -64.85779077843873 4
vertex 29.21378229999999 -63.97611289999999 4
vertex 29.21378229999999 -63.976112900000004 0
endloop
endfacet
facet normal -0.951056516295155 -0.309016994374943 0
outer loop
vertex 29.500256808437584 -64.85779077843873 4
vertex 29.21378229999999 -63.976112900000004 0
vertex 29.50025680843757 -64.85779077843871 0
endloop
endfacet
facet normal -0.5877852522924617 -0.8090169943749558 0
outer loop
vertex 30.25025680843757 -65.40269767444272 4
vertex 29.500256808437584 -64.85779077843873 4
vertex 29.50025680843757 -64.85779077843871 0
endloop
endfacet
facet normal -0.5877852522924617 -0.8090169943749558 0
outer loop
vertex 30.25025680843757 -65.40269767444272 4
vertex 29.50025680843757 -64.85779077843871 0
vertex 30.25025680843757 -65.40269767444272 0
endloop
endfacet
facet normal 0 -1 0
outer loop
vertex 31.177307791562427 -65.40269767444272 0
vertex 31.177307791562427 -65.40269767444272 4
vertex 30.25025680843757 -65.40269767444272 4
endloop
endfacet
facet normal 0 -1 0
outer loop
vertex 31.177307791562427 -65.40269767444272 0
vertex 30.25025680843757 -65.40269767444272 4
vertex 30.25025680843757 -65.40269767444272 0
endloop
endfacet
facet normal 0.5877852522924617 -0.8090169943749558 0
outer loop
vertex 31.927307791562413 -64.85779077843873 4
vertex 31.177307791562427 -65.40269767444272 4
vertex 31.177307791562427 -65.40269767444272 0
endloop
endfacet
facet normal 0.5877852522924617 -0.8090169943749558 0
outer loop
vertex 31.927307791562413 -64.85779077843873 4
vertex 31.177307791562427 -65.40269767444272 0
vertex 31.9273077915624 -64.85779077843871 0
endloop
endfacet
facet normal 0.951056516295155 -0.3090169943749434 0
outer loop
vertex 111.5025666 -64.62814029999996 4
vertex 111.21609209156243 -65.5098181784387 4
vertex 111.21609209156242 -65.5098181784387 0
endloop
endfacet
facet normal 0.951056516295155 -0.3090169943749434 0
outer loop
vertex 111.5025666 -64.62814029999996 4
vertex 111.21609209156242 -65.5098181784387 0
vertex 111.5025666 -64.62814029999994 0
endloop
endfacet
facet normal 0.9510565162951504 0.3090169943749573 0
outer loop
vertex 111.2160920915624 -63.746462421561304 4
vertex 111.5025666 -64.62814029999996 4
vertex 111.5025666 -64.62814029999994 0
endloop
endfacet
facet normal 0.9510565162951504 0.3090169943749573 0
outer loop
vertex 111.2160920915624 -63.746462421561304 4
vertex 111.5025666 -64.62814029999994 0
vertex 111.21609209156242 -63.746462421561304 0
endloop
endfacet
facet normal 0.5877852522924749 0.8090169943749462 0
outer loop
vertex 110.46609209156243 -63.20155552555727 4
vertex 111.2160920915624 -63.746462421561304 4
vertex 111.21609209156242 -63.746462421561304 0
endloop
endfacet
facet normal 0.5877852522924749 0.8090169943749462 0
outer loop
vertex 110.46609209156243 -63.20155552555727 4
vertex 111.21609209156242 -63.746462421561304 0
vertex 110.46609209156242 -63.20155552555727 0
endloop
endfacet
facet normal 0 1 0
outer loop
vertex 110.46609209156243 -63.20155552555727 4
vertex 110.46609209156242 -63.20155552555727 0
vertex 109.53904110843757 -63.20155552555727 0
endloop
endfacet
facet normal 0 1 0
outer loop
vertex 110.46609209156243 -63.20155552555727 4
vertex 109.53904110843757 -63.20155552555727 0
vertex 109.53904110843757 -63.20155552555727 4
endloop
endfacet
facet normal -0.5877852522924777 0.8090169943749441 0
outer loop
vertex 108.78904110843754 -63.746462421561304 4
vertex 109.53904110843757 -63.20155552555727 4
vertex 109.53904110843757 -63.20155552555727 0
endloop
endfacet
facet normal -0.5877852522924777 0.8090169943749441 0
outer loop
vertex 108.78904110843754 -63.746462421561304 4
vertex 109.53904110843757 -63.20155552555727 0
vertex 108.78904110843754 -63.746462421561304 0
endloop
endfacet
facet normal -0.9510565162951549 0.3090169943749434 0
outer loop
vertex 108.5025666 -64.62814029999996 4
vertex 108.78904110843754 -63.746462421561304 4
vertex 108.78904110843754 -63.746462421561304 0
endloop
endfacet
facet normal -0.9510565162951549 0.3090169943749434 0
outer loop
vertex 108.5025666 -64.62814029999996 4
vertex 108.78904110843754 -63.746462421561304 0
vertex 108.50256659999998 -64.62814029999994 0
endloop
endfacet
facet normal -0.9510565162951596 -0.30901699437492847 0
outer loop
vertex 108.78904110843759 -65.5098181784387 4
vertex 108.5025666 -64.62814029999996 4
vertex 108.50256659999998 -64.62814029999994 0
endloop
endfacet
facet normal -0.9510565162951596 -0.30901699437492847 0
outer loop
vertex 108.78904110843759 -65.5098181784387 4
vertex 108.50256659999998 -64.62814029999994 0
vertex 108.78904110843757 -65.5098181784387 0
endloop
endfacet
facet normal -0.5877852522924614 -0.809016994374956 0
outer loop
vertex 109.53904110843759 -66.05472507444273 4
vertex 108.78904110843759 -65.5098181784387 4
vertex 108.78904110843757 -65.5098181784387 0
endloop
endfacet
facet normal -0.5877852522924614 -0.809016994374956 0
outer loop
vertex 109.53904110843759 -66.05472507444273 4
vertex 108.78904110843757 -65.5098181784387 0
vertex 109.53904110843759 -66.05472507444273 0
endloop
endfacet
facet normal 0 -1 0
outer loop
vertex 110.46609209156239 -66.05472507444273 0
vertex 110.4660920915624 -66.05472507444273 4
vertex 109.53904110843759 -66.05472507444273 4
endloop
endfacet
facet normal 0 -1 0
outer loop
vertex 110.46609209156239 -66.05472507444273 0
vertex 109.53904110843759 -66.05472507444273 4
vertex 109.53904110843759 -66.05472507444273 0
endloop
endfacet
facet normal 0.5877852522924777 -0.8090169943749441 0
outer loop
vertex 111.21609209156243 -65.5098181784387 4
vertex 110.4660920915624 -66.05472507444273 4
vertex 110.46609209156239 -66.05472507444273 0
endloop
endfacet
facet normal 0.5877852522924777 -0.8090169943749441 0
outer loop
vertex 111.21609209156243 -65.5098181784387 4
vertex 110.46609209156239 -66.05472507444273 0
vertex 111.21609209156242 -65.5098181784387 0
endloop
endfacet
facet normal 0.95105651629515 -0.30901699437495833 0
outer loop
vertex 190.0850638 -73.15101639999997 4
vertex 189.79858929156242 -74.03269427843873 4
vertex 189.79858929156242 -74.03269427843873 0
endloop
endfacet
facet normal 0.95105651629515 -0.30901699437495833 0
outer loop
vertex 190.0850638 -73.15101639999997 4
vertex 189.79858929156242 -74.03269427843873 0
vertex 190.0850638 -73.15101640000003 0
endloop
endfacet
facet normal 0.95105651629515 0.30901699437495833 0
outer loop
vertex 189.79858929156242 -72.26933852156134 4
vertex 190.0850638 -73.15101639999997 4
vertex 190.0850638 -73.15101640000003 0
endloop
endfacet
facet normal 0.95105651629515 0.30901699437495833 0
outer loop
vertex 189.79858929156242 -72.26933852156134 4
vertex 190.0850638 -73.15101640000003 0
vertex 189.79858929156242 -72.26933852156132 0
endloop
endfacet
facet normal 0.5877852522924617 0.8090169943749558 0
outer loop
vertex 189.04858929156245 -71.72443162555727 4
vertex 189.79858929156242 -72.26933852156134 4
vertex 189.79858929156242 -72.26933852156132 0
endloop
endfacet
facet normal 0.5877852522924617 0.8090169943749558 0
outer loop
vertex 189.04858929156245 -71.72443162555727 4
vertex 189.79858929156242 -72.26933852156132 0
vertex 189.04858929156245 -71.72443162555727 0
endloop
endfacet
facet normal 0 1 0
outer loop
vertex 189.04858929156245 -71.72443162555727 4
vertex 189.04858929156245 -71.72443162555727 0
vertex 188.1215383084376 -71.72443162555727 0
endloop
endfacet
facet normal 0 1 0
outer loop
vertex 189.04858929156245 -71.72443162555727 4
vertex 188.1215383084376 -71.72443162555727 0
vertex 188.1215383084376 -71.72443162555727 4
endloop
endfacet
facet normal -0.5877852522924617 0.8090169943749558 0
outer loop
vertex 187.37153830843755 -72.26933852156134 4
vertex 188.1215383084376 -71.72443162555727 4
vertex 188.1215383084376 -71.72443162555727 0
endloop
endfacet
facet normal -0.5877852522924617 0.8090169943749558 0
outer loop
vertex 187.37153830843755 -72.26933852156134 4
vertex 188.1215383084376 -71.72443162555727 0
vertex 187.37153830843758 -72.26933852156132 0
endloop
endfacet
facet normal -0.9510565162951508 0.3090169943749563 0
outer loop
vertex 187.0850638 -73.15101639999997 4
vertex 187.37153830843755 -72.26933852156134 4
vertex 187.37153830843758 -72.26933852156132 0
endloop
endfacet
facet normal -0.9510565162951508 0.3090169943749563 0
outer loop
vertex 187.0850638 -73.15101639999997 4
vertex 187.37153830843758 -72.26933852156132 0
vertex 187.0850638 -73.15101640000003 0
endloop
endfacet
facet normal -0.9510565162951508 -0.3090169943749563 0
outer loop
vertex 187.3715383084376 -74.03269427843873 4
vertex 187.0850638 -73.15101639999997 4
vertex 187.0850638 -73.15101640000003 0
endloop
endfacet
facet normal -0.9510565162951508 -0.3090169943749563 0
outer loop
vertex 187.3715383084376 -74.03269427843873 4
vertex 187.0850638 -73.15101640000003 0
vertex 187.37153830843758 -74.03269427843873 0
endloop
endfacet
facet normal -0.5877852522924921 -0.8090169943749337 0
outer loop
vertex 188.12153830843758 -74.57760117444273 4
vertex 187.3715383084376 -74.03269427843873 4
vertex 187.37153830843758 -74.03269427843873 0
endloop
endfacet
facet normal -0.5877852522924921 -0.8090169943749337 0
outer loop
vertex 188.12153830843758 -74.57760117444273 4
vertex 187.37153830843758 -74.03269427843873 0
vertex 188.12153830843758 -74.57760117444273 0
endloop
endfacet
facet normal 0 -1 0
outer loop
vertex 189.04858929156242 -74.57760117444273 0
vertex 189.0485892915624 -74.57760117444273 4
vertex 188.12153830843758 -74.57760117444273 4
endloop
endfacet
facet normal 0 -1 0
outer loop
vertex 189.04858929156242 -74.57760117444273 0
vertex 188.12153830843758 -74.57760117444273 4
vertex 188.12153830843758 -74.57760117444273 0
endloop
endfacet
facet normal 0.5877852522924871 -0.8090169943749375 0
outer loop
vertex 189.79858929156242 -74.03269427843873 4
vertex 189.0485892915624 -74.57760117444273 4
vertex 189.04858929156242 -74.57760117444273 0
endloop
endfacet
facet normal 0.5877852522924871 -0.8090169943749375 0
outer loop
vertex 189.79858929156242 -74.03269427843873 4
vertex 189.04858929156242 -74.57760117444273 0
vertex 189.79858929156242 -74.03269427843873 0
endloop
endfacet
facet normal 0.9510565162951605 -0.3090169943749264 0
outer loop
vertex 183.2874944 -214.7568231 4
vertex 183.0010198915624 -215.63850097843869 4
vertex 183.0010198915624 -215.6385009784387 0
endloop
endfacet
facet normal 0.9510565162951605 -0.3090169943749264 0
outer loop
vertex 183.2874944 -214.7568231 4
vertex 183.0010198915624 -215.6385009784387 0
vertex 183.2874944 -214.75682310000005 0
endloop
endfacet
facet normal 0.9510565162951596 0.30901699437492847 0
outer loop
vertex 183.00101989156244 -213.87514522156124 4
vertex 183.2874944 -214.7568231 4
vertex 183.2874944 -214.75682310000005 0
endloop
endfacet
facet normal 0.9510565162951596 0.30901699437492847 0
outer loop
vertex 183.00101989156244 -213.87514522156124 4
vertex 183.2874944 -214.75682310000005 0
vertex 183.00101989156244 -213.87514522156124 0
endloop
endfacet
facet normal 0.5877852522924363 0.8090169943749742 0
outer loop
vertex 182.25101989156246 -213.33023832555727 4
vertex 183.00101989156244 -213.87514522156124 4
vertex 183.00101989156244 -213.87514522156124 0
endloop
endfacet
facet normal 0.5877852522924363 0.8090169943749742 0
outer loop
vertex 182.25101989156246 -213.33023832555727 4
vertex 183.00101989156244 -213.87514522156124 0
vertex 182.25101989156246 -213.33023832555727 0
endloop
endfacet
facet normal 0 1 0
outer loop
vertex 182.25101989156246 -213.33023832555727 4
vertex 182.25101989156246 -213.33023832555727 0
vertex 181.3239689084376 -213.33023832555727 0
endloop
endfacet
facet normal 0 1 0
outer loop
vertex 182.25101989156246 -213.33023832555727 4
vertex 181.3239689084376 -213.33023832555727 0
vertex 181.32396890843762 -213.33023832555727 4
endloop
endfacet
facet normal -0.5877852522924617 0.8090169943749558 0
outer loop
vertex 180.5739689084376 -213.87514522156124 4
vertex 181.32396890843762 -213.33023832555727 4
vertex 181.3239689084376 -213.33023832555727 0
endloop
endfacet
facet normal -0.5877852522924617 0.8090169943749558 0
outer loop
vertex 180.5739689084376 -213.87514522156124 4
vertex 181.3239689084376 -213.33023832555727 0
vertex 180.57396890843762 -213.87514522156124 0
endloop
endfacet
facet normal -0.9510565162951591 0.3090169943749306 0
outer loop
vertex 180.2874944 -214.7568231 4
vertex 180.5739689084376 -213.87514522156124 4
vertex 180.57396890843762 -213.87514522156124 0
endloop
endfacet
facet normal -0.9510565162951591 0.3090169943749306 0
outer loop
vertex 180.2874944 -214.7568231 4
vertex 180.57396890843762 -213.87514522156124 0
vertex 180.2874944 -214.75682310000005 0
endloop
endfacet
facet normal -0.9510565162951506 -0.3090169943749562 0
outer loop
vertex 180.5739689084376 -215.63850097843869 4
vertex 180.2874944 -214.7568231 4
vertex 180.2874944 -214.75682310000005 0
endloop
endfacet
facet normal -0.9510565162951506 -0.3090169943749562 0
outer loop
vertex 180.5739689084376 -215.63850097843869 4
vertex 180.2874944 -214.75682310000005 0
vertex 180.5739689084376 -215.6385009784387 0
endloop
endfacet
facet normal -0.5877852522924363 -0.8090169943749742 0
outer loop
vertex 181.32396890843762 -216.1834078744427 4
vertex 180.5739689084376 -215.63850097843869 4
vertex 180.5739689084376 -215.6385009784387 0
endloop
endfacet
facet normal -0.5877852522924363 -0.8090169943749742 0
outer loop
vertex 181.32396890843762 -216.1834078744427 4
vertex 180.5739689084376 -215.6385009784387 0
vertex 181.3239689084376 -216.1834078744427 0
endloop
endfacet
facet normal 0 -1 0
outer loop
vertex 182.25101989156246 -216.1834078744427 0
vertex 182.2510198915625 -216.1834078744427 4
vertex 181.32396890843762 -216.1834078744427 4
endloop
endfacet
facet normal 0 -1 0
outer loop
vertex 182.25101989156246 -216.1834078744427 0
vertex 181.32396890843762 -216.1834078744427 4
vertex 181.3239689084376 -216.1834078744427 0
endloop
endfacet
facet normal 0.5877852522924617 -0.8090169943749558 0
outer loop
vertex 183.0010198915624 -215.63850097843869 4
vertex 182.2510198915625 -216.1834078744427 4
vertex 182.25101989156246 -216.1834078744427 0
endloop
endfacet
facet normal 0.5877852522924617 -0.8090169943749558 0
outer loop
vertex 183.0010198915624 -215.63850097843869 4
vertex 182.25101989156246 -216.1834078744427 0
vertex 183.0010198915624 -215.6385009784387 0
endloop
endfacet
facet normal 0.9510565162951596 -0.30901699437492847 0
outer loop
vertex 111.5025666 -213.05939029999996 4
vertex 111.2160920915624 -213.9410681784387 4
vertex 111.21609209156239 -213.9410681784387 0
endloop
endfacet
facet normal 0.9510565162951596 -0.30901699437492847 0
outer loop
vertex 111.5025666 -213.05939029999996 4
vertex 111.21609209156239 -213.9410681784387 0
vertex 111.5025666 -213.05939029999996 0
endloop
endfacet
facet normal 0.9510565162951596 0.309016994374929 0
outer loop
vertex 111.21609209156243 -212.1777124215613 4
vertex 111.5025666 -213.05939029999996 4
vertex 111.5025666 -213.05939029999996 0
endloop
endfacet
facet normal 0.9510565162951596 0.309016994374929 0
outer loop
vertex 111.21609209156243 -212.1777124215613 4
vertex 111.5025666 -213.05939029999996 0
vertex 111.21609209156244 -212.17771242156132 0
endloop
endfacet
facet normal 0.5877852522924363 0.8090169943749742 0
outer loop
vertex 110.46609209156239 -211.63280552555727 4
vertex 111.21609209156243 -212.1777124215613 4
vertex 111.21609209156244 -212.17771242156132 0
endloop
endfacet
facet normal 0.5877852522924363 0.8090169943749742 0
outer loop
vertex 110.46609209156239 -211.63280552555727 4
vertex 111.21609209156244 -212.17771242156132 0
vertex 110.46609209156244 -211.63280552555727 0
endloop
endfacet
facet normal 0 1 0
outer loop
vertex 110.46609209156239 -211.63280552555727 4
vertex 110.46609209156244 -211.63280552555727 0
vertex 109.53904110843762 -211.63280552555727 0
endloop
endfacet
facet normal 0 1 0
outer loop
vertex 110.46609209156239 -211.63280552555727 4
vertex 109.53904110843762 -211.63280552555727 0
vertex 109.5390411084376 -211.63280552555727 4
endloop
endfacet
facet normal -0.5877852522924617 0.8090169943749558 0
outer loop
vertex 108.78904110843753 -212.1777124215613 4
vertex 109.5390411084376 -211.63280552555727 4
vertex 109.53904110843762 -211.63280552555727 0
endloop
endfacet
facet normal -0.5877852522924617 0.8090169943749558 0
outer loop
vertex 108.78904110843753 -212.1777124215613 4
vertex 109.53904110843762 -211.63280552555727 0
vertex 108.78904110843756 -212.17771242156132 0
endloop
endfacet
facet normal -0.9510565162951596 0.30901699437492847 0
outer loop
vertex 108.5025666 -213.05939029999996 4
vertex 108.78904110843753 -212.1777124215613 4
vertex 108.78904110843756 -212.17771242156132 0
endloop
endfacet
facet normal -0.9510565162951596 0.30901699437492847 0
outer loop
vertex 108.5025666 -213.05939029999996 4
vertex 108.78904110843756 -212.17771242156132 0
vertex 108.5025666 -213.05939029999996 0
endloop
endfacet
facet normal -0.9510565162951504 -0.3090169943749573 0
outer loop
vertex 108.78904110843759 -213.9410681784387 4
vertex 108.5025666 -213.05939029999996 4
vertex 108.5025666 -213.05939029999996 0
endloop
endfacet
facet normal -0.9510565162951504 -0.3090169943749573 0
outer loop
vertex 108.78904110843759 -213.9410681784387 4
vertex 108.5025666 -213.05939029999996 0
vertex 108.78904110843757 -213.9410681784387 0
endloop
endfacet
facet normal -0.5877852522924617 -0.8090169943749558 0
outer loop
vertex 109.53904110843759 -214.4859750744427 4
vertex 108.78904110843759 -213.9410681784387 4
vertex 108.78904110843757 -213.9410681784387 0
endloop
endfacet
facet normal -0.5877852522924617 -0.8090169943749558 0
outer loop
vertex 109.53904110843759 -214.4859750744427 4
vertex 108.78904110843757 -213.9410681784387 0
vertex 109.53904110843757 -214.4859750744427 0
endloop
endfacet
facet normal 0 -1 0
outer loop
vertex 110.46609209156244 -214.4859750744427 0
vertex 110.46609209156243 -214.4859750744427 4
vertex 109.53904110843759 -214.4859750744427 4
endloop
endfacet
facet normal 0 -1 0
outer loop
vertex 110.46609209156244 -214.4859750744427 0
vertex 109.53904110843759 -214.4859750744427 4
vertex 109.53904110843757 -214.4859750744427 0
endloop
endfacet
facet normal 0.5877852522924617 -0.8090169943749558 0
outer loop
vertex 111.2160920915624 -213.9410681784387 4
vertex 110.46609209156243 -214.4859750744427 4
vertex 110.46609209156244 -214.4859750744427 0
endloop
endfacet
facet normal 0.5877852522924617 -0.8090169943749558 0
outer loop
vertex 111.2160920915624 -213.9410681784387 4
vertex 110.46609209156244 -214.4859750744427 0
vertex 111.21609209156239 -213.9410681784387 0
endloop
endfacet
facet normal 0.9510565162951549 -0.3090169943749434 0
outer loop
vertex 39.79745270000001 -215.80478839999998 4
vertex 39.51097819156243 -216.6864662784387 4
vertex 39.5109781915624 -216.68646627843873 0
endloop
endfacet
facet normal 0.9510565162951549 -0.3090169943749434 0
outer loop
vertex 39.79745270000001 -215.80478839999998 4
vertex 39.5109781915624 -216.68646627843873 0
vertex 39.797452699999994 -215.8047884 0
endloop
endfacet
facet normal 0.9510565162951621 0.3090169943749215 0
outer loop
vertex 39.51097819156243 -214.92311052156128 4
vertex 39.79745270000001 -215.80478839999998 4
vertex 39.797452699999994 -215.8047884 0
endloop
endfacet
facet normal 0.9510565162951621 0.3090169943749215 0
outer loop
vertex 39.51097819156243 -214.92311052156128 4
vertex 39.797452699999994 -215.8047884 0
vertex 39.510978191562415 -214.92311052156126 0
endloop
endfacet
facet normal 0.5877852522924617 0.8090169943749558 0
outer loop
vertex 38.7609781915624 -214.37820362555726 4
vertex 39.51097819156243 -214.92311052156128 4
vertex 39.510978191562415 -214.92311052156126 0
endloop
endfacet
facet normal 0.5877852522924617 0.8090169943749558 0
outer loop
vertex 38.7609781915624 -214.37820362555726 4
vertex 39.510978191562415 -214.92311052156126 0
vertex 38.76097819156246 -214.37820362555726 0
endloop
endfacet
facet normal 5.684341886080802e-14 1 0
outer loop
vertex 37.833927208437586 -214.37820362555726 4
vertex 38.7609781915624 -214.37820362555726 4
vertex 38.76097819156246 -214.37820362555726 0
endloop
endfacet
facet normal 5.684341886080802e-14 1 0
outer loop
vertex 37.833927208437586 -214.37820362555726 4
vertex 38.76097819156246 -214.37820362555726 0
vertex 37.83392720843756 -214.37820362555726 0
endloop
endfacet
facet normal -0.5877852522924617 0.8090169943749558 0
outer loop
vertex 37.083927208437586 -214.92311052156128 4
vertex 37.833927208437586 -214.37820362555726 4
vertex 37.83392720843756 -214.37820362555726 0
endloop
endfacet
facet normal -0.5877852522924617 0.8090169943749558 0
outer loop
vertex 37.083927208437586 -214.92311052156128 4
vertex 37.83392720843756 -214.37820362555726 0
vertex 37.0839272084376 -214.92311052156126 0
endloop
endfacet
facet normal -0.9510565162951504 0.30901699437495733 0
outer loop
vertex 36.79745270000001 -215.80478839999998 4
vertex 37.083927208437586 -214.92311052156128 4
vertex 37.0839272084376 -214.92311052156126 0
endloop
endfacet
facet normal -0.9510565162951504 0.30901699437495733 0
outer loop
vertex 36.79745270000001 -215.80478839999998 4
vertex 37.0839272084376 -214.92311052156126 0
vertex 36.79745270000001 -215.8047884 0
endloop
endfacet
facet normal -0.9510565162951552 -0.30901699437494295 0
outer loop
vertex 37.08392720843757 -216.6864662784387 4
vertex 36.79745270000001 -215.80478839999998 4
vertex 36.79745270000001 -215.8047884 0
endloop
endfacet
facet normal -0.9510565162951552 -0.30901699437494295 0
outer loop
vertex 37.08392720843757 -216.6864662784387 4
vertex 36.79745270000001 -215.8047884 0
vertex 37.083927208437586 -216.68646627843873 0
endloop
endfacet
facet normal -0.5877852522924363 -0.8090169943749742 0
outer loop
vertex 37.833927208437586 -217.23137317444272 4
vertex 37.08392720843757 -216.6864662784387 4
vertex 37.083927208437586 -216.68646627843873 0
endloop
endfacet
facet normal -0.5877852522924363 -0.8090169943749742 0
outer loop
vertex 37.833927208437586 -217.23137317444272 4
vertex 37.083927208437586 -216.68646627843873 0
vertex 37.833927208437586 -217.23137317444275 0
endloop
endfacet
facet normal -5.684341886080802e-14 -1 0
outer loop
vertex 38.7609781915624 -217.23137317444272 4
vertex 37.833927208437586 -217.23137317444272 4
vertex 37.833927208437586 -217.23137317444275 0
endloop
endfacet
facet normal -5.684341886080802e-14 -1 0
outer loop
vertex 38.7609781915624 -217.23137317444272 4
vertex 37.833927208437586 -217.23137317444275 0
vertex 38.76097819156246 -217.23137317444275 0
endloop
endfacet
facet normal 0.587785252292487 -0.8090169943749375 0
outer loop
vertex 39.51097819156243 -216.6864662784387 4
vertex 38.7609781915624 -217.23137317444272 4
vertex 38.76097819156246 -217.23137317444275 0
endloop
endfacet
facet normal 0.587785252292487 -0.8090169943749375 0
outer loop
vertex 39.51097819156243 -216.6864662784387 4
vertex 38.76097819156246 -217.23137317444275 0
vertex 39.5109781915624 -216.68646627843873 0
endloop
endfacet
endsolid csg.js
