solid csg.js
facet normal 0 0 -1
outer loop
vertex 110.50256660000001 -53.6281403 0
vertex 110.50256659431331 -61.82234270000001 0
vertex 109.5025666 -61.82234270000001 0
endloop
endfacet
facet normal 0 0 -1
outer loop
vertex 110.50256660000001 -53.6281403 0
vertex 109.5025666 -61.82234270000001 0
vertex 109.5025666 -53.6281403 0
endloop
endfacet
facet normal 0 0 -1
outer loop
vertex 31.208679606350728 -61.16941080391521 0
vertex 32.13878230000002 -61.50794049921434 0
vertex 32.89700896288909 -62.14416821239337 0
endloop
endfacet
facet normal 0 0 -1
outer loop
vertex 31.208679606350728 -61.16941080391521 0
vertex 32.89700896288909 -62.14416821239337 0
vertex 33.39190626923984 -63.00135549152185 0
endloop
endfacet
facet normal 0 0 -1
outer loop
vertex 31.208679606350728 -61.16941080391521 0
vertex 33.39190626923984 -63.00135549152185 0
vertex 33.563782300000014 -63.976112900000004 0
endloop
endfacet
facet normal 0 0 -1
outer loop
vertex 31.208679606350728 -61.16941080391521 0
vertex 33.563782300000014 -63.976112900000004 0
vertex 33.39190626923987 -64.95087030847816 0
endloop
endfacet
facet normal 0 0 -1
outer loop
vertex 31.208679606350728 -61.16941080391521 0
vertex 33.39190626923987 -64.95087030847816 0
vertex 32.897008962889075 -65.80805758760664 0
endloop
endfacet
facet normal 0 0 -1
outer loop
vertex 31.208679606350728 -61.16941080391521 0
vertex 32.897008962889075 -65.80805758760664 0
vertex 32.13878229999999 -66.44428530078565 0
endloop
endfacet
facet normal 0 0 -1
outer loop
vertex 31.208679606350728 -61.16941080391521 0
vertex 32.13878229999999 -66.44428530078565 0
vertex 31.208679606350728 -66.7828149960848 0
endloop
endfacet
facet normal 0 0 -1
outer loop
vertex 31.208679606350728 -61.16941080391521 0
vertex 31.208679606350728 -66.7828149960848 0
vertex 30.218884993649226 -66.7828149960848 0
endloop
endfacet
facet normal 0 0 -1
outer loop
vertex 31.208679606350728 -61.16941080391521 0
vertex 30.218884993649226 -66.7828149960848 0
vertex 29.28878230000001 -66.44428530078565 0
endloop
endfacet
facet normal 0 0 -1
outer loop
vertex 31.208679606350728 -61.16941080391521 0
vertex 29.28878230000001 -66.44428530078565 0
vertex 28.530555637110908 -65.80805758760664 0
endloop
endfacet
facet normal 0 0 -1
outer loop
vertex 31.208679606350728 -61.16941080391521 0
vertex 28.530555637110908 -65.80805758760664 0
vertex 28.035658330760157 -64.95087030847816 0
endloop
endfacet
facet normal 0 0 -1
outer loop
vertex 31.208679606350728 -61.16941080391521 0
vertex 28.035658330760157 -64.95087030847816 0
vertex 27.863782299999997 -63.976112900000004 0
endloop
endfacet
facet normal 0 0 -1
outer loop
vertex 31.208679606350728 -61.16941080391521 0
vertex 27.863782299999997 -63.976112900000004 0
vertex 28.035658330760157 -63.00135549152185 0
endloop
endfacet
facet normal 0 0 -1
outer loop
vertex 31.208679606350728 -61.16941080391521 0
vertex 28.035658330760157 -63.00135549152185 0
vertex 28.530555637110908 -62.14416821239337 0
endloop
endfacet
facet normal 0 0 -1
outer loop
vertex 31.208679606350728 -61.16941080391521 0
vertex 28.530555637110908 -62.14416821239337 0
vertex 29.288782300000022 -61.50794049921434 0
endloop
endfacet
facet normal 0 0 -1
outer loop
vertex 31.208679606350728 -61.16941080391521 0
vertex 29.288782300000022 -61.50794049921434 0
vertex 30.21888499364927 -61.16941080391521 0
endloop
endfacet
facet normal 0 0 -1
outer loop
vertex 110.50256659431331 -61.82234270000001 0
vertex 111.43152472049323 -62.16225735673679 0
vertex 112.18833844709206 -62.799233131098376 0
endloop
endfacet
facet normal 0 0 -1
outer loop
vertex 110.50256659431331 -61.82234270000001 0
vertex 112.18833844709206 -62.799233131098376 0
vertex 112.68183558180269 -63.656534555291785 0
endloop
endfacet
facet normal 0 0 -1
outer loop
vertex 110.50256659431331 -61.82234270000001 0
vertex 112.68183558180269 -63.656534555291785 0
vertex 112.85256527947348 -64.63088383774905 0
endloop
endfacet
facet normal 0 0 -1
outer loop
vertex 110.50256659431331 -61.82234270000001 0
vertex 112.85256527947348 -64.63088383774905 0
vertex 112.67995999450967 -65.60490261040921 0
endloop
endfacet
facet normal 0 0 -1
outer loop
vertex 110.50256659431331 -61.82234270000001 0
vertex 112.67995999450967 -65.60490261040921 0
vertex 112.18481322163902 -66.46125232122102 0
endloop
endfacet
facet normal 0 0 -1
outer loop
vertex 110.50256659431331 -61.82234270000001 0
vertex 112.18481322163902 -66.46125232122102 0
vertex 111.42677453539969 -67.09676983007219 0
endloop
endfacet
facet normal 0 0 -1
outer loop
vertex 110.50256659431331 -61.82234270000001 0
vertex 111.42677453539969 -67.09676983007219 0
vertex 110.4971636971133 -67.43489531451891 0
endloop
endfacet
facet normal 0 0 -1
outer loop
vertex 110.50256659431331 -61.82234270000001 0
vertex 110.4971636971133 -67.43489531451891 0
vertex 109.50796950288665 -67.43489531451891 0
endloop
endfacet
facet normal 0 0 -1
outer loop
vertex 110.50256659431331 -61.82234270000001 0
vertex 109.50796950288665 -67.43489531451891 0
vertex 108.57835866460034 -67.09676983007219 0
endloop
endfacet
facet normal 0 0 -1
outer loop
vertex 110.50256659431331 -61.82234270000001 0
vertex 108.57835866460034 -67.09676983007219 0
vertex 107.82031997836096 -66.46125232122102 0
endloop
endfacet
facet normal 0 0 -1
outer loop
vertex 110.50256659431331 -61.82234270000001 0
vertex 107.82031997836096 -66.46125232122102 0
vertex 107.3251732054903 -65.60490261040921 0
endloop
endfacet
facet normal 0 0 -1
outer loop
vertex 110.50256659431331 -61.82234270000001 0
vertex 107.3251732054903 -65.60490261040921 0
vertex 107.15256792052651 -64.63088383774905 0
endloop
endfacet
facet normal 0 0 -1
outer loop
vertex 110.50256659431331 -61.82234270000001 0
vertex 107.15256792052651 -64.63088383774905 0
vertex 107.32329761819732 -63.656534555291785 0
endloop
endfacet
facet normal 0 0 -1
outer loop
vertex 110.50256659431331 -61.82234270000001 0
vertex 107.32329761819732 -63.656534555291785 0
vertex 107.81679475290795 -62.799233131098376 0
endloop
endfacet
facet normal 0 0 -1
outer loop
vertex 110.50256659431331 -61.82234270000001 0
vertex 107.81679475290795 -62.799233131098376 0
vertex 108.5736084795067 -62.16225735673679 0
endloop
endfacet
facet normal 0 0 -1
outer loop
vertex 110.50256659431331 -61.82234270000001 0
vertex 108.5736084795067 -62.16225735673679 0
vertex 109.5025666 -61.82234270000001 0
endloop
endfacet
facet normal 0 0 -1
outer loop
vertex 192.7287394 -70.514266 0
vertex 192.43042450000002 -76.2064544 0
vertex 188.43590639921817 -75.99711057795545 0
endloop
endfacet
facet normal 0 0 -1
outer loop
vertex 192.7287394 -70.514266 0
vertex 188.43590639921817 -75.99711057795545 0
vertex 187.5637152041654 -75.81172063869069 0
endloop
endfacet
facet normal 0 0 -1
outer loop
vertex 192.7287394 -70.514266 0
vertex 187.5637152041654 -75.81172063869069 0
vertex 186.79150072803031 -75.36588242458629 0
endloop
endfacet
facet normal 0 0 -1
outer loop
vertex 192.7287394 -70.514266 0
vertex 186.79150072803031 -75.36588242458629 0
vertex 186.19485270573776 -74.70323768733816 0
endloop
endfacet
facet normal 0 0 -1
outer loop
vertex 192.7287394 -70.514266 0
vertex 186.19485270573776 -74.70323768733816 0
vertex 185.83217520408806 -73.88865071217509 0
endloop
endfacet
facet normal 0 0 -1
outer loop
vertex 192.7287394 -70.514266 0
vertex 185.83217520408806 -73.88865071217509 0
vertex 185.7389696246478 -73.00185894954443 0
endloop
endfacet
facet normal 0 0 -1
outer loop
vertex 192.7287394 -70.514266 0
vertex 185.7389696246478 -73.00185894954443 0
vertex 185.92435957913517 -72.12966775772743 0
endloop
endfacet
facet normal 0 0 -1
outer loop
vertex 192.7287394 -70.514266 0
vertex 185.92435957913517 -72.12966775772743 0
vertex 186.37019780671736 -71.35745328937355 0
endloop
endfacet
facet normal 0 0 -1
outer loop
vertex 192.7287394 -70.514266 0
vertex 186.37019780671736 -71.35745328937355 0
vertex 187.03284255437882 -70.76080527864643 0
endloop
endfacet
facet normal 0 0 -1
outer loop
vertex 192.7287394 -70.514266 0
vertex 187.03284255437882 -70.76080527864643 0
vertex 187.8474295358719 -70.39812779121391 0
endloop
endfacet
facet normal 0 0 -1
outer loop
vertex 192.7287394 -70.514266 0
vertex 187.8474295358719 -70.39812779121391 0
vertex 188.73422130000003 -70.3049222 0
endloop
endfacet
facet normal 0 0 -1
outer loop
vertex 182.28239170635084 -211.9501210039152 0
vertex 183.2124943999999 -212.2886506992143 0
vertex 183.97072106288914 -212.9248784123933 0
endloop
endfacet
facet normal 0 0 -1
outer loop
vertex 182.28239170635084 -211.9501210039152 0
vertex 183.97072106288914 -212.9248784123933 0
vertex 184.46561836923985 -213.78206569152195 0
endloop
endfacet
facet normal 0 0 -1
outer loop
vertex 182.28239170635084 -211.9501210039152 0
vertex 184.46561836923985 -213.78206569152195 0
vertex 184.6374944 -214.75682309999996 0
endloop
endfacet
facet normal 0 0 -1
outer loop
vertex 182.28239170635084 -211.9501210039152 0
vertex 184.6374944 -214.75682309999996 0
vertex 184.46561836923985 -215.73158050847817 0
endloop
endfacet
facet normal 0 0 -1
outer loop
vertex 182.28239170635084 -211.9501210039152 0
vertex 184.46561836923985 -215.73158050847817 0
vertex 183.97072106288917 -216.5887677876066 0
endloop
endfacet
facet normal 0 0 -1
outer loop
vertex 182.28239170635084 -211.9501210039152 0
vertex 183.97072106288917 -216.5887677876066 0
vertex 183.2124944 -217.22499550078567 0
endloop
endfacet
facet normal 0 0 -1
outer loop
vertex 182.28239170635084 -211.9501210039152 0
vertex 183.2124944 -217.22499550078567 0
vertex 182.28239170635078 -217.56352519608478 0
endloop
endfacet
facet normal 0 0 -1
outer loop
vertex 182.28239170635084 -211.9501210039152 0
vertex 182.28239170635078 -217.56352519608478 0
vertex 181.29259709364925 -217.56352519608478 0
endloop
endfacet
facet normal 0 0 -1
outer loop
vertex 182.28239170635084 -211.9501210039152 0
vertex 181.29259709364925 -217.56352519608478 0
vertex 180.36249440000006 -217.22499550078567 0
endloop
endfacet
facet normal 0 0 -1
outer loop
vertex 182.28239170635084 -211.9501210039152 0
vertex 180.36249440000006 -217.22499550078567 0
vertex 179.6042677371109 -216.5887677876066 0
endloop
endfacet
facet normal 0 0 -1
outer loop
vertex 182.28239170635084 -211.9501210039152 0
vertex 179.6042677371109 -216.5887677876066 0
vertex 179.10937043076018 -215.73158050847817 0
endloop
endfacet
facet normal 0 0 -1
outer loop
vertex 182.28239170635084 -211.9501210039152 0
vertex 179.10937043076018 -215.73158050847817 0
vertex 178.93749440000002 -214.75682309999996 0
endloop
endfacet
facet normal 0 0 -1
outer loop
vertex 182.28239170635084 -211.9501210039152 0
vertex 178.93749440000002 -214.75682309999996 0
vertex 179.10937043076015 -213.78206569152195 0
endloop
endfacet
facet normal 0 0 -1
outer loop
vertex 182.28239170635084 -211.9501210039152 0
vertex 179.10937043076015 -213.78206569152195 0
vertex 179.604267737111 -212.9248784123933 0
endloop
endfacet
facet normal 0 0 -1
outer loop
vertex 182.28239170635084 -211.9501210039152 0
vertex 179.604267737111 -212.9248784123933 0
vertex 180.36249440000006 -212.2886506992143 0
endloop
endfacet
facet normal 0 0 -1
outer loop
vertex 182.28239170635084 -211.9501210039152 0
vertex 180.36249440000006 -212.2886506992143 0
vertex 181.29259709364916 -211.9501210039152 0
endloop
endfacet
facet normal 0 0 -1
outer loop
vertex 38.79235000635077 -212.99808630391522 0
vertex 39.72245269999995 -213.33661599921436 0
vertex 40.48067936288912 -213.97284371239337 0
endloop
endfacet
facet normal 0 0 -1
outer loop
vertex 38.79235000635077 -212.99808630391522 0
vertex 40.48067936288912 -213.97284371239337 0
vertex 40.97557666923986 -214.83003099152188 0
endloop
endfacet
facet normal 0 0 -1
outer loop
vertex 38.79235000635077 -212.99808630391522 0
vertex 40.97557666923986 -214.83003099152188 0
vertex 41.14745270000002 -215.80478839999998 0
endloop
endfacet
facet normal 0 0 -1
outer loop
vertex 38.79235000635077 -212.99808630391522 0
vertex 41.14745270000002 -215.80478839999998 0
vertex 40.97557666923986 -216.7795458084782 0
endloop
endfacet
facet normal 0 0 -1
outer loop
vertex 38.79235000635077 -212.99808630391522 0
vertex 40.97557666923986 -216.7795458084782 0
vertex 40.48067936288909 -217.63673308760664 0
endloop
endfacet
facet normal 0 0 -1
outer loop
vertex 38.79235000635077 -212.99808630391522 0
vertex 40.48067936288909 -217.63673308760664 0
vertex 39.722452700000005 -218.27296080078563 0
endloop
endfacet
facet normal 0 0 -1
outer loop
vertex 38.79235000635077 -212.99808630391522 0
vertex 39.722452700000005 -218.27296080078563 0
vertex 38.79235000635073 -218.6114904960848 0
endloop
endfacet
facet normal 0 0 -1
outer loop
vertex 38.79235000635077 -212.99808630391522 0
vertex 38.79235000635073 -218.6114904960848 0
vertex 37.802555393649314 -218.6114904960848 0
endloop
endfacet
facet normal 0 0 -1
outer loop
vertex 38.79235000635077 -212.99808630391522 0
vertex 37.802555393649314 -218.6114904960848 0
vertex 36.87245270000005 -218.27296080078563 0
endloop
endfacet
facet normal 0 0 -1
outer loop
vertex 38.79235000635077 -212.99808630391522 0
vertex 36.87245270000005 -218.27296080078563 0
vertex 36.11422603711084 -217.63673308760664 0
endloop
endfacet
facet normal 0 0 -1
outer loop
vertex 38.79235000635077 -212.99808630391522 0
vertex 36.11422603711084 -217.63673308760664 0
vertex 35.61932873076016 -216.7795458084782 0
endloop
endfacet
facet normal 0 0 -1
outer loop
vertex 38.79235000635077 -212.99808630391522 0
vertex 35.61932873076016 -216.7795458084782 0
vertex 35.4474527 -215.80478839999998 0
endloop
endfacet
facet normal 0 0 -1
outer loop
vertex 38.79235000635077 -212.99808630391522 0
vertex 35.4474527 -215.80478839999998 0
vertex 35.61932873076016 -214.83003099152188 0
endloop
endfacet
facet normal 0 0 -1
outer loop
vertex 38.79235000635077 -212.99808630391522 0
vertex 35.61932873076016 -214.83003099152188 0
vertex 36.114226037110924 -213.97284371239337 0
endloop
endfacet
facet normal 0 0 -1
outer loop
vertex 38.79235000635077 -212.99808630391522 0
vertex 36.114226037110924 -213.97284371239337 0
vertex 36.87245270000001 -213.33661599921436 0
endloop
endfacet
facet normal 0 0 -1
outer loop
vertex 38.79235000635077 -212.99808630391522 0
vertex 36.87245270000001 -213.33661599921436 0
vertex 37.80255539364927 -212.99808630391522 0
endloop
endfacet
facet normal 0 0 -1
outer loop
vertex 110.8832650339686 -210.3488792285588 0
vertex 111.67775456903357 -210.7536918660314 0
vertex 112.30826503396861 -211.3842023309666 0
endloop
endfacet
facet normal 0 0 -1
outer loop
vertex 110.8832650339686 -210.3488792285588 0
vertex 112.30826503396861 -211.3842023309666 0
vertex 112.7130776714412 -212.17869186603136 0
endloop
endfacet
facet normal 0 0 -1
outer loop
vertex 110.8832650339686 -210.3488792285588 0
vertex 112.7130776714412 -212.17869186603136 0
vertex 112.8525666 -213.05939029999996 0
endloop
endfacet
facet normal 0 0 -1
outer loop
vertex 110.8832650339686 -210.3488792285588 0
vertex 112.8525666 -213.05939029999996 0
vertex 112.8525666 -223.0593903 0
endloop
endfacet
facet normal 0 0 -1
outer loop
vertex 110.8832650339686 -210.3488792285588 0
vertex 112.8525666 -223.0593903 0
vertex 107.1525666 -223.0593903 0
endloop
endfacet
facet normal 0 0 -1
outer loop
vertex 110.8832650339686 -210.3488792285588 0
vertex 107.1525666 -223.0593903 0
vertex 107.1525666 -213.05939029999996 0
endloop
endfacet
facet normal 0 0 -1
outer loop
vertex 110.8832650339686 -210.3488792285588 0
vertex 107.1525666 -213.05939029999996 0
vertex 107.2920555285588 -212.17869186603136 0
endloop
endfacet
facet normal 0 0 -1
outer loop
vertex 110.8832650339686 -210.3488792285588 0
vertex 107.2920555285588 -212.17869186603136 0
vertex 107.69686816603131 -211.3842023309666 0
endloop
endfacet
facet normal 0 0 -1
outer loop
vertex 110.8832650339686 -210.3488792285588 0
vertex 107.69686816603131 -211.3842023309666 0
vertex 108.32737863096649 -210.7536918660314 0
endloop
endfacet
facet normal 0 0 -1
outer loop
vertex 110.8832650339686 -210.3488792285588 0
vertex 108.32737863096649 -210.7536918660314 0
vertex 109.12186816603149 -210.3488792285588 0
endloop
endfacet
facet normal 0 0 -1
outer loop
vertex 110.8832650339686 -210.3488792285588 0
vertex 109.12186816603149 -210.3488792285588 0
vertex 110.00256659999984 -210.2093903 0
endloop
endfacet
facet normal 0 0 1
outer loop
vertex 38.7923500063507 -218.6114904960848 4
vertex 39.722452700000005 -218.27296080078565 4
vertex 40.48067936288909 -217.63673308760661 4
endloop
endfacet
facet normal 0 0 1
outer loop
vertex 38.7923500063507 -218.6114904960848 4
vertex 40.48067936288909 -217.63673308760661 4
vertex 40.97557666923984 -216.7795458084782 4
endloop
endfacet
facet normal 0 0 1
outer loop
vertex 38.7923500063507 -218.6114904960848 4
vertex 40.97557666923984 -216.7795458084782 4
vertex 41.1474527 -215.80478839999998 4
endloop
endfacet
facet normal 0 0 1
outer loop
vertex 38.7923500063507 -218.6114904960848 4
vertex 41.1474527 -215.80478839999998 4
vertex 40.97557666923983 -214.83003099152185 4
endloop
endfacet
facet normal 0 0 1
outer loop
vertex 38.7923500063507 -218.6114904960848 4
vertex 40.97557666923983 -214.83003099152185 4
vertex 40.48067936288906 -213.9728437123933 4
endloop
endfacet
facet normal 0 0 1
outer loop
vertex 38.7923500063507 -218.6114904960848 4
vertex 40.48067936288906 -213.9728437123933 4
vertex 39.72245270000005 -213.3366159992144 4
endloop
endfacet
facet normal 0 0 1
outer loop
vertex 38.7923500063507 -218.6114904960848 4
vertex 39.72245270000005 -213.3366159992144 4
vertex 38.79235000635073 -212.99808630391522 4
endloop
endfacet
facet normal 0 0 1
outer loop
vertex 38.7923500063507 -218.6114904960848 4
vertex 38.79235000635073 -212.99808630391522 4
vertex 37.8025553936492 -212.99808630391522 4
endloop
endfacet
facet normal 0 0 1
outer loop
vertex 38.7923500063507 -218.6114904960848 4
vertex 37.8025553936492 -212.99808630391522 4
vertex 36.87245270000004 -213.3366159992144 4
endloop
endfacet
facet normal 0 0 1
outer loop
vertex 38.7923500063507 -218.6114904960848 4
vertex 36.87245270000004 -213.3366159992144 4
vertex 36.114226037110924 -213.9728437123933 4
endloop
endfacet
facet normal 0 0 1
outer loop
vertex 38.7923500063507 -218.6114904960848 4
vertex 36.114226037110924 -213.9728437123933 4
vertex 35.61932873076016 -214.83003099152185 4
endloop
endfacet
facet normal 0 0 1
outer loop
vertex 38.7923500063507 -218.6114904960848 4
vertex 35.61932873076016 -214.83003099152185 4
vertex 35.4474527 -215.80478839999998 4
endloop
endfacet
facet normal 0 0 1
outer loop
vertex 38.7923500063507 -218.6114904960848 4
vertex 35.4474527 -215.80478839999998 4
vertex 35.619328730760174 -216.7795458084782 4
endloop
endfacet
facet normal 0 0 1
outer loop
vertex 38.7923500063507 -218.6114904960848 4
vertex 35.619328730760174 -216.7795458084782 4
vertex 36.114226037110896 -217.63673308760661 4
endloop
endfacet
facet normal 0 0 1
outer loop
vertex 38.7923500063507 -218.6114904960848 4
vertex 36.114226037110896 -217.63673308760661 4
vertex 36.872452700000025 -218.27296080078565 4
endloop
endfacet
facet normal 0 0 1
outer loop
vertex 38.7923500063507 -218.6114904960848 4
vertex 36.872452700000025 -218.27296080078565 4
vertex 37.802555393649286 -218.6114904960848 4
endloop
endfacet
facet normal 0 0 1
outer loop
vertex 182.2823917063508 -217.56352519608478 4
vertex 183.2124944 -217.2249955007856 4
vertex 183.97072106288914 -216.5887677876066 4
endloop
endfacet
facet normal 0 0 1
outer loop
vertex 182.2823917063508 -217.56352519608478 4
vertex 183.97072106288914 -216.5887677876066 4
vertex 184.46561836923988 -215.73158050847803 4
endloop
endfacet
facet normal 0 0 1
outer loop
vertex 182.2823917063508 -217.56352519608478 4
vertex 184.46561836923988 -215.73158050847803 4
vertex 184.6374944 -214.75682310000002 4
endloop
endfacet
facet normal 0 0 1
outer loop
vertex 182.2823917063508 -217.56352519608478 4
vertex 184.6374944 -214.75682310000002 4
vertex 184.46561836923985 -213.78206569152184 4
endloop
endfacet
facet normal 0 0 1
outer loop
vertex 182.2823917063508 -217.56352519608478 4
vertex 184.46561836923985 -213.78206569152184 4
vertex 183.9707210628891 -212.92487841239335 4
endloop
endfacet
facet normal 0 0 1
outer loop
vertex 182.2823917063508 -217.56352519608478 4
vertex 183.9707210628891 -212.92487841239335 4
vertex 183.21249439999997 -212.28865069921432 4
endloop
endfacet
facet normal 0 0 1
outer loop
vertex 182.2823917063508 -217.56352519608478 4
vertex 183.21249439999997 -212.28865069921432 4
vertex 182.2823917063508 -211.9501210039152 4
endloop
endfacet
facet normal 0 0 1
outer loop
vertex 182.2823917063508 -217.56352519608478 4
vertex 182.2823917063508 -211.9501210039152 4
vertex 181.29259709364925 -211.9501210039152 4
endloop
endfacet
facet normal 0 0 1
outer loop
vertex 182.2823917063508 -217.56352519608478 4
vertex 181.29259709364925 -211.9501210039152 4
vertex 180.36249440000006 -212.28865069921432 4
endloop
endfacet
facet normal 0 0 1
outer loop
vertex 182.2823917063508 -217.56352519608478 4
vertex 180.36249440000006 -212.28865069921432 4
vertex 179.60426773711097 -212.92487841239335 4
endloop
endfacet
facet normal 0 0 1
outer loop
vertex 182.2823917063508 -217.56352519608478 4
vertex 179.60426773711097 -212.92487841239335 4
vertex 179.10937043076018 -213.78206569152184 4
endloop
endfacet
facet normal 0 0 1
outer loop
vertex 182.2823917063508 -217.56352519608478 4
vertex 179.10937043076018 -213.78206569152184 4
vertex 178.93749440000005 -214.75682310000002 4
endloop
endfacet
facet normal 0 0 1
outer loop
vertex 182.2823917063508 -217.56352519608478 4
vertex 178.93749440000005 -214.75682310000002 4
vertex 179.10937043076024 -215.73158050847803 4
endloop
endfacet
facet normal 0 0 1
outer loop
vertex 182.2823917063508 -217.56352519608478 4
vertex 179.10937043076024 -215.73158050847803 4
vertex 179.6042677371109 -216.5887677876066 4
endloop
endfacet
facet normal 0 0 1
outer loop
vertex 182.2823917063508 -217.56352519608478 4
vertex 179.6042677371109 -216.5887677876066 4
vertex 180.36249439999997 -217.2249955007856 4
endloop
endfacet
facet normal 0 0 1
outer loop
vertex 182.2823917063508 -217.56352519608478 4
vertex 180.36249439999997 -217.2249955007856 4
vertex 181.29259709364928 -217.56352519608478 4
endloop
endfacet
facet normal 0 0 1
outer loop
vertex 112.8525666 -223.0593903 4
vertex 112.8525666 -213.0593902999999 4
vertex 112.71307767144116 -212.1786918660313 4
endloop
endfacet
facet normal 0 0 1
outer loop
vertex 112.8525666 -223.0593903 4
vertex 112.71307767144116 -212.1786918660313 4
vertex 112.30826503396857 -211.3842023309666 4
endloop
endfacet
facet normal 0 0 1
outer loop
vertex 112.8525666 -223.0593903 4
vertex 112.30826503396857 -211.3842023309666 4
vertex 111.67775456903364 -210.7536918660315 4
endloop
endfacet
facet normal 0 0 1
outer loop
vertex 112.8525666 -223.0593903 4
vertex 111.67775456903364 -210.7536918660315 4
vertex 110.88326503396857 -210.34887922855884 4
endloop
endfacet
facet normal 0 0 1
outer loop
vertex 112.8525666 -223.0593903 4
vertex 110.88326503396857 -210.34887922855884 4
vertex 110.00256659999982 -210.2093903 4
endloop
endfacet
facet normal 0 0 1
outer loop
vertex 112.8525666 -223.0593903 4
vertex 110.00256659999982 -210.2093903 4
vertex 109.12186816603136 -210.34887922855884 4
endloop
endfacet
facet normal 0 0 1
outer loop
vertex 112.8525666 -223.0593903 4
vertex 109.12186816603136 -210.34887922855884 4
vertex 108.32737863096659 -210.7536918660315 4
endloop
endfacet
facet normal 0 0 1
outer loop
vertex 112.8525666 -223.0593903 4
vertex 108.32737863096659 -210.7536918660315 4
vertex 107.69686816603128 -211.3842023309666 4
endloop
endfacet
facet normal 0 0 1
outer loop
vertex 112.8525666 -223.0593903 4
vertex 107.69686816603128 -211.3842023309666 4
vertex 107.2920555285588 -212.1786918660313 4
endloop
endfacet
facet normal 0 0 1
outer loop
vertex 112.8525666 -223.0593903 4
vertex 107.2920555285588 -212.1786918660313 4
vertex 107.1525666 -213.0593902999999 4
endloop
endfacet
facet normal 0 0 1
outer loop
vertex 112.8525666 -223.0593903 4
vertex 107.1525666 -213.0593902999999 4
vertex 107.1525666 -223.0593903 4
endloop
endfacet
facet normal 0 0 1
outer loop
vertex 192.7287394 -70.514266 4
vertex 188.73422129999997 -70.3049222 4
vertex 187.84742953587187 -70.39812779121391 4
endloop
endfacet
facet normal 0 0 1
outer loop
vertex 192.7287394 -70.514266 4
vertex 187.84742953587187 -70.39812779121391 4
vertex 187.0328425543789 -70.76080527864637 4
endloop
endfacet
facet normal 0 0 1
outer loop
vertex 192.7287394 -70.514266 4
vertex 187.0328425543789 -70.76080527864637 4
vertex 186.37019780671727 -71.35745328937364 4
endloop
endfacet
facet normal 0 0 1
outer loop
vertex 192.7287394 -70.514266 4
vertex 186.37019780671727 -71.35745328937364 4
vertex 185.92435957913514 -72.12966775772739 4
endloop
endfacet
facet normal 0 0 1
outer loop
vertex 192.7287394 -70.514266 4
vertex 185.92435957913514 -72.12966775772739 4
vertex 185.7389696246478 -73.00185894954423 4
endloop
endfacet
facet normal 0 0 1
outer loop
vertex 192.7287394 -70.514266 4
vertex 185.7389696246478 -73.00185894954423 4
vertex 185.83217520408812 -73.88865071217523 4
endloop
endfacet
facet normal 0 0 1
outer loop
vertex 192.7287394 -70.514266 4
vertex 185.83217520408812 -73.88865071217523 4
vertex 186.19485270573776 -74.70323768733815 4
endloop
endfacet
facet normal 0 0 1
outer loop
vertex 192.7287394 -70.514266 4
vertex 186.19485270573776 -74.70323768733815 4
vertex 186.79150072803031 -75.3658824245863 4
endloop
endfacet
facet normal 0 0 1
outer loop
vertex 192.7287394 -70.514266 4
vertex 186.79150072803031 -75.3658824245863 4
vertex 187.56371520416533 -75.81172063869067 4
endloop
endfacet
facet normal 0 0 1
outer loop
vertex 192.7287394 -70.514266 4
vertex 187.56371520416533 -75.81172063869067 4
vertex 188.43590639921823 -75.99711057795547 4
endloop
endfacet
facet normal 0 0 1
outer loop
vertex 192.7287394 -70.514266 4
vertex 188.43590639921823 -75.99711057795547 4
vertex 192.4304245 -76.20645440000001 4
endloop
endfacet
facet normal 0 0 1
outer loop
vertex 110.49716369711331 -67.43489531451891 4
vertex 111.42677453539973 -67.09676983007223 4
vertex 112.18481322163898 -66.46125232122108 4
endloop
endfacet
facet normal 0 0 1
outer loop
vertex 110.49716369711331 -67.43489531451891 4
vertex 112.18481322163898 -66.46125232122108 4
vertex 112.67995999450966 -65.60490261040921 4
endloop
endfacet
facet normal 0 0 1
outer loop
vertex 110.49716369711331 -67.43489531451891 4
vertex 112.67995999450966 -65.60490261040921 4
vertex 112.85256527947348 -64.63088383774904 4
endloop
endfacet
facet normal 0 0 1
outer loop
vertex 110.49716369711331 -67.43489531451891 4
vertex 112.85256527947348 -64.63088383774904 4
vertex 112.68183558180269 -63.656534555291785 4
endloop
endfacet
facet normal 0 0 1
outer loop
vertex 110.49716369711331 -67.43489531451891 4
vertex 112.68183558180269 -63.656534555291785 4
vertex 112.18833844709202 -62.79923313109833 4
endloop
endfacet
facet normal 0 0 1
outer loop
vertex 110.49716369711331 -67.43489531451891 4
vertex 112.18833844709202 -62.79923313109833 4
vertex 111.43152472049326 -62.1622573567368 4
endloop
endfacet
facet normal 0 0 1
outer loop
vertex 110.49716369711331 -67.43489531451891 4
vertex 111.43152472049326 -62.1622573567368 4
vertex 110.50256651323593 -61.82234269999999 4
endloop
endfacet
facet normal 0 0 1
outer loop
vertex 110.49716369711331 -67.43489531451891 4
vertex 110.50256651323593 -61.82234269999999 4
vertex 109.50256660000001 -61.82234269999999 4
endloop
endfacet
facet normal 0 0 1
outer loop
vertex 110.49716369711331 -67.43489531451891 4
vertex 109.50256660000001 -61.82234269999999 4
vertex 108.57360847950673 -62.1622573567368 4
endloop
endfacet
facet normal 0 0 1
outer loop
vertex 110.49716369711331 -67.43489531451891 4
vertex 108.57360847950673 -62.1622573567368 4
vertex 107.81679475290794 -62.79923313109833 4
endloop
endfacet
facet normal 0 0 1
outer loop
vertex 110.49716369711331 -67.43489531451891 4
vertex 107.81679475290794 -62.79923313109833 4
vertex 107.32329761819732 -63.656534555291785 4
endloop
endfacet
facet normal 0 0 1
outer loop
vertex 110.49716369711331 -67.43489531451891 4
vertex 107.32329761819732 -63.656534555291785 4
vertex 107.15256792052651 -64.63088383774904 4
endloop
endfacet
facet normal 0 0 1
outer loop
vertex 110.49716369711331 -67.43489531451891 4
vertex 107.15256792052651 -64.63088383774904 4
vertex 107.3251732054903 -65.60490261040921 4
endloop
endfacet
facet normal 0 0 1
outer loop
vertex 110.49716369711331 -67.43489531451891 4
vertex 107.3251732054903 -65.60490261040921 4
vertex 107.82031997836093 -66.46125232122108 4
endloop
endfacet
facet normal 0 0 1
outer loop
vertex 110.49716369711331 -67.43489531451891 4
vertex 107.82031997836093 -66.46125232122108 4
vertex 108.57835866460034 -67.09676983007223 4
endloop
endfacet
facet normal 0 0 1
outer loop
vertex 110.49716369711331 -67.43489531451891 4
vertex 108.57835866460034 -67.09676983007223 4
vertex 109.50796950288661 -67.43489531451891 4
endloop
endfacet
facet normal 0 0 1
outer loop
vertex 31.20867960635077 -66.7828149960848 4
vertex 32.13878229999999 -66.44428530078567 4
vertex 32.89700896288909 -65.80805758760661 4
endloop
endfacet
facet normal 0 0 1
outer loop
vertex 31.20867960635077 -66.7828149960848 4
vertex 32.89700896288909 -65.80805758760661 4
vertex 33.39190626923984 -64.95087030847816 4
endloop
endfacet
facet normal 0 0 1
outer loop
vertex 31.20867960635077 -66.7828149960848 4
vertex 33.39190626923984 -64.95087030847816 4
vertex 33.5637823 -63.97611289999999 4
endloop
endfacet
facet normal 0 0 1
outer loop
vertex 31.20867960635077 -66.7828149960848 4
vertex 33.5637823 -63.97611289999999 4
vertex 33.39190626923984 -63.00135549152185 4
endloop
endfacet
facet normal 0 0 1
outer loop
vertex 31.20867960635077 -66.7828149960848 4
vertex 33.39190626923984 -63.00135549152185 4
vertex 32.89700896288909 -62.14416821239335 4
endloop
endfacet
facet normal 0 0 1
outer loop
vertex 31.20867960635077 -66.7828149960848 4
vertex 32.89700896288909 -62.14416821239335 4
vertex 32.13878229999999 -61.50794049921436 4
endloop
endfacet
facet normal 0 0 1
outer loop
vertex 31.20867960635077 -66.7828149960848 4
vertex 32.13878229999999 -61.50794049921436 4
vertex 31.208679606350742 -61.16941080391521 4
endloop
endfacet
facet normal 0 0 1
outer loop
vertex 31.20867960635077 -66.7828149960848 4
vertex 31.208679606350742 -61.16941080391521 4
vertex 30.21888499364924 -61.16941080391521 4
endloop
endfacet
facet normal 0 0 1
outer loop
vertex 31.20867960635077 -66.7828149960848 4
vertex 30.21888499364924 -61.16941080391521 4
vertex 29.288782299999994 -61.50794049921436 4
endloop
endfacet
facet normal 0 0 1
outer loop
vertex 31.20867960635077 -66.7828149960848 4
vertex 29.288782299999994 -61.50794049921436 4
vertex 28.530555637110908 -62.14416821239335 4
endloop
endfacet
facet normal 0 0 1
outer loop
vertex 31.20867960635077 -66.7828149960848 4
vertex 28.530555637110908 -62.14416821239335 4
vertex 28.035658330760157 -63.00135549152185 4
endloop
endfacet
facet normal 0 0 1
outer loop
vertex 31.20867960635077 -66.7828149960848 4
vertex 28.035658330760157 -63.00135549152185 4
vertex 27.863782299999997 -63.97611289999999 4
endloop
endfacet
facet normal 0 0 1
outer loop
vertex 31.20867960635077 -66.7828149960848 4
vertex 27.863782299999997 -63.97611289999999 4
vertex 28.035658330760157 -64.95087030847816 4
endloop
endfacet
facet normal 0 0 1
outer loop
vertex 31.20867960635077 -66.7828149960848 4
vertex 28.035658330760157 -64.95087030847816 4
vertex 28.530555637110908 -65.80805758760661 4
endloop
endfacet
facet normal 0 0 1
outer loop
vertex 31.20867960635077 -66.7828149960848 4
vertex 28.530555637110908 -65.80805758760661 4
vertex 29.288782300000022 -66.44428530078567 4
endloop
endfacet
facet normal 0 0 1
outer loop
vertex 31.20867960635077 -66.7828149960848 4
vertex 29.288782300000022 -66.44428530078567 4
vertex 30.218884993649226 -66.7828149960848 4
endloop
endfacet
facet normal 0 0 1
outer loop
vertex 110.50256651323593 -61.82234269999999 4
vertex 110.50256660000001 -53.6281403 4
vertex 109.5025666 -53.6281403 4
endloop
endfacet
facet normal 0 0 1
outer loop
vertex 110.50256651323593 -61.82234269999999 4
vertex 109.5025666 -53.6281403 4
vertex 109.50256660000001 -61.82234269999999 4
endloop
endfacet
facet normal 0.9876883405951371 0.15643446504023456 0
outer loop
vertex 112.71307767144116 -212.1786918660313 4
vertex 112.8525666 -213.0593902999999 4
vertex 112.8525666 -213.05939029999996 0
endloop
endfacet
facet normal 0.9876883405951371 0.15643446504023456 0
outer loop
vertex 112.71307767144116 -212.1786918660313 4
vertex 112.8525666 -213.05939029999996 0
vertex 112.7130776714412 -212.17869186603136 0
endloop
endfacet
facet normal 0.8910065241883655 0.45399049973955163 0
outer loop
vertex 112.30826503396857 -211.3842023309666 4
vertex 112.71307767144116 -212.1786918660313 4
vertex 112.7130776714412 -212.17869186603136 0
endloop
endfacet
facet normal 0.8910065241883655 0.45399049973955163 0
outer loop
vertex 112.30826503396857 -211.3842023309666 4
vertex 112.7130776714412 -212.17869186603136 0
vertex 112.30826503396861 -211.3842023309666 0
endloop
endfacet
facet normal 0.7071067811865333 0.7071067811865617 0
outer loop
vertex 111.67775456903364 -210.7536918660315 4
vertex 112.30826503396857 -211.3842023309666 4
vertex 112.30826503396861 -211.3842023309666 0
endloop
endfacet
facet normal 0.7071067811865333 0.7071067811865617 0
outer loop
vertex 111.67775456903364 -210.7536918660315 4
vertex 112.30826503396861 -211.3842023309666 0
vertex 111.67775456903357 -210.7536918660314 0
endloop
endfacet
facet normal 0.45399049973954597 0.8910065241883685 0
outer loop
vertex 110.88326503396857 -210.34887922855884 4
vertex 111.67775456903364 -210.7536918660315 4
vertex 111.67775456903357 -210.7536918660314 0
endloop
endfacet
facet normal 0.45399049973954597 0.8910065241883685 0
outer loop
vertex 110.88326503396857 -210.34887922855884 4
vertex 111.67775456903357 -210.7536918660314 0
vertex 110.8832650339686 -210.3488792285588 0
endloop
endfacet
facet normal 0.15643446504020628 0.9876883405951417 0
outer loop
vertex 110.00256659999982 -210.2093903 4
vertex 110.88326503396857 -210.34887922855884 4
vertex 110.8832650339686 -210.3488792285588 0
endloop
endfacet
facet normal 0.15643446504020628 0.9876883405951417 0
outer loop
vertex 110.00256659999982 -210.2093903 4
vertex 110.8832650339686 -210.3488792285588 0
vertex 110.00256659999984 -210.2093903 0
endloop
endfacet
facet normal -0.15643446504023512 0.9876883405951371 0
outer loop
vertex 109.12186816603136 -210.34887922855884 4
vertex 110.00256659999982 -210.2093903 4
vertex 110.00256659999984 -210.2093903 0
endloop
endfacet
facet normal -0.15643446504023512 0.9876883405951371 0
outer loop
vertex 109.12186816603136 -210.34887922855884 4
vertex 110.00256659999984 -210.2093903 0
vertex 109.12186816603149 -210.3488792285588 0
endloop
endfacet
facet normal -0.45399049973954597 0.8910065241883685 0
outer loop
vertex 108.32737863096659 -210.7536918660315 4
vertex 109.12186816603136 -210.34887922855884 4
vertex 109.12186816603149 -210.3488792285588 0
endloop
endfacet
facet normal -0.45399049973954597 0.8910065241883685 0
outer loop
vertex 108.32737863096659 -210.7536918660315 4
vertex 109.12186816603149 -210.3488792285588 0
vertex 108.32737863096649 -210.7536918660314 0
endloop
endfacet
facet normal -0.7071067811865618 0.7071067811865334 0
outer loop
vertex 107.69686816603128 -211.3842023309666 4
vertex 108.32737863096659 -210.7536918660315 4
vertex 108.32737863096649 -210.7536918660314 0
endloop
endfacet
facet normal -0.7071067811865618 0.7071067811865334 0
outer loop
vertex 107.69686816603128 -211.3842023309666 4
vertex 108.32737863096649 -210.7536918660314 0
vertex 107.69686816603131 -211.3842023309666 0
endloop
endfacet
facet normal -0.8910065241883685 0.4539904997395459 0
outer loop
vertex 107.2920555285588 -212.1786918660313 4
vertex 107.69686816603128 -211.3842023309666 4
vertex 107.69686816603131 -211.3842023309666 0
endloop
endfacet
facet normal -0.8910065241883685 0.4539904997395459 0
outer loop
vertex 107.2920555285588 -212.1786918660313 4
vertex 107.69686816603131 -211.3842023309666 0
vertex 107.2920555285588 -212.17869186603136 0
endloop
endfacet
facet normal -0.9876883405951371 0.15643446504023456 0
outer loop
vertex 107.1525666 -213.0593902999999 4
vertex 107.2920555285588 -212.1786918660313 4
vertex 107.2920555285588 -212.17869186603136 0
endloop
endfacet
facet normal -0.9876883405951371 0.15643446504023456 0
outer loop
vertex 107.1525666 -213.0593902999999 4
vertex 107.2920555285588 -212.17869186603136 0
vertex 107.1525666 -213.05939029999996 0
endloop
endfacet
facet normal -1 0 0
outer loop
vertex 107.1525666 -213.0593902999999 4
vertex 107.1525666 -213.05939029999996 0
vertex 107.1525666 -223.0593903 0
endloop
endfacet
facet normal -1 0 0
outer loop
vertex 107.1525666 -213.0593902999999 4
vertex 107.1525666 -223.0593903 0
vertex 107.1525666 -223.0593903 4
endloop
endfacet
facet normal 0 -1 0
outer loop
vertex 112.8525666 -223.0593903 0
vertex 112.8525666 -223.0593903 4
vertex 107.1525666 -223.0593903 4
endloop
endfacet
facet normal 0 -1 0
outer loop
vertex 112.8525666 -223.0593903 0
vertex 107.1525666 -223.0593903 4
vertex 107.1525666 -223.0593903 0
endloop
endfacet
facet normal 1 0 0
outer loop
vertex 112.8525666 -213.05939029999996 0
vertex 112.8525666 -213.0593902999999 4
vertex 112.8525666 -223.0593903 4
endloop
endfacet
facet normal 1 0 0
outer loop
vertex 112.8525666 -213.05939029999996 0
vertex 112.8525666 -223.0593903 4
vertex 112.8525666 -223.0593903 0
endloop
endfacet
facet normal -0.34362783066531344 0.9391059120207107 0
outer loop
vertex 108.57360847950673 -62.1622573567368 4
vertex 109.50256660000001 -61.82234269999999 4
vertex 109.5025666 -61.82234270000001 0
endloop
endfacet
facet normal -0.34362783066531344 0.9391059120207107 0
outer loop
vertex 108.57360847950673 -62.1622573567368 4
vertex 109.5025666 -61.82234270000001 0
vertex 108.5736084795067 -62.16225735673679 0
endloop
endfacet
facet normal -0.6439340000974203 0.7650810437584606 0
outer loop
vertex 107.81679475290794 -62.79923313109833 4
vertex 108.57360847950673 -62.1622573567368 4
vertex 108.5736084795067 -62.16225735673679 0
endloop
endfacet
facet normal -0.6439340000974203 0.7650810437584606 0
outer loop
vertex 107.81679475290794 -62.79923313109833 4
vertex 108.5736084795067 -62.16225735673679 0
vertex 107.81679475290795 -62.799233131098376 0
endloop
endfacet
facet normal -0.8666664535608889 0.49888802177662234 0
outer loop
vertex 107.32329761819732 -63.656534555291785 4
vertex 107.81679475290794 -62.79923313109833 4
vertex 107.81679475290795 -62.799233131098376 0
endloop
endfacet
facet normal -0.8666664535608889 0.49888802177662234 0
outer loop
vertex 107.32329761819732 -63.656534555291785 4
vertex 107.81679475290795 -62.799233131098376 0
vertex 107.32329761819732 -63.656534555291785 0
endloop
endfacet
facet normal -0.9849929246895672 0.1725947227220245 0
outer loop
vertex 107.15256792052651 -64.63088383774904 4
vertex 107.32329761819732 -63.656534555291785 4
vertex 107.32329761819732 -63.656534555291785 0
endloop
endfacet
facet normal -0.9849929246895672 0.1725947227220245 0
outer loop
vertex 107.15256792052651 -64.63088383774904 4
vertex 107.32329761819732 -63.656534555291785 0
vertex 107.15256792052651 -64.63088383774905 0
endloop
endfacet
facet normal -0.9846588044540435 -0.17449079864317713 0
outer loop
vertex 107.3251732054903 -65.60490261040921 4
vertex 107.15256792052651 -64.63088383774904 4
vertex 107.15256792052651 -64.63088383774905 0
endloop
endfacet
facet normal -0.9846588044540435 -0.17449079864317713 0
outer loop
vertex 107.3251732054903 -65.60490261040921 4
vertex 107.15256792052651 -64.63088383774905 0
vertex 107.3251732054903 -65.60490261040921 0
endloop
endfacet
facet normal -0.865704343808163 -0.5005556803310478 0
outer loop
vertex 107.82031997836093 -66.46125232122108 4
vertex 107.3251732054903 -65.60490261040921 4
vertex 107.3251732054903 -65.60490261040921 0
endloop
endfacet
facet normal -0.865704343808163 -0.5005556803310478 0
outer loop
vertex 107.82031997836093 -66.46125232122108 4
vertex 107.3251732054903 -65.60490261040921 0
vertex 107.82031997836096 -66.46125232122102 0
endloop
endfacet
facet normal -0.6424598047180952 -0.7663193846703781 0
outer loop
vertex 108.57835866460034 -67.09676983007223 4
vertex 107.82031997836093 -66.46125232122108 4
vertex 107.82031997836096 -66.46125232122102 0
endloop
endfacet
facet normal -0.6424598047180952 -0.7663193846703781 0
outer loop
vertex 108.57835866460034 -67.09676983007223 4
vertex 107.82031997836096 -66.46125232122102 0
vertex 108.57835866460034 -67.09676983007219 0
endloop
endfacet
facet normal -0.3418191154175179 -0.9397657646111534 0
outer loop
vertex 109.50796950288661 -67.43489531451891 4
vertex 108.57835866460034 -67.09676983007223 4
vertex 108.57835866460034 -67.09676983007219 0
endloop
endfacet
facet normal -0.3418191154175179 -0.9397657646111534 0
outer loop
vertex 109.50796950288661 -67.43489531451891 4
vertex 108.57835866460034 -67.09676983007219 0
vertex 109.50796950288665 -67.43489531451891 0
endloop
endfacet
facet normal 0 -1 0
outer loop
vertex 110.4971636971133 -67.43489531451891 0
vertex 110.49716369711331 -67.43489531451891 4
vertex 109.50796950288661 -67.43489531451891 4
endloop
endfacet
facet normal 0 -1 0
outer loop
vertex 110.4971636971133 -67.43489531451891 0
vertex 109.50796950288661 -67.43489531451891 4
vertex 109.50796950288665 -67.43489531451891 0
endloop
endfacet
facet normal 0.34181911541752164 -0.9397657646111519 0
outer loop
vertex 111.42677453539973 -67.09676983007223 4
vertex 110.49716369711331 -67.43489531451891 4
vertex 110.4971636971133 -67.43489531451891 0
endloop
endfacet
facet normal 0.34181911541752164 -0.9397657646111519 0
outer loop
vertex 111.42677453539973 -67.09676983007223 4
vertex 110.4971636971133 -67.43489531451891 0
vertex 111.42677453539969 -67.09676983007219 0
endloop
endfacet
facet normal 0.6424598047180882 -0.766319384670384 0
outer loop
vertex 112.18481322163898 -66.46125232122108 4
vertex 111.42677453539973 -67.09676983007223 4
vertex 111.42677453539969 -67.09676983007219 0
endloop
endfacet
facet normal 0.6424598047180882 -0.766319384670384 0
outer loop
vertex 112.18481322163898 -66.46125232122108 4
vertex 111.42677453539969 -67.09676983007219 0
vertex 112.18481322163902 -66.46125232122102 0
endloop
endfacet
facet normal 0.8657043438081568 -0.5005556803310584 0
outer loop
vertex 112.67995999450966 -65.60490261040921 4
vertex 112.18481322163898 -66.46125232122108 4
vertex 112.18481322163902 -66.46125232122102 0
endloop
endfacet
facet normal 0.8657043438081568 -0.5005556803310584 0
outer loop
vertex 112.67995999450966 -65.60490261040921 4
vertex 112.18481322163902 -66.46125232122102 0
vertex 112.67995999450967 -65.60490261040921 0
endloop
endfacet
facet normal 0.9846588044540435 -0.17449079864317713 0
outer loop
vertex 112.85256527947348 -64.63088383774904 4
vertex 112.67995999450966 -65.60490261040921 4
vertex 112.67995999450967 -65.60490261040921 0
endloop
endfacet
facet normal 0.9846588044540435 -0.17449079864317713 0
outer loop
vertex 112.85256527947348 -64.63088383774904 4
vertex 112.67995999450967 -65.60490261040921 0
vertex 112.85256527947348 -64.63088383774905 0
endloop
endfacet
facet normal 0.9849929246895648 0.1725947227220389 0
outer loop
vertex 112.68183558180269 -63.656534555291785 4
vertex 112.85256527947348 -64.63088383774904 4
vertex 112.85256527947348 -64.63088383774905 0
endloop
endfacet
facet normal 0.9849929246895648 0.1725947227220389 0
outer loop
vertex 112.68183558180269 -63.656534555291785 4
vertex 112.85256527947348 -64.63088383774905 0
vertex 112.68183558180269 -63.656534555291785 0
endloop
endfacet
facet normal 0.8666664535608889 0.49888802177662234 0
outer loop
vertex 112.18833844709202 -62.79923313109833 4
vertex 112.68183558180269 -63.656534555291785 4
vertex 112.68183558180269 -63.656534555291785 0
endloop
endfacet
facet normal 0.8666664535608889 0.49888802177662234 0
outer loop
vertex 112.18833844709202 -62.79923313109833 4
vertex 112.68183558180269 -63.656534555291785 0
vertex 112.18833844709206 -62.799233131098376 0
endloop
endfacet
facet normal 0.6439340000974206 0.7650810437584604 0
outer loop
vertex 111.43152472049326 -62.1622573567368 4
vertex 112.18833844709202 -62.79923313109833 4
vertex 112.18833844709206 -62.799233131098376 0
endloop
endfacet
facet normal 0.6439340000974206 0.7650810437584604 0
outer loop
vertex 111.43152472049326 -62.1622573567368 4
vertex 112.18833844709206 -62.799233131098376 0
vertex 111.43152472049323 -62.16225735673679 0
endloop
endfacet
facet normal 0.3436278023604442 0.9391059223777323 0
outer loop
vertex 110.50256651323593 -61.82234269999999 4
vertex 111.43152472049326 -62.1622573567368 4
vertex 111.43152472049323 -62.16225735673679 0
endloop
endfacet
facet normal 0.3436278023604442 0.9391059223777323 0
outer loop
vertex 110.50256651323593 -61.82234269999999 4
vertex 111.43152472049323 -62.16225735673679 0
vertex 110.50256659431331 -61.82234270000001 0
endloop
endfacet
facet normal 1 -6.939870900168899e-10 0
outer loop
vertex 110.50256660000001 -53.6281403 4
vertex 110.50256651323593 -61.82234269999999 4
vertex 110.50256659431331 -61.82234270000001 0
endloop
endfacet
facet normal 1 -6.939870900168899e-10 0
outer loop
vertex 110.50256660000001 -53.6281403 4
vertex 110.50256659431331 -61.82234270000001 0
vertex 110.50256660000001 -53.6281403 0
endloop
endfacet
facet normal 0 1 0
outer loop
vertex 110.50256660000001 -53.6281403 4
vertex 110.50256660000001 -53.6281403 0
vertex 109.5025666 -53.6281403 0
endloop
endfacet
facet normal 0 1 0
outer loop
vertex 110.50256660000001 -53.6281403 4
vertex 109.5025666 -53.6281403 0
vertex 109.5025666 -53.6281403 4
endloop
endfacet
facet normal -1 0 0
outer loop
vertex 109.5025666 -53.6281403 4
vertex 109.5025666 -53.6281403 0
vertex 109.5025666 -61.82234270000001 0
endloop
endfacet
facet normal -1 0 0
outer loop
vertex 109.5025666 -53.6281403 4
vertex 109.5025666 -61.82234270000001 0
vertex 109.50256660000001 -61.82234269999999 4
endloop
endfacet
facet normal -0.10452848656738915 0.9945218929193722 0
outer loop
vertex 187.84742953587187 -70.39812779121391 4
vertex 188.73422129999997 -70.3049222 4
vertex 188.73422130000003 -70.3049222 0
endloop
endfacet
facet normal -0.10452848656738915 0.9945218929193722 0
outer loop
vertex 187.84742953587187 -70.39812779121391 4
vertex 188.73422130000003 -70.3049222 0
vertex 187.8474295358719 -70.39812779121391 0
endloop
endfacet
facet normal -0.40673663988693004 0.9135454590623774 0
outer loop
vertex 187.0328425543789 -70.76080527864637 4
vertex 187.84742953587187 -70.39812779121391 4
vertex 187.8474295358719 -70.39812779121391 0
endloop
endfacet
facet normal -0.40673663988693004 0.9135454590623774 0
outer loop
vertex 187.0328425543789 -70.76080527864637 4
vertex 187.8474295358719 -70.39812779121391 0
vertex 187.03284255437882 -70.76080527864643 0
endloop
endfacet
facet normal -0.6691306063588643 0.7431448254773887 0
outer loop
vertex 186.37019780671727 -71.35745328937364 4
vertex 187.0328425543789 -70.76080527864637 4
vertex 187.03284255437882 -70.76080527864643 0
endloop
endfacet
facet normal -0.6691306063588643 0.7431448254773887 0
outer loop
vertex 186.37019780671727 -71.35745328937364 4
vertex 187.03284255437882 -70.76080527864643 0
vertex 186.37019780671736 -71.35745328937355 0
endloop
endfacet
facet normal -0.866025405529764 0.4999999969770076 0
outer loop
vertex 185.92435957913514 -72.12966775772739 4
vertex 186.37019780671727 -71.35745328937364 4
vertex 186.37019780671736 -71.35745328937355 0
endloop
endfacet
facet normal -0.866025405529764 0.4999999969770076 0
outer loop
vertex 185.92435957913514 -72.12966775772739 4
vertex 186.37019780671736 -71.35745328937355 0
vertex 185.92435957913517 -72.12966775772743 0
endloop
endfacet
facet normal -0.978147602185301 0.2079116839890102 0
outer loop
vertex 185.7389696246478 -73.00185894954423 4
vertex 185.92435957913514 -72.12966775772739 4
vertex 185.92435957913517 -72.12966775772743 0
endloop
endfacet
facet normal -0.978147602185301 0.2079116839890102 0
outer loop
vertex 185.7389696246478 -73.00185894954423 4
vertex 185.92435957913517 -72.12966775772743 0
vertex 185.7389696246478 -73.00185894954443 0
endloop
endfacet
facet normal -0.9945218942736551 -0.10452847368225078 0
outer loop
vertex 185.83217520408812 -73.88865071217523 4
vertex 185.7389696246478 -73.00185894954423 4
vertex 185.7389696246478 -73.00185894954443 0
endloop
endfacet
facet normal -0.9945218942736551 -0.10452847368225078 0
outer loop
vertex 185.83217520408812 -73.88865071217523 4
vertex 185.7389696246478 -73.00185894954443 0
vertex 185.83217520408806 -73.88865071217509 0
endloop
endfacet
facet normal -0.9135454519634816 -0.4067366558313108 0
outer loop
vertex 186.19485270573776 -74.70323768733815 4
vertex 185.83217520408812 -73.88865071217523 4
vertex 185.83217520408806 -73.88865071217509 0
endloop
endfacet
facet normal -0.9135454519634816 -0.4067366558313108 0
outer loop
vertex 186.19485270573776 -74.70323768733815 4
vertex 185.83217520408806 -73.88865071217509 0
vertex 186.19485270573776 -74.70323768733816 0
endloop
endfacet
facet normal -0.7431448137988738 -0.6691306193291691 0
outer loop
vertex 186.79150072803031 -75.3658824245863 4
vertex 186.19485270573776 -74.70323768733815 4
vertex 186.19485270573776 -74.70323768733816 0
endloop
endfacet
facet normal -0.7431448137988738 -0.6691306193291691 0
outer loop
vertex 186.79150072803031 -75.3658824245863 4
vertex 186.19485270573776 -74.70323768733816 0
vertex 186.79150072803031 -75.36588242458629 0
endloop
endfacet
facet normal -0.4999999818620001 -0.8660254142564175 0
outer loop
vertex 187.56371520416533 -75.81172063869067 4
vertex 186.79150072803031 -75.3658824245863 4
vertex 186.79150072803031 -75.36588242458629 0
endloop
endfacet
facet normal -0.4999999818620001 -0.8660254142564175 0
outer loop
vertex 187.56371520416533 -75.81172063869067 4
vertex 186.79150072803031 -75.36588242458629 0
vertex 187.5637152041654 -75.81172063869069 0
endloop
endfacet
facet normal -0.20791166691711274 -0.9781476058140446 0
outer loop
vertex 188.43590639921823 -75.99711057795547 4
vertex 187.56371520416533 -75.81172063869067 4
vertex 187.5637152041654 -75.81172063869069 0
endloop
endfacet
facet normal -0.20791166691711274 -0.9781476058140446 0
outer loop
vertex 188.43590639921823 -75.99711057795547 4
vertex 187.5637152041654 -75.81172063869069 0
vertex 188.43590639921817 -75.99711057795545 0
endloop
endfacet
facet normal -0.052335956012740326 -0.9986295347666383 0
outer loop
vertex 192.4304245 -76.20645440000001 4
vertex 188.43590639921823 -75.99711057795547 4
vertex 188.43590639921817 -75.99711057795545 0
endloop
endfacet
facet normal -0.052335956012740326 -0.9986295347666383 0
outer loop
vertex 192.4304245 -76.20645440000001 4
vertex 188.43590639921817 -75.99711057795545 0
vertex 192.43042450000002 -76.2064544 0
endloop
endfacet
facet normal 0.9986295352433334 -0.05233594691685539 0
outer loop
vertex 192.7287394 -70.514266 4
vertex 192.4304245 -76.20645440000001 4
vertex 192.43042450000002 -76.2064544 0
endloop
endfacet
facet normal 0.9986295352433334 -0.05233594691685539 0
outer loop
vertex 192.7287394 -70.514266 4
vertex 192.43042450000002 -76.2064544 0
vertex 192.7287394 -70.514266 0
endloop
endfacet
facet normal 0.05233595052692409 0.9986295350541378 0
outer loop
vertex 188.73422129999997 -70.3049222 4
vertex 192.7287394 -70.514266 4
vertex 192.7287394 -70.514266 0
endloop
endfacet
facet normal 0.05233595052692409 0.9986295350541378 0
outer loop
vertex 188.73422129999997 -70.3049222 4
vertex 192.7287394 -70.514266 0
vertex 188.73422130000003 -70.3049222 0
endloop
endfacet
facet normal 0.9848077530122075 -0.17364817766693352 0
outer loop
vertex 33.5637823 -63.97611289999999 4
vertex 33.39190626923984 -64.95087030847816 4
vertex 33.39190626923987 -64.95087030847816 0
endloop
endfacet
facet normal 0.9848077530122075 -0.17364817766693352 0
outer loop
vertex 33.5637823 -63.97611289999999 4
vertex 33.39190626923987 -64.95087030847816 0
vertex 33.563782300000014 -63.976112900000004 0
endloop
endfacet
facet normal 0.9848077530122076 0.1736481776669337 0
outer loop
vertex 33.39190626923984 -63.00135549152185 4
vertex 33.5637823 -63.97611289999999 4
vertex 33.563782300000014 -63.976112900000004 0
endloop
endfacet
facet normal 0.9848077530122076 0.1736481776669337 0
outer loop
vertex 33.39190626923984 -63.00135549152185 4
vertex 33.563782300000014 -63.976112900000004 0
vertex 33.39190626923984 -63.00135549152185 0
endloop
endfacet
facet normal 0.866025403784441 0.499999999999996 0
outer loop
vertex 32.89700896288909 -62.14416821239335 4
vertex 33.39190626923984 -63.00135549152185 4
vertex 33.39190626923984 -63.00135549152185 0
endloop
endfacet
facet normal 0.866025403784441 0.499999999999996 0
outer loop
vertex 32.89700896288909 -62.14416821239335 4
vertex 33.39190626923984 -63.00135549152185 0
vertex 32.89700896288909 -62.14416821239337 0
endloop
endfacet
facet normal 0.6427876096865333 0.7660444431189831 0
outer loop
vertex 32.13878229999999 -61.50794049921436 4
vertex 32.89700896288909 -62.14416821239335 4
vertex 32.89700896288909 -62.14416821239337 0
endloop
endfacet
facet normal 0.6427876096865333 0.7660444431189831 0
outer loop
vertex 32.13878229999999 -61.50794049921436 4
vertex 32.89700896288909 -62.14416821239337 0
vertex 32.13878230000002 -61.50794049921434 0
endloop
endfacet
facet normal 0.34202014332566966 0.939692620785908 0
outer loop
vertex 31.208679606350742 -61.16941080391521 4
vertex 32.13878229999999 -61.50794049921436 4
vertex 32.13878230000002 -61.50794049921434 0
endloop
endfacet
facet normal 0.34202014332566966 0.939692620785908 0
outer loop
vertex 31.208679606350742 -61.16941080391521 4
vertex 32.13878230000002 -61.50794049921434 0
vertex 31.208679606350728 -61.16941080391521 0
endloop
endfacet
facet normal 0 1 0
outer loop
vertex 31.208679606350742 -61.16941080391521 4
vertex 31.208679606350728 -61.16941080391521 0
vertex 30.21888499364927 -61.16941080391521 0
endloop
endfacet
facet normal 0 1 0
outer loop
vertex 31.208679606350742 -61.16941080391521 4
vertex 30.21888499364927 -61.16941080391521 0
vertex 30.21888499364924 -61.16941080391521 4
endloop
endfacet
facet normal -0.3420201433256691 0.9396926207859082 0
outer loop
vertex 29.288782299999994 -61.50794049921436 4
vertex 30.21888499364924 -61.16941080391521 4
vertex 30.21888499364927 -61.16941080391521 0
endloop
endfacet
facet normal -0.3420201433256691 0.9396926207859082 0
outer loop
vertex 29.288782299999994 -61.50794049921436 4
vertex 30.21888499364927 -61.16941080391521 0
vertex 29.288782300000022 -61.50794049921434 0
endloop
endfacet
facet normal -0.6427876096865413 0.7660444431189765 0
outer loop
vertex 28.530555637110908 -62.14416821239335 4
vertex 29.288782299999994 -61.50794049921436 4
vertex 29.288782300000022 -61.50794049921434 0
endloop
endfacet
facet normal -0.6427876096865413 0.7660444431189765 0
outer loop
vertex 28.530555637110908 -62.14416821239335 4
vertex 29.288782300000022 -61.50794049921434 0
vertex 28.530555637110908 -62.14416821239337 0
endloop
endfacet
facet normal -0.8660254037844424 0.49999999999999367 0
outer loop
vertex 28.035658330760157 -63.00135549152185 4
vertex 28.530555637110908 -62.14416821239335 4
vertex 28.530555637110908 -62.14416821239337 0
endloop
endfacet
facet normal -0.8660254037844424 0.49999999999999367 0
outer loop
vertex 28.035658330760157 -63.00135549152185 4
vertex 28.530555637110908 -62.14416821239337 0
vertex 28.035658330760157 -63.00135549152185 0
endloop
endfacet
facet normal -0.9848077530122076 0.1736481776669337 0
outer loop
vertex 27.863782299999997 -63.97611289999999 4
vertex 28.035658330760157 -63.00135549152185 4
vertex 28.035658330760157 -63.00135549152185 0
endloop
endfacet
facet normal -0.9848077530122076 0.1736481776669337 0
outer loop
vertex 27.863782299999997 -63.97611289999999 4
vertex 28.035658330760157 -63.00135549152185 0
vertex 27.863782299999997 -63.976112900000004 0
endloop
endfacet
facet normal -0.9848077530122076 -0.1736481776669337 0
outer loop
vertex 28.035658330760157 -64.95087030847816 4
vertex 27.863782299999997 -63.97611289999999 4
vertex 27.863782299999997 -63.976112900000004 0
endloop
endfacet
facet normal -0.9848077530122076 -0.1736481776669337 0
outer loop
vertex 28.035658330760157 -64.95087030847816 4
vertex 27.863782299999997 -63.976112900000004 0
vertex 28.035658330760157 -64.95087030847816 0
endloop
endfacet
facet normal -0.8660254037844279 -0.5000000000000188 0
outer loop
vertex 28.530555637110908 -65.80805758760661 4
vertex 28.035658330760157 -64.95087030847816 4
vertex 28.035658330760157 -64.95087030847816 0
endloop
endfacet
facet normal -0.8660254037844279 -0.5000000000000188 0
outer loop
vertex 28.530555637110908 -65.80805758760661 4
vertex 28.035658330760157 -64.95087030847816 0
vertex 28.530555637110908 -65.80805758760664 0
endloop
endfacet
facet normal -0.6427876096865409 -0.7660444431189767 0
outer loop
vertex 29.288782300000022 -66.44428530078567 4
vertex 28.530555637110908 -65.80805758760661 4
vertex 28.530555637110908 -65.80805758760664 0
endloop
endfacet
facet normal -0.6427876096865409 -0.7660444431189767 0
outer loop
vertex 29.288782300000022 -66.44428530078567 4
vertex 28.530555637110908 -65.80805758760664 0
vertex 29.28878230000001 -66.44428530078565 0
endloop
endfacet
facet normal -0.3420201433256554 -0.9396926207859133 0
outer loop
vertex 30.218884993649226 -66.7828149960848 4
vertex 29.288782300000022 -66.44428530078567 4
vertex 29.28878230000001 -66.44428530078565 0
endloop
endfacet
facet normal -0.3420201433256554 -0.9396926207859133 0
outer loop
vertex 30.218884993649226 -66.7828149960848 4
vertex 29.28878230000001 -66.44428530078565 0
vertex 30.218884993649226 -66.7828149960848 0
endloop
endfacet
facet normal 0 -1 0
outer loop
vertex 31.208679606350728 -66.7828149960848 0
vertex 31.20867960635077 -66.7828149960848 4
vertex 30.218884993649226 -66.7828149960848 4
endloop
endfacet
facet normal 0 -1 0
outer loop
vertex 31.208679606350728 -66.7828149960848 0
vertex 30.218884993649226 -66.7828149960848 4
vertex 30.218884993649226 -66.7828149960848 0
endloop
endfacet
facet normal 0.3420201433256691 -0.9396926207859082 0
outer loop
vertex 32.13878229999999 -66.44428530078567 4
vertex 31.20867960635077 -66.7828149960848 4
vertex 31.208679606350728 -66.7828149960848 0
endloop
endfacet
facet normal 0.3420201433256691 -0.9396926207859082 0
outer loop
vertex 32.13878229999999 -66.44428530078567 4
vertex 31.208679606350728 -66.7828149960848 0
vertex 32.13878229999999 -66.44428530078565 0
endloop
endfacet
facet normal 0.6427876096865413 -0.7660444431189765 0
outer loop
vertex 32.89700896288909 -65.80805758760661 4
vertex 32.13878229999999 -66.44428530078567 4
vertex 32.13878229999999 -66.44428530078565 0
endloop
endfacet
facet normal 0.6427876096865413 -0.7660444431189765 0
outer loop
vertex 32.89700896288909 -65.80805758760661 4
vertex 32.13878229999999 -66.44428530078565 0
vertex 32.897008962889075 -65.80805758760664 0
endloop
endfacet
facet normal 0.8660254037844305 -0.5000000000000142 0
outer loop
vertex 33.39190626923984 -64.95087030847816 4
vertex 32.89700896288909 -65.80805758760661 4
vertex 32.897008962889075 -65.80805758760664 0
endloop
endfacet
facet normal 0.8660254037844305 -0.5000000000000142 0
outer loop
vertex 33.39190626923984 -64.95087030847816 4
vertex 32.897008962889075 -65.80805758760664 0
vertex 33.39190626923987 -64.95087030847816 0
endloop
endfacet
facet normal 0.9848077530122026 -0.17364817766696156 0
outer loop
vertex 184.6374944 -214.75682310000002 4
vertex 184.46561836923988 -215.73158050847803 4
vertex 184.46561836923985 -215.73158050847817 0
endloop
endfacet
facet normal 0.9848077530122026 -0.17364817766696156 0
outer loop
vertex 184.6374944 -214.75682310000002 4
vertex 184.46561836923985 -215.73158050847817 0
vertex 184.6374944 -214.75682309999996 0
endloop
endfacet
facet normal 0.9848077530122075 0.173648177666934 0
outer loop
vertex 184.46561836923985 -213.78206569152184 4
vertex 184.6374944 -214.75682310000002 4
vertex 184.6374944 -214.75682309999996 0
endloop
endfacet
facet normal 0.9848077530122075 0.173648177666934 0
outer loop
vertex 184.46561836923985 -213.78206569152184 4
vertex 184.6374944 -214.75682309999996 0
vertex 184.46561836923985 -213.78206569152195 0
endloop
endfacet
facet normal 0.8660254037844543 0.499999999999973 0
outer loop
vertex 183.9707210628891 -212.92487841239335 4
vertex 184.46561836923985 -213.78206569152184 4
vertex 184.46561836923985 -213.78206569152195 0
endloop
endfacet
facet normal 0.8660254037844543 0.499999999999973 0
outer loop
vertex 183.9707210628891 -212.92487841239335 4
vertex 184.46561836923985 -213.78206569152195 0
vertex 183.97072106288914 -212.9248784123933 0
endloop
endfacet
facet normal 0.6427876096865429 0.7660444431189749 0
outer loop
vertex 183.21249439999997 -212.28865069921432 4
vertex 183.9707210628891 -212.92487841239335 4
vertex 183.97072106288914 -212.9248784123933 0
endloop
endfacet
facet normal 0.6427876096865429 0.7660444431189749 0
outer loop
vertex 183.21249439999997 -212.28865069921432 4
vertex 183.97072106288914 -212.9248784123933 0
vertex 183.2124943999999 -212.2886506992143 0
endloop
endfacet
facet normal 0.34202014332567027 0.9396926207859078 0
outer loop
vertex 182.2823917063508 -211.9501210039152 4
vertex 183.21249439999997 -212.28865069921432 4
vertex 183.2124943999999 -212.2886506992143 0
endloop
endfacet
facet normal 0.34202014332567027 0.9396926207859078 0
outer loop
vertex 182.2823917063508 -211.9501210039152 4
vertex 183.2124943999999 -212.2886506992143 0
vertex 182.28239170635084 -211.9501210039152 0
endloop
endfacet
facet normal 0 1 0
outer loop
vertex 182.2823917063508 -211.9501210039152 4
vertex 182.28239170635084 -211.9501210039152 0
vertex 181.29259709364916 -211.9501210039152 0
endloop
endfacet
facet normal 0 1 0
outer loop
vertex 182.2823917063508 -211.9501210039152 4
vertex 181.29259709364916 -211.9501210039152 0
vertex 181.29259709364925 -211.9501210039152 4
endloop
endfacet
facet normal -0.3420201433256702 0.9396926207859079 0
outer loop
vertex 180.36249440000006 -212.28865069921432 4
vertex 181.29259709364925 -211.9501210039152 4
vertex 181.29259709364916 -211.9501210039152 0
endloop
endfacet
facet normal -0.3420201433256702 0.9396926207859079 0
outer loop
vertex 180.36249440000006 -212.28865069921432 4
vertex 181.29259709364916 -211.9501210039152 0
vertex 180.36249440000006 -212.2886506992143 0
endloop
endfacet
facet normal -0.6427876096865406 0.7660444431189769 0
outer loop
vertex 179.60426773711097 -212.92487841239335 4
vertex 180.36249440000006 -212.28865069921432 4
vertex 180.36249440000006 -212.2886506992143 0
endloop
endfacet
facet normal -0.6427876096865406 0.7660444431189769 0
outer loop
vertex 179.60426773711097 -212.92487841239335 4
vertex 180.36249440000006 -212.2886506992143 0
vertex 179.604267737111 -212.9248784123933 0
endloop
endfacet
facet normal -0.866025403784441 0.4999999999999959 0
outer loop
vertex 179.10937043076018 -213.78206569152184 4
vertex 179.60426773711097 -212.92487841239335 4
vertex 179.604267737111 -212.9248784123933 0
endloop
endfacet
facet normal -0.866025403784441 0.4999999999999959 0
outer loop
vertex 179.10937043076018 -213.78206569152184 4
vertex 179.604267737111 -212.9248784123933 0
vertex 179.10937043076015 -213.78206569152195 0
endloop
endfacet
facet normal -0.9848077530122075 0.173648177666934 0
outer loop
vertex 178.93749440000005 -214.75682310000002 4
vertex 179.10937043076018 -213.78206569152184 4
vertex 179.10937043076015 -213.78206569152195 0
endloop
endfacet
facet normal -0.9848077530122075 0.173648177666934 0
outer loop
vertex 178.93749440000005 -214.75682310000002 4
vertex 179.10937043076015 -213.78206569152195 0
vertex 178.93749440000002 -214.75682309999996 0
endloop
endfacet
facet normal -0.9848077530122075 -0.173648177666934 0
outer loop
vertex 179.10937043076024 -215.73158050847803 4
vertex 178.93749440000005 -214.75682310000002 4
vertex 178.93749440000002 -214.75682309999996 0
endloop
endfacet
facet normal -0.9848077530122075 -0.173648177666934 0
outer loop
vertex 179.10937043076024 -215.73158050847803 4
vertex 178.93749440000002 -214.75682309999996 0
vertex 179.10937043076018 -215.73158050847817 0
endloop
endfacet
facet normal -0.8660254037844543 -0.499999999999973 0
outer loop
vertex 179.6042677371109 -216.5887677876066 4
vertex 179.10937043076024 -215.73158050847803 4
vertex 179.10937043076018 -215.73158050847817 0
endloop
endfacet
facet normal -0.8660254037844543 -0.499999999999973 0
outer loop
vertex 179.6042677371109 -216.5887677876066 4
vertex 179.10937043076018 -215.73158050847817 0
vertex 179.6042677371109 -216.5887677876066 0
endloop
endfacet
facet normal -0.6427876096865336 -0.7660444431189828 0
outer loop
vertex 180.36249439999997 -217.2249955007856 4
vertex 179.6042677371109 -216.5887677876066 4
vertex 179.6042677371109 -216.5887677876066 0
endloop
endfacet
facet normal -0.6427876096865336 -0.7660444431189828 0
outer loop
vertex 180.36249439999997 -217.2249955007856 4
vertex 179.6042677371109 -216.5887677876066 0
vertex 180.36249440000006 -217.22499550078567 0
endloop
endfacet
facet normal -0.34202014332566794 -0.9396926207859086 0
outer loop
vertex 181.29259709364928 -217.56352519608478 4
vertex 180.36249439999997 -217.2249955007856 4
vertex 180.36249440000006 -217.22499550078567 0
endloop
endfacet
facet normal -0.34202014332566794 -0.9396926207859086 0
outer loop
vertex 181.29259709364928 -217.56352519608478 4
vertex 180.36249440000006 -217.22499550078567 0
vertex 181.29259709364925 -217.56352519608478 0
endloop
endfacet
facet normal 0 -1 0
outer loop
vertex 182.28239170635078 -217.56352519608478 0
vertex 182.2823917063508 -217.56352519608478 4
vertex 181.29259709364928 -217.56352519608478 4
endloop
endfacet
facet normal 0 -1 0
outer loop
vertex 182.28239170635078 -217.56352519608478 0
vertex 181.29259709364928 -217.56352519608478 4
vertex 181.29259709364925 -217.56352519608478 0
endloop
endfacet
facet normal 0.34202014332567027 -0.939692620785908 0
outer loop
vertex 183.2124944 -217.2249955007856 4
vertex 182.2823917063508 -217.56352519608478 4
vertex 182.28239170635078 -217.56352519608478 0
endloop
endfacet
facet normal 0.34202014332567027 -0.939692620785908 0
outer loop
vertex 183.2124944 -217.2249955007856 4
vertex 182.28239170635078 -217.56352519608478 0
vertex 183.2124944 -217.22499550078567 0
endloop
endfacet
facet normal 0.6427876096865406 -0.7660444431189769 0
outer loop
vertex 183.97072106288914 -216.5887677876066 4
vertex 183.2124944 -217.2249955007856 4
vertex 183.2124944 -217.22499550078567 0
endloop
endfacet
facet normal 0.6427876096865406 -0.7660444431189769 0
outer loop
vertex 183.97072106288914 -216.5887677876066 4
vertex 183.2124944 -217.22499550078567 0
vertex 183.97072106288917 -216.5887677876066 0
endloop
endfacet
facet normal 0.866025403784441 -0.4999999999999959 0
outer loop
vertex 184.46561836923988 -215.73158050847803 4
vertex 183.97072106288914 -216.5887677876066 4
vertex 183.97072106288917 -216.5887677876066 0
endloop
endfacet
facet normal 0.866025403784441 -0.4999999999999959 0
outer loop
vertex 184.46561836923988 -215.73158050847803 4
vertex 183.97072106288917 -216.5887677876066 0
vertex 184.46561836923985 -215.73158050847817 0
endloop
endfacet
facet normal 0.9848077530122076 -0.1736481776669337 0
outer loop
vertex 41.1474527 -215.80478839999998 4
vertex 40.97557666923984 -216.7795458084782 4
vertex 40.97557666923986 -216.7795458084782 0
endloop
endfacet
facet normal 0.9848077530122076 -0.1736481776669337 0
outer loop
vertex 41.1474527 -215.80478839999998 4
vertex 40.97557666923986 -216.7795458084782 0
vertex 41.14745270000002 -215.80478839999998 0
endloop
endfacet
facet normal 0.9848077530122075 0.17364817766693408 0
outer loop
vertex 40.97557666923983 -214.83003099152185 4
vertex 41.1474527 -215.80478839999998 4
vertex 41.14745270000002 -215.80478839999998 0
endloop
endfacet
facet normal 0.9848077530122075 0.17364817766693408 0
outer loop
vertex 40.97557666923983 -214.83003099152185 4
vertex 41.14745270000002 -215.80478839999998 0
vertex 40.97557666923986 -214.83003099152188 0
endloop
endfacet
facet normal 0.8660254037844424 0.49999999999999367 0
outer loop
vertex 40.48067936288906 -213.9728437123933 4
vertex 40.97557666923983 -214.83003099152185 4
vertex 40.97557666923986 -214.83003099152188 0
endloop
endfacet
facet normal 0.8660254037844424 0.49999999999999367 0
outer loop
vertex 40.48067936288906 -213.9728437123933 4
vertex 40.97557666923986 -214.83003099152188 0
vertex 40.48067936288912 -213.97284371239337 0
endloop
endfacet
facet normal 0.6427876096865336 0.7660444431189828 0
outer loop
vertex 39.72245270000005 -213.3366159992144 4
vertex 40.48067936288906 -213.9728437123933 4
vertex 40.48067936288912 -213.97284371239337 0
endloop
endfacet
facet normal 0.6427876096865336 0.7660444431189828 0
outer loop
vertex 39.72245270000005 -213.3366159992144 4
vertex 40.48067936288912 -213.97284371239337 0
vertex 39.72245269999995 -213.33661599921436 0
endloop
endfacet
facet normal 0.3420201433256702 0.9396926207859079 0
outer loop
vertex 38.79235000635073 -212.99808630391522 4
vertex 39.72245270000005 -213.3366159992144 4
vertex 39.72245269999995 -213.33661599921436 0
endloop
endfacet
facet normal 0.3420201433256702 0.9396926207859079 0
outer loop
vertex 38.79235000635073 -212.99808630391522 4
vertex 39.72245269999995 -213.33661599921436 0
vertex 38.79235000635077 -212.99808630391522 0
endloop
endfacet
facet normal 0 1 0
outer loop
vertex 38.79235000635073 -212.99808630391522 4
vertex 38.79235000635077 -212.99808630391522 0
vertex 37.80255539364927 -212.99808630391522 0
endloop
endfacet
facet normal 0 1 0
outer loop
vertex 38.79235000635073 -212.99808630391522 4
vertex 37.80255539364927 -212.99808630391522 0
vertex 37.8025553936492 -212.99808630391522 4
endloop
endfacet
facet normal -0.3420201433256702 0.9396926207859079 0
outer loop
vertex 36.87245270000004 -213.3366159992144 4
vertex 37.8025553936492 -212.99808630391522 4
vertex 37.80255539364927 -212.99808630391522 0
endloop
endfacet
facet normal -0.3420201433256702 0.9396926207859079 0
outer loop
vertex 36.87245270000004 -213.3366159992144 4
vertex 37.80255539364927 -212.99808630391522 0
vertex 36.87245270000001 -213.33661599921436 0
endloop
endfacet
facet normal -0.6427876096865406 0.7660444431189769 0
outer loop
vertex 36.114226037110924 -213.9728437123933 4
vertex 36.87245270000004 -213.3366159992144 4
vertex 36.87245270000001 -213.33661599921436 0
endloop
endfacet
facet normal -0.6427876096865406 0.7660444431189769 0
outer loop
vertex 36.114226037110924 -213.9728437123933 4
vertex 36.87245270000001 -213.33661599921436 0
vertex 36.114226037110924 -213.97284371239337 0
endloop
endfacet
facet normal -0.8660254037844313 0.5000000000000127 0
outer loop
vertex 35.61932873076016 -214.83003099152185 4
vertex 36.114226037110924 -213.9728437123933 4
vertex 36.114226037110924 -213.97284371239337 0
endloop
endfacet
facet normal -0.8660254037844313 0.5000000000000127 0
outer loop
vertex 35.61932873076016 -214.83003099152185 4
vertex 36.114226037110924 -213.97284371239337 0
vertex 35.61932873076016 -214.83003099152188 0
endloop
endfacet
facet normal -0.9848077530122076 0.1736481776669337 0
outer loop
vertex 35.4474527 -215.80478839999998 4
vertex 35.61932873076016 -214.83003099152185 4
vertex 35.61932873076016 -214.83003099152188 0
endloop
endfacet
facet normal -0.9848077530122076 0.1736481776669337 0
outer loop
vertex 35.4474527 -215.80478839999998 4
vertex 35.61932873076016 -214.83003099152188 0
vertex 35.4474527 -215.80478839999998 0
endloop
endfacet
facet normal -0.9848077530122075 -0.17364817766693408 0
outer loop
vertex 35.619328730760174 -216.7795458084782 4
vertex 35.4474527 -215.80478839999998 4
vertex 35.4474527 -215.80478839999998 0
endloop
endfacet
facet normal -0.9848077530122075 -0.17364817766693408 0
outer loop
vertex 35.619328730760174 -216.7795458084782 4
vertex 35.4474527 -215.80478839999998 0
vertex 35.61932873076016 -216.7795458084782 0
endloop
endfacet
facet normal -0.8660254037844393 -0.499999999999999 0
outer loop
vertex 36.114226037110896 -217.63673308760661 4
vertex 35.619328730760174 -216.7795458084782 4
vertex 35.61932873076016 -216.7795458084782 0
endloop
endfacet
facet normal -0.8660254037844393 -0.499999999999999 0
outer loop
vertex 36.114226037110896 -217.63673308760661 4
vertex 35.61932873076016 -216.7795458084782 0
vertex 36.11422603711084 -217.63673308760664 0
endloop
endfacet
facet normal -0.6427876096865406 -0.7660444431189769 0
outer loop
vertex 36.872452700000025 -218.27296080078565 4
vertex 36.114226037110896 -217.63673308760661 4
vertex 36.11422603711084 -217.63673308760664 0
endloop
endfacet
facet normal -0.6427876096865406 -0.7660444431189769 0
outer loop
vertex 36.872452700000025 -218.27296080078565 4
vertex 36.11422603711084 -217.63673308760664 0
vertex 36.87245270000005 -218.27296080078563 0
endloop
endfacet
facet normal -0.3420201433256702 -0.9396926207859079 0
outer loop
vertex 37.802555393649286 -218.6114904960848 4
vertex 36.872452700000025 -218.27296080078565 4
vertex 36.87245270000005 -218.27296080078563 0
endloop
endfacet
facet normal -0.3420201433256702 -0.9396926207859079 0
outer loop
vertex 37.802555393649286 -218.6114904960848 4
vertex 36.87245270000005 -218.27296080078563 0
vertex 37.802555393649314 -218.6114904960848 0
endloop
endfacet
facet normal 0 -1 0
outer loop
vertex 38.79235000635073 -218.6114904960848 0
vertex 38.7923500063507 -218.6114904960848 4
vertex 37.802555393649286 -218.6114904960848 4
endloop
endfacet
facet normal 0 -1 0
outer loop
vertex 38.79235000635073 -218.6114904960848 0
vertex 37.802555393649286 -218.6114904960848 4
vertex 37.802555393649314 -218.6114904960848 0
endloop
endfacet
facet normal 0.3420201433256702 -0.9396926207859079 0
outer loop
vertex 39.722452700000005 -218.27296080078565 4
vertex 38.7923500063507 -218.6114904960848 4
vertex 38.79235000635073 -218.6114904960848 0
endloop
endfacet
facet normal 0.3420201433256702 -0.9396926207859079 0
outer loop
vertex 39.722452700000005 -218.27296080078565 4
vertex 38.79235000635073 -218.6114904960848 0
vertex 39.722452700000005 -218.27296080078563 0
endloop
endfacet
facet normal 0.6427876096865336 -0.7660444431189828 0
outer loop
vertex 40.48067936288909 -217.63673308760661 4
vertex 39.722452700000005 -218.27296080078565 4
vertex 39.722452700000005 -218.27296080078563 0
endloop
endfacet
facet normal 0.6427876096865336 -0.7660444431189828 0
outer loop
vertex 40.48067936288909 -217.63673308760661 4
vertex 39.722452700000005 -218.27296080078563 0
vertex 40.48067936288909 -217.63673308760664 0
endloop
endfacet
facet normal 0.866025403784441 -0.4999999999999959 0
outer loop
vertex 40.97557666923984 -216.7795458084782 4
vertex 40.48067936288909 -217.63673308760661 4
vertex 40.48067936288909 -217.63673308760664 0
endloop
endfacet
facet normal 0.866025403784441 -0.4999999999999959 0
outer loop
vertex 40.97557666923984 -216.7795458084782 4
vertex 40.48067936288909 -217.63673308760664 0
vertex 40.97557666923986 -216.7795458084782 0
endloop
endfacet
endsolid csg.js
