solid csg.js
facet normal 0 0 -1
outer loop
vertex 110.14875120000019 -55.13477880000001 0
vertex 132.46799499999935 -56.14833784999996 0
vertex 132.49197067407013 -56.14953322886521 0
endloop
endfacet
facet normal 0 0 -1
outer loop
vertex 110.14875120000019 -55.13477880000001 0
vertex 132.49197067407013 -56.14953322886521 0
vertex 132.51593000000193 -56.15093570000012 0
endloop
endfacet
facet normal 0 0 -1
outer loop
vertex 110.14875120000019 -55.13477880000001 0
vertex 132.51593000000193 -56.15093570000012 0
vertex 154.92611755000175 -57.56091955000012 0
endloop
endfacet
facet normal 0 0 -1
outer loop
vertex 110.14875120000019 -55.13477880000001 0
vertex 154.92611755000175 -57.56091955000012 0
vertex 154.96012341621724 -57.56326888876902 0
endloop
endfacet
facet normal 0 0 -1
outer loop
vertex 110.14875120000019 -55.13477880000001 0
vertex 154.96012341621724 -57.56326888876902 0
vertex 154.99409510000112 -57.5660391000001 0
endloop
endfacet
facet normal 0 0 -1
outer loop
vertex 110.14875120000019 -55.13477880000001 0
vertex 154.99409510000112 -57.5660391000001 0
vertex 177.70791579999866 -59.56141919999989 0
endloop
endfacet
facet normal 0 0 -1
outer loop
vertex 110.14875120000019 -55.13477880000001 0
vertex 177.70791579999866 -59.56141919999989 0
vertex 52.51473743456315 -59.56141919999989 0
endloop
endfacet
facet normal 0 0 -1
outer loop
vertex 110.14875120000019 -55.13477880000001 0
vertex 52.51473743456315 -59.56141919999989 0
vertex 65.05854674999969 -58.26565470000003 0
endloop
endfacet
facet normal 0 0 -1
outer loop
vertex 110.14875120000019 -55.13477880000001 0
vertex 65.05854674999969 -58.26565470000003 0
vertex 65.0921279781117 -58.26238857731009 0
endloop
endfacet
facet normal 0 0 -1
outer loop
vertex 110.14875120000019 -55.13477880000001 0
vertex 65.0921279781117 -58.26238857731009 0
vertex 65.12574350000033 -58.259539399999966 0
endloop
endfacet
facet normal 0 0 -1
outer loop
vertex 110.14875120000019 -55.13477880000001 0
vertex 65.12574350000033 -58.259539399999966 0
vertex 87.5097393999998 -56.50107765000001 0
endloop
endfacet
facet normal 0 0 -1
outer loop
vertex 110.14875120000019 -55.13477880000001 0
vertex 87.5097393999998 -56.50107765000001 0
vertex 87.53367211314244 -56.4993031904916 0
endloop
endfacet
facet normal 0 0 -1
outer loop
vertex 110.14875120000019 -55.13477880000001 0
vertex 87.53367211314244 -56.4993031904916 0
vertex 87.55761879999876 -56.49773530000007 0
endloop
endfacet
facet normal 0 0 -1
outer loop
vertex 110.14875120000019 -55.13477880000001 0
vertex 87.55761879999876 -56.49773530000007 0
vertex 109.85649560000003 -55.13705440000001 0
endloop
endfacet
facet normal 0 0 -1
outer loop
vertex 110.14875120000019 -55.13477880000001 0
vertex 109.85649560000003 -55.13705440000001 0
vertex 110.00259528890115 -55.1320289957244 0
endloop
endfacet
facet normal 0 0 -1
outer loop
vertex 177.70791579999866 -59.56141919999989 0
vertex 177.75625591103775 -59.565235668769674 0
vertex 52.47779163422173 -59.565235668769674 0
endloop
endfacet
facet normal 0 0 -1
outer loop
vertex 177.70791579999866 -59.56141919999989 0
vertex 52.47779163422173 -59.565235668769674 0
vertex 52.51473743456315 -59.56141919999989 0
endloop
endfacet
facet normal 0 0 -1
outer loop
vertex 177.75625591103775 -59.565235668769674 0
vertex 177.80465160000116 -59.56819840000007 0
vertex 52.44911054625629 -59.56819840000007 0
endloop
endfacet
facet normal 0 0 -1
outer loop
vertex 177.75625591103775 -59.565235668769674 0
vertex 52.44911054625629 -59.56819840000007 0
vertex 52.47779163422173 -59.565235668769674 0
endloop
endfacet
facet normal 0 0 -1
outer loop
vertex 177.80465160000116 -59.56819840000007 0
vertex 189.51509299999998 -60.18191580000001 0
vertex 189.98978415358772 -60.248630518645285 0
endloop
endfacet
facet normal 0 0 -1
outer loop
vertex 177.80465160000116 -59.56819840000007 0
vertex 189.98978415358772 -60.248630518645285 0
vertex 190.44567880336714 -60.39676091147861 0
endloop
endfacet
facet normal 0 0 -1
outer loop
vertex 177.80465160000116 -59.56819840000007 0
vertex 190.44567880336714 -60.39676091147861 0
vertex 190.8400986995875 -60.60647890000001 0
endloop
endfacet
facet normal 0 0 -1
outer loop
vertex 177.80465160000116 -59.56819840000007 0
vertex 190.8400986995875 -60.60647890000001 0
vertex 42.39790709999984 -60.60647890000001 0
endloop
endfacet
facet normal 0 0 -1
outer loop
vertex 177.80465160000116 -59.56819840000007 0
vertex 42.39790709999984 -60.60647890000001 0
vertex 52.44911054625629 -59.56819840000007 0
endloop
endfacet
facet normal 0 0 -1
outer loop
vertex 190.8400986995875 -60.60647890000001 0
vertex 190.85189458756244 -60.61275092106851 0
vertex 42.32865182674177 -60.61275092106851 0
endloop
endfacet
facet normal 0 0 -1
outer loop
vertex 190.8400986995875 -60.60647890000001 0
vertex 42.32865182674177 -60.61275092106851 0
vertex 42.39790709999984 -60.60647890000001 0
endloop
endfacet
facet normal 0 0 -1
outer loop
vertex 190.85189458756244 -60.61275092106851 0
vertex 190.8604020590688 -60.617274450000025 0
vertex 42.25926354999984 -60.617274450000025 0
endloop
endfacet
facet normal 0 0 -1
outer loop
vertex 190.85189458756244 -60.61275092106851 0
vertex 42.25926354999984 -60.617274450000025 0
vertex 42.32865182674177 -60.61275092106851 0
endloop
endfacet
facet normal 0 0 -1
outer loop
vertex 190.8604020590688 -60.617274450000025 0
vertex 190.86892483259516 -60.62180611520682 0
vertex 191.24666213552007 -60.916928250868295 0
endloop
endfacet
facet normal 0 0 -1
outer loop
vertex 190.8604020590688 -60.617274450000025 0
vertex 191.24666213552007 -60.916928250868295 0
vertex 191.5674133648626 -61.27316018915238 0
endloop
endfacet
facet normal 0 0 -1
outer loop
vertex 190.8604020590688 -60.617274450000025 0
vertex 191.5674133648626 -61.27316018915238 0
vertex 191.82143266491593 -61.67967801185989 0
endloop
endfacet
facet normal 0 0 -1
outer loop
vertex 190.8604020590688 -60.617274450000025 0
vertex 191.82143266491593 -61.67967801185989 0
vertex 192.00100179419366 -62.12412989090723 0
endloop
endfacet
facet normal 0 0 -1
outer loop
vertex 190.8604020590688 -60.617274450000025 0
vertex 192.00100179419366 -62.12412989090723 0
vertex 192.10066464009753 -62.59301139206141 0
endloop
endfacet
facet normal 0 0 -1
outer loop
vertex 190.8604020590688 -60.617274450000025 0
vertex 192.10066464009753 -62.59301139206141 0
vertex 192.11739599999999 -63.072071600000285 0
endloop
endfacet
facet normal 0 0 -1
outer loop
vertex 190.8604020590688 -60.617274450000025 0
vertex 192.11739599999999 -63.072071600000285 0
vertex 186.79573610000003 -164.6152735499991 0
endloop
endfacet
facet normal 0 0 -1
outer loop
vertex 190.8604020590688 -60.617274450000025 0
vertex 186.79573610000003 -164.6152735499991 0
vertex 33.23428338094223 -164.6152735499991 0
endloop
endfacet
facet normal 0 0 -1
outer loop
vertex 190.8604020590688 -60.617274450000025 0
vertex 33.23428338094223 -164.6152735499991 0
vertex 27.967554149999998 -64.12004085000007 0
endloop
endfacet
facet normal 0 0 -1
outer loop
vertex 190.8604020590688 -60.617274450000025 0
vertex 27.967554149999998 -64.12004085000007 0
vertex 27.9842825099024 -63.640976442061614 0
endloop
endfacet
facet normal 0 0 -1
outer loop
vertex 190.8604020590688 -60.617274450000025 0
vertex 27.9842825099024 -63.640976442061614 0
vertex 28.08394535580632 -63.17209494090727 0
endloop
endfacet
facet normal 0 0 -1
outer loop
vertex 190.8604020590688 -60.617274450000025 0
vertex 28.08394535580632 -63.17209494090727 0
vertex 28.263514485084045 -62.727643061859936 0
endloop
endfacet
facet normal 0 0 -1
outer loop
vertex 190.8604020590688 -60.617274450000025 0
vertex 28.263514485084045 -62.727643061859936 0
vertex 28.51753378513743 -62.32112523915234 0
endloop
endfacet
facet normal 0 0 -1
outer loop
vertex 190.8604020590688 -60.617274450000025 0
vertex 28.51753378513743 -62.32112523915234 0
vertex 28.83828501447988 -61.96489330086834 0
endloop
endfacet
facet normal 0 0 -1
outer loop
vertex 190.8604020590688 -60.617274450000025 0
vertex 28.83828501447988 -61.96489330086834 0
vertex 29.216022317404864 -61.66977116520681 0
endloop
endfacet
facet normal 0 0 -1
outer loop
vertex 190.8604020590688 -60.617274450000025 0
vertex 29.216022317404864 -61.66977116520681 0
vertex 29.639268346632804 -61.44472596147861 0
endloop
endfacet
facet normal 0 0 -1
outer loop
vertex 190.8604020590688 -60.617274450000025 0
vertex 29.639268346632804 -61.44472596147861 0
vertex 30.095162996412284 -61.29659556864527 0
endloop
endfacet
facet normal 0 0 -1
outer loop
vertex 190.8604020590688 -60.617274450000025 0
vertex 30.095162996412284 -61.29659556864527 0
vertex 30.569858299999893 -61.22988170000002 0
endloop
endfacet
facet normal 0 0 -1
outer loop
vertex 190.8604020590688 -60.617274450000025 0
vertex 30.569858299999893 -61.22988170000002 0
vertex 42.25926354999984 -60.617274450000025 0
endloop
endfacet
facet normal 0 0 -1
outer loop
vertex 186.79573610000003 -164.6152735499991 0
vertex 186.7984585914819 -164.94798071532418 0
vertex 33.251719815545975 -164.94798071532418 0
endloop
endfacet
facet normal 0 0 -1
outer loop
vertex 186.79573610000003 -164.6152735499991 0
vertex 33.251719815545975 -164.94798071532418 0
vertex 33.23428338094223 -164.6152735499991 0
endloop
endfacet
facet normal 0 0 -1
outer loop
vertex 186.7984585914819 -164.94798071532418 0
vertex 186.84134116620595 -165.27792397499596 0
vertex 33.26901140006773 -165.27792397499596 0
endloop
endfacet
facet normal 0 0 -1
outer loop
vertex 186.7984585914819 -164.94798071532418 0
vertex 33.26901140006773 -165.27792397499596 0
vertex 33.251719815545975 -164.94798071532418 0
endloop
endfacet
facet normal 0 0 -1
outer loop
vertex 186.84134116620595 -165.27792397499596 0
vertex 186.9237521999999 -165.6002770999998 0
vertex 33.28590520269429 -165.6002770999998 0
endloop
endfacet
facet normal 0 0 -1
outer loop
vertex 186.84134116620595 -165.27792397499596 0
vertex 33.28590520269429 -165.6002770999998 0
vertex 33.26901140006773 -165.27792397499596 0
endloop
endfacet
facet normal 0 0 -1
outer loop
vertex 186.9237521999999 -165.6002770999998 0
vertex 186.94397761078324 -165.66323719999994 0
vertex 33.2892048 -165.66323719999994 0
endloop
endfacet
facet normal 0 0 -1
outer loop
vertex 186.9237521999999 -165.6002770999998 0
vertex 33.2892048 -165.66323719999994 0
vertex 33.28590520269429 -165.6002770999998 0
endloop
endfacet
facet normal 0 0 -1
outer loop
vertex 186.94397761078324 -165.66323719999994 0
vertex 187.05085748239705 -165.9959457653239 0
vertex 33.28648490851811 -165.9959457653239 0
endloop
endfacet
facet normal 0 0 -1
outer loop
vertex 186.94397761078324 -165.66323719999994 0
vertex 33.28648490851811 -165.9959457653239 0
vertex 33.2892048 -165.66323719999994 0
endloop
endfacet
facet normal 0 0 -1
outer loop
vertex 187.05085748239705 -165.9959457653239 0
vertex 187.15684902246826 -166.32588902499583 0
vertex 33.243602333794044 -166.32588902499583 0
endloop
endfacet
facet normal 0 0 -1
outer loop
vertex 187.05085748239705 -165.9959457653239 0
vertex 33.243602333794044 -166.32588902499583 0
vertex 33.28648490851811 -165.9959457653239 0
endloop
endfacet
facet normal 0 0 -1
outer loop
vertex 187.15684902246826 -166.32588902499583 0
vertex 187.2604011542195 -166.64823859999984 0
vertex 33.16118740000005 -166.64823859999984 0
endloop
endfacet
facet normal 0 0 -1
outer loop
vertex 187.15684902246826 -166.32588902499583 0
vertex 33.16118740000005 -166.64823859999984 0
vertex 33.243602333794044 -166.32588902499583 0
endloop
endfacet
facet normal 0 0 -1
outer loop
vertex 187.2604011542195 -166.64823859999984 0
vertex 193.49247180000012 -186.04818035000037 0
vertex 193.57868610400772 -186.39075100230463 0
endloop
endfacet
facet normal 0 0 -1
outer loop
vertex 187.2604011542195 -166.64823859999984 0
vertex 193.57868610400772 -186.39075100230463 0
vertex 193.62027485369438 -186.7415471452937 0
endloop
endfacet
facet normal 0 0 -1
outer loop
vertex 187.2604011542195 -166.64823859999984 0
vertex 193.62027485369438 -186.7415471452937 0
vertex 193.61655360000003 -187.0947806999998 0
endloop
endfacet
facet normal 0 0 -1
outer loop
vertex 187.2604011542195 -166.64823859999984 0
vertex 193.61655360000003 -187.0947806999998 0
vertex 191.90665755000003 -209.91028764999984 0
endloop
endfacet
facet normal 0 0 -1
outer loop
vertex 187.2604011542195 -166.64823859999984 0
vertex 191.90665755000003 -209.91028764999984 0
vertex 191.84742317201042 -210.30777404960094 0
endloop
endfacet
facet normal 0 0 -1
outer loop
vertex 187.2604011542195 -166.64823859999984 0
vertex 191.84742317201042 -210.30777404960094 0
vertex 191.7308892364284 -210.69238293049347 0
endloop
endfacet
facet normal 0 0 -1
outer loop
vertex 187.2604011542195 -166.64823859999984 0
vertex 191.7308892364284 -210.69238293049347 0
vertex 191.55954443272773 -211.05590061596124 0
endloop
endfacet
facet normal 0 0 -1
outer loop
vertex 187.2604011542195 -166.64823859999984 0
vertex 191.55954443272773 -211.05590061596124 0
vertex 191.3370479869279 -211.39056385118428 0
endloop
endfacet
facet normal 0 0 -1
outer loop
vertex 187.2604011542195 -166.64823859999984 0
vertex 191.3370479869279 -211.39056385118428 0
vertex 191.0681515154551 -211.68922559468933 0
endloop
endfacet
facet normal 0 0 -1
outer loop
vertex 187.2604011542195 -166.64823859999984 0
vertex 191.0681515154551 -211.68922559468933 0
vertex 190.75859509999995 -211.94550530000004 0
endloop
endfacet
facet normal 0 0 -1
outer loop
vertex 187.2604011542195 -166.64823859999984 0
vertex 190.75859509999995 -211.94550530000004 0
vertex 177.4305875344075 -221.42814030000002 0
endloop
endfacet
facet normal 0 0 -1
outer loop
vertex 187.2604011542195 -166.64823859999984 0
vertex 177.4305875344075 -221.42814030000002 0
vertex 114.784898502267 -221.42814030000002 0
endloop
endfacet
facet normal 0 0 -1
outer loop
vertex 187.2604011542195 -166.64823859999984 0
vertex 114.784898502267 -221.42814030000002 0
vertex 41.181428578400215 -221.42814030000002 0
endloop
endfacet
facet normal 0 0 -1
outer loop
vertex 187.2604011542195 -166.64823859999984 0
vertex 41.181428578400215 -221.42814030000002 0
vertex 29.32634709999965 -212.99347284999973 0
endloop
endfacet
facet normal 0 0 -1
outer loop
vertex 187.2604011542195 -166.64823859999984 0
vertex 29.32634709999965 -212.99347284999973 0
vertex 29.01679313454477 -212.73719079468924 0
endloop
endfacet
facet normal 0 0 -1
outer loop
vertex 187.2604011542195 -166.64823859999984 0
vertex 29.01679313454477 -212.73719079468924 0
vertex 28.747896663072183 -212.43852905118445 0
endloop
endfacet
facet normal 0 0 -1
outer loop
vertex 187.2604011542195 -166.64823859999984 0
vertex 28.747896663072183 -212.43852905118445 0
vertex 28.525400217272477 -212.10386581596157 0
endloop
endfacet
facet normal 0 0 -1
outer loop
vertex 187.2604011542195 -166.64823859999984 0
vertex 28.525400217272477 -212.10386581596157 0
vertex 28.354055413571544 -211.74034813049326 0
endloop
endfacet
facet normal 0 0 -1
outer loop
vertex 187.2604011542195 -166.64823859999984 0
vertex 28.354055413571544 -211.74034813049326 0
vertex 28.23752147798959 -211.3557392496009 0
endloop
endfacet
facet normal 0 0 -1
outer loop
vertex 187.2604011542195 -166.64823859999984 0
vertex 28.23752147798959 -211.3557392496009 0
vertex 28.178284200000007 -210.95825570000002 0
endloop
endfacet
facet normal 0 0 -1
outer loop
vertex 187.2604011542195 -166.64823859999984 0
vertex 28.178284200000007 -210.95825570000002 0
vertex 26.468385850000004 -188.14274734999995 0
endloop
endfacet
facet normal 0 0 -1
outer loop
vertex 187.2604011542195 -166.64823859999984 0
vertex 26.468385850000004 -188.14274734999995 0
vertex 26.464669341716203 -187.7895132782177 0
endloop
endfacet
facet normal 0 0 -1
outer loop
vertex 187.2604011542195 -166.64823859999984 0
vertex 26.464669341716203 -187.7895132782177 0
vertex 26.506264795980343 -187.43871712646228 0
endloop
endfacet
facet normal 0 0 -1
outer loop
vertex 187.2604011542195 -166.64823859999984 0
vertex 26.506264795980343 -187.43871712646228 0
vertex 26.592481699999894 -187.09614470000037 0
endloop
endfacet
facet normal 0 0 -1
outer loop
vertex 187.2604011542195 -166.64823859999984 0
vertex 26.592481699999894 -187.09614470000037 0
vertex 33.16118740000005 -166.64823859999984 0
endloop
endfacet
facet normal 0 0 -1
outer loop
vertex 114.784898502267 -221.42814030000002 0
vertex 105.24471819999802 -221.42814255000005 0
vertex 41.181428578400215 -221.42814030000002 0
endloop
endfacet
facet normal 0 0 -1
outer loop
vertex 177.4305875344075 -221.42814030000002 0
vertex 177.4296879342451 -221.42878034915546 0
vertex 114.844218057876 -221.42878034915546 0
endloop
endfacet
facet normal 0 0 -1
outer loop
vertex 177.4305875344075 -221.42814030000002 0
vertex 114.844218057876 -221.42878034915546 0
vertex 114.784898502267 -221.42814030000002 0
endloop
endfacet
facet normal 0 0 -1
outer loop
vertex 105.24471819999802 -221.42814255000005 0
vertex 105.1609393480784 -221.42941668332963 0
vertex 41.183222558833926 -221.42941668332963 0
endloop
endfacet
facet normal 0 0 -1
outer loop
vertex 105.24471819999802 -221.42814255000005 0
vertex 41.183222558833926 -221.42941668332963 0
vertex 41.181428578400215 -221.42814030000002 0
endloop
endfacet
facet normal 0 0 -1
outer loop
vertex 177.4296879342451 -221.42878034915546 0
vertex 177.42698962094073 -221.43070015000004 0
vertex 114.90351425000053 -221.43070015000004 0
endloop
endfacet
facet normal 0 0 -1
outer loop
vertex 177.4296879342451 -221.42878034915546 0
vertex 114.90351425000053 -221.43070015000004 0
vertex 114.844218057876 -221.42878034915546 0
endloop
endfacet
facet normal 0 0 -1
outer loop
vertex 105.1609393480784 -221.42941668332963 0
vertex 105.07723640000101 -221.43324509999997 0
vertex 41.18860346944233 -221.43324509999997 0
endloop
endfacet
facet normal 0 0 -1
outer loop
vertex 105.1609393480784 -221.42941668332963 0
vertex 41.18860346944233 -221.43324509999997 0
vertex 41.183222558833926 -221.42941668332963 0
endloop
endfacet
facet normal 0 0 -1
outer loop
vertex 177.42698962094073 -221.43070015000004 0
vertex 174.6195225000006 -223.42816194999963 0
vertex 174.30998681741173 -223.61889231532592 0
endloop
endfacet
facet normal 0 0 -1
outer loop
vertex 177.42698962094073 -221.43070015000004 0
vertex 174.30998681741173 -223.61889231532592 0
vertex 173.9779949572584 -223.76712124585086 0
endloop
endfacet
facet normal 0 0 -1
outer loop
vertex 177.42698962094073 -221.43070015000004 0
vertex 173.9779949572584 -223.76712124585086 0
vertex 173.62935004555166 -223.87025774081357 0
endloop
endfacet
facet normal 0 0 -1
outer loop
vertex 177.42698962094073 -221.43070015000004 0
vertex 173.62935004555166 -223.87025774081357 0
vertex 173.27014629904272 -223.92649900277127 0
endloop
endfacet
facet normal 0 0 -1
outer loop
vertex 177.42698962094073 -221.43070015000004 0
vertex 173.27014629904272 -223.92649900277127 0
vertex 172.90666499999958 -223.93486389999998 0
endloop
endfacet
facet normal 0 0 -1
outer loop
vertex 177.42698962094073 -221.43070015000004 0
vertex 172.90666499999958 -223.93486389999998 0
vertex 114.90351425000053 -221.43070015000004 0
endloop
endfacet
facet normal 0 0 -1
outer loop
vertex 105.07723640000101 -221.43324509999997 0
vertex 47.20478999999989 -224.96437900000004 0
vertex 46.831455437667934 -224.96176793184694 0
endloop
endfacet
facet normal 0 0 -1
outer loop
vertex 105.07723640000101 -221.43324509999997 0
vertex 46.831455437667934 -224.96176793184694 0
vertex 46.46191503103115 -224.9086134308923 0
endloop
endfacet
facet normal 0 0 -1
outer loop
vertex 105.07723640000101 -221.43324509999997 0
vertex 46.46191503103115 -224.9086134308923 0
vertex 46.10297983188504 -224.8058951953035 0
endloop
endfacet
facet normal 0 0 -1
outer loop
vertex 105.07723640000101 -221.43324509999997 0
vertex 46.10297983188504 -224.8058951953035 0
vertex 45.761265425935306 -224.65550643949 0
endloop
endfacet
facet normal 0 0 -1
outer loop
vertex 105.07723640000101 -221.43324509999997 0
vertex 45.761265425935306 -224.65550643949 0
vertex 45.44307000000052 -224.46021800000034 0
endloop
endfacet
facet normal 0 0 -1
outer loop
vertex 105.07723640000101 -221.43324509999997 0
vertex 45.44307000000052 -224.46021800000034 0
vertex 41.18860346944233 -221.43324509999997 0
endloop
endfacet
facet normal 0 0 1
outer loop
vertex 105.07723640000316 -221.43324509999982 1
vertex 41.18860346944211 -221.43324509999982 1
vertex 45.44307000000032 -224.46021800000022 1
endloop
endfacet
facet normal 0 0 1
outer loop
vertex 105.07723640000316 -221.43324509999982 1
vertex 45.44307000000032 -224.46021800000022 1
vertex 45.76126542593515 -224.6555064394899 1
endloop
endfacet
facet normal 0 0 1
outer loop
vertex 105.07723640000316 -221.43324509999982 1
vertex 45.76126542593515 -224.6555064394899 1
vertex 46.102979831885115 -224.8058951953035 1
endloop
endfacet
facet normal 0 0 1
outer loop
vertex 105.07723640000316 -221.43324509999982 1
vertex 46.102979831885115 -224.8058951953035 1
vertex 46.46191503103135 -224.90861343089233 1
endloop
endfacet
facet normal 0 0 1
outer loop
vertex 105.07723640000316 -221.43324509999982 1
vertex 46.46191503103135 -224.90861343089233 1
vertex 46.83145543766773 -224.9617679318469 1
endloop
endfacet
facet normal 0 0 1
outer loop
vertex 105.07723640000316 -221.43324509999982 1
vertex 46.83145543766773 -224.9617679318469 1
vertex 47.20479000000043 -224.964379 1
endloop
endfacet
facet normal 0 0 1
outer loop
vertex 173.2701462990424 -223.9264990027713 1
vertex 173.62935004555183 -223.8702577408135 1
vertex 173.9779949572582 -223.76712124585092 1
endloop
endfacet
facet normal 0 0 1
outer loop
vertex 173.2701462990424 -223.9264990027713 1
vertex 173.9779949572582 -223.76712124585092 1
vertex 174.30998681741173 -223.61889231532592 1
endloop
endfacet
facet normal 0 0 1
outer loop
vertex 173.2701462990424 -223.9264990027713 1
vertex 174.30998681741173 -223.61889231532592 1
vertex 174.61952249999987 -223.4281619500001 1
endloop
endfacet
facet normal 0 0 1
outer loop
vertex 173.2701462990424 -223.9264990027713 1
vertex 174.61952249999987 -223.4281619500001 1
vertex 177.426989620941 -221.43070014999986 1
endloop
endfacet
facet normal 0 0 1
outer loop
vertex 173.2701462990424 -223.9264990027713 1
vertex 177.426989620941 -221.43070014999986 1
vertex 114.9035142499963 -221.43070014999986 1
endloop
endfacet
facet normal 0 0 1
outer loop
vertex 173.2701462990424 -223.9264990027713 1
vertex 114.9035142499963 -221.43070014999986 1
vertex 172.9066649999995 -223.93486389999998 1
endloop
endfacet
facet normal 0 0 1
outer loop
vertex 105.07723640000316 -221.43324509999982 1
vertex 105.16093934807614 -221.4294166833297 1
vertex 41.18322255883399 -221.4294166833297 1
endloop
endfacet
facet normal 0 0 1
outer loop
vertex 105.07723640000316 -221.43324509999982 1
vertex 41.18322255883399 -221.4294166833297 1
vertex 41.18860346944211 -221.43324509999982 1
endloop
endfacet
facet normal 0 0 1
outer loop
vertex 177.426989620941 -221.43070014999986 1
vertex 177.4296879342451 -221.42878034915546 1
vertex 114.84421805787603 -221.42878034915546 1
endloop
endfacet
facet normal 0 0 1
outer loop
vertex 177.426989620941 -221.43070014999986 1
vertex 114.84421805787603 -221.42878034915546 1
vertex 114.9035142499963 -221.43070014999986 1
endloop
endfacet
facet normal 0 0 1
outer loop
vertex 105.16093934807614 -221.4294166833297 1
vertex 105.24471820000045 -221.42814255000002 1
vertex 41.1814317408169 -221.42814255000002 1
endloop
endfacet
facet normal 0 0 1
outer loop
vertex 105.16093934807614 -221.4294166833297 1
vertex 41.1814317408169 -221.42814255000002 1
vertex 41.18322255883399 -221.4294166833297 1
endloop
endfacet
facet normal 0 0 1
outer loop
vertex 105.24471820000045 -221.42814255000002 1
vertex 114.78489850226849 -221.4281403 1
vertex 41.1814317408169 -221.42814255000002 1
endloop
endfacet
facet normal 0 0 1
outer loop
vertex 177.4296879342451 -221.42878034915546 1
vertex 177.43058753440755 -221.4281403 1
vertex 114.78489850226849 -221.4281403 1
endloop
endfacet
facet normal 0 0 1
outer loop
vertex 177.4296879342451 -221.42878034915546 1
vertex 114.78489850226849 -221.4281403 1
vertex 114.84421805787603 -221.42878034915546 1
endloop
endfacet
facet normal 0 0 1
outer loop
vertex 114.78489850226849 -221.4281403 1
vertex 177.43058753440755 -221.4281403 1
vertex 190.7585950999999 -211.9455053000001 1
endloop
endfacet
facet normal 0 0 1
outer loop
vertex 114.78489850226849 -221.4281403 1
vertex 190.7585950999999 -211.9455053000001 1
vertex 191.06815151545513 -211.6892255946893 1
endloop
endfacet
facet normal 0 0 1
outer loop
vertex 114.78489850226849 -221.4281403 1
vertex 191.06815151545513 -211.6892255946893 1
vertex 191.33704798692798 -211.3905638511842 1
endloop
endfacet
facet normal 0 0 1
outer loop
vertex 114.78489850226849 -221.4281403 1
vertex 191.33704798692798 -211.3905638511842 1
vertex 191.55954443272748 -211.05590061596163 1
endloop
endfacet
facet normal 0 0 1
outer loop
vertex 114.78489850226849 -221.4281403 1
vertex 191.55954443272748 -211.05590061596163 1
vertex 191.73088923642854 -210.692382930493 1
endloop
endfacet
facet normal 0 0 1
outer loop
vertex 114.78489850226849 -221.4281403 1
vertex 191.73088923642854 -210.692382930493 1
vertex 191.84742317201042 -210.30777404960094 1
endloop
endfacet
facet normal 0 0 1
outer loop
vertex 114.78489850226849 -221.4281403 1
vertex 191.84742317201042 -210.30777404960094 1
vertex 191.90665755 -209.91028765000007 1
endloop
endfacet
facet normal 0 0 1
outer loop
vertex 114.78489850226849 -221.4281403 1
vertex 191.90665755 -209.91028765000007 1
vertex 193.6165536 -187.09478069999997 1
endloop
endfacet
facet normal 0 0 1
outer loop
vertex 114.78489850226849 -221.4281403 1
vertex 193.6165536 -187.09478069999997 1
vertex 193.62027485369435 -186.74154714529345 1
endloop
endfacet
facet normal 0 0 1
outer loop
vertex 114.78489850226849 -221.4281403 1
vertex 193.62027485369435 -186.74154714529345 1
vertex 193.57868610400772 -186.39075100230474 1
endloop
endfacet
facet normal 0 0 1
outer loop
vertex 114.78489850226849 -221.4281403 1
vertex 193.57868610400772 -186.39075100230474 1
vertex 193.4924718000001 -186.0481803500003 1
endloop
endfacet
facet normal 0 0 1
outer loop
vertex 114.78489850226849 -221.4281403 1
vertex 193.4924718000001 -186.0481803500003 1
vertex 187.26040115421952 -166.64823859999996 1
endloop
endfacet
facet normal 0 0 1
outer loop
vertex 114.78489850226849 -221.4281403 1
vertex 187.26040115421952 -166.64823859999996 1
vertex 33.16118740000002 -166.64823859999996 1
endloop
endfacet
facet normal 0 0 1
outer loop
vertex 114.78489850226849 -221.4281403 1
vertex 33.16118740000002 -166.64823859999996 1
vertex 26.592481699999922 -187.09614470000025 1
endloop
endfacet
facet normal 0 0 1
outer loop
vertex 114.78489850226849 -221.4281403 1
vertex 26.592481699999922 -187.09614470000025 1
vertex 26.506264795980357 -187.4387171264622 1
endloop
endfacet
facet normal 0 0 1
outer loop
vertex 114.78489850226849 -221.4281403 1
vertex 26.506264795980357 -187.4387171264622 1
vertex 26.464669341716203 -187.7895132782177 1
endloop
endfacet
facet normal 0 0 1
outer loop
vertex 114.78489850226849 -221.4281403 1
vertex 26.464669341716203 -187.7895132782177 1
vertex 26.468385850000004 -188.14274735000012 1
endloop
endfacet
facet normal 0 0 1
outer loop
vertex 114.78489850226849 -221.4281403 1
vertex 26.468385850000004 -188.14274735000012 1
vertex 28.178284199999965 -210.95825569999977 1
endloop
endfacet
facet normal 0 0 1
outer loop
vertex 114.78489850226849 -221.4281403 1
vertex 28.178284199999965 -210.95825569999977 1
vertex 28.237521477989574 -211.35573924960082 1
endloop
endfacet
facet normal 0 0 1
outer loop
vertex 114.78489850226849 -221.4281403 1
vertex 28.237521477989574 -211.35573924960082 1
vertex 28.354055413571587 -211.74034813049337 1
endloop
endfacet
facet normal 0 0 1
outer loop
vertex 114.78489850226849 -221.4281403 1
vertex 28.354055413571587 -211.74034813049337 1
vertex 28.525400217272406 -212.10386581596146 1
endloop
endfacet
facet normal 0 0 1
outer loop
vertex 114.78489850226849 -221.4281403 1
vertex 28.525400217272406 -212.10386581596146 1
vertex 28.747896663072254 -212.43852905118453 1
endloop
endfacet
facet normal 0 0 1
outer loop
vertex 114.78489850226849 -221.4281403 1
vertex 28.747896663072254 -212.43852905118453 1
vertex 29.016793134544628 -212.73719079468907 1
endloop
endfacet
facet normal 0 0 1
outer loop
vertex 114.78489850226849 -221.4281403 1
vertex 29.016793134544628 -212.73719079468907 1
vertex 29.32634710000022 -212.99347285000013 1
endloop
endfacet
facet normal 0 0 1
outer loop
vertex 114.78489850226849 -221.4281403 1
vertex 29.32634710000022 -212.99347285000013 1
vertex 41.1814317408169 -221.42814255000002 1
endloop
endfacet
facet normal 0 0 1
outer loop
vertex 187.26040115421952 -166.64823859999996 1
vertex 187.15684902246826 -166.3258890249958 1
vertex 33.24360233379406 -166.3258890249958 1
endloop
endfacet
facet normal 0 0 1
outer loop
vertex 187.26040115421952 -166.64823859999996 1
vertex 33.24360233379406 -166.3258890249958 1
vertex 33.16118740000002 -166.64823859999996 1
endloop
endfacet
facet normal 0 0 1
outer loop
vertex 187.15684902246826 -166.3258890249958 1
vertex 187.05085748239705 -165.99594576532394 1
vertex 33.286484908518105 -165.99594576532394 1
endloop
endfacet
facet normal 0 0 1
outer loop
vertex 187.15684902246826 -166.3258890249958 1
vertex 33.286484908518105 -165.99594576532394 1
vertex 33.24360233379406 -166.3258890249958 1
endloop
endfacet
facet normal 0 0 1
outer loop
vertex 187.05085748239705 -165.99594576532394 1
vertex 186.9439776107832 -165.66323719999986 1
vertex 33.28920479999999 -165.66323719999986 1
endloop
endfacet
facet normal 0 0 1
outer loop
vertex 187.05085748239705 -165.99594576532394 1
vertex 33.28920479999999 -165.66323719999986 1
vertex 33.286484908518105 -165.99594576532394 1
endloop
endfacet
facet normal 0 0 1
outer loop
vertex 186.9439776107832 -165.66323719999986 1
vertex 186.92375219999994 -165.6002770999999 1
vertex 33.285905202694295 -165.6002770999999 1
endloop
endfacet
facet normal 0 0 1
outer loop
vertex 186.9439776107832 -165.66323719999986 1
vertex 33.285905202694295 -165.6002770999999 1
vertex 33.28920479999999 -165.66323719999986 1
endloop
endfacet
facet normal 0 0 1
outer loop
vertex 186.92375219999994 -165.6002770999999 1
vertex 186.84134116620595 -165.2779239749959 1
vertex 33.26901140006773 -165.2779239749959 1
endloop
endfacet
facet normal 0 0 1
outer loop
vertex 186.92375219999994 -165.6002770999999 1
vertex 33.26901140006773 -165.2779239749959 1
vertex 33.285905202694295 -165.6002770999999 1
endloop
endfacet
facet normal 0 0 1
outer loop
vertex 186.84134116620595 -165.2779239749959 1
vertex 186.7984585914819 -164.94798071532415 1
vertex 33.251719815545975 -164.94798071532415 1
endloop
endfacet
facet normal 0 0 1
outer loop
vertex 186.84134116620595 -165.2779239749959 1
vertex 33.251719815545975 -164.94798071532415 1
vertex 33.26901140006773 -165.2779239749959 1
endloop
endfacet
facet normal 0 0 1
outer loop
vertex 186.7984585914819 -164.94798071532415 1
vertex 186.79573610000003 -164.61527354999933 1
vertex 33.234283380942244 -164.61527354999933 1
endloop
endfacet
facet normal 0 0 1
outer loop
vertex 186.7984585914819 -164.94798071532415 1
vertex 33.234283380942244 -164.61527354999933 1
vertex 33.251719815545975 -164.94798071532415 1
endloop
endfacet
facet normal 0 0 1
outer loop
vertex 186.79573610000003 -164.61527354999933 1
vertex 192.11739599999999 -63.07207160000017 1
vertex 192.10066464009756 -62.593011392061484 1
endloop
endfacet
facet normal 0 0 1
outer loop
vertex 186.79573610000003 -164.61527354999933 1
vertex 192.10066464009756 -62.593011392061484 1
vertex 192.00100179419368 -62.124129890907255 1
endloop
endfacet
facet normal 0 0 1
outer loop
vertex 186.79573610000003 -164.61527354999933 1
vertex 192.00100179419368 -62.124129890907255 1
vertex 191.82143266491593 -61.67967801185988 1
endloop
endfacet
facet normal 0 0 1
outer loop
vertex 186.79573610000003 -164.61527354999933 1
vertex 191.82143266491593 -61.67967801185988 1
vertex 191.5674133648626 -61.27316018915238 1
endloop
endfacet
facet normal 0 0 1
outer loop
vertex 186.79573610000003 -164.61527354999933 1
vertex 191.5674133648626 -61.27316018915238 1
vertex 191.24666213552007 -60.916928250868324 1
endloop
endfacet
facet normal 0 0 1
outer loop
vertex 186.79573610000003 -164.61527354999933 1
vertex 191.24666213552007 -60.916928250868324 1
vertex 190.86892483259507 -60.62180611520678 1
endloop
endfacet
facet normal 0 0 1
outer loop
vertex 186.79573610000003 -164.61527354999933 1
vertex 190.86892483259507 -60.62180611520678 1
vertex 190.86040205906878 -60.61727445000001 1
endloop
endfacet
facet normal 0 0 1
outer loop
vertex 186.79573610000003 -164.61527354999933 1
vertex 190.86040205906878 -60.61727445000001 1
vertex 42.25926355000013 -60.61727445000001 1
endloop
endfacet
facet normal 0 0 1
outer loop
vertex 186.79573610000003 -164.61527354999933 1
vertex 42.25926355000013 -60.61727445000001 1
vertex 30.56985830000002 -61.22988169999999 1
endloop
endfacet
facet normal 0 0 1
outer loop
vertex 186.79573610000003 -164.61527354999933 1
vertex 30.56985830000002 -61.22988169999999 1
vertex 30.0951629964123 -61.29659556864527 1
endloop
endfacet
facet normal 0 0 1
outer loop
vertex 186.79573610000003 -164.61527354999933 1
vertex 30.0951629964123 -61.29659556864527 1
vertex 29.639268346632832 -61.44472596147861 1
endloop
endfacet
facet normal 0 0 1
outer loop
vertex 186.79573610000003 -164.61527354999933 1
vertex 29.639268346632832 -61.44472596147861 1
vertex 29.21602231740495 -61.669771165206754 1
endloop
endfacet
facet normal 0 0 1
outer loop
vertex 186.79573610000003 -164.61527354999933 1
vertex 29.21602231740495 -61.669771165206754 1
vertex 28.838285014479922 -61.96489330086831 1
endloop
endfacet
facet normal 0 0 1
outer loop
vertex 186.79573610000003 -164.61527354999933 1
vertex 28.838285014479922 -61.96489330086831 1
vertex 28.517533785137417 -62.32112523915235 1
endloop
endfacet
facet normal 0 0 1
outer loop
vertex 186.79573610000003 -164.61527354999933 1
vertex 28.517533785137417 -62.32112523915235 1
vertex 28.263514485084073 -62.727643061859894 1
endloop
endfacet
facet normal 0 0 1
outer loop
vertex 186.79573610000003 -164.61527354999933 1
vertex 28.263514485084073 -62.727643061859894 1
vertex 28.083945355806307 -63.1720949409073 1
endloop
endfacet
facet normal 0 0 1
outer loop
vertex 186.79573610000003 -164.61527354999933 1
vertex 28.083945355806307 -63.1720949409073 1
vertex 27.9842825099024 -63.64097644206157 1
endloop
endfacet
facet normal 0 0 1
outer loop
vertex 186.79573610000003 -164.61527354999933 1
vertex 27.9842825099024 -63.64097644206157 1
vertex 27.967554149999998 -64.12004085000002 1
endloop
endfacet
facet normal 0 0 1
outer loop
vertex 186.79573610000003 -164.61527354999933 1
vertex 27.967554149999998 -64.12004085000002 1
vertex 33.234283380942244 -164.61527354999933 1
endloop
endfacet
facet normal 0 0 1
outer loop
vertex 190.86040205906878 -60.61727445000001 1
vertex 190.85189458756244 -60.61275092106851 1
vertex 42.32865182674183 -60.61275092106851 1
endloop
endfacet
facet normal 0 0 1
outer loop
vertex 190.86040205906878 -60.61727445000001 1
vertex 42.32865182674183 -60.61275092106851 1
vertex 42.25926355000013 -60.61727445000001 1
endloop
endfacet
facet normal 0 0 1
outer loop
vertex 190.85189458756244 -60.61275092106851 1
vertex 190.84009869958737 -60.606478899999956 1
vertex 42.39790710000038 -60.606478899999956 1
endloop
endfacet
facet normal 0 0 1
outer loop
vertex 190.85189458756244 -60.61275092106851 1
vertex 42.39790710000038 -60.606478899999956 1
vertex 42.32865182674183 -60.61275092106851 1
endloop
endfacet
facet normal 0 0 1
outer loop
vertex 190.84009869958737 -60.606478899999956 1
vertex 190.44567880336717 -60.39676091147861 1
vertex 189.98978415358772 -60.248630518645285 1
endloop
endfacet
facet normal 0 0 1
outer loop
vertex 190.84009869958737 -60.606478899999956 1
vertex 189.98978415358772 -60.248630518645285 1
vertex 189.51509300000004 -60.18191580000001 1
endloop
endfacet
facet normal 0 0 1
outer loop
vertex 190.84009869958737 -60.606478899999956 1
vertex 189.51509300000004 -60.18191580000001 1
vertex 177.80465159999954 -59.56819839999997 1
endloop
endfacet
facet normal 0 0 1
outer loop
vertex 190.84009869958737 -60.606478899999956 1
vertex 177.80465159999954 -59.56819839999997 1
vertex 52.44911054625726 -59.56819839999997 1
endloop
endfacet
facet normal 0 0 1
outer loop
vertex 190.84009869958737 -60.606478899999956 1
vertex 52.44911054625726 -59.56819839999997 1
vertex 42.39790710000038 -60.606478899999956 1
endloop
endfacet
facet normal 0 0 1
outer loop
vertex 177.80465159999954 -59.56819839999997 1
vertex 177.75625591103753 -59.56523566876966 1
vertex 52.47779163422187 -59.56523566876966 1
endloop
endfacet
facet normal 0 0 1
outer loop
vertex 177.80465159999954 -59.56819839999997 1
vertex 52.47779163422187 -59.56523566876966 1
vertex 52.44911054625726 -59.56819839999997 1
endloop
endfacet
facet normal 0 0 1
outer loop
vertex 177.75625591103753 -59.56523566876966 1
vertex 177.70791579999917 -59.56141919999993 1
vertex 52.51473743456275 -59.56141919999993 1
endloop
endfacet
facet normal 0 0 1
outer loop
vertex 177.75625591103753 -59.56523566876966 1
vertex 52.51473743456275 -59.56141919999993 1
vertex 52.47779163422187 -59.56523566876966 1
endloop
endfacet
facet normal 0 0 1
outer loop
vertex 177.70791579999917 -59.56141919999993 1
vertex 154.9940950999985 -57.56603909999987 1
vertex 154.96012341621778 -57.56326888876906 1
endloop
endfacet
facet normal 0 0 1
outer loop
vertex 177.70791579999917 -59.56141919999993 1
vertex 154.96012341621778 -57.56326888876906 1
vertex 154.9261175500021 -57.560919550000136 1
endloop
endfacet
facet normal 0 0 1
outer loop
vertex 177.70791579999917 -59.56141919999993 1
vertex 154.9261175500021 -57.560919550000136 1
vertex 132.5159299999994 -56.15093569999996 1
endloop
endfacet
facet normal 0 0 1
outer loop
vertex 177.70791579999917 -59.56141919999993 1
vertex 132.5159299999994 -56.15093569999996 1
vertex 132.49197067406976 -56.14953322886518 1
endloop
endfacet
facet normal 0 0 1
outer loop
vertex 177.70791579999917 -59.56141919999993 1
vertex 132.49197067406976 -56.14953322886518 1
vertex 132.46799499999918 -56.14833784999996 1
endloop
endfacet
facet normal 0 0 1
outer loop
vertex 177.70791579999917 -59.56141919999993 1
vertex 132.46799499999918 -56.14833784999996 1
vertex 110.14875120000028 -55.13477880000001 1
endloop
endfacet
facet normal 0 0 1
outer loop
vertex 177.70791579999917 -59.56141919999993 1
vertex 110.14875120000028 -55.13477880000001 1
vertex 110.00259528890109 -55.1320289957244 1
endloop
endfacet
facet normal 0 0 1
outer loop
vertex 177.70791579999917 -59.56141919999993 1
vertex 110.00259528890109 -55.1320289957244 1
vertex 109.85649560000014 -55.1370544 1
endloop
endfacet
facet normal 0 0 1
outer loop
vertex 177.70791579999917 -59.56141919999993 1
vertex 109.85649560000014 -55.1370544 1
vertex 87.55761880000095 -56.497735299999945 1
endloop
endfacet
facet normal 0 0 1
outer loop
vertex 177.70791579999917 -59.56141919999993 1
vertex 87.55761880000095 -56.497735299999945 1
vertex 87.53367211314176 -56.49930319049166 1
endloop
endfacet
facet normal 0 0 1
outer loop
vertex 177.70791579999917 -59.56141919999993 1
vertex 87.53367211314176 -56.49930319049166 1
vertex 87.50973939999892 -56.501077650000084 1
endloop
endfacet
facet normal 0 0 1
outer loop
vertex 177.70791579999917 -59.56141919999993 1
vertex 87.50973939999892 -56.501077650000084 1
vertex 65.12574349999961 -58.25953940000004 1
endloop
endfacet
facet normal 0 0 1
outer loop
vertex 177.70791579999917 -59.56141919999993 1
vertex 65.12574349999961 -58.25953940000004 1
vertex 65.09212797811095 -58.26238857731016 1
endloop
endfacet
facet normal 0 0 1
outer loop
vertex 177.70791579999917 -59.56141919999993 1
vertex 65.09212797811095 -58.26238857731016 1
vertex 65.05854675000184 -58.2656546999998 1
endloop
endfacet
facet normal 0 0 1
outer loop
vertex 177.70791579999917 -59.56141919999993 1
vertex 65.05854675000184 -58.2656546999998 1
vertex 52.51473743456275 -59.56141919999993 1
endloop
endfacet
facet normal -0.9972034311757052 -0.07473497742958557 0
outer loop
vertex 28.178284199999965 -210.95825569999977 1
vertex 26.468385850000004 -188.14274735000012 1
vertex 26.468385850000004 -188.14274734999995 0
endloop
endfacet
facet normal -0.9972034311757052 -0.07473497742958557 0
outer loop
vertex 28.178284199999965 -210.95825569999977 1
vertex 26.468385850000004 -188.14274734999995 0
vertex 28.178284200000007 -210.95825570000002 0
endloop
endfacet
facet normal -0.9890765411609858 -0.14740283486087025 0
outer loop
vertex 28.237521477989574 -211.35573924960082 1
vertex 28.178284199999965 -210.95825569999977 1
vertex 28.178284200000007 -210.95825570000002 0
endloop
endfacet
facet normal -0.9890765411609858 -0.14740283486087025 0
outer loop
vertex 28.237521477989574 -211.35573924960082 1
vertex 28.178284200000007 -210.95825570000002 0
vertex 28.23752147798959 -211.3557392496009 0
endloop
endfacet
facet normal -0.9570342177191373 -0.2899750094658487 0
outer loop
vertex 28.354055413571587 -211.74034813049337 1
vertex 28.237521477989574 -211.35573924960082 1
vertex 28.23752147798959 -211.3557392496009 0
endloop
endfacet
facet normal -0.9570342177191373 -0.2899750094658487 0
outer loop
vertex 28.354055413571587 -211.74034813049337 1
vertex 28.23752147798959 -211.3557392496009 0
vertex 28.354055413571544 -211.74034813049326 0
endloop
endfacet
facet normal -0.9045523414123687 -0.42636259409732674 0
outer loop
vertex 28.525400217272406 -212.10386581596146 1
vertex 28.354055413571587 -211.74034813049337 1
vertex 28.354055413571544 -211.74034813049326 0
endloop
endfacet
facet normal -0.9045523414123687 -0.42636259409732674 0
outer loop
vertex 28.525400217272406 -212.10386581596146 1
vertex 28.354055413571544 -211.74034813049326 0
vertex 28.525400217272477 -212.10386581596157 0
endloop
endfacet
facet normal -0.8327529171399042 -0.5536448130299604 0
outer loop
vertex 28.747896663072254 -212.43852905118453 1
vertex 28.525400217272406 -212.10386581596146 1
vertex 28.525400217272477 -212.10386581596157 0
endloop
endfacet
facet normal -0.8327529171399042 -0.5536448130299604 0
outer loop
vertex 28.747896663072254 -212.43852905118453 1
vertex 28.525400217272477 -212.10386581596157 0
vertex 28.747896663072183 -212.43852905118445 0
endloop
endfacet
facet normal -0.7431692877043045 -0.6691034373047838 0
outer loop
vertex 29.016793134544628 -212.73719079468907 1
vertex 28.747896663072254 -212.43852905118453 1
vertex 28.747896663072183 -212.43852905118445 0
endloop
endfacet
facet normal -0.7431692877043045 -0.6691034373047838 0
outer loop
vertex 29.016793134544628 -212.73719079468907 1
vertex 28.747896663072183 -212.43852905118445 0
vertex 29.01679313454477 -212.73719079468924 0
endloop
endfacet
facet normal -0.6377145939813172 -0.7702727417111705 0
outer loop
vertex 29.32634710000022 -212.99347285000013 1
vertex 29.016793134544628 -212.73719079468907 1
vertex 29.01679313454477 -212.73719079468924 0
endloop
endfacet
facet normal -0.6377145939813172 -0.7702727417111705 0
outer loop
vertex 29.32634710000022 -212.99347285000013 1
vertex 29.01679313454477 -212.73719079468924 0
vertex 29.32634709999965 -212.99347284999973 0
endloop
endfacet
facet normal 0 0 -1
outer loop
vertex 45.44307000000032 -224.46021800000022 1
vertex 41.18860346944211 -221.43324509999982 1
vertex 41.18322255883399 -221.4294166833297 1
endloop
endfacet
facet normal 0 0 -1
outer loop
vertex 45.44307000000032 -224.46021800000022 1
vertex 41.18322255883399 -221.4294166833297 1
vertex 41.1814317408169 -221.42814255000002 1
endloop
endfacet
facet normal 0 0 -1
outer loop
vertex 45.44307000000032 -224.46021800000022 1
vertex 41.1814317408169 -221.42814255000002 1
vertex 29.32634710000022 -212.99347285000013 1
endloop
endfacet
facet normal 0 0 -1
outer loop
vertex 45.44307000000032 -224.46021800000022 1
vertex 29.32634710000022 -212.99347285000013 1
vertex 29.32634709999965 -212.99347284999973 0
endloop
endfacet
facet normal 0 0 -1
outer loop
vertex 45.44307000000032 -224.46021800000022 1
vertex 29.32634709999965 -212.99347284999973 0
vertex 41.181428578400215 -221.42814030000002 0
endloop
endfacet
facet normal 0 0 -1
outer loop
vertex 45.44307000000032 -224.46021800000022 1
vertex 41.181428578400215 -221.42814030000002 0
vertex 41.183222558833926 -221.42941668332963 0
endloop
endfacet
facet normal 0 0 -1
outer loop
vertex 45.44307000000032 -224.46021800000022 1
vertex 41.183222558833926 -221.42941668332963 0
vertex 41.18860346944233 -221.43324509999997 0
endloop
endfacet
facet normal 0 0 -1
outer loop
vertex 45.44307000000032 -224.46021800000022 1
vertex 41.18860346944233 -221.43324509999997 0
vertex 45.44307000000052 -224.46021800000034 0
endloop
endfacet
facet normal -0.5230787864815918 -0.8522843323286807 0
outer loop
vertex 45.76126542593515 -224.6555064394899 1
vertex 45.44307000000032 -224.46021800000022 1
vertex 45.44307000000052 -224.46021800000034 0
endloop
endfacet
facet normal -0.5230787864815918 -0.8522843323286807 0
outer loop
vertex 45.76126542593515 -224.6555064394899 1
vertex 45.44307000000052 -224.46021800000034 0
vertex 45.761265425935306 -224.65550643949 0
endloop
endfacet
facet normal -0.4028158467118583 -0.9152810462572732 0
outer loop
vertex 46.102979831885115 -224.8058951953035 1
vertex 45.76126542593515 -224.6555064394899 1
vertex 45.761265425935306 -224.65550643949 0
endloop
endfacet
facet normal -0.4028158467118583 -0.9152810462572732 0
outer loop
vertex 46.102979831885115 -224.8058951953035 1
vertex 45.761265425935306 -224.65550643949 0
vertex 46.10297983188504 -224.8058951953035 0
endloop
endfacet
facet normal -0.2751304964102135 -0.9614068909390392 0
outer loop
vertex 46.46191503103135 -224.90861343089233 1
vertex 46.102979831885115 -224.8058951953035 1
vertex 46.10297983188504 -224.8058951953035 0
endloop
endfacet
facet normal -0.2751304964102135 -0.9614068909390392 0
outer loop
vertex 46.46191503103135 -224.90861343089233 1
vertex 46.10297983188504 -224.8058951953035 0
vertex 46.46191503103115 -224.9086134308923 0
endloop
endfacet
facet normal -0.1423741767976026 -0.9898129084737202 0
outer loop
vertex 46.83145543766773 -224.9617679318469 1
vertex 46.46191503103135 -224.90861343089233 1
vertex 46.46191503103115 -224.9086134308923 0
endloop
endfacet
facet normal -0.1423741767976026 -0.9898129084737202 0
outer loop
vertex 46.83145543766773 -224.9617679318469 1
vertex 46.46191503103115 -224.9086134308923 0
vertex 46.831455437667934 -224.96176793184694 0
endloop
endfacet
facet normal -0.006993738482833578 -0.999975543511957 0
outer loop
vertex 47.20479000000043 -224.964379 1
vertex 46.83145543766773 -224.9617679318469 1
vertex 46.831455437667934 -224.96176793184694 0
endloop
endfacet
facet normal -0.006993738482833578 -0.999975543511957 0
outer loop
vertex 47.20479000000043 -224.964379 1
vertex 46.831455437667934 -224.96176793184694 0
vertex 47.20478999999989 -224.96437900000004 0
endloop
endfacet
facet normal 0.06090254233910736 -0.9981437172755401 0
outer loop
vertex 105.07723640000316 -221.43324509999982 1
vertex 47.20479000000043 -224.964379 1
vertex 47.20478999999989 -224.96437900000004 0
endloop
endfacet
facet normal 0.06090254233910736 -0.9981437172755401 0
outer loop
vertex 105.07723640000316 -221.43324509999982 1
vertex 47.20478999999989 -224.96437900000004 0
vertex 105.07723640000101 -221.43324509999997 0
endloop
endfacet
facet normal 0.04569036755043498 -0.998955649822907 0
outer loop
vertex 105.16093934807614 -221.4294166833297 1
vertex 105.07723640000316 -221.43324509999982 1
vertex 105.07723640000101 -221.43324509999997 0
endloop
endfacet
facet normal 0.04569036755043498 -0.998955649822907 0
outer loop
vertex 105.16093934807614 -221.4294166833297 1
vertex 105.07723640000101 -221.43324509999997 0
vertex 105.1609393480784 -221.42941668332963 0
endloop
endfacet
facet normal 0.015206534554096152 -0.999884373968738 0
outer loop
vertex 105.24471820000045 -221.42814255000002 1
vertex 105.16093934807614 -221.4294166833297 1
vertex 105.1609393480784 -221.42941668332963 0
endloop
endfacet
facet normal 0.015206534554096152 -0.999884373968738 0
outer loop
vertex 105.24471820000045 -221.42814255000002 1
vertex 105.1609393480784 -221.42941668332963 0
vertex 105.24471819999802 -221.42814255000005 0
endloop
endfacet
facet normal 2.358445954087074e-7 -0.9999999999999722 0
outer loop
vertex 114.78489850226849 -221.4281403 1
vertex 105.24471820000045 -221.42814255000002 1
vertex 105.24471819999802 -221.42814255000005 0
endloop
endfacet
facet normal 2.358445954087074e-7 -0.9999999999999722 0
outer loop
vertex 114.78489850226849 -221.4281403 1
vertex 105.24471819999802 -221.42814255000005 0
vertex 114.784898502267 -221.42814030000002 0
endloop
endfacet
facet normal -0.010789222376274664 -0.999941794646326 0
outer loop
vertex 114.84421805787603 -221.42878034915546 1
vertex 114.78489850226849 -221.4281403 1
vertex 114.784898502267 -221.42814030000002 0
endloop
endfacet
facet normal -0.010789222376274664 -0.999941794646326 0
outer loop
vertex 114.84421805787603 -221.42878034915546 1
vertex 114.784898502267 -221.42814030000002 0
vertex 114.844218057876 -221.42878034915546 0
endloop
endfacet
facet normal -0.03235950513385435 -0.9994762940798007 0
outer loop
vertex 114.9035142499963 -221.43070014999986 1
vertex 114.84421805787603 -221.42878034915546 1
vertex 114.844218057876 -221.42878034915546 0
endloop
endfacet
facet normal -0.03235950513385435 -0.9994762940798007 0
outer loop
vertex 114.9035142499963 -221.43070014999986 1
vertex 114.844218057876 -221.42878034915546 0
vertex 114.90351425000053 -221.43070015000004 0
endloop
endfacet
facet normal -0.043132712988295914 -0.9990693514818025 0
outer loop
vertex 172.9066649999995 -223.93486389999998 1
vertex 114.9035142499963 -221.43070014999986 1
vertex 114.90351425000053 -221.43070015000004 0
endloop
endfacet
facet normal -0.043132712988295914 -0.9990693514818025 0
outer loop
vertex 172.9066649999995 -223.93486389999998 1
vertex 114.90351425000053 -221.43070015000004 0
vertex 172.90666499999958 -223.93486389999998 0
endloop
endfacet
facet normal 0.0230071892528656 -0.9997352995881874 0
outer loop
vertex 173.2701462990424 -223.9264990027713 1
vertex 172.9066649999995 -223.93486389999998 1
vertex 172.90666499999958 -223.93486389999998 0
endloop
endfacet
facet normal 0.0230071892528656 -0.9997352995881874 0
outer loop
vertex 173.2701462990424 -223.9264990027713 1
vertex 172.90666499999958 -223.93486389999998 0
vertex 173.27014629904272 -223.92649900277127 0
endloop
endfacet
facet normal 0.15468745006666082 -0.9879634572148276 0
outer loop
vertex 173.62935004555183 -223.8702577408135 1
vertex 173.2701462990424 -223.9264990027713 1
vertex 173.27014629904272 -223.92649900277127 0
endloop
endfacet
facet normal 0.15468745006666082 -0.9879634572148276 0
outer loop
vertex 173.62935004555183 -223.8702577408135 1
vertex 173.27014629904272 -223.92649900277127 0
vertex 173.62935004555166 -223.87025774081357 0
endloop
endfacet
facet normal 0.28366933563157193 -0.9589221595220034 0
outer loop
vertex 173.9779949572582 -223.76712124585092 1
vertex 173.62935004555183 -223.8702577408135 1
vertex 173.62935004555166 -223.87025774081357 0
endloop
endfacet
facet normal 0.28366933563157193 -0.9589221595220034 0
outer loop
vertex 173.9779949572582 -223.76712124585092 1
vertex 173.62935004555166 -223.87025774081357 0
vertex 173.9779949572584 -223.76712124585086 0
endloop
endfacet
facet normal 0.4076927595659745 -0.9131191673585002 0
outer loop
vertex 174.30998681741173 -223.61889231532592 1
vertex 173.9779949572582 -223.76712124585092 1
vertex 173.9779949572584 -223.76712124585086 0
endloop
endfacet
facet normal 0.4076927595659745 -0.9131191673585002 0
outer loop
vertex 174.30998681741173 -223.61889231532592 1
vertex 173.9779949572584 -223.76712124585086 0
vertex 174.30998681741173 -223.61889231532592 0
endloop
endfacet
facet normal 0.524589826677871 -0.8513551043754195 0
outer loop
vertex 174.61952249999987 -223.4281619500001 1
vertex 174.30998681741173 -223.61889231532592 1
vertex 174.30998681741173 -223.61889231532592 0
endloop
endfacet
facet normal 0.524589826677871 -0.8513551043754195 0
outer loop
vertex 174.61952249999987 -223.4281619500001 1
vertex 174.30998681741173 -223.61889231532592 0
vertex 174.6195225000006 -223.42816194999963 0
endloop
endfacet
facet normal 0 0 -1
outer loop
vertex 190.7585950999999 -211.9455053000001 1
vertex 177.43058753440755 -221.4281403 1
vertex 177.4296879342451 -221.42878034915546 1
endloop
endfacet
facet normal 0 0 -1
outer loop
vertex 190.7585950999999 -211.9455053000001 1
vertex 177.4296879342451 -221.42878034915546 1
vertex 177.426989620941 -221.43070014999986 1
endloop
endfacet
facet normal 0 0 -1
outer loop
vertex 190.7585950999999 -211.9455053000001 1
vertex 177.426989620941 -221.43070014999986 1
vertex 174.61952249999987 -223.4281619500001 1
endloop
endfacet
facet normal 0 0 -1
outer loop
vertex 190.7585950999999 -211.9455053000001 1
vertex 174.61952249999987 -223.4281619500001 1
vertex 174.6195225000006 -223.42816194999963 0
endloop
endfacet
facet normal 0 0 -1
outer loop
vertex 190.7585950999999 -211.9455053000001 1
vertex 174.6195225000006 -223.42816194999963 0
vertex 177.42698962094073 -221.43070015000004 0
endloop
endfacet
facet normal 0 0 -1
outer loop
vertex 190.7585950999999 -211.9455053000001 1
vertex 177.42698962094073 -221.43070015000004 0
vertex 177.4296879342451 -221.42878034915546 0
endloop
endfacet
facet normal 0 0 -1
outer loop
vertex 190.7585950999999 -211.9455053000001 1
vertex 177.4296879342451 -221.42878034915546 0
vertex 177.4305875344075 -221.42814030000002 0
endloop
endfacet
facet normal 0 0 -1
outer loop
vertex 190.7585950999999 -211.9455053000001 1
vertex 177.4305875344075 -221.42814030000002 0
vertex 190.75859509999995 -211.94550530000004 0
endloop
endfacet
facet normal 0.6377081298361499 -0.7702780933798392 0
outer loop
vertex 191.06815151545513 -211.6892255946893 1
vertex 190.7585950999999 -211.9455053000001 1
vertex 190.75859509999995 -211.94550530000004 0
endloop
endfacet
facet normal 0.6377081298361499 -0.7702780933798392 0
outer loop
vertex 191.06815151545513 -211.6892255946893 1
vertex 190.75859509999995 -211.94550530000004 0
vertex 191.0681515154551 -211.68922559468933 0
endloop
endfacet
facet normal 0.7431692877043377 -0.669103437304747 0
outer loop
vertex 191.33704798692798 -211.3905638511842 1
vertex 191.06815151545513 -211.6892255946893 1
vertex 191.0681515154551 -211.68922559468933 0
endloop
endfacet
facet normal 0.7431692877043377 -0.669103437304747 0
outer loop
vertex 191.33704798692798 -211.3905638511842 1
vertex 191.0681515154551 -211.68922559468933 0
vertex 191.3370479869279 -211.39056385118428 0
endloop
endfacet
facet normal 0.8327529171398848 -0.55364481302999 0
outer loop
vertex 191.55954443272748 -211.05590061596163 1
vertex 191.33704798692798 -211.3905638511842 1
vertex 191.3370479869279 -211.39056385118428 0
endloop
endfacet
facet normal 0.8327529171398848 -0.55364481302999 0
outer loop
vertex 191.55954443272748 -211.05590061596163 1
vertex 191.3370479869279 -211.39056385118428 0
vertex 191.55954443272773 -211.05590061596124 0
endloop
endfacet
facet normal 0.9045523414123687 -0.42636259409732674 0
outer loop
vertex 191.73088923642854 -210.692382930493 1
vertex 191.55954443272748 -211.05590061596163 1
vertex 191.55954443272773 -211.05590061596124 0
endloop
endfacet
facet normal 0.9045523414123687 -0.42636259409732674 0
outer loop
vertex 191.73088923642854 -210.692382930493 1
vertex 191.55954443272773 -211.05590061596124 0
vertex 191.7308892364284 -210.69238293049347 0
endloop
endfacet
facet normal 0.9570342177191284 -0.2899750094658777 0
outer loop
vertex 191.84742317201042 -210.30777404960094 1
vertex 191.73088923642854 -210.692382930493 1
vertex 191.7308892364284 -210.69238293049347 0
endloop
endfacet
facet normal 0.9570342177191284 -0.2899750094658777 0
outer loop
vertex 191.84742317201042 -210.30777404960094 1
vertex 191.7308892364284 -210.69238293049347 0
vertex 191.84742317201042 -210.30777404960094 0
endloop
endfacet
facet normal 0.9890777472777578 -0.1473947415614139 0
outer loop
vertex 191.90665755 -209.91028765000007 1
vertex 191.84742317201042 -210.30777404960094 1
vertex 191.84742317201042 -210.30777404960094 0
endloop
endfacet
facet normal 0.9890777472777578 -0.1473947415614139 0
outer loop
vertex 191.90665755 -209.91028765000007 1
vertex 191.84742317201042 -210.30777404960094 0
vertex 191.90665755000003 -209.91028764999984 0
endloop
endfacet
facet normal 0.9972034383257867 -0.07473488202458609 0
outer loop
vertex 193.6165536 -187.09478069999997 1
vertex 191.90665755 -209.91028765000007 1
vertex 191.90665755000003 -209.91028764999984 0
endloop
endfacet
facet normal 0.9972034383257867 -0.07473488202458609 0
outer loop
vertex 193.6165536 -187.09478069999997 1
vertex 191.90665755000003 -209.91028764999984 0
vertex 193.61655360000003 -187.0947806999998 0
endloop
endfacet
facet normal 0.9999445133492644 -0.010534240490073895 0
outer loop
vertex 193.62027485369435 -186.74154714529345 1
vertex 193.6165536 -187.09478069999997 1
vertex 193.61655360000003 -187.0947806999998 0
endloop
endfacet
facet normal 0.9999445133492644 -0.010534240490073895 0
outer loop
vertex 193.62027485369435 -186.74154714529345 1
vertex 193.61655360000003 -187.0947806999998 0
vertex 193.62027485369438 -186.7415471452937 0
endloop
endfacet
facet normal 0.9930455431134668 0.11773083411952703 0
outer loop
vertex 193.57868610400772 -186.39075100230474 1
vertex 193.62027485369435 -186.74154714529345 1
vertex 193.62027485369438 -186.7415471452937 0
endloop
endfacet
facet normal 0.9930455431134668 0.11773083411952703 0
outer loop
vertex 193.57868610400772 -186.39075100230474 1
vertex 193.62027485369438 -186.7415471452937 0
vertex 193.57868610400772 -186.39075100230463 0
endloop
endfacet
facet normal 0.9697605468938914 0.2440583571362814 0
outer loop
vertex 193.4924718000001 -186.0481803500003 1
vertex 193.57868610400772 -186.39075100230474 1
vertex 193.57868610400772 -186.39075100230463 0
endloop
endfacet
facet normal 0.9697605468938914 0.2440583571362814 0
outer loop
vertex 193.4924718000001 -186.0481803500003 1
vertex 193.57868610400772 -186.39075100230463 0
vertex 193.49247180000012 -186.04818035000037 0
endloop
endfacet
facet normal 0 0 -1
outer loop
vertex 186.92375219999994 -165.6002770999999 1
vertex 186.9439776107832 -165.66323719999986 1
vertex 187.05085748239705 -165.99594576532394 1
endloop
endfacet
facet normal 0 0 -1
outer loop
vertex 186.92375219999994 -165.6002770999999 1
vertex 187.05085748239705 -165.99594576532394 1
vertex 187.15684902246826 -166.3258890249958 1
endloop
endfacet
facet normal 0 0 -1
outer loop
vertex 186.92375219999994 -165.6002770999999 1
vertex 187.15684902246826 -166.3258890249958 1
vertex 187.26040115421952 -166.64823859999996 1
endloop
endfacet
facet normal 0 0 -1
outer loop
vertex 186.92375219999994 -165.6002770999999 1
vertex 187.26040115421952 -166.64823859999996 1
vertex 193.4924718000001 -186.0481803500003 1
endloop
endfacet
facet normal 0 0 -1
outer loop
vertex 186.92375219999994 -165.6002770999999 1
vertex 193.4924718000001 -186.0481803500003 1
vertex 193.49247180000012 -186.04818035000037 0
endloop
endfacet
facet normal 0 0 -1
outer loop
vertex 186.92375219999994 -165.6002770999999 1
vertex 193.49247180000012 -186.04818035000037 0
vertex 187.2604011542195 -166.64823859999984 0
endloop
endfacet
facet normal 0 0 -1
outer loop
vertex 186.92375219999994 -165.6002770999999 1
vertex 187.2604011542195 -166.64823859999984 0
vertex 187.15684902246826 -166.32588902499583 0
endloop
endfacet
facet normal 0 0 -1
outer loop
vertex 186.92375219999994 -165.6002770999999 1
vertex 187.15684902246826 -166.32588902499583 0
vertex 187.05085748239705 -165.9959457653239 0
endloop
endfacet
facet normal 0 0 -1
outer loop
vertex 186.92375219999994 -165.6002770999999 1
vertex 187.05085748239705 -165.9959457653239 0
vertex 186.94397761078324 -165.66323719999994 0
endloop
endfacet
facet normal 0 0 -1
outer loop
vertex 186.92375219999994 -165.6002770999999 1
vertex 186.94397761078324 -165.66323719999994 0
vertex 186.9237521999999 -165.6002770999998 0
endloop
endfacet
facet normal 0.9688397807801858 0.24768827016595185 0
outer loop
vertex 186.84134116620595 -165.2779239749959 1
vertex 186.92375219999994 -165.6002770999999 1
vertex 186.9237521999999 -165.6002770999998 0
endloop
endfacet
facet normal 0.9688397807801858 0.24768827016595185 0
outer loop
vertex 186.84134116620595 -165.2779239749959 1
vertex 186.9237521999999 -165.6002770999998 0
vertex 186.84134116620595 -165.27792397499596 0
endloop
endfacet
facet normal 0.9916594780130892 0.1288855293149991 0
outer loop
vertex 186.7984585914819 -164.94798071532415 1
vertex 186.84134116620595 -165.2779239749959 1
vertex 186.84134116620595 -165.27792397499596 0
endloop
endfacet
facet normal 0.9916594780130892 0.1288855293149991 0
outer loop
vertex 186.7984585914819 -164.94798071532415 1
vertex 186.84134116620595 -165.27792397499596 0
vertex 186.7984585914819 -164.94798071532418 0
endloop
endfacet
facet normal 0.999966522197261 0.008182572010980493 0
outer loop
vertex 186.79573610000003 -164.61527354999933 1
vertex 186.7984585914819 -164.94798071532415 1
vertex 186.7984585914819 -164.94798071532418 0
endloop
endfacet
facet normal 0.999966522197261 0.008182572010980493 0
outer loop
vertex 186.79573610000003 -164.61527354999933 1
vertex 186.7984585914819 -164.94798071532418 0
vertex 186.79573610000003 -164.6152735499991 0
endloop
endfacet
facet normal 0.9986295315757703 -0.0523360168980958 0
outer loop
vertex 192.11739599999999 -63.07207160000017 1
vertex 186.79573610000003 -164.61527354999933 1
vertex 186.79573610000003 -164.6152735499991 0
endloop
endfacet
facet normal 0.9986295315757703 -0.0523360168980958 0
outer loop
vertex 192.11739599999999 -63.07207160000017 1
vertex 186.79573610000003 -164.6152735499991 0
vertex 192.11739599999999 -63.072071600000285 0
endloop
endfacet
facet normal 0.999390666293005 0.0349040989917171 0
outer loop
vertex 192.10066464009756 -62.593011392061484 1
vertex 192.11739599999999 -63.07207160000017 1
vertex 192.11739599999999 -63.072071600000285 0
endloop
endfacet
facet normal 0.999390666293005 0.0349040989917171 0
outer loop
vertex 192.10066464009756 -62.593011392061484 1
vertex 192.11739599999999 -63.072071600000285 0
vertex 192.10066464009753 -62.59301139206141 0
endloop
endfacet
facet normal 0.9781480223594415 0.2079097072152081 0
outer loop
vertex 192.00100179419368 -62.124129890907255 1
vertex 192.10066464009756 -62.593011392061484 1
vertex 192.10066464009753 -62.59301139206141 0
endloop
endfacet
facet normal 0.9781480223594415 0.2079097072152081 0
outer loop
vertex 192.00100179419368 -62.124129890907255 1
vertex 192.10066464009753 -62.59301139206141 0
vertex 192.00100179419366 -62.12412989090723 0
endloop
endfacet
facet normal 0.9271846414369999 0.3746046458379048 0
outer loop
vertex 191.82143266491593 -61.67967801185988 1
vertex 192.00100179419368 -62.124129890907255 1
vertex 192.00100179419366 -62.12412989090723 0
endloop
endfacet
facet normal 0.9271846414369999 0.3746046458379048 0
outer loop
vertex 191.82143266491593 -61.67967801185988 1
vertex 192.00100179419366 -62.12412989090723 0
vertex 191.82143266491593 -61.67967801185989 0
endloop
endfacet
facet normal 0.8480492477443808 0.5299174213027816 0
outer loop
vertex 191.5674133648626 -61.27316018915238 1
vertex 191.82143266491593 -61.67967801185988 1
vertex 191.82143266491593 -61.67967801185989 0
endloop
endfacet
facet normal 0.8480492477443808 0.5299174213027816 0
outer loop
vertex 191.5674133648626 -61.27316018915238 1
vertex 191.82143266491593 -61.67967801185989 0
vertex 191.5674133648626 -61.27316018915238 0
endloop
endfacet
facet normal 0.7431463281789275 0.6691289374359607 0
outer loop
vertex 191.24666213552007 -60.916928250868324 1
vertex 191.5674133648626 -61.27316018915238 1
vertex 191.5674133648626 -61.27316018915238 0
endloop
endfacet
facet normal 0.7431463281789275 0.6691289374359607 0
outer loop
vertex 191.24666213552007 -60.916928250868324 1
vertex 191.5674133648626 -61.27316018915238 0
vertex 191.24666213552007 -60.916928250868295 0
endloop
endfacet
facet normal 0.6156633022226213 0.7880093262749733 0
outer loop
vertex 190.86892483259507 -60.62180611520678 1
vertex 191.24666213552007 -60.916928250868324 1
vertex 191.24666213552007 -60.916928250868295 0
endloop
endfacet
facet normal 0.6156633022226213 0.7880093262749733 0
outer loop
vertex 190.86892483259507 -60.62180611520678 1
vertex 191.24666213552007 -60.916928250868295 0
vertex 190.86892483259516 -60.62180611520682 0
endloop
endfacet
facet normal 0 0 1
outer loop
vertex 190.44567880336717 -60.39676091147861 1
vertex 190.84009869958737 -60.606478899999956 1
vertex 190.85189458756244 -60.61275092106851 1
endloop
endfacet
facet normal 0 0 1
outer loop
vertex 190.44567880336717 -60.39676091147861 1
vertex 190.85189458756244 -60.61275092106851 1
vertex 190.86040205906878 -60.61727445000001 1
endloop
endfacet
facet normal 0 0 1
outer loop
vertex 190.44567880336717 -60.39676091147861 1
vertex 190.86040205906878 -60.61727445000001 1
vertex 190.86892483259507 -60.62180611520678 1
endloop
endfacet
facet normal 0 0 1
outer loop
vertex 190.44567880336717 -60.39676091147861 1
vertex 190.86892483259507 -60.62180611520678 1
vertex 190.86892483259516 -60.62180611520682 0
endloop
endfacet
facet normal 0 0 1
outer loop
vertex 190.44567880336717 -60.39676091147861 1
vertex 190.86892483259516 -60.62180611520682 0
vertex 190.8604020590688 -60.617274450000025 0
endloop
endfacet
facet normal 0 0 1
outer loop
vertex 190.44567880336717 -60.39676091147861 1
vertex 190.8604020590688 -60.617274450000025 0
vertex 190.85189458756244 -60.61275092106851 0
endloop
endfacet
facet normal 0 0 1
outer loop
vertex 190.44567880336717 -60.39676091147861 1
vertex 190.85189458756244 -60.61275092106851 0
vertex 190.8400986995875 -60.60647890000001 0
endloop
endfacet
facet normal 0 0 1
outer loop
vertex 190.44567880336717 -60.39676091147861 1
vertex 190.8400986995875 -60.60647890000001 0
vertex 190.44567880336714 -60.39676091147861 0
endloop
endfacet
facet normal 0.30901933739015996 0.9510557550001716 0
outer loop
vertex 189.98978415358772 -60.248630518645285 1
vertex 190.44567880336717 -60.39676091147861 1
vertex 190.44567880336714 -60.39676091147861 0
endloop
endfacet
facet normal 0.30901933739015996 0.9510557550001716 0
outer loop
vertex 189.98978415358772 -60.248630518645285 1
vertex 190.44567880336714 -60.39676091147861 0
vertex 189.98978415358772 -60.248630518645285 0
endloop
endfacet
facet normal 0.13917561248311475 0.9902677157667769 0
outer loop
vertex 189.51509300000004 -60.18191580000001 1
vertex 189.98978415358772 -60.248630518645285 1
vertex 189.98978415358772 -60.248630518645285 0
endloop
endfacet
facet normal 0.13917561248311475 0.9902677157667769 0
outer loop
vertex 189.51509300000004 -60.18191580000001 1
vertex 189.98978415358772 -60.248630518645285 0
vertex 189.51509299999998 -60.18191580000001 0
endloop
endfacet
facet normal 0.05233588581025118 0.9986295384457925 0
outer loop
vertex 177.80465159999954 -59.56819839999997 1
vertex 189.51509300000004 -60.18191580000001 1
vertex 189.51509299999998 -60.18191580000001 0
endloop
endfacet
facet normal 0.05233588581025118 0.9986295384457925 0
outer loop
vertex 177.80465159999954 -59.56819839999997 1
vertex 189.51509299999998 -60.18191580000001 0
vertex 177.80465160000116 -59.56819840000007 0
endloop
endfacet
facet normal 0.06110451272189721 0.998131373379787 0
outer loop
vertex 177.75625591103753 -59.56523566876966 1
vertex 177.80465159999954 -59.56819839999997 1
vertex 177.80465160000116 -59.56819840000007 0
endloop
endfacet
facet normal 0.06110451272189721 0.998131373379787 0
outer loop
vertex 177.75625591103753 -59.56523566876966 1
vertex 177.80465160000116 -59.56819840000007 0
vertex 177.75625591103775 -59.565235668769674 0
endloop
endfacet
facet normal 0.07870544106455668 0.996897915308701 0
outer loop
vertex 177.70791579999917 -59.56141919999993 1
vertex 177.75625591103753 -59.56523566876966 1
vertex 177.75625591103775 -59.565235668769674 0
endloop
endfacet
facet normal 0.07870544106455668 0.996897915308701 0
outer loop
vertex 177.70791579999917 -59.56141919999993 1
vertex 177.75625591103775 -59.565235668769674 0
vertex 177.70791579999866 -59.56141919999989 0
endloop
endfacet
facet normal 0.08751168885495986 0.9961634927629865 0
outer loop
vertex 154.9940950999985 -57.56603909999987 1
vertex 177.70791579999917 -59.56141919999993 1
vertex 177.70791579999866 -59.56141919999989 0
endloop
endfacet
facet normal 0.08751168885495986 0.9961634927629865 0
outer loop
vertex 154.9940950999985 -57.56603909999987 1
vertex 177.70791579999866 -59.56141919999989 0
vertex 154.99409510000112 -57.5660391000001 0
endloop
endfacet
facet normal 0.08127494101204036 0.9966917196222158 0
outer loop
vertex 154.96012341621778 -57.56326888876906 1
vertex 154.9940950999985 -57.56603909999987 1
vertex 154.99409510000112 -57.5660391000001 0
endloop
endfacet
facet normal 0.08127494101204036 0.9966917196222158 0
outer loop
vertex 154.96012341621778 -57.56326888876906 1
vertex 154.99409510000112 -57.5660391000001 0
vertex 154.96012341621724 -57.56326888876902 0
endloop
endfacet
facet normal 0.06892199564872215 0.9976220519394094 0
outer loop
vertex 154.9261175500021 -57.560919550000136 1
vertex 154.96012341621778 -57.56326888876906 1
vertex 154.96012341621724 -57.56326888876902 0
endloop
endfacet
facet normal 0.06892199564872215 0.9976220519394094 0
outer loop
vertex 154.9261175500021 -57.560919550000136 1
vertex 154.96012341621724 -57.56326888876902 0
vertex 154.92611755000175 -57.56091955000012 0
endloop
endfacet
facet normal 0.06279293075579064 0.9980265767238358 0
outer loop
vertex 132.5159299999994 -56.15093569999996 1
vertex 154.9261175500021 -57.560919550000136 1
vertex 154.92611755000175 -57.56091955000012 0
endloop
endfacet
facet normal 0.06279293075579064 0.9980265767238358 0
outer loop
vertex 132.5159299999994 -56.15093569999996 1
vertex 154.92611755000175 -57.56091955000012 0
vertex 132.51593000000193 -56.15093570000012 0
endloop
endfacet
facet normal 0.05843547430788476 0.9982911876513849 0
outer loop
vertex 132.49197067406976 -56.14953322886518 1
vertex 132.5159299999994 -56.15093569999996 1
vertex 132.51593000000193 -56.15093570000012 0
endloop
endfacet
facet normal 0.05843547430788476 0.9982911876513849 0
outer loop
vertex 132.49197067406976 -56.14953322886518 1
vertex 132.51593000000193 -56.15093570000012 0
vertex 132.49197067407013 -56.14953322886521 0
endloop
endfacet
facet normal 0.049796134125145386 0.998759402972603 0
outer loop
vertex 132.46799499999918 -56.14833784999996 1
vertex 132.49197067406976 -56.14953322886518 1
vertex 132.49197067407013 -56.14953322886521 0
endloop
endfacet
facet normal 0.049796134125145386 0.998759402972603 0
outer loop
vertex 132.46799499999918 -56.14833784999996 1
vertex 132.49197067407013 -56.14953322886521 0
vertex 132.46799499999935 -56.14833784999996 0
endloop
endfacet
facet normal 0.04536513745010495 0.998970472188309 0
outer loop
vertex 110.14875120000028 -55.13477880000001 1
vertex 132.46799499999918 -56.14833784999996 1
vertex 132.46799499999935 -56.14833784999996 0
endloop
endfacet
facet normal 0.04536513745010495 0.998970472188309 0
outer loop
vertex 110.14875120000028 -55.13477880000001 1
vertex 132.46799499999935 -56.14833784999996 0
vertex 110.14875120000019 -55.13477880000001 0
endloop
endfacet
facet normal 0.01881085551129047 0.9998230602036209 0
outer loop
vertex 110.00259528890109 -55.1320289957244 1
vertex 110.14875120000028 -55.13477880000001 1
vertex 110.14875120000019 -55.13477880000001 0
endloop
endfacet
facet normal 0.01881085551129047 0.9998230602036209 0
outer loop
vertex 110.00259528890109 -55.1320289957244 1
vertex 110.14875120000019 -55.13477880000001 0
vertex 110.00259528890115 -55.1320289957244 0
endloop
endfacet
facet normal -0.034376760283095116 0.9994089445029191 0
outer loop
vertex 109.85649560000014 -55.1370544 1
vertex 110.00259528890109 -55.1320289957244 1
vertex 110.00259528890115 -55.1320289957244 0
endloop
endfacet
facet normal -0.034376760283095116 0.9994089445029191 0
outer loop
vertex 109.85649560000014 -55.1370544 1
vertex 110.00259528890115 -55.1320289957244 0
vertex 109.85649560000003 -55.13705440000001 0
endloop
endfacet
facet normal -0.060906867401456566 0.9981434533689741 0
outer loop
vertex 87.55761880000095 -56.497735299999945 1
vertex 109.85649560000014 -55.1370544 1
vertex 109.85649560000003 -55.13705440000001 0
endloop
endfacet
facet normal -0.060906867401456566 0.9981434533689741 0
outer loop
vertex 87.55761880000095 -56.497735299999945 1
vertex 109.85649560000003 -55.13705440000001 0
vertex 87.55761879999876 -56.49773530000007 0
endloop
endfacet
facet normal -0.06533432345369762 0.9978634306250769 0
outer loop
vertex 87.53367211314176 -56.49930319049166 1
vertex 87.55761880000095 -56.497735299999945 1
vertex 87.55761879999876 -56.49773530000007 0
endloop
endfacet
facet normal -0.06533432345369762 0.9978634306250769 0
outer loop
vertex 87.53367211314176 -56.49930319049166 1
vertex 87.55761879999876 -56.49773530000007 0
vertex 87.53367211314244 -56.4993031904916 0
endloop
endfacet
facet normal -0.07394072539185005 0.9972626379888736 0
outer loop
vertex 87.50973939999892 -56.501077650000084 1
vertex 87.53367211314176 -56.49930319049166 1
vertex 87.53367211314244 -56.4993031904916 0
endloop
endfacet
facet normal -0.07394072539185005 0.9972626379888736 0
outer loop
vertex 87.50973939999892 -56.501077650000084 1
vertex 87.53367211314244 -56.4993031904916 0
vertex 87.5097393999998 -56.50107765000001 0
endloop
endfacet
facet normal -0.07831758785056313 0.9969284605393054 0
outer loop
vertex 65.12574349999961 -58.25953940000004 1
vertex 87.50973939999892 -56.501077650000084 1
vertex 87.5097393999998 -56.50107765000001 0
endloop
endfacet
facet normal -0.07831758785056313 0.9969284605393054 0
outer loop
vertex 65.12574349999961 -58.25953940000004 1
vertex 87.5097393999998 -56.50107765000001 0
vertex 65.12574350000033 -58.259539399999966 0
endloop
endfacet
facet normal -0.08445497451677399 0.9964272965346599 0
outer loop
vertex 65.09212797811095 -58.26238857731016 1
vertex 65.12574349999961 -58.25953940000004 1
vertex 65.12574350000033 -58.259539399999966 0
endloop
endfacet
facet normal -0.08445497451677399 0.9964272965346599 0
outer loop
vertex 65.09212797811095 -58.26238857731016 1
vertex 65.12574350000033 -58.259539399999966 0
vertex 65.0921279781117 -58.26238857731009 0
endloop
endfacet
facet normal -0.09680358763252168 0.9953035041742155 0
outer loop
vertex 65.05854675000184 -58.2656546999998 1
vertex 65.09212797811095 -58.26238857731016 1
vertex 65.0921279781117 -58.26238857731009 0
endloop
endfacet
facet normal -0.09680358763252168 0.9953035041742155 0
outer loop
vertex 65.05854675000184 -58.2656546999998 1
vertex 65.0921279781117 -58.26238857731009 0
vertex 65.05854674999969 -58.26565470000003 0
endloop
endfacet
facet normal 0 0 1
outer loop
vertex 42.39790710000038 -60.606478899999956 1
vertex 52.44911054625726 -59.56819839999997 1
vertex 52.47779163422187 -59.56523566876966 1
endloop
endfacet
facet normal 0 0 1
outer loop
vertex 42.39790710000038 -60.606478899999956 1
vertex 52.47779163422187 -59.56523566876966 1
vertex 52.51473743456275 -59.56141919999993 1
endloop
endfacet
facet normal 0 0 1
outer loop
vertex 42.39790710000038 -60.606478899999956 1
vertex 52.51473743456275 -59.56141919999993 1
vertex 65.05854675000184 -58.2656546999998 1
endloop
endfacet
facet normal 0 0 1
outer loop
vertex 42.39790710000038 -60.606478899999956 1
vertex 65.05854675000184 -58.2656546999998 1
vertex 65.05854674999969 -58.26565470000003 0
endloop
endfacet
facet normal 0 0 1
outer loop
vertex 42.39790710000038 -60.606478899999956 1
vertex 65.05854674999969 -58.26565470000003 0
vertex 52.51473743456315 -59.56141919999989 0
endloop
endfacet
facet normal 0 0 1
outer loop
vertex 42.39790710000038 -60.606478899999956 1
vertex 52.51473743456315 -59.56141919999989 0
vertex 52.47779163422173 -59.565235668769674 0
endloop
endfacet
facet normal 0 0 1
outer loop
vertex 42.39790710000038 -60.606478899999956 1
vertex 52.47779163422173 -59.565235668769674 0
vertex 52.44911054625629 -59.56819840000007 0
endloop
endfacet
facet normal 0 0 1
outer loop
vertex 42.39790710000038 -60.606478899999956 1
vertex 52.44911054625629 -59.56819840000007 0
vertex 42.39790709999984 -60.60647890000001 0
endloop
endfacet
facet normal -0.09019468091815953 0.9959241535047092 0
outer loop
vertex 42.32865182674183 -60.61275092106851 1
vertex 42.39790710000038 -60.606478899999956 1
vertex 42.39790709999984 -60.60647890000001 0
endloop
endfacet
facet normal -0.09019468091815953 0.9959241535047092 0
outer loop
vertex 42.32865182674183 -60.61275092106851 1
vertex 42.39790709999984 -60.60647890000001 0
vertex 42.32865182674177 -60.61275092106851 0
endloop
endfacet
facet normal -0.06505345451316205 0.9978817806012413 0
outer loop
vertex 42.25926355000013 -60.61727445000001 1
vertex 42.32865182674183 -60.61275092106851 1
vertex 42.32865182674177 -60.61275092106851 0
endloop
endfacet
facet normal -0.06505345451316205 0.9978817806012413 0
outer loop
vertex 42.25926355000013 -60.61727445000001 1
vertex 42.32865182674177 -60.61275092106851 0
vertex 42.25926354999984 -60.617274450000025 0
endloop
endfacet
facet normal -0.05233523034543451 0.9986295727969858 0
outer loop
vertex 30.56985830000002 -61.22988169999999 1
vertex 42.25926355000013 -60.61727445000001 1
vertex 42.25926354999984 -60.617274450000025 0
endloop
endfacet
facet normal -0.05233523034543451 0.9986295727969858 0
outer loop
vertex 30.56985830000002 -61.22988169999999 1
vertex 42.25926354999984 -60.617274450000025 0
vertex 30.569858299999893 -61.22988170000002 0
endloop
endfacet
facet normal -0.13917268046449752 0.9902681278382774 0
outer loop
vertex 30.0951629964123 -61.29659556864527 1
vertex 30.56985830000002 -61.22988169999999 1
vertex 30.569858299999893 -61.22988170000002 0
endloop
endfacet
facet normal -0.13917268046449752 0.9902681278382774 0
outer loop
vertex 30.0951629964123 -61.29659556864527 1
vertex 30.569858299999893 -61.22988170000002 0
vertex 30.095162996412284 -61.29659556864527 0
endloop
endfacet
facet normal -0.30901933739016835 0.951055755000169 0
outer loop
vertex 29.639268346632832 -61.44472596147861 1
vertex 30.0951629964123 -61.29659556864527 1
vertex 30.095162996412284 -61.29659556864527 0
endloop
endfacet
facet normal -0.30901933739016835 0.951055755000169 0
outer loop
vertex 29.639268346632832 -61.44472596147861 1
vertex 30.095162996412284 -61.29659556864527 0
vertex 29.639268346632804 -61.44472596147861 0
endloop
endfacet
facet normal -0.4694736738948811 0.8829464703591283 0
outer loop
vertex 29.21602231740495 -61.669771165206754 1
vertex 29.639268346632832 -61.44472596147861 1
vertex 29.639268346632804 -61.44472596147861 0
endloop
endfacet
facet normal -0.4694736738948811 0.8829464703591283 0
outer loop
vertex 29.21602231740495 -61.669771165206754 1
vertex 29.639268346632804 -61.44472596147861 0
vertex 29.216022317404864 -61.66977116520681 0
endloop
endfacet
facet normal -0.6156633022226413 0.7880093262749576 0
outer loop
vertex 28.838285014479922 -61.96489330086831 1
vertex 29.21602231740495 -61.669771165206754 1
vertex 29.216022317404864 -61.66977116520681 0
endloop
endfacet
facet normal -0.6156633022226413 0.7880093262749576 0
outer loop
vertex 28.838285014479922 -61.96489330086831 1
vertex 29.216022317404864 -61.66977116520681 0
vertex 28.83828501447988 -61.96489330086834 0
endloop
endfacet
facet normal -0.7431463281789071 0.6691289374359836 0
outer loop
vertex 28.517533785137417 -62.32112523915235 1
vertex 28.838285014479922 -61.96489330086831 1
vertex 28.83828501447988 -61.96489330086834 0
endloop
endfacet
facet normal -0.7431463281789071 0.6691289374359836 0
outer loop
vertex 28.517533785137417 -62.32112523915235 1
vertex 28.83828501447988 -61.96489330086834 0
vertex 28.51753378513743 -62.32112523915234 0
endloop
endfacet
facet normal -0.8480492477443977 0.5299174213027549 0
outer loop
vertex 28.263514485084073 -62.727643061859894 1
vertex 28.517533785137417 -62.32112523915235 1
vertex 28.51753378513743 -62.32112523915234 0
endloop
endfacet
facet normal -0.8480492477443977 0.5299174213027549 0
outer loop
vertex 28.263514485084073 -62.727643061859894 1
vertex 28.51753378513743 -62.32112523915234 0
vertex 28.263514485084045 -62.727643061859936 0
endloop
endfacet
facet normal -0.9271846414369964 0.3746046458379133 0
outer loop
vertex 28.083945355806307 -63.1720949409073 1
vertex 28.263514485084073 -62.727643061859894 1
vertex 28.263514485084045 -62.727643061859936 0
endloop
endfacet
facet normal -0.9271846414369964 0.3746046458379133 0
outer loop
vertex 28.083945355806307 -63.1720949409073 1
vertex 28.263514485084045 -62.727643061859936 0
vertex 28.08394535580632 -63.17209494090727 0
endloop
endfacet
facet normal -0.9781480223594415 0.2079097072152081 0
outer loop
vertex 27.9842825099024 -63.64097644206157 1
vertex 28.083945355806307 -63.1720949409073 1
vertex 28.08394535580632 -63.17209494090727 0
endloop
endfacet
facet normal -0.9781480223594415 0.2079097072152081 0
outer loop
vertex 27.9842825099024 -63.64097644206157 1
vertex 28.08394535580632 -63.17209494090727 0
vertex 27.9842825099024 -63.640976442061614 0
endloop
endfacet
facet normal -0.999390895256321 0.03489754258926325 0
outer loop
vertex 27.967554149999998 -64.12004085000002 1
vertex 27.9842825099024 -63.64097644206157 1
vertex 27.9842825099024 -63.640976442061614 0
endloop
endfacet
facet normal -0.999390895256321 0.03489754258926325 0
outer loop
vertex 27.967554149999998 -64.12004085000002 1
vertex 27.9842825099024 -63.640976442061614 0
vertex 27.967554149999998 -64.12004085000007 0
endloop
endfacet
facet normal 0 0 1
outer loop
vertex 33.28920479999999 -165.66323719999986 1
vertex 33.285905202694295 -165.6002770999999 1
vertex 33.26901140006773 -165.2779239749959 1
endloop
endfacet
facet normal 0 0 1
outer loop
vertex 33.28920479999999 -165.66323719999986 1
vertex 33.26901140006773 -165.2779239749959 1
vertex 33.251719815545975 -164.94798071532415 1
endloop
endfacet
facet normal 0 0 1
outer loop
vertex 33.28920479999999 -165.66323719999986 1
vertex 33.251719815545975 -164.94798071532415 1
vertex 33.234283380942244 -164.61527354999933 1
endloop
endfacet
facet normal 0 0 1
outer loop
vertex 33.28920479999999 -165.66323719999986 1
vertex 33.234283380942244 -164.61527354999933 1
vertex 27.967554149999998 -64.12004085000002 1
endloop
endfacet
facet normal 0 0 1
outer loop
vertex 33.28920479999999 -165.66323719999986 1
vertex 27.967554149999998 -64.12004085000002 1
vertex 27.967554149999998 -64.12004085000007 0
endloop
endfacet
facet normal 0 0 1
outer loop
vertex 33.28920479999999 -165.66323719999986 1
vertex 27.967554149999998 -64.12004085000007 0
vertex 33.23428338094223 -164.6152735499991 0
endloop
endfacet
facet normal 0 0 1
outer loop
vertex 33.28920479999999 -165.66323719999986 1
vertex 33.23428338094223 -164.6152735499991 0
vertex 33.251719815545975 -164.94798071532418 0
endloop
endfacet
facet normal 0 0 1
outer loop
vertex 33.28920479999999 -165.66323719999986 1
vertex 33.251719815545975 -164.94798071532418 0
vertex 33.26901140006773 -165.27792397499596 0
endloop
endfacet
facet normal 0 0 1
outer loop
vertex 33.28920479999999 -165.66323719999986 1
vertex 33.26901140006773 -165.27792397499596 0
vertex 33.28590520269429 -165.6002770999998 0
endloop
endfacet
facet normal 0 0 1
outer loop
vertex 33.28920479999999 -165.66323719999986 1
vertex 33.28590520269429 -165.6002770999998 0
vertex 33.2892048 -165.66323719999994 0
endloop
endfacet
facet normal -0.9999665863878239 0.008174723719051258 0
outer loop
vertex 33.286484908518105 -165.99594576532394 1
vertex 33.28920479999999 -165.66323719999986 1
vertex 33.2892048 -165.66323719999994 0
endloop
endfacet
facet normal -0.9999665863878239 0.008174723719051258 0
outer loop
vertex 33.286484908518105 -165.99594576532394 1
vertex 33.2892048 -165.66323719999994 0
vertex 33.28648490851811 -165.9959457653239 0
endloop
endfacet
facet normal -0.9916594780130947 0.12888552931495673 0
outer loop
vertex 33.24360233379406 -166.3258890249958 1
vertex 33.286484908518105 -165.99594576532394 1
vertex 33.28648490851811 -165.9959457653239 0
endloop
endfacet
facet normal -0.9916594780130947 0.12888552931495673 0
outer loop
vertex 33.24360233379406 -166.3258890249958 1
vertex 33.28648490851811 -165.9959457653239 0
vertex 33.243602333794044 -166.32588902499583 0
endloop
endfacet
facet normal -0.9688363132636698 0.24770183306075946 0
outer loop
vertex 33.16118740000002 -166.64823859999996 1
vertex 33.24360233379406 -166.3258890249958 1
vertex 33.243602333794044 -166.32588902499583 0
endloop
endfacet
facet normal -0.9688363132636698 0.24770183306075946 0
outer loop
vertex 33.16118740000002 -166.64823859999996 1
vertex 33.243602333794044 -166.32588902499583 0
vertex 33.16118740000005 -166.64823859999984 0
endloop
endfacet
facet normal -0.9520805754542183 0.3058473113217844 0
outer loop
vertex 26.592481699999922 -187.09614470000025 1
vertex 33.16118740000002 -166.64823859999996 1
vertex 33.16118740000005 -166.64823859999984 0
endloop
endfacet
facet normal -0.9520805754542183 0.3058473113217844 0
outer loop
vertex 26.592481699999922 -187.09614470000025 1
vertex 33.16118740000005 -166.64823859999984 0
vertex 26.592481699999894 -187.09614470000037 0
endloop
endfacet
facet normal -0.9697591040409701 0.24406409020922099 0
outer loop
vertex 26.506264795980357 -187.4387171264622 1
vertex 26.592481699999922 -187.09614470000025 1
vertex 26.592481699999894 -187.09614470000037 0
endloop
endfacet
facet normal -0.9697591040409701 0.24406409020922099 0
outer loop
vertex 26.506264795980357 -187.4387171264622 1
vertex 26.592481699999894 -187.09614470000037 0
vertex 26.506264795980343 -187.43871712646228 0
endloop
endfacet
facet normal -0.9930433243481722 0.11774954763195919 0
outer loop
vertex 26.464669341716203 -187.7895132782177 1
vertex 26.506264795980357 -187.4387171264622 1
vertex 26.506264795980343 -187.43871712646228 0
endloop
endfacet
facet normal -0.9930433243481722 0.11774954763195919 0
outer loop
vertex 26.464669341716203 -187.7895132782177 1
vertex 26.506264795980343 -187.43871712646228 0
vertex 26.464669341716203 -187.7895132782177 0
endloop
endfacet
facet normal -0.9999446549244887 -0.010520793123404815 0
outer loop
vertex 26.468385850000004 -188.14274735000012 1
vertex 26.464669341716203 -187.7895132782177 1
vertex 26.464669341716203 -187.7895132782177 0
endloop
endfacet
facet normal -0.9999446549244887 -0.010520793123404815 0
outer loop
vertex 26.468385850000004 -188.14274735000012 1
vertex 26.464669341716203 -187.7895132782177 0
vertex 26.468385850000004 -188.14274734999995 0
endloop
endfacet
endsolid csg.js
