solid csg.js
facet normal 0 0 -1
outer loop
vertex 110.1487512 -55.13477879999999 0
vertex 132.4679950000003 -56.14833785000002 0
vertex 132.49197067406948 -56.14953322886517 0
endloop
endfacet
facet normal 0 0 -1
outer loop
vertex 110.1487512 -55.13477879999999 0
vertex 132.49197067406948 -56.14953322886517 0
vertex 132.51593000000045 -56.15093570000003 0
endloop
endfacet
facet normal 0 0 -1
outer loop
vertex 110.1487512 -55.13477879999999 0
vertex 132.51593000000045 -56.15093570000003 0
vertex 154.92611755000004 -57.56091955000001 0
endloop
endfacet
facet normal 0 0 -1
outer loop
vertex 110.1487512 -55.13477879999999 0
vertex 154.92611755000004 -57.56091955000001 0
vertex 154.96012341621784 -57.56326888876907 0
endloop
endfacet
facet normal 0 0 -1
outer loop
vertex 110.1487512 -55.13477879999999 0
vertex 154.96012341621784 -57.56326888876907 0
vertex 154.99409510000115 -57.5660391000001 0
endloop
endfacet
facet normal 0 0 -1
outer loop
vertex 110.1487512 -55.13477879999999 0
vertex 154.99409510000115 -57.5660391000001 0
vertex 177.7079158000001 -59.56141920000002 0
endloop
endfacet
facet normal 0 0 -1
outer loop
vertex 110.1487512 -55.13477879999999 0
vertex 177.7079158000001 -59.56141920000002 0
vertex 52.51473743456185 -59.56141920000002 0
endloop
endfacet
facet normal 0 0 -1
outer loop
vertex 110.1487512 -55.13477879999999 0
vertex 52.51473743456185 -59.56141920000002 0
vertex 65.05854674999871 -58.26565470000011 0
endloop
endfacet
facet normal 0 0 -1
outer loop
vertex 110.1487512 -55.13477879999999 0
vertex 65.05854674999871 -58.26565470000011 0
vertex 65.09212797811072 -58.26238857731019 0
endloop
endfacet
facet normal 0 0 -1
outer loop
vertex 110.1487512 -55.13477879999999 0
vertex 65.09212797811072 -58.26238857731019 0
vertex 65.12574350000163 -58.25953939999988 0
endloop
endfacet
facet normal 0 0 -1
outer loop
vertex 110.1487512 -55.13477879999999 0
vertex 65.12574350000163 -58.25953939999988 0
vertex 87.50973939999979 -56.50107765000001 0
endloop
endfacet
facet normal 0 0 -1
outer loop
vertex 110.1487512 -55.13477879999999 0
vertex 87.50973939999979 -56.50107765000001 0
vertex 87.53367211314243 -56.4993031904916 0
endloop
endfacet
facet normal 0 0 -1
outer loop
vertex 110.1487512 -55.13477879999999 0
vertex 87.53367211314243 -56.4993031904916 0
vertex 87.5576188000004 -56.497735299999974 0
endloop
endfacet
facet normal 0 0 -1
outer loop
vertex 110.1487512 -55.13477879999999 0
vertex 87.5576188000004 -56.497735299999974 0
vertex 109.85649559999986 -55.13705440000001 0
endloop
endfacet
facet normal 0 0 -1
outer loop
vertex 110.1487512 -55.13477879999999 0
vertex 109.85649559999986 -55.13705440000001 0
vertex 110.00259528890123 -55.1320289957244 0
endloop
endfacet
facet normal 0 0 -1
outer loop
vertex 177.7079158000001 -59.56141920000002 0
vertex 177.7562559110374 -59.56523566876966 0
vertex 52.47779163422181 -59.56523566876966 0
endloop
endfacet
facet normal 0 0 -1
outer loop
vertex 177.7079158000001 -59.56141920000002 0
vertex 52.47779163422181 -59.56523566876966 0
vertex 52.51473743456185 -59.56141920000002 0
endloop
endfacet
facet normal 0 0 -1
outer loop
vertex 177.7562559110374 -59.56523566876966 0
vertex 177.80465159999858 -59.568198399999915 0
vertex 52.44911054625774 -59.568198399999915 0
endloop
endfacet
facet normal 0 0 -1
outer loop
vertex 177.7562559110374 -59.56523566876966 0
vertex 52.44911054625774 -59.568198399999915 0
vertex 52.47779163422181 -59.56523566876966 0
endloop
endfacet
facet normal 0 0 -1
outer loop
vertex 177.80465159999858 -59.568198399999915 0
vertex 189.51509299999998 -60.18191580000001 0
vertex 189.98978415358772 -60.248630518645285 0
endloop
endfacet
facet normal 0 0 -1
outer loop
vertex 177.80465159999858 -59.568198399999915 0
vertex 189.98978415358772 -60.248630518645285 0
vertex 190.44567880336714 -60.39676091147861 0
endloop
endfacet
facet normal 0 0 -1
outer loop
vertex 177.80465159999858 -59.568198399999915 0
vertex 190.44567880336714 -60.39676091147861 0
vertex 190.84009869958763 -60.606478900000084 0
endloop
endfacet
facet normal 0 0 -1
outer loop
vertex 177.80465159999858 -59.568198399999915 0
vertex 190.84009869958763 -60.606478900000084 0
vertex 42.39790709999916 -60.606478900000084 0
endloop
endfacet
facet normal 0 0 -1
outer loop
vertex 177.80465159999858 -59.568198399999915 0
vertex 42.39790709999916 -60.606478900000084 0
vertex 52.44911054625774 -59.568198399999915 0
endloop
endfacet
facet normal 0 0 -1
outer loop
vertex 190.84009869958763 -60.606478900000084 0
vertex 190.85189458756238 -60.61275092106848 0
vertex 42.32865182674224 -60.61275092106848 0
endloop
endfacet
facet normal 0 0 -1
outer loop
vertex 190.84009869958763 -60.606478900000084 0
vertex 42.32865182674224 -60.61275092106848 0
vertex 42.39790709999916 -60.606478900000084 0
endloop
endfacet
facet normal 0 0 -1
outer loop
vertex 190.85189458756238 -60.61275092106848 0
vertex 190.8604020590688 -60.617274450000025 0
vertex 42.259263549999865 -60.617274450000025 0
endloop
endfacet
facet normal 0 0 -1
outer loop
vertex 190.85189458756238 -60.61275092106848 0
vertex 42.259263549999865 -60.617274450000025 0
vertex 42.32865182674224 -60.61275092106848 0
endloop
endfacet
facet normal 0 0 -1
outer loop
vertex 190.8604020590688 -60.617274450000025 0
vertex 190.86892483259516 -60.62180611520682 0
vertex 191.24666213551998 -60.91692825086821 0
endloop
endfacet
facet normal 0 0 -1
outer loop
vertex 190.8604020590688 -60.617274450000025 0
vertex 191.24666213551998 -60.91692825086821 0
vertex 191.56741336486257 -61.27316018915238 0
endloop
endfacet
facet normal 0 0 -1
outer loop
vertex 190.8604020590688 -60.617274450000025 0
vertex 191.56741336486257 -61.27316018915238 0
vertex 191.8214326649159 -61.67967801185986 0
endloop
endfacet
facet normal 0 0 -1
outer loop
vertex 190.8604020590688 -60.617274450000025 0
vertex 191.8214326649159 -61.67967801185986 0
vertex 192.00100179419366 -62.1241298909072 0
endloop
endfacet
facet normal 0 0 -1
outer loop
vertex 190.8604020590688 -60.617274450000025 0
vertex 192.00100179419366 -62.1241298909072 0
vertex 192.10066464009756 -62.593011392061555 0
endloop
endfacet
facet normal 0 0 -1
outer loop
vertex 190.8604020590688 -60.617274450000025 0
vertex 192.10066464009756 -62.593011392061555 0
vertex 192.117396 -63.07207160000043 0
endloop
endfacet
facet normal 0 0 -1
outer loop
vertex 190.8604020590688 -60.617274450000025 0
vertex 192.117396 -63.07207160000043 0
vertex 186.79573609999997 -164.61527355000064 0
endloop
endfacet
facet normal 0 0 -1
outer loop
vertex 190.8604020590688 -60.617274450000025 0
vertex 186.79573609999997 -164.61527355000064 0
vertex 33.23428338094231 -164.61527355000064 0
endloop
endfacet
facet normal 0 0 -1
outer loop
vertex 190.8604020590688 -60.617274450000025 0
vertex 33.23428338094231 -164.61527355000064 0
vertex 27.967554149999998 -64.12004085000007 0
endloop
endfacet
facet normal 0 0 -1
outer loop
vertex 190.8604020590688 -60.617274450000025 0
vertex 27.967554149999998 -64.12004085000007 0
vertex 27.9842825099024 -63.640976442061614 0
endloop
endfacet
facet normal 0 0 -1
outer loop
vertex 190.8604020590688 -60.617274450000025 0
vertex 27.9842825099024 -63.640976442061614 0
vertex 28.08394535580632 -63.17209494090727 0
endloop
endfacet
facet normal 0 0 -1
outer loop
vertex 190.8604020590688 -60.617274450000025 0
vertex 28.08394535580632 -63.17209494090727 0
vertex 28.263514485084045 -62.727643061859936 0
endloop
endfacet
facet normal 0 0 -1
outer loop
vertex 190.8604020590688 -60.617274450000025 0
vertex 28.263514485084045 -62.727643061859936 0
vertex 28.51753378513743 -62.32112523915234 0
endloop
endfacet
facet normal 0 0 -1
outer loop
vertex 190.8604020590688 -60.617274450000025 0
vertex 28.51753378513743 -62.32112523915234 0
vertex 28.838285014479936 -61.9648933008683 0
endloop
endfacet
facet normal 0 0 -1
outer loop
vertex 190.8604020590688 -60.617274450000025 0
vertex 28.838285014479936 -61.9648933008683 0
vertex 29.216022317404963 -61.669771165206754 0
endloop
endfacet
facet normal 0 0 -1
outer loop
vertex 190.8604020590688 -60.617274450000025 0
vertex 29.216022317404963 -61.669771165206754 0
vertex 29.63926834663276 -61.44472596147864 0
endloop
endfacet
facet normal 0 0 -1
outer loop
vertex 190.8604020590688 -60.617274450000025 0
vertex 29.63926834663276 -61.44472596147864 0
vertex 30.095162996412313 -61.29659556864527 0
endloop
endfacet
facet normal 0 0 -1
outer loop
vertex 190.8604020590688 -60.617274450000025 0
vertex 30.095162996412313 -61.29659556864527 0
vertex 30.56985829999985 -61.22988170000002 0
endloop
endfacet
facet normal 0 0 -1
outer loop
vertex 190.8604020590688 -60.617274450000025 0
vertex 30.56985829999985 -61.22988170000002 0
vertex 42.259263549999865 -60.617274450000025 0
endloop
endfacet
facet normal 0 0 -1
outer loop
vertex 186.79573609999997 -164.61527355000064 0
vertex 186.79845859148185 -164.9479807153239 0
vertex 33.25171981554596 -164.9479807153239 0
endloop
endfacet
facet normal 0 0 -1
outer loop
vertex 186.79573609999997 -164.61527355000064 0
vertex 33.25171981554596 -164.9479807153239 0
vertex 33.23428338094231 -164.61527355000064 0
endloop
endfacet
facet normal 0 0 -1
outer loop
vertex 186.79845859148185 -164.9479807153239 0
vertex 186.84134116620592 -165.27792397499573 0
vertex 33.26901140006772 -165.27792397499573 0
endloop
endfacet
facet normal 0 0 -1
outer loop
vertex 186.79845859148185 -164.9479807153239 0
vertex 33.26901140006772 -165.27792397499573 0
vertex 33.25171981554596 -164.9479807153239 0
endloop
endfacet
facet normal 0 0 -1
outer loop
vertex 186.84134116620592 -165.27792397499573 0
vertex 186.9237522 -165.60027710000003 0
vertex 33.285905202694295 -165.60027710000003 0
endloop
endfacet
facet normal 0 0 -1
outer loop
vertex 186.84134116620592 -165.27792397499573 0
vertex 33.285905202694295 -165.60027710000003 0
vertex 33.26901140006772 -165.27792397499573 0
endloop
endfacet
facet normal 0 0 -1
outer loop
vertex 186.9237522 -165.60027710000003 0
vertex 186.94397758459215 -165.6632371999999 0
vertex 33.28920479999999 -165.6632371999999 0
endloop
endfacet
facet normal 0 0 -1
outer loop
vertex 186.9237522 -165.60027710000003 0
vertex 33.28920479999999 -165.6632371999999 0
vertex 33.285905202694295 -165.60027710000003 0
endloop
endfacet
facet normal 0 0 -1
outer loop
vertex 186.94397758459215 -165.6632371999999 0
vertex 187.05085731780082 -165.995945765324 0
vertex 33.28648490851811 -165.995945765324 0
endloop
endfacet
facet normal 0 0 -1
outer loop
vertex 186.94397758459215 -165.6632371999999 0
vertex 33.28648490851811 -165.995945765324 0
vertex 33.28920479999999 -165.6632371999999 0
endloop
endfacet
facet normal 0 0 -1
outer loop
vertex 187.05085731780082 -165.995945765324 0
vertex 187.15684872061718 -166.32588902499566 0
vertex 33.24360233379408 -166.32588902499566 0
endloop
endfacet
facet normal 0 0 -1
outer loop
vertex 187.05085731780082 -165.995945765324 0
vertex 33.24360233379408 -166.32588902499566 0
vertex 33.28648490851811 -165.995945765324 0
endloop
endfacet
facet normal 0 0 -1
outer loop
vertex 187.15684872061718 -166.32588902499566 0
vertex 187.26040071827273 -166.6482386000002 0
vertex 33.161187399999946 -166.6482386000002 0
endloop
endfacet
facet normal 0 0 -1
outer loop
vertex 187.15684872061718 -166.32588902499566 0
vertex 33.161187399999946 -166.6482386000002 0
vertex 33.24360233379408 -166.32588902499566 0
endloop
endfacet
facet normal 0 0 -1
outer loop
vertex 187.26040071827273 -166.6482386000002 0
vertex 193.49324905000012 -186.0506263500005 0
vertex 193.5791683573713 -186.39157265178446 0
endloop
endfacet
facet normal 0 0 -1
outer loop
vertex 187.26040071827273 -166.6482386000002 0
vertex 193.5791683573713 -186.39157265178446 0
vertex 193.6208823277291 -186.74069505547172 0
endloop
endfacet
facet normal 0 0 -1
outer loop
vertex 187.26040071827273 -166.6482386000002 0
vertex 193.6208823277291 -186.74069505547172 0
vertex 193.61770810000002 -187.09228269999988 0
endloop
endfacet
facet normal 0 0 -1
outer loop
vertex 187.26040071827273 -166.6482386000002 0
vertex 193.61770810000002 -187.09228269999988 0
vertex 191.10675739815963 -221.42813028738183 0
endloop
endfacet
facet normal 0 0 -1
outer loop
vertex 187.26040071827273 -166.6482386000002 0
vertex 191.10675739815963 -221.42813028738183 0
vertex 114.77668899999767 -221.42814154999996 0
endloop
endfacet
facet normal 0 0 -1
outer loop
vertex 187.26040071827273 -166.6482386000002 0
vertex 114.77668899999767 -221.42814154999996 0
vertex 105.24745460000278 -221.42814154999996 0
endloop
endfacet
facet normal 0 0 -1
outer loop
vertex 187.26040071827273 -166.6482386000002 0
vertex 105.24745460000278 -221.42814154999996 0
vertex 28.901550803145383 -221.42814154999996 0
endloop
endfacet
facet normal 0 0 -1
outer loop
vertex 187.26040071827273 -166.6482386000002 0
vertex 28.901550803145383 -221.42814154999996 0
vertex 26.467236900000003 -188.14025379999995 0
endloop
endfacet
facet normal 0 0 -1
outer loop
vertex 187.26040071827273 -166.6482386000002 0
vertex 26.467236900000003 -188.14025379999995 0
vertex 26.464063622270885 -187.78866250547176 0
endloop
endfacet
facet normal 0 0 -1
outer loop
vertex 187.26040071827273 -166.6482386000002 0
vertex 26.464063622270885 -187.78866250547176 0
vertex 26.505777592628732 -187.43954010178425 0
endloop
endfacet
facet normal 0 0 -1
outer loop
vertex 187.26040071827273 -166.6482386000002 0
vertex 26.505777592628732 -187.43954010178425 0
vertex 26.5916938 -187.0985976 0
endloop
endfacet
facet normal 0 0 -1
outer loop
vertex 187.26040071827273 -166.6482386000002 0
vertex 26.5916938 -187.0985976 0
vertex 33.161187399999946 -166.6482386000002 0
endloop
endfacet
facet normal 0 0 -1
outer loop
vertex 105.24745460000278 -221.42814154999996 0
vertex 105.16094180491206 -221.42950107527415 0
vertex 28.901650224030885 -221.42950107527415 0
endloop
endfacet
facet normal 0 0 -1
outer loop
vertex 105.24745460000278 -221.42814154999996 0
vertex 28.901650224030885 -221.42950107527415 0
vertex 28.901550803145383 -221.42814154999996 0
endloop
endfacet
facet normal 0 0 -1
outer loop
vertex 115.04651377382581 -221.4314601500001 0
vertex 114.91170450000207 -221.4314601500001 0
vertex 114.84421488497688 -221.42897111996538 0
endloop
endfacet
facet normal 0 0 -1
outer loop
vertex 105.16094180491206 -221.42950107527415 0
vertex 105.07451919999838 -221.4335831000001 0
vertex 28.90194873890266 -221.4335831000001 0
endloop
endfacet
facet normal 0 0 -1
outer loop
vertex 105.16094180491206 -221.42950107527415 0
vertex 28.90194873890266 -221.4335831000001 0
vertex 28.901650224030885 -221.42950107527415 0
endloop
endfacet
facet normal 0 0 1
outer loop
vertex 191.03813960447383 -222.3664402685574 0
vertex 115.04651377382581 -221.4314601500001 0
vertex 114.84421488497688 -221.42897111996538 0
endloop
endfacet
facet normal 0 0 1
outer loop
vertex 191.03813960447383 -222.3664402685574 0
vertex 114.84421488497688 -221.42897111996538 0
vertex 114.77668899999767 -221.42814154999996 0
endloop
endfacet
facet normal 0 0 1
outer loop
vertex 191.03813960447383 -222.3664402685574 0
vertex 114.77668899999767 -221.42814154999996 0
vertex 191.10675739815963 -221.42813028738183 0
endloop
endfacet
facet normal 0 0 -1
outer loop
vertex 115.04651377382581 -221.4314601500001 0
vertex 191.03813960447383 -222.3664402685574 0
vertex 191.02945044999998 -222.48525959999998 0
endloop
endfacet
facet normal 0 0 -1
outer loop
vertex 115.04651377382581 -221.4314601500001 0
vertex 191.02945044999998 -222.48525959999998 0
vertex 190.95473418878376 -222.9513951418768 0
endloop
endfacet
facet normal 0 0 -1
outer loop
vertex 115.04651377382581 -221.4314601500001 0
vertex 190.95473418878376 -222.9513951418768 0
vertex 190.8013938511377 -223.3978832200392 0
endloop
endfacet
facet normal 0 0 -1
outer loop
vertex 115.04651377382581 -221.4314601500001 0
vertex 190.8013938511377 -223.3978832200392 0
vertex 190.57394833601765 -223.81156594960717 0
endloop
endfacet
facet normal 0 0 -1
outer loop
vertex 115.04651377382581 -221.4314601500001 0
vertex 190.57394833601765 -223.81156594960717 0
vertex 190.2791004022457 -224.18025221059452 0
endloop
endfacet
facet normal 0 0 -1
outer loop
vertex 115.04651377382581 -221.4314601500001 0
vertex 190.2791004022457 -224.18025221059452 0
vertex 189.9255391399889 -224.4930769169751 0
endloop
endfacet
facet normal 0 0 -1
outer loop
vertex 115.04651377382581 -221.4314601500001 0
vertex 189.9255391399889 -224.4930769169751 0
vertex 189.5236839055849 -224.74082120787517 0
endloop
endfacet
facet normal 0 0 -1
outer loop
vertex 115.04651377382581 -221.4314601500001 0
vertex 189.5236839055849 -224.74082120787517 0
vertex 189.08537726588483 -224.91618412495026 0
endloop
endfacet
facet normal 0 0 -1
outer loop
vertex 115.04651377382581 -221.4314601500001 0
vertex 189.08537726588483 -224.91618412495026 0
vertex 188.6235360009528 -225.01399776968805 0
endloop
endfacet
facet normal 0 0 -1
outer loop
vertex 115.04651377382581 -221.4314601500001 0
vertex 188.6235360009528 -225.01399776968805 0
vertex 188.15177090000014 -225.0313792 0
endloop
endfacet
facet normal 0 0 -1
outer loop
vertex 115.04651377382581 -221.4314601500001 0
vertex 188.15177090000014 -225.0313792 0
vertex 114.91170450000207 -221.4314601500001 0
endloop
endfacet
facet normal 0 0 -1
outer loop
vertex 105.07451919999838 -221.4335831000001 0
vertex 31.96838484999995 -226.0399579 0
vertex 31.492228592700414 -226.02863442697443 0
endloop
endfacet
facet normal 0 0 -1
outer loop
vertex 105.07451919999838 -221.4335831000001 0
vertex 31.492228592700414 -226.02863442697443 0
vertex 31.025167807139937 -225.9353219144238 0
endloop
endfacet
facet normal 0 0 -1
outer loop
vertex 105.07451919999838 -221.4335831000001 0
vertex 31.025167807139937 -225.9353219144238 0
vertex 30.58121295831181 -225.7628194662998 0
endloop
endfacet
facet normal 0 0 -1
outer loop
vertex 105.07451919999838 -221.4335831000001 0
vertex 30.58121295831181 -225.7628194662998 0
vertex 30.17368140031698 -225.51630165427562 0
endloop
endfacet
facet normal 0 0 -1
outer loop
vertex 105.07451919999838 -221.4335831000001 0
vertex 30.17368140031698 -225.51630165427562 0
vertex 29.814797894478545 -225.20316329564767 0
endloop
endfacet
facet normal 0 0 -1
outer loop
vertex 105.07451919999838 -221.4335831000001 0
vertex 29.814797894478545 -225.20316329564767 0
vertex 29.515327902061557 -224.83279763032684 0
endloop
endfacet
facet normal 0 0 -1
outer loop
vertex 105.07451919999838 -221.4335831000001 0
vertex 29.515327902061557 -224.83279763032684 0
vertex 29.284254651748142 -224.41631455096302 0
endloop
endfacet
facet normal 0 0 -1
outer loop
vertex 105.07451919999838 -221.4335831000001 0
vertex 29.284254651748142 -224.41631455096302 0
vertex 29.12850966890811 -223.96620733848238 0
endloop
endfacet
facet normal 0 0 -1
outer loop
vertex 105.07451919999838 -221.4335831000001 0
vertex 29.12850966890811 -223.96620733848238 0
vertex 29.0527697 -223.4959758 0
endloop
endfacet
facet normal 0 0 -1
outer loop
vertex 105.07451919999838 -221.4335831000001 0
vertex 29.0527697 -223.4959758 0
vertex 28.90194873890266 -221.4335831000001 0
endloop
endfacet
facet normal 0 0 1
outer loop
vertex 105.07451919999859 -221.43358310000008 1
vertex 28.901948738902647 -221.43358310000008 1
vertex 29.05276969999997 -223.4959757999998 1
endloop
endfacet
facet normal 0 0 1
outer loop
vertex 105.07451919999859 -221.43358310000008 1
vertex 29.05276969999997 -223.4959757999998 1
vertex 29.128509668908123 -223.9662073384824 1
endloop
endfacet
facet normal 0 0 1
outer loop
vertex 105.07451919999859 -221.43358310000008 1
vertex 29.128509668908123 -223.9662073384824 1
vertex 29.284254651748157 -224.41631455096305 1
endloop
endfacet
facet normal 0 0 1
outer loop
vertex 105.07451919999859 -221.43358310000008 1
vertex 29.284254651748157 -224.41631455096305 1
vertex 29.515327902061586 -224.8327976303269 1
endloop
endfacet
facet normal 0 0 1
outer loop
vertex 105.07451919999859 -221.43358310000008 1
vertex 29.515327902061586 -224.8327976303269 1
vertex 29.814797894478488 -225.2031632956476 1
endloop
endfacet
facet normal 0 0 1
outer loop
vertex 105.07451919999859 -221.43358310000008 1
vertex 29.814797894478488 -225.2031632956476 1
vertex 30.173681400317065 -225.5163016542757 1
endloop
endfacet
facet normal 0 0 1
outer loop
vertex 105.07451919999859 -221.43358310000008 1
vertex 30.173681400317065 -225.5163016542757 1
vertex 30.58121295831164 -225.7628194662997 1
endloop
endfacet
facet normal 0 0 1
outer loop
vertex 105.07451919999859 -221.43358310000008 1
vertex 30.58121295831164 -225.7628194662997 1
vertex 31.025167807140065 -225.93532191442384 1
endloop
endfacet
facet normal 0 0 1
outer loop
vertex 105.07451919999859 -221.43358310000008 1
vertex 31.025167807140065 -225.93532191442384 1
vertex 31.492228592700485 -226.02863442697446 1
endloop
endfacet
facet normal 0 0 1
outer loop
vertex 105.07451919999859 -221.43358310000008 1
vertex 31.492228592700485 -226.02863442697446 1
vertex 31.96838484999948 -226.03995790000002 1
endloop
endfacet
facet normal 0 0 1
outer loop
vertex 188.6235360009528 -225.01399776968805 1
vertex 189.08537726588477 -224.9161841249503 1
vertex 189.52368390558493 -224.74082120787517 1
endloop
endfacet
facet normal 0 0 1
outer loop
vertex 188.6235360009528 -225.01399776968805 1
vertex 189.52368390558493 -224.74082120787517 1
vertex 189.92553913998879 -224.49307691697518 1
endloop
endfacet
facet normal 0 0 1
outer loop
vertex 188.6235360009528 -225.01399776968805 1
vertex 189.92553913998879 -224.49307691697518 1
vertex 190.27910040224563 -224.18025221059457 1
endloop
endfacet
facet normal 0 0 1
outer loop
vertex 188.6235360009528 -225.01399776968805 1
vertex 190.27910040224563 -224.18025221059457 1
vertex 190.57394833601774 -223.8115659496071 1
endloop
endfacet
facet normal 0 0 1
outer loop
vertex 188.6235360009528 -225.01399776968805 1
vertex 190.57394833601774 -223.8115659496071 1
vertex 190.80139385113756 -223.39788322003952 1
endloop
endfacet
facet normal 0 0 1
outer loop
vertex 188.6235360009528 -225.01399776968805 1
vertex 190.80139385113756 -223.39788322003952 1
vertex 190.9547341887838 -222.95139514187665 1
endloop
endfacet
facet normal 0 0 1
outer loop
vertex 188.6235360009528 -225.01399776968805 1
vertex 190.9547341887838 -222.95139514187665 1
vertex 191.02945045000004 -222.4852595999994 1
endloop
endfacet
facet normal 0 0 1
outer loop
vertex 188.6235360009528 -225.01399776968805 1
vertex 191.02945045000004 -222.4852595999994 1
vertex 191.03813960447388 -222.3664402685574 1
endloop
endfacet
facet normal 0 0 1
outer loop
vertex 188.6235360009528 -225.01399776968805 1
vertex 191.03813960447388 -222.3664402685574 1
vertex 115.04651377382795 -221.4314601500001 1
endloop
endfacet
facet normal 0 0 1
outer loop
vertex 188.6235360009528 -225.01399776968805 1
vertex 115.04651377382795 -221.4314601500001 1
vertex 114.91170450000233 -221.4314601500001 1
endloop
endfacet
facet normal 0 0 1
outer loop
vertex 188.6235360009528 -225.01399776968805 1
vertex 114.91170450000233 -221.4314601500001 1
vertex 188.15177090000026 -225.0313792 1
endloop
endfacet
facet normal 0 0 1
outer loop
vertex 105.07451919999859 -221.43358310000008 1
vertex 105.16094180491176 -221.42950107527415 1
vertex 28.901650224030874 -221.42950107527415 1
endloop
endfacet
facet normal 0 0 1
outer loop
vertex 105.07451919999859 -221.43358310000008 1
vertex 28.901650224030874 -221.42950107527415 1
vertex 28.901948738902647 -221.43358310000008 1
endloop
endfacet
facet normal 0 0 1
outer loop
vertex 115.04651377382795 -221.4314601500001 1
vertex 114.84421488497672 -221.42897111996535 1
vertex 114.91170450000233 -221.4314601500001 1
endloop
endfacet
facet normal 0 0 1
outer loop
vertex 105.16094180491176 -221.42950107527415 1
vertex 105.24745460000128 -221.42814155 1
vertex 28.901550803145373 -221.42814155 1
endloop
endfacet
facet normal 0 0 1
outer loop
vertex 105.16094180491176 -221.42950107527415 1
vertex 28.901550803145373 -221.42814155 1
vertex 28.901650224030874 -221.42950107527415 1
endloop
endfacet
facet normal 0 0 1
outer loop
vertex 191.10675739815963 -221.42813028738183 1
vertex 114.77668900000087 -221.42814155 1
vertex 114.84421488497672 -221.42897111996535 1
endloop
endfacet
facet normal 0 0 1
outer loop
vertex 191.10675739815963 -221.42813028738183 1
vertex 114.84421488497672 -221.42897111996535 1
vertex 115.04651377382795 -221.4314601500001 1
endloop
endfacet
facet normal 0 0 1
outer loop
vertex 191.10675739815963 -221.42813028738183 1
vertex 115.04651377382795 -221.4314601500001 1
vertex 191.03813960447388 -222.3664402685574 1
endloop
endfacet
facet normal 0 0 1
outer loop
vertex 105.24745460000128 -221.42814155 1
vertex 114.77668900000087 -221.42814155 1
vertex 191.10675739815963 -221.42813028738183 1
endloop
endfacet
facet normal 0 0 1
outer loop
vertex 105.24745460000128 -221.42814155 1
vertex 191.10675739815963 -221.42813028738183 1
vertex 193.6177081 -187.09228270000028 1
endloop
endfacet
facet normal 0 0 1
outer loop
vertex 105.24745460000128 -221.42814155 1
vertex 193.6177081 -187.09228270000028 1
vertex 193.62088232772908 -186.7406950554716 1
endloop
endfacet
facet normal 0 0 1
outer loop
vertex 105.24745460000128 -221.42814155 1
vertex 193.62088232772908 -186.7406950554716 1
vertex 193.57916835737126 -186.39157265178434 1
endloop
endfacet
facet normal 0 0 1
outer loop
vertex 105.24745460000128 -221.42814155 1
vertex 193.57916835737126 -186.39157265178434 1
vertex 193.4932490500001 -186.0506263500004 1
endloop
endfacet
facet normal 0 0 1
outer loop
vertex 105.24745460000128 -221.42814155 1
vertex 193.4932490500001 -186.0506263500004 1
vertex 187.2604007182727 -166.64823860000018 1
endloop
endfacet
facet normal 0 0 1
outer loop
vertex 105.24745460000128 -221.42814155 1
vertex 187.2604007182727 -166.64823860000018 1
vertex 33.161187399999946 -166.64823860000018 1
endloop
endfacet
facet normal 0 0 1
outer loop
vertex 105.24745460000128 -221.42814155 1
vertex 33.161187399999946 -166.64823860000018 1
vertex 26.591693800000016 -187.09859759999995 1
endloop
endfacet
facet normal 0 0 1
outer loop
vertex 105.24745460000128 -221.42814155 1
vertex 26.591693800000016 -187.09859759999995 1
vertex 26.505777592628732 -187.43954010178427 1
endloop
endfacet
facet normal 0 0 1
outer loop
vertex 105.24745460000128 -221.42814155 1
vertex 26.505777592628732 -187.43954010178427 1
vertex 26.464063622270885 -187.78866250547182 1
endloop
endfacet
facet normal 0 0 1
outer loop
vertex 105.24745460000128 -221.42814155 1
vertex 26.464063622270885 -187.78866250547182 1
vertex 26.467236900000003 -188.14025380000012 1
endloop
endfacet
facet normal 0 0 1
outer loop
vertex 105.24745460000128 -221.42814155 1
vertex 26.467236900000003 -188.14025380000012 1
vertex 28.901550803145373 -221.42814155 1
endloop
endfacet
facet normal 0 0 1
outer loop
vertex 187.2604007182727 -166.64823860000018 1
vertex 187.15684872061718 -166.32588902499563 1
vertex 33.24360233379409 -166.32588902499563 1
endloop
endfacet
facet normal 0 0 1
outer loop
vertex 187.2604007182727 -166.64823860000018 1
vertex 33.24360233379409 -166.32588902499563 1
vertex 33.161187399999946 -166.64823860000018 1
endloop
endfacet
facet normal 0 0 1
outer loop
vertex 187.15684872061718 -166.32588902499563 1
vertex 187.05085731780082 -165.995945765324 1
vertex 33.286484908518105 -165.995945765324 1
endloop
endfacet
facet normal 0 0 1
outer loop
vertex 187.15684872061718 -166.32588902499563 1
vertex 33.286484908518105 -165.995945765324 1
vertex 33.24360233379409 -166.32588902499563 1
endloop
endfacet
facet normal 0 0 1
outer loop
vertex 187.05085731780082 -165.995945765324 1
vertex 186.94397758459215 -165.6632371999999 1
vertex 33.28920479999999 -165.6632371999999 1
endloop
endfacet
facet normal 0 0 1
outer loop
vertex 187.05085731780082 -165.995945765324 1
vertex 33.28920479999999 -165.6632371999999 1
vertex 33.286484908518105 -165.995945765324 1
endloop
endfacet
facet normal 0 0 1
outer loop
vertex 186.94397758459215 -165.6632371999999 1
vertex 186.92375219999997 -165.60027709999994 1
vertex 33.285905202694295 -165.60027709999994 1
endloop
endfacet
facet normal 0 0 1
outer loop
vertex 186.94397758459215 -165.6632371999999 1
vertex 33.285905202694295 -165.60027709999994 1
vertex 33.28920479999999 -165.6632371999999 1
endloop
endfacet
facet normal 0 0 1
outer loop
vertex 186.92375219999997 -165.60027709999994 1
vertex 186.84134116620592 -165.27792397499573 1
vertex 33.26901140006772 -165.27792397499573 1
endloop
endfacet
facet normal 0 0 1
outer loop
vertex 186.92375219999997 -165.60027709999994 1
vertex 33.26901140006772 -165.27792397499573 1
vertex 33.285905202694295 -165.60027709999994 1
endloop
endfacet
facet normal 0 0 1
outer loop
vertex 186.84134116620592 -165.27792397499573 1
vertex 186.79845859148188 -164.94798071532398 1
vertex 33.25171981554596 -164.94798071532398 1
endloop
endfacet
facet normal 0 0 1
outer loop
vertex 186.84134116620592 -165.27792397499573 1
vertex 33.25171981554596 -164.94798071532398 1
vertex 33.26901140006772 -165.27792397499573 1
endloop
endfacet
facet normal 0 0 1
outer loop
vertex 186.79845859148188 -164.94798071532398 1
vertex 186.7957361 -164.6152735499996 1
vertex 33.23428338094226 -164.6152735499996 1
endloop
endfacet
facet normal 0 0 1
outer loop
vertex 186.79845859148188 -164.94798071532398 1
vertex 33.23428338094226 -164.6152735499996 1
vertex 33.25171981554596 -164.94798071532398 1
endloop
endfacet
facet normal 0 0 1
outer loop
vertex 186.7957361 -164.6152735499996 1
vertex 192.11739599999999 -63.0720716000002 1
vertex 192.10066464009756 -62.59301139206147 1
endloop
endfacet
facet normal 0 0 1
outer loop
vertex 186.7957361 -164.6152735499996 1
vertex 192.10066464009756 -62.59301139206147 1
vertex 192.00100179419368 -62.124129890907255 1
endloop
endfacet
facet normal 0 0 1
outer loop
vertex 186.7957361 -164.6152735499996 1
vertex 192.00100179419368 -62.124129890907255 1
vertex 191.82143266491593 -61.67967801185989 1
endloop
endfacet
facet normal 0 0 1
outer loop
vertex 186.7957361 -164.6152735499996 1
vertex 191.82143266491593 -61.67967801185989 1
vertex 191.56741336486257 -61.273160189152335 1
endloop
endfacet
facet normal 0 0 1
outer loop
vertex 186.7957361 -164.6152735499996 1
vertex 191.56741336486257 -61.273160189152335 1
vertex 191.24666213552007 -60.91692825086828 1
endloop
endfacet
facet normal 0 0 1
outer loop
vertex 186.7957361 -164.6152735499996 1
vertex 191.24666213552007 -60.91692825086828 1
vertex 190.86892483259518 -60.62180611520685 1
endloop
endfacet
facet normal 0 0 1
outer loop
vertex 186.7957361 -164.6152735499996 1
vertex 190.86892483259518 -60.62180611520685 1
vertex 190.86040205906878 -60.617274450000025 1
endloop
endfacet
facet normal 0 0 1
outer loop
vertex 186.7957361 -164.6152735499996 1
vertex 190.86040205906878 -60.617274450000025 1
vertex 42.25926354999973 -60.617274450000025 1
endloop
endfacet
facet normal 0 0 1
outer loop
vertex 186.7957361 -164.6152735499996 1
vertex 42.25926354999973 -60.617274450000025 1
vertex 30.569858299999908 -61.22988170000002 1
endloop
endfacet
facet normal 0 0 1
outer loop
vertex 186.7957361 -164.6152735499996 1
vertex 30.569858299999908 -61.22988170000002 1
vertex 30.0951629964123 -61.29659556864527 1
endloop
endfacet
facet normal 0 0 1
outer loop
vertex 186.7957361 -164.6152735499996 1
vertex 30.0951629964123 -61.29659556864527 1
vertex 29.639268346632804 -61.44472596147861 1
endloop
endfacet
facet normal 0 0 1
outer loop
vertex 186.7957361 -164.6152735499996 1
vertex 29.639268346632804 -61.44472596147861 1
vertex 29.216022317404864 -61.66977116520681 1
endloop
endfacet
facet normal 0 0 1
outer loop
vertex 186.7957361 -164.6152735499996 1
vertex 29.216022317404864 -61.66977116520681 1
vertex 28.83828501447995 -61.96489330086828 1
endloop
endfacet
facet normal 0 0 1
outer loop
vertex 186.7957361 -164.6152735499996 1
vertex 28.83828501447995 -61.96489330086828 1
vertex 28.51753378513736 -62.32112523915242 1
endloop
endfacet
facet normal 0 0 1
outer loop
vertex 186.7957361 -164.6152735499996 1
vertex 28.51753378513736 -62.32112523915242 1
vertex 28.263514485084073 -62.72764306185988 1
endloop
endfacet
facet normal 0 0 1
outer loop
vertex 186.7957361 -164.6152735499996 1
vertex 28.263514485084073 -62.72764306185988 1
vertex 28.08394535580632 -63.17209494090727 1
endloop
endfacet
facet normal 0 0 1
outer loop
vertex 186.7957361 -164.6152735499996 1
vertex 28.08394535580632 -63.17209494090727 1
vertex 27.9842825099024 -63.64097644206163 1
endloop
endfacet
facet normal 0 0 1
outer loop
vertex 186.7957361 -164.6152735499996 1
vertex 27.9842825099024 -63.64097644206163 1
vertex 27.967554149999998 -64.12004085000004 1
endloop
endfacet
facet normal 0 0 1
outer loop
vertex 186.7957361 -164.6152735499996 1
vertex 27.967554149999998 -64.12004085000004 1
vertex 33.23428338094226 -164.6152735499996 1
endloop
endfacet
facet normal 0 0 1
outer loop
vertex 190.86040205906878 -60.617274450000025 1
vertex 190.85189458756238 -60.612750921068496 1
vertex 42.328651826742 -60.612750921068496 1
endloop
endfacet
facet normal 0 0 1
outer loop
vertex 190.86040205906878 -60.617274450000025 1
vertex 42.328651826742 -60.612750921068496 1
vertex 42.25926354999973 -60.617274450000025 1
endloop
endfacet
facet normal 0 0 1
outer loop
vertex 190.85189458756238 -60.612750921068496 1
vertex 190.8400986995875 -60.60647890000003 1
vertex 42.39790709999971 -60.60647890000003 1
endloop
endfacet
facet normal 0 0 1
outer loop
vertex 190.85189458756238 -60.612750921068496 1
vertex 42.39790709999971 -60.60647890000003 1
vertex 42.328651826742 -60.612750921068496 1
endloop
endfacet
facet normal 0 0 1
outer loop
vertex 190.8400986995875 -60.60647890000003 1
vertex 190.44567880336712 -60.396760911478594 1
vertex 189.98978415358775 -60.248630518645285 1
endloop
endfacet
facet normal 0 0 1
outer loop
vertex 190.8400986995875 -60.60647890000003 1
vertex 189.98978415358775 -60.248630518645285 1
vertex 189.5150929999999 -60.1819158 1
endloop
endfacet
facet normal 0 0 1
outer loop
vertex 190.8400986995875 -60.60647890000003 1
vertex 189.5150929999999 -60.1819158 1
vertex 177.80465159999932 -59.56819839999996 1
endloop
endfacet
facet normal 0 0 1
outer loop
vertex 190.8400986995875 -60.60647890000003 1
vertex 177.80465159999932 -59.56819839999996 1
vertex 52.44911054625737 -59.56819839999996 1
endloop
endfacet
facet normal 0 0 1
outer loop
vertex 190.8400986995875 -60.60647890000003 1
vertex 52.44911054625737 -59.56819839999996 1
vertex 42.39790709999971 -60.60647890000003 1
endloop
endfacet
facet normal 0 0 1
outer loop
vertex 177.80465159999932 -59.56819839999996 1
vertex 177.75625591103804 -59.5652356687697 1
vertex 52.47779163422145 -59.5652356687697 1
endloop
endfacet
facet normal 0 0 1
outer loop
vertex 177.80465159999932 -59.56819839999996 1
vertex 52.47779163422145 -59.5652356687697 1
vertex 52.44911054625737 -59.56819839999996 1
endloop
endfacet
facet normal 0 0 1
outer loop
vertex 177.75625591103804 -59.5652356687697 1
vertex 177.7079157999994 -59.56141919999996 1
vertex 52.51473743456245 -59.56141919999996 1
endloop
endfacet
facet normal 0 0 1
outer loop
vertex 177.75625591103804 -59.5652356687697 1
vertex 52.51473743456245 -59.56141919999996 1
vertex 52.47779163422145 -59.5652356687697 1
endloop
endfacet
facet normal 0 0 1
outer loop
vertex 177.7079157999994 -59.56141919999996 1
vertex 154.9940950999992 -57.56603909999993 1
vertex 154.9601234162177 -57.563268888769045 1
endloop
endfacet
facet normal 0 0 1
outer loop
vertex 177.7079157999994 -59.56141919999996 1
vertex 154.9601234162177 -57.563268888769045 1
vertex 154.92611755000183 -57.56091955000012 1
endloop
endfacet
facet normal 0 0 1
outer loop
vertex 177.7079157999994 -59.56141919999996 1
vertex 154.92611755000183 -57.56091955000012 1
vertex 132.5159300000005 -56.15093570000003 1
endloop
endfacet
facet normal 0 0 1
outer loop
vertex 177.7079157999994 -59.56141919999996 1
vertex 132.5159300000005 -56.15093570000003 1
vertex 132.49197067406982 -56.14953322886518 1
endloop
endfacet
facet normal 0 0 1
outer loop
vertex 177.7079157999994 -59.56141919999996 1
vertex 132.49197067406982 -56.14953322886518 1
vertex 132.46799500000068 -56.14833785000002 1
endloop
endfacet
facet normal 0 0 1
outer loop
vertex 177.7079157999994 -59.56141919999996 1
vertex 132.46799500000068 -56.14833785000002 1
vertex 110.14875120000025 -55.13477880000001 1
endloop
endfacet
facet normal 0 0 1
outer loop
vertex 177.7079157999994 -59.56141919999996 1
vertex 110.14875120000025 -55.13477880000001 1
vertex 110.00259528890106 -55.1320289957244 1
endloop
endfacet
facet normal 0 0 1
outer loop
vertex 177.7079157999994 -59.56141919999996 1
vertex 110.00259528890106 -55.1320289957244 1
vertex 109.85649560000002 -55.1370544 1
endloop
endfacet
facet normal 0 0 1
outer loop
vertex 177.7079157999994 -59.56141919999996 1
vertex 109.85649560000002 -55.1370544 1
vertex 87.55761880000114 -56.49773529999993 1
endloop
endfacet
facet normal 0 0 1
outer loop
vertex 177.7079157999994 -59.56141919999996 1
vertex 87.55761880000114 -56.49773529999993 1
vertex 87.53367211314286 -56.499303190491574 1
endloop
endfacet
facet normal 0 0 1
outer loop
vertex 177.7079157999994 -59.56141919999996 1
vertex 87.53367211314286 -56.499303190491574 1
vertex 87.5097393999994 -56.50107765000004 1
endloop
endfacet
facet normal 0 0 1
outer loop
vertex 177.7079157999994 -59.56141919999996 1
vertex 87.5097393999994 -56.50107765000004 1
vertex 65.1257435000008 -58.25953939999994 1
endloop
endfacet
facet normal 0 0 1
outer loop
vertex 177.7079157999994 -59.56141919999996 1
vertex 65.1257435000008 -58.25953939999994 1
vertex 65.09212797811182 -58.26238857731008 1
endloop
endfacet
facet normal 0 0 1
outer loop
vertex 177.7079157999994 -59.56141919999996 1
vertex 65.09212797811182 -58.26238857731008 1
vertex 65.05854674999959 -58.26565470000003 1
endloop
endfacet
facet normal 0 0 1
outer loop
vertex 177.7079157999994 -59.56141919999996 1
vertex 65.05854674999959 -58.26565470000003 1
vertex 52.51473743456245 -59.56141919999996 1
endloop
endfacet
facet normal 0 0 -1
outer loop
vertex 29.05276969999997 -223.4959757999998 1
vertex 28.901948738902647 -221.43358310000008 1
vertex 28.901650224030874 -221.42950107527415 1
endloop
endfacet
facet normal 0 0 -1
outer loop
vertex 29.05276969999997 -223.4959757999998 1
vertex 28.901650224030874 -221.42950107527415 1
vertex 28.901550803145373 -221.42814155 1
endloop
endfacet
facet normal 0 0 -1
outer loop
vertex 29.05276969999997 -223.4959757999998 1
vertex 28.901550803145373 -221.42814155 1
vertex 26.467236900000003 -188.14025380000012 1
endloop
endfacet
facet normal 0 0 -1
outer loop
vertex 29.05276969999997 -223.4959757999998 1
vertex 26.467236900000003 -188.14025380000012 1
vertex 26.467236900000003 -188.14025379999995 0
endloop
endfacet
facet normal 0 0 -1
outer loop
vertex 29.05276969999997 -223.4959757999998 1
vertex 26.467236900000003 -188.14025379999995 0
vertex 28.901550803145383 -221.42814154999996 0
endloop
endfacet
facet normal 0 0 -1
outer loop
vertex 29.05276969999997 -223.4959757999998 1
vertex 28.901550803145383 -221.42814154999996 0
vertex 28.901650224030885 -221.42950107527415 0
endloop
endfacet
facet normal 0 0 -1
outer loop
vertex 29.05276969999997 -223.4959757999998 1
vertex 28.901650224030885 -221.42950107527415 0
vertex 28.90194873890266 -221.4335831000001 0
endloop
endfacet
facet normal 0 0 -1
outer loop
vertex 29.05276969999997 -223.4959757999998 1
vertex 28.90194873890266 -221.4335831000001 0
vertex 29.0527697 -223.4959758 0
endloop
endfacet
facet normal -0.9872753662825371 -0.15901997085800978 0
outer loop
vertex 29.128509668908123 -223.9662073384824 1
vertex 29.05276969999997 -223.4959757999998 1
vertex 29.0527697 -223.4959758 0
endloop
endfacet
facet normal -0.9872753662825371 -0.15901997085800978 0
outer loop
vertex 29.128509668908123 -223.9662073384824 1
vertex 29.0527697 -223.4959758 0
vertex 29.12850966890811 -223.96620733848238 0
endloop
endfacet
facet normal -0.9450258893161262 -0.3269955175874203 0
outer loop
vertex 29.284254651748157 -224.41631455096305 1
vertex 29.128509668908123 -223.9662073384824 1
vertex 29.12850966890811 -223.96620733848238 0
endloop
endfacet
facet normal -0.9450258893161262 -0.3269955175874203 0
outer loop
vertex 29.284254651748157 -224.41631455096305 1
vertex 29.12850966890811 -223.96620733848238 0
vertex 29.284254651748142 -224.41631455096302 0
endloop
endfacet
facet normal -0.87443009475878 -0.48515153238977926 0
outer loop
vertex 29.515327902061586 -224.8327976303269 1
vertex 29.284254651748157 -224.41631455096305 1
vertex 29.284254651748142 -224.41631455096302 0
endloop
endfacet
facet normal -0.87443009475878 -0.48515153238977926 0
outer loop
vertex 29.515327902061586 -224.8327976303269 1
vertex 29.284254651748142 -224.41631455096302 0
vertex 29.515327902061557 -224.83279763032684 0
endloop
endfacet
facet normal -0.7776039408769824 -0.6287544124159976 0
outer loop
vertex 29.814797894478488 -225.2031632956476 1
vertex 29.515327902061586 -224.8327976303269 1
vertex 29.515327902061557 -224.83279763032684 0
endloop
endfacet
facet normal -0.7776039408769824 -0.6287544124159976 0
outer loop
vertex 29.814797894478488 -225.2031632956476 1
vertex 29.515327902061557 -224.83279763032684 0
vertex 29.814797894478545 -225.20316329564767 0
endloop
endfacet
facet normal -0.657451930641998 -0.7534964889733127 0
outer loop
vertex 30.173681400317065 -225.5163016542757 1
vertex 29.814797894478488 -225.2031632956476 1
vertex 29.814797894478545 -225.20316329564767 0
endloop
endfacet
facet normal -0.657451930641998 -0.7534964889733127 0
outer loop
vertex 30.173681400317065 -225.5163016542757 1
vertex 29.814797894478545 -225.20316329564767 0
vertex 30.17368140031698 -225.51630165427562 0
endloop
endfacet
facet normal -0.5175782748659143 -0.8556358626114405 0
outer loop
vertex 30.58121295831164 -225.7628194662997 1
vertex 30.173681400317065 -225.5163016542757 1
vertex 30.17368140031698 -225.51630165427562 0
endloop
endfacet
facet normal -0.5175782748659143 -0.8556358626114405 0
outer loop
vertex 30.58121295831164 -225.7628194662997 1
vertex 30.17368140031698 -225.51630165427562 0
vertex 30.58121295831181 -225.7628194662998 0
endloop
endfacet
facet normal -0.3621787763613626 -0.9321086492214232 0
outer loop
vertex 31.025167807140065 -225.93532191442384 1
vertex 30.58121295831164 -225.7628194662997 1
vertex 30.58121295831181 -225.7628194662998 0
endloop
endfacet
facet normal -0.3621787763613626 -0.9321086492214232 0
outer loop
vertex 31.025167807140065 -225.93532191442384 1
vertex 30.58121295831181 -225.7628194662998 0
vertex 31.025167807139937 -225.9353219144238 0
endloop
endfacet
facet normal -0.19591496806168554 -0.9806208876468974 0
outer loop
vertex 31.492228592700485 -226.02863442697446 1
vertex 31.025167807140065 -225.93532191442384 1
vertex 31.025167807139937 -225.9353219144238 0
endloop
endfacet
facet normal -0.19591496806168554 -0.9806208876468974 0
outer loop
vertex 31.492228592700485 -226.02863442697446 1
vertex 31.025167807139937 -225.9353219144238 0
vertex 31.492228592700414 -226.02863442697443 0
endloop
endfacet
facet normal -0.02377428059227782 -0.9997173518461704 0
outer loop
vertex 31.96838484999948 -226.03995790000002 1
vertex 31.492228592700485 -226.02863442697446 1
vertex 31.492228592700414 -226.02863442697443 0
endloop
endfacet
facet normal -0.02377428059227782 -0.9997173518461704 0
outer loop
vertex 31.96838484999948 -226.03995790000002 1
vertex 31.492228592700414 -226.02863442697443 0
vertex 31.96838484999995 -226.0399579 0
endloop
endfacet
facet normal 0.06288470722029163 -0.998020798178985 0
outer loop
vertex 105.07451919999859 -221.43358310000008 1
vertex 31.96838484999948 -226.03995790000002 1
vertex 31.96838484999995 -226.0399579 0
endloop
endfacet
facet normal 0.06288470722029163 -0.998020798178985 0
outer loop
vertex 105.07451919999859 -221.43358310000008 1
vertex 31.96838484999995 -226.0399579 0
vertex 105.07451919999838 -221.4335831000001 0
endloop
endfacet
facet normal 0.04718069847501737 -0.9988863707606634 0
outer loop
vertex 105.16094180491176 -221.42950107527415 1
vertex 105.07451919999859 -221.43358310000008 1
vertex 105.07451919999838 -221.4335831000001 0
endloop
endfacet
facet normal 0.04718069847501737 -0.9988863707606634 0
outer loop
vertex 105.16094180491176 -221.42950107527415 1
vertex 105.07451919999838 -221.4335831000001 0
vertex 105.16094180491206 -221.42950107527415 0
endloop
endfacet
facet normal 0.015712790629038405 -0.9998765464849388 0
outer loop
vertex 105.24745460000128 -221.42814155 1
vertex 105.16094180491176 -221.42950107527415 1
vertex 105.16094180491206 -221.42950107527415 0
endloop
endfacet
facet normal 0.015712790629038405 -0.9998765464849388 0
outer loop
vertex 105.24745460000128 -221.42814155 1
vertex 105.16094180491206 -221.42950107527415 0
vertex 105.24745460000278 -221.42814154999996 0
endloop
endfacet
facet normal 1.3117528396833222e-7 -0.9999999999999915 0
outer loop
vertex 114.77668900000087 -221.42814155 1
vertex 105.24745460000128 -221.42814155 1
vertex 105.24745460000278 -221.42814154999996 0
endloop
endfacet
facet normal 1.3117528396833222e-7 -0.9999999999999915 0
outer loop
vertex 114.77668900000087 -221.42814155 1
vertex 105.24745460000278 -221.42814154999996 0
vertex 114.77668899999767 -221.42814154999996 0
endloop
endfacet
facet normal -0.012302794511242613 -0.9999243177597064 0
outer loop
vertex 114.84421488497672 -221.42897111996535 1
vertex 114.77668900000087 -221.42814155 1
vertex 114.77668899999767 -221.42814154999996 0
endloop
endfacet
facet normal -0.012302794511242613 -0.9999243177597064 0
outer loop
vertex 114.84421488497672 -221.42897111996535 1
vertex 114.77668899999767 -221.42814154999996 0
vertex 114.84421488497688 -221.42897111996538 0
endloop
endfacet
facet normal -0.03685513738960823 -0.9993206186444835 0
outer loop
vertex 114.91170450000233 -221.4314601500001 1
vertex 114.84421488497672 -221.42897111996535 1
vertex 114.84421488497688 -221.42897111996538 0
endloop
endfacet
facet normal -0.03685513738960823 -0.9993206186444835 0
outer loop
vertex 114.91170450000233 -221.4314601500001 1
vertex 114.84421488497688 -221.42897111996538 0
vertex 114.91170450000207 -221.4314601500001 0
endloop
endfacet
facet normal -0.04909305080565218 -0.998794209215589 0
outer loop
vertex 188.15177090000026 -225.0313792 1
vertex 114.91170450000233 -221.4314601500001 1
vertex 114.91170450000207 -221.4314601500001 0
endloop
endfacet
facet normal -0.04909305080565218 -0.998794209215589 0
outer loop
vertex 188.15177090000026 -225.0313792 1
vertex 114.91170450000207 -221.4314601500001 0
vertex 188.15177090000014 -225.0313792 0
endloop
endfacet
facet normal 0.036818419130554496 -0.9993219721454778 0
outer loop
vertex 188.6235360009528 -225.01399776968805 1
vertex 188.15177090000026 -225.0313792 1
vertex 188.15177090000014 -225.0313792 0
endloop
endfacet
facet normal 0.036818419130554496 -0.9993219721454778 0
outer loop
vertex 188.6235360009528 -225.01399776968805 1
vertex 188.15177090000014 -225.0313792 0
vertex 188.6235360009528 -225.01399776968805 0
endloop
endfacet
facet normal 0.20719469923494738 -0.978299727388769 0
outer loop
vertex 189.08537726588477 -224.9161841249503 1
vertex 188.6235360009528 -225.01399776968805 1
vertex 188.6235360009528 -225.01399776968805 0
endloop
endfacet
facet normal 0.20719469923494738 -0.978299727388769 0
outer loop
vertex 189.08537726588477 -224.9161841249503 1
vertex 188.6235360009528 -225.01399776968805 0
vertex 189.08537726588483 -224.91618412495026 0
endloop
endfacet
facet normal 0.37146419559144167 -0.9284472798137777 0
outer loop
vertex 189.52368390558493 -224.74082120787517 1
vertex 189.08537726588477 -224.9161841249503 1
vertex 189.08537726588483 -224.91618412495026 0
endloop
endfacet
facet normal 0.37146419559144167 -0.9284472798137777 0
outer loop
vertex 189.52368390558493 -224.74082120787517 1
vertex 189.08537726588483 -224.91618412495026 0
vertex 189.5236839055849 -224.74082120787517 0
endloop
endfacet
facet normal 0.5247867409272 -0.8512337379045828 0
outer loop
vertex 189.92553913998879 -224.49307691697518 1
vertex 189.52368390558493 -224.74082120787517 1
vertex 189.5236839055849 -224.74082120787517 0
endloop
endfacet
facet normal 0.5247867409272 -0.8512337379045828 0
outer loop
vertex 189.92553913998879 -224.49307691697518 1
vertex 189.5236839055849 -224.74082120787517 0
vertex 189.9255391399889 -224.4930769169751 0
endloop
endfacet
facet normal 0.6626439606209332 -0.7489345641994386 0
outer loop
vertex 190.27910040224563 -224.18025221059457 1
vertex 189.92553913998879 -224.49307691697518 1
vertex 189.9255391399889 -224.4930769169751 0
endloop
endfacet
facet normal 0.6626439606209332 -0.7489345641994386 0
outer loop
vertex 190.27910040224563 -224.18025221059457 1
vertex 189.9255391399889 -224.4930769169751 0
vertex 190.2791004022457 -224.18025221059452 0
endloop
endfacet
facet normal 0.7809732390832406 -0.6245644881321957 0
outer loop
vertex 190.57394833601774 -223.8115659496071 1
vertex 190.27910040224563 -224.18025221059457 1
vertex 190.2791004022457 -224.18025221059452 0
endloop
endfacet
facet normal 0.7809732390832406 -0.6245644881321957 0
outer loop
vertex 190.57394833601774 -223.8115659496071 1
vertex 190.2791004022457 -224.18025221059452 0
vertex 190.57394833601765 -223.81156594960717 0
endloop
endfacet
facet normal 0.8762874439581033 -0.4817886627572032 0
outer loop
vertex 190.80139385113756 -223.39788322003952 1
vertex 190.57394833601774 -223.8115659496071 1
vertex 190.57394833601765 -223.81156594960717 0
endloop
endfacet
facet normal 0.8762874439581033 -0.4817886627572032 0
outer loop
vertex 190.80139385113756 -223.39788322003952 1
vertex 190.57394833601765 -223.81156594960717 0
vertex 190.8013938511377 -223.3978832200392 0
endloop
endfacet
facet normal 0.9457776909848746 -0.3248146536646998 0
outer loop
vertex 190.9547341887838 -222.95139514187665 1
vertex 190.80139385113756 -223.39788322003952 1
vertex 190.8013938511377 -223.3978832200392 0
endloop
endfacet
facet normal 0.9457776909848746 -0.3248146536646998 0
outer loop
vertex 190.9547341887838 -222.95139514187665 1
vertex 190.8013938511377 -223.3978832200392 0
vertex 190.95473418878376 -222.9513951418768 0
endloop
endfacet
facet normal 0.9873961210707364 -0.1582684431415939 0
outer loop
vertex 191.02945045000004 -222.4852595999994 1
vertex 190.9547341887838 -222.95139514187665 1
vertex 190.95473418878376 -222.9513951418768 0
endloop
endfacet
facet normal 0.9873961210707364 -0.1582684431415939 0
outer loop
vertex 191.02945045000004 -222.4852595999994 1
vertex 190.95473418878376 -222.9513951418768 0
vertex 191.02945044999998 -222.48525959999998 0
endloop
endfacet
facet normal 0 0 1
outer loop
vertex 193.6177081 -187.09228270000028 1
vertex 191.10675739815963 -221.42813028738183 1
vertex 191.03813960447388 -222.3664402685574 1
endloop
endfacet
facet normal 0 0 1
outer loop
vertex 193.6177081 -187.09228270000028 1
vertex 191.03813960447388 -222.3664402685574 1
vertex 191.02945045000004 -222.4852595999994 1
endloop
endfacet
facet normal 0 0 1
outer loop
vertex 193.6177081 -187.09228270000028 1
vertex 191.02945045000004 -222.4852595999994 1
vertex 191.02945044999998 -222.48525959999998 0
endloop
endfacet
facet normal 0 0 1
outer loop
vertex 193.6177081 -187.09228270000028 1
vertex 191.02945044999998 -222.48525959999998 0
vertex 191.03813960447383 -222.3664402685574 0
endloop
endfacet
facet normal 0 0 1
outer loop
vertex 193.6177081 -187.09228270000028 1
vertex 191.03813960447383 -222.3664402685574 0
vertex 191.10675739815963 -221.42813028738183 0
endloop
endfacet
facet normal 0 0 1
outer loop
vertex 193.6177081 -187.09228270000028 1
vertex 191.10675739815963 -221.42813028738183 0
vertex 193.61770810000002 -187.09228269999988 0
endloop
endfacet
facet normal 0.9999592476733348 -0.009027900784701615 0
outer loop
vertex 193.62088232772908 -186.7406950554716 1
vertex 193.6177081 -187.09228270000028 1
vertex 193.61770810000002 -187.09228269999988 0
endloop
endfacet
facet normal 0.9999592476733348 -0.009027900784701615 0
outer loop
vertex 193.62088232772908 -186.7406950554716 1
vertex 193.61770810000002 -187.09228269999988 0
vertex 193.6208823277291 -186.74069505547172 0
endloop
endfacet
facet normal 0.9929375111956206 0.11863852182426628 0
outer loop
vertex 193.57916835737126 -186.39157265178434 1
vertex 193.62088232772908 -186.7406950554716 1
vertex 193.6208823277291 -186.74069505547172 0
endloop
endfacet
facet normal 0.9929375111956206 0.11863852182426628 0
outer loop
vertex 193.57916835737126 -186.39157265178434 1
vertex 193.6208823277291 -186.74069505547172 0
vertex 193.5791683573713 -186.39157265178446 0
endloop
endfacet
facet normal 0.9696838953024981 0.24436272872714046 0
outer loop
vertex 193.4932490500001 -186.0506263500004 1
vertex 193.57916835737126 -186.39157265178434 1
vertex 193.5791683573713 -186.39157265178446 0
endloop
endfacet
facet normal 0.9696838953024981 0.24436272872714046 0
outer loop
vertex 193.4932490500001 -186.0506263500004 1
vertex 193.5791683573713 -186.39157265178446 0
vertex 193.49324905000012 -186.0506263500005 0
endloop
endfacet
facet normal 0 0 -1
outer loop
vertex 186.92375219999997 -165.60027709999994 1
vertex 186.94397758459215 -165.6632371999999 1
vertex 187.05085731780082 -165.995945765324 1
endloop
endfacet
facet normal 0 0 -1
outer loop
vertex 186.92375219999997 -165.60027709999994 1
vertex 187.05085731780082 -165.995945765324 1
vertex 187.15684872061718 -166.32588902499563 1
endloop
endfacet
facet normal 0 0 -1
outer loop
vertex 186.92375219999997 -165.60027709999994 1
vertex 187.15684872061718 -166.32588902499563 1
vertex 187.2604007182727 -166.64823860000018 1
endloop
endfacet
facet normal 0 0 -1
outer loop
vertex 186.92375219999997 -165.60027709999994 1
vertex 187.2604007182727 -166.64823860000018 1
vertex 193.4932490500001 -186.0506263500004 1
endloop
endfacet
facet normal 0 0 -1
outer loop
vertex 186.92375219999997 -165.60027709999994 1
vertex 193.4932490500001 -186.0506263500004 1
vertex 193.49324905000012 -186.0506263500005 0
endloop
endfacet
facet normal 0 0 -1
outer loop
vertex 186.92375219999997 -165.60027709999994 1
vertex 193.49324905000012 -186.0506263500005 0
vertex 187.26040071827273 -166.6482386000002 0
endloop
endfacet
facet normal 0 0 -1
outer loop
vertex 186.92375219999997 -165.60027709999994 1
vertex 187.26040071827273 -166.6482386000002 0
vertex 187.15684872061718 -166.32588902499566 0
endloop
endfacet
facet normal 0 0 -1
outer loop
vertex 186.92375219999997 -165.60027709999994 1
vertex 187.15684872061718 -166.32588902499566 0
vertex 187.05085731780082 -165.995945765324 0
endloop
endfacet
facet normal 0 0 -1
outer loop
vertex 186.92375219999997 -165.60027709999994 1
vertex 187.05085731780082 -165.995945765324 0
vertex 186.94397758459215 -165.6632371999999 0
endloop
endfacet
facet normal 0 0 -1
outer loop
vertex 186.92375219999997 -165.60027709999994 1
vertex 186.94397758459215 -165.6632371999999 0
vertex 186.9237522 -165.60027710000003 0
endloop
endfacet
facet normal 0.9688397807801712 0.24768827016600858 0
outer loop
vertex 186.84134116620592 -165.27792397499573 1
vertex 186.92375219999997 -165.60027709999994 1
vertex 186.9237522 -165.60027710000003 0
endloop
endfacet
facet normal 0.9688397807801712 0.24768827016600858 0
outer loop
vertex 186.84134116620592 -165.27792397499573 1
vertex 186.9237522 -165.60027710000003 0
vertex 186.84134116620592 -165.27792397499573 0
endloop
endfacet
facet normal 0.9916594780130855 0.12888552931502797 0
outer loop
vertex 186.79845859148188 -164.94798071532398 1
vertex 186.84134116620592 -165.27792397499573 1
vertex 186.84134116620592 -165.27792397499573 0
endloop
endfacet
facet normal 0.9916594780130855 0.12888552931502797 0
outer loop
vertex 186.79845859148188 -164.94798071532398 1
vertex 186.84134116620592 -165.27792397499573 0
vertex 186.79845859148185 -164.9479807153239 0
endloop
endfacet
facet normal 0.999966522197261 0.008182572010980493 0
outer loop
vertex 186.7957361 -164.6152735499996 1
vertex 186.79845859148188 -164.94798071532398 1
vertex 186.79845859148185 -164.9479807153239 0
endloop
endfacet
facet normal 0.999966522197261 0.008182572010980493 0
outer loop
vertex 186.7957361 -164.6152735499996 1
vertex 186.79845859148185 -164.9479807153239 0
vertex 186.79573609999997 -164.61527355000064 0
endloop
endfacet
facet normal 0.9986295315757703 -0.0523360168980957 0
outer loop
vertex 192.11739599999999 -63.0720716000002 1
vertex 186.7957361 -164.6152735499996 1
vertex 186.79573609999997 -164.61527355000064 0
endloop
endfacet
facet normal 0.9986295315757703 -0.0523360168980957 0
outer loop
vertex 192.11739599999999 -63.0720716000002 1
vertex 186.79573609999997 -164.61527355000064 0
vertex 192.117396 -63.07207160000043 0
endloop
endfacet
facet normal 0.999390666293005 0.0349040989917171 0
outer loop
vertex 192.10066464009756 -62.59301139206147 1
vertex 192.11739599999999 -63.0720716000002 1
vertex 192.117396 -63.07207160000043 0
endloop
endfacet
facet normal 0.999390666293005 0.0349040989917171 0
outer loop
vertex 192.10066464009756 -62.59301139206147 1
vertex 192.117396 -63.07207160000043 0
vertex 192.10066464009756 -62.593011392061555 0
endloop
endfacet
facet normal 0.9781480223594415 0.2079097072152081 0
outer loop
vertex 192.00100179419368 -62.124129890907255 1
vertex 192.10066464009756 -62.59301139206147 1
vertex 192.10066464009756 -62.593011392061555 0
endloop
endfacet
facet normal 0.9781480223594415 0.2079097072152081 0
outer loop
vertex 192.00100179419368 -62.124129890907255 1
vertex 192.10066464009756 -62.593011392061555 0
vertex 192.00100179419366 -62.1241298909072 0
endloop
endfacet
facet normal 0.9271846414369999 0.3746046458379048 0
outer loop
vertex 191.82143266491593 -61.67967801185989 1
vertex 192.00100179419368 -62.124129890907255 1
vertex 192.00100179419366 -62.1241298909072 0
endloop
endfacet
facet normal 0.9271846414369999 0.3746046458379048 0
outer loop
vertex 191.82143266491593 -61.67967801185989 1
vertex 192.00100179419366 -62.1241298909072 0
vertex 191.8214326649159 -61.67967801185986 0
endloop
endfacet
facet normal 0.8480492477443808 0.5299174213027816 0
outer loop
vertex 191.56741336486257 -61.273160189152335 1
vertex 191.82143266491593 -61.67967801185989 1
vertex 191.8214326649159 -61.67967801185986 0
endloop
endfacet
facet normal 0.8480492477443808 0.5299174213027816 0
outer loop
vertex 191.56741336486257 -61.273160189152335 1
vertex 191.8214326649159 -61.67967801185986 0
vertex 191.56741336486257 -61.27316018915238 0
endloop
endfacet
facet normal 0.743146328178941 0.6691289374359458 0
outer loop
vertex 191.24666213552007 -60.91692825086828 1
vertex 191.56741336486257 -61.273160189152335 1
vertex 191.56741336486257 -61.27316018915238 0
endloop
endfacet
facet normal 0.743146328178941 0.6691289374359458 0
outer loop
vertex 191.24666213552007 -60.91692825086828 1
vertex 191.56741336486257 -61.27316018915238 0
vertex 191.24666213551998 -60.91692825086821 0
endloop
endfacet
facet normal 0.615663302222609 0.7880093262749829 0
outer loop
vertex 190.86892483259518 -60.62180611520685 1
vertex 191.24666213552007 -60.91692825086828 1
vertex 191.24666213551998 -60.91692825086821 0
endloop
endfacet
facet normal 0.615663302222609 0.7880093262749829 0
outer loop
vertex 190.86892483259518 -60.62180611520685 1
vertex 191.24666213551998 -60.91692825086821 0
vertex 190.86892483259516 -60.62180611520682 0
endloop
endfacet
facet normal 0 0 1
outer loop
vertex 190.44567880336712 -60.396760911478594 1
vertex 190.8400986995875 -60.60647890000003 1
vertex 190.85189458756238 -60.612750921068496 1
endloop
endfacet
facet normal 0 0 1
outer loop
vertex 190.44567880336712 -60.396760911478594 1
vertex 190.85189458756238 -60.612750921068496 1
vertex 190.86040205906878 -60.617274450000025 1
endloop
endfacet
facet normal 0 0 1
outer loop
vertex 190.44567880336712 -60.396760911478594 1
vertex 190.86040205906878 -60.617274450000025 1
vertex 190.86892483259518 -60.62180611520685 1
endloop
endfacet
facet normal 0 0 1
outer loop
vertex 190.44567880336712 -60.396760911478594 1
vertex 190.86892483259518 -60.62180611520685 1
vertex 190.86892483259516 -60.62180611520682 0
endloop
endfacet
facet normal 0 0 1
outer loop
vertex 190.44567880336712 -60.396760911478594 1
vertex 190.86892483259516 -60.62180611520682 0
vertex 190.8604020590688 -60.617274450000025 0
endloop
endfacet
facet normal 0 0 1
outer loop
vertex 190.44567880336712 -60.396760911478594 1
vertex 190.8604020590688 -60.617274450000025 0
vertex 190.85189458756238 -60.61275092106848 0
endloop
endfacet
facet normal 0 0 1
outer loop
vertex 190.44567880336712 -60.396760911478594 1
vertex 190.85189458756238 -60.61275092106848 0
vertex 190.84009869958763 -60.606478900000084 0
endloop
endfacet
facet normal 0 0 1
outer loop
vertex 190.44567880336712 -60.396760911478594 1
vertex 190.84009869958763 -60.606478900000084 0
vertex 190.44567880336714 -60.39676091147861 0
endloop
endfacet
facet normal 0.30901933739015996 0.9510557550001717 0
outer loop
vertex 189.98978415358775 -60.248630518645285 1
vertex 190.44567880336712 -60.396760911478594 1
vertex 190.44567880336714 -60.39676091147861 0
endloop
endfacet
facet normal 0.30901933739015996 0.9510557550001717 0
outer loop
vertex 189.98978415358775 -60.248630518645285 1
vertex 190.44567880336714 -60.39676091147861 0
vertex 189.98978415358772 -60.248630518645285 0
endloop
endfacet
facet normal 0.13917561248311475 0.9902677157667769 0
outer loop
vertex 189.5150929999999 -60.1819158 1
vertex 189.98978415358775 -60.248630518645285 1
vertex 189.98978415358772 -60.248630518645285 0
endloop
endfacet
facet normal 0.13917561248311475 0.9902677157667769 0
outer loop
vertex 189.5150929999999 -60.1819158 1
vertex 189.98978415358772 -60.248630518645285 0
vertex 189.51509299999998 -60.18191580000001 0
endloop
endfacet
facet normal 0.05233588581025118 0.9986295384457925 0
outer loop
vertex 177.80465159999932 -59.56819839999996 1
vertex 189.5150929999999 -60.1819158 1
vertex 189.51509299999998 -60.18191580000001 0
endloop
endfacet
facet normal 0.05233588581025118 0.9986295384457925 0
outer loop
vertex 177.80465159999932 -59.56819839999996 1
vertex 189.51509299999998 -60.18191580000001 0
vertex 177.80465159999858 -59.568198399999915 0
endloop
endfacet
facet normal 0.06110451272189721 0.998131373379787 0
outer loop
vertex 177.75625591103804 -59.5652356687697 1
vertex 177.80465159999932 -59.56819839999996 1
vertex 177.80465159999858 -59.568198399999915 0
endloop
endfacet
facet normal 0.06110451272189721 0.998131373379787 0
outer loop
vertex 177.75625591103804 -59.5652356687697 1
vertex 177.80465159999858 -59.568198399999915 0
vertex 177.7562559110374 -59.56523566876966 0
endloop
endfacet
facet normal 0.07870544106455668 0.996897915308701 0
outer loop
vertex 177.7079157999994 -59.56141919999996 1
vertex 177.75625591103804 -59.5652356687697 1
vertex 177.7562559110374 -59.56523566876966 0
endloop
endfacet
facet normal 0.07870544106455668 0.996897915308701 0
outer loop
vertex 177.7079157999994 -59.56141919999996 1
vertex 177.7562559110374 -59.56523566876966 0
vertex 177.7079158000001 -59.56141920000002 0
endloop
endfacet
facet normal 0.08751168885495986 0.9961634927629865 0
outer loop
vertex 154.9940950999992 -57.56603909999993 1
vertex 177.7079157999994 -59.56141919999996 1
vertex 177.7079158000001 -59.56141920000002 0
endloop
endfacet
facet normal 0.08751168885495986 0.9961634927629865 0
outer loop
vertex 154.9940950999992 -57.56603909999993 1
vertex 177.7079158000001 -59.56141920000002 0
vertex 154.99409510000115 -57.5660391000001 0
endloop
endfacet
facet normal 0.08127494101204036 0.9966917196222158 0
outer loop
vertex 154.9601234162177 -57.563268888769045 1
vertex 154.9940950999992 -57.56603909999993 1
vertex 154.99409510000115 -57.5660391000001 0
endloop
endfacet
facet normal 0.08127494101204036 0.9966917196222158 0
outer loop
vertex 154.9601234162177 -57.563268888769045 1
vertex 154.99409510000115 -57.5660391000001 0
vertex 154.96012341621784 -57.56326888876907 0
endloop
endfacet
facet normal 0.06892199564872215 0.9976220519394094 0
outer loop
vertex 154.92611755000183 -57.56091955000012 1
vertex 154.9601234162177 -57.563268888769045 1
vertex 154.96012341621784 -57.56326888876907 0
endloop
endfacet
facet normal 0.06892199564872215 0.9976220519394094 0
outer loop
vertex 154.92611755000183 -57.56091955000012 1
vertex 154.96012341621784 -57.56326888876907 0
vertex 154.92611755000004 -57.56091955000001 0
endloop
endfacet
facet normal 0.06279293075579064 0.9980265767238358 0
outer loop
vertex 132.5159300000005 -56.15093570000003 1
vertex 154.92611755000183 -57.56091955000012 1
vertex 154.92611755000004 -57.56091955000001 0
endloop
endfacet
facet normal 0.06279293075579064 0.9980265767238358 0
outer loop
vertex 132.5159300000005 -56.15093570000003 1
vertex 154.92611755000004 -57.56091955000001 0
vertex 132.51593000000045 -56.15093570000003 0
endloop
endfacet
facet normal 0.05843547430788476 0.9982911876513849 0
outer loop
vertex 132.49197067406982 -56.14953322886518 1
vertex 132.5159300000005 -56.15093570000003 1
vertex 132.51593000000045 -56.15093570000003 0
endloop
endfacet
facet normal 0.05843547430788476 0.9982911876513849 0
outer loop
vertex 132.49197067406982 -56.14953322886518 1
vertex 132.51593000000045 -56.15093570000003 0
vertex 132.49197067406948 -56.14953322886517 0
endloop
endfacet
facet normal 0.049796134125145386 0.998759402972603 0
outer loop
vertex 132.46799500000068 -56.14833785000002 1
vertex 132.49197067406982 -56.14953322886518 1
vertex 132.49197067406948 -56.14953322886517 0
endloop
endfacet
facet normal 0.049796134125145386 0.998759402972603 0
outer loop
vertex 132.46799500000068 -56.14833785000002 1
vertex 132.49197067406948 -56.14953322886517 0
vertex 132.4679950000003 -56.14833785000002 0
endloop
endfacet
facet normal 0.04536513745010495 0.998970472188309 0
outer loop
vertex 110.14875120000025 -55.13477880000001 1
vertex 132.46799500000068 -56.14833785000002 1
vertex 132.4679950000003 -56.14833785000002 0
endloop
endfacet
facet normal 0.04536513745010495 0.998970472188309 0
outer loop
vertex 110.14875120000025 -55.13477880000001 1
vertex 132.4679950000003 -56.14833785000002 0
vertex 110.1487512 -55.13477879999999 0
endloop
endfacet
facet normal 0.01881085551129047 0.9998230602036209 0
outer loop
vertex 110.00259528890106 -55.1320289957244 1
vertex 110.14875120000025 -55.13477880000001 1
vertex 110.1487512 -55.13477879999999 0
endloop
endfacet
facet normal 0.01881085551129047 0.9998230602036209 0
outer loop
vertex 110.00259528890106 -55.1320289957244 1
vertex 110.1487512 -55.13477879999999 0
vertex 110.00259528890123 -55.1320289957244 0
endloop
endfacet
facet normal -0.0343767602830951 0.9994089445029191 0
outer loop
vertex 109.85649560000002 -55.1370544 1
vertex 110.00259528890106 -55.1320289957244 1
vertex 110.00259528890123 -55.1320289957244 0
endloop
endfacet
facet normal -0.0343767602830951 0.9994089445029191 0
outer loop
vertex 109.85649560000002 -55.1370544 1
vertex 110.00259528890123 -55.1320289957244 0
vertex 109.85649559999986 -55.13705440000001 0
endloop
endfacet
facet normal -0.06090686740145654 0.9981434533689741 0
outer loop
vertex 87.55761880000114 -56.49773529999993 1
vertex 109.85649560000002 -55.1370544 1
vertex 109.85649559999986 -55.13705440000001 0
endloop
endfacet
facet normal -0.06090686740145654 0.9981434533689741 0
outer loop
vertex 87.55761880000114 -56.49773529999993 1
vertex 109.85649559999986 -55.13705440000001 0
vertex 87.5576188000004 -56.497735299999974 0
endloop
endfacet
facet normal -0.06533432345369762 0.9978634306250769 0
outer loop
vertex 87.53367211314286 -56.499303190491574 1
vertex 87.55761880000114 -56.49773529999993 1
vertex 87.5576188000004 -56.497735299999974 0
endloop
endfacet
facet normal -0.06533432345369762 0.9978634306250769 0
outer loop
vertex 87.53367211314286 -56.499303190491574 1
vertex 87.5576188000004 -56.497735299999974 0
vertex 87.53367211314243 -56.4993031904916 0
endloop
endfacet
facet normal -0.07394072539185005 0.9972626379888736 0
outer loop
vertex 87.5097393999994 -56.50107765000004 1
vertex 87.53367211314286 -56.499303190491574 1
vertex 87.53367211314243 -56.4993031904916 0
endloop
endfacet
facet normal -0.07394072539185005 0.9972626379888736 0
outer loop
vertex 87.5097393999994 -56.50107765000004 1
vertex 87.53367211314243 -56.4993031904916 0
vertex 87.50973939999979 -56.50107765000001 0
endloop
endfacet
facet normal -0.07831758785056313 0.9969284605393054 0
outer loop
vertex 65.1257435000008 -58.25953939999994 1
vertex 87.5097393999994 -56.50107765000004 1
vertex 87.50973939999979 -56.50107765000001 0
endloop
endfacet
facet normal -0.07831758785056313 0.9969284605393054 0
outer loop
vertex 65.1257435000008 -58.25953939999994 1
vertex 87.50973939999979 -56.50107765000001 0
vertex 65.12574350000163 -58.25953939999988 0
endloop
endfacet
facet normal -0.08445497451677399 0.9964272965346599 0
outer loop
vertex 65.09212797811182 -58.26238857731008 1
vertex 65.1257435000008 -58.25953939999994 1
vertex 65.12574350000163 -58.25953939999988 0
endloop
endfacet
facet normal -0.08445497451677399 0.9964272965346599 0
outer loop
vertex 65.09212797811182 -58.26238857731008 1
vertex 65.12574350000163 -58.25953939999988 0
vertex 65.09212797811072 -58.26238857731019 0
endloop
endfacet
facet normal -0.09680358763252177 0.9953035041742155 0
outer loop
vertex 65.05854674999959 -58.26565470000003 1
vertex 65.09212797811182 -58.26238857731008 1
vertex 65.09212797811072 -58.26238857731019 0
endloop
endfacet
facet normal -0.09680358763252177 0.9953035041742155 0
outer loop
vertex 65.05854674999959 -58.26565470000003 1
vertex 65.09212797811072 -58.26238857731019 0
vertex 65.05854674999871 -58.26565470000011 0
endloop
endfacet
facet normal 0 0 -1
outer loop
vertex 42.39790709999971 -60.60647890000003 1
vertex 52.44911054625737 -59.56819839999996 1
vertex 52.47779163422145 -59.5652356687697 1
endloop
endfacet
facet normal 0 0 -1
outer loop
vertex 42.39790709999971 -60.60647890000003 1
vertex 52.47779163422145 -59.5652356687697 1
vertex 52.51473743456245 -59.56141919999996 1
endloop
endfacet
facet normal 0 0 -1
outer loop
vertex 42.39790709999971 -60.60647890000003 1
vertex 52.51473743456245 -59.56141919999996 1
vertex 65.05854674999959 -58.26565470000003 1
endloop
endfacet
facet normal 0 0 -1
outer loop
vertex 42.39790709999971 -60.60647890000003 1
vertex 65.05854674999959 -58.26565470000003 1
vertex 65.05854674999871 -58.26565470000011 0
endloop
endfacet
facet normal 0 0 -1
outer loop
vertex 42.39790709999971 -60.60647890000003 1
vertex 65.05854674999871 -58.26565470000011 0
vertex 52.51473743456185 -59.56141920000002 0
endloop
endfacet
facet normal 0 0 -1
outer loop
vertex 42.39790709999971 -60.60647890000003 1
vertex 52.51473743456185 -59.56141920000002 0
vertex 52.47779163422181 -59.56523566876966 0
endloop
endfacet
facet normal 0 0 -1
outer loop
vertex 42.39790709999971 -60.60647890000003 1
vertex 52.47779163422181 -59.56523566876966 0
vertex 52.44911054625774 -59.568198399999915 0
endloop
endfacet
facet normal 0 0 -1
outer loop
vertex 42.39790709999971 -60.60647890000003 1
vertex 52.44911054625774 -59.568198399999915 0
vertex 42.39790709999916 -60.606478900000084 0
endloop
endfacet
facet normal -0.09019468091815953 0.9959241535047092 0
outer loop
vertex 42.328651826742 -60.612750921068496 1
vertex 42.39790709999971 -60.60647890000003 1
vertex 42.39790709999916 -60.606478900000084 0
endloop
endfacet
facet normal -0.09019468091815953 0.9959241535047092 0
outer loop
vertex 42.328651826742 -60.612750921068496 1
vertex 42.39790709999916 -60.606478900000084 0
vertex 42.32865182674224 -60.61275092106848 0
endloop
endfacet
facet normal -0.06505345451316205 0.9978817806012413 0
outer loop
vertex 42.25926354999973 -60.617274450000025 1
vertex 42.328651826742 -60.612750921068496 1
vertex 42.32865182674224 -60.61275092106848 0
endloop
endfacet
facet normal -0.06505345451316205 0.9978817806012413 0
outer loop
vertex 42.25926354999973 -60.617274450000025 1
vertex 42.32865182674224 -60.61275092106848 0
vertex 42.259263549999865 -60.617274450000025 0
endloop
endfacet
facet normal -0.05233523034543451 0.9986295727969858 0
outer loop
vertex 30.569858299999908 -61.22988170000002 1
vertex 42.25926354999973 -60.617274450000025 1
vertex 42.259263549999865 -60.617274450000025 0
endloop
endfacet
facet normal -0.05233523034543451 0.9986295727969858 0
outer loop
vertex 30.569858299999908 -61.22988170000002 1
vertex 42.259263549999865 -60.617274450000025 0
vertex 30.56985829999985 -61.22988170000002 0
endloop
endfacet
facet normal -0.13917268046449752 0.9902681278382774 0
outer loop
vertex 30.0951629964123 -61.29659556864527 1
vertex 30.569858299999908 -61.22988170000002 1
vertex 30.56985829999985 -61.22988170000002 0
endloop
endfacet
facet normal -0.13917268046449752 0.9902681278382774 0
outer loop
vertex 30.0951629964123 -61.29659556864527 1
vertex 30.56985829999985 -61.22988170000002 0
vertex 30.095162996412313 -61.29659556864527 0
endloop
endfacet
facet normal -0.30901933739016835 0.951055755000169 0
outer loop
vertex 29.639268346632804 -61.44472596147861 1
vertex 30.0951629964123 -61.29659556864527 1
vertex 30.095162996412313 -61.29659556864527 0
endloop
endfacet
facet normal -0.30901933739016835 0.951055755000169 0
outer loop
vertex 29.639268346632804 -61.44472596147861 1
vertex 30.095162996412313 -61.29659556864527 0
vertex 29.63926834663276 -61.44472596147864 0
endloop
endfacet
facet normal -0.4694736738948811 0.8829464703591283 0
outer loop
vertex 29.216022317404864 -61.66977116520681 1
vertex 29.639268346632804 -61.44472596147861 1
vertex 29.63926834663276 -61.44472596147864 0
endloop
endfacet
facet normal -0.4694736738948811 0.8829464703591283 0
outer loop
vertex 29.216022317404864 -61.66977116520681 1
vertex 29.63926834663276 -61.44472596147864 0
vertex 29.216022317404963 -61.669771165206754 0
endloop
endfacet
facet normal -0.6156633022226413 0.7880093262749576 0
outer loop
vertex 28.83828501447995 -61.96489330086828 1
vertex 29.216022317404864 -61.66977116520681 1
vertex 29.216022317404963 -61.669771165206754 0
endloop
endfacet
facet normal -0.6156633022226413 0.7880093262749576 0
outer loop
vertex 28.83828501447995 -61.96489330086828 1
vertex 29.216022317404963 -61.669771165206754 0
vertex 28.838285014479936 -61.9648933008683 0
endloop
endfacet
facet normal -0.7431463281789071 0.6691289374359836 0
outer loop
vertex 28.51753378513736 -62.32112523915242 1
vertex 28.83828501447995 -61.96489330086828 1
vertex 28.838285014479936 -61.9648933008683 0
endloop
endfacet
facet normal -0.7431463281789071 0.6691289374359836 0
outer loop
vertex 28.51753378513736 -62.32112523915242 1
vertex 28.838285014479936 -61.9648933008683 0
vertex 28.51753378513743 -62.32112523915234 0
endloop
endfacet
facet normal -0.8480492477443977 0.5299174213027549 0
outer loop
vertex 28.263514485084073 -62.72764306185988 1
vertex 28.51753378513736 -62.32112523915242 1
vertex 28.51753378513743 -62.32112523915234 0
endloop
endfacet
facet normal -0.8480492477443977 0.5299174213027549 0
outer loop
vertex 28.263514485084073 -62.72764306185988 1
vertex 28.51753378513743 -62.32112523915234 0
vertex 28.263514485084045 -62.727643061859936 0
endloop
endfacet
facet normal -0.9271846414369909 0.37460464583792674 0
outer loop
vertex 28.08394535580632 -63.17209494090727 1
vertex 28.263514485084073 -62.72764306185988 1
vertex 28.263514485084045 -62.727643061859936 0
endloop
endfacet
facet normal -0.9271846414369909 0.37460464583792674 0
outer loop
vertex 28.08394535580632 -63.17209494090727 1
vertex 28.263514485084045 -62.727643061859936 0
vertex 28.08394535580632 -63.17209494090727 0
endloop
endfacet
facet normal -0.9781480223594415 0.2079097072152081 0
outer loop
vertex 27.9842825099024 -63.64097644206163 1
vertex 28.08394535580632 -63.17209494090727 1
vertex 28.08394535580632 -63.17209494090727 0
endloop
endfacet
facet normal -0.9781480223594415 0.2079097072152081 0
outer loop
vertex 27.9842825099024 -63.64097644206163 1
vertex 28.08394535580632 -63.17209494090727 0
vertex 27.9842825099024 -63.640976442061614 0
endloop
endfacet
facet normal -0.999390895256321 0.03489754258926325 0
outer loop
vertex 27.967554149999998 -64.12004085000004 1
vertex 27.9842825099024 -63.64097644206163 1
vertex 27.9842825099024 -63.640976442061614 0
endloop
endfacet
facet normal -0.999390895256321 0.03489754258926325 0
outer loop
vertex 27.967554149999998 -64.12004085000004 1
vertex 27.9842825099024 -63.640976442061614 0
vertex 27.967554149999998 -64.12004085000007 0
endloop
endfacet
facet normal 0 0 1
outer loop
vertex 33.28920479999999 -165.6632371999999 1
vertex 33.285905202694295 -165.60027709999994 1
vertex 33.26901140006772 -165.27792397499573 1
endloop
endfacet
facet normal 0 0 1
outer loop
vertex 33.28920479999999 -165.6632371999999 1
vertex 33.26901140006772 -165.27792397499573 1
vertex 33.25171981554596 -164.94798071532398 1
endloop
endfacet
facet normal 0 0 1
outer loop
vertex 33.28920479999999 -165.6632371999999 1
vertex 33.25171981554596 -164.94798071532398 1
vertex 33.23428338094226 -164.6152735499996 1
endloop
endfacet
facet normal 0 0 1
outer loop
vertex 33.28920479999999 -165.6632371999999 1
vertex 33.23428338094226 -164.6152735499996 1
vertex 27.967554149999998 -64.12004085000004 1
endloop
endfacet
facet normal 0 0 1
outer loop
vertex 33.28920479999999 -165.6632371999999 1
vertex 27.967554149999998 -64.12004085000004 1
vertex 27.967554149999998 -64.12004085000007 0
endloop
endfacet
facet normal 0 0 1
outer loop
vertex 33.28920479999999 -165.6632371999999 1
vertex 27.967554149999998 -64.12004085000007 0
vertex 33.23428338094231 -164.61527355000064 0
endloop
endfacet
facet normal 0 0 1
outer loop
vertex 33.28920479999999 -165.6632371999999 1
vertex 33.23428338094231 -164.61527355000064 0
vertex 33.25171981554596 -164.9479807153239 0
endloop
endfacet
facet normal 0 0 1
outer loop
vertex 33.28920479999999 -165.6632371999999 1
vertex 33.25171981554596 -164.9479807153239 0
vertex 33.26901140006772 -165.27792397499573 0
endloop
endfacet
facet normal 0 0 1
outer loop
vertex 33.28920479999999 -165.6632371999999 1
vertex 33.26901140006772 -165.27792397499573 0
vertex 33.285905202694295 -165.60027710000003 0
endloop
endfacet
facet normal 0 0 1
outer loop
vertex 33.28920479999999 -165.6632371999999 1
vertex 33.285905202694295 -165.60027710000003 0
vertex 33.28920479999999 -165.6632371999999 0
endloop
endfacet
facet normal -0.999966586387824 0.008174723719051258 0
outer loop
vertex 33.286484908518105 -165.995945765324 1
vertex 33.28920479999999 -165.6632371999999 1
vertex 33.28920479999999 -165.6632371999999 0
endloop
endfacet
facet normal -0.999966586387824 0.008174723719051258 0
outer loop
vertex 33.286484908518105 -165.995945765324 1
vertex 33.28920479999999 -165.6632371999999 0
vertex 33.28648490851811 -165.995945765324 0
endloop
endfacet
facet normal -0.9916594780130947 0.12888552931495662 0
outer loop
vertex 33.24360233379409 -166.32588902499563 1
vertex 33.286484908518105 -165.995945765324 1
vertex 33.28648490851811 -165.995945765324 0
endloop
endfacet
facet normal -0.9916594780130947 0.12888552931495662 0
outer loop
vertex 33.24360233379409 -166.32588902499563 1
vertex 33.28648490851811 -165.995945765324 0
vertex 33.24360233379408 -166.32588902499566 0
endloop
endfacet
facet normal -0.9688363132636698 0.24770183306075946 0
outer loop
vertex 33.161187399999946 -166.64823860000018 1
vertex 33.24360233379409 -166.32588902499563 1
vertex 33.24360233379408 -166.32588902499566 0
endloop
endfacet
facet normal -0.9688363132636698 0.24770183306075946 0
outer loop
vertex 33.161187399999946 -166.64823860000018 1
vertex 33.24360233379408 -166.32588902499566 0
vertex 33.161187399999946 -166.6482386000002 0
endloop
endfacet
facet normal -0.9520805764307868 0.30584730828179785 0
outer loop
vertex 26.591693800000016 -187.09859759999995 1
vertex 33.161187399999946 -166.64823860000018 1
vertex 33.161187399999946 -166.6482386000002 0
endloop
endfacet
facet normal -0.9520805764307868 0.30584730828179785 0
outer loop
vertex 26.591693800000016 -187.09859759999995 1
vertex 33.161187399999946 -166.6482386000002 0
vertex 26.5916938 -187.0985976 0
endloop
endfacet
facet normal -0.969685339107033 0.2443569993286016 0
outer loop
vertex 26.505777592628732 -187.43954010178427 1
vertex 26.591693800000016 -187.09859759999995 1
vertex 26.5916938 -187.0985976 0
endloop
endfacet
facet normal -0.969685339107033 0.2443569993286016 0
outer loop
vertex 26.505777592628732 -187.43954010178427 1
vertex 26.5916938 -187.0985976 0
vertex 26.505777592628732 -187.43954010178425 0
endloop
endfacet
facet normal -0.9929375111956273 0.1186385218242095 0
outer loop
vertex 26.464063622270885 -187.78866250547182 1
vertex 26.505777592628732 -187.43954010178427 1
vertex 26.505777592628732 -187.43954010178425 0
endloop
endfacet
facet normal -0.9929375111956273 0.1186385218242095 0
outer loop
vertex 26.464063622270885 -187.78866250547182 1
vertex 26.505777592628732 -187.43954010178425 0
vertex 26.464063622270885 -187.78866250547176 0
endloop
endfacet
facet normal -0.9999592729069141 -0.009025105399700804 0
outer loop
vertex 26.467236900000003 -188.14025380000012 1
vertex 26.464063622270885 -187.78866250547182 1
vertex 26.464063622270885 -187.78866250547176 0
endloop
endfacet
facet normal -0.9999592729069141 -0.009025105399700804 0
outer loop
vertex 26.467236900000003 -188.14025380000012 1
vertex 26.464063622270885 -187.78866250547176 0
vertex 26.467236900000003 -188.14025379999995 0
endloop
endfacet
endsolid csg.js
