solid csg.js
facet normal 0 0 -1
outer loop
vertex 116.9775666 -82.6781403 0
vertex 116.9775666 -96.6281403 0
vertex 103.0275666 -96.6281403 0
endloop
endfacet
facet normal 0 0 -1
outer loop
vertex 116.9775666 -82.6781403 0
vertex 103.0275666 -96.6281403 0
vertex 103.0275666 -82.6781403 0
endloop
endfacet
facet normal 0 0 -1
outer loop
vertex 138.98510091309822 -83.81696320022861 0
vertex 138.74163981309817 -97.76483850022865 0
vertex 124.79376451309894 -97.52137740022923 0
endloop
endfacet
facet normal 0 0 -1
outer loop
vertex 138.98510091309822 -83.81696320022861 0
vertex 124.79376451309894 -97.52137740022923 0
vertex 125.03722561309894 -83.57350210022958 0
endloop
endfacet
facet normal 0 0 -1
outer loop
vertex 95.23187498690068 -97.8711459002288 0
vertex 81.2839996869012 -98.11460700022923 0
vertex 81.04053858690119 -84.16673170022918 0
endloop
endfacet
facet normal 0 0 -1
outer loop
vertex 95.23187498690068 -97.8711459002288 0
vertex 81.04053858690119 -84.16673170022918 0
vertex 94.98841388690066 -83.92327060022868 0
endloop
endfacet
facet normal 0 0 -1
outer loop
vertex 160.96940765547325 -85.33969730542988 0
vertex 160.4825596554732 -99.28119930542985 0
vertex 146.54105765547303 -98.79435130542964 0
endloop
endfacet
facet normal 0 0 -1
outer loop
vertex 160.96940765547325 -85.33969730542988 0
vertex 146.54105765547303 -98.79435130542964 0
vertex 147.027905655473 -84.8528493054296 0
endloop
endfacet
facet normal 0 0 -1
outer loop
vertex 73.51118904452709 -99.49347700542927 0
vertex 59.56968704452705 -99.98032500542953 0
vertex 59.08283904452705 -86.0388230054295 0
endloop
endfacet
facet normal 0 0 -1
outer loop
vertex 73.51118904452709 -99.49347700542927 0
vertex 59.08283904452705 -86.0388230054295 0
vertex 73.02434104452709 -85.55197500542926 0
endloop
endfacet
facet normal 0 0 -1
outer loop
vertex 183.27981130000003 -87.44294750000003 0
vertex 182.5497247 -101.37382950000001 0
vertex 168.61884269999996 -100.64374290000002 0
endloop
endfacet
facet normal 0 0 -1
outer loop
vertex 183.27981130000003 -87.44294750000003 0
vertex 168.61884269999996 -100.64374290000002 0
vertex 169.34892929999998 -86.71286089999998 0
endloop
endfacet
facet normal 0 0 -1
outer loop
vertex 51.46610439999999 -101.6917082 0
vertex 37.53522240000001 -102.4217948 0
vertex 36.8051358 -88.49091280000002 0
endloop
endfacet
facet normal 0 0 -1
outer loop
vertex 51.46610439999999 -101.6917082 0
vertex 36.8051358 -88.49091280000002 0
vertex 50.736017800000006 -87.76082620000004 0
endloop
endfacet
facet normal 0 0 -1
outer loop
vertex 116.9775666 -103.7281403 0
vertex 116.9775666 -117.6781403 0
vertex 103.0275666 -117.6781403 0
endloop
endfacet
facet normal 0 0 -1
outer loop
vertex 116.9775666 -103.7281403 0
vertex 103.0275666 -117.6781403 0
vertex 103.0275666 -103.7281403 0
endloop
endfacet
facet normal 0 0 -1
outer loop
vertex 138.6177277104784 -104.86375720018329 0
vertex 138.3742666104784 -118.81163250018298 0
vertex 124.42639131047913 -118.56817140018387 0
endloop
endfacet
facet normal 0 0 -1
outer loop
vertex 138.6177277104784 -104.86375720018329 0
vertex 124.42639131047913 -118.56817140018387 0
vertex 124.66985241047914 -104.62029610018382 0
endloop
endfacet
facet normal 0 0 -1
outer loop
vertex 95.59924818952047 -118.91793990018304 0
vertex 81.65137288952097 -119.16140100018352 0
vertex 81.40791178952098 -105.2135257001839 0
endloop
endfacet
facet normal 0 0 -1
outer loop
vertex 95.59924818952047 -118.91793990018304 0
vertex 81.40791178952098 -105.2135257001839 0
vertex 95.35578708952046 -104.97006460018302 0
endloop
endfacet
facet normal 0 0 -1
outer loop
vertex 160.23477321660502 -106.37687420407232 0
vertex 159.747925216605 -120.31837620407232 0
vertex 145.8064232166047 -119.83152820407228 0
endloop
endfacet
facet normal 0 0 -1
outer loop
vertex 160.23477321660502 -106.37687420407232 0
vertex 145.8064232166047 -119.83152820407228 0
vertex 146.2932712166047 -105.89002620407224 0
endloop
endfacet
facet normal 0 0 -1
outer loop
vertex 74.24582348339531 -120.53065390407195 0
vertex 60.304321483395285 -121.01750190407193 0
vertex 59.81747348339528 -107.07599990407222 0
endloop
endfacet
facet normal 0 0 -1
outer loop
vertex 74.24582348339531 -120.53065390407195 0
vertex 59.81747348339528 -107.07599990407222 0
vertex 73.75897548339533 -106.58915190407224 0
endloop
endfacet
facet normal 0 0 -1
outer loop
vertex 182.1781394049308 -108.46409920025857 0
vertex 181.44805280493077 -122.39498120025843 0
vertex 167.51717080493071 -121.66489460025853 0
endloop
endfacet
facet normal 0 0 -1
outer loop
vertex 182.1781394049308 -108.46409920025857 0
vertex 167.51717080493071 -121.66489460025853 0
vertex 168.24725740493074 -107.73401260025841 0
endloop
endfacet
facet normal 0 0 -1
outer loop
vertex 52.56777629506921 -122.71285990025834 0
vertex 38.63689429506924 -123.44294650025843 0
vertex 37.90680769506925 -109.51206450025835 0
endloop
endfacet
facet normal 0 0 -1
outer loop
vertex 52.56777629506921 -122.71285990025834 0
vertex 37.90680769506925 -109.51206450025835 0
vertex 51.83768969506923 -108.78197790025848 0
endloop
endfacet
facet normal 0 0 -1
outer loop
vertex 116.9775666 -124.7781403 0
vertex 116.9775666 -138.7281403 0
vertex 103.0275666 -138.7281403 0
endloop
endfacet
facet normal 0 0 -1
outer loop
vertex 116.9775666 -124.7781403 0
vertex 103.0275666 -138.7281403 0
vertex 103.0275666 -124.7781403 0
endloop
endfacet
facet normal 0 0 -1
outer loop
vertex 138.25035450785862 -125.91055120013755 0
vertex 138.0068934078586 -139.85842650013717 0
vertex 124.05901810785937 -139.61496540013806 0
endloop
endfacet
facet normal 0 0 -1
outer loop
vertex 138.25035450785862 -125.91055120013755 0
vertex 124.05901810785937 -139.61496540013806 0
vertex 124.30247920785935 -125.66709010013807 0
endloop
endfacet
facet normal 0 0 -1
outer loop
vertex 95.96662139214027 -139.96473390013745 0
vertex 82.01874609214076 -140.20819500013812 0
vertex 81.77528499214075 -126.2603197001386 0
endloop
endfacet
facet normal 0 0 -1
outer loop
vertex 95.96662139214027 -139.96473390013745 0
vertex 81.77528499214075 -126.2603197001386 0
vertex 95.72316029214025 -126.0168586001374 0
endloop
endfacet
facet normal 0 0 -1
outer loop
vertex 159.50013877773677 -127.41405110271496 0
vertex 159.01329077773673 -141.35555310271533 0
vertex 145.0717887777365 -140.8687051027146 0
endloop
endfacet
facet normal 0 0 -1
outer loop
vertex 159.50013877773677 -127.41405110271496 0
vertex 145.0717887777365 -140.8687051027146 0
vertex 145.55863677773647 -126.92720310271494 0
endloop
endfacet
facet normal 0 0 -1
outer loop
vertex 74.98045792226357 -141.56783080271518 0
vertex 61.03895592226355 -142.0546788027152 0
vertex 60.552107922263524 -128.11317680271463 0
endloop
endfacet
facet normal 0 0 -1
outer loop
vertex 74.98045792226357 -141.56783080271518 0
vertex 60.552107922263524 -128.11317680271463 0
vertex 74.49360992226356 -127.6263288027146 0
endloop
endfacet
facet normal 0 0 -1
outer loop
vertex 181.0764675098615 -129.4852509005172 0
vertex 180.3463809098615 -143.41613290051683 0
vertex 166.4154989098614 -142.6860463005171 0
endloop
endfacet
facet normal 0 0 -1
outer loop
vertex 181.0764675098615 -129.4852509005172 0
vertex 166.4154989098614 -142.6860463005171 0
vertex 167.14558550986146 -128.75516430051704 0
endloop
endfacet
facet normal 0 0 -1
outer loop
vertex 53.66944819013845 -143.73401160051725 0
vertex 39.73856619013846 -144.46409820051693 0
vertex 39.00847959013848 -130.53321620051707 0
endloop
endfacet
facet normal 0 0 -1
outer loop
vertex 53.66944819013845 -143.73401160051725 0
vertex 39.00847959013848 -130.53321620051707 0
vertex 52.939361590138446 -129.8031296005169 0
endloop
endfacet
facet normal 0 0 -1
outer loop
vertex 116.9775666 -145.8281403 0
vertex 116.9775666 -159.7781403 0
vertex 103.0275666 -159.7781403 0
endloop
endfacet
facet normal 0 0 -1
outer loop
vertex 116.9775666 -145.8281403 0
vertex 103.0275666 -159.7781403 0
vertex 103.0275666 -145.8281403 0
endloop
endfacet
facet normal 0 0 -1
outer loop
vertex 137.88298130523881 -146.95734520009165 0
vertex 137.6395202052388 -160.90522050009142 0
vertex 123.69164490523956 -160.66175940009228 0
endloop
endfacet
facet normal 0 0 -1
outer loop
vertex 137.88298130523881 -146.95734520009165 0
vertex 123.69164490523956 -160.66175940009228 0
vertex 123.93510600523958 -146.71388410009232 0
endloop
endfacet
facet normal 0 0 -1
outer loop
vertex 96.33399459476004 -161.01152790009166 0
vertex 82.38611929476049 -161.25498900009148 0
vertex 82.14265819476051 -147.30711370009152 0
endloop
endfacet
facet normal 0 0 -1
outer loop
vertex 96.33399459476004 -161.01152790009166 0
vertex 82.14265819476051 -147.30711370009152 0
vertex 96.09053349476004 -147.06365260009102 0
endloop
endfacet
facet normal 0 0 -1
outer loop
vertex 158.7655043388685 -148.45122800135746 0
vertex 158.2786563388685 -162.39273000135802 0
vertex 144.33715433886823 -161.90588200135863 0
endloop
endfacet
facet normal 0 0 -1
outer loop
vertex 158.7655043388685 -148.45122800135746 0
vertex 144.33715433886823 -161.90588200135863 0
vertex 144.82400233886827 -147.9643800013573 0
endloop
endfacet
facet normal 0 0 -1
outer loop
vertex 75.7150923611318 -162.60500770135783 0
vertex 61.77359036113177 -163.0918557013573 0
vertex 61.286742361131765 -149.15035370135735 0
endloop
endfacet
facet normal 0 0 -1
outer loop
vertex 75.7150923611318 -162.60500770135783 0
vertex 61.286742361131765 -149.15035370135735 0
vertex 75.2282443611318 -148.66350570135788 0
endloop
endfacet
facet normal 0 0 -1
outer loop
vertex 179.97479561479224 -150.50640260077552 0
vertex 179.24470901479222 -164.43728460077548 0
vertex 165.31382701479217 -163.70719800077526 0
endloop
endfacet
facet normal 0 0 -1
outer loop
vertex 179.97479561479224 -150.50640260077552 0
vertex 165.31382701479217 -163.70719800077526 0
vertex 166.0439136147922 -149.77631600077515 0
endloop
endfacet
facet normal 0 0 -1
outer loop
vertex 54.77112008520765 -164.75516330077534 0
vertex 40.84023808520767 -165.48524990077533 0
vertex 40.11015148520771 -151.55436790077553 0
endloop
endfacet
facet normal 0 0 -1
outer loop
vertex 54.77112008520765 -164.75516330077534 0
vertex 40.11015148520771 -151.55436790077553 0
vertex 54.04103348520767 -150.82428130077545 0
endloop
endfacet
facet normal 0 0 -1
outer loop
vertex 116.9775666 -166.8781403 0
vertex 116.9775666 -180.8281403 0
vertex 103.0275666 -180.8281403 0
endloop
endfacet
facet normal 0 0 -1
outer loop
vertex 116.9775666 -166.8781403 0
vertex 103.0275666 -180.8281403 0
vertex 103.0275666 -166.8781403 0
endloop
endfacet
facet normal 0 0 -1
outer loop
vertex 137.51560810261904 -168.00413920004516 0
vertex 137.27214700261896 -181.95201450004575 0
vertex 123.32427170261975 -181.70855340004655 0
endloop
endfacet
facet normal 0 0 -1
outer loop
vertex 137.51560810261904 -168.00413920004516 0
vertex 123.32427170261975 -181.70855340004655 0
vertex 123.56773280261979 -167.76067810004574 0
endloop
endfacet
facet normal 0 0 -1
outer loop
vertex 96.70136779737982 -182.05832190004597 0
vertex 82.75349249738026 -182.30178300004664 0
vertex 82.51003139738026 -168.35390770004577 0
endloop
endfacet
facet normal 0 0 -1
outer loop
vertex 96.70136779737982 -182.05832190004597 0
vertex 82.51003139738026 -168.35390770004577 0
vertex 96.45790669737983 -168.11044660004623 0
endloop
endfacet
facet normal 0 0 -1
outer loop
vertex 158.03086990000025 -169.48840490000072 0
vertex 157.54402190000027 -183.42990690000002 0
vertex 143.6025199 -182.94305890000004 0
endloop
endfacet
facet normal 0 0 -1
outer loop
vertex 158.03086990000025 -169.48840490000072 0
vertex 143.6025199 -182.94305890000004 0
vertex 144.0893679 -169.0015569 0
endloop
endfacet
facet normal 0 0 -1
outer loop
vertex 76.4497268 -183.64218459999998 0
vertex 62.5082248 -184.1290326 0
vertex 62.02137679999999 -170.18753059999997 0
endloop
endfacet
facet normal 0 0 -1
outer loop
vertex 76.4497268 -183.64218459999998 0
vertex 62.02137679999999 -170.18753059999997 0
vertex 75.96287880000003 -169.70068260000056 0
endloop
endfacet
facet normal 0 0 -1
outer loop
vertex 178.87312371972297 -171.52755430103377 0
vertex 178.14303711972295 -185.4584363010338 0
vertex 164.2121551197229 -184.7283497010336 0
endloop
endfacet
facet normal 0 0 -1
outer loop
vertex 178.87312371972297 -171.52755430103377 0
vertex 164.2121551197229 -184.7283497010336 0
vertex 164.94224171972292 -170.79746770103364 0
endloop
endfacet
facet normal 0 0 -1
outer loop
vertex 55.87279198027687 -185.776315001034 0
vertex 41.941909980276904 -186.50640160103387 0
vertex 41.21182338027691 -172.57551960103385 0
endloop
endfacet
facet normal 0 0 -1
outer loop
vertex 55.87279198027687 -185.776315001034 0
vertex 41.21182338027691 -172.57551960103385 0
vertex 55.14270538027687 -171.8454330010337 0
endloop
endfacet
facet normal 0 0 -1
outer loop
vertex 116.9775666 -187.9281403 0
vertex 116.97756660000002 -201.8781403 0
vertex 103.0275666 -201.8781403 0
endloop
endfacet
facet normal 0 0 -1
outer loop
vertex 116.9775666 -187.9281403 0
vertex 103.0275666 -201.8781403 0
vertex 103.0275666 -187.9281403 0
endloop
endfacet
facet normal 0 0 -1
outer loop
vertex 137.1482348999992 -189.05093320000034 0
vertex 136.90477380000002 -202.99880850000002 0
vertex 122.9568985 -202.75534740000003 0
endloop
endfacet
facet normal 0 0 -1
outer loop
vertex 137.1482348999992 -189.05093320000034 0
vertex 122.9568985 -202.75534740000003 0
vertex 123.20035959999998 -188.80747210000004 0
endloop
endfacet
facet normal 0 0 -1
outer loop
vertex 97.068741 -203.1051159 0
vertex 83.12086569999998 -203.34857700000003 0
vertex 82.8774046 -189.40070169999998 0
endloop
endfacet
facet normal 0 0 -1
outer loop
vertex 97.068741 -203.1051159 0
vertex 82.8774046 -189.40070169999998 0
vertex 96.82527989999966 -189.15724059999962 0
endloop
endfacet
facet normal 0 0 -1
outer loop
vertex 167.5182467 -191.9559089 0
vertex 166.5451438 -205.87192740000003 0
vertex 152.6291253 -204.89882450000002 0
endloop
endfacet
facet normal 0 0 -1
outer loop
vertex 167.5182467 -191.9559089 0
vertex 152.6291253 -204.89882450000002 0
vertex 153.60222820000004 -190.982806 0
endloop
endfacet
facet normal 0 0 -1
outer loop
vertex 67.45582180000001 -205.9467898 0
vertex 53.539803299999996 -206.9198927 0
vertex 52.56670039999999 -193.00387419999998 0
endloop
endfacet
facet normal 0 0 -1
outer loop
vertex 67.45582180000001 -205.9467898 0
vertex 52.56670039999999 -193.00387419999998 0
vertex 66.48271890000001 -192.0307713 0
endloop
endfacet
facet normal 0 0 1
outer loop
vertex 67.45582180000002 -205.9467898 1.41
vertex 66.48271890000002 -192.03077129999997 1.41
vertex 52.5667004 -193.00387419999998 1.41
endloop
endfacet
facet normal 0 0 1
outer loop
vertex 67.45582180000002 -205.9467898 1.41
vertex 52.5667004 -193.00387419999998 1.41
vertex 53.53980329999999 -206.9198927 1.41
endloop
endfacet
facet normal 0 0 1
outer loop
vertex 167.5182467 -191.9559089 1.41
vertex 153.6022282 -190.982806 1.41
vertex 152.6291253 -204.89882450000002 1.41
endloop
endfacet
facet normal 0 0 1
outer loop
vertex 167.5182467 -191.9559089 1.41
vertex 152.6291253 -204.89882450000002 1.41
vertex 166.5451438 -205.87192740000003 1.41
endloop
endfacet
facet normal 0 0 1
outer loop
vertex 97.068741 -203.1051159 1.41
vertex 96.82527989999966 -189.15724059999962 1.41
vertex 82.87740459999999 -189.40070169999998 1.41
endloop
endfacet
facet normal 0 0 1
outer loop
vertex 97.068741 -203.1051159 1.41
vertex 82.87740459999999 -189.40070169999998 1.41
vertex 83.1208657 -203.34857700000003 1.41
endloop
endfacet
facet normal 0 0 1
outer loop
vertex 137.1482348999992 -189.05093320000034 1.41
vertex 123.2003596 -188.80747210000004 1.41
vertex 122.95689849999998 -202.75534740000003 1.41
endloop
endfacet
facet normal 0 0 1
outer loop
vertex 137.1482348999992 -189.05093320000034 1.41
vertex 122.95689849999998 -202.75534740000003 1.41
vertex 136.9047738 -202.99880850000002 1.41
endloop
endfacet
facet normal 0 0 1
outer loop
vertex 116.9775666 -201.8781403 1.41
vertex 116.9775666 -187.9281403 1.41
vertex 103.0275666 -187.9281403 1.41
endloop
endfacet
facet normal 0 0 1
outer loop
vertex 116.9775666 -201.8781403 1.41
vertex 103.0275666 -187.9281403 1.41
vertex 103.0275666 -201.8781403 1.41
endloop
endfacet
facet normal 0 0 1
outer loop
vertex 55.87279198027687 -185.776315001034 1.41
vertex 55.14270538027687 -171.84543300103374 1.41
vertex 41.21182338027691 -172.57551960103388 1.41
endloop
endfacet
facet normal 0 0 1
outer loop
vertex 55.87279198027687 -185.776315001034 1.41
vertex 41.21182338027691 -172.57551960103388 1.41
vertex 41.941909980276904 -186.5064016010339 1.41
endloop
endfacet
facet normal 0 0 1
outer loop
vertex 178.87312371972294 -171.52755430103377 1.41
vertex 164.94224171972292 -170.79746770103367 1.41
vertex 164.2121551197229 -184.72834970103364 1.41
endloop
endfacet
facet normal 0 0 1
outer loop
vertex 178.87312371972294 -171.52755430103377 1.41
vertex 164.2121551197229 -184.72834970103364 1.41
vertex 178.14303711972292 -185.45843630103383 1.41
endloop
endfacet
facet normal 0 0 1
outer loop
vertex 76.44972679999998 -183.6421846 1.41
vertex 75.96287880000001 -169.70068260000053 1.41
vertex 62.021376800000006 -170.18753059999997 1.41
endloop
endfacet
facet normal 0 0 1
outer loop
vertex 76.44972679999998 -183.6421846 1.41
vertex 62.021376800000006 -170.18753059999997 1.41
vertex 62.50822480000001 -184.12903259999996 1.41
endloop
endfacet
facet normal 0 0 1
outer loop
vertex 158.03086990000025 -169.48840490000072 1.41
vertex 144.0893679 -169.0015569 1.41
vertex 143.6025199 -182.9430589 1.41
endloop
endfacet
facet normal 0 0 1
outer loop
vertex 158.03086990000025 -169.48840490000072 1.41
vertex 143.6025199 -182.9430589 1.41
vertex 157.54402190000027 -183.4299069 1.41
endloop
endfacet
facet normal 0 0 1
outer loop
vertex 96.70136779737983 -182.05832190004597 1.41
vertex 96.45790669737983 -168.11044660004626 1.41
vertex 82.51003139738026 -168.3539077000457 1.41
endloop
endfacet
facet normal 0 0 1
outer loop
vertex 96.70136779737983 -182.05832190004597 1.41
vertex 82.51003139738026 -168.3539077000457 1.41
vertex 82.75349249738026 -182.30178300004664 1.41
endloop
endfacet
facet normal 0 0 1
outer loop
vertex 137.51560810261904 -168.0041392000452 1.41
vertex 123.5677328026198 -167.76067810004577 1.41
vertex 123.32427170261977 -181.70855340004658 1.41
endloop
endfacet
facet normal 0 0 1
outer loop
vertex 137.51560810261904 -168.0041392000452 1.41
vertex 123.32427170261977 -181.70855340004658 1.41
vertex 137.27214700261896 -181.95201450004575 1.41
endloop
endfacet
facet normal 0 0 1
outer loop
vertex 116.9775666 -180.8281403 1.41
vertex 116.9775666 -166.8781403 1.41
vertex 103.0275666 -166.8781403 1.41
endloop
endfacet
facet normal 0 0 1
outer loop
vertex 116.9775666 -180.8281403 1.41
vertex 103.0275666 -166.8781403 1.41
vertex 103.0275666 -180.8281403 1.41
endloop
endfacet
facet normal 0 0 1
outer loop
vertex 54.77112008520765 -164.75516330077534 1.41
vertex 54.04103348520767 -150.82428130077545 1.41
vertex 40.110151485207695 -151.5543679007755 1.41
endloop
endfacet
facet normal 0 0 1
outer loop
vertex 54.77112008520765 -164.75516330077534 1.41
vertex 40.110151485207695 -151.5543679007755 1.41
vertex 40.84023808520767 -165.48524990077533 1.41
endloop
endfacet
facet normal 0 0 1
outer loop
vertex 179.9747956147922 -150.5064026007755 1.41
vertex 166.0439136147922 -149.77631600077515 1.41
vertex 165.31382701479217 -163.70719800077526 1.41
endloop
endfacet
facet normal 0 0 1
outer loop
vertex 179.9747956147922 -150.5064026007755 1.41
vertex 165.31382701479217 -163.70719800077526 1.41
vertex 179.2447090147922 -164.43728460077548 1.41
endloop
endfacet
facet normal 0 0 1
outer loop
vertex 75.71509236113178 -162.60500770135783 1.41
vertex 75.22824436113179 -148.66350570135788 1.41
vertex 61.28674236113176 -149.15035370135735 1.41
endloop
endfacet
facet normal 0 0 1
outer loop
vertex 75.71509236113178 -162.60500770135783 1.41
vertex 61.28674236113176 -149.15035370135735 1.41
vertex 61.77359036113176 -163.0918557013573 1.41
endloop
endfacet
facet normal 0 0 1
outer loop
vertex 158.7655043388685 -148.45122800135746 1.41
vertex 144.82400233886827 -147.96438000135734 1.41
vertex 144.33715433886823 -161.90588200135866 1.41
endloop
endfacet
facet normal 0 0 1
outer loop
vertex 158.7655043388685 -148.45122800135746 1.41
vertex 144.33715433886823 -161.90588200135866 1.41
vertex 158.2786563388685 -162.39273000135802 1.41
endloop
endfacet
facet normal 0 0 1
outer loop
vertex 96.33399459476004 -161.01152790009164 1.41
vertex 96.09053349476004 -147.063652600091 1.41
vertex 82.14265819476051 -147.30711370009152 1.41
endloop
endfacet
facet normal 0 0 1
outer loop
vertex 96.33399459476004 -161.01152790009164 1.41
vertex 82.14265819476051 -147.30711370009152 1.41
vertex 82.38611929476049 -161.25498900009148 1.41
endloop
endfacet
facet normal 0 0 1
outer loop
vertex 137.88298130523881 -146.95734520009168 1.41
vertex 123.93510600523955 -146.71388410009234 1.41
vertex 123.69164490523956 -160.6617594000923 1.41
endloop
endfacet
facet normal 0 0 1
outer loop
vertex 137.88298130523881 -146.95734520009168 1.41
vertex 123.69164490523956 -160.6617594000923 1.41
vertex 137.6395202052388 -160.90522050009145 1.41
endloop
endfacet
facet normal 0 0 1
outer loop
vertex 116.9775666 -159.7781403 1.41
vertex 116.9775666 -145.8281403 1.41
vertex 103.0275666 -145.8281403 1.41
endloop
endfacet
facet normal 0 0 1
outer loop
vertex 116.9775666 -159.7781403 1.41
vertex 103.0275666 -145.8281403 1.41
vertex 103.0275666 -159.7781403 1.41
endloop
endfacet
facet normal 0 0 1
outer loop
vertex 53.66944819013845 -143.73401160051725 1.41
vertex 52.939361590138446 -129.80312960051688 1.41
vertex 39.008479590138464 -130.53321620051705 1.41
endloop
endfacet
facet normal 0 0 1
outer loop
vertex 53.66944819013845 -143.73401160051725 1.41
vertex 39.008479590138464 -130.53321620051705 1.41
vertex 39.73856619013846 -144.4640982005169 1.41
endloop
endfacet
facet normal 0 0 1
outer loop
vertex 181.0764675098615 -129.48525090051723 1.41
vertex 167.14558550986143 -128.75516430051704 1.41
vertex 166.4154989098614 -142.6860463005171 1.41
endloop
endfacet
facet normal 0 0 1
outer loop
vertex 181.0764675098615 -129.48525090051723 1.41
vertex 166.4154989098614 -142.6860463005171 1.41
vertex 180.34638090986147 -143.41613290051686 1.41
endloop
endfacet
facet normal 0 0 1
outer loop
vertex 74.98045792226355 -141.56783080271518 1.41
vertex 74.49360992226354 -127.62632880271461 1.41
vertex 60.55210792226352 -128.11317680271466 1.41
endloop
endfacet
facet normal 0 0 1
outer loop
vertex 74.98045792226355 -141.56783080271518 1.41
vertex 60.55210792226352 -128.11317680271466 1.41
vertex 61.03895592226354 -142.05467880271522 1.41
endloop
endfacet
facet normal 0 0 1
outer loop
vertex 159.50013877773677 -127.41405110271498 1.41
vertex 145.55863677773647 -126.92720310271496 1.41
vertex 145.0717887777365 -140.86870510271464 1.41
endloop
endfacet
facet normal 0 0 1
outer loop
vertex 159.50013877773677 -127.41405110271498 1.41
vertex 145.0717887777365 -140.86870510271464 1.41
vertex 159.01329077773673 -141.3555531027153 1.41
endloop
endfacet
facet normal 0 0 1
outer loop
vertex 95.96662139214027 -139.96473390013745 1.41
vertex 95.72316029214025 -126.01685860013743 1.41
vertex 81.77528499214075 -126.26031970013858 1.41
endloop
endfacet
facet normal 0 0 1
outer loop
vertex 95.96662139214027 -139.96473390013745 1.41
vertex 81.77528499214075 -126.26031970013858 1.41
vertex 82.01874609214076 -140.20819500013812 1.41
endloop
endfacet
facet normal 0 0 1
outer loop
vertex 138.25035450785862 -125.91055120013755 1.41
vertex 124.30247920785936 -125.66709010013807 1.41
vertex 124.05901810785933 -139.61496540013806 1.41
endloop
endfacet
facet normal 0 0 1
outer loop
vertex 138.25035450785862 -125.91055120013755 1.41
vertex 124.05901810785933 -139.61496540013806 1.41
vertex 138.0068934078586 -139.8584265001372 1.41
endloop
endfacet
facet normal 0 0 1
outer loop
vertex 116.9775666 -138.7281403 1.41
vertex 116.9775666 -124.7781403 1.41
vertex 103.0275666 -124.7781403 1.41
endloop
endfacet
facet normal 0 0 1
outer loop
vertex 116.9775666 -138.7281403 1.41
vertex 103.0275666 -124.7781403 1.41
vertex 103.0275666 -138.7281403 1.41
endloop
endfacet
facet normal 0 0 1
outer loop
vertex 52.567776295069216 -122.71285990025834 1.41
vertex 51.83768969506924 -108.78197790025848 1.41
vertex 37.90680769506923 -109.51206450025835 1.41
endloop
endfacet
facet normal 0 0 1
outer loop
vertex 52.567776295069216 -122.71285990025834 1.41
vertex 37.90680769506923 -109.51206450025835 1.41
vertex 38.63689429506924 -123.44294650025844 1.41
endloop
endfacet
facet normal 0 0 1
outer loop
vertex 182.1781394049308 -108.46409920025856 1.41
vertex 168.2472574049307 -107.7340126002584 1.41
vertex 167.5171708049307 -121.66489460025853 1.41
endloop
endfacet
facet normal 0 0 1
outer loop
vertex 182.1781394049308 -108.46409920025856 1.41
vertex 167.5171708049307 -121.66489460025853 1.41
vertex 181.44805280493077 -122.39498120025843 1.41
endloop
endfacet
facet normal 0 0 1
outer loop
vertex 74.24582348339531 -120.53065390407195 1.41
vertex 73.75897548339533 -106.58915190407222 1.41
vertex 59.81747348339529 -107.07599990407222 1.41
endloop
endfacet
facet normal 0 0 1
outer loop
vertex 74.24582348339531 -120.53065390407195 1.41
vertex 59.81747348339529 -107.07599990407222 1.41
vertex 60.30432148339528 -121.01750190407195 1.41
endloop
endfacet
facet normal 0 0 1
outer loop
vertex 160.23477321660502 -106.37687420407231 1.41
vertex 146.2932712166047 -105.89002620407223 1.41
vertex 145.8064232166047 -119.83152820407227 1.41
endloop
endfacet
facet normal 0 0 1
outer loop
vertex 160.23477321660502 -106.37687420407231 1.41
vertex 145.8064232166047 -119.83152820407227 1.41
vertex 159.747925216605 -120.31837620407234 1.41
endloop
endfacet
facet normal 0 0 1
outer loop
vertex 95.59924818952048 -118.91793990018303 1.41
vertex 95.35578708952046 -104.97006460018301 1.41
vertex 81.40791178952098 -105.2135257001839 1.41
endloop
endfacet
facet normal 0 0 1
outer loop
vertex 95.59924818952048 -118.91793990018303 1.41
vertex 81.40791178952098 -105.2135257001839 1.41
vertex 81.65137288952099 -119.16140100018352 1.41
endloop
endfacet
facet normal 0 0 1
outer loop
vertex 138.6177277104784 -104.8637572001833 1.41
vertex 124.66985241047914 -104.62029610018384 1.41
vertex 124.42639131047913 -118.56817140018387 1.41
endloop
endfacet
facet normal 0 0 1
outer loop
vertex 138.6177277104784 -104.8637572001833 1.41
vertex 124.42639131047913 -118.56817140018387 1.41
vertex 138.3742666104784 -118.81163250018298 1.41
endloop
endfacet
facet normal 0 0 1
outer loop
vertex 116.9775666 -117.6781403 1.41
vertex 116.9775666 -103.7281403 1.41
vertex 103.0275666 -103.7281403 1.41
endloop
endfacet
facet normal 0 0 1
outer loop
vertex 116.9775666 -117.6781403 1.41
vertex 103.0275666 -103.7281403 1.41
vertex 103.0275666 -117.6781403 1.41
endloop
endfacet
facet normal 0 0 1
outer loop
vertex 51.46610439999999 -101.6917082 1.41
vertex 50.73601780000001 -87.76082620000004 1.41
vertex 36.8051358 -88.49091280000002 1.41
endloop
endfacet
facet normal 0 0 1
outer loop
vertex 51.46610439999999 -101.6917082 1.41
vertex 36.8051358 -88.49091280000002 1.41
vertex 37.53522240000001 -102.42179479999999 1.41
endloop
endfacet
facet normal 0 0 1
outer loop
vertex 183.27981130000003 -87.44294750000003 1.41
vertex 169.34892929999998 -86.71286089999998 1.41
vertex 168.61884269999996 -100.6437429 1.41
endloop
endfacet
facet normal 0 0 1
outer loop
vertex 183.27981130000003 -87.44294750000003 1.41
vertex 168.61884269999996 -100.6437429 1.41
vertex 182.5497247 -101.3738295 1.41
endloop
endfacet
facet normal 0 0 1
outer loop
vertex 73.51118904452709 -99.49347700542927 1.41
vertex 73.02434104452709 -85.55197500542927 1.41
vertex 59.08283904452704 -86.0388230054295 1.41
endloop
endfacet
facet normal 0 0 1
outer loop
vertex 73.51118904452709 -99.49347700542927 1.41
vertex 59.08283904452704 -86.0388230054295 1.41
vertex 59.56968704452705 -99.98032500542952 1.41
endloop
endfacet
facet normal 0 0 1
outer loop
vertex 160.96940765547325 -85.33969730542988 1.41
vertex 147.027905655473 -84.85284930542961 1.41
vertex 146.54105765547303 -98.79435130542964 1.41
endloop
endfacet
facet normal 0 0 1
outer loop
vertex 160.96940765547325 -85.33969730542988 1.41
vertex 146.54105765547303 -98.79435130542964 1.41
vertex 160.4825596554732 -99.28119930542985 1.41
endloop
endfacet
facet normal 0 0 1
outer loop
vertex 95.23187498690068 -97.8711459002288 1.41
vertex 94.98841388690066 -83.92327060022868 1.41
vertex 81.04053858690119 -84.16673170022918 1.41
endloop
endfacet
facet normal 0 0 1
outer loop
vertex 95.23187498690068 -97.8711459002288 1.41
vertex 81.04053858690119 -84.16673170022918 1.41
vertex 81.2839996869012 -98.11460700022923 1.41
endloop
endfacet
facet normal 0 0 1
outer loop
vertex 138.9851009130982 -83.81696320022863 1.41
vertex 125.03722561309895 -83.57350210022958 1.41
vertex 124.79376451309892 -97.52137740022923 1.41
endloop
endfacet
facet normal 0 0 1
outer loop
vertex 138.9851009130982 -83.81696320022863 1.41
vertex 124.79376451309892 -97.52137740022923 1.41
vertex 138.7416398130982 -97.76483850022865 1.41
endloop
endfacet
facet normal 0 0 1
outer loop
vertex 116.9775666 -96.6281403 1.41
vertex 116.9775666 -82.6781403 1.41
vertex 103.0275666 -82.6781403 1.41
endloop
endfacet
facet normal 0 0 1
outer loop
vertex 116.9775666 -96.6281403 1.41
vertex 103.0275666 -82.6781403 1.41
vertex 103.0275666 -96.6281403 1.41
endloop
endfacet
facet normal 0.06975648026050862 -0.9975640498041544 0
outer loop
vertex 67.45582180000002 -205.9467898 1.41
vertex 53.53980329999999 -206.9198927 1.41
vertex 53.539803299999996 -206.9198927 0
endloop
endfacet
facet normal 0.06975648026050862 -0.9975640498041544 0
outer loop
vertex 67.45582180000002 -205.9467898 1.41
vertex 53.539803299999996 -206.9198927 0
vertex 67.45582180000001 -205.9467898 0
endloop
endfacet
facet normal 0.9975640498041543 0.06975648026050862 0
outer loop
vertex 66.48271890000002 -192.03077129999997 1.41
vertex 67.45582180000002 -205.9467898 1.41
vertex 67.45582180000001 -205.9467898 0
endloop
endfacet
facet normal 0.9975640498041543 0.06975648026050862 0
outer loop
vertex 66.48271890000002 -192.03077129999997 1.41
vertex 67.45582180000001 -205.9467898 0
vertex 66.48271890000001 -192.0307713 0
endloop
endfacet
facet normal -0.06975648026050862 0.9975640498041543 0
outer loop
vertex 52.5667004 -193.00387419999998 1.41
vertex 66.48271890000002 -192.03077129999997 1.41
vertex 66.48271890000001 -192.0307713 0
endloop
endfacet
facet normal -0.06975648026050862 0.9975640498041543 0
outer loop
vertex 52.5667004 -193.00387419999998 1.41
vertex 66.48271890000001 -192.0307713 0
vertex 52.56670039999999 -193.00387419999998 0
endloop
endfacet
facet normal -0.9975640498041544 -0.06975648026050864 0
outer loop
vertex 53.53980329999999 -206.9198927 1.41
vertex 52.5667004 -193.00387419999998 1.41
vertex 52.56670039999999 -193.00387419999998 0
endloop
endfacet
facet normal -0.9975640498041544 -0.06975648026050864 0
outer loop
vertex 53.53980329999999 -206.9198927 1.41
vertex 52.56670039999999 -193.00387419999998 0
vertex 53.539803299999996 -206.9198927 0
endloop
endfacet
facet normal -0.06975648026050862 -0.9975640498041543 0
outer loop
vertex 166.5451438 -205.87192740000003 1.41
vertex 152.6291253 -204.89882450000002 1.41
vertex 152.6291253 -204.89882450000002 0
endloop
endfacet
facet normal -0.06975648026050862 -0.9975640498041543 0
outer loop
vertex 166.5451438 -205.87192740000003 1.41
vertex 152.6291253 -204.89882450000002 0
vertex 166.5451438 -205.87192740000003 0
endloop
endfacet
facet normal 0.9975640498041543 -0.06975648026050862 0
outer loop
vertex 167.5182467 -191.9559089 1.41
vertex 166.5451438 -205.87192740000003 1.41
vertex 166.5451438 -205.87192740000003 0
endloop
endfacet
facet normal 0.9975640498041543 -0.06975648026050862 0
outer loop
vertex 167.5182467 -191.9559089 1.41
vertex 166.5451438 -205.87192740000003 0
vertex 167.5182467 -191.9559089 0
endloop
endfacet
facet normal 0.06975648026053705 0.9975640498041525 0
outer loop
vertex 153.6022282 -190.982806 1.41
vertex 167.5182467 -191.9559089 1.41
vertex 167.5182467 -191.9559089 0
endloop
endfacet
facet normal 0.06975648026053705 0.9975640498041525 0
outer loop
vertex 153.6022282 -190.982806 1.41
vertex 167.5182467 -191.9559089 0
vertex 153.60222820000004 -190.982806 0
endloop
endfacet
facet normal -0.9975640498041544 0.06975648026050864 0
outer loop
vertex 152.6291253 -204.89882450000002 1.41
vertex 153.6022282 -190.982806 1.41
vertex 153.60222820000004 -190.982806 0
endloop
endfacet
facet normal -0.9975640498041544 0.06975648026050864 0
outer loop
vertex 152.6291253 -204.89882450000002 1.41
vertex 153.60222820000004 -190.982806 0
vertex 152.6291253 -204.89882450000002 0
endloop
endfacet
facet normal 0 -1 0
outer loop
vertex 116.9775666 -138.7281403 0
vertex 116.9775666 -138.7281403 1.41
vertex 103.0275666 -138.7281403 1.41
endloop
endfacet
facet normal 0 -1 0
outer loop
vertex 116.9775666 -138.7281403 0
vertex 103.0275666 -138.7281403 1.41
vertex 103.0275666 -138.7281403 0
endloop
endfacet
facet normal 1 0 0
outer loop
vertex 116.9775666 -187.9281403 0
vertex 116.9775666 -187.9281403 1.41
vertex 116.9775666 -201.8781403 1.41
endloop
endfacet
facet normal 1 0 0
outer loop
vertex 116.9775666 -187.9281403 0
vertex 116.9775666 -201.8781403 1.41
vertex 116.97756660000002 -201.8781403 0
endloop
endfacet
facet normal 1 0 0
outer loop
vertex 116.9775666 -166.8781403 0
vertex 116.9775666 -166.8781403 1.41
vertex 116.9775666 -180.8281403 1.41
endloop
endfacet
facet normal 1 0 0
outer loop
vertex 116.9775666 -166.8781403 0
vertex 116.9775666 -180.8281403 1.41
vertex 116.9775666 -180.8281403 0
endloop
endfacet
facet normal 1 0 0
outer loop
vertex 116.9775666 -145.8281403 0
vertex 116.9775666 -145.8281403 1.41
vertex 116.9775666 -159.7781403 1.41
endloop
endfacet
facet normal 1 0 0
outer loop
vertex 116.9775666 -145.8281403 0
vertex 116.9775666 -159.7781403 1.41
vertex 116.9775666 -159.7781403 0
endloop
endfacet
facet normal 1 0 0
outer loop
vertex 116.9775666 -124.7781403 0
vertex 116.9775666 -124.7781403 1.41
vertex 116.9775666 -138.7281403 1.41
endloop
endfacet
facet normal 1 0 0
outer loop
vertex 116.9775666 -124.7781403 0
vertex 116.9775666 -138.7281403 1.41
vertex 116.9775666 -138.7281403 0
endloop
endfacet
facet normal 1 0 0
outer loop
vertex 116.9775666 -103.7281403 0
vertex 116.9775666 -103.7281403 1.41
vertex 116.9775666 -117.6781403 1.41
endloop
endfacet
facet normal 1 0 0
outer loop
vertex 116.9775666 -103.7281403 0
vertex 116.9775666 -117.6781403 1.41
vertex 116.9775666 -117.6781403 0
endloop
endfacet
facet normal 1 0 0
outer loop
vertex 116.9775666 -82.6781403 0
vertex 116.9775666 -82.6781403 1.41
vertex 116.9775666 -96.6281403 1.41
endloop
endfacet
facet normal 1 0 0
outer loop
vertex 116.9775666 -82.6781403 0
vertex 116.9775666 -96.6281403 1.41
vertex 116.9775666 -96.6281403 0
endloop
endfacet
facet normal 0 1 0
outer loop
vertex 116.9775666 -124.7781403 1.41
vertex 116.9775666 -124.7781403 0
vertex 103.0275666 -124.7781403 0
endloop
endfacet
facet normal 0 1 0
outer loop
vertex 116.9775666 -124.7781403 1.41
vertex 103.0275666 -124.7781403 0
vertex 103.0275666 -124.7781403 1.41
endloop
endfacet
facet normal -1 0 0
outer loop
vertex 103.0275666 -187.9281403 1.41
vertex 103.0275666 -187.9281403 0
vertex 103.0275666 -201.8781403 0
endloop
endfacet
facet normal -1 0 0
outer loop
vertex 103.0275666 -187.9281403 1.41
vertex 103.0275666 -201.8781403 0
vertex 103.0275666 -201.8781403 1.41
endloop
endfacet
facet normal -1 0 0
outer loop
vertex 103.0275666 -166.8781403 1.41
vertex 103.0275666 -166.8781403 0
vertex 103.0275666 -180.8281403 0
endloop
endfacet
facet normal -1 0 0
outer loop
vertex 103.0275666 -166.8781403 1.41
vertex 103.0275666 -180.8281403 0
vertex 103.0275666 -180.8281403 1.41
endloop
endfacet
facet normal -1 0 0
outer loop
vertex 103.0275666 -145.8281403 1.41
vertex 103.0275666 -145.8281403 0
vertex 103.0275666 -159.7781403 0
endloop
endfacet
facet normal -1 0 0
outer loop
vertex 103.0275666 -145.8281403 1.41
vertex 103.0275666 -159.7781403 0
vertex 103.0275666 -159.7781403 1.41
endloop
endfacet
facet normal -1 0 0
outer loop
vertex 103.0275666 -124.7781403 1.41
vertex 103.0275666 -124.7781403 0
vertex 103.0275666 -138.7281403 0
endloop
endfacet
facet normal -1 0 0
outer loop
vertex 103.0275666 -124.7781403 1.41
vertex 103.0275666 -138.7281403 0
vertex 103.0275666 -138.7281403 1.41
endloop
endfacet
facet normal -1 0 0
outer loop
vertex 103.0275666 -103.7281403 1.41
vertex 103.0275666 -103.7281403 0
vertex 103.0275666 -117.6781403 0
endloop
endfacet
facet normal -1 0 0
outer loop
vertex 103.0275666 -103.7281403 1.41
vertex 103.0275666 -117.6781403 0
vertex 103.0275666 -117.6781403 1.41
endloop
endfacet
facet normal -1 0 0
outer loop
vertex 103.0275666 -82.6781403 1.41
vertex 103.0275666 -82.6781403 0
vertex 103.0275666 -96.6281403 0
endloop
endfacet
facet normal -1 0 0
outer loop
vertex 103.0275666 -82.6781403 1.41
vertex 103.0275666 -96.6281403 0
vertex 103.0275666 -96.6281403 1.41
endloop
endfacet
facet normal 0 -1 0
outer loop
vertex 116.9775666 -117.6781403 0
vertex 116.9775666 -117.6781403 1.41
vertex 103.0275666 -117.6781403 1.41
endloop
endfacet
facet normal 0 -1 0
outer loop
vertex 116.9775666 -117.6781403 0
vertex 103.0275666 -117.6781403 1.41
vertex 103.0275666 -117.6781403 0
endloop
endfacet
facet normal 0 1 0
outer loop
vertex 116.9775666 -103.7281403 1.41
vertex 116.9775666 -103.7281403 0
vertex 103.0275666 -103.7281403 0
endloop
endfacet
facet normal 0 1 0
outer loop
vertex 116.9775666 -103.7281403 1.41
vertex 103.0275666 -103.7281403 0
vertex 103.0275666 -103.7281403 1.41
endloop
endfacet
facet normal 0 -1 0
outer loop
vertex 116.9775666 -96.6281403 0
vertex 116.9775666 -96.6281403 1.41
vertex 103.0275666 -96.6281403 1.41
endloop
endfacet
facet normal 0 -1 0
outer loop
vertex 116.9775666 -96.6281403 0
vertex 103.0275666 -96.6281403 1.41
vertex 103.0275666 -96.6281403 0
endloop
endfacet
facet normal 0 1 0
outer loop
vertex 116.9775666 -82.6781403 1.41
vertex 116.9775666 -82.6781403 0
vertex 103.0275666 -82.6781403 0
endloop
endfacet
facet normal 0 1 0
outer loop
vertex 116.9775666 -82.6781403 1.41
vertex 103.0275666 -82.6781403 0
vertex 103.0275666 -82.6781403 1.41
endloop
endfacet
facet normal 0 -1 0
outer loop
vertex 116.97756660000002 -201.8781403 0
vertex 116.9775666 -201.8781403 1.41
vertex 103.0275666 -201.8781403 1.41
endloop
endfacet
facet normal 0 -1 0
outer loop
vertex 116.97756660000002 -201.8781403 0
vertex 103.0275666 -201.8781403 1.41
vertex 103.0275666 -201.8781403 0
endloop
endfacet
facet normal 0 1 0
outer loop
vertex 116.9775666 -187.9281403 1.41
vertex 116.9775666 -187.9281403 0
vertex 103.0275666 -187.9281403 0
endloop
endfacet
facet normal 0 1 0
outer loop
vertex 116.9775666 -187.9281403 1.41
vertex 103.0275666 -187.9281403 0
vertex 103.0275666 -187.9281403 1.41
endloop
endfacet
facet normal 0 -1 0
outer loop
vertex 116.9775666 -180.8281403 0
vertex 116.9775666 -180.8281403 1.41
vertex 103.0275666 -180.8281403 1.41
endloop
endfacet
facet normal 0 -1 0
outer loop
vertex 116.9775666 -180.8281403 0
vertex 103.0275666 -180.8281403 1.41
vertex 103.0275666 -180.8281403 0
endloop
endfacet
facet normal 0 1 0
outer loop
vertex 116.9775666 -166.8781403 1.41
vertex 116.9775666 -166.8781403 0
vertex 103.0275666 -166.8781403 0
endloop
endfacet
facet normal 0 1 0
outer loop
vertex 116.9775666 -166.8781403 1.41
vertex 103.0275666 -166.8781403 0
vertex 103.0275666 -166.8781403 1.41
endloop
endfacet
facet normal 0 -1 0
outer loop
vertex 116.9775666 -159.7781403 0
vertex 116.9775666 -159.7781403 1.41
vertex 103.0275666 -159.7781403 1.41
endloop
endfacet
facet normal 0 -1 0
outer loop
vertex 116.9775666 -159.7781403 0
vertex 103.0275666 -159.7781403 1.41
vertex 103.0275666 -159.7781403 0
endloop
endfacet
facet normal 0 1 0
outer loop
vertex 116.9775666 -145.8281403 1.41
vertex 116.9775666 -145.8281403 0
vertex 103.0275666 -145.8281403 0
endloop
endfacet
facet normal 0 1 0
outer loop
vertex 116.9775666 -145.8281403 1.41
vertex 103.0275666 -145.8281403 0
vertex 103.0275666 -145.8281403 1.41
endloop
endfacet
facet normal 0.05233595702401317 -0.9986295347136398 0
outer loop
vertex 51.46610439999999 -101.6917082 1.41
vertex 37.53522240000001 -102.42179479999999 1.41
vertex 37.53522240000001 -102.4217948 0
endloop
endfacet
facet normal 0.05233595702401317 -0.9986295347136398 0
outer loop
vertex 51.46610439999999 -101.6917082 1.41
vertex 37.53522240000001 -102.4217948 0
vertex 51.46610439999999 -101.6917082 0
endloop
endfacet
facet normal 0.9986295347136398 0.05233595702401317 0
outer loop
vertex 50.73601780000001 -87.76082620000004 1.41
vertex 51.46610439999999 -101.6917082 1.41
vertex 51.46610439999999 -101.6917082 0
endloop
endfacet
facet normal 0.9986295347136398 0.05233595702401317 0
outer loop
vertex 50.73601780000001 -87.76082620000004 1.41
vertex 51.46610439999999 -101.6917082 0
vertex 50.736017800000006 -87.76082620000004 0
endloop
endfacet
facet normal 0.9986295347136398 0.05233595702401317 0
outer loop
vertex 51.83768969506924 -108.78197790025848 1.41
vertex 52.567776295069216 -122.71285990025834 1.41
vertex 52.56777629506921 -122.71285990025834 0
endloop
endfacet
facet normal 0.9986295347136398 0.05233595702401317 0
outer loop
vertex 51.83768969506924 -108.78197790025848 1.41
vertex 52.56777629506921 -122.71285990025834 0
vertex 51.83768969506923 -108.78197790025848 0
endloop
endfacet
facet normal 0.9986295347136398 0.05233595702401317 0
outer loop
vertex 52.939361590138446 -129.80312960051688 1.41
vertex 53.66944819013845 -143.73401160051725 1.41
vertex 53.66944819013845 -143.73401160051725 0
endloop
endfacet
facet normal 0.9986295347136398 0.05233595702401317 0
outer loop
vertex 52.939361590138446 -129.80312960051688 1.41
vertex 53.66944819013845 -143.73401160051725 0
vertex 52.939361590138446 -129.8031296005169 0
endloop
endfacet
facet normal 0.9986295347136398 0.05233595702401317 0
outer loop
vertex 54.04103348520767 -150.82428130077545 1.41
vertex 54.77112008520765 -164.75516330077534 1.41
vertex 54.77112008520765 -164.75516330077534 0
endloop
endfacet
facet normal 0.9986295347136398 0.05233595702401317 0
outer loop
vertex 54.04103348520767 -150.82428130077545 1.41
vertex 54.77112008520765 -164.75516330077534 0
vertex 54.04103348520767 -150.82428130077545 0
endloop
endfacet
facet normal 0.9986295347136398 0.05233595702401317 0
outer loop
vertex 55.14270538027687 -171.84543300103374 1.41
vertex 55.87279198027687 -185.776315001034 1.41
vertex 55.87279198027687 -185.776315001034 0
endloop
endfacet
facet normal 0.9986295347136398 0.05233595702401317 0
outer loop
vertex 55.14270538027687 -171.84543300103374 1.41
vertex 55.87279198027687 -185.776315001034 0
vertex 55.14270538027687 -171.8454330010337 0
endloop
endfacet
facet normal -0.05233595702401317 0.9986295347136398 0
outer loop
vertex 36.8051358 -88.49091280000002 1.41
vertex 50.73601780000001 -87.76082620000004 1.41
vertex 50.736017800000006 -87.76082620000004 0
endloop
endfacet
facet normal -0.05233595702401317 0.9986295347136398 0
outer loop
vertex 36.8051358 -88.49091280000002 1.41
vertex 50.736017800000006 -87.76082620000004 0
vertex 36.8051358 -88.49091280000002 0
endloop
endfacet
facet normal -0.9986295347136391 -0.05233595702402738 0
outer loop
vertex 41.941909980276904 -186.5064016010339 1.41
vertex 41.21182338027691 -172.57551960103388 1.41
vertex 41.21182338027691 -172.57551960103385 0
endloop
endfacet
facet normal -0.9986295347136391 -0.05233595702402738 0
outer loop
vertex 41.941909980276904 -186.5064016010339 1.41
vertex 41.21182338027691 -172.57551960103385 0
vertex 41.941909980276904 -186.50640160103387 0
endloop
endfacet
facet normal -0.9986295347136391 -0.05233595702402738 0
outer loop
vertex 40.84023808520767 -165.48524990077533 1.41
vertex 40.110151485207695 -151.5543679007755 1.41
vertex 40.11015148520771 -151.55436790077553 0
endloop
endfacet
facet normal -0.9986295347136391 -0.05233595702402738 0
outer loop
vertex 40.84023808520767 -165.48524990077533 1.41
vertex 40.11015148520771 -151.55436790077553 0
vertex 40.84023808520767 -165.48524990077533 0
endloop
endfacet
facet normal -0.9986295347136391 -0.05233595702402738 0
outer loop
vertex 39.73856619013846 -144.4640982005169 1.41
vertex 39.008479590138464 -130.53321620051705 1.41
vertex 39.00847959013848 -130.53321620051707 0
endloop
endfacet
facet normal -0.9986295347136391 -0.05233595702402738 0
outer loop
vertex 39.73856619013846 -144.4640982005169 1.41
vertex 39.00847959013848 -130.53321620051707 0
vertex 39.73856619013846 -144.46409820051693 0
endloop
endfacet
facet normal -0.9986295347136391 -0.05233595702402738 0
outer loop
vertex 38.63689429506924 -123.44294650025844 1.41
vertex 37.90680769506923 -109.51206450025835 1.41
vertex 37.90680769506925 -109.51206450025835 0
endloop
endfacet
facet normal -0.9986295347136391 -0.05233595702402738 0
outer loop
vertex 38.63689429506924 -123.44294650025844 1.41
vertex 37.90680769506925 -109.51206450025835 0
vertex 38.63689429506924 -123.44294650025843 0
endloop
endfacet
facet normal -0.9986295347136391 -0.05233595702402738 0
outer loop
vertex 37.53522240000001 -102.42179479999999 1.41
vertex 36.8051358 -88.49091280000002 1.41
vertex 36.8051358 -88.49091280000002 0
endloop
endfacet
facet normal -0.9986295347136391 -0.05233595702402738 0
outer loop
vertex 37.53522240000001 -102.42179479999999 1.41
vertex 36.8051358 -88.49091280000002 0
vertex 37.53522240000001 -102.4217948 0
endloop
endfacet
facet normal -0.05233595702401317 -0.9986295347136398 0
outer loop
vertex 182.5497247 -101.3738295 1.41
vertex 168.61884269999996 -100.6437429 1.41
vertex 168.61884269999996 -100.64374290000002 0
endloop
endfacet
facet normal -0.05233595702401317 -0.9986295347136398 0
outer loop
vertex 182.5497247 -101.3738295 1.41
vertex 168.61884269999996 -100.64374290000002 0
vertex 182.5497247 -101.37382950000001 0
endloop
endfacet
facet normal 0.9986295347136398 -0.05233595702401317 0
outer loop
vertex 183.27981130000003 -87.44294750000003 1.41
vertex 182.5497247 -101.3738295 1.41
vertex 182.5497247 -101.37382950000001 0
endloop
endfacet
facet normal 0.9986295347136398 -0.05233595702401317 0
outer loop
vertex 183.27981130000003 -87.44294750000003 1.41
vertex 182.5497247 -101.37382950000001 0
vertex 183.27981130000003 -87.44294750000003 0
endloop
endfacet
facet normal 0.9986295347136398 -0.05233595702401317 0
outer loop
vertex 182.1781394049308 -108.46409920025856 1.41
vertex 181.44805280493077 -122.39498120025843 1.41
vertex 181.44805280493077 -122.39498120025843 0
endloop
endfacet
facet normal 0.9986295347136398 -0.05233595702401317 0
outer loop
vertex 182.1781394049308 -108.46409920025856 1.41
vertex 181.44805280493077 -122.39498120025843 0
vertex 182.1781394049308 -108.46409920025857 0
endloop
endfacet
facet normal 0.9986295347136398 -0.05233595702401317 0
outer loop
vertex 181.0764675098615 -129.48525090051723 1.41
vertex 180.34638090986147 -143.41613290051686 1.41
vertex 180.3463809098615 -143.41613290051683 0
endloop
endfacet
facet normal 0.9986295347136398 -0.05233595702401317 0
outer loop
vertex 181.0764675098615 -129.48525090051723 1.41
vertex 180.3463809098615 -143.41613290051683 0
vertex 181.0764675098615 -129.4852509005172 0
endloop
endfacet
facet normal 0.9986295347136398 -0.05233595702401317 0
outer loop
vertex 179.9747956147922 -150.5064026007755 1.41
vertex 179.2447090147922 -164.43728460077548 1.41
vertex 179.24470901479222 -164.43728460077548 0
endloop
endfacet
facet normal 0.9986295347136398 -0.05233595702401317 0
outer loop
vertex 179.9747956147922 -150.5064026007755 1.41
vertex 179.24470901479222 -164.43728460077548 0
vertex 179.97479561479224 -150.50640260077552 0
endloop
endfacet
facet normal 0.9986295347136398 -0.05233595702401317 0
outer loop
vertex 178.87312371972294 -171.52755430103377 1.41
vertex 178.14303711972292 -185.45843630103383 1.41
vertex 178.14303711972295 -185.4584363010338 0
endloop
endfacet
facet normal 0.9986295347136398 -0.05233595702401317 0
outer loop
vertex 178.87312371972294 -171.52755430103377 1.41
vertex 178.14303711972295 -185.4584363010338 0
vertex 178.87312371972297 -171.52755430103377 0
endloop
endfacet
facet normal 0.052335957024027394 0.9986295347136391 0
outer loop
vertex 169.34892929999998 -86.71286089999998 1.41
vertex 183.27981130000003 -87.44294750000003 1.41
vertex 183.27981130000003 -87.44294750000003 0
endloop
endfacet
facet normal 0.052335957024027394 0.9986295347136391 0
outer loop
vertex 169.34892929999998 -86.71286089999998 1.41
vertex 183.27981130000003 -87.44294750000003 0
vertex 169.34892929999998 -86.71286089999998 0
endloop
endfacet
facet normal -0.9986295347136398 0.05233595702401317 0
outer loop
vertex 164.2121551197229 -184.72834970103364 1.41
vertex 164.94224171972292 -170.79746770103367 1.41
vertex 164.94224171972292 -170.79746770103364 0
endloop
endfacet
facet normal -0.9986295347136398 0.05233595702401317 0
outer loop
vertex 164.2121551197229 -184.72834970103364 1.41
vertex 164.94224171972292 -170.79746770103364 0
vertex 164.2121551197229 -184.7283497010336 0
endloop
endfacet
facet normal -0.9986295347136398 0.05233595702401317 0
outer loop
vertex 165.31382701479217 -163.70719800077526 1.41
vertex 166.0439136147922 -149.77631600077515 1.41
vertex 166.0439136147922 -149.77631600077515 0
endloop
endfacet
facet normal -0.9986295347136398 0.05233595702401317 0
outer loop
vertex 165.31382701479217 -163.70719800077526 1.41
vertex 166.0439136147922 -149.77631600077515 0
vertex 165.31382701479217 -163.70719800077526 0
endloop
endfacet
facet normal -0.9986295347136398 0.05233595702401317 0
outer loop
vertex 166.4154989098614 -142.6860463005171 1.41
vertex 167.14558550986143 -128.75516430051704 1.41
vertex 167.14558550986146 -128.75516430051704 0
endloop
endfacet
facet normal -0.9986295347136398 0.05233595702401317 0
outer loop
vertex 166.4154989098614 -142.6860463005171 1.41
vertex 167.14558550986146 -128.75516430051704 0
vertex 166.4154989098614 -142.6860463005171 0
endloop
endfacet
facet normal -0.9986295347136398 0.05233595702401317 0
outer loop
vertex 167.5171708049307 -121.66489460025853 1.41
vertex 168.2472574049307 -107.7340126002584 1.41
vertex 168.24725740493074 -107.73401260025841 0
endloop
endfacet
facet normal -0.9986295347136398 0.05233595702401317 0
outer loop
vertex 167.5171708049307 -121.66489460025853 1.41
vertex 168.24725740493074 -107.73401260025841 0
vertex 167.51717080493071 -121.66489460025853 0
endloop
endfacet
facet normal -0.9986295347136398 0.05233595702401317 0
outer loop
vertex 168.61884269999996 -100.6437429 1.41
vertex 169.34892929999998 -86.71286089999998 1.41
vertex 169.34892929999998 -86.71286089999998 0
endloop
endfacet
facet normal -0.9986295347136398 0.05233595702401317 0
outer loop
vertex 168.61884269999996 -100.6437429 1.41
vertex 169.34892929999998 -86.71286089999998 0
vertex 168.61884269999996 -100.64374290000002 0
endloop
endfacet
facet normal 0.05233595702402739 -0.998629534713639 0
outer loop
vertex 52.567776295069216 -122.71285990025834 1.41
vertex 38.63689429506924 -123.44294650025844 1.41
vertex 38.63689429506924 -123.44294650025843 0
endloop
endfacet
facet normal 0.05233595702402739 -0.998629534713639 0
outer loop
vertex 52.567776295069216 -122.71285990025834 1.41
vertex 38.63689429506924 -123.44294650025843 0
vertex 52.56777629506921 -122.71285990025834 0
endloop
endfacet
facet normal -0.05233595702401317 0.9986295347136398 0
outer loop
vertex 37.90680769506923 -109.51206450025835 1.41
vertex 51.83768969506924 -108.78197790025848 1.41
vertex 51.83768969506923 -108.78197790025848 0
endloop
endfacet
facet normal -0.05233595702401317 0.9986295347136398 0
outer loop
vertex 37.90680769506923 -109.51206450025835 1.41
vertex 51.83768969506923 -108.78197790025848 0
vertex 37.90680769506925 -109.51206450025835 0
endloop
endfacet
facet normal 0.05233595702401317 -0.9986295347136398 0
outer loop
vertex 55.87279198027687 -185.776315001034 1.41
vertex 41.941909980276904 -186.5064016010339 1.41
vertex 41.941909980276904 -186.50640160103387 0
endloop
endfacet
facet normal 0.05233595702401317 -0.9986295347136398 0
outer loop
vertex 55.87279198027687 -185.776315001034 1.41
vertex 41.941909980276904 -186.50640160103387 0
vertex 55.87279198027687 -185.776315001034 0
endloop
endfacet
facet normal -0.05233595702401317 0.9986295347136398 0
outer loop
vertex 41.21182338027691 -172.57551960103388 1.41
vertex 55.14270538027687 -171.84543300103374 1.41
vertex 55.14270538027687 -171.8454330010337 0
endloop
endfacet
facet normal -0.05233595702401317 0.9986295347136398 0
outer loop
vertex 41.21182338027691 -172.57551960103388 1.41
vertex 55.14270538027687 -171.8454330010337 0
vertex 41.21182338027691 -172.57551960103385 0
endloop
endfacet
facet normal 0.05233595702401317 -0.9986295347136398 0
outer loop
vertex 54.77112008520765 -164.75516330077534 1.41
vertex 40.84023808520767 -165.48524990077533 1.41
vertex 40.84023808520767 -165.48524990077533 0
endloop
endfacet
facet normal 0.05233595702401317 -0.9986295347136398 0
outer loop
vertex 54.77112008520765 -164.75516330077534 1.41
vertex 40.84023808520767 -165.48524990077533 0
vertex 54.77112008520765 -164.75516330077534 0
endloop
endfacet
facet normal -0.05233595702401317 0.9986295347136398 0
outer loop
vertex 40.110151485207695 -151.5543679007755 1.41
vertex 54.04103348520767 -150.82428130077545 1.41
vertex 54.04103348520767 -150.82428130077545 0
endloop
endfacet
facet normal -0.05233595702401317 0.9986295347136398 0
outer loop
vertex 40.110151485207695 -151.5543679007755 1.41
vertex 54.04103348520767 -150.82428130077545 0
vertex 40.11015148520771 -151.55436790077553 0
endloop
endfacet
facet normal 0.05233595702398474 -0.9986295347136414 0
outer loop
vertex 53.66944819013845 -143.73401160051725 1.41
vertex 39.73856619013846 -144.4640982005169 1.41
vertex 39.73856619013846 -144.46409820051693 0
endloop
endfacet
facet normal 0.05233595702398474 -0.9986295347136414 0
outer loop
vertex 53.66944819013845 -143.73401160051725 1.41
vertex 39.73856619013846 -144.46409820051693 0
vertex 53.66944819013845 -143.73401160051725 0
endloop
endfacet
facet normal -0.05233595702404161 0.9986295347136384 0
outer loop
vertex 39.008479590138464 -130.53321620051705 1.41
vertex 52.939361590138446 -129.80312960051688 1.41
vertex 52.939361590138446 -129.8031296005169 0
endloop
endfacet
facet normal -0.05233595702404161 0.9986295347136384 0
outer loop
vertex 39.008479590138464 -130.53321620051705 1.41
vertex 52.939361590138446 -129.8031296005169 0
vertex 39.00847959013848 -130.53321620051707 0
endloop
endfacet
facet normal -0.05233595702401317 -0.9986295347136398 0
outer loop
vertex 181.44805280493077 -122.39498120025843 1.41
vertex 167.5171708049307 -121.66489460025853 1.41
vertex 167.51717080493071 -121.66489460025853 0
endloop
endfacet
facet normal -0.05233595702401317 -0.9986295347136398 0
outer loop
vertex 181.44805280493077 -122.39498120025843 1.41
vertex 167.51717080493071 -121.66489460025853 0
vertex 181.44805280493077 -122.39498120025843 0
endloop
endfacet
facet normal 0.05233595702401317 0.9986295347136398 0
outer loop
vertex 168.2472574049307 -107.7340126002584 1.41
vertex 182.1781394049308 -108.46409920025856 1.41
vertex 182.1781394049308 -108.46409920025857 0
endloop
endfacet
facet normal 0.05233595702401317 0.9986295347136398 0
outer loop
vertex 168.2472574049307 -107.7340126002584 1.41
vertex 182.1781394049308 -108.46409920025857 0
vertex 168.24725740493074 -107.73401260025841 0
endloop
endfacet
facet normal -0.052335957024041604 -0.9986295347136384 0
outer loop
vertex 178.14303711972292 -185.45843630103383 1.41
vertex 164.2121551197229 -184.72834970103364 1.41
vertex 164.2121551197229 -184.7283497010336 0
endloop
endfacet
facet normal -0.052335957024041604 -0.9986295347136384 0
outer loop
vertex 178.14303711972292 -185.45843630103383 1.41
vertex 164.2121551197229 -184.7283497010336 0
vertex 178.14303711972295 -185.4584363010338 0
endloop
endfacet
facet normal 0.05233595702401317 0.9986295347136398 0
outer loop
vertex 164.94224171972292 -170.79746770103367 1.41
vertex 178.87312371972294 -171.52755430103377 1.41
vertex 178.87312371972297 -171.52755430103377 0
endloop
endfacet
facet normal 0.05233595702401317 0.9986295347136398 0
outer loop
vertex 164.94224171972292 -170.79746770103367 1.41
vertex 178.87312371972297 -171.52755430103377 0
vertex 164.94224171972292 -170.79746770103364 0
endloop
endfacet
facet normal -0.052335957024041604 -0.9986295347136384 0
outer loop
vertex 179.2447090147922 -164.43728460077548 1.41
vertex 165.31382701479217 -163.70719800077526 1.41
vertex 165.31382701479217 -163.70719800077526 0
endloop
endfacet
facet normal -0.052335957024041604 -0.9986295347136384 0
outer loop
vertex 179.2447090147922 -164.43728460077548 1.41
vertex 165.31382701479217 -163.70719800077526 0
vertex 179.24470901479222 -164.43728460077548 0
endloop
endfacet
facet normal 0.052335957024041604 0.9986295347136384 0
outer loop
vertex 166.0439136147922 -149.77631600077515 1.41
vertex 179.9747956147922 -150.5064026007755 1.41
vertex 179.97479561479224 -150.50640260077552 0
endloop
endfacet
facet normal 0.052335957024041604 0.9986295347136384 0
outer loop
vertex 166.0439136147922 -149.77631600077515 1.41
vertex 179.97479561479224 -150.50640260077552 0
vertex 166.0439136147922 -149.77631600077515 0
endloop
endfacet
facet normal -0.05233595702401317 -0.9986295347136398 0
outer loop
vertex 180.34638090986147 -143.41613290051686 1.41
vertex 166.4154989098614 -142.6860463005171 1.41
vertex 166.4154989098614 -142.6860463005171 0
endloop
endfacet
facet normal -0.05233595702401317 -0.9986295347136398 0
outer loop
vertex 180.34638090986147 -143.41613290051686 1.41
vertex 166.4154989098614 -142.6860463005171 0
vertex 180.3463809098615 -143.41613290051683 0
endloop
endfacet
facet normal 0.05233595702401317 0.9986295347136398 0
outer loop
vertex 167.14558550986143 -128.75516430051704 1.41
vertex 181.0764675098615 -129.48525090051723 1.41
vertex 181.0764675098615 -129.4852509005172 0
endloop
endfacet
facet normal 0.05233595702401317 0.9986295347136398 0
outer loop
vertex 167.14558550986143 -128.75516430051704 1.41
vertex 181.0764675098615 -129.4852509005172 0
vertex 167.14558550986146 -128.75516430051704 0
endloop
endfacet
facet normal 0.03489949829832995 -0.9993908269633682 0
outer loop
vertex 76.44972679999998 -183.6421846 1.41
vertex 62.50822480000001 -184.12903259999996 1.41
vertex 62.5082248 -184.1290326 0
endloop
endfacet
facet normal 0.03489949829832995 -0.9993908269633682 0
outer loop
vertex 76.44972679999998 -183.6421846 1.41
vertex 62.5082248 -184.1290326 0
vertex 76.4497268 -183.64218459999998 0
endloop
endfacet
facet normal 0.9993908269633672 0.03489949829835837 0
outer loop
vertex 73.02434104452709 -85.55197500542927 1.41
vertex 73.51118904452709 -99.49347700542927 1.41
vertex 73.51118904452709 -99.49347700542927 0
endloop
endfacet
facet normal 0.9993908269633672 0.03489949829835837 0
outer loop
vertex 73.02434104452709 -85.55197500542927 1.41
vertex 73.51118904452709 -99.49347700542927 0
vertex 73.02434104452709 -85.55197500542926 0
endloop
endfacet
facet normal 0.9993908269633672 0.03489949829835837 0
outer loop
vertex 73.75897548339533 -106.58915190407222 1.41
vertex 74.24582348339531 -120.53065390407195 1.41
vertex 74.24582348339531 -120.53065390407195 0
endloop
endfacet
facet normal 0.9993908269633672 0.03489949829835837 0
outer loop
vertex 73.75897548339533 -106.58915190407222 1.41
vertex 74.24582348339531 -120.53065390407195 0
vertex 73.75897548339533 -106.58915190407224 0
endloop
endfacet
facet normal 0.9993908269633672 0.03489949829835837 0
outer loop
vertex 74.49360992226354 -127.62632880271461 1.41
vertex 74.98045792226355 -141.56783080271518 1.41
vertex 74.98045792226357 -141.56783080271518 0
endloop
endfacet
facet normal 0.9993908269633672 0.03489949829835837 0
outer loop
vertex 74.49360992226354 -127.62632880271461 1.41
vertex 74.98045792226357 -141.56783080271518 0
vertex 74.49360992226356 -127.6263288027146 0
endloop
endfacet
facet normal 0.9993908269633672 0.03489949829835837 0
outer loop
vertex 75.22824436113179 -148.66350570135788 1.41
vertex 75.71509236113178 -162.60500770135783 1.41
vertex 75.7150923611318 -162.60500770135783 0
endloop
endfacet
facet normal 0.9993908269633672 0.03489949829835837 0
outer loop
vertex 75.22824436113179 -148.66350570135788 1.41
vertex 75.7150923611318 -162.60500770135783 0
vertex 75.2282443611318 -148.66350570135788 0
endloop
endfacet
facet normal 0.9993908269633672 0.03489949829835837 0
outer loop
vertex 75.96287880000001 -169.70068260000053 1.41
vertex 76.44972679999998 -183.6421846 1.41
vertex 76.4497268 -183.64218459999998 0
endloop
endfacet
facet normal 0.9993908269633672 0.03489949829835837 0
outer loop
vertex 75.96287880000001 -169.70068260000053 1.41
vertex 76.4497268 -183.64218459999998 0
vertex 75.96287880000003 -169.70068260000056 0
endloop
endfacet
facet normal -0.03489949829827309 0.9993908269633702 0
outer loop
vertex 62.021376800000006 -170.18753059999997 1.41
vertex 75.96287880000001 -169.70068260000053 1.41
vertex 75.96287880000003 -169.70068260000056 0
endloop
endfacet
facet normal -0.03489949829827309 0.9993908269633702 0
outer loop
vertex 62.021376800000006 -170.18753059999997 1.41
vertex 75.96287880000003 -169.70068260000056 0
vertex 62.02137679999999 -170.18753059999997 0
endloop
endfacet
facet normal -0.9993908269633676 -0.03489949829835126 0
outer loop
vertex 62.50822480000001 -184.12903259999996 1.41
vertex 62.021376800000006 -170.18753059999997 1.41
vertex 62.02137679999999 -170.18753059999997 0
endloop
endfacet
facet normal -0.9993908269633676 -0.03489949829835126 0
outer loop
vertex 62.50822480000001 -184.12903259999996 1.41
vertex 62.02137679999999 -170.18753059999997 0
vertex 62.5082248 -184.1290326 0
endloop
endfacet
facet normal -0.9993908269633676 -0.03489949829835126 0
outer loop
vertex 61.77359036113176 -163.0918557013573 1.41
vertex 61.28674236113176 -149.15035370135735 1.41
vertex 61.286742361131765 -149.15035370135735 0
endloop
endfacet
facet normal -0.9993908269633676 -0.03489949829835126 0
outer loop
vertex 61.77359036113176 -163.0918557013573 1.41
vertex 61.286742361131765 -149.15035370135735 0
vertex 61.77359036113177 -163.0918557013573 0
endloop
endfacet
facet normal -0.9993908269633676 -0.03489949829835126 0
outer loop
vertex 61.03895592226354 -142.05467880271522 1.41
vertex 60.55210792226352 -128.11317680271466 1.41
vertex 60.552107922263524 -128.11317680271463 0
endloop
endfacet
facet normal -0.9993908269633676 -0.03489949829835126 0
outer loop
vertex 61.03895592226354 -142.05467880271522 1.41
vertex 60.552107922263524 -128.11317680271463 0
vertex 61.03895592226355 -142.0546788027152 0
endloop
endfacet
facet normal -0.9993908269633676 -0.03489949829835126 0
outer loop
vertex 60.30432148339528 -121.01750190407195 1.41
vertex 59.81747348339529 -107.07599990407222 1.41
vertex 59.81747348339528 -107.07599990407222 0
endloop
endfacet
facet normal -0.9993908269633676 -0.03489949829835126 0
outer loop
vertex 60.30432148339528 -121.01750190407195 1.41
vertex 59.81747348339528 -107.07599990407222 0
vertex 60.304321483395285 -121.01750190407193 0
endloop
endfacet
facet normal -0.9993908269633676 -0.03489949829835126 0
outer loop
vertex 59.56968704452705 -99.98032500542952 1.41
vertex 59.08283904452704 -86.0388230054295 1.41
vertex 59.08283904452705 -86.0388230054295 0
endloop
endfacet
facet normal -0.9993908269633676 -0.03489949829835126 0
outer loop
vertex 59.56968704452705 -99.98032500542952 1.41
vertex 59.08283904452705 -86.0388230054295 0
vertex 59.56968704452705 -99.98032500542953 0
endloop
endfacet
facet normal 0.03489949829830154 -0.9993908269633692 0
outer loop
vertex 75.71509236113178 -162.60500770135783 1.41
vertex 61.77359036113176 -163.0918557013573 1.41
vertex 61.77359036113177 -163.0918557013573 0
endloop
endfacet
facet normal 0.03489949829830154 -0.9993908269633692 0
outer loop
vertex 75.71509236113178 -162.60500770135783 1.41
vertex 61.77359036113177 -163.0918557013573 0
vertex 75.7150923611318 -162.60500770135783 0
endloop
endfacet
facet normal -0.03489949829830153 0.9993908269633692 0
outer loop
vertex 61.28674236113176 -149.15035370135735 1.41
vertex 75.22824436113179 -148.66350570135788 1.41
vertex 75.2282443611318 -148.66350570135788 0
endloop
endfacet
facet normal -0.03489949829830153 0.9993908269633692 0
outer loop
vertex 61.28674236113176 -149.15035370135735 1.41
vertex 75.2282443611318 -148.66350570135788 0
vertex 61.286742361131765 -149.15035370135735 0
endloop
endfacet
facet normal 0.034899498298358374 -0.9993908269633672 0
outer loop
vertex 74.98045792226355 -141.56783080271518 1.41
vertex 61.03895592226354 -142.05467880271522 1.41
vertex 61.03895592226355 -142.0546788027152 0
endloop
endfacet
facet normal 0.034899498298358374 -0.9993908269633672 0
outer loop
vertex 74.98045792226355 -141.56783080271518 1.41
vertex 61.03895592226355 -142.0546788027152 0
vertex 74.98045792226357 -141.56783080271518 0
endloop
endfacet
facet normal -0.034899498298358374 0.9993908269633672 0
outer loop
vertex 60.55210792226352 -128.11317680271466 1.41
vertex 74.49360992226354 -127.62632880271461 1.41
vertex 74.49360992226356 -127.6263288027146 0
endloop
endfacet
facet normal -0.034899498298358374 0.9993908269633672 0
outer loop
vertex 60.55210792226352 -128.11317680271466 1.41
vertex 74.49360992226356 -127.6263288027146 0
vertex 60.552107922263524 -128.11317680271463 0
endloop
endfacet
facet normal 0.03489949829834416 -0.9993908269633677 0
outer loop
vertex 74.24582348339531 -120.53065390407195 1.41
vertex 60.30432148339528 -121.01750190407195 1.41
vertex 60.304321483395285 -121.01750190407193 0
endloop
endfacet
facet normal 0.03489949829834416 -0.9993908269633677 0
outer loop
vertex 74.24582348339531 -120.53065390407195 1.41
vertex 60.304321483395285 -121.01750190407193 0
vertex 74.24582348339531 -120.53065390407195 0
endloop
endfacet
facet normal -0.03489949829832995 0.9993908269633682 0
outer loop
vertex 59.81747348339529 -107.07599990407222 1.41
vertex 73.75897548339533 -106.58915190407222 1.41
vertex 73.75897548339533 -106.58915190407224 0
endloop
endfacet
facet normal -0.03489949829832995 0.9993908269633682 0
outer loop
vertex 59.81747348339529 -107.07599990407222 1.41
vertex 73.75897548339533 -106.58915190407224 0
vertex 59.81747348339528 -107.07599990407222 0
endloop
endfacet
facet normal 0.03489949829838679 -0.9993908269633662 0
outer loop
vertex 73.51118904452709 -99.49347700542927 1.41
vertex 59.56968704452705 -99.98032500542952 1.41
vertex 59.56968704452705 -99.98032500542953 0
endloop
endfacet
facet normal 0.03489949829838679 -0.9993908269633662 0
outer loop
vertex 73.51118904452709 -99.49347700542927 1.41
vertex 59.56968704452705 -99.98032500542953 0
vertex 73.51118904452709 -99.49347700542927 0
endloop
endfacet
facet normal -0.03489949829837258 0.9993908269633667 0
outer loop
vertex 59.08283904452704 -86.0388230054295 1.41
vertex 73.02434104452709 -85.55197500542927 1.41
vertex 73.02434104452709 -85.55197500542926 0
endloop
endfacet
facet normal -0.03489949829837258 0.9993908269633667 0
outer loop
vertex 59.08283904452704 -86.0388230054295 1.41
vertex 73.02434104452709 -85.55197500542926 0
vertex 59.08283904452705 -86.0388230054295 0
endloop
endfacet
facet normal -0.034899498298358374 -0.9993908269633672 0
outer loop
vertex 157.54402190000027 -183.4299069 1.41
vertex 143.6025199 -182.9430589 1.41
vertex 143.6025199 -182.94305890000004 0
endloop
endfacet
facet normal -0.034899498298358374 -0.9993908269633672 0
outer loop
vertex 157.54402190000027 -183.4299069 1.41
vertex 143.6025199 -182.94305890000004 0
vertex 157.54402190000027 -183.42990690000002 0
endloop
endfacet
facet normal 0.9993908269633673 -0.034899498298358374 0
outer loop
vertex 160.96940765547325 -85.33969730542988 1.41
vertex 160.4825596554732 -99.28119930542985 1.41
vertex 160.4825596554732 -99.28119930542985 0
endloop
endfacet
facet normal 0.9993908269633673 -0.034899498298358374 0
outer loop
vertex 160.96940765547325 -85.33969730542988 1.41
vertex 160.4825596554732 -99.28119930542985 0
vertex 160.96940765547325 -85.33969730542988 0
endloop
endfacet
facet normal 0.9993908269633673 -0.034899498298358374 0
outer loop
vertex 160.23477321660502 -106.37687420407231 1.41
vertex 159.747925216605 -120.31837620407234 1.41
vertex 159.747925216605 -120.31837620407232 0
endloop
endfacet
facet normal 0.9993908269633673 -0.034899498298358374 0
outer loop
vertex 160.23477321660502 -106.37687420407231 1.41
vertex 159.747925216605 -120.31837620407232 0
vertex 160.23477321660502 -106.37687420407232 0
endloop
endfacet
facet normal 0.9993908269633673 -0.034899498298358374 0
outer loop
vertex 159.50013877773677 -127.41405110271498 1.41
vertex 159.01329077773673 -141.3555531027153 1.41
vertex 159.01329077773673 -141.35555310271533 0
endloop
endfacet
facet normal 0.9993908269633673 -0.034899498298358374 0
outer loop
vertex 159.50013877773677 -127.41405110271498 1.41
vertex 159.01329077773673 -141.35555310271533 0
vertex 159.50013877773677 -127.41405110271496 0
endloop
endfacet
facet normal 0.9993908269633673 -0.034899498298358374 0
outer loop
vertex 158.7655043388685 -148.45122800135746 1.41
vertex 158.2786563388685 -162.39273000135802 1.41
vertex 158.2786563388685 -162.39273000135802 0
endloop
endfacet
facet normal 0.9993908269633673 -0.034899498298358374 0
outer loop
vertex 158.7655043388685 -148.45122800135746 1.41
vertex 158.2786563388685 -162.39273000135802 0
vertex 158.7655043388685 -148.45122800135746 0
endloop
endfacet
facet normal 0.9993908269633673 -0.034899498298358374 0
outer loop
vertex 158.03086990000025 -169.48840490000072 1.41
vertex 157.54402190000027 -183.4299069 1.41
vertex 157.54402190000027 -183.42990690000002 0
endloop
endfacet
facet normal 0.9993908269633673 -0.034899498298358374 0
outer loop
vertex 158.03086990000025 -169.48840490000072 1.41
vertex 157.54402190000027 -183.42990690000002 0
vertex 158.03086990000025 -169.48840490000072 0
endloop
endfacet
facet normal 0.034899498298443625 0.9993908269633642 0
outer loop
vertex 144.0893679 -169.0015569 1.41
vertex 158.03086990000025 -169.48840490000072 1.41
vertex 158.03086990000025 -169.48840490000072 0
endloop
endfacet
facet normal 0.034899498298443625 0.9993908269633642 0
outer loop
vertex 144.0893679 -169.0015569 1.41
vertex 158.03086990000025 -169.48840490000072 0
vertex 144.0893679 -169.0015569 0
endloop
endfacet
facet normal -0.9993908269633673 0.034899498298358374 0
outer loop
vertex 143.6025199 -182.9430589 1.41
vertex 144.0893679 -169.0015569 1.41
vertex 144.0893679 -169.0015569 0
endloop
endfacet
facet normal -0.9993908269633673 0.034899498298358374 0
outer loop
vertex 143.6025199 -182.9430589 1.41
vertex 144.0893679 -169.0015569 0
vertex 143.6025199 -182.94305890000004 0
endloop
endfacet
facet normal -0.9993908269633673 0.034899498298358374 0
outer loop
vertex 144.33715433886823 -161.90588200135866 1.41
vertex 144.82400233886827 -147.96438000135734 1.41
vertex 144.82400233886827 -147.9643800013573 0
endloop
endfacet
facet normal -0.9993908269633673 0.034899498298358374 0
outer loop
vertex 144.33715433886823 -161.90588200135866 1.41
vertex 144.82400233886827 -147.9643800013573 0
vertex 144.33715433886823 -161.90588200135863 0
endloop
endfacet
facet normal -0.9993908269633673 0.034899498298358374 0
outer loop
vertex 145.0717887777365 -140.86870510271464 1.41
vertex 145.55863677773647 -126.92720310271496 1.41
vertex 145.55863677773647 -126.92720310271494 0
endloop
endfacet
facet normal -0.9993908269633673 0.034899498298358374 0
outer loop
vertex 145.0717887777365 -140.86870510271464 1.41
vertex 145.55863677773647 -126.92720310271494 0
vertex 145.0717887777365 -140.8687051027146 0
endloop
endfacet
facet normal -0.9993908269633673 0.034899498298358374 0
outer loop
vertex 145.8064232166047 -119.83152820407227 1.41
vertex 146.2932712166047 -105.89002620407223 1.41
vertex 146.2932712166047 -105.89002620407224 0
endloop
endfacet
facet normal -0.9993908269633673 0.034899498298358374 0
outer loop
vertex 145.8064232166047 -119.83152820407227 1.41
vertex 146.2932712166047 -105.89002620407224 0
vertex 145.8064232166047 -119.83152820407228 0
endloop
endfacet
facet normal -0.9993908269633673 0.034899498298358374 0
outer loop
vertex 146.54105765547303 -98.79435130542964 1.41
vertex 147.027905655473 -84.85284930542961 1.41
vertex 147.027905655473 -84.8528493054296 0
endloop
endfacet
facet normal -0.9993908269633673 0.034899498298358374 0
outer loop
vertex 146.54105765547303 -98.79435130542964 1.41
vertex 147.027905655473 -84.8528493054296 0
vertex 146.54105765547303 -98.79435130542964 0
endloop
endfacet
facet normal -0.03489949829830154 -0.9993908269633692 0
outer loop
vertex 158.2786563388685 -162.39273000135802 1.41
vertex 144.33715433886823 -161.90588200135866 1.41
vertex 144.33715433886823 -161.90588200135863 0
endloop
endfacet
facet normal -0.03489949829830154 -0.9993908269633692 0
outer loop
vertex 158.2786563388685 -162.39273000135802 1.41
vertex 144.33715433886823 -161.90588200135863 0
vertex 158.2786563388685 -162.39273000135802 0
endloop
endfacet
facet normal 0.034899498298358374 0.9993908269633673 0
outer loop
vertex 144.82400233886827 -147.96438000135734 1.41
vertex 158.7655043388685 -148.45122800135746 1.41
vertex 158.7655043388685 -148.45122800135746 0
endloop
endfacet
facet normal 0.034899498298358374 0.9993908269633673 0
outer loop
vertex 144.82400233886827 -147.96438000135734 1.41
vertex 158.7655043388685 -148.45122800135746 0
vertex 144.82400233886827 -147.9643800013573 0
endloop
endfacet
facet normal -0.03489949829838679 -0.9993908269633662 0
outer loop
vertex 159.01329077773673 -141.3555531027153 1.41
vertex 145.0717887777365 -140.86870510271464 1.41
vertex 145.0717887777365 -140.8687051027146 0
endloop
endfacet
facet normal -0.03489949829838679 -0.9993908269633662 0
outer loop
vertex 159.01329077773673 -141.3555531027153 1.41
vertex 145.0717887777365 -140.8687051027146 0
vertex 159.01329077773673 -141.35555310271533 0
endloop
endfacet
facet normal 0.034899498298358374 0.9993908269633673 0
outer loop
vertex 145.55863677773647 -126.92720310271496 1.41
vertex 159.50013877773677 -127.41405110271498 1.41
vertex 159.50013877773677 -127.41405110271496 0
endloop
endfacet
facet normal 0.034899498298358374 0.9993908269633673 0
outer loop
vertex 145.55863677773647 -126.92720310271496 1.41
vertex 159.50013877773677 -127.41405110271496 0
vertex 145.55863677773647 -126.92720310271494 0
endloop
endfacet
facet normal -0.034899498298358374 -0.9993908269633673 0
outer loop
vertex 159.747925216605 -120.31837620407234 1.41
vertex 145.8064232166047 -119.83152820407227 1.41
vertex 145.8064232166047 -119.83152820407228 0
endloop
endfacet
facet normal -0.034899498298358374 -0.9993908269633673 0
outer loop
vertex 159.747925216605 -120.31837620407234 1.41
vertex 145.8064232166047 -119.83152820407228 0
vertex 159.747925216605 -120.31837620407232 0
endloop
endfacet
facet normal 0.034899498298358374 0.9993908269633673 0
outer loop
vertex 146.2932712166047 -105.89002620407223 1.41
vertex 160.23477321660502 -106.37687420407231 1.41
vertex 160.23477321660502 -106.37687420407232 0
endloop
endfacet
facet normal 0.034899498298358374 0.9993908269633673 0
outer loop
vertex 146.2932712166047 -105.89002620407223 1.41
vertex 160.23477321660502 -106.37687420407232 0
vertex 146.2932712166047 -105.89002620407224 0
endloop
endfacet
facet normal -0.03489949829837258 -0.9993908269633667 0
outer loop
vertex 160.4825596554732 -99.28119930542985 1.41
vertex 146.54105765547303 -98.79435130542964 1.41
vertex 146.54105765547303 -98.79435130542964 0
endloop
endfacet
facet normal -0.03489949829837258 -0.9993908269633667 0
outer loop
vertex 160.4825596554732 -99.28119930542985 1.41
vertex 146.54105765547303 -98.79435130542964 0
vertex 160.4825596554732 -99.28119930542985 0
endloop
endfacet
facet normal 0.03489949829837258 0.9993908269633667 0
outer loop
vertex 147.027905655473 -84.85284930542961 1.41
vertex 160.96940765547325 -85.33969730542988 1.41
vertex 160.96940765547325 -85.33969730542988 0
endloop
endfacet
facet normal 0.03489949829837258 0.9993908269633667 0
outer loop
vertex 147.027905655473 -84.85284930542961 1.41
vertex 160.96940765547325 -85.33969730542988 0
vertex 147.027905655473 -84.8528493054296 0
endloop
endfacet
facet normal -0.017452408660830084 -0.9998476951175792 0
outer loop
vertex 136.9047738 -202.99880850000002 1.41
vertex 122.95689849999998 -202.75534740000003 1.41
vertex 122.9568985 -202.75534740000003 0
endloop
endfacet
facet normal -0.017452408660830084 -0.9998476951175792 0
outer loop
vertex 136.9047738 -202.99880850000002 1.41
vertex 122.9568985 -202.75534740000003 0
vertex 136.90477380000002 -202.99880850000002 0
endloop
endfacet
facet normal 0.9998476951175792 -0.017452408660830084 0
outer loop
vertex 138.9851009130982 -83.81696320022863 1.41
vertex 138.7416398130982 -97.76483850022865 1.41
vertex 138.74163981309817 -97.76483850022865 0
endloop
endfacet
facet normal 0.9998476951175792 -0.017452408660830084 0
outer loop
vertex 138.9851009130982 -83.81696320022863 1.41
vertex 138.74163981309817 -97.76483850022865 0
vertex 138.98510091309822 -83.81696320022861 0
endloop
endfacet
facet normal 0.9998476951175792 -0.017452408660830084 0
outer loop
vertex 138.6177277104784 -104.8637572001833 1.41
vertex 138.3742666104784 -118.81163250018298 1.41
vertex 138.3742666104784 -118.81163250018298 0
endloop
endfacet
facet normal 0.9998476951175792 -0.017452408660830084 0
outer loop
vertex 138.6177277104784 -104.8637572001833 1.41
vertex 138.3742666104784 -118.81163250018298 0
vertex 138.6177277104784 -104.86375720018329 0
endloop
endfacet
facet normal 0.9998476951175792 -0.017452408660830084 0
outer loop
vertex 138.25035450785862 -125.91055120013755 1.41
vertex 138.0068934078586 -139.8584265001372 1.41
vertex 138.0068934078586 -139.85842650013717 0
endloop
endfacet
facet normal 0.9998476951175792 -0.017452408660830084 0
outer loop
vertex 138.25035450785862 -125.91055120013755 1.41
vertex 138.0068934078586 -139.85842650013717 0
vertex 138.25035450785862 -125.91055120013755 0
endloop
endfacet
facet normal 0.9998476951175792 -0.017452408660830084 0
outer loop
vertex 137.88298130523881 -146.95734520009168 1.41
vertex 137.6395202052388 -160.90522050009145 1.41
vertex 137.6395202052388 -160.90522050009142 0
endloop
endfacet
facet normal 0.9998476951175792 -0.017452408660830084 0
outer loop
vertex 137.88298130523881 -146.95734520009168 1.41
vertex 137.6395202052388 -160.90522050009142 0
vertex 137.88298130523881 -146.95734520009165 0
endloop
endfacet
facet normal 0.9998476951175792 -0.017452408660830084 0
outer loop
vertex 137.51560810261904 -168.0041392000452 1.41
vertex 137.27214700261896 -181.95201450004575 1.41
vertex 137.27214700261896 -181.95201450004575 0
endloop
endfacet
facet normal 0.9998476951175792 -0.017452408660830084 0
outer loop
vertex 137.51560810261904 -168.0041392000452 1.41
vertex 137.27214700261896 -181.95201450004575 0
vertex 137.51560810261904 -168.00413920004516 0
endloop
endfacet
facet normal 0.9998476951175792 -0.017452408660830084 0
outer loop
vertex 137.1482348999992 -189.05093320000034 1.41
vertex 136.9047738 -202.99880850000002 1.41
vertex 136.90477380000002 -202.99880850000002 0
endloop
endfacet
facet normal 0.9998476951175792 -0.017452408660830084 0
outer loop
vertex 137.1482348999992 -189.05093320000034 1.41
vertex 136.90477380000002 -202.99880850000002 0
vertex 137.1482348999992 -189.05093320000034 0
endloop
endfacet
facet normal 0.017452408660858513 0.9998476951175786 0
outer loop
vertex 123.2003596 -188.80747210000004 1.41
vertex 137.1482348999992 -189.05093320000034 1.41
vertex 137.1482348999992 -189.05093320000034 0
endloop
endfacet
facet normal 0.017452408660858513 0.9998476951175786 0
outer loop
vertex 123.2003596 -188.80747210000004 1.41
vertex 137.1482348999992 -189.05093320000034 0
vertex 123.20035959999998 -188.80747210000004 0
endloop
endfacet
facet normal -0.9998476951175794 0.017452408660815877 0
outer loop
vertex 122.95689849999998 -202.75534740000003 1.41
vertex 123.2003596 -188.80747210000004 1.41
vertex 123.20035959999998 -188.80747210000004 0
endloop
endfacet
facet normal -0.9998476951175794 0.017452408660815877 0
outer loop
vertex 122.95689849999998 -202.75534740000003 1.41
vertex 123.20035959999998 -188.80747210000004 0
vertex 122.9568985 -202.75534740000003 0
endloop
endfacet
facet normal -0.9998476951175794 0.017452408660815877 0
outer loop
vertex 123.32427170261977 -181.70855340004658 1.41
vertex 123.5677328026198 -167.76067810004577 1.41
vertex 123.56773280261979 -167.76067810004574 0
endloop
endfacet
facet normal -0.9998476951175794 0.017452408660815877 0
outer loop
vertex 123.32427170261977 -181.70855340004658 1.41
vertex 123.56773280261979 -167.76067810004574 0
vertex 123.32427170261975 -181.70855340004655 0
endloop
endfacet
facet normal -0.9998476951175794 0.017452408660815877 0
outer loop
vertex 123.69164490523956 -160.6617594000923 1.41
vertex 123.93510600523955 -146.71388410009234 1.41
vertex 123.93510600523958 -146.71388410009232 0
endloop
endfacet
facet normal -0.9998476951175794 0.017452408660815877 0
outer loop
vertex 123.69164490523956 -160.6617594000923 1.41
vertex 123.93510600523958 -146.71388410009232 0
vertex 123.69164490523956 -160.66175940009228 0
endloop
endfacet
facet normal -0.9998476951175794 0.017452408660815877 0
outer loop
vertex 124.05901810785933 -139.61496540013806 1.41
vertex 124.30247920785936 -125.66709010013807 1.41
vertex 124.30247920785935 -125.66709010013807 0
endloop
endfacet
facet normal -0.9998476951175794 0.017452408660815877 0
outer loop
vertex 124.05901810785933 -139.61496540013806 1.41
vertex 124.30247920785935 -125.66709010013807 0
vertex 124.05901810785937 -139.61496540013806 0
endloop
endfacet
facet normal -0.9998476951175794 0.017452408660815877 0
outer loop
vertex 124.42639131047913 -118.56817140018387 1.41
vertex 124.66985241047914 -104.62029610018384 1.41
vertex 124.66985241047914 -104.62029610018382 0
endloop
endfacet
facet normal -0.9998476951175794 0.017452408660815877 0
outer loop
vertex 124.42639131047913 -118.56817140018387 1.41
vertex 124.66985241047914 -104.62029610018382 0
vertex 124.42639131047913 -118.56817140018387 0
endloop
endfacet
facet normal -0.9998476951175794 0.017452408660815877 0
outer loop
vertex 124.79376451309892 -97.52137740022923 1.41
vertex 125.03722561309895 -83.57350210022958 1.41
vertex 125.03722561309894 -83.57350210022958 0
endloop
endfacet
facet normal -0.9998476951175794 0.017452408660815877 0
outer loop
vertex 124.79376451309892 -97.52137740022923 1.41
vertex 125.03722561309894 -83.57350210022958 0
vertex 124.79376451309894 -97.52137740022923 0
endloop
endfacet
facet normal -0.017452408660744823 -0.9998476951175808 0
outer loop
vertex 137.27214700261896 -181.95201450004575 1.41
vertex 123.32427170261977 -181.70855340004658 1.41
vertex 123.32427170261975 -181.70855340004655 0
endloop
endfacet
facet normal -0.017452408660744823 -0.9998476951175808 0
outer loop
vertex 137.27214700261896 -181.95201450004575 1.41
vertex 123.32427170261975 -181.70855340004655 0
vertex 137.27214700261896 -181.95201450004575 0
endloop
endfacet
facet normal 0.017452408660773244 0.9998476951175801 0
outer loop
vertex 123.5677328026198 -167.76067810004577 1.41
vertex 137.51560810261904 -168.0041392000452 1.41
vertex 137.51560810261904 -168.00413920004516 0
endloop
endfacet
facet normal 0.017452408660773244 0.9998476951175801 0
outer loop
vertex 123.5677328026198 -167.76067810004577 1.41
vertex 137.51560810261904 -168.00413920004516 0
vertex 123.56773280261979 -167.76067810004574 0
endloop
endfacet
facet normal -0.017452408660773248 -0.9998476951175801 0
outer loop
vertex 137.6395202052388 -160.90522050009145 1.41
vertex 123.69164490523956 -160.6617594000923 1.41
vertex 123.69164490523956 -160.66175940009228 0
endloop
endfacet
facet normal -0.017452408660773248 -0.9998476951175801 0
outer loop
vertex 137.6395202052388 -160.90522050009145 1.41
vertex 123.69164490523956 -160.66175940009228 0
vertex 137.6395202052388 -160.90522050009142 0
endloop
endfacet
facet normal 0.017452408660773244 0.9998476951175801 0
outer loop
vertex 123.93510600523955 -146.71388410009234 1.41
vertex 137.88298130523881 -146.95734520009168 1.41
vertex 137.88298130523881 -146.95734520009165 0
endloop
endfacet
facet normal 0.017452408660773244 0.9998476951175801 0
outer loop
vertex 123.93510600523955 -146.71388410009234 1.41
vertex 137.88298130523881 -146.95734520009165 0
vertex 123.93510600523958 -146.71388410009232 0
endloop
endfacet
facet normal 0.017452408660830084 -0.9998476951175792 0
outer loop
vertex 97.068741 -203.1051159 1.41
vertex 83.1208657 -203.34857700000003 1.41
vertex 83.12086569999998 -203.34857700000003 0
endloop
endfacet
facet normal 0.017452408660830084 -0.9998476951175792 0
outer loop
vertex 97.068741 -203.1051159 1.41
vertex 83.12086569999998 -203.34857700000003 0
vertex 97.068741 -203.1051159 0
endloop
endfacet
facet normal 0.9998476951175792 0.017452408660830088 0
outer loop
vertex 94.98841388690066 -83.92327060022868 1.41
vertex 95.23187498690068 -97.8711459002288 1.41
vertex 95.23187498690068 -97.8711459002288 0
endloop
endfacet
facet normal 0.9998476951175792 0.017452408660830088 0
outer loop
vertex 94.98841388690066 -83.92327060022868 1.41
vertex 95.23187498690068 -97.8711459002288 0
vertex 94.98841388690066 -83.92327060022868 0
endloop
endfacet
facet normal 0.9998476951175792 0.017452408660830088 0
outer loop
vertex 95.35578708952046 -104.97006460018301 1.41
vertex 95.59924818952048 -118.91793990018303 1.41
vertex 95.59924818952047 -118.91793990018304 0
endloop
endfacet
facet normal 0.9998476951175792 0.017452408660830088 0
outer loop
vertex 95.35578708952046 -104.97006460018301 1.41
vertex 95.59924818952047 -118.91793990018304 0
vertex 95.35578708952046 -104.97006460018302 0
endloop
endfacet
facet normal 0.9998476951175792 0.017452408660830088 0
outer loop
vertex 95.72316029214025 -126.01685860013743 1.41
vertex 95.96662139214027 -139.96473390013745 1.41
vertex 95.96662139214027 -139.96473390013745 0
endloop
endfacet
facet normal 0.9998476951175792 0.017452408660830088 0
outer loop
vertex 95.72316029214025 -126.01685860013743 1.41
vertex 95.96662139214027 -139.96473390013745 0
vertex 95.72316029214025 -126.0168586001374 0
endloop
endfacet
facet normal 0.9998476951175792 0.017452408660830088 0
outer loop
vertex 96.09053349476004 -147.063652600091 1.41
vertex 96.33399459476004 -161.01152790009164 1.41
vertex 96.33399459476004 -161.01152790009166 0
endloop
endfacet
facet normal 0.9998476951175792 0.017452408660830088 0
outer loop
vertex 96.09053349476004 -147.063652600091 1.41
vertex 96.33399459476004 -161.01152790009166 0
vertex 96.09053349476004 -147.06365260009102 0
endloop
endfacet
facet normal 0.9998476951175792 0.017452408660830088 0
outer loop
vertex 96.45790669737983 -168.11044660004626 1.41
vertex 96.70136779737983 -182.05832190004597 1.41
vertex 96.70136779737982 -182.05832190004597 0
endloop
endfacet
facet normal 0.9998476951175792 0.017452408660830088 0
outer loop
vertex 96.45790669737983 -168.11044660004626 1.41
vertex 96.70136779737982 -182.05832190004597 0
vertex 96.45790669737983 -168.11044660004623 0
endloop
endfacet
facet normal 0.9998476951175792 0.017452408660830088 0
outer loop
vertex 96.82527989999966 -189.15724059999962 1.41
vertex 97.068741 -203.1051159 1.41
vertex 97.068741 -203.1051159 0
endloop
endfacet
facet normal 0.9998476951175792 0.017452408660830088 0
outer loop
vertex 96.82527989999966 -189.15724059999962 1.41
vertex 97.068741 -203.1051159 0
vertex 96.82527989999966 -189.15724059999962 0
endloop
endfacet
facet normal -0.017452408660858513 0.9998476951175788 0
outer loop
vertex 82.87740459999999 -189.40070169999998 1.41
vertex 96.82527989999966 -189.15724059999962 1.41
vertex 96.82527989999966 -189.15724059999962 0
endloop
endfacet
facet normal -0.017452408660858513 0.9998476951175788 0
outer loop
vertex 82.87740459999999 -189.40070169999998 1.41
vertex 96.82527989999966 -189.15724059999962 0
vertex 82.8774046 -189.40070169999998 0
endloop
endfacet
facet normal -0.9998476951175794 -0.017452408660815873 0
outer loop
vertex 83.1208657 -203.34857700000003 1.41
vertex 82.87740459999999 -189.40070169999998 1.41
vertex 82.8774046 -189.40070169999998 0
endloop
endfacet
facet normal -0.9998476951175794 -0.017452408660815873 0
outer loop
vertex 83.1208657 -203.34857700000003 1.41
vertex 82.8774046 -189.40070169999998 0
vertex 83.12086569999998 -203.34857700000003 0
endloop
endfacet
facet normal -0.9998476951175794 -0.017452408660815873 0
outer loop
vertex 82.75349249738026 -182.30178300004664 1.41
vertex 82.51003139738026 -168.3539077000457 1.41
vertex 82.51003139738026 -168.35390770004577 0
endloop
endfacet
facet normal -0.9998476951175794 -0.017452408660815873 0
outer loop
vertex 82.75349249738026 -182.30178300004664 1.41
vertex 82.51003139738026 -168.35390770004577 0
vertex 82.75349249738026 -182.30178300004664 0
endloop
endfacet
facet normal -0.9998476951175794 -0.017452408660815873 0
outer loop
vertex 82.38611929476049 -161.25498900009148 1.41
vertex 82.14265819476051 -147.30711370009152 1.41
vertex 82.14265819476051 -147.30711370009152 0
endloop
endfacet
facet normal -0.9998476951175794 -0.017452408660815873 0
outer loop
vertex 82.38611929476049 -161.25498900009148 1.41
vertex 82.14265819476051 -147.30711370009152 0
vertex 82.38611929476049 -161.25498900009148 0
endloop
endfacet
facet normal -0.9998476951175794 -0.017452408660815873 0
outer loop
vertex 82.01874609214076 -140.20819500013812 1.41
vertex 81.77528499214075 -126.26031970013858 1.41
vertex 81.77528499214075 -126.2603197001386 0
endloop
endfacet
facet normal -0.9998476951175794 -0.017452408660815873 0
outer loop
vertex 82.01874609214076 -140.20819500013812 1.41
vertex 81.77528499214075 -126.2603197001386 0
vertex 82.01874609214076 -140.20819500013812 0
endloop
endfacet
facet normal -0.9998476951175794 -0.017452408660815873 0
outer loop
vertex 81.65137288952099 -119.16140100018352 1.41
vertex 81.40791178952098 -105.2135257001839 1.41
vertex 81.40791178952098 -105.2135257001839 0
endloop
endfacet
facet normal -0.9998476951175794 -0.017452408660815873 0
outer loop
vertex 81.65137288952099 -119.16140100018352 1.41
vertex 81.40791178952098 -105.2135257001839 0
vertex 81.65137288952097 -119.16140100018352 0
endloop
endfacet
facet normal -0.9998476951175794 -0.017452408660815873 0
outer loop
vertex 81.2839996869012 -98.11460700022923 1.41
vertex 81.04053858690119 -84.16673170022918 1.41
vertex 81.04053858690119 -84.16673170022918 0
endloop
endfacet
facet normal -0.9998476951175794 -0.017452408660815873 0
outer loop
vertex 81.2839996869012 -98.11460700022923 1.41
vertex 81.04053858690119 -84.16673170022918 0
vertex 81.2839996869012 -98.11460700022923 0
endloop
endfacet
facet normal 0.017452408660858513 -0.9998476951175788 0
outer loop
vertex 96.70136779737983 -182.05832190004597 1.41
vertex 82.75349249738026 -182.30178300004664 1.41
vertex 82.75349249738026 -182.30178300004664 0
endloop
endfacet
facet normal 0.017452408660858513 -0.9998476951175788 0
outer loop
vertex 96.70136779737983 -182.05832190004597 1.41
vertex 82.75349249738026 -182.30178300004664 0
vertex 96.70136779737982 -182.05832190004597 0
endloop
endfacet
facet normal -0.017452408660801663 0.9998476951175796 0
outer loop
vertex 82.51003139738026 -168.3539077000457 1.41
vertex 96.45790669737983 -168.11044660004626 1.41
vertex 96.45790669737983 -168.11044660004623 0
endloop
endfacet
facet normal -0.017452408660801663 0.9998476951175796 0
outer loop
vertex 82.51003139738026 -168.3539077000457 1.41
vertex 96.45790669737983 -168.11044660004623 0
vertex 82.51003139738026 -168.35390770004577 0
endloop
endfacet
facet normal 0.017452408660801666 -0.9998476951175796 0
outer loop
vertex 96.33399459476004 -161.01152790009164 1.41
vertex 82.38611929476049 -161.25498900009148 1.41
vertex 82.38611929476049 -161.25498900009148 0
endloop
endfacet
facet normal 0.017452408660801666 -0.9998476951175796 0
outer loop
vertex 96.33399459476004 -161.01152790009164 1.41
vertex 82.38611929476049 -161.25498900009148 0
vertex 96.33399459476004 -161.01152790009166 0
endloop
endfacet
facet normal -0.017452408660858506 0.9998476951175788 0
outer loop
vertex 82.14265819476051 -147.30711370009152 1.41
vertex 96.09053349476004 -147.063652600091 1.41
vertex 96.09053349476004 -147.06365260009102 0
endloop
endfacet
facet normal -0.017452408660858506 0.9998476951175788 0
outer loop
vertex 82.14265819476051 -147.30711370009152 1.41
vertex 96.09053349476004 -147.06365260009102 0
vertex 82.14265819476051 -147.30711370009152 0
endloop
endfacet
facet normal -0.017452408660773248 -0.9998476951175801 0
outer loop
vertex 138.0068934078586 -139.8584265001372 1.41
vertex 124.05901810785933 -139.61496540013806 1.41
vertex 124.05901810785937 -139.61496540013806 0
endloop
endfacet
facet normal -0.017452408660773248 -0.9998476951175801 0
outer loop
vertex 138.0068934078586 -139.8584265001372 1.41
vertex 124.05901810785937 -139.61496540013806 0
vertex 138.0068934078586 -139.85842650013717 0
endloop
endfacet
facet normal 0.017452408660787455 0.9998476951175799 0
outer loop
vertex 124.30247920785936 -125.66709010013807 1.41
vertex 138.25035450785862 -125.91055120013755 1.41
vertex 138.25035450785862 -125.91055120013755 0
endloop
endfacet
facet normal 0.017452408660787455 0.9998476951175799 0
outer loop
vertex 124.30247920785936 -125.66709010013807 1.41
vertex 138.25035450785862 -125.91055120013755 0
vertex 124.30247920785935 -125.66709010013807 0
endloop
endfacet
facet normal -0.01745240866077324 -0.9998476951175801 0
outer loop
vertex 138.3742666104784 -118.81163250018298 1.41
vertex 124.42639131047913 -118.56817140018387 1.41
vertex 124.42639131047913 -118.56817140018387 0
endloop
endfacet
facet normal -0.01745240866077324 -0.9998476951175801 0
outer loop
vertex 138.3742666104784 -118.81163250018298 1.41
vertex 124.42639131047913 -118.56817140018387 0
vertex 138.3742666104784 -118.81163250018298 0
endloop
endfacet
facet normal 0.017452408660801666 0.9998476951175796 0
outer loop
vertex 124.66985241047914 -104.62029610018384 1.41
vertex 138.6177277104784 -104.8637572001833 1.41
vertex 138.6177277104784 -104.86375720018329 0
endloop
endfacet
facet normal 0.017452408660801666 0.9998476951175796 0
outer loop
vertex 124.66985241047914 -104.62029610018384 1.41
vertex 138.6177277104784 -104.86375720018329 0
vertex 124.66985241047914 -104.62029610018382 0
endloop
endfacet
facet normal -0.01745240866078745 -0.9998476951175799 0
outer loop
vertex 138.7416398130982 -97.76483850022865 1.41
vertex 124.79376451309892 -97.52137740022923 1.41
vertex 124.79376451309894 -97.52137740022923 0
endloop
endfacet
facet normal -0.01745240866078745 -0.9998476951175799 0
outer loop
vertex 138.7416398130982 -97.76483850022865 1.41
vertex 124.79376451309894 -97.52137740022923 0
vertex 138.74163981309817 -97.76483850022865 0
endloop
endfacet
facet normal 0.017452408660759033 0.9998476951175804 0
outer loop
vertex 125.03722561309895 -83.57350210022958 1.41
vertex 138.9851009130982 -83.81696320022863 1.41
vertex 138.98510091309822 -83.81696320022861 0
endloop
endfacet
facet normal 0.017452408660759033 0.9998476951175804 0
outer loop
vertex 125.03722561309895 -83.57350210022958 1.41
vertex 138.98510091309822 -83.81696320022861 0
vertex 125.03722561309894 -83.57350210022958 0
endloop
endfacet
facet normal 0.01745240866085851 -0.9998476951175788 0
outer loop
vertex 95.96662139214027 -139.96473390013745 1.41
vertex 82.01874609214076 -140.20819500013812 1.41
vertex 82.01874609214076 -140.20819500013812 0
endloop
endfacet
facet normal 0.01745240866085851 -0.9998476951175788 0
outer loop
vertex 95.96662139214027 -139.96473390013745 1.41
vertex 82.01874609214076 -140.20819500013812 0
vertex 95.96662139214027 -139.96473390013745 0
endloop
endfacet
facet normal -0.017452408660901145 0.9998476951175779 0
outer loop
vertex 81.77528499214075 -126.26031970013858 1.41
vertex 95.72316029214025 -126.01685860013743 1.41
vertex 95.72316029214025 -126.0168586001374 0
endloop
endfacet
facet normal -0.017452408660901145 0.9998476951175779 0
outer loop
vertex 81.77528499214075 -126.26031970013858 1.41
vertex 95.72316029214025 -126.0168586001374 0
vertex 81.77528499214075 -126.2603197001386 0
endloop
endfacet
facet normal 0.01745240866085851 -0.9998476951175788 0
outer loop
vertex 95.59924818952048 -118.91793990018303 1.41
vertex 81.65137288952099 -119.16140100018352 1.41
vertex 81.65137288952097 -119.16140100018352 0
endloop
endfacet
facet normal 0.01745240866085851 -0.9998476951175788 0
outer loop
vertex 95.59924818952048 -118.91793990018303 1.41
vertex 81.65137288952097 -119.16140100018352 0
vertex 95.59924818952047 -118.91793990018304 0
endloop
endfacet
facet normal -0.01745240866088693 0.9998476951175781 0
outer loop
vertex 81.40791178952098 -105.2135257001839 1.41
vertex 95.35578708952046 -104.97006460018301 1.41
vertex 95.35578708952046 -104.97006460018302 0
endloop
endfacet
facet normal -0.01745240866088693 0.9998476951175781 0
outer loop
vertex 81.40791178952098 -105.2135257001839 1.41
vertex 95.35578708952046 -104.97006460018302 0
vertex 81.40791178952098 -105.2135257001839 0
endloop
endfacet
facet normal 0.01745240866085851 -0.9998476951175788 0
outer loop
vertex 95.23187498690068 -97.8711459002288 1.41
vertex 81.2839996869012 -98.11460700022923 1.41
vertex 81.2839996869012 -98.11460700022923 0
endloop
endfacet
facet normal 0.01745240866085851 -0.9998476951175788 0
outer loop
vertex 95.23187498690068 -97.8711459002288 1.41
vertex 81.2839996869012 -98.11460700022923 0
vertex 95.23187498690068 -97.8711459002288 0
endloop
endfacet
facet normal -0.017452408660858506 0.9998476951175788 0
outer loop
vertex 81.04053858690119 -84.16673170022918 1.41
vertex 94.98841388690066 -83.92327060022868 1.41
vertex 94.98841388690066 -83.92327060022868 0
endloop
endfacet
facet normal -0.017452408660858506 0.9998476951175788 0
outer loop
vertex 81.04053858690119 -84.16673170022918 1.41
vertex 94.98841388690066 -83.92327060022868 0
vertex 81.04053858690119 -84.16673170022918 0
endloop
endfacet
endsolid csg.js
