solid csg.js
facet normal 0 0 -1
outer loop
vertex 110.14856160000025 -53.1347619 0
vertex 132.5029129499972 -54.14865449999988 0
vertex 132.52687857795598 -54.1498399683654 0
endloop
endfacet
facet normal 0 0 -1
outer loop
vertex 110.14856160000025 -53.1347619 0
vertex 132.52687857795598 -54.1498399683654 0
vertex 132.55083589999623 -54.15123899999978 0
endloop
endfacet
facet normal 0 0 -1
outer loop
vertex 110.14856160000025 -53.1347619 0
vertex 132.55083589999623 -54.15123899999978 0
vertex 154.99592560000053 -55.562137000000035 0
endloop
endfacet
facet normal 0 0 -1
outer loop
vertex 110.14856160000025 -53.1347619 0
vertex 154.99592560000053 -55.562137000000035 0
vertex 155.02992146157538 -55.56448646236082 0
endloop
endfacet
facet normal 0 0 -1
outer loop
vertex 110.14856160000025 -53.1347619 0
vertex 155.02992146157538 -55.56448646236082 0
vertex 155.06388119999983 -55.56725399999999 0
endloop
endfacet
facet normal 0 0 -1
outer loop
vertex 110.14856160000025 -53.1347619 0
vertex 155.06388119999983 -55.56725399999999 0
vertex 177.81267554999977 -57.56417219999997 0
endloop
endfacet
facet normal 0 0 -1
outer loop
vertex 110.14856160000025 -53.1347619 0
vertex 177.81267554999977 -57.56417219999997 0
vertex 52.41891583228043 -57.56417219999997 0
endloop
endfacet
facet normal 0 0 -1
outer loop
vertex 110.14856160000025 -53.1347619 0
vertex 52.41891583228043 -57.56417219999997 0
vertex 64.98875574999998 -56.266860750000006 0
endloop
endfacet
facet normal 0 0 -1
outer loop
vertex 110.14856160000025 -53.1347619 0
vertex 64.98875574999998 -56.266860750000006 0
vertex 65.02232704548419 -56.26360475501622 0
endloop
endfacet
facet normal 0 0 -1
outer loop
vertex 110.14856160000025 -53.1347619 0
vertex 65.02232704548419 -56.26360475501622 0
vertex 65.05593150000067 -56.260761499999944 0
endloop
endfacet
facet normal 0 0 -1
outer loop
vertex 110.14856160000025 -53.1347619 0
vertex 65.05593150000067 -56.260761499999944 0
vertex 87.47483804999892 -54.50138085000009 0
endloop
endfacet
facet normal 0 0 -1
outer loop
vertex 110.14856160000025 -53.1347619 0
vertex 87.47483804999892 -54.50138085000009 0
vertex 87.49877076314198 -54.499606390491635 0
endloop
endfacet
facet normal 0 0 -1
outer loop
vertex 110.14856160000025 -53.1347619 0
vertex 87.49877076314198 -54.499606390491635 0
vertex 87.52271610000032 -54.49804169999999 0
endloop
endfacet
facet normal 0 0 -1
outer loop
vertex 110.14856160000025 -53.1347619 0
vertex 87.52271610000032 -54.49804169999999 0
vertex 109.85668579999982 -53.13702595000001 0
endloop
endfacet
facet normal 0 0 -1
outer loop
vertex 110.14856160000025 -53.1347619 0
vertex 109.85668579999982 -53.13702595000001 0
vertex 110.00259579392197 -53.132020651740504 0
endloop
endfacet
facet normal 0 0 -1
outer loop
vertex 177.81267554999977 -57.56417219999997 0
vertex 177.86092580482162 -57.56797708083337 0
vertex 52.382049786750784 -57.56797708083337 0
endloop
endfacet
facet normal 0 0 -1
outer loop
vertex 177.81267554999977 -57.56417219999997 0
vertex 52.382049786750784 -57.56797708083337 0
vertex 52.41891583228043 -57.56417219999997 0
endloop
endfacet
facet normal 0 0 -1
outer loop
vertex 177.86092580482162 -57.56797708083337 0
vertex 177.90923110000367 -57.570934400000226 0
vertex 52.35339588986815 -57.570934400000226 0
endloop
endfacet
facet normal 0 0 -1
outer loop
vertex 177.86092580482162 -57.56797708083337 0
vertex 52.35339588986815 -57.570934400000226 0
vertex 52.382049786750784 -57.56797708083337 0
endloop
endfacet
facet normal 0 0 -1
outer loop
vertex 177.90923110000367 -57.570934400000226 0
vertex 191.61702350000004 -58.2893272 0
vertex 192.0917146535878 -58.35604191864529 0
endloop
endfacet
facet normal 0 0 -1
outer loop
vertex 177.90923110000367 -57.570934400000226 0
vertex 192.0917146535878 -58.35604191864529 0
vertex 192.5476093033671 -58.504172311478584 0
endloop
endfacet
facet normal 0 0 -1
outer loop
vertex 177.90923110000367 -57.570934400000226 0
vertex 192.5476093033671 -58.504172311478584 0
vertex 192.7452096772455 -58.60923890000004 0
endloop
endfacet
facet normal 0 0 -1
outer loop
vertex 177.90923110000367 -57.570934400000226 0
vertex 192.7452096772455 -58.60923890000004 0
vertex 42.29311209999966 -58.60923890000004 0
endloop
endfacet
facet normal 0 0 -1
outer loop
vertex 177.90923110000367 -57.570934400000226 0
vertex 42.29311209999966 -58.60923890000004 0
vertex 52.35339588986815 -57.570934400000226 0
endloop
endfacet
facet normal 0 0 -1
outer loop
vertex 192.7452096772455 -58.60923890000004 0
vertex 192.75697163187854 -58.61549287828652 0
vertex 42.22397895526311 -58.61549287828652 0
endloop
endfacet
facet normal 0 0 -1
outer loop
vertex 192.7452096772455 -58.60923890000004 0
vertex 42.22397895526311 -58.61549287828652 0
vertex 42.29311209999966 -58.60923890000004 0
endloop
endfacet
facet normal 0 0 -1
outer loop
vertex 192.75697163187854 -58.61549287828652 0
vertex 192.7654472116801 -58.619999449999995 0
vertex 42.15471104999996 -58.619999449999995 0
endloop
endfacet
facet normal 0 0 -1
outer loop
vertex 192.75697163187854 -58.61549287828652 0
vertex 42.15471104999996 -58.619999449999995 0
vertex 42.22397895526311 -58.61549287828652 0
endloop
endfacet
facet normal 0 0 -1
outer loop
vertex 192.7654472116801 -58.619999449999995 0
vertex 192.9708553325951 -58.7292175152068 0
vertex 193.34859263552008 -59.02433965086831 0
endloop
endfacet
facet normal 0 0 -1
outer loop
vertex 192.7654472116801 -58.619999449999995 0
vertex 193.34859263552008 -59.02433965086831 0
vertex 193.66934386486258 -59.38057158915235 0
endloop
endfacet
facet normal 0 0 -1
outer loop
vertex 192.7654472116801 -58.619999449999995 0
vertex 193.66934386486258 -59.38057158915235 0
vertex 193.92336316491594 -59.78708941185991 0
endloop
endfacet
facet normal 0 0 -1
outer loop
vertex 192.7654472116801 -58.619999449999995 0
vertex 193.92336316491594 -59.78708941185991 0
vertex 194.1029322941937 -60.23154129090727 0
endloop
endfacet
facet normal 0 0 -1
outer loop
vertex 192.7654472116801 -58.619999449999995 0
vertex 194.1029322941937 -60.23154129090727 0
vertex 194.2025951400976 -60.700422792061616 0
endloop
endfacet
facet normal 0 0 -1
outer loop
vertex 192.7654472116801 -58.619999449999995 0
vertex 194.2025951400976 -60.700422792061616 0
vertex 194.219327 -61.17948440000008 0
endloop
endfacet
facet normal 0 0 -1
outer loop
vertex 192.7654472116801 -58.619999449999995 0
vertex 194.219327 -61.17948440000008 0
vertex 188.79299565000002 -164.71994450000005 0
endloop
endfacet
facet normal 0 0 -1
outer loop
vertex 192.7654472116801 -58.619999449999995 0
vertex 188.79299565000002 -164.71994450000005 0
vertex 31.23702423654889 -164.71994450000005 0
endloop
endfacet
facet normal 0 0 -1
outer loop
vertex 192.7654472116801 -58.619999449999995 0
vertex 31.23702423654889 -164.71994450000005 0
vertex 25.865623650000003 -62.227452249999956 0
endloop
endfacet
facet normal 0 0 -1
outer loop
vertex 192.7654472116801 -58.619999449999995 0
vertex 25.865623650000003 -62.227452249999956 0
vertex 25.882352009902405 -61.74838784206159 0
endloop
endfacet
facet normal 0 0 -1
outer loop
vertex 192.7654472116801 -58.619999449999995 0
vertex 25.882352009902405 -61.74838784206159 0
vertex 25.982014855806312 -61.279506340907275 0
endloop
endfacet
facet normal 0 0 -1
outer loop
vertex 192.7654472116801 -58.619999449999995 0
vertex 25.982014855806312 -61.279506340907275 0
vertex 26.16158398508408 -60.83505446185987 0
endloop
endfacet
facet normal 0 0 -1
outer loop
vertex 192.7654472116801 -58.619999449999995 0
vertex 26.16158398508408 -60.83505446185987 0
vertex 26.415603285137394 -60.428536639152384 0
endloop
endfacet
facet normal 0 0 -1
outer loop
vertex 192.7654472116801 -58.619999449999995 0
vertex 26.415603285137394 -60.428536639152384 0
vertex 26.736354514479928 -60.0723047008683 0
endloop
endfacet
facet normal 0 0 -1
outer loop
vertex 192.7654472116801 -58.619999449999995 0
vertex 26.736354514479928 -60.0723047008683 0
vertex 27.114091817404883 -59.7771825652068 0
endloop
endfacet
facet normal 0 0 -1
outer loop
vertex 192.7654472116801 -58.619999449999995 0
vertex 27.114091817404883 -59.7771825652068 0
vertex 27.537337846632852 -59.55213736147857 0
endloop
endfacet
facet normal 0 0 -1
outer loop
vertex 192.7654472116801 -58.619999449999995 0
vertex 27.537337846632852 -59.55213736147857 0
vertex 27.99323249641219 -59.40400696864529 0
endloop
endfacet
facet normal 0 0 -1
outer loop
vertex 192.7654472116801 -58.619999449999995 0
vertex 27.99323249641219 -59.40400696864529 0
vertex 28.467927300000042 -59.337294499999985 0
endloop
endfacet
facet normal 0 0 -1
outer loop
vertex 192.7654472116801 -58.619999449999995 0
vertex 28.467927300000042 -59.337294499999985 0
vertex 42.15471104999996 -58.619999449999995 0
endloop
endfacet
facet normal 0 0 -1
outer loop
vertex 188.79299565000002 -164.71994450000005 0
vertex 188.7957181414819 -165.05265166532408 0
vertex 31.254460669440103 -165.05265166532408 0
endloop
endfacet
facet normal 0 0 -1
outer loop
vertex 188.79299565000002 -164.71994450000005 0
vertex 31.254460669440103 -165.05265166532408 0
vertex 31.23702423654889 -164.71994450000005 0
endloop
endfacet
facet normal 0 0 -1
outer loop
vertex 188.7957181414819 -165.05265166532408 0
vertex 188.83860071620597 -165.38259492499603 0
vertex 31.271752252263624 -165.38259492499603 0
endloop
endfacet
facet normal 0 0 -1
outer loop
vertex 188.7957181414819 -165.05265166532408 0
vertex 31.271752252263624 -165.38259492499603 0
vertex 31.254460669440103 -165.05265166532408 0
endloop
endfacet
facet normal 0 0 -1
outer loop
vertex 188.83860071620597 -165.38259492499603 0
vertex 188.92101129999975 -165.70494899999923 0
vertex 31.288646103018323 -165.70494899999923 0
endloop
endfacet
facet normal 0 0 -1
outer loop
vertex 188.83860071620597 -165.38259492499603 0
vertex 31.288646103018323 -165.70494899999923 0
vertex 31.271752252263624 -165.38259492499603 0
endloop
endfacet
facet normal 0 0 -1
outer loop
vertex 188.92101129999975 -165.70494899999923 0
vertex 188.9412367153786 -165.76790909999997 0
vertex 31.291945700000003 -165.76790909999997 0
endloop
endfacet
facet normal 0 0 -1
outer loop
vertex 188.92101129999975 -165.70494899999923 0
vertex 31.291945700000003 -165.76790909999997 0
vertex 31.288646103018323 -165.70494899999923 0
endloop
endfacet
facet normal 0 0 -1
outer loop
vertex 188.9412367153786 -165.76790909999997 0
vertex 189.0481160431686 -166.10061589685048 0
vertex 31.289226903226375 -166.10061589685048 0
endloop
endfacet
facet normal 0 0 -1
outer loop
vertex 188.9412367153786 -165.76790909999997 0
vertex 31.289226903226375 -166.10061589685048 0
vertex 31.291945700000003 -165.76790909999997 0
endloop
endfacet
facet normal 0 0 -1
outer loop
vertex 189.0481160431686 -166.10061589685048 0
vertex 189.15410760459775 -166.43055914804282 0
vertex 31.24635102895976 -166.43055914804282 0
endloop
endfacet
facet normal 0 0 -1
outer loop
vertex 189.0481160431686 -166.10061589685048 0
vertex 31.24635102895976 -166.43055914804282 0
vertex 31.289226903226375 -166.10061589685048 0
endloop
endfacet
facet normal 0 0 -1
outer loop
vertex 189.15410760459775 -166.43055914804282 0
vertex 189.25766002552868 -166.75290955000025 0
vertex 31.16394284999995 -166.75290955000025 0
endloop
endfacet
facet normal 0 0 -1
outer loop
vertex 189.15410760459775 -166.43055914804282 0
vertex 31.16394284999995 -166.75290955000025 0
vertex 31.24635102895976 -166.43055914804282 0
endloop
endfacet
facet normal 0 0 -1
outer loop
vertex 189.25766002552868 -166.75290955000025 0
vertex 195.49059165000003 -186.1555270500001 0
vertex 195.57647840149312 -186.49632276747698 0
endloop
endfacet
facet normal 0 0 -1
outer loop
vertex 189.25766002552868 -166.75290955000025 0
vertex 195.57647840149312 -186.49632276747698 0
vertex 195.6181988748849 -186.84528932351446 0
endloop
endfacet
facet normal 0 0 -1
outer loop
vertex 189.25766002552868 -166.75290955000025 0
vertex 195.6181988748849 -186.84528932351446 0
vertex 195.6150733 -187.19672410000007 0
endloop
endfacet
facet normal 0 0 -1
outer loop
vertex 189.25766002552868 -166.75290955000025 0
vertex 195.6150733 -187.19672410000007 0
vertex 192.97157541968912 -223.4281374 0
endloop
endfacet
facet normal 0 0 -1
outer loop
vertex 189.25766002552868 -166.75290955000025 0
vertex 192.97157541968912 -223.4281374 0
vertex 103.25005180000065 -223.4281374 0
endloop
endfacet
facet normal 0 0 -1
outer loop
vertex 189.25766002552868 -166.75290955000025 0
vertex 103.25005180000065 -223.4281374 0
vertex 27.036912465209998 -223.4281374 0
endloop
endfacet
facet normal 0 0 -1
outer loop
vertex 189.25766002552868 -166.75290955000025 0
vertex 27.036912465209998 -223.4281374 0
vertex 24.46986595 -188.24469299999996 0
endloop
endfacet
facet normal 0 0 -1
outer loop
vertex 189.25766002552868 -166.75290955000025 0
vertex 24.46986595 -188.24469299999996 0
vertex 24.46674527042161 -187.89325441070372 0
endloop
endfacet
facet normal 0 0 -1
outer loop
vertex 189.25766002552868 -166.75290955000025 0
vertex 24.46674527042161 -187.89325441070372 0
vertex 24.5084724480202 -187.54428784591937 0
endloop
endfacet
facet normal 0 0 -1
outer loop
vertex 189.25766002552868 -166.75290955000025 0
vertex 24.5084724480202 -187.54428784591937 0
vertex 24.59436189999994 -187.2034960000002 0
endloop
endfacet
facet normal 0 0 -1
outer loop
vertex 189.25766002552868 -166.75290955000025 0
vertex 24.59436189999994 -187.2034960000002 0
vertex 31.16394284999995 -166.75290955000025 0
endloop
endfacet
facet normal 0 0 -1
outer loop
vertex 192.97157541968912 -223.4281374 0
vertex 116.77412540765087 -223.42814029999997 0
vertex 103.25005180000065 -223.4281374 0
endloop
endfacet
facet normal 0 0 -1
outer loop
vertex 192.97157541968912 -223.4281374 0
vertex 192.9715101279117 -223.42903227999662 0
vertex 116.84421038496451 -223.42903227999662 0
endloop
endfacet
facet normal 0 0 -1
outer loop
vertex 192.97157541968912 -223.4281374 0
vertex 116.84421038496451 -223.42903227999662 0
vertex 116.77412540765087 -223.42814029999997 0
endloop
endfacet
facet normal 0 0 -1
outer loop
vertex 103.25005180000065 -223.4281374 0
vertex 103.16094496608886 -223.42958413769935 0
vertex 27.037018021758904 -223.42958413769935 0
endloop
endfacet
facet normal 0 0 -1
outer loop
vertex 103.25005180000065 -223.4281374 0
vertex 27.037018021758904 -223.42958413769935 0
vertex 27.036912465209998 -223.4281374 0
endloop
endfacet
facet normal 0 0 -1
outer loop
vertex 192.9715101279117 -223.42903227999662 0
vertex 192.97131511133506 -223.43170515000006 0
vertex 116.91424770000123 -223.43170515000006 0
endloop
endfacet
facet normal 0 0 -1
outer loop
vertex 192.9715101279117 -223.42903227999662 0
vertex 116.91424770000123 -223.43170515000006 0
vertex 116.84421038496451 -223.42903227999662 0
endloop
endfacet
facet normal 0 0 -1
outer loop
vertex 103.16094496608886 -223.42958413769935 0
vertex 103.07193360000096 -223.4339147999999 0
vertex 27.0373339945625 -223.4339147999999 0
endloop
endfacet
facet normal 0 0 -1
outer loop
vertex 103.16094496608886 -223.42958413769935 0
vertex 27.0373339945625 -223.4339147999999 0
vertex 27.037018021758904 -223.42958413769935 0
endloop
endfacet
facet normal 0 0 -1
outer loop
vertex 192.97131511133506 -223.43170515000006 0
vertex 192.88502200000002 -224.61442649999978 0
vertex 192.8102327956747 -225.08117718272177 0
endloop
endfacet
facet normal 0 0 -1
outer loop
vertex 192.97131511133506 -223.43170515000006 0
vertex 192.8102327956747 -225.08117718272177 0
vertex 192.65661438732397 -225.52822417076865 0
endloop
endfacet
facet normal 0 0 -1
outer loop
vertex 192.97131511133506 -223.43170515000006 0
vertex 192.65661438732397 -225.52822417076865 0
vertex 192.4287057469451 -225.9423585409262 0
endloop
endfacet
facet normal 0 0 -1
outer loop
vertex 192.97131511133506 -223.43170515000006 0
vertex 192.4287057469451 -225.9423585409262 0
vertex 192.13324090431678 -226.31134384100744 0
endloop
endfacet
facet normal 0 0 -1
outer loop
vertex 192.97131511133506 -223.43170515000006 0
vertex 192.13324090431678 -226.31134384100744 0
vertex 191.77894997623395 -226.62427764100877 0
endloop
endfacet
facet normal 0 0 -1
outer loop
vertex 192.97131511133506 -223.43170515000006 0
vertex 191.77894997623395 -226.62427764100877 0
vertex 191.37630121723998 -226.87191366784222 0
endloop
endfacet
facet normal 0 0 -1
outer loop
vertex 192.97131511133506 -223.43170515000006 0
vertex 191.37630121723998 -226.87191366784222 0
vertex 190.93719171350548 -227.0469350055 0
endloop
endfacet
facet normal 0 0 -1
outer loop
vertex 192.97131511133506 -223.43170515000006 0
vertex 190.93719171350548 -227.0469350055 0
vertex 190.47459585893517 -227.14417028839512 0
endloop
endfacet
facet normal 0 0 -1
outer loop
vertex 192.97131511133506 -223.43170515000006 0
vertex 190.47459585893517 -227.14417028839512 0
vertex 190.0021839999996 -227.160743 0
endloop
endfacet
facet normal 0 0 -1
outer loop
vertex 192.97131511133506 -223.43170515000006 0
vertex 190.0021839999996 -227.160743 0
vertex 116.91424770000123 -223.43170515000006 0
endloop
endfacet
facet normal 0 0 -1
outer loop
vertex 103.07193360000096 -223.4339147999999 0
vertex 30.11803454999996 -228.16911255 0
vertex 29.641231567511255 -228.15862045667058 0
endloop
endfacet
facet normal 0 0 -1
outer loop
vertex 103.07193360000096 -223.4339147999999 0
vertex 29.641231567511255 -228.15862045667058 0
vertex 29.17341152926093 -228.06590810611948 0
endloop
endfacet
facet normal 0 0 -1
outer loop
vertex 103.07193360000096 -223.4339147999999 0
vertex 29.17341152926093 -228.06590810611948 0
vertex 28.72864467844741 -227.89376393238777 0
endloop
endfacet
facet normal 0 0 -1
outer loop
vertex 103.07193360000096 -223.4339147999999 0
vertex 28.72864467844741 -227.89376393238777 0
vertex 28.320307906277847 -227.64736537592495 0
endloop
endfacet
facet normal 0 0 -1
outer loop
vertex 103.07193360000096 -223.4339147999999 0
vertex 28.320307906277847 -227.64736537592495 0
vertex 27.960682426084233 -227.33412316592023 0
endloop
endfacet
facet normal 0 0 -1
outer loop
vertex 103.07193360000096 -223.4339147999999 0
vertex 27.960682426084233 -227.33412316592023 0
vertex 27.660584401247064 -226.963458433822 0
endloop
endfacet
facet normal 0 0 -1
outer loop
vertex 103.07193360000096 -223.4339147999999 0
vertex 27.660584401247064 -226.963458433822 0
vertex 27.429039636235842 -226.54651936162026 0
endloop
endfacet
facet normal 0 0 -1
outer loop
vertex 103.07193360000096 -223.4339147999999 0
vertex 27.429039636235842 -226.54651936162026 0
vertex 27.273012114822535 -226.0958458870351 0
endloop
endfacet
facet normal 0 0 -1
outer loop
vertex 103.07193360000096 -223.4339147999999 0
vertex 27.273012114822535 -226.0958458870351 0
vertex 27.197199100000006 -225.62499510000004 0
endloop
endfacet
facet normal 0 0 -1
outer loop
vertex 103.07193360000096 -223.4339147999999 0
vertex 27.197199100000006 -225.62499510000004 0
vertex 27.0373339945625 -223.4339147999999 0
endloop
endfacet
facet normal 0 0 1
outer loop
vertex 103.07193359999997 -223.4339148 1
vertex 27.037333994562474 -223.4339148 1
vertex 27.19719909999995 -225.62499509999975 1
endloop
endfacet
facet normal 0 0 1
outer loop
vertex 103.07193359999997 -223.4339148 1
vertex 27.19719909999995 -225.62499509999975 1
vertex 27.273012114822535 -226.0958458870351 1
endloop
endfacet
facet normal 0 0 1
outer loop
vertex 103.07193359999997 -223.4339148 1
vertex 27.273012114822535 -226.0958458870351 1
vertex 27.429039636235814 -226.54651936162017 1
endloop
endfacet
facet normal 0 0 1
outer loop
vertex 103.07193359999997 -223.4339148 1
vertex 27.429039636235814 -226.54651936162017 1
vertex 27.660584401247036 -226.9634584338219 1
endloop
endfacet
facet normal 0 0 1
outer loop
vertex 103.07193359999997 -223.4339148 1
vertex 27.660584401247036 -226.9634584338219 1
vertex 27.960682426084446 -227.33412316592043 1
endloop
endfacet
facet normal 0 0 1
outer loop
vertex 103.07193359999997 -223.4339148 1
vertex 27.960682426084446 -227.33412316592043 1
vertex 28.320307906277776 -227.6473653759249 1
endloop
endfacet
facet normal 0 0 1
outer loop
vertex 103.07193359999997 -223.4339148 1
vertex 28.320307906277776 -227.6473653759249 1
vertex 28.72864467844738 -227.89376393238774 1
endloop
endfacet
facet normal 0 0 1
outer loop
vertex 103.07193359999997 -223.4339148 1
vertex 28.72864467844738 -227.89376393238774 1
vertex 29.173411529261116 -228.06590810611954 1
endloop
endfacet
facet normal 0 0 1
outer loop
vertex 103.07193359999997 -223.4339148 1
vertex 29.173411529261116 -228.06590810611954 1
vertex 29.6412315675112 -228.1586204566706 1
endloop
endfacet
facet normal 0 0 1
outer loop
vertex 103.07193359999997 -223.4339148 1
vertex 29.6412315675112 -228.1586204566706 1
vertex 30.118034549999606 -228.16911255000002 1
endloop
endfacet
facet normal 0 0 1
outer loop
vertex 190.47459585893537 -227.1441702883951 1
vertex 190.93719171350563 -227.04693500549996 1
vertex 191.37630121723979 -226.87191366784234 1
endloop
endfacet
facet normal 0 0 1
outer loop
vertex 190.47459585893537 -227.1441702883951 1
vertex 191.37630121723979 -226.87191366784234 1
vertex 191.77894997623383 -226.62427764100883 1
endloop
endfacet
facet normal 0 0 1
outer loop
vertex 190.47459585893537 -227.1441702883951 1
vertex 191.77894997623383 -226.62427764100883 1
vertex 192.13324090431695 -226.3113438410073 1
endloop
endfacet
facet normal 0 0 1
outer loop
vertex 190.47459585893537 -227.1441702883951 1
vertex 192.13324090431695 -226.3113438410073 1
vertex 192.42870574694513 -225.94235854092614 1
endloop
endfacet
facet normal 0 0 1
outer loop
vertex 190.47459585893537 -227.1441702883951 1
vertex 192.42870574694513 -225.94235854092614 1
vertex 192.65661438732405 -225.52822417076848 1
endloop
endfacet
facet normal 0 0 1
outer loop
vertex 190.47459585893537 -227.1441702883951 1
vertex 192.65661438732405 -225.52822417076848 1
vertex 192.81023279567464 -225.08117718272203 1
endloop
endfacet
facet normal 0 0 1
outer loop
vertex 190.47459585893537 -227.1441702883951 1
vertex 192.81023279567464 -225.08117718272203 1
vertex 192.885022 -224.6144265 1
endloop
endfacet
facet normal 0 0 1
outer loop
vertex 190.47459585893537 -227.1441702883951 1
vertex 192.885022 -224.6144265 1
vertex 192.97131511133506 -223.43170515000006 1
endloop
endfacet
facet normal 0 0 1
outer loop
vertex 190.47459585893537 -227.1441702883951 1
vertex 192.97131511133506 -223.43170515000006 1
vertex 116.91424770000116 -223.43170515000006 1
endloop
endfacet
facet normal 0 0 1
outer loop
vertex 190.47459585893537 -227.1441702883951 1
vertex 116.91424770000116 -223.43170515000006 1
vertex 190.0021839999996 -227.160743 1
endloop
endfacet
facet normal 0 0 1
outer loop
vertex 103.07193359999997 -223.4339148 1
vertex 103.16094496609037 -223.42958413769932 1
vertex 27.03701802175887 -223.42958413769932 1
endloop
endfacet
facet normal 0 0 1
outer loop
vertex 103.07193359999997 -223.4339148 1
vertex 27.03701802175887 -223.42958413769932 1
vertex 27.037333994562474 -223.4339148 1
endloop
endfacet
facet normal 0 0 1
outer loop
vertex 192.97131511133506 -223.43170515000006 1
vertex 192.9715101279117 -223.42903227999665 1
vertex 116.84421038496487 -223.42903227999665 1
endloop
endfacet
facet normal 0 0 1
outer loop
vertex 192.97131511133506 -223.43170515000006 1
vertex 116.84421038496487 -223.42903227999665 1
vertex 116.91424770000116 -223.43170515000006 1
endloop
endfacet
facet normal 0 0 1
outer loop
vertex 192.9715101279117 -223.42903227999665 1
vertex 192.97157520810083 -223.42814030000002 1
vertex 116.7741254000012 -223.42814030000002 1
endloop
endfacet
facet normal 0 0 1
outer loop
vertex 192.9715101279117 -223.42903227999665 1
vertex 116.7741254000012 -223.42814030000002 1
vertex 116.84421038496487 -223.42903227999665 1
endloop
endfacet
facet normal 0 0 1
outer loop
vertex 103.16094496609037 -223.42958413769932 1
vertex 103.25005179999742 -223.42813740000005 1
vertex 27.03691246520997 -223.42813740000005 1
endloop
endfacet
facet normal 0 0 1
outer loop
vertex 103.16094496609037 -223.42958413769932 1
vertex 27.03691246520997 -223.42813740000005 1
vertex 27.03701802175887 -223.42958413769932 1
endloop
endfacet
facet normal 0 0 1
outer loop
vertex 192.97157520810083 -223.42814030000002 1
vertex 103.25005179999742 -223.42813740000005 1
vertex 116.7741254000012 -223.42814030000002 1
endloop
endfacet
facet normal 0 0 1
outer loop
vertex 103.25005179999742 -223.42813740000005 1
vertex 192.97157520810083 -223.42814030000002 1
vertex 195.61507330000003 -187.19672409999953 1
endloop
endfacet
facet normal 0 0 1
outer loop
vertex 103.25005179999742 -223.42813740000005 1
vertex 195.61507330000003 -187.19672409999953 1
vertex 195.61819887488494 -186.84528932351458 1
endloop
endfacet
facet normal 0 0 1
outer loop
vertex 103.25005179999742 -223.42813740000005 1
vertex 195.61819887488494 -186.84528932351458 1
vertex 195.57647840149315 -186.49632276747715 1
endloop
endfacet
facet normal 0 0 1
outer loop
vertex 103.25005179999742 -223.42813740000005 1
vertex 195.57647840149315 -186.49632276747715 1
vertex 195.49059164999994 -186.15552704999973 1
endloop
endfacet
facet normal 0 0 1
outer loop
vertex 103.25005179999742 -223.42813740000005 1
vertex 195.49059164999994 -186.15552704999973 1
vertex 189.25766002552862 -166.75290955 1
endloop
endfacet
facet normal 0 0 1
outer loop
vertex 103.25005179999742 -223.42813740000005 1
vertex 189.25766002552862 -166.75290955 1
vertex 31.163942850000012 -166.75290955 1
endloop
endfacet
facet normal 0 0 1
outer loop
vertex 103.25005179999742 -223.42813740000005 1
vertex 31.163942850000012 -166.75290955 1
vertex 24.594361899999967 -187.20349600000011 1
endloop
endfacet
facet normal 0 0 1
outer loop
vertex 103.25005179999742 -223.42813740000005 1
vertex 24.594361899999967 -187.20349600000011 1
vertex 24.508472448020186 -187.54428784591946 1
endloop
endfacet
facet normal 0 0 1
outer loop
vertex 103.25005179999742 -223.42813740000005 1
vertex 24.508472448020186 -187.54428784591946 1
vertex 24.46674527042161 -187.89325441070366 1
endloop
endfacet
facet normal 0 0 1
outer loop
vertex 103.25005179999742 -223.42813740000005 1
vertex 24.46674527042161 -187.89325441070366 1
vertex 24.46986595 -188.24469300000013 1
endloop
endfacet
facet normal 0 0 1
outer loop
vertex 103.25005179999742 -223.42813740000005 1
vertex 24.46986595 -188.24469300000013 1
vertex 27.03691246520997 -223.42813740000005 1
endloop
endfacet
facet normal 0 0 1
outer loop
vertex 189.25766002552862 -166.75290955 1
vertex 189.15410760459775 -166.43055914804276 1
vertex 31.24635102895978 -166.43055914804276 1
endloop
endfacet
facet normal 0 0 1
outer loop
vertex 189.25766002552862 -166.75290955 1
vertex 31.24635102895978 -166.43055914804276 1
vertex 31.163942850000012 -166.75290955 1
endloop
endfacet
facet normal 0 0 1
outer loop
vertex 189.15410760459775 -166.43055914804276 1
vertex 189.04811604316865 -166.10061589685057 1
vertex 31.28922690322638 -166.10061589685057 1
endloop
endfacet
facet normal 0 0 1
outer loop
vertex 189.15410760459775 -166.43055914804276 1
vertex 31.28922690322638 -166.10061589685057 1
vertex 31.24635102895978 -166.43055914804276 1
endloop
endfacet
facet normal 0 0 1
outer loop
vertex 189.04811604316865 -166.10061589685057 1
vertex 188.94123671537864 -165.7679090999999 1
vertex 31.2919457 -165.7679090999999 1
endloop
endfacet
facet normal 0 0 1
outer loop
vertex 189.04811604316865 -166.10061589685057 1
vertex 31.2919457 -165.7679090999999 1
vertex 31.28922690322638 -166.10061589685057 1
endloop
endfacet
facet normal 0 0 1
outer loop
vertex 188.94123671537864 -165.7679090999999 1
vertex 188.92101129999966 -165.70494899999883 1
vertex 31.2886461030183 -165.70494899999883 1
endloop
endfacet
facet normal 0 0 1
outer loop
vertex 188.94123671537864 -165.7679090999999 1
vertex 31.2886461030183 -165.70494899999883 1
vertex 31.2919457 -165.7679090999999 1
endloop
endfacet
facet normal 0 0 1
outer loop
vertex 188.92101129999966 -165.70494899999883 1
vertex 188.83860071620592 -165.38259492499571 1
vertex 31.271752252263607 -165.38259492499571 1
endloop
endfacet
facet normal 0 0 1
outer loop
vertex 188.92101129999966 -165.70494899999883 1
vertex 31.271752252263607 -165.38259492499571 1
vertex 31.2886461030183 -165.70494899999883 1
endloop
endfacet
facet normal 0 0 1
outer loop
vertex 188.83860071620592 -165.38259492499571 1
vertex 188.7957181414819 -165.0526516653242 1
vertex 31.25446066944011 -165.0526516653242 1
endloop
endfacet
facet normal 0 0 1
outer loop
vertex 188.83860071620592 -165.38259492499571 1
vertex 31.25446066944011 -165.0526516653242 1
vertex 31.271752252263607 -165.38259492499571 1
endloop
endfacet
facet normal 0 0 1
outer loop
vertex 188.7957181414819 -165.0526516653242 1
vertex 188.79299565000002 -164.71994449999994 1
vertex 31.237024236548883 -164.71994449999994 1
endloop
endfacet
facet normal 0 0 1
outer loop
vertex 188.7957181414819 -165.0526516653242 1
vertex 31.237024236548883 -164.71994449999994 1
vertex 31.25446066944011 -165.0526516653242 1
endloop
endfacet
facet normal 0 0 1
outer loop
vertex 188.79299565000002 -164.71994449999994 1
vertex 194.219327 -61.179484400000206 1
vertex 194.2025951400976 -60.700422792061644 1
endloop
endfacet
facet normal 0 0 1
outer loop
vertex 188.79299565000002 -164.71994449999994 1
vertex 194.2025951400976 -60.700422792061644 1
vertex 194.10293229419366 -60.23154129090722 1
endloop
endfacet
facet normal 0 0 1
outer loop
vertex 188.79299565000002 -164.71994449999994 1
vertex 194.10293229419366 -60.23154129090722 1
vertex 193.9233631649159 -59.787089411859824 1
endloop
endfacet
facet normal 0 0 1
outer loop
vertex 188.79299565000002 -164.71994449999994 1
vertex 193.9233631649159 -59.787089411859824 1
vertex 193.6693438648627 -59.38057158915248 1
endloop
endfacet
facet normal 0 0 1
outer loop
vertex 188.79299565000002 -164.71994449999994 1
vertex 193.6693438648627 -59.38057158915248 1
vertex 193.34859263552 -59.02433965086823 1
endloop
endfacet
facet normal 0 0 1
outer loop
vertex 188.79299565000002 -164.71994449999994 1
vertex 193.34859263552 -59.02433965086823 1
vertex 192.97085533259516 -58.72921751520684 1
endloop
endfacet
facet normal 0 0 1
outer loop
vertex 188.79299565000002 -164.71994449999994 1
vertex 192.97085533259516 -58.72921751520684 1
vertex 192.76544721168008 -58.619999449999995 1
endloop
endfacet
facet normal 0 0 1
outer loop
vertex 188.79299565000002 -164.71994449999994 1
vertex 192.76544721168008 -58.619999449999995 1
vertex 42.15471105 -58.619999449999995 1
endloop
endfacet
facet normal 0 0 1
outer loop
vertex 188.79299565000002 -164.71994449999994 1
vertex 42.15471105 -58.619999449999995 1
vertex 28.46792730000007 -59.337294499999985 1
endloop
endfacet
facet normal 0 0 1
outer loop
vertex 188.79299565000002 -164.71994449999994 1
vertex 28.46792730000007 -59.337294499999985 1
vertex 27.993232496412276 -59.40400696864526 1
endloop
endfacet
facet normal 0 0 1
outer loop
vertex 188.79299565000002 -164.71994449999994 1
vertex 27.993232496412276 -59.40400696864526 1
vertex 27.53733784663291 -59.55213736147856 1
endloop
endfacet
facet normal 0 0 1
outer loop
vertex 188.79299565000002 -164.71994449999994 1
vertex 27.53733784663291 -59.55213736147856 1
vertex 27.114091817404827 -59.77718256520683 1
endloop
endfacet
facet normal 0 0 1
outer loop
vertex 188.79299565000002 -164.71994449999994 1
vertex 27.114091817404827 -59.77718256520683 1
vertex 26.736354514479913 -60.0723047008683 1
endloop
endfacet
facet normal 0 0 1
outer loop
vertex 188.79299565000002 -164.71994449999994 1
vertex 26.736354514479913 -60.0723047008683 1
vertex 26.415603285137394 -60.428536639152384 1
endloop
endfacet
facet normal 0 0 1
outer loop
vertex 188.79299565000002 -164.71994449999994 1
vertex 26.415603285137394 -60.428536639152384 1
vertex 26.161583985084093 -60.83505446185984 1
endloop
endfacet
facet normal 0 0 1
outer loop
vertex 188.79299565000002 -164.71994449999994 1
vertex 26.161583985084093 -60.83505446185984 1
vertex 25.982014855806312 -61.27950634090729 1
endloop
endfacet
facet normal 0 0 1
outer loop
vertex 188.79299565000002 -164.71994449999994 1
vertex 25.982014855806312 -61.27950634090729 1
vertex 25.882352009902405 -61.748387842061604 1
endloop
endfacet
facet normal 0 0 1
outer loop
vertex 188.79299565000002 -164.71994449999994 1
vertex 25.882352009902405 -61.748387842061604 1
vertex 25.865623650000003 -62.227452249999985 1
endloop
endfacet
facet normal 0 0 1
outer loop
vertex 188.79299565000002 -164.71994449999994 1
vertex 25.865623650000003 -62.227452249999985 1
vertex 31.237024236548883 -164.71994449999994 1
endloop
endfacet
facet normal 0 0 1
outer loop
vertex 192.76544721168008 -58.619999449999995 1
vertex 192.7569716318785 -58.61549287828652 1
vertex 42.22397895526302 -58.61549287828652 1
endloop
endfacet
facet normal 0 0 1
outer loop
vertex 192.76544721168008 -58.619999449999995 1
vertex 42.22397895526302 -58.61549287828652 1
vertex 42.15471105 -58.619999449999995 1
endloop
endfacet
facet normal 0 0 1
outer loop
vertex 192.7569716318785 -58.61549287828652 1
vertex 192.74520967724533 -58.60923889999995 1
vertex 42.293112100000656 -58.60923889999995 1
endloop
endfacet
facet normal 0 0 1
outer loop
vertex 192.7569716318785 -58.61549287828652 1
vertex 42.293112100000656 -58.60923889999995 1
vertex 42.22397895526302 -58.61549287828652 1
endloop
endfacet
facet normal 0 0 1
outer loop
vertex 192.74520967724533 -58.60923889999995 1
vertex 192.54760930336707 -58.50417231147857 1
vertex 192.09171465358784 -58.3560419186453 1
endloop
endfacet
facet normal 0 0 1
outer loop
vertex 192.74520967724533 -58.60923889999995 1
vertex 192.09171465358784 -58.3560419186453 1
vertex 191.61702349999996 -58.2893272 1
endloop
endfacet
facet normal 0 0 1
outer loop
vertex 192.74520967724533 -58.60923889999995 1
vertex 191.61702349999996 -58.2893272 1
vertex 177.90923109999997 -57.5709344 1
endloop
endfacet
facet normal 0 0 1
outer loop
vertex 192.74520967724533 -58.60923889999995 1
vertex 177.90923109999997 -57.5709344 1
vertex 52.3533958898704 -57.5709344 1
endloop
endfacet
facet normal 0 0 1
outer loop
vertex 192.74520967724533 -58.60923889999995 1
vertex 52.3533958898704 -57.5709344 1
vertex 42.293112100000656 -58.60923889999995 1
endloop
endfacet
facet normal 0 0 1
outer loop
vertex 177.90923109999997 -57.5709344 1
vertex 177.86092580482122 -57.567977080833344 1
vertex 52.3820497867511 -57.567977080833344 1
endloop
endfacet
facet normal 0 0 1
outer loop
vertex 177.90923109999997 -57.5709344 1
vertex 52.3820497867511 -57.567977080833344 1
vertex 52.3533958898704 -57.5709344 1
endloop
endfacet
facet normal 0 0 1
outer loop
vertex 177.86092580482122 -57.567977080833344 1
vertex 177.81267554999982 -57.56417219999997 1
vertex 52.418915832280476 -57.56417219999997 1
endloop
endfacet
facet normal 0 0 1
outer loop
vertex 177.86092580482122 -57.567977080833344 1
vertex 52.418915832280476 -57.56417219999997 1
vertex 52.3820497867511 -57.567977080833344 1
endloop
endfacet
facet normal 0 0 1
outer loop
vertex 177.81267554999982 -57.56417219999997 1
vertex 155.06388120000275 -55.56725400000022 1
vertex 155.0299214615754 -55.56448646236082 1
endloop
endfacet
facet normal 0 0 1
outer loop
vertex 177.81267554999982 -57.56417219999997 1
vertex 155.0299214615754 -55.56448646236082 1
vertex 154.9959256000015 -55.56213700000009 1
endloop
endfacet
facet normal 0 0 1
outer loop
vertex 177.81267554999982 -57.56417219999997 1
vertex 154.9959256000015 -55.56213700000009 1
vertex 132.55083589999842 -54.15123899999989 1
endloop
endfacet
facet normal 0 0 1
outer loop
vertex 177.81267554999982 -57.56417219999997 1
vertex 132.55083589999842 -54.15123899999989 1
vertex 132.52687857795627 -54.1498399683654 1
endloop
endfacet
facet normal 0 0 1
outer loop
vertex 177.81267554999982 -57.56417219999997 1
vertex 132.52687857795627 -54.1498399683654 1
vertex 132.50291294999863 -54.148654499999935 1
endloop
endfacet
facet normal 0 0 1
outer loop
vertex 177.81267554999982 -57.56417219999997 1
vertex 132.50291294999863 -54.148654499999935 1
vertex 110.1485616000002 -53.1347619 1
endloop
endfacet
facet normal 0 0 1
outer loop
vertex 177.81267554999982 -57.56417219999997 1
vertex 110.1485616000002 -53.1347619 1
vertex 110.00259579392193 -53.132020651740504 1
endloop
endfacet
facet normal 0 0 1
outer loop
vertex 177.81267554999982 -57.56417219999997 1
vertex 110.00259579392193 -53.132020651740504 1
vertex 109.85668579999987 -53.13702595000001 1
endloop
endfacet
facet normal 0 0 1
outer loop
vertex 177.81267554999982 -57.56417219999997 1
vertex 109.85668579999987 -53.13702595000001 1
vertex 87.52271609999927 -54.498041700000044 1
endloop
endfacet
facet normal 0 0 1
outer loop
vertex 177.81267554999982 -57.56417219999997 1
vertex 87.52271609999927 -54.498041700000044 1
vertex 87.49877076314274 -54.49960639049158 1
endloop
endfacet
facet normal 0 0 1
outer loop
vertex 177.81267554999982 -57.56417219999997 1
vertex 87.49877076314274 -54.49960639049158 1
vertex 87.47483804999908 -54.501380850000075 1
endloop
endfacet
facet normal 0 0 1
outer loop
vertex 177.81267554999982 -57.56417219999997 1
vertex 87.47483804999908 -54.501380850000075 1
vertex 65.05593149999743 -56.2607615000002 1
endloop
endfacet
facet normal 0 0 1
outer loop
vertex 177.81267554999982 -57.56417219999997 1
vertex 65.05593149999743 -56.2607615000002 1
vertex 65.0223270454851 -56.26360475501613 1
endloop
endfacet
facet normal 0 0 1
outer loop
vertex 177.81267554999982 -57.56417219999997 1
vertex 65.0223270454851 -56.26360475501613 1
vertex 64.98875574999875 -56.266860750000134 1
endloop
endfacet
facet normal 0 0 1
outer loop
vertex 177.81267554999982 -57.56417219999997 1
vertex 64.98875574999875 -56.266860750000134 1
vertex 52.418915832280476 -57.56417219999997 1
endloop
endfacet
facet normal 0 0 1
outer loop
vertex 27.19719909999995 -225.62499509999975 1
vertex 27.037333994562474 -223.4339148 1
vertex 27.03701802175887 -223.42958413769932 1
endloop
endfacet
facet normal 0 0 1
outer loop
vertex 27.19719909999995 -225.62499509999975 1
vertex 27.03701802175887 -223.42958413769932 1
vertex 27.03691246520997 -223.42813740000005 1
endloop
endfacet
facet normal 0 0 1
outer loop
vertex 27.19719909999995 -225.62499509999975 1
vertex 27.03691246520997 -223.42813740000005 1
vertex 24.46986595 -188.24469300000013 1
endloop
endfacet
facet normal 0 0 1
outer loop
vertex 27.19719909999995 -225.62499509999975 1
vertex 24.46986595 -188.24469300000013 1
vertex 24.46986595 -188.24469299999996 0
endloop
endfacet
facet normal 0 0 1
outer loop
vertex 27.19719909999995 -225.62499509999975 1
vertex 24.46986595 -188.24469299999996 0
vertex 27.036912465209998 -223.4281374 0
endloop
endfacet
facet normal 0 0 1
outer loop
vertex 27.19719909999995 -225.62499509999975 1
vertex 27.036912465209998 -223.4281374 0
vertex 27.037018021758904 -223.42958413769935 0
endloop
endfacet
facet normal 0 0 1
outer loop
vertex 27.19719909999995 -225.62499509999975 1
vertex 27.037018021758904 -223.42958413769935 0
vertex 27.0373339945625 -223.4339147999999 0
endloop
endfacet
facet normal 0 0 1
outer loop
vertex 27.19719909999995 -225.62499509999975 1
vertex 27.0373339945625 -223.4339147999999 0
vertex 27.197199100000006 -225.62499510000004 0
endloop
endfacet
facet normal -0.9872841529262701 -0.1589654093841091 0
outer loop
vertex 27.273012114822535 -226.0958458870351 1
vertex 27.19719909999995 -225.62499509999975 1
vertex 27.197199100000006 -225.62499510000004 0
endloop
endfacet
facet normal -0.9872841529262701 -0.1589654093841091 0
outer loop
vertex 27.273012114822535 -226.0958458870351 1
vertex 27.197199100000006 -225.62499510000004 0
vertex 27.273012114822535 -226.0958458870351 0
endloop
endfacet
facet normal -0.9449697616696662 -0.32715768297561704 0
outer loop
vertex 27.429039636235814 -226.54651936162017 1
vertex 27.273012114822535 -226.0958458870351 1
vertex 27.273012114822535 -226.0958458870351 0
endloop
endfacet
facet normal -0.9449697616696662 -0.32715768297561704 0
outer loop
vertex 27.429039636235814 -226.54651936162017 1
vertex 27.273012114822535 -226.0958458870351 0
vertex 27.429039636235842 -226.54651936162026 0
endloop
endfacet
facet normal -0.8742356448920136 -0.4855018405734887 0
outer loop
vertex 27.660584401247036 -226.9634584338219 1
vertex 27.429039636235814 -226.54651936162017 1
vertex 27.429039636235842 -226.54651936162026 0
endloop
endfacet
facet normal -0.8742356448920136 -0.4855018405734887 0
outer loop
vertex 27.660584401247036 -226.9634584338219 1
vertex 27.429039636235842 -226.54651936162026 0
vertex 27.660584401247064 -226.963458433822 0
endloop
endfacet
facet normal -0.7772078529204641 -0.629243953772114 0
outer loop
vertex 27.960682426084446 -227.33412316592043 1
vertex 27.660584401247036 -226.9634584338219 1
vertex 27.660584401247064 -226.963458433822 0
endloop
endfacet
facet normal -0.7772078529204641 -0.629243953772114 0
outer loop
vertex 27.960682426084446 -227.33412316592043 1
vertex 27.660584401247064 -226.963458433822 0
vertex 27.960682426084233 -227.33412316592023 0
endloop
endfacet
facet normal -0.65680461182114 -0.7540608078202193 0
outer loop
vertex 28.320307906277776 -227.6473653759249 1
vertex 27.960682426084446 -227.33412316592043 1
vertex 27.960682426084233 -227.33412316592023 0
endloop
endfacet
facet normal -0.65680461182114 -0.7540608078202193 0
outer loop
vertex 28.320307906277776 -227.6473653759249 1
vertex 27.960682426084233 -227.33412316592023 0
vertex 28.320307906277847 -227.64736537592495 0
endloop
endfacet
facet normal -0.516647192051524 -0.8561983876095981 0
outer loop
vertex 28.72864467844738 -227.89376393238774 1
vertex 28.320307906277776 -227.6473653759249 1
vertex 28.320307906277847 -227.64736537592495 0
endloop
endfacet
facet normal -0.516647192051524 -0.8561983876095981 0
outer loop
vertex 28.72864467844738 -227.89376393238774 1
vertex 28.320307906277847 -227.64736537592495 0
vertex 28.72864467844741 -227.89376393238777 0
endloop
endfacet
facet normal -0.3609509944512851 -0.9325847841374147 0
outer loop
vertex 29.173411529261116 -228.06590810611954 1
vertex 28.72864467844738 -227.89376393238774 1
vertex 28.72864467844741 -227.89376393238777 0
endloop
endfacet
facet normal -0.3609509944512851 -0.9325847841374147 0
outer loop
vertex 29.173411529261116 -228.06590810611954 1
vertex 28.72864467844741 -227.89376393238777 0
vertex 29.17341152926093 -228.06590810611948 0
endloop
endfacet
facet normal -0.19439876705570278 -0.9809225858176692 0
outer loop
vertex 29.6412315675112 -228.1586204566706 1
vertex 29.173411529261116 -228.06590810611954 1
vertex 29.17341152926093 -228.06590810611948 0
endloop
endfacet
facet normal -0.19439876705570278 -0.9809225858176692 0
outer loop
vertex 29.6412315675112 -228.1586204566706 1
vertex 29.17341152926093 -228.06590810611948 0
vertex 29.641231567511255 -228.15862045667058 0
endloop
endfacet
facet normal -0.021999765888267565 -0.9997579758625892 0
outer loop
vertex 30.118034549999606 -228.16911255000002 1
vertex 29.6412315675112 -228.1586204566706 1
vertex 29.641231567511255 -228.15862045667058 0
endloop
endfacet
facet normal -0.021999765888267565 -0.9997579758625892 0
outer loop
vertex 30.118034549999606 -228.16911255000002 1
vertex 29.641231567511255 -228.15862045667058 0
vertex 30.11803454999996 -228.16911255 0
endloop
endfacet
facet normal 0.06477042082701702 -0.9979001916954877 0
outer loop
vertex 103.07193359999997 -223.4339148 1
vertex 30.118034549999606 -228.16911255000002 1
vertex 30.11803454999996 -228.16911255 0
endloop
endfacet
facet normal 0.06477042082701702 -0.9979001916954877 0
outer loop
vertex 103.07193359999997 -223.4339148 1
vertex 30.11803454999996 -228.16911255 0
vertex 103.07193360000096 -223.4339147999999 0
endloop
endfacet
facet normal 0.048595432291108444 -0.9988185440611524 0
outer loop
vertex 103.16094496609037 -223.42958413769932 1
vertex 103.07193359999997 -223.4339148 1
vertex 103.07193360000096 -223.4339147999999 0
endloop
endfacet
facet normal 0.048595432291108444 -0.9988185440611524 0
outer loop
vertex 103.16094496609037 -223.42958413769932 1
vertex 103.07193360000096 -223.4339147999999 0
vertex 103.16094496608886 -223.42958413769935 0
endloop
endfacet
facet normal 0.016233850852586332 -0.9998682223605749 0
outer loop
vertex 103.25005179999742 -223.42813740000005 1
vertex 103.16094496609037 -223.42958413769932 1
vertex 103.16094496608886 -223.42958413769935 0
endloop
endfacet
facet normal 0.016233850852586332 -0.9998682223605749 0
outer loop
vertex 103.25005179999742 -223.42813740000005 1
vertex 103.16094496608886 -223.42958413769935 0
vertex 103.25005180000065 -223.4281374 0
endloop
endfacet
facet normal -2.1443241848828615e-7 -0.999999999999977 0
outer loop
vertex 116.7741254000012 -223.42814030000002 1
vertex 103.25005179999742 -223.42813740000005 1
vertex 103.25005180000065 -223.4281374 0
endloop
endfacet
facet normal -2.1443241848828615e-7 -0.999999999999977 0
outer loop
vertex 116.7741254000012 -223.42814030000002 1
vertex 103.25005180000065 -223.4281374 0
vertex 116.77412540765087 -223.42814029999997 0
endloop
endfacet
facet normal -0.012726089112817363 -0.9999190200490702 0
outer loop
vertex 116.84421038496487 -223.42903227999665 1
vertex 116.7741254000012 -223.42814030000002 1
vertex 116.77412540765087 -223.42814029999997 0
endloop
endfacet
facet normal -0.012726089112817363 -0.9999190200490702 0
outer loop
vertex 116.84421038496487 -223.42903227999665 1
vertex 116.77412540765087 -223.42814029999997 0
vertex 116.84421038496451 -223.42903227999662 0
endloop
endfacet
facet normal -0.03813575191844619 -0.9992725676338838 0
outer loop
vertex 116.91424770000116 -223.43170515000006 1
vertex 116.84421038496487 -223.42903227999665 1
vertex 116.84421038496451 -223.42903227999662 0
endloop
endfacet
facet normal -0.03813575191844619 -0.9992725676338838 0
outer loop
vertex 116.91424770000116 -223.43170515000006 1
vertex 116.84421038496451 -223.42903227999662 0
vertex 116.91424770000123 -223.43170515000006 0
endloop
endfacet
facet normal -0.05095497066034227 -0.9987009517192842 0
outer loop
vertex 190.0021839999996 -227.160743 1
vertex 116.91424770000116 -223.43170515000006 1
vertex 116.91424770000123 -223.43170515000006 0
endloop
endfacet
facet normal -0.05095497066034227 -0.9987009517192842 0
outer loop
vertex 190.0021839999996 -227.160743 1
vertex 116.91424770000123 -223.43170515000006 0
vertex 190.0021839999996 -227.160743 0
endloop
endfacet
facet normal 0.0350594991054436 -0.9993852267881869 0
outer loop
vertex 190.47459585893537 -227.1441702883951 1
vertex 190.0021839999996 -227.160743 1
vertex 190.0021839999996 -227.160743 0
endloop
endfacet
facet normal 0.0350594991054436 -0.9993852267881869 0
outer loop
vertex 190.47459585893537 -227.1441702883951 1
vertex 190.0021839999996 -227.160743 0
vertex 190.47459585893517 -227.14417028839512 0
endloop
endfacet
facet normal 0.2056998936156168 -0.9786151203443181 0
outer loop
vertex 190.93719171350563 -227.04693500549996 1
vertex 190.47459585893537 -227.1441702883951 1
vertex 190.47459585893517 -227.14417028839512 0
endloop
endfacet
facet normal 0.2056998936156168 -0.9786151203443181 0
outer loop
vertex 190.93719171350563 -227.04693500549996 1
vertex 190.47459585893517 -227.14417028839512 0
vertex 190.93719171350548 -227.0469350055 0
endloop
endfacet
facet normal 0.37025521461669253 -0.9289300705915096 0
outer loop
vertex 191.37630121723979 -226.87191366784234 1
vertex 190.93719171350563 -227.04693500549996 1
vertex 190.93719171350548 -227.0469350055 0
endloop
endfacet
facet normal 0.37025521461669253 -0.9289300705915096 0
outer loop
vertex 191.37630121723979 -226.87191366784234 1
vertex 190.93719171350548 -227.0469350055 0
vertex 191.37630121723998 -226.87191366784222 0
endloop
endfacet
facet normal 0.5238705833764316 -0.851797870314805 0
outer loop
vertex 191.77894997623383 -226.62427764100883 1
vertex 191.37630121723979 -226.87191366784234 1
vertex 191.37630121723998 -226.87191366784222 0
endloop
endfacet
facet normal 0.5238705833764316 -0.851797870314805 0
outer loop
vertex 191.77894997623383 -226.62427764100883 1
vertex 191.37630121723998 -226.87191366784222 0
vertex 191.77894997623395 -226.62427764100877 0
endloop
endfacet
facet normal 0.6620071177091482 -0.7494975490970108 0
outer loop
vertex 192.13324090431695 -226.3113438410073 1
vertex 191.77894997623383 -226.62427764100883 1
vertex 191.77894997623395 -226.62427764100877 0
endloop
endfacet
facet normal 0.6620071177091482 -0.7494975490970108 0
outer loop
vertex 192.13324090431695 -226.3113438410073 1
vertex 191.77894997623395 -226.62427764100877 0
vertex 192.13324090431678 -226.31134384100744 0
endloop
endfacet
facet normal 0.7805832894453032 -0.6250517804460285 0
outer loop
vertex 192.42870574694513 -225.94235854092614 1
vertex 192.13324090431695 -226.3113438410073 1
vertex 192.13324090431678 -226.31134384100744 0
endloop
endfacet
facet normal 0.7805832894453032 -0.6250517804460285 0
outer loop
vertex 192.42870574694513 -225.94235854092614 1
vertex 192.13324090431678 -226.31134384100744 0
vertex 192.4287057469451 -225.9423585409262 0
endloop
endfacet
facet normal 0.8760955215802195 -0.48213757068608865 0
outer loop
vertex 192.65661438732405 -225.52822417076848 1
vertex 192.42870574694513 -225.94235854092614 1
vertex 192.4287057469451 -225.9423585409262 0
endloop
endfacet
facet normal 0.8760955215802195 -0.48213757068608865 0
outer loop
vertex 192.65661438732405 -225.52822417076848 1
vertex 192.4287057469451 -225.9423585409262 0
vertex 192.65661438732397 -225.52822417076865 0
endloop
endfacet
facet normal 0.9457217086667923 -0.3249776142388317 0
outer loop
vertex 192.81023279567464 -225.08117718272203 1
vertex 192.65661438732405 -225.52822417076848 1
vertex 192.65661438732397 -225.52822417076865 0
endloop
endfacet
facet normal 0.9457217086667923 -0.3249776142388317 0
outer loop
vertex 192.81023279567464 -225.08117718272203 1
vertex 192.65661438732397 -225.52822417076865 0
vertex 192.8102327956747 -225.08117718272177 0
endloop
endfacet
facet normal 0.9874046017280637 -0.15821552542732278 0
outer loop
vertex 192.885022 -224.6144265 1
vertex 192.81023279567464 -225.08117718272203 1
vertex 192.8102327956747 -225.08117718272177 0
endloop
endfacet
facet normal 0.9874046017280637 -0.15821552542732278 0
outer loop
vertex 192.885022 -224.6144265 1
vertex 192.8102327956747 -225.08117718272177 0
vertex 192.88502200000002 -224.61442649999978 0
endloop
endfacet
facet normal 0 0 1
outer loop
vertex 195.61507330000003 -187.19672409999953 1
vertex 192.97157520810083 -223.42814030000002 1
vertex 192.9715101279117 -223.42903227999665 1
endloop
endfacet
facet normal 0 0 1
outer loop
vertex 195.61507330000003 -187.19672409999953 1
vertex 192.9715101279117 -223.42903227999665 1
vertex 192.97131511133506 -223.43170515000006 1
endloop
endfacet
facet normal 0 0 1
outer loop
vertex 195.61507330000003 -187.19672409999953 1
vertex 192.97131511133506 -223.43170515000006 1
vertex 192.885022 -224.6144265 1
endloop
endfacet
facet normal 0 0 1
outer loop
vertex 195.61507330000003 -187.19672409999953 1
vertex 192.885022 -224.6144265 1
vertex 192.88502200000002 -224.61442649999978 0
endloop
endfacet
facet normal 0 0 1
outer loop
vertex 195.61507330000003 -187.19672409999953 1
vertex 192.88502200000002 -224.61442649999978 0
vertex 192.97131511133506 -223.43170515000006 0
endloop
endfacet
facet normal 0 0 1
outer loop
vertex 195.61507330000003 -187.19672409999953 1
vertex 192.97131511133506 -223.43170515000006 0
vertex 192.9715101279117 -223.42903227999662 0
endloop
endfacet
facet normal 0 0 1
outer loop
vertex 195.61507330000003 -187.19672409999953 1
vertex 192.9715101279117 -223.42903227999662 0
vertex 192.97157541968912 -223.4281374 0
endloop
endfacet
facet normal 0 0 1
outer loop
vertex 195.61507330000003 -187.19672409999953 1
vertex 192.97157541968912 -223.4281374 0
vertex 195.6150733 -187.19672410000007 0
endloop
endfacet
facet normal 0.9999604529049478 -0.008893403517873823 0
outer loop
vertex 195.61819887488494 -186.84528932351458 1
vertex 195.61507330000003 -187.19672409999953 1
vertex 195.6150733 -187.19672410000007 0
endloop
endfacet
facet normal 0.9999604529049478 -0.008893403517873823 0
outer loop
vertex 195.61819887488494 -186.84528932351458 1
vertex 195.6150733 -187.19672410000007 0
vertex 195.6181988748849 -186.84528932351446 0
endloop
endfacet
facet normal 0.9929290875281245 0.11870900193568436 0
outer loop
vertex 195.57647840149315 -186.49632276747715 1
vertex 195.61819887488494 -186.84528932351458 1
vertex 195.6181988748849 -186.84528932351446 0
endloop
endfacet
facet normal 0.9929290875281245 0.11870900193568436 0
outer loop
vertex 195.57647840149315 -186.49632276747715 1
vertex 195.6181988748849 -186.84528932351446 0
vertex 195.57647840149312 -186.49632276747698 0
endloop
endfacet
facet normal 0.9696802599948074 0.24437715395757145 0
outer loop
vertex 195.49059164999994 -186.15552704999973 1
vertex 195.57647840149315 -186.49632276747715 1
vertex 195.57647840149312 -186.49632276747698 0
endloop
endfacet
facet normal 0.9696802599948074 0.24437715395757145 0
outer loop
vertex 195.49059164999994 -186.15552704999973 1
vertex 195.57647840149312 -186.49632276747698 0
vertex 195.49059165000003 -186.1555270500001 0
endloop
endfacet
facet normal 0 0 -1
outer loop
vertex 188.92101129999966 -165.70494899999883 1
vertex 188.94123671537864 -165.7679090999999 1
vertex 189.04811604316865 -166.10061589685057 1
endloop
endfacet
facet normal 0 0 -1
outer loop
vertex 188.92101129999966 -165.70494899999883 1
vertex 189.04811604316865 -166.10061589685057 1
vertex 189.15410760459775 -166.43055914804276 1
endloop
endfacet
facet normal 0 0 -1
outer loop
vertex 188.92101129999966 -165.70494899999883 1
vertex 189.15410760459775 -166.43055914804276 1
vertex 189.25766002552862 -166.75290955 1
endloop
endfacet
facet normal 0 0 -1
outer loop
vertex 188.92101129999966 -165.70494899999883 1
vertex 189.25766002552862 -166.75290955 1
vertex 195.49059164999994 -186.15552704999973 1
endloop
endfacet
facet normal 0 0 -1
outer loop
vertex 188.92101129999966 -165.70494899999883 1
vertex 195.49059164999994 -186.15552704999973 1
vertex 195.49059165000003 -186.1555270500001 0
endloop
endfacet
facet normal 0 0 -1
outer loop
vertex 188.92101129999966 -165.70494899999883 1
vertex 195.49059165000003 -186.1555270500001 0
vertex 189.25766002552868 -166.75290955000025 0
endloop
endfacet
facet normal 0 0 -1
outer loop
vertex 188.92101129999966 -165.70494899999883 1
vertex 189.25766002552868 -166.75290955000025 0
vertex 189.15410760459775 -166.43055914804282 0
endloop
endfacet
facet normal 0 0 -1
outer loop
vertex 188.92101129999966 -165.70494899999883 1
vertex 189.15410760459775 -166.43055914804282 0
vertex 189.0481160431686 -166.10061589685048 0
endloop
endfacet
facet normal 0 0 -1
outer loop
vertex 188.92101129999966 -165.70494899999883 1
vertex 189.0481160431686 -166.10061589685048 0
vertex 188.9412367153786 -165.76790909999997 0
endloop
endfacet
facet normal 0 0 -1
outer loop
vertex 188.92101129999966 -165.70494899999883 1
vertex 188.9412367153786 -165.76790909999997 0
vertex 188.92101129999975 -165.70494899999923 0
endloop
endfacet
facet normal 0.9688402805011812 0.2476863154847132 0
outer loop
vertex 188.83860071620592 -165.38259492499571 1
vertex 188.92101129999966 -165.70494899999883 1
vertex 188.92101129999975 -165.70494899999923 0
endloop
endfacet
facet normal 0.9688402805011812 0.2476863154847132 0
outer loop
vertex 188.83860071620592 -165.38259492499571 1
vertex 188.92101129999975 -165.70494899999923 0
vertex 188.83860071620597 -165.38259492499603 0
endloop
endfacet
facet normal 0.9916594780130892 0.1288855293149991 0
outer loop
vertex 188.7957181414819 -165.0526516653242 1
vertex 188.83860071620592 -165.38259492499571 1
vertex 188.83860071620597 -165.38259492499603 0
endloop
endfacet
facet normal 0.9916594780130892 0.1288855293149991 0
outer loop
vertex 188.7957181414819 -165.0526516653242 1
vertex 188.83860071620597 -165.38259492499603 0
vertex 188.7957181414819 -165.05265166532408 0
endloop
endfacet
facet normal 0.999966522197261 0.008182572010980493 0
outer loop
vertex 188.79299565000002 -164.71994449999994 1
vertex 188.7957181414819 -165.0526516653242 1
vertex 188.7957181414819 -165.05265166532408 0
endloop
endfacet
facet normal 0.999966522197261 0.008182572010980493 0
outer loop
vertex 188.79299565000002 -164.71994449999994 1
vertex 188.7957181414819 -165.05265166532408 0
vertex 188.79299565000002 -164.71994450000005 0
endloop
endfacet
facet normal 0.998629531845926 -0.052336011743221854 0
outer loop
vertex 194.219327 -61.179484400000206 1
vertex 188.79299565000002 -164.71994449999994 1
vertex 188.79299565000002 -164.71994450000005 0
endloop
endfacet
facet normal 0.998629531845926 -0.052336011743221854 0
outer loop
vertex 194.219327 -61.179484400000206 1
vertex 188.79299565000002 -164.71994450000005 0
vertex 194.219327 -61.17948440000008 0
endloop
endfacet
facet normal 0.9993906334654465 0.03490503891322306 0
outer loop
vertex 194.2025951400976 -60.700422792061644 1
vertex 194.219327 -61.179484400000206 1
vertex 194.219327 -61.17948440000008 0
endloop
endfacet
facet normal 0.9993906334654465 0.03490503891322306 0
outer loop
vertex 194.2025951400976 -60.700422792061644 1
vertex 194.219327 -61.17948440000008 0
vertex 194.2025951400976 -60.700422792061616 0
endloop
endfacet
facet normal 0.9781480223594415 0.2079097072152081 0
outer loop
vertex 194.10293229419366 -60.23154129090722 1
vertex 194.2025951400976 -60.700422792061644 1
vertex 194.2025951400976 -60.700422792061616 0
endloop
endfacet
facet normal 0.9781480223594415 0.2079097072152081 0
outer loop
vertex 194.10293229419366 -60.23154129090722 1
vertex 194.2025951400976 -60.700422792061616 0
vertex 194.1029322941937 -60.23154129090727 0
endloop
endfacet
facet normal 0.927184641436988 0.3746046458379341 0
outer loop
vertex 193.9233631649159 -59.787089411859824 1
vertex 194.10293229419366 -60.23154129090722 1
vertex 194.1029322941937 -60.23154129090727 0
endloop
endfacet
facet normal 0.927184641436988 0.3746046458379341 0
outer loop
vertex 193.9233631649159 -59.787089411859824 1
vertex 194.1029322941937 -60.23154129090727 0
vertex 193.92336316491594 -59.78708941185991 0
endloop
endfacet
facet normal 0.8480492477443873 0.5299174213027714 0
outer loop
vertex 193.6693438648627 -59.38057158915248 1
vertex 193.9233631649159 -59.787089411859824 1
vertex 193.92336316491594 -59.78708941185991 0
endloop
endfacet
facet normal 0.8480492477443873 0.5299174213027714 0
outer loop
vertex 193.6693438648627 -59.38057158915248 1
vertex 193.92336316491594 -59.78708941185991 0
vertex 193.66934386486258 -59.38057158915235 0
endloop
endfacet
facet normal 0.743146328178941 0.6691289374359458 0
outer loop
vertex 193.34859263552 -59.02433965086823 1
vertex 193.6693438648627 -59.38057158915248 1
vertex 193.66934386486258 -59.38057158915235 0
endloop
endfacet
facet normal 0.743146328178941 0.6691289374359458 0
outer loop
vertex 193.34859263552 -59.02433965086823 1
vertex 193.66934386486258 -59.38057158915235 0
vertex 193.34859263552008 -59.02433965086831 0
endloop
endfacet
facet normal 0.6156633022226212 0.7880093262749733 0
outer loop
vertex 192.97085533259516 -58.72921751520684 1
vertex 193.34859263552 -59.02433965086823 1
vertex 193.34859263552008 -59.02433965086831 0
endloop
endfacet
facet normal 0.6156633022226212 0.7880093262749733 0
outer loop
vertex 192.97085533259516 -58.72921751520684 1
vertex 193.34859263552008 -59.02433965086831 0
vertex 192.9708553325951 -58.7292175152068 0
endloop
endfacet
facet normal 0 0 1
outer loop
vertex 192.54760930336707 -58.50417231147857 1
vertex 192.74520967724533 -58.60923889999995 1
vertex 192.7569716318785 -58.61549287828652 1
endloop
endfacet
facet normal 0 0 1
outer loop
vertex 192.54760930336707 -58.50417231147857 1
vertex 192.7569716318785 -58.61549287828652 1
vertex 192.76544721168008 -58.619999449999995 1
endloop
endfacet
facet normal 0 0 1
outer loop
vertex 192.54760930336707 -58.50417231147857 1
vertex 192.76544721168008 -58.619999449999995 1
vertex 192.97085533259516 -58.72921751520684 1
endloop
endfacet
facet normal 0 0 1
outer loop
vertex 192.54760930336707 -58.50417231147857 1
vertex 192.97085533259516 -58.72921751520684 1
vertex 192.9708553325951 -58.7292175152068 0
endloop
endfacet
facet normal 0 0 1
outer loop
vertex 192.54760930336707 -58.50417231147857 1
vertex 192.9708553325951 -58.7292175152068 0
vertex 192.7654472116801 -58.619999449999995 0
endloop
endfacet
facet normal 0 0 1
outer loop
vertex 192.54760930336707 -58.50417231147857 1
vertex 192.7654472116801 -58.619999449999995 0
vertex 192.75697163187854 -58.61549287828652 0
endloop
endfacet
facet normal 0 0 1
outer loop
vertex 192.54760930336707 -58.50417231147857 1
vertex 192.75697163187854 -58.61549287828652 0
vertex 192.7452096772455 -58.60923890000004 0
endloop
endfacet
facet normal 0 0 1
outer loop
vertex 192.54760930336707 -58.50417231147857 1
vertex 192.7452096772455 -58.60923890000004 0
vertex 192.5476093033671 -58.504172311478584 0
endloop
endfacet
facet normal 0.30901933739019416 0.9510557550001606 0
outer loop
vertex 192.09171465358784 -58.3560419186453 1
vertex 192.54760930336707 -58.50417231147857 1
vertex 192.5476093033671 -58.504172311478584 0
endloop
endfacet
facet normal 0.30901933739019416 0.9510557550001606 0
outer loop
vertex 192.09171465358784 -58.3560419186453 1
vertex 192.5476093033671 -58.504172311478584 0
vertex 192.0917146535878 -58.35604191864529 0
endloop
endfacet
facet normal 0.1391756124831005 0.990267715766779 0
outer loop
vertex 191.61702349999996 -58.2893272 1
vertex 192.09171465358784 -58.3560419186453 1
vertex 192.0917146535878 -58.35604191864529 0
endloop
endfacet
facet normal 0.1391756124831005 0.990267715766779 0
outer loop
vertex 191.61702349999996 -58.2893272 1
vertex 192.0917146535878 -58.35604191864529 0
vertex 191.61702350000004 -58.2893272 0
endloop
endfacet
facet normal 0.05233579942014899 0.9986295429732961 0
outer loop
vertex 177.90923109999997 -57.5709344 1
vertex 191.61702349999996 -58.2893272 1
vertex 191.61702350000004 -58.2893272 0
endloop
endfacet
facet normal 0.05233579942014899 0.9986295429732961 0
outer loop
vertex 177.90923109999997 -57.5709344 1
vertex 191.61702350000004 -58.2893272 0
vertex 177.90923110000367 -57.570934400000226 0
endloop
endfacet
facet normal 0.06110701894405679 0.9981312199484449 0
outer loop
vertex 177.86092580482122 -57.567977080833344 1
vertex 177.90923109999997 -57.5709344 1
vertex 177.90923110000367 -57.570934400000226 0
endloop
endfacet
facet normal 0.06110701894405679 0.9981312199484449 0
outer loop
vertex 177.86092580482122 -57.567977080833344 1
vertex 177.90923110000367 -57.570934400000226 0
vertex 177.86092580482162 -57.56797708083337 0
endloop
endfacet
facet normal 0.07861316974315004 0.9969051958651509 0
outer loop
vertex 177.81267554999982 -57.56417219999997 1
vertex 177.86092580482122 -57.567977080833344 1
vertex 177.86092580482162 -57.56797708083337 0
endloop
endfacet
facet normal 0.07861316974315004 0.9969051958651509 0
outer loop
vertex 177.81267554999982 -57.56417219999997 1
vertex 177.86092580482162 -57.56797708083337 0
vertex 177.81267554999977 -57.56417219999997 0
endloop
endfacet
facet normal 0.08744501663983328 0.9961693475834617 0
outer loop
vertex 155.06388120000275 -55.56725400000022 1
vertex 177.81267554999982 -57.56417219999997 1
vertex 177.81267554999977 -57.56417219999997 0
endloop
endfacet
facet normal 0.08744501663983328 0.9961693475834617 0
outer loop
vertex 155.06388120000275 -55.56725400000022 1
vertex 177.81267554999977 -57.56417219999997 0
vertex 155.06388119999983 -55.56725399999999 0
endloop
endfacet
facet normal 0.08122539087844416 0.9966957589338103 0
outer loop
vertex 155.0299214615754 -55.56448646236082 1
vertex 155.06388120000275 -55.56725400000022 1
vertex 155.06388119999983 -55.56725399999999 0
endloop
endfacet
facet normal 0.08122539087844416 0.9966957589338103 0
outer loop
vertex 155.0299214615754 -55.56448646236082 1
vertex 155.06388119999983 -55.56725399999999 0
vertex 155.02992146157538 -55.56448646236082 0
endloop
endfacet
facet normal 0.0689457919161214 0.997620407658674 0
outer loop
vertex 154.9959256000015 -55.56213700000009 1
vertex 155.0299214615754 -55.56448646236082 1
vertex 155.02992146157538 -55.56448646236082 0
endloop
endfacet
facet normal 0.0689457919161214 0.997620407658674 0
outer loop
vertex 154.9959256000015 -55.56213700000009 1
vertex 155.02992146157538 -55.56448646236082 0
vertex 154.99592560000053 -55.562137000000035 0
endloop
endfacet
facet normal 0.06273615998415494 0.9980301469547113 0
outer loop
vertex 132.55083589999842 -54.15123899999989 1
vertex 154.9959256000015 -55.56213700000009 1
vertex 154.99592560000053 -55.562137000000035 0
endloop
endfacet
facet normal 0.06273615998415494 0.9980301469547113 0
outer loop
vertex 132.55083589999842 -54.15123899999989 1
vertex 154.99592560000053 -55.562137000000035 0
vertex 132.55083589999623 -54.15123899999978 0
endloop
endfacet
facet normal 0.058297510647406625 0.9982992538574371 0
outer loop
vertex 132.52687857795627 -54.1498399683654 1
vertex 132.55083589999842 -54.15123899999989 1
vertex 132.55083589999623 -54.15123899999978 0
endloop
endfacet
facet normal 0.058297510647406625 0.9982992538574371 0
outer loop
vertex 132.52687857795627 -54.1498399683654 1
vertex 132.55083589999623 -54.15123899999978 0
vertex 132.52687857795598 -54.1498399683654 0
endloop
endfacet
facet normal 0.049404952326526086 0.9987788297143736 0
outer loop
vertex 132.50291294999863 -54.148654499999935 1
vertex 132.52687857795627 -54.1498399683654 1
vertex 132.52687857795598 -54.1498399683654 0
endloop
endfacet
facet normal 0.049404952326526086 0.9987788297143736 0
outer loop
vertex 132.50291294999863 -54.148654499999935 1
vertex 132.52687857795598 -54.1498399683654 0
vertex 132.5029129499972 -54.14865449999988 0
endloop
endfacet
facet normal 0.045308912821624865 0.9989730238694748 0
outer loop
vertex 110.1485616000002 -53.1347619 1
vertex 132.50291294999863 -54.148654499999935 1
vertex 132.5029129499972 -54.14865449999988 0
endloop
endfacet
facet normal 0.045308912821624865 0.9989730238694748 0
outer loop
vertex 110.1485616000002 -53.1347619 1
vertex 132.5029129499972 -54.14865449999988 0
vertex 110.14856160000025 -53.1347619 0
endloop
endfacet
facet normal 0.01877676048971466 0.9998237010921036 0
outer loop
vertex 110.00259579392193 -53.132020651740504 1
vertex 110.1485616000002 -53.1347619 1
vertex 110.14856160000025 -53.1347619 0
endloop
endfacet
facet normal 0.01877676048971466 0.9998237010921036 0
outer loop
vertex 110.00259579392193 -53.132020651740504 1
vertex 110.14856160000025 -53.1347619 0
vertex 110.00259579392197 -53.132020651740504 0
endloop
endfacet
facet normal -0.03428384643916616 0.9994121361447117 0
outer loop
vertex 109.85668579999987 -53.13702595000001 1
vertex 110.00259579392193 -53.132020651740504 1
vertex 110.00259579392197 -53.132020651740504 0
endloop
endfacet
facet normal -0.03428384643916616 0.9994121361447117 0
outer loop
vertex 109.85668579999987 -53.13702595000001 1
vertex 110.00259579392197 -53.132020651740504 0
vertex 109.85668579999982 -53.13702595000001 0
endloop
endfacet
facet normal -0.06082642964602769 0.9981483584400253 0
outer loop
vertex 87.52271609999927 -54.498041700000044 1
vertex 109.85668579999987 -53.13702595000001 1
vertex 109.85668579999982 -53.13702595000001 0
endloop
endfacet
facet normal -0.06082642964602769 0.9981483584400253 0
outer loop
vertex 87.52271609999927 -54.498041700000044 1
vertex 109.85668579999982 -53.13702595000001 0
vertex 87.52271610000032 -54.49804169999999 0
endloop
endfacet
facet normal -0.0652052065755413 0.9978718760619727 0
outer loop
vertex 87.49877076314274 -54.49960639049158 1
vertex 87.52271609999927 -54.498041700000044 1
vertex 87.52271610000032 -54.49804169999999 0
endloop
endfacet
facet normal -0.0652052065755413 0.9978718760619727 0
outer loop
vertex 87.49877076314274 -54.49960639049158 1
vertex 87.52271610000032 -54.49804169999999 0
vertex 87.49877076314198 -54.499606390491635 0
endloop
endfacet
facet normal -0.07394072539185005 0.9972626379888736 0
outer loop
vertex 87.47483804999908 -54.501380850000075 1
vertex 87.49877076314274 -54.49960639049158 1
vertex 87.49877076314198 -54.499606390491635 0
endloop
endfacet
facet normal -0.07394072539185005 0.9972626379888736 0
outer loop
vertex 87.47483804999908 -54.501380850000075 1
vertex 87.49877076314198 -54.499606390491635 0
vertex 87.47483804999892 -54.50138085000009 0
endloop
endfacet
facet normal -0.07823699041702523 0.996934788905717 0
outer loop
vertex 65.05593149999743 -56.2607615000002 1
vertex 87.47483804999908 -54.501380850000075 1
vertex 87.47483804999892 -54.50138085000009 0
endloop
endfacet
facet normal -0.07823699041702523 0.996934788905717 0
outer loop
vertex 65.05593149999743 -56.2607615000002 1
vertex 87.47483804999892 -54.50138085000009 0
vertex 65.05593150000067 -56.260761499999944 0
endloop
endfacet
facet normal -0.08430823477299045 0.996439722988532 0
outer loop
vertex 65.0223270454851 -56.26360475501613 1
vertex 65.05593149999743 -56.2607615000002 1
vertex 65.05593150000067 -56.260761499999944 0
endloop
endfacet
facet normal -0.08430823477299045 0.996439722988532 0
outer loop
vertex 65.0223270454851 -56.26360475501613 1
vertex 65.05593150000067 -56.260761499999944 0
vertex 65.02232704548419 -56.26360475501622 0
endloop
endfacet
facet normal -0.09653450259557417 0.9953296387672905 0
outer loop
vertex 64.98875574999875 -56.266860750000134 1
vertex 65.0223270454851 -56.26360475501613 1
vertex 65.02232704548419 -56.26360475501622 0
endloop
endfacet
facet normal -0.09653450259557417 0.9953296387672905 0
outer loop
vertex 64.98875574999875 -56.266860750000134 1
vertex 65.02232704548419 -56.26360475501622 0
vertex 64.98875574999998 -56.266860750000006 0
endloop
endfacet
facet normal 0 0 -1
outer loop
vertex 42.293112100000656 -58.60923889999995 1
vertex 52.3533958898704 -57.5709344 1
vertex 52.3820497867511 -57.567977080833344 1
endloop
endfacet
facet normal 0 0 -1
outer loop
vertex 42.293112100000656 -58.60923889999995 1
vertex 52.3820497867511 -57.567977080833344 1
vertex 52.418915832280476 -57.56417219999997 1
endloop
endfacet
facet normal 0 0 -1
outer loop
vertex 42.293112100000656 -58.60923889999995 1
vertex 52.418915832280476 -57.56417219999997 1
vertex 64.98875574999875 -56.266860750000134 1
endloop
endfacet
facet normal 0 0 -1
outer loop
vertex 42.293112100000656 -58.60923889999995 1
vertex 64.98875574999875 -56.266860750000134 1
vertex 64.98875574999998 -56.266860750000006 0
endloop
endfacet
facet normal 0 0 -1
outer loop
vertex 42.293112100000656 -58.60923889999995 1
vertex 64.98875574999998 -56.266860750000006 0
vertex 52.41891583228043 -57.56417219999997 0
endloop
endfacet
facet normal 0 0 -1
outer loop
vertex 42.293112100000656 -58.60923889999995 1
vertex 52.41891583228043 -57.56417219999997 0
vertex 52.382049786750784 -57.56797708083337 0
endloop
endfacet
facet normal 0 0 -1
outer loop
vertex 42.293112100000656 -58.60923889999995 1
vertex 52.382049786750784 -57.56797708083337 0
vertex 52.35339588986815 -57.570934400000226 0
endloop
endfacet
facet normal 0 0 -1
outer loop
vertex 42.293112100000656 -58.60923889999995 1
vertex 52.35339588986815 -57.570934400000226 0
vertex 42.29311209999966 -58.60923890000004 0
endloop
endfacet
facet normal -0.09009491079041254 0.995933184028762 0
outer loop
vertex 42.22397895526302 -58.61549287828652 1
vertex 42.293112100000656 -58.60923889999995 1
vertex 42.29311209999966 -58.60923890000004 0
endloop
endfacet
facet normal -0.09009491079041254 0.995933184028762 0
outer loop
vertex 42.22397895526302 -58.61549287828652 1
vertex 42.29311209999966 -58.60923890000004 0
vertex 42.22397895526311 -58.61549287828652 0
endloop
endfacet
facet normal -0.06492276826340063 0.9978902916458386 0
outer loop
vertex 42.15471105 -58.619999449999995 1
vertex 42.22397895526302 -58.61549287828652 1
vertex 42.22397895526311 -58.61549287828652 0
endloop
endfacet
facet normal -0.06492276826340063 0.9978902916458386 0
outer loop
vertex 42.15471105 -58.619999449999995 1
vertex 42.22397895526311 -58.61549287828652 0
vertex 42.15471104999996 -58.619999449999995 0
endloop
endfacet
facet normal -0.05233603687442212 0.998629530528854 0
outer loop
vertex 28.46792730000007 -59.337294499999985 1
vertex 42.15471105 -58.619999449999995 1
vertex 42.15471104999996 -58.619999449999995 0
endloop
endfacet
facet normal -0.05233603687442212 0.998629530528854 0
outer loop
vertex 28.46792730000007 -59.337294499999985 1
vertex 42.15471104999996 -58.619999449999995 0
vertex 28.467927300000042 -59.337294499999985 0
endloop
endfacet
facet normal -0.13916996022224729 0.9902685101384059 0
outer loop
vertex 27.993232496412276 -59.40400696864526 1
vertex 28.46792730000007 -59.337294499999985 1
vertex 28.467927300000042 -59.337294499999985 0
endloop
endfacet
facet normal -0.13916996022224729 0.9902685101384059 0
outer loop
vertex 27.993232496412276 -59.40400696864526 1
vertex 28.467927300000042 -59.337294499999985 0
vertex 27.99323249641219 -59.40400696864529 0
endloop
endfacet
facet normal -0.30901933739016835 0.951055755000169 0
outer loop
vertex 27.53733784663291 -59.55213736147856 1
vertex 27.993232496412276 -59.40400696864526 1
vertex 27.99323249641219 -59.40400696864529 0
endloop
endfacet
facet normal -0.30901933739016835 0.951055755000169 0
outer loop
vertex 27.53733784663291 -59.55213736147856 1
vertex 27.99323249641219 -59.40400696864529 0
vertex 27.537337846632852 -59.55213736147857 0
endloop
endfacet
facet normal -0.4694736738948671 0.8829464703591358 0
outer loop
vertex 27.114091817404827 -59.77718256520683 1
vertex 27.53733784663291 -59.55213736147856 1
vertex 27.537337846632852 -59.55213736147857 0
endloop
endfacet
facet normal -0.4694736738948671 0.8829464703591358 0
outer loop
vertex 27.114091817404827 -59.77718256520683 1
vertex 27.537337846632852 -59.55213736147857 0
vertex 27.114091817404883 -59.7771825652068 0
endloop
endfacet
facet normal -0.6156633022226334 0.7880093262749637 0
outer loop
vertex 26.736354514479913 -60.0723047008683 1
vertex 27.114091817404827 -59.77718256520683 1
vertex 27.114091817404883 -59.7771825652068 0
endloop
endfacet
facet normal -0.6156633022226334 0.7880093262749637 0
outer loop
vertex 26.736354514479913 -60.0723047008683 1
vertex 27.114091817404883 -59.7771825652068 0
vertex 26.736354514479928 -60.0723047008683 0
endloop
endfacet
facet normal -0.7431463281789071 0.6691289374359836 0
outer loop
vertex 26.415603285137394 -60.428536639152384 1
vertex 26.736354514479913 -60.0723047008683 1
vertex 26.736354514479928 -60.0723047008683 0
endloop
endfacet
facet normal -0.7431463281789071 0.6691289374359836 0
outer loop
vertex 26.415603285137394 -60.428536639152384 1
vertex 26.736354514479928 -60.0723047008683 0
vertex 26.415603285137394 -60.428536639152384 0
endloop
endfacet
facet normal -0.8480492477443977 0.5299174213027549 0
outer loop
vertex 26.161583985084093 -60.83505446185984 1
vertex 26.415603285137394 -60.428536639152384 1
vertex 26.415603285137394 -60.428536639152384 0
endloop
endfacet
facet normal -0.8480492477443977 0.5299174213027549 0
outer loop
vertex 26.161583985084093 -60.83505446185984 1
vertex 26.415603285137394 -60.428536639152384 0
vertex 26.16158398508408 -60.83505446185987 0
endloop
endfacet
facet normal -0.9271846414369964 0.3746046458379133 0
outer loop
vertex 25.982014855806312 -61.27950634090729 1
vertex 26.161583985084093 -60.83505446185984 1
vertex 26.16158398508408 -60.83505446185987 0
endloop
endfacet
facet normal -0.9271846414369964 0.3746046458379133 0
outer loop
vertex 25.982014855806312 -61.27950634090729 1
vertex 26.16158398508408 -60.83505446185987 0
vertex 25.982014855806312 -61.279506340907275 0
endloop
endfacet
facet normal -0.9781480223594354 0.20790970721523672 0
outer loop
vertex 25.882352009902405 -61.748387842061604 1
vertex 25.982014855806312 -61.27950634090729 1
vertex 25.982014855806312 -61.279506340907275 0
endloop
endfacet
facet normal -0.9781480223594354 0.20790970721523672 0
outer loop
vertex 25.882352009902405 -61.748387842061604 1
vertex 25.982014855806312 -61.279506340907275 0
vertex 25.882352009902405 -61.74838784206159 0
endloop
endfacet
facet normal -0.999390895256321 0.03489754258926325 0
outer loop
vertex 25.865623650000003 -62.227452249999985 1
vertex 25.882352009902405 -61.748387842061604 1
vertex 25.882352009902405 -61.74838784206159 0
endloop
endfacet
facet normal -0.999390895256321 0.03489754258926325 0
outer loop
vertex 25.865623650000003 -62.227452249999985 1
vertex 25.882352009902405 -61.74838784206159 0
vertex 25.865623650000003 -62.227452249999956 0
endloop
endfacet
facet normal 0 0 1
outer loop
vertex 31.2919457 -165.7679090999999 1
vertex 31.2886461030183 -165.70494899999883 1
vertex 31.271752252263607 -165.38259492499571 1
endloop
endfacet
facet normal 0 0 1
outer loop
vertex 31.2919457 -165.7679090999999 1
vertex 31.271752252263607 -165.38259492499571 1
vertex 31.25446066944011 -165.0526516653242 1
endloop
endfacet
facet normal 0 0 1
outer loop
vertex 31.2919457 -165.7679090999999 1
vertex 31.25446066944011 -165.0526516653242 1
vertex 31.237024236548883 -164.71994449999994 1
endloop
endfacet
facet normal 0 0 1
outer loop
vertex 31.2919457 -165.7679090999999 1
vertex 31.237024236548883 -164.71994449999994 1
vertex 25.865623650000003 -62.227452249999985 1
endloop
endfacet
facet normal 0 0 1
outer loop
vertex 31.2919457 -165.7679090999999 1
vertex 25.865623650000003 -62.227452249999985 1
vertex 25.865623650000003 -62.227452249999956 0
endloop
endfacet
facet normal 0 0 1
outer loop
vertex 31.2919457 -165.7679090999999 1
vertex 25.865623650000003 -62.227452249999956 0
vertex 31.23702423654889 -164.71994450000005 0
endloop
endfacet
facet normal 0 0 1
outer loop
vertex 31.2919457 -165.7679090999999 1
vertex 31.23702423654889 -164.71994450000005 0
vertex 31.254460669440103 -165.05265166532408 0
endloop
endfacet
facet normal 0 0 1
outer loop
vertex 31.2919457 -165.7679090999999 1
vertex 31.254460669440103 -165.05265166532408 0
vertex 31.271752252263624 -165.38259492499603 0
endloop
endfacet
facet normal 0 0 1
outer loop
vertex 31.2919457 -165.7679090999999 1
vertex 31.271752252263624 -165.38259492499603 0
vertex 31.288646103018323 -165.70494899999923 0
endloop
endfacet
facet normal 0 0 1
outer loop
vertex 31.2919457 -165.7679090999999 1
vertex 31.288646103018323 -165.70494899999923 0
vertex 31.291945700000003 -165.76790909999997 0
endloop
endfacet
facet normal -0.99996661292293 0.008171477188568588 0
outer loop
vertex 31.28922690322638 -166.10061589685057 1
vertex 31.2919457 -165.7679090999999 1
vertex 31.291945700000003 -165.76790909999997 0
endloop
endfacet
facet normal -0.99996661292293 0.008171477188568588 0
outer loop
vertex 31.28922690322638 -166.10061589685057 1
vertex 31.291945700000003 -165.76790909999997 0
vertex 31.289226903226375 -166.10061589685048 0
endloop
endfacet
facet normal -0.9916620513154875 0.12886572849582476 0
outer loop
vertex 31.24635102895978 -166.43055914804276 1
vertex 31.28922690322638 -166.10061589685057 1
vertex 31.289226903226375 -166.10061589685048 0
endloop
endfacet
facet normal -0.9916620513154875 0.12886572849582476 0
outer loop
vertex 31.24635102895978 -166.43055914804276 1
vertex 31.289226903226375 -166.10061589685048 0
vertex 31.24635102895976 -166.43055914804282 0
endloop
endfacet
facet normal -0.9688413376911229 0.24768218018435528 0
outer loop
vertex 31.163942850000012 -166.75290955 1
vertex 31.24635102895978 -166.43055914804276 1
vertex 31.24635102895976 -166.43055914804282 0
endloop
endfacet
facet normal -0.9688413376911229 0.24768218018435528 0
outer loop
vertex 31.163942850000012 -166.75290955 1
vertex 31.24635102895976 -166.43055914804282 0
vertex 31.16394284999995 -166.75290955000025 0
endloop
endfacet
facet normal -0.9520803827937283 0.30584791105931697 0
outer loop
vertex 24.594361899999967 -187.20349600000011 1
vertex 31.163942850000012 -166.75290955 1
vertex 31.16394284999995 -166.75290955000025 0
endloop
endfacet
facet normal -0.9520803827937283 0.30584791105931697 0
outer loop
vertex 24.594361899999967 -187.20349600000011 1
vertex 31.16394284999995 -166.75290955000025 0
vertex 24.59436189999994 -187.2034960000002 0
endloop
endfacet
facet normal -0.9696777812370097 0.24438698937396441 0
outer loop
vertex 24.508472448020186 -187.54428784591946 1
vertex 24.594361899999967 -187.20349600000011 1
vertex 24.59436189999994 -187.2034960000002 0
endloop
endfacet
facet normal -0.9696777812370097 0.24438698937396441 0
outer loop
vertex 24.508472448020186 -187.54428784591946 1
vertex 24.59436189999994 -187.2034960000002 0
vertex 24.5084724480202 -187.54428784591937 0
endloop
endfacet
facet normal -0.9929268392534407 0.1187278058846033 0
outer loop
vertex 24.46674527042161 -187.89325441070366 1
vertex 24.508472448020186 -187.54428784591946 1
vertex 24.5084724480202 -187.54428784591937 0
endloop
endfacet
facet normal -0.9929268392534407 0.1187278058846033 0
outer loop
vertex 24.46674527042161 -187.89325441070366 1
vertex 24.5084724480202 -187.54428784591937 0
vertex 24.46674527042161 -187.89325441070372 0
endloop
endfacet
facet normal -0.999960577534091 -0.00887937935259231 0
outer loop
vertex 24.46986595 -188.24469300000013 1
vertex 24.46674527042161 -187.89325441070366 1
vertex 24.46674527042161 -187.89325441070372 0
endloop
endfacet
facet normal -0.999960577534091 -0.00887937935259231 0
outer loop
vertex 24.46986595 -188.24469300000013 1
vertex 24.46674527042161 -187.89325441070372 0
vertex 24.46986595 -188.24469299999996 0
endloop
endfacet
endsolid csg.js
